<?xml version="1.0" encoding="UTF-8"?>
<svg width="8px" height="10px" viewBox="0 0 8 10" version="1.1" xmlns="http://www.w3.org/2000/svg" xmlns:xlink="http://www.w3.org/1999/xlink">
    <title>Group 17</title>
    <g id="Design" stroke="none" strokeWidth="1" fill="none" fillRule="evenodd">
        <g id="07---Mind-Collab-Collective---Profile-Page" transform="translate(-26, -160)" fill="#CE9569">
            <g id="Group" transform="translate(8, 143)">
                <g id="Group-14" transform="translate(11, 11)">
                    <g id="Group-17" transform="translate(7, 6)">
                        <path d="M1.67613796,9.99809677 C0.629659884,9.99699876 -0.0402979006,9.30012445 0.00188259768,8.25810704 C0.0811308066,6.3007101 1.67540756,4.62898038 3.62191887,4.46208191 C5.66338195,4.28694832 7.51932387,5.64208336 7.91227813,7.6126565 C7.97910957,7.94755145 8.02366386,8.30349171 7.98659615,8.63948468 C7.89803536,9.44012152 7.23921615,9.99077666 6.42117012,9.99681575 C5.61152367,10.0030378 4.80205983,9.99827977 3.99241338,9.99827977 C3.22038244,9.99827977 2.4481689,9.99901179 1.67613796,9.99809677 Z" id="Fill-1"></path>
                        <path d="M5.89430628,1.87705888 C5.89740154,2.94378166 5.09085929,3.75375163 4.01498268,3.76399978 C2.94056687,3.77443094 2.11028667,2.95055276 2.11338219,1.87705888 C2.11631246,0.812898144 2.93527149,-0.000365881922 4.00366151,0 C5.07314713,0.000549131609 5.89119316,0.812532139 5.89430628,1.87705888" id="Fill-4"></path>
                    </g>
                </g>
            </g>
        </g>
    </g>
</svg>