<?xml version="1.0" encoding="UTF-8"?>
<svg width="257px" height="567px" viewBox="0 0 257 567" version="1.1" xmlns="http://www.w3.org/2000/svg" xmlns:xlink="http://www.w3.org/1999/xlink">
    <title>Fill 49</title>
    <g id="Design" stroke="none" stroke-width="1" fill="none" fill-rule="evenodd">
        <g id="01---Mind-Collab-Collective----BlogImage-01" transform="translate(0, -4368)" fill="#EDCB22">
            <path d="M194.558135,4581.71538 C194.627627,4581.83839 194.698619,4581.9604 194.766611,4582.08491 C194.698619,4581.9604 194.627627,4581.83839 194.558135,4581.71538 M166.845354,4575.77838 C155.097218,4578.30359 145.110878,4584.88165 134.925061,4590.92565 C129.328211,4594.24843 123.594877,4597.4242 117.445591,4599.61038 C110.969343,4601.91408 104.215628,4602.55563 97.4534133,4603.50221 C90.9446693,4604.41329 84.6459009,4605.89791 79.0045561,4609.39521 C73.245725,4612.96801 68.2053104,4617.74491 63.1583966,4622.22928 C53.9524658,4630.40647 45.0455003,4638.91819 36.4539982,4647.74093 C36.7894593,4645.62425 37.0299313,4643.49057 37.187913,4641.35189 C41.1974473,4630.68049 45.9368968,4620.24812 51.5502448,4610.35629 C58.4899388,4598.12576 67.7248662,4586.53978 80.8248447,4580.61929 C83.9699794,4579.20117 87.2760954,4578.13208 90.6777003,4577.54603 C94.391269,4576.90948 98.1203358,4576.96948 101.867401,4577.1505 C105.460483,4577.32401 109.052566,4577.51353 112.63465,4577.09949 C115.997259,4576.71146 119.303375,4575.89739 122.522502,4574.8628 C135.298018,4570.74846 147.276626,4562.70128 161.068525,4562.50426 C173.59007,4562.32625 185.954634,4568.8808 192.993817,4579.19917 C185.334206,4574.29125 175.669829,4573.88422 166.845354,4575.77838 M35.2361397,4646.72534 C35.0996555,4647.64092 34.949173,4648.555 34.7791927,4649.46557 C34.6202112,4650.30164 34.4472313,4651.13321 34.2577533,4651.96378 C34.217758,4652.1518 34.1722632,4652.33731 34.1292682,4652.52283 C33.7863081,4653.96095 33.3958534,4655.38607 32.9484054,4656.79469 C32.787924,4657.31023 32.6189436,4657.82378 32.4384646,4658.33632 C32.280483,4657.09971 32.0795063,4655.87011 31.8195365,4654.65551 C31.8130373,4654.62051 31.806538,4654.5855 31.8000388,4654.5505 C31.6855521,4654.02396 31.5600666,4653.49541 31.4220827,4652.97387 C31.1116187,4651.77277 30.7316629,4650.58717 30.2702164,4649.42707 C29.2123393,4646.75434 27.6960154,4644.31764 25.7087463,4642.23547 C23.7209771,4640.15329 21.4082457,4638.42664 19.3174886,4636.45448 C10.5265096,4628.16178 10.6789919,4615.09568 5.65757514,4604.75882 C1.25858607,4595.70205 -6.02256824,4588.16342 -14.7885501,4583.24901 C-19.1965381,4580.7768 -23.9989803,4578.98515 -28.9604041,4578.02607 C-35.4481505,4576.77196 -42.0833799,4577.01748 -48.6411182,4576.48844 C-56.2752315,4575.87289 -63.7568626,4574.00623 -71.2224954,4572.3896 C-78.1671888,4570.88647 -85.1143819,4569.38134 -92.0560757,4567.87772 C-84.9738983,4564.95347 -77.8857215,4562.03072 -70.8035441,4559.10598 C-63.2284239,4555.98022 -55.694299,4552.57693 -47.8407112,4550.20423 C-34.6542428,4546.2234 -18.3771333,4546.17389 -9.15420451,4558.06339 C-5.40913949,4562.8873 -2.88193302,4568.73029 1.86851523,4572.72562 C4.63119435,4575.04482 7.99330385,4576.21992 11.2854215,4577.56153 C14.234079,4578.76263 16.9687614,4580.28526 19.4004789,4582.35193 C28.9413708,4590.46211 32.5364532,4603.73723 34.423734,4615.61923 C34.5757164,4616.57181 34.7171999,4617.52839 34.8506844,4618.48597 C35.2141422,4621.06669 35.5106078,4623.6599 35.7230831,4626.26212 C36.1045388,4630.98952 36.2010276,4635.73692 35.8935633,4640.46782 C35.8805648,4640.67733 35.8645667,4640.88685 35.8520681,4641.09637 C35.7130843,4642.97853 35.5106078,4644.85919 35.2361397,4646.72534 M51.0847989,4665.02238 C59.0953685,4663.27023 67.407903,4664.87237 75.4829651,4665.2104 C79.4475046,4665.37591 83.4530394,4665.3129 87.3490869,4664.48433 C91.6295897,4663.57326 95.6296251,4661.78611 99.6246611,4660.05446 C104.318116,4658.02029 109.046567,4656.18464 114.18647,4655.7256 C117.675065,4655.41407 121.183157,4655.66259 124.583262,4656.43116 C119.249382,4657.42074 114.629418,4661.80961 111.446788,4666.04897 C109.092062,4669.18273 106.998305,4672.52951 104.344113,4675.42775 C101.44245,4678.59352 97.8623658,4680.79821 93.6468554,4681.70228 C84.9823618,4683.56044 76.2833721,4680.60969 67.8573508,4678.92155 C63.5713486,4678.06248 59.1653604,4677.48143 54.7928682,4677.95097 C50.9783113,4678.36 47.3147368,4679.61811 43.9656258,4681.47726 C38.1767981,4684.69453 33.4353488,4689.40043 29.0973527,4694.39435 C33.0533932,4681.78229 36.6594744,4668.17915 51.0847989,4665.02238 M18.2146167,4734.02318 C17.2467291,4725.9425 13.9041173,4718.35336 7.9343107,4712.59538 C1.28358317,4706.17684 -7.29742017,4702.34552 -14.7670526,4697.03957 C-29.4608459,4686.60319 -38.8727528,4670.55635 -44.2036336,4653.60142 C-46.5958558,4645.99178 -48.2081685,4638.15612 -49.2020531,4630.24246 C-44.2396294,4644.13863 -35.6976216,4656.71518 -24.5349181,4666.38849 C-17.656717,4672.35 -9.6416479,4676.87438 -2.99342007,4683.1124 C3.37434033,4689.0879 8.01280159,4696.63804 11.2824218,4704.69171 C14.9579949,4713.73947 17.0077568,4723.34828 18.3960956,4732.98809 C18.4035947,4733.0336 18.4130936,4733.0736 18.4260921,4733.1131 C18.3571001,4733.41613 18.2861084,4733.71965 18.2146167,4734.02318 M57.7360264,4521.94586 C64.8142043,4512.87009 74.0901269,4506.45905 84.8498772,4502.48572 C95.5676323,4498.53089 106.904816,4496.70973 118.020524,4494.26103 C128.329327,4491.98984 138.702622,4489.1261 147.76107,4483.66914 C140.548408,4491.5713 133.189263,4499.36296 125.022711,4506.28904 C120.419246,4510.19437 115.56331,4513.81517 110.407409,4516.96144 C104.79656,4520.38422 98.841752,4523.18146 92.9029418,4525.97469 C82.2031846,4531.00912 71.7139029,4536.27556 62.8864282,4544.28023 C55.1983211,4551.25082 48.8310607,4559.63352 44.1051096,4568.8713 C41.4474182,4574.06924 39.3196654,4579.5357 37.7788443,4585.16367 C40.0390818,4562.9208 43.6661605,4539.98287 57.7360264,4521.94586 M26.7536249,4533.88986 C24.1989216,4530.96011 21.448741,4528.20188 18.4035947,4525.77968 C15.034986,4523.09395 11.418406,4520.75226 7.87781726,4518.30405 C0.968119808,4513.52065 -5.02868368,4508.01669 -9.79013065,4501.0521 C-14.3116055,4494.43404 -17.6557171,4487.08643 -20.3674021,4479.56079 C-22.9825984,4472.29568 -25.0163622,4464.83956 -26.9136418,4457.35743 C-19.1830397,4468.67738 -9.5141627,4478.50671 1.59254728,4486.57088 C7.75133196,4491.04126 14.2325792,4495.27711 19.1830042,4501.15111 C23.8314643,4506.66607 27.0055956,4513.22462 29.2918301,4520.02969 C31.9170252,4527.84085 33.4208505,4535.96753 34.8666826,4544.06221 C34.8791811,4544.12672 34.8966791,4544.18773 34.9241759,4544.23973 C34.9436736,4544.59626 34.9631714,4544.95529 34.9826691,4545.31432 C32.7369299,4541.16897 29.7707745,4537.34715 26.7536249,4533.88986 M30.6456728,4491.67331 C31.6095609,4487.08793 32.8619154,4482.56155 33.5678334,4477.92216 C34.2302565,4473.55829 34.4107355,4469.14492 34.7406972,4464.74855 C35.0726587,4460.32168 35.5336051,4455.8428 36.8474525,4451.58344 C38.0923079,4447.5481 40.1700666,4443.9018 42.8162593,4440.62402 C48.1246427,4434.04747 55.0258411,4428.96304 60.8836608,4422.91053 C67.2174251,4416.36798 72.763281,4409.10087 77.4497367,4401.29922 C76.3518642,4416.86302 65.2016593,4429.6961 59.8432816,4443.9238 C58.3194586,4447.96164 57.2960775,4452.12099 56.8231324,4456.41285 C56.2511988,4461.60979 56.2721964,4466.85273 55.6312708,4472.04366 C54.4839041,4481.31894 51.4917516,4490.3392 46.9102837,4498.48288 C44.3725785,4502.99176 41.208446,4506.9686 38.0968074,4511.07694 C36.6659736,4512.9616 35.2991324,4514.92977 34.2282567,4517.02744 C34.2032596,4517.07395 34.1807622,4517.11995 34.1582649,4517.16595 C34.1377672,4517.12445 34.1087706,4517.08645 34.0772743,4517.04644 C33.5583345,4516.42339 33.089389,4515.78134 32.667938,4515.12078 C28.2824473,4508.2442 29.0198617,4499.40446 30.6456728,4491.67331 M196.031964,4581.58387 C195.97747,4581.48336 195.922976,4581.38485 195.862983,4581.28484 C189.994665,4570.83696 179.265411,4563.50385 167.434785,4561.61669 C153.493404,4559.391 140.977858,4566.19007 128.469311,4571.231 C121.780588,4573.92422 114.893888,4576.0229 107.622732,4576.0064 C103.636695,4575.9959 99.6581572,4575.54936 95.6676207,4575.67687 C92.2065227,4575.78788 88.7764211,4576.39093 85.4653057,4577.40802 C71.6919054,4581.63287 61.2191218,4592.37227 53.6510008,4604.23527 C49.1965182,4611.22086 45.4629519,4618.67298 42.0368498,4626.20712 C40.39954,4629.80292 38.8512198,4633.43573 37.3968887,4637.10503 C37.4353842,4635.5599 37.4353842,4634.01327 37.4003883,4632.47014 C37.2944006,4627.71024 36.8959469,4622.92984 36.223025,4618.19244 C36.6594744,4610.39279 36.9609393,4602.58563 37.12742,4594.77398 C39.9215955,4576.64045 48.8460589,4559.54702 62.1200172,4546.84095 C70.6985208,4538.62976 80.9388314,4533.11929 91.5985933,4528.09187 C97.2809333,4525.40865 102.99377,4522.77693 108.461135,4519.67366 C113.815513,4516.63741 118.860427,4513.09511 123.630373,4509.21279 C134.173148,4500.63907 143.353582,4490.55672 152.468024,4480.51637 C152.506519,4480.47137 152.546014,4480.42887 152.58501,4480.38636 C153.108449,4479.80931 152.261048,4478.95374 151.651118,4479.41378 C151.605124,4479.44878 151.557129,4479.48429 151.511635,4479.51679 C132.773311,4493.52747 107.98569,4493.16044 86.5581788,4500.43705 C75.8524222,4504.07635 66.2895329,4509.88034 58.8353987,4518.46506 C51.3257709,4527.11629 46.193367,4537.65968 42.8772522,4548.57109 C40.0320826,4557.93938 38.4287689,4567.57869 37.2704034,4577.28251 C37.2319079,4569.21933 37.0459295,4561.15565 36.7124682,4553.09647 C36.6484756,4551.54334 36.5799836,4549.99321 36.5054922,4548.44058 C36.4320008,4546.95096 36.3560096,4545.45933 36.2715194,4543.96821 C35.827071,4535.89653 35.23364,4527.83585 34.4877266,4519.78617 C35.560602,4516.94644 37.3028996,4514.37372 39.1546845,4511.92901 C41.8738687,4508.34221 44.6705439,4504.86492 47.0047728,4501.0046 C51.7767185,4493.10643 55.0368399,4484.28969 56.550664,4475.18843 C58.1589772,4465.49361 57.2530825,4455.57778 60.4787078,4446.15999 C63.1528972,4438.35433 67.4468985,4431.24923 71.2364583,4423.96062 C75.3014862,4416.13596 78.8250769,4407.87677 78.8880696,4398.92902 C78.8920692,4398.81401 78.893069,4398.696 78.8915692,4398.57849 C78.8900694,4397.83143 77.8886857,4397.85743 77.59372,4398.37397 C72.9602581,4406.48965 67.3774065,4414.05129 60.9711506,4420.85586 C55.0563376,4427.13939 48.0256542,4432.34183 42.4453023,4438.93938 C39.7216187,4442.15465 37.4488827,4445.74545 36.0345469,4449.73029 C34.5822156,4453.82363 33.950789,4458.14049 33.5673335,4462.44986 C33.1688798,4466.92223 33.0243966,4471.41611 32.4739605,4475.87498 C31.8865287,4480.64939 30.6636707,4485.29578 29.6202919,4489.98267 C27.5770293,4499.19894 26.4616588,4509.98735 32.9319073,4517.79401 C32.9889007,4518.39856 33.0453941,4519.00011 33.0998878,4519.60466 C33.235872,4521.04078 33.3628572,4522.4754 33.4883427,4523.91252 C33.7588113,4527.08079 34.0077823,4530.24855 34.2352559,4533.42132 C33.5848315,4530.28356 32.8524165,4527.15129 31.9860172,4524.06653 C29.8872609,4516.61991 26.9900974,4509.45431 22.4551241,4503.14128 C18.0166397,4496.96526 12.0403338,4492.38737 5.91504524,4488.001 C-0.331729218,4483.52663 -6.35452969,4478.87424 -11.8173952,4473.44728 C-17.9066879,4467.39227 -23.2900627,4460.6482 -27.8960277,4453.4011 C-27.9285239,4453.35259 -27.9590204,4453.30109 -27.9915166,4453.25258 C-28.4434641,4452.54052 -29.3408599,4453.22558 -29.1718795,4453.90564 C-29.1573812,4453.96164 -29.1433828,4454.01465 -29.1293844,4454.07065 C-25.3313256,4469.32743 -21.2782963,4484.91524 -13.0567512,4498.48138 C-9.01022123,4505.15895 -3.90731392,4511.12895 2.27496802,4515.91735 C8.97368998,4521.10379 16.4598205,4525.19013 22.4621233,4531.25164 C25.6137573,4534.43441 28.5039216,4537.9082 31.0301282,4541.60801 C32.5704493,4543.8612 34.0242804,4546.2474 35.1551491,4548.76461 C35.6765885,4559.55402 35.9340586,4570.35592 35.9260595,4581.15883 C35.9235598,4584.45761 35.896563,4587.75689 35.844569,4591.05566 C35.8315705,4591.89473 35.8180721,4592.7338 35.7995742,4593.57588 C35.7955747,4593.8969 35.7870757,4594.22093 35.7805764,4594.54446 C35.7200835,4597.4827 35.6405927,4600.42045 35.5386045,4603.3582 C35.440116,4606.24594 35.3251293,4609.13518 35.1881452,4612.02443 C35.0146654,4611.12885 34.8306868,4610.23728 34.639209,4609.3492 C33.2418713,4602.89416 31.2141068,4596.51062 27.9269886,4590.75264 C24.7743548,4585.22917 20.3333706,4580.42277 14.5985367,4577.54603 C10.9409615,4575.71287 6.82143996,4574.7723 3.50682494,4572.28609 C0.695651454,4570.17791 -1.35960983,4567.28717 -3.26138895,4564.37492 C-5.19316458,4561.41617 -6.99695507,4558.34491 -9.34968181,4555.69169 C-11.5469266,4553.21348 -14.204118,4551.21182 -17.1667739,4549.73319 C-23.4270468,4546.60693 -30.7072012,4545.82186 -37.5999006,4546.62093 C-46.3388856,4547.63551 -54.5889274,4550.94929 -62.65999,4554.27357 C-71.1580029,4557.77537 -79.6495167,4561.28516 -88.14453,4564.78896 C-90.1832932,4565.63053 -92.2215565,4566.4721 -94.2603197,4567.31367 C-94.3678072,4567.35817 -94.4747948,4567.40268 -94.5822823,4567.44718 C-95.221708,4567.7107 -95.0892234,4568.61028 -94.4417986,4568.75129 C-87.8220675,4570.18541 -81.1998366,4571.61953 -74.5776058,4573.05315 C-67.9943704,4574.48027 -61.419634,4576.08341 -54.7634071,4577.12499 C-48.2766605,4578.14108 -41.7339205,4578.02557 -35.2046788,4578.57161 C-29.667322,4579.03315 -24.3019451,4580.26026 -19.2225351,4582.53995 C-9.96111079,4586.6918 -2.04403034,4593.8109 3.00188359,4602.62314 C5.72756701,4607.38504 7.27188764,4612.56697 8.71022058,4617.82941 C10.1605521,4623.12336 11.6378805,4628.54281 14.7220223,4633.1562 C18.3945958,4638.65366 24.7608563,4641.64542 27.9104905,4647.54941 C29.0223614,4649.63559 29.7877725,4651.85527 30.3212105,4654.13797 C30.4506955,4654.67451 30.5636824,4655.21556 30.6656705,4655.7571 C30.9131418,4657.06071 31.0966205,4658.37732 31.2421036,4659.69993 C31.1461147,4660.5345 31.0441266,4661.36657 30.9426383,4662.19864 C30.9121419,4662.44866 30.8811455,4662.69568 30.850649,4662.94521 C30.7746579,4663.55826 30.6986667,4664.17431 30.6196759,4664.78786 C29.1183502,4676.71586 27.295062,4688.60436 25.1593101,4700.43686 C23.4005143,4710.18068 21.4292433,4719.88449 19.2444971,4729.5403 C16.7472871,4714.0115 12.1888166,4698.12516 1.72103236,4686.06615 C-4.30576764,4679.12056 -12.1488567,4674.33916 -19.3880159,4668.8112 C-26.3712048,4663.47675 -32.5009928,4657.12272 -37.5399076,4649.91711 C-43.1397572,4641.90394 -47.3217715,4632.95469 -49.8889733,4623.52239 C-49.9064712,4623.46389 -49.9234693,4623.40538 -49.9379676,4623.34688 C-50.1464434,4622.58381 -51.3103082,4622.93384 -51.2498152,4623.6689 C-51.2463156,4623.72891 -51.2398164,4623.78841 -51.2333171,4623.84792 C-49.7614881,4641.4639 -45.4594878,4659.20889 -36.5655208,4674.61369 C-32.2465224,4682.09381 -26.7806572,4688.94139 -20.1904227,4694.54236 C-13.1782371,4700.50336 -4.77921266,4704.37619 2.56693411,4709.85415 C6.90992968,4713.09442 10.7294861,4716.98575 13.2216966,4721.84366 C15.8658895,4726.99209 17.0622505,4732.72957 17.1592393,4738.49255 C16.7922819,4740.01318 16.4223248,4741.53131 16.0468685,4743.04744 C9.47663157,4769.57967 1.29758154,4795.71336 -8.44778656,4821.25301 C-18.1316618,4846.62964 -29.3623574,4871.41773 -42.099378,4895.41324 C-43.6981923,4898.4245 -45.3205039,4901.42225 -46.9658128,4904.4115 C-47.3892636,4905.18006 -46.1449081,4905.72961 -45.7234571,4904.96705 C-32.5134914,4880.96953 -20.8038514,4856.15444 -10.673528,4830.7048 C-0.603197688,4805.40968 7.91481297,4779.502 14.8580065,4753.17829 C16.1318586,4748.34588 17.3517169,4743.49748 18.5185814,4738.63857 C18.9630297,4736.79491 19.3984792,4734.94926 19.8234298,4733.1046 C22.4176285,4721.89366 24.7258604,4710.62071 26.7466257,4699.29326 C27.1650771,4698.78272 27.5890279,4698.27467 28.0134786,4697.76863 C32.2819828,4692.6597 36.825955,4687.67378 42.4103064,4684.00198 C45.6839262,4681.84979 49.3340022,4680.22116 53.210552,4679.5456 C57.6780331,4678.76454 62.2230052,4679.23707 66.6484912,4680.07064 C74.8010443,4681.61027 82.9076028,4684.37301 91.3146263,4683.44893 C95.0306947,4683.03939 98.6542738,4681.84579 101.69842,4679.64461 C104.676574,4677.49193 106.979807,4674.56568 109.113559,4671.61393 C113.75452,4665.19189 120.146278,4655.58809 129.449197,4657.92328 C129.505691,4657.93628 129.561684,4657.94979 129.618177,4657.96529 C130.365091,4658.1638 130.721049,4656.9512 130.006632,4656.67218 C129.952639,4656.65068 129.895645,4656.62967 129.841651,4656.61067 C121.456125,4653.3989 112.458171,4653.60992 104.085143,4656.74768 C99.6736554,4658.40132 95.4686438,4660.57151 90.9991629,4662.07013 C86.7761534,4663.48675 82.4246588,4663.97329 77.9831747,4663.93029 C69.5416552,4663.84778 61.011146,4662.02363 52.5911239,4663.35974 C48.7055752,4663.97629 44.9485116,4665.35391 41.7733804,4667.70861 C38.6792398,4670.0028 36.2740191,4673.07406 34.37224,4676.40034 C31.0956206,4682.12782 29.4663098,4688.50685 27.5370339,4694.77338 C28.7798895,4687.52727 29.9057588,4680.25766 30.9121419,4672.97155 C31.2051079,4670.84287 31.4895748,4668.71269 31.7630431,4666.58051 C31.9365229,4665.2479 32.1020037,4663.91329 32.2644848,4662.58168 C32.408968,4662.24565 32.5374531,4661.91162 32.6604388,4661.60809 C32.6949348,4661.52259 32.7299308,4661.43908 32.7614271,4661.35357 C33.4468475,4659.63993 34.0442781,4657.89728 34.5677173,4656.12963 C35.156149,4654.14747 35.6400928,4652.1433 36.0320472,4650.11913 C43.7451514,4642.13546 51.7152257,4634.40381 59.9367708,4626.94318 C64.9216918,4622.4163 69.9271104,4617.82141 75.2539917,4613.69607 C77.8831863,4611.6574 80.6633634,4609.77474 83.7035103,4608.40062 C86.8011505,4607.0015 90.0957679,4606.13093 93.4313804,4605.51588 C99.8586339,4604.33178 106.431371,4604.01625 112.788132,4602.43462 C118.790935,4600.94349 124.434779,4598.36028 129.843651,4595.39753 C140.26844,4589.68905 150.017808,4582.38894 161.407985,4578.65412 C172.420706,4575.04532 185.661168,4574.37626 194.972087,4582.36343 C195.45803,4582.78197 196.368925,4582.19642 196.031964,4581.58387" id="Fill-49" transform="translate(50.5525, 4651.6664) rotate(15) translate(-50.5525, -4651.6664)"></path>
        </g>
    </g>
</svg>