<?xml version="1.0" encoding="UTF-8"?>
<svg width="7px" height="12px" viewBox="0 0 7 12" version="1.1" xmlns="http://www.w3.org/2000/svg" xmlns:xlink="http://www.w3.org/1999/xlink">
    <title>Group 3</title>
    <g id="Design" stroke="none" strokeWidth="1" fill="none" fillRule="evenodd">
        <g id="07---Mind-Collab-Collective---Profile-Page" transform="translate(-27, -574)" fill="#DC9873">
            <g id="Group-3" transform="translate(27, 574)">
                <path d="M4.3714351,10.3080241 L4.3714351,11.1489673 C4.3714351,11.61879 3.98361812,12 3.50510201,12 L3.50510201,12 C3.0265859,12 2.63832212,11.61879 2.63832212,11.1489673 L2.63832212,10.3106562 C1.77958452,10.2584537 1.07409718,9.95006397 0.552242074,9.29511972 C0.191679513,8.84152806 0,8.28967282 0.0111748354,7.73869494 L1.71748019,7.73869494 C1.93194119,8.42083714 2.15042334,8.57788339 2.88718625,8.57788339 C3.36391518,8.57788339 3.84019733,8.5813928 4.31647947,8.57700603 C4.8584403,8.57218059 5.24849125,8.21071102 5.24938484,7.71983184 C5.25027842,7.22895266 4.86022747,6.86836045 4.31960703,6.85914824 C3.62082159,6.84774264 2.9122067,6.90257723 2.2245911,6.8091391 C0.862763735,6.62357887 -0.0513762905,5.48521294 0.00223896028,4.15470663 C0.054067036,2.86894535 1.10045801,1.82314019 2.44888157,1.70864559 C2.4966885,1.70425882 2.54449543,1.69987205 2.62089717,1.69285323 L2.62089717,0.850594041 C2.62089717,0.38077134 3.00871415,0 3.48723026,0 L3.49527255,0 C3.97423545,0 4.36205244,0.38077134 4.36205244,0.850594041 L4.36205244,1.68978249 C5.22257721,1.73803692 5.92717096,2.04862 6.44768569,2.70531895 C6.8051207,3.15583988 6.98517858,3.66953025 6.99902919,4.26130506 L5.28244757,4.26130506 C5.06709298,3.57784683 4.8508448,3.42211661 4.11274152,3.42211661 C3.63645938,3.42211661 3.16017723,3.41904588 2.68389509,3.42299397 C2.14327464,3.42738073 1.75143652,3.78972765 1.75054293,4.27929081 C1.74964934,4.7679766 2.14193426,5.13163955 2.67987394,5.14041309 C3.37910617,5.15225736 4.08772107,5.09654542 4.77488987,5.19042223 C6.13761082,5.37598245 7.05219764,6.51478706 6.9976888,7.84485469 C6.94496714,9.13193201 5.90393769,10.1733504 4.55149299,10.2913544 C4.50368606,10.2953025 4.45632592,10.3001279 4.3714351,10.3080241" id="Fill-1"></path>
            </g>
        </g>
    </g>
</svg>