<?xml version="1.0" encoding="UTF-8"?>
<svg width="293px" height="361px" viewBox="0 0 293 361" version="1.1" xmlns="http://www.w3.org/2000/svg" xmlns:xlink="http://www.w3.org/1999/xlink">
    <title>Fill 33</title>
    <g id="Design" stroke="none" stroke-width="1" fill="none" fill-rule="evenodd">
        <g id="03---Mind-Collab-Collective---Blog-Listing" transform="translate(-1147, -85)" fill="#EDCB22">
            <path d="M1544.2428,240.428927 C1539.50585,247.449017 1534.56242,254.056572 1528.00618,259.495029 C1515.70811,269.695386 1499.86245,275.623884 1483.85481,275.630896 C1474.89735,275.635885 1466.05388,273.969245 1457.2849,272.306606 C1448.50642,270.640966 1439.75843,269.15084 1430.81347,268.78381 C1421.36107,268.398777 1411.89617,268.78731 1402.44427,268.343773 C1393.36932,267.915737 1384.31887,266.860648 1375.39041,265.176006 C1362.77887,262.790306 1350.38781,259.183003 1338.4722,254.403101 C1338.03775,254.232087 1337.6043,254.054572 1337.17435,253.876557 C1338.07874,253.584532 1338.98014,253.280007 1339.87553,252.96498 C1341.35786,252.450437 1342.83119,251.912392 1344.29402,251.353845 C1360.93609,245.007311 1376.41379,236.170569 1392.54892,228.709442 C1408.43657,221.362824 1425.4246,214.963286 1443.10255,214.29173 C1452.28298,213.941701 1461.35443,215.308315 1469.99892,218.432078 C1479.91177,222.011379 1489.04321,227.350327 1498.53011,231.868207 C1513.08542,238.79879 1531.48128,244.223245 1546.7865,236.245575 C1546.96548,236.152067 1547.14246,236.056559 1547.31794,235.957551 C1546.26906,237.434675 1545.25068,238.935301 1544.2428,240.428927 M1308.57567,297.422216 C1321.88362,296.896172 1335.31406,298.328793 1348.09208,302.148114 C1354.34135,304.01477 1360.43365,306.442975 1366.21098,309.476729 C1372.53874,312.800009 1378.37806,316.926356 1384.19089,321.066203 C1393.14535,327.44474 1402.53826,334.304816 1412.96905,337.985125 C1404.43904,338.129137 1395.92353,339.642765 1387.59399,341.60643 C1374.02857,344.807199 1360.68512,349.167565 1346.82573,350.982218 C1339.89503,351.888794 1332.86835,352.092311 1325.93115,351.147732 C1318.55501,350.139147 1311.39634,347.897458 1304.53564,345.054719 C1290.51777,339.245231 1277.69576,331.006539 1264.27582,324.00145 C1258.49399,320.984697 1252.51868,318.145958 1246.3519,315.91127 C1246.56387,315.846265 1246.77685,315.78526 1246.98882,315.720754 C1257.89756,312.477982 1269.29723,310.896349 1280.67691,311.110867 C1292.45704,311.331885 1303.93621,313.614577 1315.02492,317.546908 C1328.81182,322.437319 1342.33975,329.035873 1357.19202,329.782436 C1358.12042,329.82794 1358.19891,328.385319 1357.26552,328.336814 C1343.73209,327.656257 1331.25254,322.012283 1318.73449,317.359392 C1307.53979,313.198542 1296.09612,310.382306 1284.13751,309.784255 C1271.92493,309.168204 1259.60286,310.611825 1247.82923,313.965107 C1266.44706,303.926763 1287.51562,298.250786 1308.57567,297.422216 M1320.09283,211.622006 C1319.03896,197.771342 1314.06403,184.097692 1316.0768,170.101016 C1317.22967,162.091843 1320.52528,154.55821 1324.28085,147.458113 C1327.97692,140.474526 1331.96245,133.587448 1336.14497,126.885384 C1340.35898,120.134817 1345.00294,113.572765 1350.69728,107.976795 C1356.00266,102.768857 1362.13245,98.8075246 1368.89266,95.7622686 C1373.99207,93.4670757 1379.37995,91.5754168 1384.68683,89.5167437 C1379.62842,97.0378758 1376.02434,105.510588 1374.20755,114.426337 C1371.94131,125.551272 1372.96719,136.862223 1372.85021,148.121169 C1372.79471,153.709639 1372.43825,159.335611 1371.1324,164.784569 C1370.35999,168.00734 1369.22913,171.1016 1367.85579,174.091352 C1366.91689,176.139024 1365.86552,178.137192 1364.73465,180.092856 C1364.3167,180.814917 1363.88875,181.529977 1363.4518,182.243537 C1359.9432,187.955517 1356.02266,193.425476 1352.15211,198.893436 C1348.24056,204.4174 1344.25553,209.88636 1340.1955,215.299315 C1334.32118,223.135973 1328.29238,230.854622 1322.1141,238.453761 C1321.45917,239.262329 1320.80325,240.066896 1320.14083,240.870964 C1316.9527,242.72562 1313.78657,244.615278 1310.64693,246.54344 C1310.23048,246.799462 1309.81353,247.054983 1309.39907,247.312005 C1309.80003,246.817463 1310.18998,246.312421 1310.56644,245.801878 C1317.8111,236.034557 1321.03122,223.940541 1320.09283,211.622006 M1393.76978,151.023413 C1406.66378,141.11708 1421.64504,133.448436 1437.88665,131.191246 C1447.08708,129.909638 1456.35651,131.095238 1465.57644,130.210164 C1473.71149,129.429598 1481.64257,127.003894 1488.99122,123.451596 C1496.48784,119.827291 1503.41354,115.032888 1509.63382,109.515424 C1516.30604,103.599927 1521.64692,96.3333166 1528.44563,90.5728325 C1529.65649,89.5442461 1530.91585,88.5891658 1532.23669,87.7195927 C1532.67314,87.6290851 1533.11309,87.5545788 1533.55454,87.4880733 C1536.15824,87.104041 1538.74544,87.2140502 1541.34214,87.6105836 C1541.56461,87.6460865 1541.78458,87.6795894 1542.00856,87.7125921 C1541.10666,88.6811735 1540.26926,89.7257613 1539.48385,90.8123526 C1536.58419,94.8211895 1534.16747,99.1950571 1531.52028,103.372908 C1526.06191,111.988132 1520.34407,120.439843 1514.29578,128.647032 C1502.25518,144.987406 1488.86223,160.419703 1473.601,173.83983 C1458.55875,187.068442 1441.66221,198.257382 1423.11887,205.936528 C1405.40592,213.271644 1386.56011,217.209975 1368.05076,221.947373 C1360.97758,223.756525 1353.87641,225.692688 1346.90972,227.987381 C1343.49012,229.108975 1340.10701,230.316577 1336.7709,231.638188 C1332.90584,233.169817 1329.10529,234.850958 1325.39772,236.727616 C1338.20523,220.901285 1350.41931,204.549911 1361.7035,187.63399 C1364.43018,183.546146 1367.03088,179.334292 1369.10114,174.870917 C1376.56877,166.177186 1384.64034,158.038502 1393.76978,151.023413 M1550.71255,231.979717 C1550.37859,232.241238 1550.04112,232.49726 1549.69866,232.73928 C1536.00126,242.627111 1517.18544,238.632276 1502.83211,232.269741 C1493.20473,228.002882 1484.11928,222.593428 1474.37741,218.58009 C1465.9114,215.088797 1457.04043,213.016623 1447.87099,212.806605 C1430.72498,212.419573 1413.99643,217.785524 1398.42024,224.499588 C1382.23512,231.478174 1366.93239,240.311917 1350.70728,247.208496 C1345.73635,249.318674 1340.64295,251.278838 1335.45355,252.930477 C1335.27007,252.930977 1335.08409,252.929977 1334.90011,252.930477 C1333.71325,252.926477 1332.52139,252.929477 1331.33053,252.936478 C1320.77375,252.995983 1310.15299,253.480523 1299.77119,255.134662 C1301.57398,253.941562 1303.38877,252.762963 1305.21406,251.598365 C1305.48503,251.423351 1305.7565,251.251836 1306.02697,251.076321 C1309.82752,248.662119 1313.66808,246.308921 1317.55113,244.017728 C1318.75499,243.299668 1319.96735,242.590608 1321.18321,241.887049 C1324.47032,239.986389 1327.78094,238.129233 1331.11855,236.31058 C1333.13182,235.213488 1335.15358,234.129397 1337.18235,233.056807 C1345.60537,229.701525 1354.34485,227.065804 1363.09484,224.731107 C1381.22823,219.896201 1399.70809,216.19489 1417.36453,209.725346 C1435.86489,202.945276 1452.91541,192.739419 1468.17663,180.325875 C1483.62434,167.760819 1497.24426,153.062584 1509.47934,137.386267 C1515.71361,129.401096 1521.59493,121.143402 1527.19628,112.705193 C1529.96096,108.538342 1532.65964,104.324988 1535.29434,100.076631 C1537.87704,95.9182817 1540.25126,91.4299045 1543.75835,87.9546125 C1543.76485,87.9451117 1543.77235,87.9396112 1543.78085,87.9316105 C1544.2478,87.473072 1544.72974,87.0390355 1545.23418,86.6335014 C1544.58426,86.6009987 1543.93533,86.5314929 1543.28541,86.4404852 C1542.30352,86.3079741 1541.32014,86.1364597 1540.33925,86.0079489 C1538.43497,85.7579279 1536.5097,85.7294255 1534.60292,85.9104407 C1533.8675,85.9774463 1533.13259,86.0799549 1532.40617,86.211966 C1532.1747,86.2539695 1531.94423,86.2994734 1531.71425,86.3494776 C1530.52389,87.1250427 1529.38952,87.9681136 1528.29665,88.8596885 C1522.92377,93.2275556 1518.54878,98.7515198 1513.67835,103.687935 C1507.75104,109.691439 1501.10131,115.019887 1493.79666,119.258243 C1486.5045,123.494099 1478.55943,126.637363 1470.24089,128.113988 C1460.90648,129.774127 1451.47307,128.554024 1442.07566,129.287586 C1426.12102,130.536691 1411.13526,137.084741 1398.07178,146.104999 C1387.95095,153.092087 1379.02599,161.514295 1370.86694,170.650562 C1372.74672,165.539633 1373.67461,160.15068 1374.05407,154.726724 C1374.82648,143.627791 1373.47063,132.477354 1374.5985,121.390422 C1375.80136,109.587931 1380.17335,98.1949731 1387.07655,88.5736645 C1387.62349,87.8081002 1388.18592,87.056537 1388.76786,86.3174749 C1387.90946,86.6815055 1387.04556,87.0345351 1386.17916,87.3790641 C1381.42521,89.2857243 1376.56677,90.9813668 1371.90681,92.8975279 C1365.46906,95.5457504 1359.29328,98.7225174 1353.88891,103.15989 C1347.9126,108.062302 1342.96268,114.10481 1338.61018,120.460344 C1334.1352,126.991393 1330.21616,133.897974 1326.31311,140.780052 C1322.48555,147.532119 1318.78448,154.460202 1316.48225,161.901827 C1314.3525,168.785906 1313.80556,175.819497 1314.44749,182.976098 C1315.07342,189.924682 1316.59224,196.750256 1317.67261,203.634334 C1318.93047,211.648508 1319.4809,219.771691 1317.53613,227.728359 C1315.47837,236.164068 1311.11887,243.936721 1304.98659,250.079238 C1302.07293,251.926893 1299.18476,253.809051 1296.32209,255.731713 C1295.59318,256.215253 1294.87176,256.703294 1294.15135,257.195836 C1293.81338,257.420355 1293.47942,257.650374 1293.14646,257.878393 C1293.05847,257.938398 1292.96698,257.999403 1292.88149,258.060908 C1281.91277,265.57104 1271.3075,273.617216 1261.13368,282.281944 C1250.26494,291.542222 1239.89715,301.39405 1230.09129,311.770422 C1229.66784,312.21546 1229.24688,312.662497 1228.83043,313.112035 C1223.48655,318.817014 1218.30915,324.679507 1213.30824,330.689012 C1211.9144,332.365153 1210.53556,334.051295 1209.17072,335.746437 C1205.06319,340.847866 1201.08316,346.050303 1197.2311,351.346748 C1178.74475,376.768385 1163.26705,404.388706 1151.35893,433.484151 C1149.8741,437.113456 1148.44827,440.768263 1147.07243,444.442072 C1146.74597,445.314145 1148.12181,445.757183 1148.44827,444.885109 C1159.53248,415.311124 1174.24527,387.154258 1192.1027,361.109069 C1199.04839,350.986218 1206.45853,341.182394 1214.30812,331.743101 C1214.31212,331.742101 1214.31212,331.742101 1214.31362,331.7396 C1214.90905,331.307064 1215.51148,330.879028 1216.11691,330.456493 C1222.11271,326.293643 1228.55946,322.772347 1235.28518,319.922107 C1237.46143,318.99803 1239.67117,318.144458 1241.90241,317.363892 C1242.60333,317.117872 1243.30575,316.880352 1244.01117,316.647832 C1249.42154,318.465485 1254.69343,320.78368 1259.80633,323.333394 C1273.22578,330.023456 1285.87531,338.187142 1299.52222,344.435167 C1306.16095,347.474423 1313.04765,350.046639 1320.19932,351.592269 C1327.03103,353.066393 1333.99772,353.497429 1340.96591,353.013388 C1354.75131,352.060308 1368.05976,348.053972 1381.37721,344.635184 C1393.30633,341.570927 1405.6199,338.817695 1417.98946,339.47425 C1420.99161,340.195811 1424.08425,340.627347 1427.27688,340.685352 C1427.33738,340.687352 1427.40037,340.686852 1427.46136,340.688353 C1428.23827,340.700354 1428.55973,339.451749 1427.72183,339.278734 C1427.66084,339.266233 1427.59735,339.252232 1427.53485,339.242731 C1424.50271,338.629179 1421.46456,338.257648 1418.41941,338.085634 C1406.99624,335.369406 1396.86542,328.312312 1387.34702,321.543244 C1381.43521,317.33789 1375.56589,313.015027 1369.22063,309.470229 C1363.53829,306.290962 1357.53548,303.689743 1351.3517,301.655072 C1325.85766,293.263367 1297.62594,294.380461 1272.1599,302.272624 C1262.11257,305.388886 1252.40669,309.586739 1243.31975,314.865682 C1242.74332,315.19621 1242.17238,315.534239 1241.60195,315.876267 C1241.52246,315.924271 1241.44097,315.974276 1241.36098,316.02228 C1233.73786,318.695504 1226.40721,322.193798 1219.55801,326.471158 C1218.97208,326.837188 1218.38915,327.20872 1217.81371,327.585251 C1221.95523,322.737844 1226.21574,317.989445 1230.58773,313.348555 C1231.00168,312.908018 1231.41563,312.466481 1231.83508,312.032944 C1239.15423,304.324296 1246.78735,296.911673 1254.70593,289.818077 C1267.29197,278.54663 1280.58092,268.19076 1294.47331,258.697462 C1295.05974,258.293928 1295.65117,257.892894 1296.2426,257.492361 C1296.40408,257.383852 1296.56657,257.272842 1296.73005,257.165833 C1300.00467,256.560782 1303.29828,256.079742 1306.5964,255.70171 C1314.56098,254.785133 1322.54505,254.466606 1330.53612,254.400601 C1331.91796,254.3876 1333.2998,254.384599 1334.68214,254.3856 C1334.81112,254.442604 1334.94161,254.497109 1335.07159,254.551113 C1345.76435,259.039991 1356.84506,262.593789 1368.16475,265.145504 C1376.98323,267.134671 1385.93918,268.529288 1394.94664,269.296853 C1404.36005,270.09942 1413.77745,269.97341 1423.21136,270.059417 C1432.59877,270.142924 1441.8027,270.93199 1451.04562,272.60163 C1459.91009,274.198765 1468.74007,276.174931 1477.74102,276.841987 C1493.75016,278.029087 1509.70381,273.918741 1523.06426,264.972489 C1529.601,260.596622 1535.36633,255.172166 1540.09878,248.886137 C1543.75236,244.03323 1546.88949,238.713782 1550.60056,233.874376 C1551.01051,233.33383 1551.43246,232.801286 1551.86041,232.276241 C1551.67593,231.892209 1551.153,231.635688 1550.71255,231.979717" id="Fill-33" transform="translate(1349.4416, 265.5761) rotate(-180) translate(-1349.4416, -265.5761)"></path>
        </g>
    </g>
</svg>