<?xml version="1.0" encoding="UTF-8"?>
<svg width="33px" height="33px" viewBox="0 0 33 33" version="1.1" xmlns="http://www.w3.org/2000/svg" xmlns:xlink="http://www.w3.org/1999/xlink">
    <title>Group 18</title>
    <g id="Design" stroke="none" stroke-width="1" fill="none" fill-rule="evenodd">
        <g id="01---Mind-Collab-Collective----BlogImage-01" transform="translate(-374, -6176)">
            <g id="Group-19" transform="translate(-1, 5967)">
                <g id="Group-11" transform="translate(252, 209)">
                    <g id="Group-18" transform="translate(123, 0)">
                        <rect id="Rectangle" fill-opacity="0.0483500874" fill="#FFFFFF" x="0" y="0" width="33" height="33" rx="12"></rect>
                        <g id="Group-7" transform="translate(9, 9)">
                            <path d="M7.50275022,4.97681183 C6.107828,4.97449662 4.97116818,6.10945407 4.96875765,7.50698855 C4.96638392,8.90164661 6.10145876,10.0380423 7.49937482,10.0405411 C8.89403287,10.0430026 10.0311036,8.90766363 10.0334554,7.51033461 C10.0358292,6.1158233 8.90040211,4.97913414 7.50275022,4.97681183 M11.3673487,7.51770179 C11.3558761,9.64828588 9.60401233,11.3899941 7.48842677,11.3740857 C5.35420311,11.3580599 3.61454946,9.60563839 3.63500734,7.49237159 C3.65561198,5.36117112 5.3902759,3.636516 7.50644849,3.64321787 C9.6342442,3.65001761 11.3786234,5.40056061 11.3673487,7.51770179" id="Fill-1" fill="#FFFFFF"></path>
                            <path d="M11.5362107,4.46397711 C10.999639,4.46755797 10.552442,4.02511594 10.5528234,3.49103904 C10.5531758,2.96083651 10.9882213,2.52508659 11.5222689,2.52000881 C12.0594864,2.51487232 12.5056267,2.95581743 12.5055093,3.49177282 C12.5054212,4.02030232 12.0665894,4.46042559 11.5362107,4.46397711" id="Fill-3" fill="#FFFFFF"></path>
                            <path d="M9.85987672,15 L5.14012328,15 C2.30132081,15 0,12.6986792 0,9.85987672 L0,5.14012328 C0,2.30132081 2.30132081,0 5.14012328,0 L9.85987672,0 C12.6986792,0 15,2.30132081 15,5.14012328 L15,9.85987672 C15,12.6986792 12.6986792,15 9.85987672,15 Z" id="Stroke-5" stroke="#FFFFFF" stroke-width="1.5"></path>
                        </g>
                    </g>
                </g>
            </g>
        </g>
    </g>
</svg>