<?xml version="1.0" encoding="UTF-8"?>
<svg width="33px" height="33px" viewBox="0 0 33 33" version="1.1" xmlns="http://www.w3.org/2000/svg" xmlns:xlink="http://www.w3.org/1999/xlink">
    <title>Group 14</title>
    <defs>
        <polygon id="path-1" points="0 0 7.94424308 0 7.94424308 8.1759102 0 8.1759102"></polygon>
        <polygon id="path-3" points="0 0 3.32462634 0 3.32462634 3.30948082 0 3.30948082"></polygon>
    </defs>
    <g id="Design" stroke="none" strokeWidth="1" fill="none" fillRule="evenodd">
        <g id="01---Mind-Collab-Collective----BlogImage-01" transform="translate(-333, -6176)">
            <g id="Group-19" transform="translate(-1, 5967)">
                <g id="Group-11" transform="translate(252, 209)">
                    <g id="Group-14" transform="translate(82, 0)">
                        <rect id="Rectangle-Copy-18" fill-opacity="0.0483500874" fill="#FFFFFF" x="0" y="0" width="33" height="33" rx="12"></rect>
                        <g id="Group-9" transform="translate(11, 10)">
                            <g id="Group-3" transform="translate(4.0558, 3.824)">
                                <mask id="mask-2" fill="white">
                                    <use xlink:href="#path-1"></use>
                                </mask>
                                <g id="Clip-2"></g>
                                <path d="M2.58489934,1.07932998 C2.87720253,0.672261997 3.21470724,0.374942734 3.65416649,0.225285387 C3.92638011,0.131998974 4.21265643,0.0591657321 4.4984305,0.0287354049 C5.12773616,-0.0376126856 5.75352614,-0.00119606451 6.3406437,0.267189444 C7.12463902,0.625369362 7.5209057,1.28436055 7.7363663,2.07804334 C7.89708283,2.66968872 7.92972837,3.27729755 7.93575524,3.88440752 C7.94831122,5.15150639 7.94328883,6.41910412 7.94328883,7.68670185 C7.94328883,8.01395258 7.77855439,8.17508366 7.4541079,8.17558252 C6.89160005,8.17608138 6.3290922,8.17608138 5.76608212,8.17508366 C5.46172519,8.1745848 5.31858703,8.03989319 5.29699075,7.73509106 C5.29196836,7.66076125 5.29046164,7.58593257 5.29096388,7.5111039 C5.29397732,6.3732092 5.30000419,5.23581337 5.30000419,4.09791867 C5.30000419,3.7392399 5.27740342,3.38105998 5.15586155,3.0378458 C4.97555769,2.52701538 4.61595446,2.24865272 4.10166157,2.21822239 C3.53764701,2.18479892 3.0936676,2.4322324 2.85661072,2.90914048 C2.67329343,3.27729755 2.58389486,3.6659078 2.5843971,4.07646778 C2.58590382,5.28420257 2.58489934,6.49193737 2.58489934,7.6991733 C2.58489934,8.01894116 2.42769849,8.17508366 2.10526096,8.17558252 C1.56284267,8.17608138 1.02042439,8.17608138 0.478006111,8.17508366 C0.167622316,8.1745848 0.000376679362,8.01195715 0.000376679362,7.70765388 C-0.000125559787,5.33259178 -0.000125559787,2.95752969 0.000376679362,0.582467589 C0.000376679362,0.287143757 0.161093207,0.127010396 0.452894153,0.127010396 C1.015402,0.12601268 1.57790985,0.12601268 2.1404177,0.127010396 C2.42619177,0.127509254 2.58339263,0.285148326 2.58489934,0.571991575 C2.58540158,0.7266375 2.58489934,0.881283425 2.58489934,1.07932998" id="Fill-1" fill="#FFFFFF" mask="url(#mask-2)"></path>
                            </g>
                            <path d="M0.376478466,7.96685921 C0.376478466,6.78905589 0.376478466,5.61125257 0.376478466,4.43394811 C0.376478466,4.10769509 0.535688277,3.95105373 0.866161637,3.95105373 C1.38849035,3.95055488 1.91081907,3.95055488 2.43314778,3.95055488 C2.80380028,3.95105373 2.95999665,4.10719623 2.95999665,4.4813396 C2.96049889,6.4578143 2.95999665,8.43379013 2.95999665,10.409766 C2.95999665,10.7689436 2.96150337,11.1286201 2.95949441,11.4877977 C2.9579877,11.8320096 2.78772862,11.999127 2.43867241,11.9996259 C1.92136609,12.0001247 1.40405977,12.0001247 0.886251203,11.9996259 C0.532674842,11.999127 0.376478466,11.8409891 0.376478466,11.4848046 C0.376478466,10.3124887 0.376478466,9.13967395 0.376478466,7.96685921" id="Fill-4" fill="#FFFFFF"></path>
                            <g id="Group-8">
                                <mask id="mask-4" fill="white">
                                    <use xlink:href="#path-3"></use>
                                </mask>
                                <g id="Clip-7"></g>
                                <path d="M3.32462634,1.6666341 C3.32261332,2.56607476 2.57025907,3.31984893 1.66271293,3.30937291 C0.749642155,3.2988969 0.00632821328,2.60598338 -0.00020089566,1.65067065 C-0.00622776545,0.737261977 0.758682459,-0.00404074837 1.67074875,-6.59243608e-05 C2.58432177,0.00443983463 3.32663123,0.75272657 3.32462634,1.6666341" id="Fill-6" fill="#FFFFFF" mask="url(#mask-4)"></path>
                            </g>
                        </g>
                    </g>
                </g>
            </g>
        </g>
    </g>
</svg>