<?xml version="1.0" encoding="UTF-8"?>
<svg width="10px" height="13px" viewBox="0 0 10 13" version="1.1" xmlns="http://www.w3.org/2000/svg" xmlns:xlink="http://www.w3.org/1999/xlink">
    <title>Combined Shape</title>
    <g id="Design" stroke="none" strokeWidth="1" fill="none" fillRule="evenodd">
        <g id="07---Mind-Collab-Collective---Profile-Page" transform="translate(-25, -208)" fill="#D19A71">
            <path d="M31.7516153,220.133246 C30.870491,221.282721 29.1399458,221.289935 28.2484727,220.148657 C27.6048774,219.324957 26.957504,218.454203 26.6296285,217.898238 C25.9589293,216.76106 25.4037093,215.574532 25.1346411,214.271269 C24.9110747,213.189179 24.9496773,212.123648 25.3738128,211.091728 C25.7731442,210.119814 26.4149325,209.343661 27.3047629,208.78081 C28.2816545,208.162707 29.3529991,207.913007 30.4995777,208.026626 C31.7018426,208.145656 32.7368844,208.638335 33.5858125,209.503843 C34.2543763,210.185396 34.6811401,211.000898 34.8845017,211.931331 C35.0540245,212.706829 35.0275776,213.484131 34.867418,214.257825 C34.6569929,215.273678 34.2762237,216.227065 33.7911454,217.140611 C33.3397416,217.990872 32.5154535,219.136575 31.7516153,220.133246 M30.0000137,214.999997 C31.1045832,214.999997 32.0000137,214.104566 32.0000137,212.999997 C32.0000137,211.895427 31.1045832,210.999997 30.0000137,210.999997 C28.8954442,210.999997 28.0000137,211.895427 28.0000137,212.999997 C28.0000137,214.104566 28.8954442,214.999997 30.0000137,214.999997 Z" id="Combined-Shape"></path>
        </g>
    </g>
</svg>