<?xml version="1.0" encoding="UTF-8"?>
<svg width="389px" height="569px" viewBox="0 0 389 569" version="1.1" xmlns="http://www.w3.org/2000/svg" xmlns:xlink="http://www.w3.org/1999/xlink">
    <title>Fill 49</title>
    <g id="Design" stroke="none" strokeWidth="1" fill="none" fillRule="evenodd">
        <g id="02---Mind-Collab-Collective---Podcasts" transform="translate(-1051, -1124)" fill="#E1906C">
            <path d="M1405.55813,1338.71538 C1405.62763,1338.83839 1405.69862,1338.9604 1405.76661,1339.08491 C1405.69862,1338.9604 1405.62763,1338.83839 1405.55813,1338.71538 M1377.84535,1332.77838 C1366.09722,1335.30359 1356.11088,1341.88165 1345.92506,1347.92565 C1340.32821,1351.24843 1334.59488,1354.4242 1328.44559,1356.61038 C1321.96934,1358.91408 1315.21563,1359.55563 1308.45341,1360.50221 C1301.94467,1361.41329 1295.6459,1362.89791 1290.00456,1366.39521 C1284.24572,1369.96801 1279.20531,1374.74491 1274.1584,1379.22928 C1264.95247,1387.40647 1256.0455,1395.91819 1247.454,1404.74093 C1247.78946,1402.62425 1248.02993,1400.49057 1248.18791,1398.35189 C1252.19745,1387.68049 1256.9369,1377.24812 1262.55024,1367.35629 C1269.48994,1355.12576 1278.72487,1343.53978 1291.82484,1337.61929 C1294.96998,1336.20117 1298.2761,1335.13208 1301.6777,1334.54603 C1305.39127,1333.90948 1309.12034,1333.96948 1312.8674,1334.1505 C1316.46048,1334.32401 1320.05257,1334.51353 1323.63465,1334.09949 C1326.99726,1333.71146 1330.30338,1332.89739 1333.5225,1331.8628 C1346.29802,1327.74846 1358.27663,1319.70128 1372.06852,1319.50426 C1384.59007,1319.32625 1396.95463,1325.8808 1403.99382,1336.19917 C1396.33421,1331.29125 1386.66983,1330.88422 1377.84535,1332.77838 M1246.23614,1403.72534 C1246.09966,1404.64092 1245.94917,1405.555 1245.77919,1406.46557 C1245.62021,1407.30164 1245.44723,1408.13321 1245.25775,1408.96378 C1245.21776,1409.1518 1245.17226,1409.33731 1245.12927,1409.52283 C1244.78631,1410.96095 1244.39585,1412.38607 1243.94841,1413.79469 C1243.78792,1414.31023 1243.61894,1414.82378 1243.43846,1415.33632 C1243.28048,1414.09971 1243.07951,1412.87011 1242.81954,1411.65551 C1242.81304,1411.62051 1242.80654,1411.5855 1242.80004,1411.5505 C1242.68555,1411.02396 1242.56007,1410.49541 1242.42208,1409.97387 C1242.11162,1408.77277 1241.73166,1407.58717 1241.27022,1406.42707 C1240.21234,1403.75434 1238.69602,1401.31764 1236.70875,1399.23547 C1234.72098,1397.15329 1232.40825,1395.42664 1230.31749,1393.45448 C1221.52651,1385.16178 1221.67899,1372.09568 1216.65758,1361.75882 C1212.25859,1352.70205 1204.97743,1345.16342 1196.21145,1340.24901 C1191.80346,1337.7768 1187.00102,1335.98515 1182.0396,1335.02607 C1175.55185,1333.77196 1168.91662,1334.01748 1162.35888,1333.48844 C1154.72477,1332.87289 1147.24314,1331.00623 1139.7775,1329.3896 C1132.83281,1327.88647 1125.88562,1326.38134 1118.94392,1324.87772 C1126.0261,1321.95347 1133.11428,1319.03072 1140.19646,1316.10598 C1147.77158,1312.98022 1155.3057,1309.57693 1163.15929,1307.20423 C1176.34576,1303.2234 1192.62287,1303.17389 1201.8458,1315.06339 C1205.59086,1319.8873 1208.11807,1325.73029 1212.86852,1329.72562 C1215.63119,1332.04482 1218.9933,1333.21992 1222.28542,1334.56153 C1225.23408,1335.76263 1227.96876,1337.28526 1230.40048,1339.35193 C1239.94137,1347.46211 1243.53645,1360.73723 1245.42373,1372.61923 C1245.57572,1373.57181 1245.7172,1374.52839 1245.85068,1375.48597 C1246.21414,1378.06669 1246.51061,1380.6599 1246.72308,1383.26212 C1247.10454,1387.98952 1247.20103,1392.73692 1246.89356,1397.46782 C1246.88056,1397.67733 1246.86457,1397.88685 1246.85207,1398.09637 C1246.71308,1399.97853 1246.51061,1401.85919 1246.23614,1403.72534 M1262.0848,1422.02238 C1270.09537,1420.27023 1278.4079,1421.87237 1286.48297,1422.2104 C1290.4475,1422.37591 1294.45304,1422.3129 1298.34909,1421.48433 C1302.62959,1420.57326 1306.62963,1418.78611 1310.62466,1417.05446 C1315.31812,1415.02029 1320.04657,1413.18464 1325.18647,1412.7256 C1328.67506,1412.41407 1332.18316,1412.66259 1335.58326,1413.43116 C1330.24938,1414.42074 1325.62942,1418.80961 1322.44679,1423.04897 C1320.09206,1426.18273 1317.9983,1429.52951 1315.34411,1432.42775 C1312.44245,1435.59352 1308.86237,1437.79821 1304.64686,1438.70228 C1295.98236,1440.56044 1287.28337,1437.60969 1278.85735,1435.92155 C1274.57135,1435.06248 1270.16536,1434.48143 1265.79287,1434.95097 C1261.97831,1435.36 1258.31474,1436.61811 1254.96563,1438.47726 C1249.1768,1441.69453 1244.43535,1446.40043 1240.09735,1451.39435 C1244.05339,1438.78229 1247.65947,1425.17915 1262.0848,1422.02238 M1229.21462,1491.02318 C1228.24673,1482.9425 1224.90412,1475.35336 1218.93431,1469.59538 C1212.28358,1463.17684 1203.70258,1459.34552 1196.23295,1454.03957 C1181.53915,1443.60319 1172.12725,1427.55635 1166.79637,1410.60142 C1164.40414,1402.99178 1162.79183,1395.15612 1161.79795,1387.24246 C1166.76037,1401.13863 1175.30238,1413.71518 1186.46508,1423.38849 C1193.34328,1429.35 1201.35835,1433.87438 1208.00658,1440.1124 C1214.37434,1446.0879 1219.0128,1453.63804 1222.28242,1461.69171 C1225.95799,1470.73947 1228.00776,1480.34828 1229.3961,1489.98809 C1229.40359,1490.0336 1229.41309,1490.0736 1229.42609,1490.1131 C1229.3571,1490.41613 1229.28611,1490.71965 1229.21462,1491.02318 M1268.73603,1278.94586 C1275.8142,1269.87009 1285.09013,1263.45905 1295.84988,1259.48572 C1306.56763,1255.53089 1317.90482,1253.70973 1329.02052,1251.26103 C1339.32933,1248.98984 1349.70262,1246.1261 1358.76107,1240.66914 C1351.54841,1248.5713 1344.18926,1256.36296 1336.02271,1263.28904 C1331.41925,1267.19437 1326.56331,1270.81517 1321.40741,1273.96144 C1315.79656,1277.38422 1309.84175,1280.18146 1303.90294,1282.97469 C1293.20318,1288.00912 1282.7139,1293.27556 1273.88643,1301.28023 C1266.19832,1308.25082 1259.83106,1316.63352 1255.10511,1325.8713 C1252.44742,1331.06924 1250.31967,1336.5357 1248.77884,1342.16367 C1251.03908,1319.9208 1254.66616,1296.98287 1268.73603,1278.94586 M1237.75362,1290.88986 C1235.19892,1287.96011 1232.44874,1285.20188 1229.40359,1282.77968 C1226.03499,1280.09395 1222.41841,1277.75226 1218.87782,1275.30405 C1211.96812,1270.52065 1205.97132,1265.01669 1201.20987,1258.0521 C1196.68839,1251.43404 1193.34428,1244.08643 1190.6326,1236.56079 C1188.0174,1229.29568 1185.98364,1221.83956 1184.08636,1214.35743 C1191.81696,1225.67738 1201.48584,1235.50671 1212.59255,1243.57088 C1218.75133,1248.04126 1225.23258,1252.27711 1230.183,1258.15111 C1234.83146,1263.66607 1238.0056,1270.22462 1240.29183,1277.02969 C1242.91703,1284.84085 1244.42085,1292.96753 1245.86668,1301.06221 C1245.87918,1301.12672 1245.89668,1301.18773 1245.92418,1301.23973 C1245.94367,1301.59626 1245.96317,1301.95529 1245.98267,1302.31432 C1243.73693,1298.16897 1240.77077,1294.34715 1237.75362,1290.88986 M1241.64567,1248.67331 C1242.60956,1244.08793 1243.86192,1239.56155 1244.56783,1234.92216 C1245.23026,1230.55829 1245.41074,1226.14492 1245.7407,1221.74855 C1246.07266,1217.32168 1246.53361,1212.8428 1247.84745,1208.58344 C1249.09231,1204.5481 1251.17007,1200.9018 1253.81626,1197.62402 C1259.12464,1191.04747 1266.02584,1185.96304 1271.88366,1179.91053 C1278.21743,1173.36798 1283.76328,1166.10087 1288.44974,1158.29922 C1287.35186,1173.86302 1276.20166,1186.6961 1270.84328,1200.9238 C1269.31946,1204.96164 1268.29608,1209.12099 1267.82313,1213.41285 C1267.2512,1218.60979 1267.2722,1223.85273 1266.63127,1229.04366 C1265.4839,1238.31894 1262.49175,1247.3392 1257.91028,1255.48288 C1255.37258,1259.99176 1252.20845,1263.9686 1249.09681,1268.07694 C1247.66597,1269.9616 1246.29913,1271.92977 1245.22826,1274.02744 C1245.20326,1274.07395 1245.18076,1274.11995 1245.15826,1274.16595 C1245.13777,1274.12445 1245.10877,1274.08645 1245.07727,1274.04644 C1244.55833,1273.42339 1244.08939,1272.78134 1243.66794,1272.12078 C1239.28245,1265.2442 1240.01986,1256.40446 1241.64567,1248.67331 M1407.03196,1338.58387 C1406.97747,1338.48336 1406.92298,1338.38485 1406.86298,1338.28484 C1400.99466,1327.83696 1390.26541,1320.50385 1378.43479,1318.61669 C1364.4934,1316.391 1351.97786,1323.19007 1339.46931,1328.231 C1332.78059,1330.92422 1325.89389,1333.0229 1318.62273,1333.0064 C1314.6367,1332.9959 1310.65816,1332.54936 1306.66762,1332.67687 C1303.20652,1332.78788 1299.77642,1333.39093 1296.46531,1334.40802 C1282.69191,1338.63287 1272.21912,1349.37227 1264.651,1361.23527 C1260.19652,1368.22086 1256.46295,1375.67298 1253.03685,1383.20712 C1251.39954,1386.80292 1249.85122,1390.43573 1248.39689,1394.10503 C1248.43538,1392.5599 1248.43538,1391.01327 1248.40039,1389.47014 C1248.2944,1384.71024 1247.89595,1379.92984 1247.22303,1375.19244 C1247.65947,1367.39279 1247.96094,1359.58563 1248.12742,1351.77398 C1250.9216,1333.64045 1259.84606,1316.54702 1273.12002,1303.84095 C1281.69852,1295.62976 1291.93883,1290.11929 1302.59859,1285.09187 C1308.28093,1282.40865 1313.99377,1279.77693 1319.46113,1276.67366 C1324.81551,1273.63741 1329.86043,1270.09511 1334.63037,1266.21279 C1345.17315,1257.63907 1354.35358,1247.55672 1363.46802,1237.51637 C1363.50652,1237.47137 1363.54601,1237.42887 1363.58501,1237.38636 C1364.10845,1236.80931 1363.26105,1235.95374 1362.65112,1236.41378 C1362.60512,1236.44878 1362.55713,1236.48429 1362.51163,1236.51679 C1343.77331,1250.52747 1318.98569,1250.16044 1297.55818,1257.43705 C1286.85242,1261.07635 1277.28953,1266.88034 1269.8354,1275.46506 C1262.32577,1284.11629 1257.19337,1294.65968 1253.87725,1305.57109 C1251.03208,1314.93938 1249.42877,1324.57869 1248.2704,1334.28251 C1248.23191,1326.21933 1248.04593,1318.15565 1247.71247,1310.09647 C1247.64848,1308.54334 1247.57998,1306.99321 1247.50549,1305.44058 C1247.432,1303.95096 1247.35601,1302.45933 1247.27152,1300.96821 C1246.82707,1292.89653 1246.23364,1284.83585 1245.48773,1276.78617 C1246.5606,1273.94644 1248.3029,1271.37372 1250.15468,1268.92901 C1252.87387,1265.34221 1255.67054,1261.86492 1258.00477,1258.0046 C1262.77672,1250.10643 1266.03684,1241.28969 1267.55066,1232.18843 C1269.15898,1222.49361 1268.25308,1212.57778 1271.47871,1203.15999 C1274.1529,1195.35433 1278.4469,1188.24923 1282.23646,1180.96062 C1286.30149,1173.13596 1289.82508,1164.87677 1289.88807,1155.92902 C1289.89207,1155.81401 1289.89307,1155.696 1289.89157,1155.57849 C1289.89007,1154.83143 1288.88869,1154.85743 1288.59372,1155.37397 C1283.96026,1163.48965 1278.37741,1171.05129 1271.97115,1177.85586 C1266.05634,1184.13939 1259.02565,1189.34183 1253.4453,1195.93938 C1250.72162,1199.15465 1248.44888,1202.74545 1247.03455,1206.73029 C1245.58222,1210.82363 1244.95079,1215.14049 1244.56733,1219.44986 C1244.16888,1223.92223 1244.0244,1228.41611 1243.47396,1232.87498 C1242.88653,1237.64939 1241.66367,1242.29578 1240.62029,1246.98267 C1238.57703,1256.19894 1237.46166,1266.98735 1243.93191,1274.79401 C1243.9889,1275.39856 1244.04539,1276.00011 1244.09989,1276.60466 C1244.23587,1278.04078 1244.36286,1279.4754 1244.48834,1280.91252 C1244.75881,1284.08079 1245.00778,1287.24855 1245.23526,1290.42132 C1244.58483,1287.28356 1243.85242,1284.15129 1242.98602,1281.06653 C1240.88726,1273.61991 1237.9901,1266.45431 1233.45512,1260.14128 C1229.01664,1253.96526 1223.04033,1249.38737 1216.91505,1245.001 C1210.66827,1240.52663 1204.64547,1235.87424 1199.1826,1230.44728 C1193.09331,1224.39227 1187.70994,1217.6482 1183.10397,1210.4011 C1183.07148,1210.35259 1183.04098,1210.30109 1183.00848,1210.25258 C1182.55654,1209.54052 1181.65914,1210.22558 1181.82812,1210.90564 C1181.84262,1210.96164 1181.85662,1211.01465 1181.87062,1211.07065 C1185.66867,1226.32743 1189.7217,1241.91524 1197.94325,1255.48138 C1201.98978,1262.15895 1207.09269,1268.12895 1213.27497,1272.91735 C1219.97369,1278.10379 1227.45982,1282.19013 1233.46212,1288.25164 C1236.61376,1291.43441 1239.50392,1294.9082 1242.03013,1298.60801 C1243.57045,1300.8612 1245.02428,1303.2474 1246.15515,1305.76461 C1246.67659,1316.55402 1246.93406,1327.35592 1246.92606,1338.15883 C1246.92356,1341.45761 1246.89656,1344.75689 1246.84457,1348.05566 C1246.83157,1348.89473 1246.81807,1349.7338 1246.79957,1350.57588 C1246.79557,1350.8969 1246.78708,1351.22093 1246.78058,1351.54446 C1246.72008,1354.4827 1246.64059,1357.42045 1246.5386,1360.3582 C1246.44012,1363.24594 1246.32513,1366.13518 1246.18815,1369.02443 C1246.01467,1368.12885 1245.83069,1367.23728 1245.63921,1366.3492 C1244.24187,1359.89416 1242.21411,1353.51062 1238.92699,1347.75264 C1235.77435,1342.22917 1231.33337,1337.42277 1225.59854,1334.54603 C1221.94096,1332.71287 1217.82144,1331.7723 1214.50682,1329.28609 C1211.69565,1327.17791 1209.64039,1324.28717 1207.73861,1321.37492 C1205.80684,1318.41617 1204.00304,1315.34491 1201.65032,1312.69169 C1199.45307,1310.21348 1196.79588,1308.21182 1193.83323,1306.73319 C1187.57295,1303.60693 1180.2928,1302.82186 1173.4001,1303.62093 C1164.66111,1304.63551 1156.41107,1307.94929 1148.34001,1311.27357 C1139.842,1314.77537 1131.35048,1318.28516 1122.85547,1321.78896 C1120.81671,1322.63053 1118.77844,1323.4721 1116.73968,1324.31367 C1116.63219,1324.35817 1116.52521,1324.40268 1116.41772,1324.44718 C1115.77829,1324.7107 1115.91078,1325.61028 1116.5582,1325.75129 C1123.17793,1327.18541 1129.80016,1328.61953 1136.42239,1330.05315 C1143.00563,1331.48027 1149.58037,1333.08341 1156.23659,1334.12499 C1162.72334,1335.14108 1169.26608,1335.02557 1175.79532,1335.57161 C1181.33268,1336.03315 1186.69805,1337.26026 1191.77746,1339.53995 C1201.03889,1343.6918 1208.95597,1350.8109 1214.00188,1359.62314 C1216.72757,1364.38504 1218.27189,1369.56697 1219.71022,1374.82941 C1221.16055,1380.12336 1222.63788,1385.54281 1225.72202,1390.1562 C1229.3946,1395.65366 1235.76086,1398.64542 1238.91049,1404.54941 C1240.02236,1406.63559 1240.78777,1408.85527 1241.32121,1411.13797 C1241.4507,1411.67451 1241.56368,1412.21556 1241.66567,1412.7571 C1241.91314,1414.06071 1242.09662,1415.37732 1242.2421,1416.69993 C1242.14611,1417.5345 1242.04413,1418.36657 1241.94264,1419.19864 C1241.91214,1419.44866 1241.88115,1419.69568 1241.85065,1419.94521 C1241.77466,1420.55826 1241.69867,1421.17431 1241.61968,1421.78786 C1240.11835,1433.71586 1238.29506,1445.60436 1236.15931,1457.43686 C1234.40051,1467.18068 1232.42924,1476.88449 1230.2445,1486.5403 C1227.74729,1471.0115 1223.18882,1455.12516 1212.72103,1443.06615 C1206.69423,1436.12056 1198.85114,1431.33916 1191.61198,1425.8112 C1184.6288,1420.47675 1178.49901,1414.12272 1173.46009,1406.91711 C1167.86024,1398.90394 1163.67823,1389.95469 1161.11103,1380.52239 C1161.09353,1380.46389 1161.07653,1380.40538 1161.06203,1380.34688 C1160.85356,1379.58381 1159.68969,1379.93384 1159.75018,1380.6689 C1159.75368,1380.72891 1159.76018,1380.78841 1159.76668,1380.84792 C1161.23851,1398.4639 1165.54051,1416.20889 1174.43448,1431.61369 C1178.75348,1439.09381 1184.21934,1445.94139 1190.80958,1451.54236 C1197.82176,1457.50336 1206.22079,1461.37619 1213.56693,1466.85415 C1217.90993,1470.09442 1221.72949,1473.98575 1224.2217,1478.84366 C1226.86589,1483.99209 1228.06225,1489.72957 1228.15924,1495.49255 C1227.79228,1497.01318 1227.42232,1498.53131 1227.04687,1500.04744 C1220.47663,1526.57967 1212.29758,1552.71336 1202.55221,1578.25301 C1192.86834,1603.62964 1181.63764,1628.41773 1168.90062,1652.41324 C1167.30181,1655.4245 1165.6795,1658.42225 1164.03419,1661.4115 C1163.61074,1662.18006 1164.85509,1662.72961 1165.27654,1661.96705 C1178.48651,1637.96953 1190.19615,1613.15444 1200.32647,1587.7048 C1210.3968,1562.40968 1218.91481,1536.502 1225.85801,1510.17829 C1227.13186,1505.34588 1228.35172,1500.49748 1229.51858,1495.63857 C1229.96303,1493.79491 1230.39848,1491.94926 1230.82343,1490.1046 C1233.41763,1478.89366 1235.72586,1467.62071 1237.74663,1456.29326 C1238.16508,1455.78272 1238.58903,1455.27467 1239.01348,1454.76863 C1243.28198,1449.6597 1247.82596,1444.67378 1253.41031,1441.00198 C1256.68393,1438.84979 1260.334,1437.22116 1264.21055,1436.5456 C1268.67803,1435.76454 1273.22301,1436.23707 1277.64849,1437.07064 C1285.80104,1438.61027 1293.9076,1441.37301 1302.31463,1440.44893 C1306.03069,1440.03939 1309.65427,1438.84579 1312.69842,1436.64461 C1315.67657,1434.49193 1317.97981,1431.56568 1320.11356,1428.61393 C1324.75452,1422.19189 1331.14628,1412.58809 1340.4492,1414.92328 C1340.50569,1414.93628 1340.56168,1414.94979 1340.61818,1414.96529 C1341.36509,1415.1638 1341.72105,1413.9512 1341.00663,1413.67218 C1340.95264,1413.65068 1340.89565,1413.62967 1340.84165,1413.61067 C1332.45613,1410.3989 1323.45817,1410.60992 1315.08514,1413.74768 C1310.67366,1415.40132 1306.46864,1417.57151 1301.99916,1419.07013 C1297.77615,1420.48675 1293.42466,1420.97329 1288.98317,1420.93029 C1280.54166,1420.84778 1272.01115,1419.02363 1263.59112,1420.35974 C1259.70558,1420.97629 1255.94851,1422.35391 1252.77338,1424.70861 C1249.67924,1427.0028 1247.27402,1430.07406 1245.37224,1433.40034 C1242.09562,1439.12782 1240.46631,1445.50685 1238.53703,1451.77338 C1239.77989,1444.52727 1240.90576,1437.25766 1241.91214,1429.97155 C1242.20511,1427.84287 1242.48957,1425.71269 1242.76304,1423.58051 C1242.93652,1422.2479 1243.102,1420.91329 1243.26448,1419.58168 C1243.40897,1419.24565 1243.53745,1418.91162 1243.66044,1418.60809 C1243.69493,1418.52259 1243.72993,1418.43908 1243.76143,1418.35357 C1244.44685,1416.63993 1245.04428,1414.89728 1245.56772,1413.12963 C1246.15615,1411.14747 1246.64009,1409.1433 1247.03205,1407.11913 C1254.74515,1399.13546 1262.71523,1391.40381 1270.93677,1383.94318 C1275.92169,1379.4163 1280.92711,1374.82141 1286.25399,1370.69607 C1288.88319,1368.6574 1291.66336,1366.77474 1294.70351,1365.40062 C1297.80115,1364.0015 1301.09577,1363.13093 1304.43138,1362.51588 C1310.85863,1361.33178 1317.43137,1361.01625 1323.78813,1359.43462 C1329.79094,1357.94349 1335.43478,1355.36028 1340.84365,1352.39753 C1351.26844,1346.68905 1361.01781,1339.38894 1372.40799,1335.65412 C1383.42071,1332.04532 1396.66117,1331.37626 1405.97209,1339.36343 C1406.45803,1339.78197 1407.36892,1339.19642 1407.03196,1338.58387" id="Fill-49" transform="translate(1261.5525, 1408.6664) rotate(-164) translate(-1261.5525, -1408.6664)"></path>
        </g>
    </g>
</svg>