<?xml version="1.0" encoding="UTF-8"?>
<svg width="10px" height="10px" viewBox="0 0 10 10" version="1.1" xmlns="http://www.w3.org/2000/svg" xmlns:xlink="http://www.w3.org/1999/xlink">
    <title>Group 18</title>
    <g id="Design" stroke="none" strokeWidth="1" fill="none" fillRule="evenodd">
        <g id="07---Mind-Collab-Collective---Profile-Page" transform="translate(-25, -400)">
            <g id="Group-Copy-4" transform="translate(8, 383)">
                <g id="Group-4-Copy-6" transform="translate(11, 11)">
                    <g id="Group-18" transform="translate(6, 5.9998)">
                        <path d="M9.72403221,5.69651453 C9.52512488,5.92682851 9.32574787,6.15690771 9.12824957,6.38839556 C8.95446985,6.59217999 8.86757998,6.82977199 8.86546645,7.09694559 C8.86335291,7.35449343 8.86617096,7.61204127 8.8645271,7.86958911 C8.86100454,8.44783918 8.44463772,8.86104265 7.86364984,8.86362517 C7.60603314,8.86479904 7.34841645,8.86362517 7.09079975,8.86385994 C6.82637277,8.86409472 6.59411852,8.95307433 6.39356733,9.12328598 C6.15567698,9.32542699 5.92013501,9.5303853 5.68341885,9.73393496 C5.27362748,10.0868013 4.73796323,10.0889143 4.32958089,9.73886523 C4.10718981,9.54846295 3.88362455,9.35946932 3.6645212,9.16531065 C3.43203211,8.95917847 3.16549159,8.8586949 2.85315777,8.86174697 C2.54528586,8.86503382 2.23412622,8.87747687 1.93001171,8.84061725 C1.47207866,8.78521042 1.140723,8.39031938 1.12874629,7.92828278 C1.12170117,7.65523981 1.12733726,7.38196207 1.1256934,7.10868432 C1.12404954,6.82906766 1.03340228,6.58208468 0.851168411,6.36843971 C0.645920469,6.1282652 0.440672528,5.88785591 0.238242637,5.64509888 C-0.0792576106,5.26405955 -0.079492448,4.73581648 0.238007799,4.35571625 C0.443020903,4.10990715 0.651556569,3.86738489 0.858213534,3.62298443 C1.03387196,3.4154436 1.12240568,3.17456476 1.12545857,2.90363476 C1.12804178,2.64608692 1.12404954,2.38853908 1.12639792,2.13099124 C1.13179918,1.54921955 1.54464343,1.13953771 2.12657066,1.13718996 C2.38794476,1.13601609 2.64955369,1.13812906 2.91116262,1.13648564 C3.1831044,1.13507699 3.42334312,1.0449235 3.62929558,0.867433835 C3.86859495,0.661066879 4.10413692,0.450239203 4.34484532,0.245280894 C4.72927424,-0.0819950306 5.26705203,-0.0815254812 5.65335965,0.245280894 C5.89453773,0.449534879 6.13313259,0.656840934 6.37243196,0.863442666 C6.58495986,1.0468017 6.83059985,1.13625086 7.11193512,1.13789428 C7.42779151,1.13953771 7.74670078,1.12169483 8.05833009,1.16043265 C8.52072505,1.21795245 8.84926266,1.61918241 8.8607697,2.08614928 C8.8645271,2.23053571 8.86147421,2.37492215 8.86147421,2.51930859 C8.85818649,2.51954336 8.8551336,2.51977814 8.85184587,2.51977814 C8.8626484,2.72191915 8.86100454,2.92570359 8.88777601,3.12573163 C8.9121991,3.30956021 9.00096766,3.4720243 9.12449217,3.61382822 C9.32668722,3.84648994 9.52770809,4.08032553 9.72802444,4.31463068 C10.0922573,4.74051198 10.0903786,5.27180711 9.72403221,5.69651453" id="Fill-1" fill="#D89168"></path>
                        <polyline id="Path-17" stroke="#FFFFFF" strokeLinecap="round" strokeLinejoin="round" points="3.68706357 5.03770643 4.64838409 5.99902694 6.49257148 4.15483955"></polyline>
                    </g>
                </g>
            </g>
        </g>
    </g>
</svg>