<?xml version="1.0" encoding="UTF-8"?>
<svg width="1439px" height="823px" viewBox="0 0 1439 823" version="1.1" xmlns="http://www.w3.org/2000/svg" xmlns:xlink="http://www.w3.org/1999/xlink">
    <title>Rectangle Copy 25</title>
    <defs>
        <rect id="path-1" x="0" y="0" width="1439" height="823"></rect>
    </defs>
    <g id="Design" stroke="none" strokeWidth="1" fill="none" fillRule="evenodd">
        <g id="01---Mind-Collab-Collective----BlogImage-01" transform="translate(-1, -2453)">
            <g id="Rectangle-Copy-25" transform="translate(1, 2453)">
                <mask id="mask-2" fill="white">
                    <use xlink:href="#path-1"></use>
                </mask>
                <use id="Rectangle-Copy-16" fill="#FCF4F0" xlink:href="#path-1"></use>
                <g id="Group-105" mask="url(#mask-2)" stroke="#000000" strokeWidth="0.37">
                    <g transform="translate(11.5019, 813.4098) scale(-1, 1) rotate(-27) translate(-11.5019, -813.4098)translate(-640.4981, 358.4098)">
                        <path d="M31.0502301,910 C31.0502301,910 -123.5665,426.754223 257.25282,472.044046 C638.07214,517.33387 405.709435,186.929254 755.272585,35.9927601 C1108.85935,-116.680483 1304,265.74746 1304,265.74746" id="Stroke-1"></path>
                        <path d="M35.2595243,904.90925 C35.2595243,904.90925 -115.631562,426.003811 261.936679,473.141429 C296.332134,477.37019 325.715632,478.55031 350.98405,477.103944 C601.744977,462.424409 444.45825,182.30434 757.837468,48.0465595 C1106.43228,-101.449634 1299.35906,274.207344 1300.48375,278.371343" id="Stroke-3"></path>
                        <path d="M38.4894881,899.940369 C38.4894881,899.940369 -108.671537,425.37466 265.636734,474.359488 C299.612652,478.6766 328.688957,480.038889 353.745807,478.858878 C602.052756,466.550313 450.265519,191.603056 759.41591,60.2213516 C1103.01707,-86.0927624 1293.723,282.787652 1295.97495,291.114881" id="Stroke-5"></path>
                        <path d="M42.770922,894.849619 C42.770922,894.849619 -100.794358,425.665079 270.377807,475.458216 C303.918183,479.957177 332.697912,481.405669 357.542013,480.491968 C603.388052,470.553965 457.105486,200.779389 762.012325,72.2760215 C1100.60344,-70.8585618 1289.08188,291.247832 1292.45871,303.737485" id="Stroke-7"></path>
                        <path d="M47.0392777,889.758869 C47.0392777,889.758869 -92.8452364,425.250038 275.110708,476.555996 C308.223073,481.174395 336.701722,482.833758 361.330933,482.128769 C604.732962,475.155609 463.937054,209.954932 764.603376,84.3325496 C1098.18539,-55.624616 1284.43825,299.706787 1288.94246,316.357963" id="Stroke-9"></path>
                        <path d="M51.3237728,884.668119 C51.3237728,884.668119 -84.8803734,424.831279 279.854509,477.65671 C312.540818,482.389707 340.713212,484.216731 365.132005,483.763571 C606.065214,479.299113 470.779681,219.132906 767.201425,96.3890664 C1095.77222,-40.3883269 1279.797,308.167926 1285.42621,328.979688" id="Stroke-11"></path>
                        <path d="M54.6321122,879.699238 C54.6321122,879.699238 -77.8921441,424.527108 283.621593,478.880886 C315.879004,483.730819 343.747162,485.720658 367.952812,485.521675 C606.411567,483.563001 476.640787,228.434445 768.813923,108.569406 C1092.36902,-25.0303186 1274.16324,316.749743 1280.91741,341.721027" id="Stroke-13"></path>
                        <path d="M58.9511232,874.608488 C58.9511232,874.608488 -69.8960479,424.09521 288.393589,479.981486 C320.221622,484.945905 347.785131,487.309458 371.779679,487.160837 C607.755645,485.693804 483.503991,237.614259 771.424172,120.62799 C1089.95875,-9.7916968 1269.51971,325.211933 1277.40116,354.339244" id="Stroke-15"></path>
                        <path d="M63.2873133,869.517738 C63.2873133,869.517738 -61.8810048,423.658241 293.179495,481.085823 C324.580105,486.164664 351.836179,488.48957 375.619287,488.798759 C609.111554,491.830724 490.380697,246.795192 774.043904,132.687834 C1087.55352,5.44835091 1264.8787,333.672385 1273.88491,366.95929" id="Stroke-17"></path>
                        <path d="M66.6501214,864.548857 C66.6501214,864.548857 -54.8422949,423.336149 296.990686,482.311335 C327.960987,487.502129 354.909203,489.996874 378.480497,490.560048 C609.478218,496.081558 496.277007,256.099594 775.678865,144.871372 C1084.1563,20.8099546 1259.24295,342.258149 1269.37612,379.698489" id="Stroke-19"></path>
                        <path d="M70.9640656,859.461834 C70.9640656,859.461834 -46.8531063,422.292678 301.746719,482.907108 C332.286227,488.217049 358.928554,490.882817 382.287657,491.703422 C610.787162,499.717522 503.11705,264.472494 778.253218,155.975017 C1081.69611,34.9285144 1254.54147,350.026611 1265.79893,391.680736" id="Stroke-21"></path>
                        <path d="M75.4200253,854.367357 C75.4200253,854.367357 -38.7226463,422.29718 306.640651,484.410413 C336.751275,489.826568 363.084882,492.659265 386.231405,493.73291 C612.224158,504.217724 510.32382,274.879503 780.957325,168.785173 C1079.6175,51.7027586 1249.96219,359.031216 1262.34362,404.792933" id="Stroke-23"></path>
                        <path d="M78.8433333,849.398477 C78.8433333,849.398477 -31.6256724,421.942239 310.499972,485.633669 C340.176423,491.159344 366.200867,494.161803 389.136812,495.489307 C612.616601,508.448045 516.273643,284.224498 782.615953,180.954763 C1076.2488,67.1057334 1244.32743,367.605638 1257.83482,417.523616" id="Stroke-25"></path>
                        <path d="M83.2195884,844.311453 C83.2195884,844.311453 -23.5743055,420.838253 315.305274,486.208355 C344.549457,491.851817 370.26669,495.028664 392.989255,496.617087 C613.949828,512.062225 523.167465,292.634249 785.214232,192.045297 C1073.81501,81.2635619 1239.62715,375.371433 1254.25764,429.519395" id="Stroke-27"></path>
                        <path d="M86.6876392,839.342573 C86.6876392,839.342573 -16.4344804,420.458928 319.197273,487.429448 C348.011053,493.177867 373.415798,496.527113 395.926938,498.372077 C614.361715,516.281905 529.140627,301.980557 786.889588,204.219048 C1070.45324,96.6689113 1233.99344,383.94831 1249.74884,442.257815" id="Stroke-29"></path>
                        <path d="M91.1711808,834.251823 C91.1711808,834.251823 -8.27793877,419.951309 324.102021,488.530812 C352.480101,494.384107 377.576687,497.905679 399.871181,500.009507 C615.77853,520.373695 536.11904,311.202372 789.563404,216.273447 C1068.08518,111.952864 1229.35532,392.40724 1246.23259,454.871969" id="Stroke-31"></path>
                        <path d="M94.6944684,829.222007 C94.6944684,829.222007 -1.16542451,419.496283 328.239621,489.693175 C356.207951,495.653651 381.014853,499.345068 403.11607,501.707671 C616.668424,524.52298 542.509173,320.490027 791.863868,228.391686 C1065.57212,127.298664 1224.70616,400.926464 1242.72007,467.549469" id="Stroke-33"></path>
                        <path d="M99.2277562,824.131257 C99.2277562,824.131257 7.04084424,418.971098 333.184421,490.798651 C360.718186,496.861424 385.211031,500.727401 407.099427,503.346289 C618.10769,528.604645 549.516694,329.715471 794.56025,240.450251 C1063.20932,142.587308 1220.06616,409.387696 1239.20382,480.162417" id="Stroke-35"></path>
                        <path d="M102.794887,819.162376 C102.794887,819.162376 14.2818687,418.560685 337.154417,492.026908 C364.253077,498.194254 388.433751,502.232282 410.108843,505.112135 C618.566159,532.802844 555.545351,339.063795 796.273138,252.634636 C1059.85808,157.997537 1214.43696,417.970806 1234.69502,492.899736" id="Stroke-37"></path>
                        <path d="M107.382576,814.071626 C107.382576,814.071626 22.5418528,418.020513 342.138221,493.138244 C368.801216,499.405247 392.669186,503.617613 414.130464,506.75591 C620.029764,536.875406 562.578358,348.29231 798.988005,264.6995 C1057.50135,173.28852 1209.799,426.435656 1231.17877,505.511619" id="Stroke-39"></path>
                        <path d="M111.010307,809.041811 C111.010307,809.041811 29.7726685,417.532112 346.366557,494.311456 C372.61426,500.677974 396.189942,505.064544 417.455787,508.463536 C620.973233,541.000854 569.043891,357.584728 801.337149,276.828706 C1054.99939,188.641884 1205.14835,434.963331 1227.66625,518.185899" id="Stroke-41"></path>
                        <path d="M114.663376,804.07293 C114.663376,804.07293 37.1017369,417.095617 350.403184,495.551311 C376.2163,502.014793 399.475679,506.575418 420.526617,510.237339 C621.47327,545.181362 575.115169,366.938327 803.081068,289.021855 C1051.6567,204.059541 1199.52161,443.551078 1223.15746,530.917126" id="Stroke-43"></path>
                        <path d="M119.340273,798.98218 C119.340273,798.98218 45.4548836,416.529244 355.455663,496.673262 C380.831218,503.231131 403.776128,507.968036 424.611601,511.890298 C622.982472,549.234454 582.193653,376.170912 805.825019,301.096844 C1049.30905,219.357086 1194.8865,452.021286 1219.64121,543.527167" id="Stroke-45"></path>
                        <path d="M122.998851,793.956092 C122.998851,793.956092 52.7258536,415.261802 359.698934,497.267627 C384.659039,503.935431 407.307091,508.858277 427.945287,513.049056 C623.913413,552.861461 588.656994,384.65183 808.153384,312.273277 C1046.75539,233.596553 1190.17467,459.886643 1216.06775,555.72012" id="Stroke-47"></path>
                        <path d="M126.748868,788.987211 C126.748868,788.987211 60.1571548,414.781879 363.809231,498.51109 C388.330402,505.271148 410.662697,510.370589 431.084219,514.8269 C624.465347,557.026268 594.772865,394.009759 809.930078,324.47739 C1043.42303,249.022471 1184.54922,468.485586 1211.55895,568.463413" id="Stroke-49"></path>
                        <path d="M130.535343,783.957396 C130.535343,783.957396 67.5687126,414.232662 368.168348,499.696599 C392.272255,506.551084 414.306138,511.826902 434.52905,516.546108 C625.494166,561.120654 601.339888,403.309152 812.348019,336.626072 C1040.93816,264.388869 1179.89842,477.024256 1208.04643,581.146691" id="Stroke-51"></path>
                        <path d="M135.34967,778.866646 C135.34967,778.866646 76.0684977,413.614479 373.32548,500.828961 C396.989039,507.770429 418.705809,513.224782 438.70835,518.209015 C627.079393,565.15147 608.484199,412.549513 815.141156,348.718712 C1038.60715,279.6974 1175.2708,485.506882 1204.53018,593.764037" id="Stroke-53"></path>
                        <path d="M139.209974,773.83683 C139.209974,773.83683 83.563447,413.050682 377.741688,502.026103 C400.988504,509.05906 422.405222,514.689263 442.20771,519.940601 C628.148659,569.233646 615.093313,421.853268 817.589104,360.877793 C1036.12884,295.070607 1170.61834,494.050782 1201.01766,606.441419" id="Stroke-55"></path>
                        <path d="M143.109056,768.867949 C143.109056,768.867949 91.1558433,412.538476 381.966299,503.294 C404.771343,510.410905 425.86475,516.221407 445.450287,521.737068 C628.784812,573.374783 621.276623,431.223648 819.41417,373.104252 C1032.81501,310.507127 1165.0018,502.661173 1196.50886,619.173231" id="Stroke-57"></path>
                        <path d="M147.048628,763.838134 C147.048628,763.838134 98.7457837,411.961595 386.445314,504.506203 C408.831723,511.709069 429.625784,517.69708 449.007354,523.481418 C629.90201,577.445405 627.933157,440.533442 821.892747,385.275527 C1030.34655,325.889023 1160.35079,511.210667 1192.99634,631.840702" id="Stroke-59"></path>
                        <path d="M151.030486,758.808319 C151.030486,758.808319 106.384631,411.379553 390.958478,505.730473 C412.925169,513.01403 433.41654,519.181461 452.595714,525.231531 C631.044796,581.512036 634.611955,449.847558 824.386226,397.454332 C1027.87978,341.274422 1155.70256,519.76587 1189.48382,644.498873" id="Stroke-61"></path>
                        <path d="M154.996403,753.843165 C154.996403,753.843165 114.058313,409.891163 395.216717,506.333506 C416.741757,513.715583 436.907548,520.082175 455.865118,526.415158 C631.692502,585.162091 640.787725,458.396815 826.189784,408.734038 C1024.52029,355.607086 1150.03149,527.749933 1184.91409,656.942293" id="Stroke-63"></path>
                        <path d="M159.066933,748.813349 C159.066933,748.813349 121.804457,409.268817 399.798353,507.56055 C420.901767,515.023436 440.763098,521.569659 459.516626,528.173474 C632.887848,589.220364 647.512291,467.716895 828.717265,420.928677 C1022.06492,371.004127 1145.38357,536.317859 1181.40156,669.617967" id="Stroke-65"></path>
                        <path d="M163.183862,743.783534 C163.183862,743.783534 129.607383,408.647852 404.416474,508.805052 C425.099585,516.343225 444.655486,523.070738 463.201694,529.942155 C634.113167,593.271917 654.263851,477.043036 831.26226,433.133121 C1019.61432,386.407485 1140.73907,544.888986 1177.88904,682.28615" id="Stroke-67"></path>
                        <path d="M167.348381,738.753719 C167.348381,738.753719 137.467884,408.028118 409.074088,510.061249 C429.333434,517.673945 448.582931,524.581939 466.920926,531.722436 C635.369016,597.322012 661.037411,486.374644 833.824733,445.348543 C1017.17109,401.817635 1136.09581,553.465119 1174.37652,694.937574" id="Stroke-69"></path>
                        <path d="M170.56846,733.845773 C170.56846,733.845773 144.398283,407.54084 412.773934,511.461271 C432.613274,519.14267 451.553006,526.232454 469.681893,533.643195 C635.66304,601.487162 666.844628,495.832608 835.411846,457.69867 C1013.738,417.356359 1130.45905,562.165206 1169.87145,707.695007" id="Stroke-71"></path>
                        <path d="M175.764587,728.75875 C175.764587,728.75875 153.338829,405.675114 418.196206,511.887547 C437.592557,519.668035 456.202796,526.965696 474.103617,534.671718 C637.449509,605.005987 674.099577,504.277609 838.27472,468.906294 C1011.39668,431.608473 1125.79513,570.09588 1166.29427,720.214385" id="Stroke-73"></path>
                        <path d="M179.62988,723.689123 C179.62988,723.689123 160.938047,405.161491 422.51586,513.252558 C441.490503,521.092441 459.791675,528.570077 477.476895,536.541904 C638.355123,609.06562 680.493835,513.693971 840.439748,481.247699 C1008.52484,447.150925 1120.71179,578.728056 1162.33761,732.817261" id="Stroke-75"></path>
                        <path d="M183.093986,719.105352 C183.093986,719.105352 168.135885,404.556242 426.672313,514.735429 C445.243388,522.650455 463.253084,530.318287 480.742186,538.574106 C639.310043,613.402067 686.976842,523.219243 842.845764,493.644691 C1006.05339,462.678169 1116.14117,587.588233 1158.93309,745.903165" id="Stroke-77"></path>
                        <path d="M186.866381,713.533227 C186.866381,713.533227 175.67568,403.228176 430.881231,515.42463 C449.028637,523.402512 466.725057,531.258063 483.999277,539.785233 C640.093361,616.836793 693.232997,531.932081 844.860396,505.263985 C1003.00791,477.449339 1110.88003,595.580033 1154.79363,757.972858" id="Stroke-79"></path>
                        <path d="M190.616072,708.860334 C190.616072,708.860334 183.211669,402.170189 435.054924,516.631332 C452.782797,524.687713 470.162877,532.744095 487.221547,541.561917 C640.843126,620.984768 699.445128,541.192005 846.825613,517.390371 C999.907513,492.666361 1105.55758,604.254686 1150.59324,771.046277" id="Stroke-81"></path>
                        <path d="M195.324451,703.316214 C195.324451,703.316214 191.727597,401.333939 440.181868,517.667346 C457.48973,525.772483 474.555372,533.999845 491.395584,543.080379 C642.547392,624.570322 706.598711,550.178965 849.730914,529.336156 C997.738673,507.781571 1101.17095,612.429392 1147.32445,783.001554" id="Stroke-83"></path>
                        <path d="M199.124056,698.644847 C199.124056,698.644847 199.351846,400.330459 444.391511,518.953773 C461.27914,527.127329 478.027697,535.559981 494.649172,544.928263 C643.338475,628.746192 712.824007,559.500079 851.708751,541.555202 C994.640962,523.084933 1095.85164,621.160403 1143.12406,796.074973" id="Stroke-85"></path>
                        <path d="M202.923661,693.965036 C202.923661,693.965036 206.999167,399.359465 448.599987,520.281221 C465.069828,528.523867 481.503708,537.157877 497.904026,546.814714 C644.137993,632.941123 719.050598,568.858331 853.686153,553.832849 C991.543756,538.444815 1090.53541,629.923061 1138.92366,809.148392" id="Stroke-87"></path>
                        <path d="M207.654877,688.565632 C207.654877,688.565632 215.605451,398.579545 453.741558,521.443395 C469.793712,529.725975 485.910582,538.530706 502.089772,548.449203 C645.880827,636.594722 726.203915,577.866971 856.593807,565.814356 C989.378219,553.541385 1086.15135,638.153993 1135.65488,821.103669" id="Stroke-89"></path>
                        <path d="M211.328885,682.874349 C211.328885,682.874349 223.19231,396.608484 458.090517,521.805016 C473.746879,530.149534 489.563979,539.157875 505.537018,549.362057 C647.046443,639.778579 732.863746,586.215015 859.146243,577.110815 C986.997734,567.896377 1081.65323,645.915946 1132.32888,833.123608" id="Stroke-91"></path>
                        <path d="M215.12849,678.246132 C215.12849,678.246132 230.930745,395.720498 462.29898,523.267094 C477.542351,531.669673 493.042377,540.877749 508.791863,551.370784 C647.877134,644.036488 739.090303,595.637153 861.121228,589.504829 C983.902928,583.334147 1076.33701,654.762063 1128.12849,846.197027" id="Stroke-93"></path>
                        <path d="M218.928094,673.637355 C218.928094,673.637355 238.698874,394.862819 466.508904,524.77649 C481.339387,533.233431 496.522406,542.63989 512.045969,553.420272 C648.717119,648.32168 745.319104,605.082662 863.097216,601.941581 C980.810577,598.802898 1071.01896,663.636249 1123.92809,859.270447" id="Stroke-95"></path>
                        <path d="M223.598375,667.93829 C223.598375,667.93829 247.376908,392.92298 471.586146,525.218933 C486.011038,533.73126 500.872321,543.337002 516.167598,554.40063 C650.43706,651.517891 752.425553,614.61995 865.942449,613.303537 C978.588961,611.996714 1066.57457,671.427146 1120.59838,871.22945" id="Stroke-97"></path>
                        <path d="M227.39798,663.38427 C227.39798,663.38427 255.225828,392.125902 475.791725,526.827219 C489.81113,535.38661 504.350749,545.192747 519.420171,556.542931 C651.300387,655.85824 758.651438,622.908181 867.915535,625.816456 C975.515906,628.681574 1061.2601,680.359196 1116.39798,884.30287" id="Stroke-99"></path>
                        <path d="M231.075715,657.873023 C231.075715,657.873023 262.994373,390.368237 479.876819,527.493204 C493.490844,536.103215 507.725649,546.089101 522.550076,557.738503 C652.178126,659.071522 764.771867,631.402993 869.765242,637.371514 C972.32583,643.201009 1055.82199,688.329258 1112.07572,896.383743" id="Stroke-101"></path>
                        <path d="M234.871593,653.333392 C234.871593,653.333392 275.586862,355.853383 526.130554,559.912928 C776.674246,763.972472 992.138174,478.214351 1108.87159,909.396228" id="Stroke-103"></path>
                    </g>
                </g>
                <g id="Group-105-Copy" mask="url(#mask-2)" stroke="#000000" strokeWidth="0.37">
                    <g transform="translate(1440, -42.5) scale(1, -1) rotate(-30) translate(-1440, 42.5)translate(813, -480)">
                        <path d="M29.8596538,875 C29.8596538,875 -118.82852,410.340599 247.388832,453.888506 C613.606184,497.436414 390.153091,179.739667 726.312747,34.6084231 C1066.34174,-112.192772 1254,255.526404 1254,255.526404" id="Stroke-1"></path>
                        <path d="M34.4141615,869.143985 C34.4141615,869.143985 -110.767532,409.029678 252.514342,454.317726 C285.608348,458.380561 313.880038,459.514375 338.192354,458.124761 C579.46503,444.021217 428.129693,174.892406 729.651318,45.9025881 C1065.05606,-97.727723 1250.6829,263.189351 1251.76504,267.189964" id="Stroke-3"></path>
                        <path d="M37.2459643,865.162001 C37.2459643,865.162001 -104.193403,408.514676 255.561669,455.649963 C288.216594,459.804072 316.162406,461.114924 340.245039,459.979468 C578.897752,448.135642 433.012041,183.569689 730.142587,57.1486215 C1060.38445,-83.6410466 1243.67569,271.311389 1245.84008,279.324203" id="Stroke-5"></path>
                        <path d="M40.5243394,859.743002 C40.5243394,859.743002 -97.5321709,408.646184 259.397679,456.519725 C291.651071,460.845244 319.326488,462.237896 343.217292,461.359419 C579.629927,451.80454 438.960396,192.430152 732.167599,68.8807694 C1057.76657,-68.735775 1239.01288,279.41091 1242.26012,291.419069" id="Stroke-7"></path>
                        <path d="M44.9410134,854.605494 C44.9410134,854.605494 -89.5378689,407.834471 264.198958,457.181251 C296.031744,461.623291 323.409878,463.219289 347.087329,462.541221 C581.083443,455.834339 445.728387,200.760658 734.7759,79.9353111 C1055.46713,-54.6774281 1234.52252,287.085234 1238.85266,303.100566" id="Stroke-9"></path>
                        <path d="M49.1120474,849.640485 C49.1120474,849.640485 -81.8992481,407.748498 268.929936,458.512448 C300.370063,463.060743 327.46837,464.816468 350.956185,464.380993 C582.703696,460.090757 452.575991,210.077379 737.696509,92.1235421 C1053.74038,-39.3161968 1230.74913,295.637861 1236.16371,315.637457" id="Stroke-11"></path>
                        <path d="M53.1063196,845.393984 C53.1063196,845.393984 -74.3290053,407.81579 273.302605,460.068611 C304.321331,464.731078 331.119352,466.644003 354.395505,466.452711 C583.697443,464.569747 458.909862,219.302768 739.863549,104.070916 C1050.99413,-24.3647292 1225.80745,304.204383 1232.30226,328.210442" id="Stroke-13"></path>
                        <path d="M57.1185759,841.147484 C57.1185759,841.147484 -66.7449818,407.873234 277.686554,461.621004 C308.283528,466.395458 334.780922,468.668569 357.847397,468.525635 C584.69617,467.114739 465.250382,228.528034 742.034247,116.01828 C1048.24839,-9.4108577 1220.8642,312.773755 1228.44081,340.786501" id="Stroke-15"></path>
                        <path d="M60.6737629,835.782981 C60.6737629,835.782981 -59.719465,406.803282 281.795707,462.056712 C311.998404,466.943274 338.214677,469.180161 361.090475,469.477644 C585.675163,472.394823 471.473811,236.636092 744.315451,126.848726 C1045.86488,4.42640327 1216.42522,320.224201 1225.08785,352.250897" id="Stroke-17"></path>
                        <path d="M64.057261,830.136986 C64.057261,830.136986 -52.7661908,406.030118 285.545817,462.718833 C315.325927,467.70838 341.23852,470.106403 363.903967,470.647743 C586.024425,475.955184 477.173547,245.277333 745.837966,138.361436 C1042.46059,19.1098857 1210.81864,328.095517 1220.56239,364.084293" id="Stroke-19"></path>
                        <path d="M68.351088,825.944982 C68.351088,825.944982 -44.9047931,405.521019 290.198993,463.813692 C319.556164,468.920243 345.167034,471.483902 367.621789,472.273076 C587.274937,479.980206 483.773273,253.745931 748.257547,149.404308 C1039.95265,32.9943337 1206.10631,336.023009 1216.92793,376.081627" id="Stroke-21"></path>
                        <path d="M72.8523301,820.03447 C72.8523301,820.03447 -36.9330279,404.955816 295.246276,464.626394 C324.207449,469.829554 349.53579,472.550853 371.798711,473.582276 C589.164355,483.654765 491.153988,263.335464 751.456256,161.413383 C1038.71529,48.9353328 1202.5572,344.177839 1214.46598,388.139939" id="Stroke-23"></path>
                        <path d="M75.3868714,817.170488 C75.3868714,817.170488 -30.8333264,405.728461 298.13364,467.033757 C326.668689,472.352418 351.692193,475.242393 373.745986,476.520163 C588.630398,488.993415 495.992939,273.170175 752.091314,173.769335 C1034.43059,64.1855423 1196.04466,353.427525 1209.03253,401.475378" id="Stroke-25"></path>
                        <path d="M79.0363923,811.805985 C79.0363923,811.805985 -23.7088704,404.596158 302.323548,467.455739 C330.459063,472.882465 355.201338,475.937306 377.062474,477.464726 C589.646277,492.316698 502.305537,281.315793 754.417928,184.589933 C1032.07765,78.0627397 1191.60374,360.875478 1205.67957,412.943903" id="Stroke-27"></path>
                        <path d="M83.2280652,807.332489 C83.2280652,807.332489 -15.8672144,404.339726 306.658375,468.769635 C334.346999,474.299981 358.759708,477.522168 380.391806,479.297142 C590.296872,496.527538 508.403602,290.355983 756.087663,196.30318 C1028.57837,92.8330943 1185.73245,369.214185 1200.87262,425.311645" id="Stroke-29"></path>
                        <path d="M88.0396854,801.476474 C88.0396854,801.476474 -7.58119605,403.334327 312.003984,469.239122 C339.289665,474.864129 363.420172,478.248355 384.856452,480.27013 C592.452569,499.840082 515.859526,298.826768 759.547691,207.600219 C1027.34793,107.348301 1182.41006,376.864519 1198.63765,436.893026" id="Stroke-31"></path>
                        <path d="M91.3022164,797.002978 C91.3022164,797.002978 -0.842176797,403.06123 315.795231,470.553908 C342.679518,476.284766 366.524912,479.833978 387.769493,482.105566 C593.044623,504.041954 521.759762,307.869019 761.449546,219.318608 C1024.54895,122.12002 1177.51501,385.206781 1194.8307,449.26325" id="Stroke-33"></path>
                        <path d="M95.2694219,790.692972 C95.2694219,790.692972 6.60353783,401.605282 320.290242,470.583477 C346.77237,476.405743 370.329724,480.118359 391.382105,482.633357 C594.331025,506.88973 528.359824,315.890374 764.044078,230.166253 C1022.43224,136.185477 1173.29803,392.402047 1191.70473,460.369177" id="Stroke-35"></path>
                        <path d="M98.3530664,787.164979 C98.3530664,787.164979 13.1699347,401.57732 323.895921,472.290124 C349.975122,478.226326 373.246112,482.113014 394.10578,484.884934 C594.72087,511.537831 534.070923,325.05987 765.742459,241.869965 C1019.41125,150.779742 1168.17484,401.009549 1187.67078,473.13024" id="Stroke-37"></path>
                        <path d="M103.789719,782.19997 C103.789719,782.19997 22.2408757,401.461905 329.43668,473.675259 C355.065131,479.699953 378.007007,483.749451 398.635572,486.766407 C596.545834,515.721353 541.323583,334.429696 768.560369,254.068945 C1017.04322,166.192309 1163.43161,409.551682 1183.98183,485.570227" id="Stroke-39"></path>
                        <path d="M107.107604,777.953469 C107.107604,777.953469 28.9722904,401.365192 333.476003,475.218282 C358.721353,481.342156 381.396719,485.561542 401.850458,488.83099 C597.595924,520.128229 547.649674,343.702554 771.072053,266.024348 C1015.04737,181.198549 1159.4624,418.132064 1181.12038,498.18281" id="Stroke-41"></path>
                        <path d="M110.773396,772.307474 C110.773396,772.307474 36.1975677,400.576922 337.438171,475.941491 C362.257586,482.150314 384.621573,486.531253 404.862134,490.048895 C598.073151,523.616137 553.49965,352.39581 772.689781,277.549218 C1011.69625,195.934388 1153.86896,425.990047 1176.59492,509.913906" id="Stroke-43"></path>
                        <path d="M114.19519,767.833978 C114.19519,767.833978 43.1105111,400.233583 341.360359,477.265212 C365.774024,483.568407 387.849181,488.121354 407.894862,491.891295 C598.74626,527.785193 559.503587,361.442565 774.657952,289.283995 C1008.91245,210.718596 1148.97161,434.347294 1172.78797,522.299548" id="Stroke-45"></path>
                        <path d="M118.328458,762.523972 C118.328458,762.523972 50.7386114,398.277858 345.990901,477.154947 C369.997984,483.568357 391.781292,488.303383 411.631485,492.334273 C600.117191,530.627731 566.206927,368.835737 777.322545,299.218614 C1006.8143,223.543612 1144.75756,441.200145 1169.662,533.377325" id="Stroke-47"></path>
                        <path d="M121.407174,758.714487 C121.407174,758.714487 57.3790275,398.541856 349.341473,479.131221 C372.918658,485.637777 394.39123,490.545988 414.02659,494.835188 C599.963165,535.45208 571.413748,378.54869 778.288099,311.623785 C1002.79232,238.998425 1138.48561,450.231673 1164.45555,546.460332" id="Stroke-49"></path>
                        <path d="M125.151638,753.295488 C125.151638,753.295488 64.6269268,397.975614 353.568959,480.109787 C376.738088,486.697214 397.917472,491.767481 417.356115,496.302822 C600.915382,539.140697 577.697835,387.477695 780.522825,323.392658 C1000.24798,253.969891 1133.81919,458.320782 1160.87559,558.386499" id="Stroke-51"></path>
                        <path d="M130.04914,748.384976 C130.04914,748.384976 73.0310293,397.11769 358.940212,480.992878 C381.700414,487.668569 402.588146,492.914084 421.827088,497.707479 C603.007058,542.852588 585.121737,396.0935 783.889555,334.70667 C998.824726,268.328066 1130.27123,466.257455 1158.41364,570.369629" id="Stroke-53"></path>
                        <path d="M133.410759,743.856983 C133.410759,743.856983 79.9044831,397.468404 362.768177,482.893162 C385.120885,489.645462 405.713882,495.050985 424.754736,500.092763 C603.54411,547.418715 590.990892,405.919713 785.698384,347.377532 C995.83275,284.196454 1125.14958,475.236106 1154.37969,583.14167" id="Stroke-55"></path>
                        <path d="M137.490674,738.49248 C137.490674,738.49248 87.5035248,396.136711 367.308855,483.333195 C389.250888,490.171006 409.546059,495.753645 428.39042,501.053006 C604.787026,550.665712 597.562969,414.089132 788.202407,358.248928 C993.52753,298.106592 1120.71198,482.725185 1151.02672,594.668143" id="Stroke-57"></path>
                        <path d="M142.098263,734.245979 C142.098263,734.245979 95.6833273,395.903153 372.138167,484.888353 C393.649607,491.814186 413.630935,497.571889 432.254979,503.133752 C606.079396,555.022201 604.187495,423.376083 790.566205,370.243472 C990.872622,313.141064 1115.79567,491.334953 1147.16527,607.325371" id="Stroke-59"></path>
                        <path d="M144.86163,729.545488 C144.86163,729.545488 101.931274,395.191998 375.570486,485.992077 C396.693117,493.001521 416.397114,498.936845 434.839337,504.759225 C606.431586,558.921645 609.861678,432.212283 792.34395,381.790845 C988.018351,327.725233 1110.92959,499.49926 1143.41282,619.53801" id="Stroke-61"></path>
                        <path d="M149.779967,725.353484 C149.779967,725.353484 110.428624,393.996907 380.689415,486.907559 C401.380152,494.019307 420.764323,500.152756 438.987103,506.253826 C607.999473,562.849463 616.742167,440.726295 794.958101,392.882155 C985.60138,341.700697 1106.2478,507.539722 1139.77836,632.001094" id="Stroke-63"></path>
                        <path d="M152.85484,719.707489 C152.85484,719.707489 117.011541,393.261113 384.417779,487.761177 C404.717449,494.936178 423.822343,501.229876 441.861625,507.578944 C608.629842,566.27091 622.697299,449.454518 797.000912,404.471187 C982.984736,356.472509 1101.60668,515.409153 1136.2529,643.567121" id="Stroke-65"></path>
                        <path d="M156.691063,715.233993 C156.691063,715.233993 124.403445,392.705295 388.663762,489.094827 C408.552934,496.349431 427.358166,502.823872 445.192462,509.436803 C609.543357,570.384255 628.92054,458.52762 799.124719,416.269489 C980.246726,371.301556 1096.722,523.821371 1132.44595,656.049989" id="Stroke-67"></path>
                        <path d="M161.200704,709.150982 C161.200704,709.150982 132.446655,391.610455 393.813737,489.57582 C413.309337,496.88502 431.833159,503.517612 449.47984,510.373438 C611.577705,573.357748 636.278441,466.833532 802.551956,427.443023 C978.986451,385.647566 1093.42789,531.249304 1130.26548,667.081661" id="Stroke-69"></path>
                        <path d="M163.784053,705.114502 C163.784053,705.114502 138.608343,391.4928 396.785719,491.373921 C415.871164,498.756749 434.091186,505.570959 451.531175,512.69365 C611.205039,577.900573 641.201727,476.352732 803.363391,439.701032 C974.913155,400.926797 1087.1988,540.107031 1125.11353,679.980197" id="Stroke-71"></path>
                        <path d="M168.931361,700.922498 C168.931361,700.922498 147.365521,389.984863 402.066913,492.204348 C420.719509,499.692336 438.616137,506.715649 455.830549,514.131971 C612.912925,581.822095 648.157642,484.880498 806.037473,450.838932 C972.521053,414.943284 1082.53288,548.224398 1121.47907,692.69935" id="Stroke-73"></path>
                        <path d="M173.373135,695.257045 C173.373135,695.257045 155.403875,389.123484 406.869829,493.008673 C425.110966,500.543502 442.704667,507.730179 459.706227,515.391819 C614.365357,585.0936 654.875105,493.43291 808.637962,462.249139 C970.225361,429.479088 1078.07548,555.936485 1118.09216,704.030002" id="Stroke-75"></path>
                        <path d="M176.199442,691.463932 C176.199442,691.463932 161.823727,389.154086 410.294186,495.046145 C428.142207,502.653194 445.450707,510.022667 462.258881,517.957248 C614.652989,589.873615 660.463909,503.19985 810.264163,474.776058 C967.117395,445.01446 1072.91897,565.06421 1114.04481,717.219028" id="Stroke-77"></path>
                        <path d="M179.572345,685.033812 C179.572345,685.033812 168.809388,386.350673 414.260181,494.345013 C431.713937,502.024098 448.733944,509.585433 465.347889,517.793234 C615.475567,591.958968 666.584039,510.234207 812.415763,484.564916 C964.518379,457.792017 1068.26729,571.49834 1110.50238,727.809037" id="Stroke-79"></path>
                        <path d="M183.019419,681.665131 C183.019419,681.665131 175.900394,387.023527 418.03719,496.987982 C435.081801,504.727863 451.792024,512.467743 468.193224,520.939151 C615.893972,597.241819 672.237355,520.583772 813.93755,497.717202 C961.119419,473.964492 1062.69755,581.16899 1105.99746,741.408054" id="Stroke-81"></path>
                        <path d="M187.800023,675.877552 C187.800023,675.877552 184.339184,385.271322 423.398125,497.222306 C440.051488,505.022113 456.471791,512.93954 472.675188,521.677999 C618.111171,600.098115 679.740382,528.509172 817.460023,508.451537 C959.870849,487.70894 1059.39182,588.414549 1103.80002,752.561047" id="Stroke-83"></path>
                        <path d="M191.522104,672.298308 C191.522104,672.298308 191.741207,384.7428 427.436139,499.087896 C443.679749,506.966667 459.78959,515.095192 475.777194,524.125601 C618.796143,604.920588 685.631803,538.171876 819.220095,520.874191 C956.701501,503.070063 1054.05245,597.608385 1099.5221,766.214561" id="Stroke-85"></path>
                        <path d="M195.26116,666.157468 C195.26116,666.157468 199.179916,383.595522 431.488397,499.573935 C447.324782,507.479618 463.12659,515.760665 478.896127,525.022726 C619.505711,607.628243 691.537061,546.165188 820.994326,531.753955 C953.549714,516.994992 1048.734,604.733561 1095.26116,776.632071" id="Stroke-87"></path>
                        <path d="M199.60973,661.359229 C199.60973,661.359229 207.260444,382.796836 436.415125,500.820595 C451.861864,508.776891 467.370878,517.23477 482.939862,526.762538 C621.307763,611.435658 698.601424,555.021424 824.073593,543.44361 C951.849972,531.654118 1044.97325,612.933503 1092.60973,788.676071" id="Stroke-89"></path>
                        <path d="M203.294289,655.765896 C203.294289,655.765896 214.706878,380.349757 440.678444,500.801231 C455.73983,508.829485 470.955845,517.496402 486.321875,527.313836 C622.453634,614.303493 705.009693,562.770035 826.493181,554.010892 C949.486038,545.14569 1040.54442,620.208248 1089.29429,800.320576" id="Stroke-91"></path>
                        <path d="M207.470361,651.265227 C207.470361,651.265227 222.666834,379.05654 445.165531,501.945535 C459.824546,510.041279 474.730376,518.913105 489.876102,529.022967 C623.629518,618.304811 711.346015,571.672868 828.698865,565.764477 C946.773709,559.819129 1035.66431,628.638722 1085.47036,813.083084" id="Stroke-93"></path>
                        <path d="M211.192443,647.649566 C211.192443,647.649566 230.198606,380.207329 449.198304,504.839957 C463.455233,512.95312 478.051063,521.977202 492.974267,532.319357 C624.359792,623.362984 717.225789,581.88165 830.448947,578.868255 C943.609857,575.857161 1030.32951,638.055009 1081.19244,825.736598" id="Stroke-95"></path>
                        <path d="M215.822505,642.299576 C215.822505,642.299576 238.673224,378.083296 454.134053,505.184382 C467.9961,513.362455 482.277512,522.591008 496.975983,533.2202 C626.006392,626.523957 724.0154,591.074887 833.102986,589.810165 C941.354149,588.554658 1025.90665,645.651434 1077.8225,837.608098" id="Stroke-97"></path>
                        <path d="M218.162067,637.160334 C218.162067,637.160334 244.925632,376.202917 457.055939,505.788994 C470.539168,514.023345 484.522716,523.457097 499.015805,534.376261 C625.852233,629.920102 729.09762,598.221312 834.182888,601.019146 C937.668059,603.775462 1020.13295,653.490643 1073.16207,849.68962" id="Stroke-99"></path>
                        <path d="M221.674127,631.895276 C221.674127,631.895276 252.360964,374.880873 460.873372,506.62839 C473.961998,514.900753 487.647447,524.495037 501.899762,535.687599 C626.52514,633.046774 734.773606,606.463286 835.715023,612.197747 C934.31754,617.798635 1014.59137,661.157149 1068.67413,861.052634" id="Stroke-101"></path>
                        <path d="M225.741206,627.9379 C225.741206,627.9379 264.919171,341.763545 506.002975,538.067858 C747.086779,734.37217 954.415342,459.474214 1066.74121,874.269132" id="Stroke-103"></path>
                    </g>
                </g>
            </g>
        </g>
    </g>
</svg>