<?xml version="1.0" encoding="UTF-8"?>
<svg width="8px" height="9px" viewBox="0 0 8 9" version="1.1" xmlns="http://www.w3.org/2000/svg" xmlns:xlink="http://www.w3.org/1999/xlink">
    <title>Group 12</title>
    <g id="Design" stroke="none" strokeWidth="1" fill="none" fillRule="evenodd">
        <g id="07---Mind-Collab-Collective---Profile-Page" transform="translate(-26, -449)">
            <g id="Group-Copy-5" transform="translate(8, 431)">
                <g id="Group-4-Copy-6" transform="translate(11, 11)">
                    <g id="Group-12" transform="translate(7.4929, 7.5322)">
                        <g id="Group-11" transform="translate(0, 0)">
                            <path d="M1.5,0 C2.32842712,-1.52179594e-16 3,0.671572875 3,1.5 L3,2.5 C3,3.32842712 2.32842712,4 1.5,4 C0.671572875,4 5.07265313e-17,3.32842712 0,2.5 L0,1.5 C-1.01453063e-16,0.671572875 0.671572875,1.01453063e-16 1.5,0 Z" id="Rectangle" fill="#DA946D"></path>
                            <line x1="1.50708096" y1="2.6792992" x2="1.50708096" y2="7.53219842" id="Path-18" stroke="#DA946D" strokeLinecap="round" strokeLinejoin="round"></line>
                        </g>
                        <g id="Group-11-Copy-2" transform="translate(5.5, 3.7661) rotate(-180) translate(-5.5, -3.7661)translate(4, 0)">
                            <path d="M1.5,0 C2.32842712,-1.52179594e-16 3,0.671572875 3,1.5 L3,2.5 C3,3.32842712 2.32842712,4 1.5,4 C0.671572875,4 5.07265313e-17,3.32842712 0,2.5 L0,1.5 C-1.01453063e-16,0.671572875 0.671572875,1.01453063e-16 1.5,0 Z" id="Rectangle" fill="#DA946D"></path>
                            <line x1="1.50708096" y1="2.6792992" x2="1.50708096" y2="7.53219842" id="Path-18" stroke="#DA946D" strokeLinecap="round" strokeLinejoin="round"></line>
                        </g>
                    </g>
                </g>
            </g>
        </g>
    </g>
</svg>