<?xml version="1.0" encoding="UTF-8"?>
<svg width="33px" height="33px" viewBox="0 0 33 33" version="1.1" xmlns="http://www.w3.org/2000/svg" xmlns:xlink="http://www.w3.org/1999/xlink">
    <title>Group 13</title>
    <g id="Design" stroke="none" strokeWidth="1" fill="none" fillRule="evenodd">
        <g id="01---Mind-Collab-Collective----BlogImage-01" transform="translate(-292, -6176)" fill="#FFFFFF">
            <g id="Group-19" transform="translate(-1, 5967)">
                <g id="Group-11" transform="translate(252, 209)">
                    <g id="Group-13" transform="translate(41, 0)">
                        <rect id="Rectangle-Copy-19" fill-opacity="0.0483500874" x="0" y="0" width="33" height="33" rx="12"></rect>
                        <path d="M10,20.7886691 C11.5452517,20.8964677 12.9377353,20.5266719 14.1984382,19.6150712 C12.8713569,19.5030545 11.9874494,18.8661058 11.5037652,17.6751664 C11.9435225,17.7431264 12.3496026,17.7393768 12.7732534,17.6357965 C11.344164,17.2191318 10.5842281,16.3150302 10.4871008,14.8742794 C10.6496305,14.9408333 10.7779947,15.0008255 10.9117278,15.0462884 C11.0503417,15.0926886 11.1928601,15.1320585 11.3368428,15.1615859 C11.4744805,15.1897073 11.6160229,15.2009558 11.762934,15.2075175 C11.0308186,14.672743 10.6003347,13.980489 10.5339562,13.1002906 C10.4895412,12.5083361 10.6559755,11.8699813 10.9185609,11.5226825 C12.4760145,13.2812046 14.4473574,14.2513914 16.8638265,14.414964 C16.8438154,14.2870118 16.8238042,14.1796819 16.8111142,14.070946 C16.6051457,12.2941451 18.2157997,10.7863717 20.062683,11.0249346 C20.6981593,11.1064865 21.2452935,11.3614534 21.7026217,11.7903041 C21.7792498,11.8620136 21.8461163,11.8695126 21.9412913,11.8484216 C22.5006275,11.7251563 23.029703,11.5297129 23.5294938,11.2588105 C23.5529215,11.2461559 23.5783015,11.235376 23.6266211,11.2119416 C23.3991772,11.8648257 22.9877284,12.3499191 22.4161902,12.7215897 C22.9589318,12.6662843 23.4743411,12.5256776 24,12.3119553 C23.9716915,12.3602303 23.9599777,12.3860082 23.9433831,12.4085052 C23.5992888,12.8795379 23.1932088,13.2947966 22.7134291,13.6392832 C22.6133733,13.7109927 22.5816483,13.7827021 22.5816483,13.9012805 C22.5865291,16.3815841 21.6450286,18.4705321 19.7249338,20.1306294 C18.5296332,21.1636206 17.1034723,21.7372962 15.5103891,21.9299275 C13.7865012,22.1389629 12.1450983,21.8844646 10.595942,21.1190951 C10.4212104,21.0323876 10.2528239,20.9339628 10.0815089,20.8406937 C10.0532004,20.8252269 10.0273323,20.8060107 10,20.7886691" id="Fill-1"></path>
                    </g>
                </g>
            </g>
        </g>
    </g>
</svg>