<?xml version="1.0" encoding="UTF-8"?>
<svg width="22px" height="22px" viewBox="0 0 22 22" version="1.1" xmlns="http://www.w3.org/2000/svg" xmlns:xlink="http://www.w3.org/1999/xlink">
    <title>Group 14</title>
    <g id="Design" stroke="none" strokeWidth="1" fill="none" fillRule="evenodd">
        <g id="07---Mind-Collab-Collective---Profile-Page" transform="translate(-19, -154)">
            <g id="Group" transform="translate(8, 143)">
                <g id="Group-14" transform="translate(11, 11)">
                    <rect id="Rectangle-Copy-16" fill="#FFFFFF" x="0" y="0" width="22" height="22" rx="5"></rect>
                    <path d="M12.8512669,22 L9.14877892,22 C4.09604889,22 0,17.9039511 0,12.8512211 L0,9.1487331 C0,4.09600307 4.09604889,0 9.14877892,0 L12.8512669,0 C17.9039969,0 22.0000458,4.09600307 22.0000458,9.1487331 L22.0000458,12.8512211 C22.0000458,17.9039511 17.9039969,22 12.8512669,22" id="Combined-Shape" fill="#FFFFFF"></path>
                    <path d="M8.67613163,15.9980968 C7.62965355,15.9969988 6.95969577,15.3001245 7.00187626,14.258107 C7.08112447,12.3007101 8.67540123,10.6289804 10.6219125,10.4620819 C12.6633756,10.2869483 14.5193175,11.6420834 14.9122718,13.6126565 C14.9791032,13.9475514 15.0236575,14.3034917 14.9865898,14.6394847 C14.898029,15.4401215 14.2392098,15.9907767 13.4211638,15.9968158 C12.6115173,16.0030378 11.8020535,15.9982798 10.992407,15.9982798 C10.2203761,15.9982798 9.44816257,15.9990118 8.67613163,15.9980968 Z" id="Fill-1" fill="#CE9569"></path>
                    <path d="M12.8942999,7.87705888 C12.8973952,8.94378166 12.090853,9.75375163 11.0149763,9.76399978 C9.94056054,9.77443094 9.11028034,8.95055276 9.11337586,7.87705888 C9.11630613,6.81289814 9.93526515,5.99963412 11.0036552,6 C12.0731408,6.00054913 12.8911868,6.81253214 12.8942999,7.87705888" id="Fill-4" fill="#CE9569"></path>
                </g>
            </g>
        </g>
    </g>
</svg>