<?xml version="1.0" encoding="UTF-8"?>
<svg width="33px" height="33px" viewBox="0 0 33 33" version="1.1" xmlns="http://www.w3.org/2000/svg" xmlns:xlink="http://www.w3.org/1999/xlink">
    <title>Group 12</title>
    <g id="Design" stroke="none" strokeWidth="1" fill="none" fillRule="evenodd">
        <g id="01---Mind-Collab-Collective----BlogImage-01" transform="translate(-251, -6176)" fill="#FFFFFF">
            <g id="Group-19" transform="translate(-1, 5967)">
                <g id="Group-12" transform="translate(252, 209)">
                    <rect id="Rectangle-Copy-20" fill-opacity="0.0483500874" x="0" y="0" width="33" height="33" rx="12"></rect>
                    <g id="Group-3-Copy-10" transform="translate(13, 10)">
                        <path d="M1.48030663,7.00622181 L0,7.00622181 L0,4.54113581 L1.47413869,4.54113581 C1.47413869,4.01634435 1.4507005,3.52367128 1.48092343,3.03386591 C1.50559521,2.63812154 1.54383646,2.23147985 1.66472817,1.85466237 C2.01506741,0.761490221 2.84959027,0.135181726 4.05048903,0.0382530307 C5.00096925,-0.0380281321 5.96501894,0.0233409237 6.94078773,0.0233409237 L6.94078773,2.40813096 C6.43008195,2.40813096 5.92986166,2.40755742 5.42964138,2.40813096 C4.82209886,2.40927805 4.61238876,2.60428252 4.60868799,3.1778251 C4.60622081,3.6183058 4.6080712,4.0587865 4.6080712,4.53540038 L7,4.53540038 C6.90686404,5.37449317 6.81804564,6.17515861 6.72676007,7.00105992 L4.61979029,7.00105992 L4.61979029,14 L1.48030663,14 L1.48030663,7.00622181 Z" id="Fill-1"></path>
                    </g>
                </g>
            </g>
        </g>
    </g>
</svg>