<?xml version="1.0" standalone="no"?>
<!DOCTYPE svg PUBLIC "-//W3C//DTD SVG 1.1//EN" "http://www.w3.org/Graphics/SVG/1.1/DTD/svg11.dtd" >
<svg xmlns="http://www.w3.org/2000/svg" xmlns:xlink="http://www.w3.org/1999/xlink" version="1.1">
<metadata>
Created by FontForge 20201107 at Thu Sep 12 13:24:57 2019
 By 
Copyright (c) 2019 by BumBumType. All rights reserved. Desktop use is strictly prohibited.
</metadata>
<defs>
<font id="AlbraSemi" horiz-adv-x="1142" >
  <font-face 
    font-family="Albra Semi"
    font-weight="600"
    font-stretch="normal"
    units-per-em="2048"
    panose-1="0 0 7 0 0 0 0 0 0 0"
    ascent="1610"
    descent="-438"
    x-height="987"
    cap-height="1464"
    bbox="-297 -529 2770 2216"
    underline-thickness="0"
    underline-position="0"
    unicode-range="U+0020-2212"
  />
<missing-glyph horiz-adv-x="1781" 
 />
    <glyph glyph-name="f_f.liga" unicode="ff" horiz-adv-x="1392" 
d="M1055 1479h3q-55 0 -57 -86q0 -120 115 -404h256l-16 -63h-240v-686q0 -78 12 -117t36 -60q22 -19 86 -49v-14h-569v14q78 40 99 78q21 37 21 148v686h-350v-686q0 -110 21 -148t96 -78v-14h-553v14q78 40 99 78t21 148v686h-114v63h114v21q0 251 119 381
q118 129 324 129q106 0 260 -25l-117 -213h-10q-125 182 -216 182q-82 0 -82 -168q0 -123 37 -307h350v64q0 487 319 487q138 0 338 -82l-186 -217l-12 4q-113 234 -204 234z" />
    <glyph glyph-name="f_i.liga" unicode="fi" horiz-adv-x="1230" 
d="M1098 240l2 -2q0 -110 21 -148t99 -78v-14h-553v14q76 40 97 78q21 37 21 148v686h-331v-686q0 -111 24 -148t113 -78v-14h-572v14q78 40 99 78t21 148v686h-116v63h116v29q0 153 47 265q46 110 123 163t146 74t141 21q180 0 426 -104l-191 -267h-8q-112 314 -237 316
q-55 0 -94 -69t-39 -221v-205h331q177 0 314 31v-780z" />
    <glyph glyph-name="f_l.liga" unicode="fl" horiz-adv-x="1247" 
d="M1114 240l2 -3q0 -111 21 -148t99 -78v-14h-553v14q77 41 98 78q21 38 21 148v1132q-102 115 -199 115q-151 0 -149 -281v-217h252l-7 -63h-245v-686q0 -110 26 -148q26 -37 117 -78v-14h-578v14q78 41 99 78t21 148v686h-119v63h119v55q0 138 41 241q40 102 111 156
q70 54 146 78q75 24 159 24q142 0 332 -51l186 41v-1290z" />
    <glyph glyph-name=".notdef" horiz-adv-x="1781" 
 />
    <glyph glyph-name=".null" horiz-adv-x="0" 
 />
    <glyph glyph-name="nonmarkingreturn" horiz-adv-x="682" 
 />
    <glyph glyph-name="space" unicode=" " horiz-adv-x="462" 
 />
    <glyph glyph-name="exclam" unicode="!" horiz-adv-x="530" 
d="M236 430q-85 737 -140 1014v20h342v-20q-50 -256 -141 -1014h-61zM268 -16q-70 0 -120 48q-49 48 -49 114t50 114q49 48 119 48q68 0 117 -48t49 -114t-49 -114t-117 -48z" />
    <glyph glyph-name="quotedbl" unicode="&#x22;" horiz-adv-x="708" 
d="M197 934l-31 1q-47 241 -121 530h274q-74 -300 -122 -531zM543 933h-29q-47 227 -121 530h275q-70 -274 -125 -530z" />
    <glyph glyph-name="numbersign" unicode="#" horiz-adv-x="1263" 
d="M1225 848h-305l-127 -356h297l-11 -64h-309l-152 -428h-57l152 428h-340l-156 -428h-57l155 428h-282l10 64h295l129 356h-289l10 63h301l150 410h57l-149 -410h338l145 410h57l-145 -410h293zM735 492l127 356h-338l-129 -356h340z" />
    <glyph glyph-name="dollar" unicode="$" horiz-adv-x="1169" 
d="M1085 408l-3 -4q0 -213 -138 -321q-137 -107 -326 -115v-161h-74v163q-199 16 -424 117l-27 426h15q82 -174 197 -309q114 -133 239 -162v526l-43 25q-76 41 -114 65q-34 21 -98 69q-67 50 -95 90q-28 39 -55 106q-27 66 -27 140q0 178 122 285q121 106 311 114v146h74
v-148q165 -7 351 -71l41 -414h-15q-73 147 -169 264q-98 119 -207 152v-463q25 -11 51 -29q23 -15 84 -50q74 -42 89 -52q14 -9 73 -51q50 -35 72 -65q21 -29 48 -72q28 -45 38 -93q10 -47 10 -108zM362 1200q0 -72 39 -121t143 -111v430q-77 -5 -129 -55q-53 -51 -53 -143z
M618 35v1q88 6 145 63t57 155q0 85 -47 143q-47 57 -155 125v-487z" />
    <glyph glyph-name="percent" unicode="%" horiz-adv-x="1908" 
d="M477 -31l-47 29l997 1503l46 -33zM457 532v1q-182 0 -293 129t-111 327q0 200 113 336q113 135 299 135q179 0 290 -127t111 -330q0 -201 -111 -336t-298 -135zM492 576l1 -4q68 0 111 79q44 80 44 234q0 111 -21 228q-21 118 -73 210q-52 93 -124 93q-68 0 -113 -78
t-45 -230q0 -183 58 -357q58 -175 162 -175zM1457 915v-1q178 0 291 -125t113 -327q0 -200 -113 -337q-112 -136 -299 -136q-180 0 -292 127t-112 330q0 198 113 334q112 135 299 135zM1422 873v-2q-67 0 -112 -79q-45 -80 -45 -231q0 -111 21 -228q21 -118 73 -211
q52 -94 124 -94q68 0 113 79t45 231q0 109 -21 226q-21 118 -73 213q-53 96 -125 96z" />
    <glyph glyph-name="ampersand" unicode="&#x26;" horiz-adv-x="1652" 
d="M539 -25l1 1q-216 0 -352 101q-135 101 -135 267q0 158 117 252q118 95 309 155q-205 244 -205 411q0 137 115 233t301 96q174 0 279 -84t105 -205q0 -104 -73 -180q-72 -75 -216 -154l379 -424q62 92 87 219q4 25 4 38q0 55 -33 94q-34 40 -103 77v15h434v-15
q-89 -56 -133 -105q-41 -45 -106 -149q-50 -118 -111 -219l148 -161q56 -62 112 -63q91 0 162 146l14 -7q-12 -57 -39 -114q-26 -56 -69 -109q-41 -52 -105 -85q-63 -33 -135 -33q-86 0 -155 45t-147 132q-185 -175 -450 -175zM751 912l-2 -2q102 140 102 289q0 117 -48 177
t-108 60q-53 0 -93 -49q-41 -50 -41 -132q0 -77 45 -151q46 -76 145 -192zM699 114v-1q129 0 246 84l-432 506q-158 -92 -158 -252q0 -139 101 -238q100 -99 243 -99z" />
    <glyph glyph-name="quotesingle" unicode="'" horiz-adv-x="360" 
d="M197 934l-31 1q-47 241 -121 530h274q-74 -300 -122 -531z" />
    <glyph glyph-name="parenleft" unicode="(" horiz-adv-x="751" 
d="M721 1585h-2q-179 -179 -276 -403t-97 -577q0 -351 98 -577q97 -224 276 -403l-10 -16q-612 304 -612 995t613 998z" />
    <glyph glyph-name="parenright" unicode=")" horiz-adv-x="751" 
d="M45 1602l-2 -2q612 -309 612 -998q0 -686 -612 -995l-12 16q181 180 278 403q98 226 98 577q0 355 -97 579q-97 225 -277 403z" />
    <glyph glyph-name="asterisk" unicode="*" horiz-adv-x="966" 
d="M918 1069l-19 -6h-379l307 -209l11 -16l-222 -158l-10 14l-121 353l-120 -353l-13 -12l-221 156l12 14l308 211h-379l-19 4l86 256l17 -6l309 -215l-117 342v20h275v-20l-117 -344l309 217l19 6z" />
    <glyph glyph-name="plus" unicode="+" horiz-adv-x="911" 
d="M883 719v-64h-396v-383h-59v383h-395v64h395v383h59v-383h396z" />
    <glyph glyph-name="comma" unicode="," horiz-adv-x="524" 
d="M262 311l-1 -1q68 0 116 -51t48 -145q0 -110 -75 -238t-216 -192l-8 16q122 141 156 295h-19q-67 0 -114 45t-47 111t47 113t113 47z" />
    <glyph glyph-name="hyphen" unicode="-" horiz-adv-x="757" 
d="M688 590v-88h-614v88h614z" />
    <glyph glyph-name="period" unicode="." horiz-adv-x="530" 
d="M268 -16l-1 -1q-68 0 -117 49t-49 114q0 67 50 117q49 49 117 49q66 0 115 -49t49 -117q0 -66 -49 -114t-115 -48z" />
    <glyph glyph-name="slash" unicode="/" horiz-adv-x="681" 
d="M2 -240l592 1821h61l-594 -1821h-59z" />
    <glyph glyph-name="zero" unicode="0" horiz-adv-x="1220" 
d="M612 -27h1q-224 0 -390 199t-166 543t166 546q167 203 387 203t387 -204q166 -203 166 -550q0 -344 -165 -540q-165 -197 -386 -197zM613 31h-3q112 0 173 177q62 178 62 507q0 347 -66 520q-66 172 -171 172q-104 0 -169 -171q-64 -170 -64 -517q0 -352 66 -520
t172 -168z" />
    <glyph glyph-name="one" unicode="1" horiz-adv-x="759" 
d="M104 0v14q103 45 129 83t26 159v834q0 77 -38 113q-38 37 -152 83v12l497 177v-1219q0 -121 26 -159t131 -83v-14h-619z" />
    <glyph glyph-name="two" unicode="2" horiz-adv-x="1030" 
d="M696 258l-3 -2q108 0 163 32q53 31 126 122l12 -6l-125 -406h-862v49q325 330 470 552q146 224 146 397q0 131 -66 203t-165 72q-168 0 -325 -180l-33 16q221 356 497 356q151 0 261 -100q111 -101 111 -270q0 -85 -34 -172q-35 -89 -79 -157q-46 -71 -142 -168
q-102 -103 -163 -159q-89 -81 -202 -179h413z" />
    <glyph glyph-name="three" unicode="3" horiz-adv-x="1077" 
d="M76 1149l-1 1q97 144 230 229q132 84 284 84q147 0 242 -78t95 -201q0 -235 -365 -363v-2q37 8 81 8q156 0 266 -100q111 -101 111 -288q0 -218 -154 -342t-373 -124q-198 0 -431 88l125 304l15 -5q131 -328 306 -327q102 0 168 101q66 100 66 248q0 151 -73 243
q-74 93 -201 93q-80 0 -176 -39l-12 41q383 185 383 397q0 90 -58 138t-153 48q-200 0 -351 -175z" />
    <glyph glyph-name="four" unicode="4" horiz-adv-x="1202" 
d="M1141 422h-196v-166q0 -121 26 -159t131 -83v-14h-592v14q102 45 128 83t26 159v166h-621v31l854 1005h49v-917h215zM192 541h471v571z" />
    <glyph glyph-name="five" unicode="5" horiz-adv-x="1107" 
d="M510 893l2 -1q220 0 362 -119q141 -119 141 -327q0 -119 -49 -213t-128 -150q-78 -55 -170 -84q-90 -28 -186 -28q-186 0 -424 93l103 352h14q135 -391 309 -391q95 0 168 100q74 101 74 267q0 179 -88 264q-89 86 -228 86q-154 0 -291 -81l192 776h467q106 0 153 24
t108 93l13 -4l-133 -368h-605l-80 -336q114 47 276 47z" />
    <glyph glyph-name="six" unicode="6" horiz-adv-x="1169" 
d="M678 813l-4 -1q174 0 304 -102t130 -288q0 -202 -150 -326q-151 -125 -379 -125q-232 0 -378 140t-146 408q0 245 127 448q128 204 330 327q204 124 444 164l5 -26q-246 -106 -403 -301t-201 -443q137 125 321 125zM588 24l-1 -3q98 0 164 91q66 92 66 241q0 150 -66 252
t-195 102q-125 0 -213 -97q-6 -52 -6 -105q0 -220 68 -351q67 -130 183 -130z" />
    <glyph glyph-name="seven" unicode="7" horiz-adv-x="1058" 
d="M225 0h-2q112 593 578 1155h-481q-115 0 -166 -30q-52 -30 -116 -123l-14 5l120 432h895v-45q-143 -166 -240 -333q-96 -165 -154 -351q-58 -188 -86 -335q-29 -150 -57 -375h-277z" />
    <glyph glyph-name="eight" unicode="8" horiz-adv-x="1120" 
d="M555 -27l-1 -2q-209 0 -353 105t-144 279q0 133 87 231q88 98 229 137q-262 141 -262 371q0 172 132 271t324 99q186 0 312 -90t126 -221q0 -113 -93 -194q-94 -82 -201 -116q68 -38 86 -48q29 -17 88 -61q60 -45 92 -86q33 -42 59 -108q27 -68 27 -144q0 -195 -147 -309
t-361 -114zM673 862h-1q129 118 129 288q0 116 -66 185t-165 69q-92 0 -147 -58q-56 -59 -56 -156q0 -102 72 -173q73 -72 234 -155zM553 31l-1 -2q111 0 179 68t68 176q0 117 -93 212q-95 96 -298 209q-139 -117 -141 -323q0 -161 79 -250q80 -90 207 -90z" />
    <glyph glyph-name="nine" unicode="9" horiz-adv-x="1169" 
d="M588 1464l-2 -1q233 0 378 -139q146 -140 146 -408q0 -245 -127 -448q-128 -204 -328 -327q-200 -122 -443 -163l-6 26q248 104 404 300t201 447q-130 -127 -321 -127q-173 0 -304 101q-130 100 -130 288q0 202 151 326q152 125 381 125zM604 728l-2 2q128 0 216 96
q6 52 6 107q0 221 -67 351t-184 130q-97 0 -163 -91t-66 -241t66 -252t194 -102z" />
    <glyph glyph-name="colon" unicode=":" horiz-adv-x="493" 
d="M250 647q-71 0 -120 49t-49 117q0 71 49 120t120 49q68 0 117 -49t49 -120q0 -68 -49 -117t-117 -49zM250 -20q-70 0 -120 50q-49 49 -49 117t49 117q50 50 120 50q67 0 117 -50q49 -49 49 -117t-49 -117q-50 -50 -117 -50z" />
    <glyph glyph-name="semicolon" unicode=";" horiz-adv-x="501" 
d="M250 647q-71 0 -120 49t-49 117q0 71 49 120t120 49q68 0 117 -49t49 -120q0 -68 -49 -117t-117 -49zM258 311l1 -1q68 0 116 -51t48 -145q0 -110 -75 -238t-216 -192l-10 16q124 140 158 295h-19q-71 0 -117 45t-46 111t47 113t113 47z" />
    <glyph glyph-name="less" unicode="&#x3c;" horiz-adv-x="888" 
d="M860 250l-827 434v47l827 438v-69l-747 -395l747 -386v-69z" />
    <glyph glyph-name="equal" unicode="=" horiz-adv-x="825" 
d="M49 788v62h727v-62h-727zM49 520v64h727v-64h-727z" />
    <glyph glyph-name="greater" unicode="&#x3e;" horiz-adv-x="888" 
d="M33 250v69l747 386l-747 395v69l827 -438v-47z" />
    <glyph glyph-name="question" unicode="?" horiz-adv-x="944" 
d="M334 430l-4 1q4 107 36 198q31 90 75 157q52 78 85 126q43 61 71 131q29 72 29 144q0 104 -46 177t-114 73q-34 0 -67 -24q-34 -25 -57 -55q-24 -32 -48 -81q-26 -55 -35 -79q-21 -60 -26 -75q-15 -45 -15 -47l-10 -2l-158 279q34 25 81 50q50 27 151 57q102 30 200 30
q179 0 300 -88t121 -252q0 -92 -43 -171q-44 -80 -109 -138q-64 -57 -133 -115q-66 -56 -126 -134q-58 -76 -76 -162h-82zM379 -15q-67 0 -117 48t-50 114t50 114t117 48t117 -48t50 -114t-50 -114t-117 -48z" />
    <glyph glyph-name="at" unicode="@" horiz-adv-x="1546" 
d="M1362 -66l121 -138q-97 -52 -254 -95q-159 -44 -317 -44q-229 0 -424 96q-194 95 -316 284q-121 187 -121 429q0 344 228 575t550 231q265 0 428 -156t159 -388l-14 -702h-21q-113 102 -182 102q-33 0 -69 -21q-34 -20 -66 -47q-31 -26 -84 -47q-54 -21 -116 -21
q-169 0 -270 137t-101 339q0 212 111 357q111 146 295 146q166 0 276 -101v27q0 41 -24 93q-23 51 -69 106q-45 54 -126 90t-181 36q-63 0 -124 -15q-63 -15 -132 -58q-71 -44 -122 -113q-52 -70 -86 -193q-35 -126 -35 -286q0 -385 177 -616t459 -231q156 0 270 66
q113 66 180 158zM1149 200l16 477q-29 85 -93 162q-64 76 -142 76q-162 0 -162 -377q0 -241 60 -346t144 -105q97 0 177 113z" />
    <glyph glyph-name="A" unicode="A" horiz-adv-x="1486" 
d="M1305 207l1 1q19 -51 32 -77q12 -23 44 -54q31 -29 89 -63v-14h-667v14q80 39 110 69t30 69q0 38 -33 132l-73 206h-463l-17 -47q-63 -185 -63 -246q0 -59 36 -99q36 -41 124 -84v-14h-435v14q106 85 156 167q50 81 111 249l286 795l-73 143q191 72 307 154zM411 589h393
l-197 555z" />
    <glyph glyph-name="B" unicode="B" horiz-adv-x="1427" 
d="M897 825l1 3q82 -11 153 -37q75 -28 144 -73q70 -46 112 -123t42 -171q0 -194 -166 -309t-444 -115h-706v14q103 45 129 83t26 159v952q0 122 -25 159q-26 38 -129 83v14h743q247 0 368 -102q122 -102 122 -236q0 -128 -112 -201q-113 -73 -258 -96v-4zM667 1404l-129 1
v-580h125q115 0 187 80q72 79 72 210q0 127 -69 208t-186 81zM724 70h1q256 13 256 336q0 182 -75 273t-216 84l-151 -8v-590q0 -40 50 -67q49 -26 135 -28z" />
    <glyph glyph-name="C" unicode="C" horiz-adv-x="1413" 
d="M791 1430l-1 -2q-140 0 -249 -171q-109 -170 -109 -513q0 -346 111 -528q111 -181 251 -181q118 0 246 124q130 125 240 298h14l-41 -418q-240 -68 -474 -68q-148 0 -274 43q-128 44 -229 130q-103 88 -161 234t-58 336q0 369 205 573q206 204 522 204q192 0 469 -68
l41 -411h-14q-277 418 -489 418z" />
    <glyph glyph-name="D" unicode="D" horiz-adv-x="1525" 
d="M623 1464l-2 1q420 0 632 -184q213 -185 213 -513q0 -330 -201 -549t-553 -219h-680v14q103 45 129 83t26 159v952q0 122 -25 159q-26 38 -129 83v14h590zM715 67l1 -1q170 12 273 190q104 179 104 492q0 136 -21 242q-21 108 -52 174q-32 68 -81 116q-52 50 -88 71
q-39 23 -96 36t-84 15q-18 1 -67 1h-69v-1239q0 -39 48 -66q47 -26 132 -31z" />
    <glyph glyph-name="E" unicode="E" horiz-adv-x="1318" 
d="M1212 420l12 1l-49 -420h-1145v14q103 45 129 83t26 159v952q0 122 -25 159q-26 38 -129 83v14h1073l37 -417h-15q-47 143 -155 248t-270 105h-165v-588h168q173 0 270 160h10v-400h-10q-41 79 -112 129q-73 51 -157 50l-168 -4v-586q0 -43 57 -70t154 -27h63
q125 0 230 105t171 250z" />
    <glyph glyph-name="F" unicode="F" horiz-adv-x="1224" 
d="M1120 1464l34 -416h-14q-47 143 -155 248t-270 105h-180v-590h157q92 0 162 48q70 47 109 114h10v-402h-10q-102 180 -271 179l-157 -2v-492q0 -119 33 -158t162 -84v-14h-698v14q103 45 129 83t26 159v952q0 122 -25 159q-26 38 -129 83v14h1087z" />
    <glyph glyph-name="G" unicode="G" horiz-adv-x="1560" 
d="M733 -27l-4 -4q-125 0 -240 42t-215 128q-99 85 -159 234t-60 342q0 369 210 570t550 201q131 0 269 -27q141 -28 213 -55l39 -420h-14q-111 188 -244 314q-136 128 -272 128q-156 0 -265 -174q-109 -173 -109 -522q0 -354 114 -524t273 -170q83 0 153 43q71 44 71 145
v265q0 122 -52 183q-53 62 -189 63v27h672v-16q-62 -44 -79 -83q-16 -36 -16 -156v-481h-14q-88 61 -174 61q-46 0 -187 -57t-271 -57z" />
    <glyph glyph-name="H" unicode="H" horiz-adv-x="1632" 
d="M1604 1450h-4q-103 -45 -129 -83t-26 -159v-952q0 -121 26 -159t131 -83v-14h-660v14q103 45 129 83t26 159v494h-563v-494q0 -121 26 -159t129 -83v-14h-659v14q103 45 129 83t26 159v952q0 122 -25 159q-26 38 -129 83v14h659v-14q-103 -45 -129 -83q-25 -37 -25 -159
v-360h563v360q0 122 -25 159q-26 39 -130 83v14h660v-14z" />
    <glyph glyph-name="I" unicode="I" horiz-adv-x="720" 
d="M33 0l-2 14q103 45 129 83t26 159v952q0 122 -25 159q-26 38 -129 83v14h659v-14q-103 -45 -129 -83q-25 -37 -25 -159v-952q0 -121 26 -159t129 -83v-14h-659z" />
    <glyph glyph-name="J" unicode="J" horiz-adv-x="712" 
d="M35 -268l-9 19q160 94 159 283v1173q0 122 -25 159q-26 38 -129 83v14h659v-14q-103 -45 -129 -83q-25 -37 -25 -159v-956q0 -102 -32 -189q-31 -85 -80 -138t-118 -93q-73 -42 -132 -62q-58 -20 -139 -37z" />
    <glyph glyph-name="K" unicode="K" horiz-adv-x="1554" 
d="M537 256h-2q0 -121 26 -159t129 -83v-14h-659v14q103 45 129 83t26 159v952q0 122 -25 159q-26 38 -129 83v14h659v-14q-103 -45 -129 -83q-25 -37 -25 -159v-952zM569 700l422 416q100 97 102 182q0 96 -125 152v14h540v-14q-31 -15 -56 -30q-34 -21 -56 -37
q-13 -9 -50 -36q-25 -18 -51 -40q-25 -21 -44 -36q-8 -6 -48 -41l-42 -36q-4 -3 -43 -39q-36 -33 -38 -35l-247 -229l473 -674q116 -164 234 -203v-14h-502z" />
    <glyph glyph-name="L" unicode="L" horiz-adv-x="1280" 
d="M1174 420h13l-49 -420h-1106v14q103 45 129 83t26 159v952q0 122 -25 159q-26 38 -129 83v14h659v-14q-103 -45 -129 -83q-25 -37 -25 -159v-1046q0 -43 57 -70t154 -27h24q125 0 230 105t171 250z" />
    <glyph glyph-name="M" unicode="M" horiz-adv-x="1886" 
d="M1858 1450l-3 -1q-103 -45 -129 -83t-26 -159v-952q0 -121 26 -159t131 -83v-14h-660v14q103 45 129 83t26 159v918h-4q-385 -741 -482 -967h-45q-185 370 -522 954v-727q0 -158 17 -234q16 -73 54 -109q38 -37 129 -77v-14h-467v14q91 40 129 77q37 36 54 110
q16 71 16 234v821q-53 109 -195 195v14h502q266 -465 447 -837l432 837h441v-14z" />
    <glyph glyph-name="N" unicode="N" horiz-adv-x="1517" 
d="M1497 1464l-4 -16q-91 -40 -129 -77q-38 -36 -54 -109q-16 -71 -16 -234v-1030h-266q-322 535 -726 1153v-719q0 -158 17 -234q16 -73 54 -109q38 -37 129 -77v-14h-471v14q94 40 132 77q37 36 54 110q16 71 16 234v805q-37 101 -198 211v14h467q366 -557 725 -1149v715
q0 163 -16 234q-17 74 -54 110q-38 37 -129 77v14h469z" />
    <glyph glyph-name="O" unicode="O" horiz-adv-x="1599" 
d="M799 -27h-1q-338 0 -540 205t-202 555q0 351 202 554q202 204 540 204t540 -204q203 -205 203 -554q0 -350 -202 -555t-540 -205zM849 39l-1 -1q143 0 233 143q90 142 90 392q0 100 -13 204q-14 108 -45 225t-78 210q-47 94 -121 153q-75 60 -165 60q-147 0 -237 -144
t-90 -386q0 -125 24 -264q23 -135 71 -277q46 -136 134 -226q87 -89 198 -89z" />
    <glyph glyph-name="P" unicode="P" horiz-adv-x="1333" 
d="M559 659h-24v-403q0 -121 29 -159t144 -83v-14h-676v14q103 45 129 83t26 159v952q0 122 -25 159q-26 38 -129 83v14h665q273 0 424 -98q150 -98 150 -293q0 -414 -713 -414zM614 1403h-79v-684h20q383 0 383 350q0 334 -324 334z" />
    <glyph glyph-name="Q" unicode="Q" horiz-adv-x="1599" 
d="M852 -25l-2 1q92 -137 561 -137h72v-10l-228 -252q-103 27 -193 73q-92 46 -177 132t-114 192q-329 10 -522 213q-193 202 -193 546q0 351 202 554q202 204 540 204t540 -204q203 -205 203 -554q0 -337 -187 -539q-188 -203 -502 -219zM422 896l-1 -1q0 -125 24 -264
q23 -135 71 -277q46 -136 134 -226q87 -89 198 -89q143 0 233 143q90 142 90 392q0 100 -13 204q-14 108 -45 225t-78 210q-47 94 -121 153q-75 60 -165 60q-147 0 -237 -144t-90 -386z" />
    <glyph glyph-name="R" unicode="R" horiz-adv-x="1497" 
d="M1300 211l-2 -1q68 -103 180 -197v-14h-447q-216 351 -402 700l-94 -4v-440q0 -121 26 -159t129 -83v-14h-659v14q103 45 129 83t26 159v952q0 122 -25 159q-26 38 -129 83v14h684q267 0 419 -97q153 -98 153 -261q0 -129 -90 -226t-235 -136q145 -249 337 -532z
M535 1400l-1 -639h125q128 0 204 88q77 89 77 246q0 305 -299 305h-106z" />
    <glyph glyph-name="S" unicode="S" horiz-adv-x="1161" 
d="M600 -27l-2 -2q-216 0 -480 121l-27 430h14q56 -122 124 -223q70 -103 171 -182q103 -80 204 -80q90 0 152 59t62 162q0 110 -69 176q-68 65 -251 174t-250 170q-137 128 -137 306q0 187 131 297q130 109 329 109q174 0 396 -76l41 -418h-15q-86 180 -202 306
q-117 128 -238 128q-79 0 -135 -52q-57 -52 -57 -148q0 -91 63 -151q62 -59 245 -165q91 -52 101 -58q32 -20 83 -54q60 -40 80 -60q34 -34 59 -61q38 -41 51 -76q15 -41 26 -85q12 -50 12 -105q0 -117 -43 -204q-44 -89 -114 -138t-153 -75q-81 -25 -171 -25z" />
    <glyph glyph-name="T" unicode="T" horiz-adv-x="1374" 
d="M1292 1464l39 -417h-14q-46 145 -154 250t-270 105h-23v-1145q0 -121 26 -159t129 -83v-14h-662v14q103 45 129 83t26 159v1145h-31q-161 0 -268 -105t-156 -250h-14l37 417h1206z" />
    <glyph glyph-name="U" unicode="U" horiz-adv-x="1507" 
d="M1493 1464l-2 -15q-94 -40 -132 -77q-38 -36 -54 -109q-16 -71 -16 -234v-557q0 -240 -133 -370t-387 -130q-85 0 -165 15q-77 15 -157 53q-78 38 -135 96q-56 58 -91 150q-35 93 -35 210v710q0 122 -25 159q-26 38 -129 83v14h659v-14q-103 -45 -129 -83
q-25 -37 -25 -159v-716q0 -212 91 -321q92 -110 244 -110q66 0 125 21t111 66t84 129q31 83 31 197v557q0 163 -16 234q-17 74 -54 110q-38 37 -129 77v14h469z" />
    <glyph glyph-name="V" unicode="V" horiz-adv-x="1462" 
d="M1020 1464l439 -3v-14q-100 -71 -145 -131q-44 -58 -87 -171l-432 -1149h-123l-504 1280q-16 40 -30 63q-13 21 -45 52q-33 31 -84 59v12h666v-14q-78 -40 -108 -69t-30 -69q0 -42 34 -132l299 -803l287 778q29 79 29 119q0 52 -37 90q-36 38 -129 88v14z" />
    <glyph glyph-name="W" unicode="W" horiz-adv-x="2211" 
d="M1755 1464l451 -1v-14q-75 -50 -121 -102q-45 -51 -63 -87q-17 -34 -46 -118l-407 -1143h-129l-342 920l-334 -920h-127l-473 1278q-13 40 -26 62q-11 20 -44 51q-30 29 -87 61v14h662v-14q-83 -39 -114 -69q-32 -30 -32 -63q0 -18 13 -54l303 -873l219 633l-94 252
q-25 62 -54 97q-28 34 -108 78v14h663v-14q-76 -37 -106 -69q-30 -31 -30 -72q0 -33 33 -127l280 -791l250 748q33 97 33 138q0 50 -37 87q-38 38 -133 84v14z" />
    <glyph glyph-name="X" unicode="X" horiz-adv-x="1503" 
d="M1286 211v1q46 -73 85 -114q41 -43 117 -83v-14h-701v14q68 39 95 67q29 31 29 64q0 30 -26 76l-240 387l-231 -315q-61 -84 -63 -137q0 -70 121 -142v-14h-451v14q88 50 156 110q64 57 154 174l278 369l-372 587q-35 53 -51 75t-57 57t-96 63v14h704v-14
q-129 -68 -129 -125q0 -32 31 -82l217 -350l213 291q51 68 51 123q0 68 -116 143v14h444v-14q-152 -80 -297 -270l-260 -342z" />
    <glyph glyph-name="Y" unicode="Y" horiz-adv-x="1439" 
d="M1022 1464h415v-14q-81 -50 -133 -111t-108 -154l-299 -504v-424q0 -121 26 -159t131 -83v-14h-660v14q103 45 129 83t26 159v412l-379 612q-22 36 -38 59q-15 21 -48 51q-36 33 -76 59v14h664v-14q-133 -76 -133 -129q0 -32 55 -121l274 -444l248 428q37 65 37 108
q0 74 -131 158v14z" />
    <glyph glyph-name="Z" unicode="Z" horiz-adv-x="1255" 
d="M1188 420l14 -2l-49 -420h-1096v41l748 1360h-248q-162 0 -270 -105t-155 -248h-14l37 417h1036v-41l-746 -1357h342q125 0 230 105t171 250z" />
    <glyph glyph-name="bracketleft" unicode="[" horiz-adv-x="657" 
d="M588 1544h-203v-1866h203v-51h-416v1970h416v-53z" />
    <glyph glyph-name="backslash" unicode="\" horiz-adv-x="671" 
d="M686 -240h-61l-592 1821h61z" />
    <glyph glyph-name="bracketright" unicode="]" horiz-adv-x="641" 
d="M57 1544v53h416v-1970h-416v51h203v1866h-203z" />
    <glyph glyph-name="asciicircum" unicode="^" horiz-adv-x="1150" 
d="M172 840l387 624h37l387 -624h-63l-345 542l-339 -542h-64z" />
    <glyph glyph-name="underscore" unicode="_" horiz-adv-x="1081" 
d="M1028 -180v-64h-971v64h971z" />
    <glyph glyph-name="grave" unicode="`" horiz-adv-x="491" 
d="M401 1137q-137 129 -327 327h317q6 -110 29 -327h-19z" />
    <glyph glyph-name="a" unicode="a" horiz-adv-x="1144" 
d="M883 -20l4 -6q-109 0 -153 66t-39 152h-2q-45 -86 -139 -150t-219 -64t-200 66t-75 170q0 151 164 255q163 103 473 183l4 162q2 59 -27 104q-28 45 -90 45q-92 0 -146 -99q-53 -98 -73 -234l-10 -2l-217 131q56 105 178 179q123 75 305 75q114 0 195 -32q80 -31 117 -87
q38 -56 51 -112q13 -57 12 -121l-10 -486q0 -34 12 -50.5t37 -15.5q55 0 90 81l17 -8q-27 -85 -93 -143q-67 -59 -166 -59zM510 150l-1 -1q97 0 180 102l8 356q-311 -96 -311 -303q0 -74 34 -114t90 -40z" />
    <glyph glyph-name="b" unicode="b" horiz-adv-x="1175" 
d="M731 1016v-3q163 0 279 -135q116 -136 116 -374q0 -253 -129 -389q-129 -137 -307 -137q-72 0 -134 24q-64 25 -98 52q-31 24 -74 52q-38 24 -66 24q-72 0 -182 -158h-26v1301q0 56 -25 90q-25 33 -96 85v14q226 17 434 78v-696h2q124 172 306 172zM643 46l1 -1
q158 0 158 389q0 212 -51 336t-151 124q-89 0 -178 -125v-428q32 -119 87 -207t134 -88z" />
    <glyph glyph-name="c" unicode="c" horiz-adv-x="997" 
d="M543 -20l-1 -2q-206 0 -349 139q-144 139 -144 384q0 241 141 377q142 137 341 137q140 0 240 -64q101 -65 159 -156l-207 -160l-12 6q-11 116 -60 218t-132 102q-78 0 -132 -93t-54 -247q0 -197 91 -315t243 -118q188 0 284 191l17 -8q-27 -161 -132 -276t-293 -115z
" />
    <glyph glyph-name="d" unicode="d" horiz-adv-x="1200" 
d="M442 -20v1q-160 0 -277 131q-117 130 -117 374q0 253 128 392q128 138 297 138q161 0 279 -98v350q0 115 -119 180v14q227 16 432 78v-1329q0 -65 24 -91q24 -25 98 -57v-14l-426 -69l-2 182h-2q-45 -76 -129 -129q-85 -53 -186 -53zM571 99h-2q95 0 183 117v444
q-33 117 -88 201q-55 85 -130 85q-160 0 -160 -387q0 -211 51 -336q51 -124 146 -124z" />
    <glyph glyph-name="e" unicode="e" horiz-adv-x="1044" 
d="M979 362l15 -7q-12 -59 -36 -113q-25 -57 -70 -119q-46 -64 -132 -103t-198 -39q-218 0 -364 140q-145 139 -145 375q0 231 141 375t366 144q117 0 207 -42q89 -42 136 -105q47 -64 68 -123q21 -60 21 -113v-25h-655v-28q0 -195 107 -290t254 -95q200 -2 285 168z
M523 962v1q-80 0 -128 -81q-47 -80 -58 -225l366 4q-1 45 -9 90t-27 96q-20 52 -57 83q-38 32 -87 32z" />
    <glyph glyph-name="f" unicode="f" horiz-adv-x="729" 
d="M391 1479l2 -1q-55 0 -55 -84q0 -120 115 -405h256l-17 -63h-239v-686q0 -78 12 -117t36 -60q22 -19 86 -49v-14h-570v14q78 40 99 78t21 148v686h-117v63h117v64q0 487 320 487q138 0 338 -82l-187 -217l-10 4q-116 234 -207 234z" />
    <glyph glyph-name="g" unicode="g" horiz-adv-x="1073" 
d="M784 160l-5 -4q271 -72 273 -269q0 -112 -94 -187q-95 -75 -214 -102q-120 -27 -249 -27q-181 0 -330 54t-149 152q0 46 35 86q34 39 89 63q51 23 85 34q31 10 60 18q-207 50 -207 180q0 74 68 131q66 56 179 82q-272 66 -273 307q0 161 118 249t298 88h41q139 0 207 47
t77 111l227 -76v-8q-95 -119 -297 -119q-69 0 -119 10v-8q342 -66 342 -309q0 -141 -118 -225t-327 -84q-63 0 -113 8q-84 -18 -84 -65q0 -37 45 -45q1 0 87 -18q31 -7 97 -20.5t96 -19.5q121 -25 155 -34zM470 965h-2q-55 0 -91 -51t-36 -148q0 -73 18 -154q18 -79 65 -148
q47 -68 111 -68q55 0 90 48q35 49 35 144q0 128 -51 252q-51 125 -139 125zM525 -377l-1 -2q118 0 199 37q82 37 82 108q0 47 -37 81q-38 35 -100 50q-43 10 -332 66q-106 -67 -106 -164q0 -86 83 -131t212 -45z" />
    <glyph glyph-name="h" unicode="h" horiz-adv-x="1241" 
d="M1108 240h2q0 -110 21 -148t99 -78v-14h-555v14q79 41 101 78q23 38 23 148q0 72 1 212t1 212q0 95 -44 145q-43 49 -110 49q-109 0 -195 -129v-489q0 -110 21 -148t96 -78v-14h-553v14q78 40 99 78t21 148v925q0 96 -14 149q-13 50 -32 69q-15 15 -74 55v14
q230 16 435 78v-729q143 215 354 215q51 0 99 -15q49 -15 96 -46q48 -31 78 -95q30 -63 30 -151v-469z" />
    <glyph glyph-name="i" unicode="i" horiz-adv-x="583" 
d="M270 1137l-2 -2q-67 0 -117 47q-49 46 -49 110q0 61 50 108t117 47q69 0 116 -46q48 -47 48 -108q0 -66 -48 -111t-115 -45zM13 -2l1 13q78 41 99 78t21 148v415q0 96 -14 149q-13 50 -32 69q-18 18 -74 53v14q219 17 435 81v-780q0 -110 21 -148q21 -37 98 -78v-14h-555
z" />
    <glyph glyph-name="j" unicode="j" horiz-adv-x="571" 
d="M274 1137l-1 -2q-67 0 -117 47q-49 46 -49 110q0 62 49 108q50 47 117 47q69 0 116 -46q48 -47 48 -108q0 -66 -48 -111t-115 -45zM-47 -430l-5 15q102 55 144 138t42 237v694q0 96 -15 147t-33 69q-19 19 -72 53v14q217 16 433 81v-877q0 -475 -494 -571z" />
    <glyph glyph-name="k" unicode="k" horiz-adv-x="1206" 
d="M16 0v10q78 40 99 78q21 37 21 148v925q0 96 -14 149q-13 50 -32 69q-15 15 -74 55v14q230 16 435 78v-1047l297 269q57 51 57 96q0 61 -119 127v14h473v-14q-11 -6 -45 -27q-40 -24 -44 -27q-7 -4 -37 -22q-29 -17 -39 -24q-23 -17 -34 -24q-32 -22 -36 -25
q-12 -9 -30 -24q-11 -9 -33 -29q-20 -18 -32 -30l-129 -116l308 -435q86 -124 189 -174v-14h-420l-293 453h-32v-213q0 -110 21 -148q21 -37 98 -78v-14h-555z" />
    <glyph glyph-name="l" unicode="l" horiz-adv-x="583" 
d="M16 0l1 14q78 40 99 78t21 148v925q0 96 -14 149q-13 50 -32 69q-15 15 -74 55v14q229 16 435 78v-1290q0 -110 21 -148q21 -37 98 -78v-14h-555z" />
    <glyph glyph-name="m" unicode="m" horiz-adv-x="1845" 
d="M1712 240v-1q0 -111 21 -148t99 -78v-14h-555v14q83 43 102 81t24 144q2 110 2 424q0 93 -44 142q-43 48 -105 48q-97 0 -174 -125v-489q0 -110 21 -148t99 -78v-14h-555v14q79 41 101 78q23 38 24 148q2 76 2 301q0 186 -30 249t-108 63q-111 0 -186 -127v-487
q0 -111 21 -148t96 -78v-14h-553v14q78 41 99 78t21 148v417q0 135 -21 180q-21 46 -99 92v14q209 12 428 78v-223q135 219 342 219q92 0 177 -51q86 -51 110 -167q137 219 344 219q47 0 95 -15q49 -15 95 -45q47 -30 77 -93t30 -149v-473z" />
    <glyph glyph-name="n" unicode="n" horiz-adv-x="1239" 
d="M1106 240h1q0 -110 21 -148t99 -78v-14h-555v14q80 40 102 78q23 38 23 147v141v283q0 98 -42 146t-108 48q-101 0 -196 -129v-489q0 -111 21 -148t96 -78v-14h-553v14q78 41 99 78t21 148v417q0 135 -21 180q-21 46 -99 92v14q209 12 428 78v-225q146 221 360 221
q51 0 99 -15q49 -15 96 -46q48 -31 78 -95q30 -63 30 -151v-469z" />
    <glyph glyph-name="o" unicode="o" horiz-adv-x="1150" 
d="M575 -20h1q-242 0 -384 135t-142 370q0 241 144 386q144 146 389 146q238 0 379 -138t141 -373q0 -240 -144 -383q-145 -143 -384 -143zM623 33l-3 -2q68 0 114 72q46 71 46 218q0 84 -13 179q-14 103 -40 207q-27 108 -79 181t-120 73t-114 -73q-47 -74 -47 -216
q0 -82 13 -180q13 -101 42 -208t81 -179q53 -72 120 -72z" />
    <glyph glyph-name="p" unicode="p" horiz-adv-x="1191" 
d="M741 1016h-2q167 0 285 -129q118 -128 118 -369q0 -256 -129 -397t-299 -141q-152 0 -275 102h-4v-252q0 -112 31 -147q32 -37 138 -77v-15h-602v15q78 40 99 77q21 36 21 147v961q0 56 -24 83q-25 28 -97 56v12q223 16 429 78l-2 -180l4 -2q129 178 309 178zM657 49
q158 0 158 379q0 208 -50 338q-49 129 -153 129q-89 0 -178 -119v-426q28 -123 86 -212q57 -89 137 -89z" />
    <glyph glyph-name="q" unicode="q" horiz-adv-x="1185" 
d="M586 -410l-1 12q108 40 139 77q30 36 30 147v322h-2q-46 -70 -126 -121t-180 -51q-162 0 -279 135t-117 370q0 237 122 385q122 147 312 147q74 0 138 -24t102 -54q39 -31 76 -54q39 -24 69 -24q68 0 179 143h20v-1171q0 -111 21 -147q21 -37 99 -77v-15h-602zM570 95v1
q104 0 183 123v471q-33 102 -90 177t-127 75q-162 0 -162 -393q0 -213 49 -333q49 -121 147 -121z" />
    <glyph glyph-name="r" unicode="r" horiz-adv-x="874" 
d="M16 0l2 12q78 40 99 78t21 148v434q0 120 -22 165q-22 47 -99 90v14q214 12 428 78l-4 -205h4q27 76 99 139t182 63q50 0 96 -23l-41 -329h-14q-129 168 -217 167q-63 0 -98 -75v-516q0 -110 27 -148t129 -78v-14h-592z" />
    <glyph glyph-name="s" unicode="s" horiz-adv-x="878" 
d="M465 -27l2 -2q-150 0 -369 74l-35 307l15 2q226 -332 390 -330q52 0 87 33t35 86q0 68 -58 120q-58 53 -177 114q-67 36 -106 60q-36 23 -90 66t-78 99t-24 123q0 139 102 216q101 76 252 76q129 0 327 -60l29 -284l-16 -4q-82 120 -177 208q-94 87 -177 87
q-47 0 -77 -31t-30 -84q0 -37 15 -67q15 -29 54 -58q37 -27 68 -45q29 -17 90 -48q12 -7 16 -8q143 -72 219 -150q77 -79 77 -201q0 -137 -97 -218q-98 -81 -267 -81z" />
    <glyph glyph-name="t" unicode="t" horiz-adv-x="714" 
d="M393 -20h1q-117 0 -195 72t-78 212v662h-96v32q297 176 383 314h22v-283h252l-10 -63h-238l-6 -613q-2 -102 40 -145t101 -43q72 0 138 68l10 -11q-121 -202 -324 -202z" />
    <glyph glyph-name="u" unicode="u" horiz-adv-x="1234" 
d="M1104 252l2 -3q0 -97 21 -129t98 -59v-14l-424 -78v209q-52 -78 -145 -142q-92 -64 -214 -64q-116 0 -210 71q-93 71 -93 237v374q0 130 -22 177q-23 48 -99 93v14q218 16 435 81q0 -113 -3 -348t-3 -345q0 -98 43 -147t109 -49q100 0 193 107v419q0 130 -21 177t-99 93
v14q213 14 432 78v-766z" />
    <glyph glyph-name="v" unicode="v" horiz-adv-x="1095" 
d="M764 989h335v-14q-60 -46 -93 -85q-34 -40 -46 -61q-11 -19 -34 -73l-328 -758h-98l-367 829q-39 86 -133 147v14h563v-14q-100 -58 -100 -119q0 -29 24 -92q2 -4 22 -50t70 -162t103 -237q129 310 180 447q14 37 15 69q0 38 -26 70q-25 32 -87 75v14z" />
    <glyph glyph-name="w" unicode="w" horiz-adv-x="1714" 
d="M1374 989h344v-14q-72 -57 -109 -105q-35 -45 -67 -117l-323 -754h-99l-264 606l-262 -606h-96l-365 833q-38 83 -133 144v14h559v-14q-106 -51 -106 -113q0 -26 16 -67q39 -94 207 -477l149 357l-67 158q-34 84 -135 141v14h561v-14q-109 -49 -109 -115q0 -26 17 -65
q82 -196 206 -478q111 271 177 437q14 39 14 67q0 40 -25 72t-90 82v14z" />
    <glyph glyph-name="x" unicode="x" horiz-adv-x="1130" 
d="M993 139l1 -1q45 -62 129 -126v-14h-587v14q112 40 111 84q0 17 -20 49l-164 252l-148 -194q-32 -39 -30 -80q0 -71 102 -111v-14h-375v14q131 71 230 195l188 237l-276 404q-59 90 -134 125v14h588v-14q-110 -37 -108 -84q0 -32 43 -94l127 -193l131 178q35 50 35 78
q0 49 -101 115v14h361v-14q-78 -40 -130 -87q-49 -45 -106 -120l-158 -209z" />
    <glyph glyph-name="y" unicode="y" horiz-adv-x="1112" 
d="M774 989l341 -1v-14q-72 -51 -106 -97q-35 -47 -72 -135q-301 -698 -342 -777q-77 -155 -153 -241q-74 -85 -176 -156l-149 196l6 13l16 -2h23q274 0 357 168l29 57l-410 829q-41 86 -137 146v14h592v-14q-103 -57 -105 -119q0 -25 23 -76l201 -426q124 278 171 410
q12 32 12 57q0 76 -121 154v14z" />
    <glyph glyph-name="z" unicode="z" horiz-adv-x="976" 
d="M926 989l1 -38l-533 -901h230q63 0 120 57q58 57 158 251h14l-32 -358h-832v33l539 903h-207q-56 0 -109 -52q-53 -51 -169 -243h-14l33 348h801z" />
    <glyph glyph-name="braceleft" unicode="{" horiz-adv-x="780" 
d="M479 133l-1 -5q-16 -95 -16 -176q0 -147 60 -225t188 -113l-9 -18q-86 6 -166 32q-76 25 -148 74q-70 48 -111 134q-40 84 -40 198q0 46 8 100l14 88q8 66 8 90q0 124 -60 198q-60 73 -117 79v29q61 12 118 81t57 196q0 47 -8 93l-14 86q-10 62 -12 114q0 110 42 192
q42 83 113 131q71 49 149 74t167 30l9 -19q-127 -34 -187 -111t-60 -225q0 -82 16 -177l15 -84q6 -44 6 -79q0 -225 -187 -295q-45 -17 -67 -18q88 5 171 -81t83 -231q0 -32 -6 -76z" />
    <glyph glyph-name="bar" unicode="|" horiz-adv-x="370" 
d="M219 -240h-63v1821h63v-1821z" />
    <glyph glyph-name="braceright" unicode="}" horiz-adv-x="739" 
d="M487 989l-1 -1q-8 -46 -8 -93q0 -127 57 -196t116 -77v-29q-61 -12 -118 -81t-57 -196q0 -47 8 -93l15 -86q10 -59 10 -112q0 -109 -42 -192t-114 -131q-71 -47 -151 -73q-80 -25 -168 -30l-6 18q129 33 189 111t60 226q0 81 -17 178l-14 84q-6 44 -6 81q0 225 186 295
q44 16 68 16q-90 -4 -172 81t-82 230q0 35 6 77l14 86q16 98 18 174q0 158 -63 233q-64 76 -184 107l6 19q90 -6 168 -31t150 -74t113 -133q42 -85 42 -195q0 -52 -8 -105z" />
    <glyph glyph-name="asciitilde" unicode="~" horiz-adv-x="968" 
d="M682 559l-3 1q-67 0 -201 69t-216 69q-98 0 -204 -75l-26 16q58 117 139 179q83 63 165 63q69 0 209 -76t223 -76q73 0 150 43l22 -20q-100 -193 -258 -193z" />
    <glyph glyph-name="exclamdown" unicode="&#xa1;" horiz-adv-x="530" 
d="M268 1020q68 0 117 -48t49 -114t-49 -114t-117 -48q-70 0 -120 48q-49 48 -49 114t49 114q50 48 120 48zM236 573h61q92 -759 141 -1013v-21h-342v21q55 275 140 1013z" />
    <glyph glyph-name="cent" unicode="&#xa2;" horiz-adv-x="997" 
d="M969 371h1q-27 -161 -130 -273t-276 -118v-168h-59v170q-193 12 -324 149t-131 368q0 232 130 366q130 135 325 148v135h59v-133q129 -6 221 -70q94 -65 146 -150l-207 -160l-12 6q-10 109 -48 196q-38 88 -102 113v-743q50 -17 115 -19q97 0 167 57t108 134zM335 614v1
q0 -271 170 -378v725q-68 -6 -119 -99t-51 -249z" />
    <glyph glyph-name="sterling" unicode="&#xa3;" horiz-adv-x="1140" 
d="M1030 455l12 -2l-55 -455h-932v88q238 154 238 451q0 32 -1 45q-2 20 -6 41t-6 33q-2 14 -10 33q-6 14 -10 26q-2 7 -12 29q-11 25 -12 26h-189v57h162q-41 102 -41 199q0 192 128 322q128 129 363 129q156 0 330 -52l43 -354h-16q-85 143 -190 245q-107 104 -202 104
q-76 0 -135 -57q-58 -57 -58 -156q0 -72 59 -187q58 -114 72 -192h285v-57h-277q2 -22 2 -54q0 -141 -58 -256t-253 -244h514q71 0 138 72q68 73 117 166z" />
    <glyph glyph-name="currency" unicode="&#xa4;" horiz-adv-x="1071" 
d="M1026 672l1 1q0 -176 -115 -312l131 -133l-57 -57l-131 131q-134 -115 -313 -115q-180 0 -318 117l-133 -135l-57 59l135 135q-113 131 -113 312q0 179 115 313l-133 135l57 58l133 -133q135 113 314 111q176 0 312 -115l133 134l55 -60l-131 -131q115 -140 115 -315z
M142 673l1 -1q0 -166 118 -283q119 -117 282 -117q162 0 279 117t117 283q0 167 -118 284q-119 117 -282 117t-280 -118q-117 -119 -117 -282z" />
    <glyph glyph-name="yen" unicode="&#xa5;" horiz-adv-x="1386" 
d="M985 1438l399 -3v-13q-57 -38 -108 -92q-48 -51 -67 -81q-4 -6 -55 -90l-250 -432h252v-55h-285v-172h287v-53h-287v-193q0 -121 26 -159t129 -83v-14h-659v14q103 45 129 83t26 159v193h-282v53h282v155l-10 17h-274v55h241l-317 526q-63 107 -154 171v13h645v-13
q-125 -77 -125 -129q0 -33 54 -118l260 -433l233 416q37 65 37 109q0 77 -127 156v13z" />
    <glyph glyph-name="section" unicode="&#xa7;" horiz-adv-x="1118" 
d="M1014 575l-2 -5q0 -116 -64 -186t-171 -123q143 -125 144 -267q0 -130 -99 -219q-98 -88 -267 -88q-155 0 -342 71l-20 330h14q52 -135 140 -240q87 -103 192 -103q58 0 104 34q47 35 47 102q0 75 -56 136q-54 59 -195 160q-77 57 -124 96q-37 30 -97 92q-55 56 -79 117
q-24 60 -24 129q0 113 63 194t159 126q-139 124 -139 261q0 118 95 207q94 88 264 88q146 0 318 -62l24 -313l-14 2q-58 128 -143 225q-84 96 -174 96q-56 0 -96 -39q-41 -39 -41 -99q0 -39 20 -79q19 -39 66 -78q44 -37 68 -54q14 -10 80 -54q72 -50 117 -84t107 -95
q62 -60 93 -130q32 -72 32 -148zM733 296l-2 -1q74 71 74 154q0 85 -75 164q-77 82 -214 179q-3 3 -6 5q-1 1 -5.5 4.5t-14.5 10.5t-19 14q-22 16 -92 66q-72 -68 -72 -152q0 -148 264 -329q30 -22 162 -115z" />
    <glyph glyph-name="dieresis" unicode="&#xa8;" horiz-adv-x="800" 
d="M217 1151v-2q-57 0 -100 43t-43 101t43 101t100 43t100 -43t43 -100t-43 -100t-100 -43zM586 1149v-2q-57 0 -99 43q-42 44 -42 101t42 101q42 43 99 43q58 0 101 -43q44 -44 44 -100q0 -57 -43 -100t-102 -43z" />
    <glyph glyph-name="copyright" unicode="&#xa9;" horiz-adv-x="1662" 
d="M831 -14q-312 0 -531 220t-219 529t220 528q221 219 530 219t530 -219q220 -219 220 -528t-219 -529t-531 -220zM830 49l-2 -2q284 0 482 205t198 481q0 275 -199 480q-200 206 -477 206t-479 -202q-203 -203 -203 -483q0 -283 204 -484t476 -201zM841 1221h1
q-95 0 -172 -117q-76 -116 -76 -344q0 -231 78 -354t174 -123q77 0 166 80q87 78 160 192h8l-27 -266q-164 -47 -313 -47q-208 0 -345 127q-138 127 -138 371q0 243 138 381t347 138q133 0 311 -46l29 -264h-10q-73 114 -160 192q-89 80 -171 80z" />
    <glyph glyph-name="ordfeminine" unicode="&#xaa;" horiz-adv-x="704" 
d="M537 889l1 -2q-70 0 -97 41t-23 92h-4q-26 -52 -81 -93q-55 -40 -130 -40q-77 0 -123 41q-45 40 -45 105q0 167 381 261l4 105q2 34 -16 57q-18 24 -51 24q-94 0 -126 -197h-6l-141 70q32 66 107 113q76 47 194 47q78 0 129 -21t72 -59q22 -39 29 -72q7 -32 7 -75
l-6 -274q0 -41 33 -41q26 0 49 47l11 -4q-44 -125 -168 -125zM320 1006h1q50 0 91 53l4 211q-162 -51 -162 -172q-2 -92 66 -92z" />
    <glyph glyph-name="guillemotleft" unicode="&#xab;" horiz-adv-x="1150" 
d="M647 958q-111 -218 -266 -440q157 -222 266 -440h-57q-239 223 -508 430v20q269 207 508 430h57zM1073 958q-104 -216 -264 -440q160 -224 264 -440h-55q-239 223 -508 430v20q269 207 508 430h55z" />
    <glyph glyph-name="registered" unicode="&#xae;" horiz-adv-x="1148" 
d="M575 584h1q-205 0 -349 144t-144 347t144 347t348 144q203 0 347 -144t144 -347t-144 -347t-347 -144zM576 637l-1 1q180 0 309 131t129 306t-128 306t-309 131q-178 0 -309 -128t-131 -309q0 -180 131 -309t309 -129zM786 875l-3 -3q12 -20 66 -72v-6h-156
q-114 190 -161 284l-37 -2v-180q0 -47 10 -63q11 -17 49 -33v-6h-240v6q40 17 50 33q11 17 11 63v381q0 47 -10 63q-11 18 -49 35v4h248q101 0 158 -39t57 -100q0 -67 -53 -111t-131 -44h-29v-2q31 -22 88 -21q9 0 21 2q35 -72 111 -189zM495 1356v-256h57q47 0 77 35t30 96
q0 125 -119 125h-45z" />
    <glyph glyph-name="macron" unicode="&#xaf;" horiz-adv-x="692" 
d="M623 1346v-158h-549v158h549z" />
    <glyph glyph-name="degree" unicode="&#xb0;" horiz-adv-x="862" 
d="M434 840q-134 0 -231 95q-96 95 -96 230t96 231t231 96t231 -96t96 -231t-96 -230q-97 -95 -231 -95zM434 903q108 0 182 77t74 185q0 113 -72 189t-183 76q-109 0 -184 -76t-75 -189q0 -106 75 -184t183 -78z" />
    <glyph glyph-name="uni00B2" unicode="&#xb2;" horiz-adv-x="624" 
d="M428 784l-4 -3q64 0 95 18t75 69l8 -4l-78 -254h-524v31q192 195 277 327q84 130 84 232q0 78 -40 121t-100 43q-92 0 -188 -104l-19 10q135 219 308 219q90 0 158 -60t68 -164q0 -63 -24 -123q-24 -59 -84 -124t-101 -101q-31 -28 -132 -112q-7 -5 -15.5 -12.5
t-9.5 -8.5h246z" />
    <glyph glyph-name="uni00B3" unicode="&#xb3;" horiz-adv-x="655" 
d="M43 1294l2 -4q57 91 140 144t177 53q89 0 147 -47q57 -47 57 -119q0 -79 -66 -134t-162 -84v-2q27 6 55 6q95 0 162 -61q68 -62 68 -171q0 -129 -94 -204q-95 -75 -229 -75q-117 0 -264 53l80 203l10 -2q28 -86 75 -150q46 -64 105 -64q55 0 93 59q37 58 37 144
q0 91 -42 146q-42 56 -118 56q-47 0 -104 -24l-8 26q225 109 225 231q0 52 -35 81t-87 29q-121 0 -210 -102z" />
    <glyph glyph-name="acute" unicode="&#xb4;" horiz-adv-x="491" 
d="M94 1137h-17q23 209 27 327h320q-170 -176 -330 -327z" />
    <glyph glyph-name="paragraph" unicode="&#xb6;" horiz-adv-x="1021" 
d="M567 1464l-1 -1464h-288v14q103 45 129 83t26 159v309h-49q-146 0 -249 132q-103 131 -103 317q0 185 104 318q104 132 249 132h182zM992 1464l-1 -14q-103 -45 -129 -83q-25 -37 -25 -159v-952q0 -121 26 -159t129 -83v-14h-291v1464h291z" />
    <glyph glyph-name="periodcentered" unicode="&#xb7;" horiz-adv-x="514" 
d="M260 412v1q-72 0 -125 53t-53 125q0 71 53 124q52 52 125 52q72 0 124 -54q52 -53 52 -123q0 -73 -52 -125q-53 -53 -124 -53z" />
    <glyph glyph-name="cedilla" unicode="&#xb8;" horiz-adv-x="589" 
d="M90 -403v-2q109 7 176 41q66 33 66 92q0 45 -51 78q-52 34 -132 35l110 154h43l-33 -57q250 -18 250 -164q0 -104 -115 -161t-330 -55z" />
    <glyph glyph-name="uni00B9" unicode="&#xb9;" horiz-adv-x="468" 
d="M63 612l-2 10q56 26 73 50q16 22 16 90v489q0 45 -21 68t-89 56v6l319 115v-733q0 -66 15 -90q15 -25 75 -50v-11h-386z" />
    <glyph glyph-name="ordmasculine" unicode="&#xba;" horiz-adv-x="708" 
d="M354 889h1q-150 0 -238 79t-88 226q0 148 90 233q91 86 241 86q146 0 233 -81t87 -226q0 -147 -88 -232t-238 -85zM385 924l-1 -2q78 0 78 155q0 45 -6 105t-21 129q-15 70 -43 117q-28 48 -67 48q-34 0 -58 -39t-24 -117q0 -49 7 -105q7 -55 23 -129q15 -67 44 -115
q29 -47 68 -47z" />
    <glyph glyph-name="guillemotright" unicode="&#xbb;" horiz-adv-x="1150" 
d="M82 958h57q223 -211 508 -430v-20q-285 -219 -508 -430h-57q107 221 267 440q-160 219 -267 440zM510 958h57q215 -204 507 -430v-20q-292 -226 -507 -430h-57q107 221 267 440q-160 219 -267 440z" />
    <glyph glyph-name="onequarter" unicode="&#xbc;" horiz-adv-x="1644" 
d="M63 612l-2 10q56 26 73 50q16 22 16 90v489q0 45 -21 68t-89 56v6l319 115v-733q0 -66 15 -90q15 -25 75 -50v-11h-386zM223 -1l1008 1464h61l-1007 -1464h-62zM1567 251l-115 -2v-100q0 -67 15 -90q15 -22 74 -51v-10h-364v10q57 27 72 51t15 92v100h-371v16l532 606h29
v-548h125zM989 323h273v317z" />
    <glyph glyph-name="onehalf" unicode="&#xbd;" horiz-adv-x="1597" 
d="M63 612l-2 10q56 26 73 50q16 22 16 90v489q0 45 -21 68t-89 56v6l319 115v-733q0 -66 15 -90q15 -25 75 -50v-11h-386zM223 -1l1008 1464h61l-1007 -1464h-62zM1358 171l-5 -1q63 0 95 18t75 69l8 -4l-78 -254h-524v31q191 194 277 326q84 129 84 233q0 77 -39 121
q-39 43 -99 43q-92 0 -188 -105l-19 10q135 219 307 220q90 0 158 -60t68 -165q0 -63 -24 -123q-24 -59 -84 -124q-57 -61 -101 -102q-36 -33 -132 -112q-7 -5 -15.5 -12.5t-9.5 -8.5h246z" />
    <glyph glyph-name="threequarters" unicode="&#xbe;" horiz-adv-x="1757" 
d="M43 1294l2 -4q57 91 140 144t177 53q89 0 147 -47q57 -47 57 -119q0 -79 -66 -134t-162 -84v-2q27 6 55 6q95 0 162 -61q68 -62 68 -171q0 -129 -94 -204q-95 -75 -229 -75q-117 0 -264 53l80 203l10 -2q28 -86 75 -150q46 -64 105 -64q55 0 93 59q37 58 37 144
q0 91 -42 146q-42 56 -118 56q-47 0 -104 -24l-8 26q225 109 225 231q0 52 -35 81t-87 29q-121 0 -210 -102zM340 -4l1008 1464h61l-1008 -1464h-61zM1683 248l-113 -2v-100q0 -67 14 -90q13 -22 74 -51v-10h-365v10q57 27 72 51t15 92v100h-370v16l532 606h29v-548h125z
M1107 320h272v317z" />
    <glyph glyph-name="questiondown" unicode="&#xbf;" horiz-adv-x="935" 
d="M565 1020q67 0 117 -48t50 -114t-50 -114t-117 -48t-118 48t-51 114t51 114t118 48zM613 573q-5 -107 -36 -198q-31 -90 -75 -157q-52 -78 -85 -126q-43 -61 -71 -131q-29 -72 -29 -144q0 -103 47 -177q46 -73 114 -73q35 0 68 24t57 54q23 29 48 80q26 55 35 79
q21 60 26 75q15 45 15 47l10 2l158 -278q-29 -20 -81 -49q-50 -27 -151 -57q-102 -30 -199 -30q-179 0 -300 88t-121 252q0 93 43 170q45 80 109 137q88 78 133 116q66 56 126 134q59 77 77 162h82z" />
    <glyph glyph-name="Agrave" unicode="&#xc0;" horiz-adv-x="1486" 
d="M852 1575h-19q-151 129 -327 303h317q6 -100 29 -303zM1304 207l1 1q19 -51 32 -77q12 -23 44 -54q31 -29 89 -63v-14h-667v14q80 39 110 69t30 69q0 38 -33 132l-73 206h-463l-17 -47q-63 -185 -63 -246q0 -59 36 -99q36 -41 124 -84v-14h-435v14q106 85 156 167
q49 81 111 249l286 795l-73 143q191 72 307 154zM410 589h393l-197 555z" />
    <glyph glyph-name="Aacute" unicode="&#xc1;" horiz-adv-x="1486" 
d="M999 1878l1 1q-186 -194 -327 -328h-21q22 181 30 327h317zM1306 208l1 1q19 -51 32 -77q12 -23 44 -54q31 -29 89 -63v-14h-667v14q80 39 110 69t30 69q0 37 -33 132l-73 206h-463l-17 -47q-63 -184 -63 -246q0 -58 36 -99t124 -84v-14h-435v14q106 85 156 167
q49 81 111 249l286 795l-73 143q191 72 307 154zM412 590h393l-197 555z" />
    <glyph glyph-name="Acircumflex" unicode="&#xc2;" horiz-adv-x="1486" 
d="M754 1683l-275 -161l-12 12q159 217 278 389h17q140 -207 278 -389l-12 -12zM1305 207l1 1q19 -51 32 -77q12 -23 44 -54q31 -29 89 -63v-14h-667v14q80 39 110 69t30 69q0 38 -33 132l-73 206h-463l-17 -47q-63 -185 -63 -246q0 -59 36 -99q36 -41 124 -84v-14h-435v14
q106 85 156 167q50 81 111 249l286 795l-73 143q191 72 307 154zM411 589h393l-197 555z" />
    <glyph glyph-name="Atilde" unicode="&#xc3;" horiz-adv-x="1486" 
d="M561 1645v-2q-47 0 -75 -12q-27 -12 -66 -47l-19 4q23 124 84 179q62 56 168 56q45 0 144 -31q120 -37 141 -37q60 0 85 11q22 9 67 47l22 -4q-27 -133 -87 -183q-59 -49 -179 -49q-24 0 -129 31q-127 37 -156 37zM1305 205l1 1q19 -51 32 -77q12 -23 44 -54
q31 -29 89 -63v-14h-667v14q80 39 110 69t30 69q0 38 -33 132l-73 206h-463l-17 -47q-63 -185 -63 -246q0 -59 36 -99q36 -41 124 -84v-14h-435v14q106 85 156 167q50 81 111 249l286 795l-73 143q191 72 307 154zM411 587h393l-197 555z" />
    <glyph glyph-name="Adieresis" unicode="&#xc4;" horiz-adv-x="1486" 
d="M962 1550l-1 -1q-57 0 -100 42t-43 102q0 57 43 99t101 42q57 0 99 -42t42 -99t-42 -100t-99 -43zM535 1547l-2 -1q-57 0 -100 43t-43 101q0 57 43 99t101 42t101 -42t43 -99t-43 -100t-100 -43zM1301 205l1 1q19 -51 32 -77q12 -23 44 -54q31 -29 89 -63v-14h-667v14
q80 39 110 69t30 69q0 38 -33 132l-73 206h-463l-17 -47q-63 -185 -63 -246q0 -59 36 -99q36 -41 124 -84v-14h-435v14q106 85 156 167q50 81 111 249l286 795l-73 143q191 72 307 154zM407 587h393l-197 555z" />
    <glyph glyph-name="Aring" unicode="&#xc5;" horiz-adv-x="1486" 
d="M749 1538h-1q-78 0 -135 57t-57 139t57 138q56 55 135 55q78 0 133 -55q56 -56 56 -138q0 -83 -55 -139q-56 -57 -133 -57zM746 1870h-2q-50 0 -84 -40t-34 -93q0 -56 37 -99t87 -43q52 0 83 40q32 41 32 96q0 58 -34 98q-35 41 -85 41zM1301 207l1 1q19 -51 32 -77
q12 -23 44 -54q31 -29 89 -63v-14h-667v14q80 39 110 69t30 69q0 38 -33 132l-73 206h-463l-17 -47q-63 -185 -63 -246q0 -59 36 -99q36 -41 124 -84v-14h-435v14q106 85 156 167q50 81 111 249l286 795l-73 143q191 72 307 154zM407 589h393l-197 555z" />
    <glyph glyph-name="AE" unicode="&#xc6;" horiz-adv-x="2017" 
d="M1911 420l16 1l-49 -420h-1135v14q103 45 129 83t26 159v231h-473l-80 -137q-68 -118 -68 -170q0 -44 37 -82q38 -39 123 -84v-14h-432v14q90 79 141 141q53 64 128 192l547 930q10 16 10 36q0 29 -31 59q-30 28 -108 79v14h1116l37 -417h-14q-47 143 -155 248t-270 105
h-158v-584h158q170 0 267 160h10v-399h-10q-39 74 -109 126q-70 53 -159 51l-158 -4v-590q0 -43 57 -70t155 -27h51q125 0 230 105t171 250zM481 581h418v706h-4z" />
    <glyph glyph-name="Ccedilla" unicode="&#xc7;" horiz-adv-x="1413" 
d="M795 37l1 -1q118 0 246 124q130 125 240 298h14l-41 -418q-240 -67 -462 -68l-13 -28q281 -26 281 -186q0 -188 -408 -186l11 39q219 17 219 114q0 50 -60 86t-148 36l69 125q-134 2 -252 45t-218 131q-99 87 -158 233q-58 144 -58 335q0 367 205 571t522 204
q192 0 469 -68l41 -411h-14q-279 418 -489 418q-140 0 -249 -171q-109 -170 -109 -513q0 -346 111 -528q111 -181 250 -181z" />
    <glyph glyph-name="Egrave" unicode="&#xc8;" horiz-adv-x="1318" 
d="M745 1550v-1q-174 168 -327 328h319q6 -130 29 -327h-21zM1212 419l12 1l-49 -420h-1145v14q103 45 129 83t26 159v952q0 122 -25 159q-26 38 -129 83v14h1073l37 -417h-15q-47 143 -155 248t-270 105h-165v-588h168q173 0 270 160h10v-400h-10q-41 79 -112 129
q-73 51 -157 50l-168 -4v-586q0 -43 57 -70t154 -27h63q125 0 230 105t171 250z" />
    <glyph glyph-name="Eacute" unicode="&#xc9;" horiz-adv-x="1318" 
d="M911 1878l1 1q-186 -194 -327 -328h-21q22 181 30 327h317zM1213 421l12 1l-49 -420h-1145v14q103 45 129 83t26 159v952q0 122 -25 159q-26 38 -129 83v14h1073l37 -417h-15q-47 143 -155 248t-270 105h-165v-588h168q173 0 270 160h10v-400h-10q-41 79 -112 129
q-73 51 -157 50l-168 -4v-586q0 -43 57 -70t154 -27h63q125 0 230 105t171 250z" />
    <glyph glyph-name="Ecircumflex" unicode="&#xca;" horiz-adv-x="1318" 
d="M668 1683l-275 -161l-12 12q159 217 278 389h17q140 -207 278 -389l-12 -12zM1212 420l12 1l-49 -420h-1145v14q103 45 129 83t26 159v952q0 122 -25 159q-26 38 -129 83v14h1073l37 -417h-15q-47 143 -155 248t-270 105h-165v-588h168q173 0 270 160h10v-400h-10
q-41 79 -112 129q-73 51 -157 50l-168 -4v-586q0 -43 57 -70t154 -27h63q125 0 230 105t171 250z" />
    <glyph glyph-name="Edieresis" unicode="&#xcb;" horiz-adv-x="1318" 
d="M876 1550l-1 -1q-57 0 -100 42t-43 102q0 57 43 99t101 42q57 0 99 -42t42 -99t-42 -100t-99 -43zM449 1547l-2 -1q-57 0 -100 43t-43 101q0 57 43 99t101 42t101 -42t43 -99t-43 -100t-100 -43zM1208 418l12 1l-49 -420h-1145v14q103 45 129 83t26 159v952
q0 122 -25 159q-26 38 -129 83v14h1073l37 -417h-15q-47 143 -155 248t-270 105h-165v-588h168q173 0 270 160h10v-400h-10q-41 79 -112 129q-73 51 -157 50l-168 -4v-586q0 -43 57 -70t154 -27h63q125 0 230 105t171 250z" />
    <glyph glyph-name="Igrave" unicode="&#xcc;" horiz-adv-x="720" 
d="M449 1550v-1q-168 162 -328 328h319q6 -130 29 -327h-20zM33 -1l-2 14q103 45 129 83t26 159v952q0 122 -25 159q-26 38 -129 83v14h659v-14q-103 -45 -129 -83q-25 -37 -25 -159v-952q0 -121 26 -159t129 -83v-14h-659z" />
    <glyph glyph-name="Iacute" unicode="&#xcd;" horiz-adv-x="720" 
d="M287 1550l-20 1q23 181 30 327h317q-186 -194 -327 -328zM34 1l-2 14q103 45 129 83t26 159v952q0 122 -25 159q-26 38 -129 83v14h659v-14q-103 -45 -129 -83q-25 -37 -25 -159v-952q0 -121 26 -159t129 -83v-14h-659z" />
    <glyph glyph-name="Icircumflex" unicode="&#xce;" horiz-adv-x="720" 
d="M94 1522l-12 12q159 217 278 389h17q140 -207 278 -389l-12 -12l-274 161zM33 0l-2 14q103 45 129 83t26 159v952q0 122 -25 159q-26 38 -129 83v14h659v-14q-103 -45 -129 -83q-25 -37 -25 -159v-952q0 -121 26 -159t129 -83v-14h-659z" />
    <glyph glyph-name="Idieresis" unicode="&#xcf;" horiz-adv-x="720" 
d="M577 1550l-1 -1q-56 0 -100 42q-43 42 -43 102q0 57 43 99t101 42q57 0 99 -42t42 -99t-42 -100t-99 -43zM150 1547l-2 -1q-57 0 -100 43t-43 101q0 57 43 99q44 42 101 42t101 -42q43 -42 43 -99t-43 -100t-100 -43zM29 -2l-2 14q103 45 129 83t26 159v952
q0 122 -25 159q-26 38 -129 83v14h659v-14q-103 -45 -129 -83q-25 -37 -25 -159v-952q0 -121 26 -159t129 -83v-14h-659z" />
    <glyph glyph-name="Eth" unicode="&#xd0;" horiz-adv-x="1525" 
d="M623 1464l-2 1q420 0 632 -184q213 -185 213 -513q0 -330 -201 -549t-553 -219h-680v14q103 45 129 83t26 159v479h-92v60h92v413q0 122 -25 159q-26 38 -129 83v14h590zM715 67l1 -1q170 12 273 190q104 179 104 492q0 136 -21 242q-21 108 -52 174q-32 68 -81 116
q-52 50 -88 71q-39 23 -96 36t-84 15q-18 1 -67 1h-69v-606h211v-60h-211v-573q0 -39 48 -66q47 -26 132 -31z" />
    <glyph glyph-name="Ntilde" unicode="&#xd1;" horiz-adv-x="1517" 
d="M592 1645l-4 -2q-46 0 -75 -12q-28 -12 -65 -47l-19 4q23 124 84 179q62 56 168 56q45 0 144 -31q120 -37 142 -37q60 0 85 11q22 9 67 47l23 -4q-27 -133 -87 -183q-59 -49 -178 -49q-24 0 -129 31q-127 37 -156 37zM1493 1462l-4 -16q-91 -40 -129 -77
q-38 -36 -54 -109q-16 -71 -16 -234v-1030h-266q-322 535 -726 1153v-719q0 -158 17 -234q16 -73 54 -109q38 -37 129 -77v-14h-471v14q94 40 132 77q37 36 54 110q16 71 16 234v805q-37 101 -198 211v14h467q366 -557 725 -1149v715q0 163 -16 234q-17 74 -54 110
q-38 37 -129 77v14h469z" />
    <glyph glyph-name="Ograve" unicode="&#xd2;" horiz-adv-x="1599" 
d="M883 1550v-1q-168 162 -328 328h319q6 -130 29 -327h-20zM799 -28h-1q-338 0 -540 205t-202 555q0 351 202 554q202 204 540 204t540 -204q203 -205 203 -554q0 -350 -202 -555t-540 -205zM849 38l-1 -1q143 0 233 143t90 392q0 100 -13 204q-14 108 -45 225t-78 210
q-47 94 -121 153q-75 60 -165 60q-147 0 -237 -144t-90 -386q0 -124 24 -264q23 -135 71 -277q46 -136 134 -226q87 -89 198 -89z" />
    <glyph glyph-name="Oacute" unicode="&#xd3;" horiz-adv-x="1599" 
d="M721 1550l-21 1q22 181 30 327h318q-186 -194 -327 -328zM799 -26h-1q-338 0 -540 205t-202 555q0 351 202 554q202 204 540 204t540 -204q203 -205 203 -554q0 -350 -202 -555t-540 -205zM849 40l-1 -1q143 0 233 143q90 142 90 392q0 100 -13 204q-14 108 -45 225
t-78 210q-47 94 -121 153q-75 60 -165 60q-147 0 -237 -144t-90 -386q0 -124 24 -264q23 -135 71 -277q46 -136 134 -226q87 -89 198 -89z" />
    <glyph glyph-name="Ocircumflex" unicode="&#xd4;" horiz-adv-x="1599" 
d="M528 1522l-12 12q148 202 279 389h16q144 -213 279 -389l-13 -12l-274 161zM799 -27h-1q-338 0 -540 205t-202 555q0 351 202 554q202 204 540 204t540 -204q203 -205 203 -554q0 -350 -202 -555t-540 -205zM849 39l-1 -1q143 0 233 143q90 142 90 392q0 100 -13 204
q-14 108 -45 225t-78 210q-47 94 -121 153q-75 60 -165 60q-147 0 -237 -144t-90 -386q0 -125 24 -264q23 -135 71 -277q46 -136 134 -226q87 -89 198 -89z" />
    <glyph glyph-name="Otilde" unicode="&#xd5;" horiz-adv-x="1599" 
d="M1141 1812l21 -6q-27 -134 -87 -183q-59 -49 -179 -49q-24 0 -129 31q-127 37 -156 37q-47 0 -75 -12q-27 -12 -66 -47l-18 4q23 124 84 179q62 56 168 56q45 0 144 -31q120 -37 141 -37q62 0 85 10t67 48zM798 -29h-1q-338 0 -540 205t-202 555q0 351 202 554
q203 204 540 204t540 -204q203 -205 203 -554q0 -350 -202 -555t-540 -205zM848 37l-1 -1q143 0 233 143t90 392q0 100 -13 204q-13 108 -45 225t-78 210q-47 94 -121 153q-75 60 -165 60q-147 0 -237 -144t-90 -386q0 -125 24 -264q23 -135 71 -277q46 -136 134 -226
q87 -89 198 -89z" />
    <glyph glyph-name="Odieresis" unicode="&#xd6;" horiz-adv-x="1599" 
d="M1011 1550l-1 -1q-56 0 -100 42q-43 42 -43 102q0 57 43 99q44 42 101 42t99 -42t42 -99t-42 -100t-99 -43zM584 1547l-2 -1q-57 0 -100 43t-43 101q0 57 43 99q44 42 101 42t101 -42q43 -42 43 -99t-43 -100t-100 -43zM795 -29h-1q-338 0 -540 205t-202 555
q0 351 202 554q202 204 540 204t540 -204q203 -205 203 -554q0 -350 -202 -555t-540 -205zM845 37l-1 -1q143 0 233 143t90 392q0 100 -13 204q-14 108 -45 225t-78 210q-47 94 -121 153q-75 60 -165 60q-147 0 -237 -144t-90 -386q0 -125 24 -264q23 -135 71 -277
q46 -136 134 -226q87 -89 198 -89z" />
    <glyph glyph-name="multiply" unicode="&#xd7;" horiz-adv-x="804" 
d="M727 414l-45 -43l-279 278l-270 -272l-43 43l272 270l-280 281l45 45l281 -281l270 271l41 -41l-270 -271z" />
    <glyph glyph-name="Oslash" unicode="&#xd8;" horiz-adv-x="1599" 
d="M1272 1346h-1q270 -206 270 -613q0 -350 -202 -555t-540 -205q-253 0 -428 115l-107 -149h-67l129 180q-268 207 -270 614q0 351 202 554q202 204 540 204q250 0 429 -113l98 138h68zM423 895h1q0 -271 86 -518l555 774q-118 274 -315 274q-147 0 -237 -144t-90 -386z
M848 39v-1q146 0 236 143q90 142 90 392q0 279 -87 517l-552 -775q119 -276 313 -276z" />
    <glyph glyph-name="Ugrave" unicode="&#xd9;" horiz-adv-x="1507" 
d="M868 1550v-1q-174 168 -327 328h319q6 -130 29 -327h-21zM1493 1463l-2 -15q-94 -40 -132 -77q-38 -36 -54 -109q-16 -71 -16 -234v-557q0 -240 -133 -370t-387 -130q-85 0 -165 15q-77 15 -157 53q-78 37 -135 96q-56 58 -91 150q-35 93 -35 210v710q0 122 -25 159
q-26 38 -129 83v14h659v-14q-103 -45 -129 -83q-25 -37 -25 -159v-716q0 -212 91 -321q92 -110 244 -110q66 0 125 21t111 66t84 129q31 83 31 197v557q0 163 -16 234q-17 74 -54 110q-38 37 -129 77v14h469z" />
    <glyph glyph-name="Uacute" unicode="&#xda;" horiz-adv-x="1507" 
d="M707 1550l-20 1q23 181 30 327h317q-186 -194 -327 -328zM1494 1465l-2 -15q-94 -40 -132 -77q-38 -36 -54 -109q-16 -71 -16 -234v-557q0 -240 -133 -370t-387 -130q-86 0 -165 15q-77 15 -157 53q-78 37 -135 96q-56 58 -91 150q-35 93 -35 210v710q0 122 -25 159
q-26 38 -129 83v14h659v-14q-103 -45 -129 -83q-25 -37 -25 -159v-716q0 -212 91 -321q92 -110 244 -110q67 0 125 21t111 66t84 129q31 83 31 197v557q0 163 -16 234q-17 74 -54 110q-38 37 -129 77v14h469z" />
    <glyph glyph-name="Ucircumflex" unicode="&#xdb;" horiz-adv-x="1507" 
d="M516 1522l-12 12q159 217 278 389h17q140 -207 278 -389l-12 -12l-274 161zM1493 1464l-2 -15q-94 -40 -132 -77q-38 -36 -54 -109q-16 -71 -16 -234v-557q0 -240 -133 -370t-387 -130q-85 0 -165 15q-77 15 -157 53q-78 38 -135 96q-56 58 -91 150q-35 93 -35 210v710
q0 122 -25 159q-26 38 -129 83v14h659v-14q-103 -45 -129 -83q-25 -37 -25 -159v-716q0 -212 91 -321q92 -110 244 -110q66 0 125 21t111 66t84 129q31 83 31 197v557q0 163 -16 234q-17 74 -54 110q-38 37 -129 77v14h469z" />
    <glyph glyph-name="Udieresis" unicode="&#xdc;" horiz-adv-x="1507" 
d="M999 1550l-1 -1q-56 0 -100 42q-43 42 -43 102q0 57 43 99q44 42 101 42t99 -42t42 -99t-42 -100t-99 -43zM572 1547l-2 -1q-57 0 -100 43t-43 101q0 57 43 99t101 42q57 0 101 -42q43 -42 43 -99t-43 -100t-100 -43zM1489 1462l-2 -15q-94 -40 -132 -77
q-38 -36 -54 -109q-16 -71 -16 -234v-557q0 -240 -133 -370t-387 -130q-85 0 -165 15q-77 15 -157 53q-78 38 -135 96q-56 58 -91 150q-35 93 -35 210v710q0 122 -25 159q-26 38 -129 83v14h659v-14q-103 -45 -129 -83q-25 -37 -25 -159v-716q0 -212 91 -321
q92 -110 244 -110q66 0 125 21t111 66t84 129q31 83 31 197v557q0 163 -16 234q-17 74 -54 110q-38 37 -129 77v14h469z" />
    <glyph glyph-name="Yacute" unicode="&#xdd;" horiz-adv-x="1439" 
d="M1018 1878v1q-190 -199 -328 -328h-20q22 181 30 327h318zM1022 1465h415v-14q-81 -50 -133 -111t-108 -154l-299 -504v-424q0 -121 26 -159t131 -83v-14h-660v14q103 45 129 83t26 159v412l-379 612q-22 36 -38 59q-15 21 -48 51q-36 33 -76 59v14h664v-14
q-133 -76 -133 -129q0 -32 55 -121l274 -444l248 428q37 65 37 108q0 74 -131 158v14z" />
    <glyph glyph-name="germandbls" unicode="&#xdf;" horiz-adv-x="1308" 
d="M743 967l-6 -2q0 -39 54 -85q51 -44 129 -97q82 -56 152 -112q76 -61 130 -154t54 -202q0 -166 -110 -255q-109 -88 -258 -88q-164 0 -333 103l53 344l13 -2q46 -157 116 -275q69 -117 149 -117q50 0 87 46q38 47 38 129t-45 150t-108 114l-126 93q-62 46 -108 107
q-45 60 -45 132q0 52 26 96t61 75q40 35 71 66q35 35 60 84q26 50 26 114q0 92 -48 149t-118 57q-84 0 -144 -86q-60 -85 -60 -269v-843q0 -111 21 -148t96 -78v-14h-553v14q78 41 99 78t21 148v692h-106v63h106v37q0 215 133 336t369 121q168 0 279 -60t111 -179
q0 -57 -30 -97q-29 -40 -72 -61q-34 -17 -83 -37q-42 -17 -71 -36q-30 -20 -30 -51z" />
    <glyph glyph-name="agrave" unicode="&#xe0;" horiz-adv-x="1144" 
d="M676 1128v-1q-168 162 -328 328h318q8 -143 30 -327h-20zM883 -21l4 -6q-109 0 -153 66t-39 152h-2q-45 -86 -139 -150t-219 -64t-200 66t-75 170q0 151 164 255q163 103 473 183l4 162q2 59 -27 104q-28 45 -90 45q-92 0 -146 -99q-53 -98 -73 -234l-10 -2l-217 131
q56 105 178 179q123 75 305 75q114 0 195 -32q80 -32 117 -87q38 -56 51 -112q13 -57 12 -121l-10 -486q0 -34 12 -50.5t37 -15.5q55 0 90 81l17 -8q-27 -85 -93 -143q-67 -59 -166 -59zM510 149l-1 -1q97 0 180 102l8 356q-311 -96 -311 -303q0 -74 34 -114t90 -40z" />
    <glyph glyph-name="aacute" unicode="&#xe1;" horiz-adv-x="1144" 
d="M514 1128h-19q23 194 27 328h320q-160 -166 -328 -328zM884 -20l4 -6q-110 0 -153 66q-44 66 -39 152h-2q-45 -86 -139 -150t-219 -64t-200 66t-75 170q0 151 164 255q163 103 473 183l4 162q2 59 -27 104t-90 45q-92 0 -146 -99q-53 -98 -73 -234l-10 -2l-217 131
q56 105 178 179q123 75 305 75q114 0 195 -32q79 -31 117 -87t51 -112q13 -57 12 -121l-10 -486q0 -34 12 -50.5t37 -15.5q56 0 90 81l17 -8q-27 -85 -93 -143q-67 -59 -166 -59zM511 150l-1 -1q98 0 180 102l8 356q-311 -96 -311 -303q0 -74 34 -114t90 -40z" />
    <glyph glyph-name="acircumflex" unicode="&#xe2;" horiz-adv-x="1144" 
d="M334 1114l-13 9q55 75 116 162q80 114 145 198h16q158 -234 258 -359l-10 -10l-256 150zM882 -21l4 -6q-110 0 -153 66q-44 66 -39 152h-2q-45 -86 -139 -150t-219 -64t-200 66t-75 170q0 151 164 255q163 103 473 183l4 162q2 59 -27 104t-90 45q-92 0 -146 -99
q-53 -98 -73 -234l-10 -2l-217 131q56 105 178 179q123 75 305 75q114 0 195 -32q79 -32 117 -87q38 -56 51 -112q13 -57 12 -121l-10 -486q0 -34 12 -50.5t37 -15.5q56 0 90 81l17 -8q-27 -85 -93 -143q-67 -59 -166 -59zM509 149l-1 -1q98 0 180 102l8 356
q-311 -96 -311 -303q0 -74 34 -114t90 -40z" />
    <glyph glyph-name="atilde" unicode="&#xe3;" horiz-adv-x="1144" 
d="M901 1391l21 -6q-38 -219 -213 -219q-59 0 -146 31q-114 37 -151 37q-58 0 -119 -59l-17 4q26 125 81 173t165 48q16 0 115 -33q108 -35 129 -35q51 0 75 11q23 11 60 48zM883 -21l4 -6q-109 0 -153 66t-39 152h-2q-45 -86 -139 -150t-219 -64t-200 66t-75 170
q0 151 164 255q163 103 473 183l4 162q2 59 -27 104q-28 45 -90 45q-92 0 -146 -99q-53 -98 -73 -234l-10 -2l-217 131q56 105 178 179q123 75 305 75q114 0 195 -32q80 -32 117 -87q38 -56 51 -112q13 -57 12 -121l-10 -486q0 -34 12 -50.5t37 -15.5q55 0 90 81l17 -8
q-27 -85 -93 -143q-67 -59 -166 -59zM510 149l-1 -1q97 0 180 102l8 356q-311 -96 -311 -303q0 -74 34 -114t90 -40z" />
    <glyph glyph-name="adieresis" unicode="&#xe4;" horiz-adv-x="1144" 
d="M403 1143l-1 -2q-57 0 -100 43t-43 100q0 58 43 101q44 44 101 44q58 0 101 -43q44 -44 44 -100q0 -57 -43 -100t-102 -43zM773 1141l-2 -2q-57 0 -100 43t-43 100q0 58 43 101q44 44 100 44q58 0 101 -43q44 -44 44 -100q0 -57 -43 -100t-100 -43zM880 -24l4 -6
q-110 0 -153 66q-44 66 -39 152h-2q-45 -86 -139 -150t-219 -64t-200 66t-75 170q0 151 164 255q163 103 473 183l4 162q2 59 -27 104t-90 45q-92 0 -146 -99q-53 -98 -73 -234l-10 -2l-217 131q56 105 178 179q123 75 305 75q114 0 195 -32q79 -31 117 -87t51 -112
q13 -57 12 -121l-10 -486q0 -34 12 -50.5t37 -15.5q56 0 90 81l17 -8q-27 -85 -93 -143q-67 -59 -166 -59zM507 146l-1 -1q98 0 180 102l8 356q-311 -96 -311 -303q0 -74 34 -114t90 -40z" />
    <glyph glyph-name="aring" unicode="&#xe5;" horiz-adv-x="1144" 
d="M590 1079q-78 0 -135 57t-57 139q0 79 57 135q58 56 135 56t133 -56q55 -55 55 -135q0 -83 -55 -139q-55 -57 -133 -57zM596 1137v1q50 0 81 42q32 43 32 95q0 57 -36 97t-87 40q-49 0 -82 -39t-33 -94q0 -56 37 -99t88 -43zM883 -19l4 -6q-109 0 -153 66t-39 152h-2
q-45 -86 -139 -150t-219 -64t-200 66t-75 170q0 151 164 255q163 103 473 183l4 162q2 59 -27 104q-28 45 -90 45q-92 0 -146 -99q-53 -98 -73 -234l-10 -2l-217 131q56 105 178 179q123 75 305 75q114 0 195 -32q80 -32 117 -87q38 -56 51 -112q13 -57 12 -121l-10 -486
q0 -34 12 -50.5t37 -15.5q55 0 90 81l17 -8q-27 -85 -93 -143q-67 -59 -166 -59zM510 151l-1 -1q97 0 180 102l8 356q-311 -96 -311 -303q0 -74 34 -114t90 -40z" />
    <glyph glyph-name="ae" unicode="&#xe6;" horiz-adv-x="1675" 
d="M360 -20l2 -3q-122 0 -213 57t-91 180q0 158 168 260q167 101 471 181l2 172q1 63 -33 99t-90 36q-96 0 -148 -99q-53 -99 -66 -232l-12 -2l-213 133q46 96 167 174q120 78 286 78q191 0 291 -121q146 121 323 121q187 0 302 -115q116 -116 116 -273v-25h-653
q-5 -111 27 -195t87 -129t117 -66t123 -21q201 0 289 166l14 -6q-32 -163 -142 -266q-112 -104 -292 -104q-128 0 -235 52q-109 53 -170 147q-51 -83 -172 -141q-120 -58 -255 -58zM973 652l362 2q-5 130 -54 215q-50 86 -129 86q-74 0 -123 -84q-50 -85 -56 -219zM549 114
h-1q134 0 207 106q-66 118 -66 273q0 61 6 120q-160 -57 -235 -132t-75 -187q0 -96 48 -138t116 -42z" />
    <glyph glyph-name="ccedilla" unicode="&#xe7;" horiz-adv-x="997" 
d="M528 -20l-2 -3q-1 0 -5 0.5t-11 1t-14 0.5l-23 -41q250 -18 250 -164q0 -104 -115 -161t-330 -55l16 39q110 7 177 41q66 33 66 92q0 45 -51 78q-52 34 -131 35l101 142q-176 29 -291 165q-116 137 -116 351q0 241 141 377q142 137 341 137q140 0 240 -64
q101 -65 159 -156l-207 -160l-12 6q-11 116 -60 218t-132 102q-78 0 -132 -93t-54 -247q0 -197 91 -315t243 -118q188 0 284 191l17 -8q-33 -170 -136 -280q-104 -111 -304 -111z" />
    <glyph glyph-name="egrave" unicode="&#xe8;" horiz-adv-x="1044" 
d="M629 1128l1 -1q-168 162 -328 328h317q7 -143 30 -327h-20zM980 361l15 -7q-12 -59 -36 -113q-25 -57 -70 -119q-46 -64 -132 -103q-85 -39 -198 -39q-218 0 -364 140q-145 139 -145 375q0 231 141 375t366 144q117 0 207 -42q89 -42 136 -105q47 -64 68 -123
q21 -60 21 -113v-25h-655v-28q0 -195 107 -290t254 -95q199 -1 285 168zM524 961v1q-80 0 -128 -81q-47 -80 -58 -225l366 4q-2 45 -9 90t-27 96q-20 52 -57 83q-38 32 -87 32z" />
    <glyph glyph-name="eacute" unicode="&#xe9;" horiz-adv-x="1044" 
d="M795 1456q-160 -166 -328 -328h-21q23 201 29 328h320zM979 362l15 -7q-12 -59 -36 -113q-25 -57 -70 -119q-46 -64 -132 -103t-198 -39q-218 0 -364 140q-145 139 -145 375q0 231 141 375t366 144q117 0 207 -42q89 -42 136 -105q47 -64 68 -123q21 -60 21 -113v-25
h-655v-28q0 -195 107 -290t254 -95q200 -2 285 168zM523 962v1q-80 0 -128 -81q-47 -80 -58 -225l366 4q-1 45 -9 90t-27 96q-20 52 -57 83q-38 32 -87 32z" />
    <glyph glyph-name="ecircumflex" unicode="&#xea;" horiz-adv-x="1044" 
d="M545 1264l-256 -151l-13 10q55 75 116 162q80 114 145 198h16q158 -234 258 -359l-10 -10zM979 361l15 -7q-12 -59 -36 -113q-25 -57 -70 -119q-46 -64 -132 -103t-198 -39q-218 0 -364 140q-145 139 -145 375q0 231 141 375t366 144q117 0 207 -42q89 -42 136 -105
q47 -64 68 -123q21 -60 21 -113v-25h-655v-28q0 -195 107 -290t254 -95q200 -1 285 168zM523 961v1q-80 0 -128 -81q-47 -80 -58 -225l366 4q-1 45 -9 90t-27 96q-20 52 -57 83q-38 32 -87 32z" />
    <glyph glyph-name="edieresis" unicode="&#xeb;" horiz-adv-x="1044" 
d="M358 1143l-1 -2q-57 0 -100 43t-43 100q0 58 43 101q44 44 101 44q58 0 101 -43q44 -44 44 -100q0 -57 -43 -100t-102 -43zM728 1141v-2q-57 0 -100 43t-43 100q0 58 43 101q44 44 100 44q57 0 100 -43t43 -100t-43 -100t-100 -43zM978 358l15 -7q-12 -59 -36 -113
q-25 -57 -70 -119q-46 -64 -132 -103q-85 -39 -198 -39q-218 0 -364 140q-145 139 -145 375q0 231 141 375t366 144q117 0 207 -42q89 -42 136 -105q47 -64 68 -123q21 -60 21 -113v-25h-655v-28q0 -195 107 -290t254 -95q199 -2 285 168zM522 958v1q-80 0 -128 -81
q-47 -80 -58 -225l366 4q-2 45 -9 90t-27 96q-20 52 -57 83q-38 32 -87 32z" />
    <glyph glyph-name="igrave" unicode="&#xec;" horiz-adv-x="583" 
d="M356 1137h1q-168 162 -327 327h317q7 -142 30 -327h-21zM17 0l1 13q78 41 99 78t21 148v415q0 96 -14 149q-13 50 -32 69q-18 18 -74 53v14q219 17 435 81v-780q0 -110 21 -148q21 -37 98 -78v-14h-555z" />
    <glyph glyph-name="iacute" unicode="&#xed;" horiz-adv-x="583" 
d="M195 1137h-21q23 201 29 327h319q-159 -165 -327 -327zM16 0l1 13q78 41 99 78t21 148v415q0 96 -14 149q-13 50 -32 69q-19 18 -74 53v14q219 17 435 81v-780q0 -110 21 -148q21 -37 98 -78v-14h-555z" />
    <glyph glyph-name="icircumflex" unicode="&#xee;" horiz-adv-x="583" 
d="M14 1122l-12 11q47 65 116 161q82 114 144 197h17q154 -228 258 -358l-11 -11l-256 150zM16 0l1 13q78 41 99 78t21 148v415q0 96 -14 149q-13 50 -32 69q-19 18 -74 53v14q219 17 435 81v-780q0 -110 21 -148q21 -37 98 -78v-14h-555z" />
    <glyph glyph-name="idieresis" unicode="&#xef;" horiz-adv-x="583" 
d="M84 1151v-2q-57 0 -100 43t-43 101t43 101t100 43q58 0 101 -43q44 -44 44 -100q0 -57 -43 -100t-102 -43zM454 1149l-2 -2q-57 0 -100 43t-43 101t43 101t101 43t101 -43t43 -100t-43 -100t-100 -43zM13 -4l1 13q78 41 99 78t21 148v415q0 96 -14 149q-13 50 -32 69
q-18 19 -74 53v14q219 17 435 81v-780q0 -111 21 -148t98 -78v-14h-555z" />
    <glyph glyph-name="ntilde" unicode="&#xf1;" horiz-adv-x="1239" 
d="M459 1235l-1 -1q-58 0 -119 -59l-16 4q26 125 81 173q56 48 165 48q16 0 115 -33q108 -35 129 -35q51 0 75 11q22 11 60 48l21 -5q-37 -219 -213 -219q-59 0 -146 31q-112 37 -151 37zM1105 239h1q0 -111 21 -148t99 -78v-14h-555v14q79 41 102 78q23 38 23 147v141v283
q0 98 -42 146t-108 48q-102 0 -196 -129v-489q0 -110 21 -148t96 -78v-14h-553v14q78 40 99 78t21 148v417q0 135 -21 180q-21 46 -99 92v14q209 12 428 78v-225q146 221 360 221q51 0 99 -15q49 -15 96 -46q48 -31 78 -95q30 -63 30 -151v-469z" />
    <glyph glyph-name="ograve" unicode="&#xf2;" horiz-adv-x="1150" 
d="M662 1128l1 -1q-168 162 -328 328h317q8 -143 30 -327h-20zM576 -21h1q-241 0 -384 135q-142 135 -142 370q0 240 144 386t389 146q238 0 379 -138t141 -373q0 -241 -144 -383q-145 -143 -384 -143zM624 32l-3 -2q67 0 114 72q46 71 46 218q0 84 -13 179q-14 103 -40 207
q-27 108 -79 181t-120 73t-114 -73q-47 -74 -47 -216q0 -82 13 -180q13 -101 42 -208t81 -179t120 -72z" />
    <glyph glyph-name="oacute" unicode="&#xf3;" horiz-adv-x="1150" 
d="M500 1128h-21q23 201 29 328h319q-153 -160 -327 -328zM575 -20h1q-242 0 -384 135t-142 370q0 241 144 386q144 146 389 146q238 0 379 -138t141 -373q0 -240 -144 -383q-145 -143 -384 -143zM623 33l-3 -2q68 0 114 72q46 71 46 218q0 84 -13 179q-14 103 -40 207
q-27 108 -79 181t-120 73t-114 -73q-47 -74 -47 -216q0 -82 13 -180q13 -101 42 -208t81 -179q53 -72 120 -72z" />
    <glyph glyph-name="ocircumflex" unicode="&#xf4;" horiz-adv-x="1150" 
d="M319 1114l-12 9q55 75 116 162q75 107 144 198h17q158 -234 258 -359l-11 -10l-256 150zM575 -21h1q-242 0 -384 135t-142 370q0 240 144 386t389 146q238 0 379 -138t141 -373q0 -241 -144 -383q-145 -143 -384 -143zM623 32l-3 -2q68 0 114 72q46 71 46 218
q0 84 -13 179q-14 103 -40 207q-27 108 -79 181t-120 73t-114 -73q-47 -74 -47 -216q0 -82 13 -180q13 -101 42 -208t81 -179q53 -72 120 -72z" />
    <glyph glyph-name="otilde" unicode="&#xf5;" horiz-adv-x="1150" 
d="M887 1391l19 -6q-38 -219 -213 -219q-58 0 -145 31q-114 37 -153 37q-58 0 -117 -59l-17 4q26 125 81 173t166 48q16 0 115 -33q108 -35 129 -35q51 0 75 11q23 11 60 48zM574 -21h1q-241 0 -384 135q-142 135 -142 370q0 240 144 386t389 146q238 0 379 -138t141 -373
q0 -241 -144 -383q-145 -143 -384 -143zM622 32l-3 -2q67 0 114 72q46 71 46 218q0 84 -13 179q-14 103 -40 207q-27 108 -79 181t-120 73t-114 -73q-47 -74 -47 -216q0 -82 13 -180q13 -101 42 -208t81 -179t120 -72z" />
    <glyph glyph-name="odieresis" unicode="&#xf6;" horiz-adv-x="1150" 
d="M389 1143l-2 -2q-57 0 -100 43t-43 100q0 58 43 101q44 44 100 44q58 0 102 -43q45 -44 45 -100q0 -57 -43 -100t-102 -43zM757 1141v-2q-60 0 -102 43q-42 44 -42 100q0 58 43 101q44 44 101 44q58 0 101 -43t43 -100q0 -56 -42 -100q-42 -43 -102 -43zM572 -24h1
q-241 0 -384 135q-142 135 -142 370q0 241 144 386q144 146 389 146q238 0 379 -138t141 -373q0 -240 -144 -383q-145 -143 -384 -143zM620 29l-3 -2q67 0 114 72q46 71 46 218q0 84 -13 179q-14 103 -40 207q-27 108 -79 181t-120 73t-114 -73q-47 -74 -47 -216
q0 -82 13 -180q13 -101 42 -208t81 -179t120 -72z" />
    <glyph glyph-name="divide" unicode="&#xf7;" horiz-adv-x="886" 
d="M442 840l-1 -1q-46 0 -82 36t-36 84q0 47 36 82q37 35 83 35q47 0 81 -34q35 -35 35 -82t-35 -84q-35 -36 -81 -36zM808 722v-64h-727v64h727zM435 292v-2q-46 0 -83 35q-36 35 -36 82t36 82q37 35 83 35q47 0 81 -34q35 -35 35 -82t-35 -82q-34 -34 -81 -34z" />
    <glyph glyph-name="oslash" unicode="&#xf8;" horiz-adv-x="1150" 
d="M918 915l-1 -1q184 -135 184 -409q0 -241 -144 -383q-145 -143 -384 -143q-179 0 -301 73l-100 -135h-57l119 160q-185 135 -187 407q0 240 144 386t383 146q172 0 303 -74l86 115h59zM368 673v-1q0 -170 47 -355l305 412q-70 229 -192 231q-68 0 -114 -72
q-46 -71 -46 -215zM620 31v-1q71 0 116 72t45 215q0 167 -45 355l-307 -412q73 -229 191 -229z" />
    <glyph glyph-name="ugrave" unicode="&#xf9;" horiz-adv-x="1234" 
d="M705 1128l1 -1q-168 162 -328 328h317q7 -143 30 -327h-20zM1105 251l2 -3q0 -98 21 -129q21 -32 98 -59v-14l-424 -78v209q-52 -78 -145 -142q-92 -64 -214 -64q-116 0 -210 71q-93 70 -93 237v374q0 130 -22 177q-22 48 -99 93v14q217 17 435 81q0 -112 -3 -348
t-3 -345q0 -98 43 -147t109 -49q100 0 193 107v419q0 131 -21 177t-99 93v14q213 13 432 78v-766z" />
    <glyph glyph-name="uacute" unicode="&#xfa;" horiz-adv-x="1234" 
d="M870 1456q-153 -158 -327 -328h-21q23 201 29 328h319zM1104 252l2 -3q0 -97 21 -129t98 -59v-14l-424 -78v209q-52 -78 -145 -142q-92 -64 -214 -64q-116 0 -210 71q-93 71 -93 237v374q0 130 -22 177q-23 48 -99 93v14q218 16 435 81q0 -113 -3 -348t-3 -345
q0 -98 43 -147t109 -49q100 0 193 107v419q0 130 -21 177t-99 93v14q213 14 432 78v-766z" />
    <glyph glyph-name="ucircumflex" unicode="&#xfb;" horiz-adv-x="1234" 
d="M618 1264l-256 -151l-12 10q55 75 116 162q75 107 144 198h17q158 -234 258 -359l-11 -10zM1104 251l2 -3q0 -98 21 -129q21 -32 98 -59v-14l-424 -78v209q-52 -78 -145 -142q-92 -64 -214 -64q-116 0 -210 71q-93 70 -93 237v374q0 130 -22 177q-23 48 -99 93v14
q218 17 435 81q0 -112 -3 -348t-3 -345q0 -98 43 -147t109 -49q100 0 193 107v419q0 131 -21 177t-99 93v14q213 13 432 78v-766z" />
    <glyph glyph-name="udieresis" unicode="&#xfc;" horiz-adv-x="1234" 
d="M432 1143l-2 -2q-57 0 -100 43t-43 100q0 58 43 101q44 44 100 44q58 0 102 -43q45 -44 45 -100q0 -57 -43 -100t-102 -43zM800 1141l-2 -2q-57 0 -100 43t-43 100q0 58 43 101q44 44 101 44q58 0 101 -43t43 -100t-43 -100t-100 -43zM1099 248l2 -3q0 -97 21 -129
t98 -59v-14l-424 -78v209q-52 -78 -145 -142q-92 -64 -214 -64q-116 0 -210 71q-93 71 -93 237v374q0 130 -22 177q-22 48 -99 93v14q217 16 435 81q0 -113 -3 -348t-3 -345q0 -98 43 -147t109 -49q100 0 193 107v419q0 130 -21 177t-99 93v14q213 14 432 78v-766z" />
    <glyph glyph-name="yacute" unicode="&#xfd;" horiz-adv-x="1112" 
d="M838 1456q-160 -166 -328 -328h-21q23 201 29 328h320zM774 989l341 -1v-14q-72 -51 -106 -97q-35 -47 -72 -135q-301 -698 -342 -777q-77 -155 -153 -241q-74 -85 -176 -156l-149 196l6 13l16 -2h23q274 0 357 168l29 57l-410 829q-41 86 -137 146v14h592v-14
q-103 -57 -105 -119q0 -25 23 -76l201 -426q124 278 171 410q12 32 12 57q0 76 -121 154v14z" />
    <glyph glyph-name="ydieresis" unicode="&#xff;" horiz-adv-x="1112" 
d="M401 1143l-1 -2q-57 0 -100 43t-43 100q0 58 43 101q44 44 101 44q58 0 101 -43q44 -44 44 -100q0 -57 -43 -100t-102 -43zM771 1141v-2q-59 0 -101 43q-42 44 -42 100q0 58 43 101q44 44 100 44q57 0 100 -43t43 -100q0 -56 -42 -100q-42 -43 -101 -43zM773 985l341 -1
v-14q-72 -51 -106 -97q-34 -47 -72 -135q-302 -698 -342 -777q-77 -155 -153 -241q-74 -85 -176 -156l-149 196l6 13l16 -2h23q275 0 357 168l29 57l-410 829q-41 86 -137 146v14h592v-14q-103 -57 -105 -119q0 -25 23 -76l201 -426q124 278 171 410q12 32 12 57
q0 76 -121 154v14z" />
    <glyph glyph-name="Amacron" unicode="&#x100;" horiz-adv-x="1486" 
d="M1034 1739v-154h-567v154h567zM1305 207l1 1q19 -51 32 -77q12 -23 44 -54q31 -29 89 -63v-14h-667v14q80 39 110 69t30 69q0 38 -33 132l-73 206h-463l-17 -47q-63 -185 -63 -246q0 -59 36 -99q36 -41 124 -84v-14h-435v14q106 85 156 167q50 81 111 249l286 795
l-73 143q191 72 307 154zM411 589h393l-197 555z" />
    <glyph glyph-name="amacron" unicode="&#x101;" horiz-adv-x="1144" 
d="M870 1337v-157h-548v157h548zM883 -20l4 -6q-109 0 -153 66t-39 152h-2q-45 -86 -139 -150t-219 -64t-200 66t-75 170q0 151 164 255q163 103 473 183l4 162q2 59 -27 104q-28 45 -90 45q-92 0 -146 -99q-53 -98 -73 -234l-10 -2l-217 131q56 105 178 179q123 75 305 75
q114 0 195 -32q80 -31 117 -87q38 -56 51 -112q13 -57 12 -121l-10 -486q0 -34 12 -50.5t37 -15.5q55 0 90 81l17 -8q-27 -85 -93 -143q-67 -59 -166 -59zM510 150l-1 -1q97 0 180 102l8 356q-311 -96 -311 -303q0 -74 34 -114t90 -40z" />
    <glyph glyph-name="Abreve" unicode="&#x102;" horiz-adv-x="1486" 
d="M750 1559h-2q-236 0 -267 325h19q27 -80 99 -125t150 -45q76 0 148 45t98 125h19q-33 -325 -264 -325zM1303 207l1 1q19 -51 32 -77q12 -23 44 -54q31 -29 89 -63v-14h-667v14q80 39 110 69t30 69q0 38 -33 132l-73 206h-463l-17 -47q-63 -185 -63 -246q0 -59 36 -99
q36 -41 124 -84v-14h-435v14q106 85 156 167q50 81 111 249l286 795l-73 143q191 72 307 154zM409 589h393l-197 555z" />
    <glyph glyph-name="abreve" unicode="&#x103;" horiz-adv-x="1144" 
d="M838 1460h16q-31 -346 -265 -346t-264 346h18q27 -84 99 -132t148 -48q77 0 149 48t99 132zM883 -20l4 -6q-109 0 -153 66t-39 152h-2q-45 -86 -139 -150t-219 -64t-200 66t-75 170q0 151 164 255q163 103 473 183l4 162q2 59 -27 104q-28 45 -90 45q-92 0 -146 -99
q-53 -98 -73 -234l-10 -2l-217 131q56 105 178 179q123 75 305 75q114 0 195 -32q80 -31 117 -87q38 -56 51 -112q13 -57 12 -121l-10 -486q0 -34 12 -50.5t37 -15.5q55 0 90 81l17 -8q-27 -85 -93 -143q-67 -59 -166 -59zM510 150l-1 -1q97 0 180 102l8 356
q-311 -96 -311 -303q0 -74 34 -114t90 -40z" />
    <glyph glyph-name="Aogonek" unicode="&#x104;" horiz-adv-x="1486" 
d="M1290 0l1 1q-125 -102 -125 -201q0 -41 24 -62t62 -21q76 0 135 60l15 -11q-34 -70 -111 -114q-76 -43 -157 -43q-76 0 -123 38t-47 96q0 140 262 258h-422v14q80 39 110 69t30 69q0 37 -33 132l-73 206h-463l-17 -47q-63 -184 -63 -246q0 -58 36 -99t124 -84v-14h-435
v14q106 85 156 167q50 81 111 249l286 795l-73 143q191 72 307 154l498 -1315q19 -51 32 -77q12 -23 44 -54q31 -29 89 -63v-14h-180zM411 589h393l-197 555z" />
    <glyph glyph-name="aogonek" unicode="&#x105;" horiz-adv-x="1144" 
d="M958 -279v-7q76 0 136 60l14 -10q-34 -70 -110 -114t-157 -44q-76 0 -123 38t-47 99q0 123 207 230q-104 2 -146 68q-42 67 -38 150h-2q-45 -86 -139 -150t-219 -64t-200 66t-75 170q0 151 164 255q163 103 473 183l4 162q2 59 -27 104t-90 45q-92 0 -146 -99
q-53 -98 -73 -234l-10 -2l-217 131q56 105 178 179q123 75 305 75q114 0 195 -32q79 -32 117 -87q38 -56 51 -112q13 -57 12 -121l-10 -486q0 -34 12 -50.5t37 -15.5q56 0 90 81l17 -8q-43 -129 -148 -178q-121 -100 -121 -199q0 -41 24 -62t62 -21zM686 251l7 355
q-311 -96 -311 -303q0 -74 34 -114t90 -40q98 0 180 102z" />
    <glyph glyph-name="Cacute" unicode="&#x106;" horiz-adv-x="1413" 
d="M731 1550l-21 1q22 181 30 327h318q-186 -194 -327 -328zM790 1431l-1 -2q-139 0 -249 -171q-109 -170 -109 -513q0 -347 111 -528t251 -181q118 0 246 124q130 125 240 298h14l-41 -418q-240 -68 -474 -68q-148 0 -274 43q-128 44 -229 130q-103 88 -161 234t-58 336
q0 369 205 573t522 204q192 0 469 -68l41 -411h-14q-277 418 -489 418z" />
    <glyph glyph-name="cacute" unicode="&#x107;" horiz-adv-x="997" 
d="M446 1128h-20q23 201 29 328h319q-160 -166 -328 -328zM543 -20l-1 -2q-206 0 -349 139q-144 139 -144 384q0 241 141 377q142 137 341 137q140 0 240 -64q101 -65 159 -156l-207 -160l-12 6q-11 116 -60 218t-132 102q-78 0 -132 -93t-54 -247q0 -197 91 -315t243 -118
q188 0 284 191l17 -8q-27 -161 -132 -276t-293 -115z" />
    <glyph glyph-name="Ccircumflex" unicode="&#x108;" horiz-adv-x="1413" 
d="M541 1522l-13 12q148 202 279 389h16q144 -213 279 -389l-12 -12l-275 161zM791 1430l-1 -2q-140 0 -249 -171q-109 -170 -109 -513q0 -346 111 -528q111 -181 251 -181q118 0 246 124q130 125 240 298h14l-41 -418q-240 -68 -474 -68q-148 0 -274 43q-128 44 -229 130
q-103 88 -161 234t-58 336q0 369 205 573q206 204 522 204q192 0 469 -68l41 -411h-14q-277 418 -489 418z" />
    <glyph glyph-name="ccircumflex" unicode="&#x109;" horiz-adv-x="997" 
d="M268 1114l-13 9q55 75 116 162q80 114 145 198h16q160 -238 259 -359l-11 -10l-256 150zM542 -21l-1 -2q-206 0 -349 139q-144 140 -144 384q0 241 141 377q142 137 341 137q140 0 240 -64t159 -156l-207 -160l-12 6q-11 116 -60 218q-50 102 -132 102q-78 0 -132 -93
t-54 -247q0 -197 91 -315t243 -118q188 0 284 191l17 -8q-27 -160 -132 -276q-105 -115 -293 -115z" />
    <glyph glyph-name="Cdotaccent" unicode="&#x10a;" horiz-adv-x="1413" 
d="M809 1554v-1q-59 0 -101 42t-42 102q0 57 43 99q44 42 100 42q57 0 100 -42t43 -99q0 -59 -42 -101t-101 -42zM791 1429l-1 -2q-140 0 -249 -171q-109 -170 -109 -513q0 -347 111 -528t251 -181q118 0 246 124q130 125 240 298h14l-41 -418q-240 -68 -474 -68
q-148 0 -274 43q-128 44 -229 130q-103 88 -161 234t-58 336q0 369 205 573q206 204 522 204q192 0 469 -68l41 -411h-14q-277 418 -489 418z" />
    <glyph glyph-name="cdotaccent" unicode="&#x10b;" horiz-adv-x="997" 
d="M524 1128l-2 -2q-68 0 -117 48t-49 111q0 61 50 108t117 47q69 0 116 -46q48 -46 48 -108q0 -66 -48 -112q-47 -46 -115 -46zM540 -22l-1 -2q-206 0 -349 139q-144 139 -144 384q0 241 141 377q142 137 341 137q140 0 240 -64q100 -65 159 -156l-207 -160l-12 6
q-11 116 -60 218q-50 102 -132 102q-78 0 -132 -93t-54 -247q0 -197 91 -315t243 -118q188 0 284 191l17 -8q-27 -161 -132 -276t-293 -115z" />
    <glyph glyph-name="Ccaron" unicode="&#x10c;" horiz-adv-x="1413" 
d="M539 1927l274 -159l274 160l13 -12q-124 -166 -279 -390h-16q-156 225 -279 389zM791 1431l-1 -2q-140 0 -249 -171q-109 -170 -109 -513q0 -347 111 -528t251 -181q118 0 246 124q130 125 240 298h14l-41 -418q-240 -68 -474 -68q-148 0 -274 43q-128 44 -229 130
q-103 88 -161 234t-58 336q0 369 205 573q206 204 522 204q192 0 469 -68l41 -411h-14q-277 418 -489 418z" />
    <glyph glyph-name="ccaron" unicode="&#x10d;" horiz-adv-x="997" 
d="M258 1487l256 -148l256 150l10 -10q-102 -127 -258 -360h-16q-59 76 -145 197q-18 25 -44 61.5t-42.5 60t-28.5 39.5zM543 -18l-1 -2q-206 0 -349 139q-144 139 -144 384q0 241 141 377q142 137 341 137q140 0 240 -64q101 -65 159 -156l-207 -160l-12 6q-11 116 -60 218
t-132 102q-78 0 -132 -93t-54 -247q0 -197 91 -315t243 -118q188 0 284 191l17 -8q-27 -161 -132 -276t-293 -115z" />
    <glyph glyph-name="Dcaron" unicode="&#x10e;" horiz-adv-x="1525" 
d="M758 1526l-16 1q-150 217 -278 389l12 12l275 -160l274 160l12 -12q-125 -166 -279 -390zM624 1465l-2 1q420 0 632 -184q213 -184 213 -513q0 -330 -201 -549t-553 -219h-680v14q103 45 129 83t26 159v952q0 122 -25 159q-26 38 -129 83v14h590zM716 68l1 -1
q170 12 273 190q104 179 104 492q0 135 -21 242q-21 108 -52 174q-32 68 -81 116q-52 50 -88 71q-39 22 -96 36t-84 15q-18 1 -67 1h-69v-1239q0 -39 48 -66q47 -26 132 -31z" />
    <glyph glyph-name="dcaron" unicode="&#x10f;" horiz-adv-x="1200" 
d="M442 -20v1q-160 0 -277 131q-117 130 -117 374q0 253 128 392q128 138 297 138q161 0 279 -98v350q0 115 -119 180v14q227 16 432 78v-1329q0 -65 24 -91q24 -25 98 -57v-14l-426 -69l-2 182h-2q-45 -76 -129 -129q-85 -53 -186 -53zM1176 1025h-15l33 463h266zM571 99
h-2q95 0 183 117v444q-33 117 -88 201q-55 85 -130 85q-160 0 -160 -387q0 -211 51 -336q51 -124 146 -124z" />
    <glyph glyph-name="Dcroat" unicode="&#x110;" horiz-adv-x="1525" 
d="M623 1464l-2 1q420 0 632 -184q213 -185 213 -513q0 -330 -201 -549t-553 -219h-680v14q103 45 129 83t26 159v479h-92v60h92v413q0 122 -25 159q-26 38 -129 83v14h590zM715 67l1 -1q170 12 273 190q104 179 104 492q0 136 -21 242q-21 108 -52 174q-32 68 -81 116
q-52 50 -88 71q-39 23 -96 36t-84 15q-18 1 -67 1h-69v-606h211v-60h-211v-573q0 -39 48 -66q47 -26 132 -31z" />
    <glyph glyph-name="dcroat" unicode="&#x111;" horiz-adv-x="1200" 
d="M1067 211l1 1q0 -66 24 -91t98 -57v-14l-426 -69l-2 182h-2q-45 -77 -129 -129q-85 -53 -187 -53q-160 0 -277 131q-117 130 -117 374q0 253 128 392q128 138 297 138q161 0 279 -98v272h-254v59h254v19q0 115 -119 180v14q227 16 432 78v-291h115v-59h-115v-979z
M755 216l-2 444q-33 117 -88 201q-55 85 -130 85q-160 0 -160 -387q0 -211 51 -336q51 -124 146 -124q94 0 183 117z" />
    <glyph glyph-name="Emacron" unicode="&#x112;" horiz-adv-x="1318" 
d="M979 1739v-154h-631v154h631zM1212 420l12 1l-49 -420h-1145v14q103 45 129 83t26 159v952q0 122 -25 159q-26 38 -129 83v14h1073l37 -417h-15q-47 143 -155 248t-270 105h-165v-588h168q173 0 270 160h10v-400h-10q-41 79 -112 129q-73 51 -157 50l-168 -4v-586
q0 -43 57 -70t154 -27h63q125 0 230 105t171 250z" />
    <glyph glyph-name="emacron" unicode="&#x113;" horiz-adv-x="1044" 
d="M825 1337v-157h-549v157h549zM979 362l15 -7q-12 -59 -36 -113q-25 -57 -70 -119q-46 -64 -132 -103t-198 -39q-218 0 -364 140q-145 139 -145 375q0 231 141 375t366 144q117 0 207 -42q89 -42 136 -105q47 -64 68 -123q21 -60 21 -113v-25h-655v-28q0 -195 107 -290
t254 -95q200 -2 285 168zM523 962v1q-80 0 -128 -81q-47 -80 -58 -225l366 4q-1 45 -9 90t-27 96q-20 52 -57 83q-38 32 -87 32z" />
    <glyph glyph-name="Ebreve" unicode="&#x114;" horiz-adv-x="1318" 
d="M661 1538q-234 0 -265 346h19q27 -84 99 -132t147 -48q76 0 149 48q74 48 99 132h17q-31 -346 -265 -346zM1211 420l12 1l-49 -420h-1145v14q103 45 129 83t26 159v952q0 122 -25 159q-26 38 -129 83v14h1073l37 -417h-15q-47 143 -155 248t-270 105h-165v-588h168
q173 0 270 160h10v-400h-10q-41 79 -112 129q-73 51 -157 50l-168 -4v-586q0 -43 57 -70t154 -27h63q125 0 230 105t171 250z" />
    <glyph glyph-name="ebreve" unicode="&#x115;" horiz-adv-x="1044" 
d="M542 1114q-234 0 -264 346h18q27 -84 99 -132t147 -48q76 0 149 48t100 132h16q-31 -346 -265 -346zM978 362l15 -7q-12 -59 -36 -113q-25 -57 -70 -119q-46 -64 -132 -103q-85 -39 -198 -39q-218 0 -364 140q-145 139 -145 375q0 231 141 375t366 144q117 0 207 -42
q89 -42 136 -105q47 -64 68 -123q21 -60 21 -113v-25h-655v-28q0 -195 107 -290t254 -95q199 -2 285 168zM522 962v1q-80 0 -128 -81q-47 -80 -58 -225l366 4q-2 45 -9 90t-27 96q-20 52 -57 83q-38 32 -87 32z" />
    <glyph glyph-name="Edotaccent" unicode="&#x116;" horiz-adv-x="1318" 
d="M661 1554v-1q-60 0 -102 42t-42 102q0 57 43 99q44 42 101 42t101 -42q43 -42 43 -99q0 -59 -42 -101t-102 -42zM1211 419l12 1l-49 -420h-1145v14q103 45 129 83t26 159v952q0 122 -25 159q-26 38 -129 83v14h1073l37 -417h-15q-47 143 -155 248t-270 105h-165v-588h168
q173 0 270 160h10v-400h-10q-41 79 -112 129q-73 51 -157 50l-168 -4v-586q0 -43 57 -70t154 -27h63q125 0 230 105t171 250z" />
    <glyph glyph-name="edotaccent" unicode="&#x117;" horiz-adv-x="1044" 
d="M544 1128v-2q-68 0 -117 48t-49 111q0 62 49 108q50 47 117 47q69 0 116 -46q48 -46 48 -108q0 -66 -48 -112q-47 -46 -116 -46zM978 360l15 -7q-12 -59 -36 -113q-25 -57 -70 -119q-46 -64 -132 -103q-85 -39 -198 -39q-218 0 -364 140q-145 139 -145 375q0 231 141 375
t366 144q117 0 207 -42q89 -42 136 -105q47 -64 68 -123q21 -60 21 -113v-25h-655v-28q0 -195 107 -290t254 -95q199 -2 285 168zM522 960v1q-80 0 -128 -81q-47 -80 -58 -225l366 4q-2 45 -9 90t-27 96q-20 52 -57 83q-38 32 -87 32z" />
    <glyph glyph-name="Eogonek" unicode="&#x118;" horiz-adv-x="1318" 
d="M1001 0l-2 3q-52 -38 -87 -91q-36 -54 -36 -102q0 -37 24 -58t63 -21q72 0 133 55l14 -10q-34 -66 -109 -109q-74 -43 -157 -43q-77 0 -124 37q-48 37 -48 96q0 131 264 246h-905v14q103 45 129 83t26 159v952q0 122 -25 159q-26 38 -129 83v14h1073l37 -417h-15
q-47 143 -155 248t-270 105h-165v-588h168q173 0 270 160h10v-400h-10q-41 79 -112 129q-73 51 -157 50l-168 -4v-586q0 -43 57 -70t154 -27h63q124 0 230 104t170 249h15l-49 -420h-177z" />
    <glyph glyph-name="eogonek" unicode="&#x119;" horiz-adv-x="1044" 
d="M754 16h-2q-55 -37 -97 -96q-42 -58 -42 -114q0 -41 25 -62q26 -21 61 -21q76 0 136 60l14 -10q-34 -70 -110 -114t-157 -44q-76 0 -123 38t-47 96q0 123 213 236q-33 -4 -66 -4q-218 0 -364 140q-145 139 -145 375q0 231 141 375t366 144q117 0 207 -42q89 -42 136 -105
q47 -64 68 -123q21 -60 21 -113v-25h-655v-28q0 -195 107 -290t254 -95q200 0 285 169l14 -8q-50 -251 -240 -339zM520 961v1q-80 0 -128 -81q-47 -80 -58 -225l366 4q-2 45 -9 90t-27 96q-20 52 -57 83q-38 32 -87 32z" />
    <glyph glyph-name="Ecaron" unicode="&#x11a;" horiz-adv-x="1318" 
d="M674 1526l-16 1q-150 217 -278 389l12 12l275 -160l274 160l12 -12q-125 -166 -279 -390zM1213 421l12 1l-49 -420h-1145v14q103 45 129 83t26 159v952q0 122 -25 159q-26 38 -129 83v14h1073l37 -417h-15q-47 143 -155 248t-270 105h-165v-588h168q173 0 270 160h10
v-400h-10q-41 79 -112 129q-73 51 -157 50l-168 -4v-586q0 -43 57 -70t154 -27h63q125 0 230 105t171 250z" />
    <glyph glyph-name="ecaron" unicode="&#x11b;" horiz-adv-x="1044" 
d="M543 1118l-17 1q-59 76 -145 197q-18 25 -44 61.5t-42.5 60t-28.5 39.5l13 10l256 -150l256 150l10 -10q-100 -125 -258 -359zM979 363l15 -7q-12 -59 -36 -113q-25 -57 -70 -119q-46 -64 -132 -103t-198 -39q-218 0 -364 140q-145 139 -145 375q0 231 141 375t366 144
q117 0 207 -42q89 -42 136 -105q47 -64 68 -123q21 -60 21 -113v-25h-655v-28q0 -195 107 -290t254 -95q200 -1 285 168zM523 963v1q-80 0 -128 -81q-47 -80 -58 -225l366 4q-1 45 -9 90t-27 96q-20 52 -57 83q-38 32 -87 32z" />
    <glyph glyph-name="Gcircumflex" unicode="&#x11c;" horiz-adv-x="1560" 
d="M553 1522l-12 12q159 217 278 389h17q140 -207 278 -389l-12 -12l-275 161zM733 -27l-4 -4q-125 0 -240 42t-215 128q-99 85 -159 234t-60 342q0 369 210 570t550 201q131 0 269 -27q141 -28 213 -55l39 -420h-14q-111 188 -244 314q-136 128 -272 128q-156 0 -265 -174
q-109 -173 -109 -522q0 -354 114 -524t273 -170q83 0 153 43q71 44 71 145v265q0 122 -52 183q-53 62 -189 63v27h672v-16q-62 -44 -79 -83q-16 -36 -16 -156v-481h-14q-88 61 -174 61q-46 0 -187 -57t-271 -57z" />
    <glyph glyph-name="gcircumflex" unicode="&#x11d;" horiz-adv-x="1073" 
d="M500 1264l-256 -151l-13 10q55 75 116 162q80 114 145 198h16q158 -234 258 -359l-10 -10zM784 159l-5 -4q271 -72 273 -269q0 -112 -94 -187q-95 -75 -214 -102q-120 -27 -249 -27q-181 0 -330 54t-149 152q0 46 35 86q34 39 89 63q51 23 85 34q31 11 60 18
q-207 49 -207 180q0 74 68 131q66 56 179 82q-272 66 -273 307q0 161 118 249t298 88h41q139 0 207 47t77 111l227 -76v-8q-95 -119 -297 -119q-69 0 -119 10v-8q342 -66 342 -309q0 -141 -118 -225t-327 -84q-63 0 -113 8q-84 -18 -84 -65q0 -38 45 -45q1 0 87 -18
q31 -7 97 -20.5t96 -19.5q121 -25 155 -34zM470 964h-2q-55 0 -91 -51t-36 -148q0 -73 18 -154q18 -79 65 -148q47 -68 111 -68q55 0 90 48q35 49 35 144q0 127 -51 252t-139 125zM525 -378l-1 -2q118 0 199 37q82 37 82 108q0 47 -37 81q-38 35 -100 50q-43 10 -332 66
q-106 -67 -106 -164q0 -86 83 -131t212 -45z" />
    <glyph glyph-name="Gbreve" unicode="&#x11e;" horiz-adv-x="1560" 
d="M1069 1884h15q-31 -346 -264 -346t-264 346h18q27 -84 99 -132t148 -48q77 0 149 48t99 132zM732 -27l-4 -4q-124 0 -240 42q-115 42 -215 128q-99 85 -159 234t-60 342q0 369 210 570t550 201q131 0 269 -27q141 -28 213 -55l39 -420h-14q-111 188 -244 314
q-136 128 -272 128q-155 0 -265 -174q-109 -173 -109 -522q0 -354 114 -524t273 -170q83 0 153 43q71 44 71 145v265q0 122 -52 183q-52 62 -189 63v27h672v-16q-62 -44 -79 -83q-16 -36 -16 -156v-481h-14q-88 61 -174 61q-46 0 -187 -57t-271 -57z" />
    <glyph glyph-name="gbreve" unicode="&#x11f;" horiz-adv-x="1073" 
d="M499 1114q-234 0 -264 346h18q27 -84 99 -132t147 -48t149 48q73 48 100 132h16q-31 -346 -265 -346zM783 160l-5 -4q271 -72 273 -269q0 -112 -94 -187q-95 -75 -214 -102q-120 -27 -249 -27q-182 0 -330 54q-149 54 -149 152q0 46 35 86q34 39 89 63q51 23 85 34
q32 10 60 18q-207 50 -207 180q0 74 68 131q66 56 179 82q-272 66 -273 307q0 161 118 249t298 88h41q139 0 207 47t77 111l227 -76v-8q-95 -119 -297 -119q-69 0 -119 10v-8q342 -66 342 -309q0 -141 -118 -225q-119 -84 -327 -84q-63 0 -113 8q-84 -18 -84 -65
q0 -37 45 -45q2 0 87 -18q31 -7 97 -20.5t96 -19.5q121 -25 155 -34zM469 965h-2q-55 0 -91 -51t-36 -148q0 -73 18 -154q18 -79 65 -148q47 -68 111 -68q56 0 90 48q35 49 35 144q0 128 -51 252q-51 125 -139 125zM524 -377l-1 -2q118 0 199 37q82 37 82 108q0 47 -37 81
q-38 35 -100 50q-43 10 -332 66q-106 -67 -106 -164q0 -86 83 -131q82 -45 212 -45z" />
    <glyph glyph-name="Gdotaccent" unicode="&#x120;" horiz-adv-x="1560" 
d="M823 1554l-2 -1q-57 0 -100 42t-43 102q0 57 43 99t101 42t101 -42t43 -99q0 -59 -43 -101t-100 -42zM730 -28l-4 -4q-124 0 -240 42q-115 42 -215 128q-99 86 -159 234t-60 342q0 369 210 570t550 201q131 0 269 -27q141 -28 213 -55l39 -420h-14q-111 188 -244 314
q-136 128 -272 128q-155 0 -265 -174q-109 -173 -109 -522q0 -355 114 -524q114 -170 273 -170q83 0 153 43q71 44 71 145v265q0 122 -52 183t-189 63v27h672v-16q-62 -44 -79 -83q-16 -36 -16 -156v-481h-14q-88 61 -174 61q-46 0 -187 -57t-271 -57z" />
    <glyph glyph-name="gdotaccent" unicode="&#x121;" horiz-adv-x="1073" 
d="M499 1151l-2 -1q-57 0 -100 43t-43 101q0 57 43 99q44 42 101 42q58 0 101 -42t43 -99t-43 -100t-100 -43zM781 159l-5 -4q271 -72 273 -269q0 -112 -94 -187q-95 -75 -214 -102q-120 -27 -249 -27q-182 0 -330 54q-149 54 -149 152q0 46 35 86q34 39 89 63q51 23 85 34
q32 11 60 18q-207 49 -207 180q0 74 68 131q66 56 179 82q-272 66 -273 307q0 161 118 249t298 88h41q139 0 207 47t77 111l227 -76v-8q-95 -119 -297 -119q-69 0 -119 10v-8q342 -66 342 -309q0 -141 -118 -225q-119 -84 -327 -84q-63 0 -113 8q-84 -18 -84 -65
q0 -38 45 -45q2 0 87 -18q31 -7 97 -20.5t96 -19.5q121 -25 155 -34zM467 964h-2q-55 0 -91 -51t-36 -148q0 -73 18 -154q18 -79 65 -148q47 -68 111 -68q56 0 90 48q35 49 35 144q0 127 -51 252t-139 125zM522 -378l-1 -2q118 0 199 37q82 37 82 108q0 47 -37 81
q-38 35 -100 50q-43 10 -332 66q-106 -67 -106 -164q0 -86 83 -131q82 -45 212 -45z" />
    <glyph glyph-name="uni0122" unicode="&#x122;" horiz-adv-x="1560" 
d="M1475 764l-4 -21q-62 -44 -79 -83q-16 -36 -16 -156v-481h-14q-88 61 -174 61q-46 0 -187 -57t-271 -57q-124 0 -240 42q-117 43 -215 127q-99 85 -159 234t-60 342q0 371 210 572t550 201q131 0 269 -27q141 -28 213 -55l39 -420h-14q-111 188 -244 314
q-136 128 -272 128q-156 0 -265 -174q-109 -173 -109 -522q0 -354 114 -524t273 -170q83 0 153 43q71 44 71 145v265q0 122 -52 183q-52 62 -189 63v27h672zM813 -71v-1q62 0 108 -37t46 -105q0 -82 -69 -175q-70 -94 -202 -140l-8 16q112 97 146 205h-19q-63 0 -107 33
t-44 83q0 49 44 85t105 36z" />
    <glyph glyph-name="uni0123" unicode="&#x123;" horiz-adv-x="1073" 
d="M477 1130l-3 3q-60 0 -106 38q-45 37 -45 105q0 84 69 176q69 91 200 138l8 -16q-112 -97 -143 -205h16q64 0 108 -34q45 -35 45 -84q0 -51 -44 -86t-105 -35zM780 163l-5 -4q271 -72 273 -269q0 -112 -94 -187q-95 -75 -214 -102q-120 -27 -249 -27q-181 0 -330 54
t-149 152q0 46 35 86q34 39 89 63q51 23 85 34q31 11 60 18q-207 49 -207 180q0 74 68 131q66 56 179 82q-272 66 -273 307q0 161 118 249t298 88h41q139 0 207 47t77 111l227 -76v-8q-95 -119 -297 -119q-69 0 -119 10v-8q342 -66 342 -309q0 -141 -118 -225t-327 -84
q-63 0 -113 8q-84 -18 -84 -65q0 -38 45 -45q1 0 87 -18q31 -7 97 -20.5t96 -19.5q121 -25 155 -34zM466 968h-2q-55 0 -91 -51t-36 -148q0 -73 18 -154q18 -79 65 -148q47 -68 111 -68q55 0 90 48q35 49 35 144q0 127 -51 252t-139 125zM521 -374l-1 -2q118 0 199 37
q82 37 82 108q0 47 -37 81q-38 35 -100 50q-43 10 -332 66q-106 -67 -106 -164q0 -86 83 -131t212 -45z" />
    <glyph glyph-name="Hcircumflex" unicode="&#x124;" horiz-adv-x="1632" 
d="M817 1683l-274 -161l-13 12q148 202 279 389h16q144 -213 279 -389l-12 -12zM1604 1450h-4q-103 -45 -129 -83t-26 -159v-952q0 -121 26 -159t131 -83v-14h-660v14q103 45 129 83t26 159v494h-563v-494q0 -121 26 -159t129 -83v-14h-659v14q103 45 129 83t26 159v952
q0 122 -25 159q-26 38 -129 83v14h659v-14q-103 -45 -129 -83q-25 -37 -25 -159v-360h563v360q0 122 -25 159q-26 39 -130 83v14h660v-14z" />
    <glyph glyph-name="hcircumflex" unicode="&#x125;" horiz-adv-x="1241" 
d="M618 1704l-245 -143l-11 10q89 121 250 350h15q157 -229 250 -350l-11 -10zM1108 240h2q0 -110 21 -148t99 -78v-14h-555v14q79 41 101 78q23 38 23 148q0 72 1 212t1 212q0 95 -44 145q-43 49 -110 49q-109 0 -195 -129v-489q0 -110 21 -148t96 -78v-14h-553v14
q78 40 99 78t21 148v925q0 96 -14 149q-13 50 -32 69q-15 15 -74 55v14q230 16 435 78v-729q143 215 354 215q51 0 99 -15q49 -15 96 -46q48 -31 78 -95q30 -63 30 -151v-469z" />
    <glyph glyph-name="Hbar" unicode="&#x126;" horiz-adv-x="1632" 
d="M1604 1450h-4q-103 -45 -129 -83t-26 -159v-108h131v-56h-131v-788q0 -121 26 -159t131 -83v-14h-660v14q103 45 129 83t26 159v494h-563v-494q0 -121 26 -159t129 -83v-14h-659v14q103 45 129 83t26 159v788h-131v56h131v108q0 122 -25 159q-26 38 -129 83v14h659v-14
q-103 -45 -129 -83q-25 -37 -25 -159v-108h563v108q0 122 -25 159q-26 39 -130 83v14h660v-14zM1096 848v196h-563v-196h563z" />
    <glyph glyph-name="hbar" unicode="&#x127;" horiz-adv-x="1241" 
d="M1108 240l3 -1q0 -111 21 -148t99 -78v-14h-555v14q79 41 101 78q23 38 23 148q0 72 1 212t1 212q0 95 -44 145q-43 49 -110 49q-110 0 -195 -129v-489q0 -111 21 -148t96 -78v-14h-553v14q78 41 99 78t21 148v948h-112v59h110q-5 59 -21 95q-17 37 -34 51t-64 46v14
q230 16 435 78v-283h229v-59h-229v-387q143 215 354 215q51 0 99 -15q49 -15 96 -46q48 -31 78 -95q30 -63 30 -151v-469z" />
    <glyph glyph-name="Itilde" unicode="&#x128;" horiz-adv-x="720" 
d="M707 1812l22 -6q-27 -134 -87 -183q-59 -49 -179 -49q-24 0 -129 31q-127 37 -156 37q-46 0 -75 -12q-27 -12 -66 -47l-19 4q23 124 84 179q62 56 168 56q45 0 144 -31q120 -37 141 -37q62 0 85 10t67 48zM33 -2l-2 14q103 45 129 83t26 159v952q0 122 -25 159
q-26 38 -129 83v14h659v-14q-103 -45 -129 -83q-25 -37 -25 -159v-952q0 -121 26 -159t129 -83v-14h-659z" />
    <glyph glyph-name="itilde" unicode="&#x129;" horiz-adv-x="583" 
d="M582 1399l21 -5q-37 -219 -213 -219q-56 0 -145 30q-114 37 -153 37q-58 0 -119 -59l-16 4q26 125 81 173t166 48q16 0 114 -33q108 -35 129 -35q51 0 75 11q22 11 60 48zM17 -1l1 13q78 40 99 78t21 148v415q0 96 -14 149q-13 50 -32 69q-18 19 -74 53v14q219 16 435 81
v-780q0 -111 21 -148t98 -78v-14h-555z" />
    <glyph glyph-name="Imacron" unicode="&#x12a;" horiz-adv-x="720" 
d="M682 1739v-154h-631v154h631zM33 0l-2 14q103 45 129 83t26 159v952q0 122 -25 159q-26 38 -129 83v14h659v-14q-103 -45 -129 -83q-25 -37 -25 -159v-952q0 -121 26 -159t129 -83v-14h-659z" />
    <glyph glyph-name="imacron" unicode="&#x12b;" horiz-adv-x="583" 
d="M551 1346v-158h-549v158h549zM16 0l1 13q78 41 99 78t21 148v415q0 96 -14 149q-13 50 -32 69q-19 18 -74 53v14q219 17 435 81v-780q0 -110 21 -148q21 -37 98 -78v-14h-555z" />
    <glyph glyph-name="Ibreve" unicode="&#x12c;" horiz-adv-x="720" 
d="M610 1884h19q-31 -346 -265 -346t-265 346h19q27 -84 99 -132t147 -48t147 48t99 132zM35 0l-2 14q103 45 129 83t26 159v952q0 122 -25 159q-26 38 -129 83v14h659v-14q-103 -45 -129 -83q-25 -37 -25 -159v-952q0 -121 26 -159t129 -83v-14h-659z" />
    <glyph glyph-name="ibreve" unicode="&#x12d;" horiz-adv-x="583" 
d="M518 1468h19q-31 -346 -265 -346t-265 346h19q27 -84 99 -132t147 -48t147 48t99 132zM18 0l1 13q78 41 99 78t21 148v415q0 96 -14 149q-13 50 -32 69q-19 18 -74 53v14q219 17 435 81v-780q0 -110 21 -148q21 -37 98 -78v-14h-555z" />
    <glyph glyph-name="Iogonek" unicode="&#x12e;" horiz-adv-x="720" 
d="M692 1450h-2q-103 -45 -129 -83q-25 -37 -25 -159v-952q0 -121 26 -159t129 -83v-14h-205q-50 -38 -87 -91q-38 -55 -38 -102q0 -37 24 -58t63 -21q74 0 135 55l14 -10q-34 -66 -109 -109q-74 -43 -157 -43q-77 0 -124 37q-48 38 -48 96q0 130 264 246h-391v14
q103 45 129 83t26 159v952q0 122 -25 159q-26 38 -129 83v14h659v-14z" />
    <glyph glyph-name="iogonek" unicode="&#x12f;" horiz-adv-x="583" 
d="M270 1137l-2 -2q-67 0 -117 47q-49 46 -49 110q0 61 50 108t117 47q69 0 116 -46q48 -47 48 -108q0 -66 -48 -111t-115 -45zM427 -2l2 -1q-125 -102 -125 -201q0 -41 24 -62t62 -21q76 0 135 60l15 -11q-34 -70 -111 -114q-76 -43 -159 -43q-76 0 -123 38t-47 96
q0 139 263 258h-349v14q78 41 99 78t21 148v415q0 96 -14 149q-13 50 -32 69q-18 18 -74 53v14q219 17 435 81v-780q0 -110 21 -148q21 -37 98 -78v-14h-141z" />
    <glyph glyph-name="Idotaccent" unicode="&#x130;" horiz-adv-x="720" 
d="M364 1554l-2 -1q-56 0 -100 42q-43 42 -43 102q0 57 43 99q44 42 101 42t101 -42q43 -42 43 -99q0 -59 -43 -101q-44 -42 -100 -42zM30 -1l-2 14q103 45 129 83t26 159v952q0 122 -25 159q-26 38 -129 83v14h659v-14q-103 -45 -129 -83q-25 -37 -25 -159v-952
q0 -121 26 -159t129 -83v-14h-659z" />
    <glyph glyph-name="dotlessi" unicode="&#x131;" horiz-adv-x="583" 
d="M16 0l1 13q78 41 99 78t21 148v415q0 96 -14 149q-13 50 -32 69q-19 18 -74 53v14q219 17 435 81v-780q0 -110 21 -148q21 -37 98 -78v-14h-555z" />
    <glyph glyph-name="Jcircumflex" unicode="&#x134;" horiz-adv-x="712" 
d="M84 1522l-12 12q159 217 278 389h17q140 -207 278 -389l-12 -12l-275 161zM35 -268l-9 19q160 94 159 283v1173q0 122 -25 159q-26 38 -129 83v14h659v-14q-103 -45 -129 -83q-25 -37 -25 -159v-956q0 -102 -32 -189q-31 -85 -80 -138t-118 -93q-73 -42 -132 -62
q-58 -20 -139 -37z" />
    <glyph glyph-name="jcircumflex" unicode="&#x135;" horiz-adv-x="571" 
d="M18 1122l-12 11q47 65 116 161q82 114 144 197h17q154 -228 258 -358l-11 -11l-256 150zM-45 -428l-5 15q102 55 144 138t42 237v694q0 96 -15 147t-33 69q-19 19 -72 53v14q217 16 433 81v-877q0 -475 -494 -571z" />
    <glyph glyph-name="uni0136" unicode="&#x136;" horiz-adv-x="1554" 
d="M537 256h-2q0 -121 26 -159t129 -83v-14h-659v14q103 45 129 83t26 159v952q0 122 -25 159q-26 38 -129 83v14h659v-14q-103 -45 -129 -83q-25 -37 -25 -159v-952zM569 700l422 416q100 97 102 182q0 96 -125 152v14h540v-14q-31 -15 -56 -30q-34 -21 -56 -37
q-13 -9 -50 -36q-25 -18 -51 -40q-25 -21 -44 -36q-8 -6 -48 -41l-42 -36q-4 -3 -43 -39q-36 -33 -38 -35l-247 -229l473 -674q116 -164 234 -203v-14h-502zM807 -66l-1 -1q62 0 108 -37q47 -38 47 -105q0 -82 -69 -175q-70 -94 -202 -140l-8 16q111 96 145 205h-18
q-63 0 -107 33t-44 83q0 49 44 85t105 36z" />
    <glyph glyph-name="uni0137" unicode="&#x137;" horiz-adv-x="1206" 
d="M16 0v10q78 40 99 78q21 37 21 148v925q0 96 -14 149q-13 50 -32 69q-15 15 -74 55v14q230 16 435 78v-1047l297 269q57 51 57 96q0 61 -119 127v14h473v-14q-11 -6 -45 -27q-40 -24 -44 -27q-7 -4 -37 -22q-29 -17 -39 -24q-23 -17 -34 -24q-32 -22 -36 -25
q-12 -9 -30 -24q-11 -9 -33 -29q-20 -18 -32 -30l-129 -116l308 -435q86 -124 189 -174v-14h-420l-293 453h-32v-213q0 -110 21 -148q21 -37 98 -78v-14h-555zM626 -70l2 -1q62 0 108 -37t46 -105q0 -82 -69 -175q-70 -94 -202 -140l-8 16q111 96 145 205h-18q-63 0 -108 33
t-45 83q0 49 44 85q43 36 105 36z" />
    <glyph glyph-name="Lacute" unicode="&#x139;" horiz-adv-x="1280" 
d="M627 1878v1q-190 -199 -328 -328h-20q23 181 30 327h318zM1174 421h13l-49 -420h-1106v14q103 45 129 83t26 159v952q0 122 -25 159q-26 38 -129 83v14h659v-14q-103 -45 -129 -83q-25 -37 -25 -159v-1046q0 -43 57 -70t154 -27h24q125 0 230 105t171 250z" />
    <glyph glyph-name="lacute" unicode="&#x13a;" horiz-adv-x="583" 
d="M117 1583l-21 3q56 154 105 311l309 -71q-200 -130 -393 -243zM16 -1l1 14q78 41 99 78t21 148v925q0 96 -14 149q-13 50 -32 69q-15 15 -74 55v14q229 17 435 78v-1290q0 -111 21 -148t98 -78v-14h-555z" />
    <glyph glyph-name="uni013B" unicode="&#x13b;" horiz-adv-x="1280" 
d="M1174 420h13l-49 -420h-1106v14q103 45 129 83t26 159v952q0 122 -25 159q-26 38 -129 83v14h659v-14q-103 -45 -129 -83q-25 -37 -25 -159v-1046q0 -43 57 -70t154 -27h24q125 0 230 105t171 250zM697 -66l1 -1q62 0 108 -37t46 -105q0 -82 -69 -175q-70 -94 -202 -140
l-9 16q112 97 146 205h-19q-63 0 -107 33t-44 83q0 49 44 85t105 36z" />
    <glyph glyph-name="uni013C" unicode="&#x13c;" horiz-adv-x="583" 
d="M16 0l1 14q78 40 99 78t21 148v925q0 96 -14 149q-13 50 -32 69q-15 15 -74 55v14q229 16 435 78v-1290q0 -110 21 -148q21 -37 98 -78v-14h-555zM300 -66l-1 -1q62 0 108 -37q47 -38 47 -105q0 -82 -69 -175q-70 -94 -202 -140l-8 16q111 96 145 205h-18q-64 0 -107 33
q-44 33 -44 83q0 49 44 85q43 36 105 36z" />
    <glyph glyph-name="Lcaron" unicode="&#x13d;" horiz-adv-x="1280" 
d="M1174 420h13l-49 -420h-1106v14q103 45 129 83t26 159v952q0 122 -25 159q-26 38 -129 83v14h659v-14q-103 -45 -129 -83q-25 -37 -25 -159v-1046q0 -43 57 -70t154 -27h24q125 0 230 105t171 250zM1084 1462q-191 -198 -329 -327h-19q23 217 29 327h319z" />
    <glyph glyph-name="lcaron" unicode="&#x13e;" horiz-adv-x="561" 
d="M16 0l1 14q78 40 99 78t21 148v925q0 96 -14 149q-13 50 -32 69q-15 15 -74 55v14q229 16 435 78v-1290q0 -110 21 -148q21 -37 98 -78v-14h-555zM558 1024h-16l34 465h265z" />
    <glyph glyph-name="Ldot" unicode="&#x13f;" horiz-adv-x="1280" 
d="M1174 420h13l-49 -420h-1106v14q103 45 129 83t26 159v952q0 122 -25 159q-26 38 -129 83v14h659v-14q-103 -45 -129 -83q-25 -37 -25 -159v-1046q0 -43 57 -70t154 -27h24q125 0 230 105t171 250zM883 514l-2 -1q-71 0 -124 54q-53 55 -53 126q0 72 53 125t125 53
q71 0 124 -53t53 -124q0 -73 -52 -126q-53 -54 -124 -54z" />
    <glyph glyph-name="ldot" unicode="&#x140;" horiz-adv-x="1024" 
d="M16 0l1 14q78 40 99 78t21 148v925q0 96 -14 149q-13 50 -32 69q-15 15 -74 55v14q229 16 435 78v-1290q0 -110 21 -148q21 -37 98 -78v-14h-555zM803 412h-2q-72 0 -124 52q-53 53 -53 124t53 126q53 54 125 54t124 -54q53 -55 53 -126q0 -72 -52 -124t-124 -52z" />
    <glyph glyph-name="Lslash" unicode="&#x141;" horiz-adv-x="1280" 
d="M1174 420h13l-49 -420h-1106v14q103 45 129 83t26 159v264l-155 -92v66l155 92v622q0 122 -25 159q-26 38 -129 83v14h659v-14q-103 -45 -129 -83q-25 -37 -25 -159v-415l274 161v-67l-274 -162v-563q0 -43 57 -70t154 -27h24q125 0 230 105t171 250z" />
    <glyph glyph-name="lslash" unicode="&#x142;" horiz-adv-x="583" 
d="M451 240h1q0 -110 21 -148q21 -37 98 -78v-14h-555v14q78 40 99 78t21 148v383l-108 -80v71l108 80v471q0 96 -14 149q-13 50 -32 69q-15 15 -74 55v14q230 16 435 78v-604l102 75v-75l-102 -76v-610z" />
    <glyph glyph-name="Nacute" unicode="&#x143;" horiz-adv-x="1517" 
d="M1028 1878l1 1q-190 -199 -328 -328h-20q23 181 30 327h317zM1498 1465l-4 -16q-91 -40 -129 -77q-38 -36 -54 -109q-16 -71 -16 -234v-1030h-266q-322 535 -726 1153v-719q0 -158 17 -234q16 -73 54 -109q38 -37 129 -77v-14h-471v14q94 40 132 77q37 36 54 110
q16 71 16 234v805q-37 101 -198 211v14h467q366 -557 725 -1149v715q0 163 -16 234q-17 74 -54 110q-38 37 -129 77v14h469z" />
    <glyph glyph-name="nacute" unicode="&#x144;" horiz-adv-x="1239" 
d="M887 1456h1q-160 -166 -328 -328h-20q23 194 27 328h320zM1107 240h1q0 -110 21 -148t99 -78v-14h-555v14q79 40 102 78t23 147v141v283q0 98 -42 146t-108 48q-102 0 -196 -129v-489q0 -111 21 -148t96 -78v-14h-553v14q78 41 99 78t21 148v417q0 135 -21 180
q-21 46 -99 92v14q209 12 428 78v-225q146 221 360 221q51 0 99 -15q49 -15 96 -46q48 -31 78 -95q30 -63 30 -151v-469z" />
    <glyph glyph-name="uni0145" unicode="&#x145;" horiz-adv-x="1517" 
d="M1497 1464l-4 -16q-91 -40 -129 -77q-38 -36 -54 -109q-16 -71 -16 -234v-1030h-266q-322 535 -726 1153v-719q0 -158 17 -234q16 -73 54 -109q38 -37 129 -77v-14h-471v14q94 40 132 77q37 36 54 110q16 71 16 234v805q-37 101 -198 211v14h467q366 -557 725 -1149v715
q0 163 -16 234q-17 74 -54 110q-38 37 -129 77v14h469zM766 -68l-1 -1q62 0 108 -37q47 -38 47 -105q0 -82 -69 -175q-70 -94 -202 -140l-8 16q112 97 146 205h-19q-64 0 -107 33q-44 33 -44 83q0 49 44 85q43 36 105 36z" />
    <glyph glyph-name="uni0146" unicode="&#x146;" horiz-adv-x="1239" 
d="M1106 240h1q0 -110 21 -148t99 -78v-14h-555v14q80 40 102 78q23 38 23 147v141v283q0 98 -42 146t-108 48q-101 0 -196 -129v-489q0 -111 21 -148t96 -78v-14h-553v14q78 41 99 78t21 148v417q0 135 -21 180q-21 46 -99 92v14q209 12 428 78v-225q146 221 360 221
q51 0 99 -15q49 -15 96 -46q48 -31 78 -95q30 -63 30 -151v-469zM631 -66l2 -1q62 0 108 -37t46 -105q0 -82 -69 -175q-70 -94 -202 -140l-8 16q111 96 145 205h-18q-63 0 -108 33t-45 83q0 49 44 85t105 36z" />
    <glyph glyph-name="Ncaron" unicode="&#x147;" horiz-adv-x="1517" 
d="M791 1526l-16 1q-150 217 -278 389l12 12l274 -160l275 160l12 -12q-124 -166 -279 -390zM1498 1465l-4 -16q-91 -40 -129 -77q-38 -36 -54 -109q-16 -71 -16 -234v-1030h-266q-322 535 -726 1153v-719q0 -158 17 -234q16 -73 54 -109q38 -37 129 -77v-14h-471v14
q94 40 132 77q37 36 54 110q16 71 16 234v805q-37 101 -198 211v14h467q366 -557 725 -1149v715q0 163 -16 234q-17 74 -54 110q-38 37 -129 77v14h469z" />
    <glyph glyph-name="ncaron" unicode="&#x148;" horiz-adv-x="1239" 
d="M635 1118l-17 1q-59 76 -145 197q-18 25 -44 61.5t-42.5 60t-28.5 39.5l13 10l256 -150l256 150l10 -10q-100 -125 -258 -359zM1106 241h1q0 -111 21 -148t99 -78v-14h-555v14q80 41 102 78q23 38 23 147v141v283q0 98 -42 146t-108 48q-101 0 -196 -129v-489
q0 -110 21 -148t96 -78v-14h-553v14q78 40 99 78t21 148v417q0 135 -21 180q-21 46 -99 92v14q209 12 428 78v-225q146 221 360 221q51 0 99 -15q49 -15 96 -46q48 -31 78 -95q30 -63 30 -151v-469z" />
    <glyph glyph-name="Eng" unicode="&#x14a;" horiz-adv-x="1517" 
d="M1497 1464l-4 -17q-91 -40 -129 -77q-38 -36 -54 -109q-16 -71 -16 -234v-1177q0 -129 -67 -202t-192 -73q-147 0 -245 72l127 280h14q25 -91 75 -159q49 -67 114 -67q50 0 81 39q32 40 32 106v152h-205q-322 535 -726 1153v-719q0 -158 17 -234q16 -73 54 -109
q38 -37 129 -77v-14h-471v14q94 40 132 77q37 36 54 110q16 71 16 234v805q-37 101 -198 211v14h467q366 -557 725 -1149v715q0 163 -16 234q-17 74 -54 110q-38 37 -129 77v14h469z" />
    <glyph glyph-name="eng" unicode="&#x14b;" horiz-adv-x="1226" 
d="M809 1016l2 -2q49 0 96 -15q49 -16 95 -46q48 -31 78 -95q30 -63 30 -151v-562q0 -477 -498 -569l-6 16q102 56 144 138q43 83 44 236l4 697q0 95 -42 145q-42 49 -108 49q-101 0 -196 -119v-499q0 -111 21 -148t98 -78v-14h-555v14q78 41 99 78t21 148v417
q0 135 -21 180q-21 46 -99 92v14q209 12 428 78v-219q156 215 365 215z" />
    <glyph glyph-name="Omacron" unicode="&#x14c;" horiz-adv-x="1599" 
d="M1116 1739v-154h-631v154h631zM799 -27h-1q-338 0 -540 205t-202 555q0 351 202 554q202 204 540 204t540 -204q203 -205 203 -554q0 -350 -202 -555t-540 -205zM849 39l-1 -1q143 0 233 143q90 142 90 392q0 100 -13 204q-14 108 -45 225t-78 210q-47 94 -121 153
q-75 60 -165 60q-147 0 -237 -144t-90 -386q0 -125 24 -264q23 -135 71 -277q46 -136 134 -226q87 -89 198 -89z" />
    <glyph glyph-name="omacron" unicode="&#x14d;" horiz-adv-x="1150" 
d="M856 1337v-157h-549v157h549zM575 -20h1q-242 0 -384 135t-142 370q0 241 144 386q144 146 389 146q238 0 379 -138t141 -373q0 -240 -144 -383q-145 -143 -384 -143zM623 33l-3 -2q68 0 114 72q46 71 46 218q0 84 -13 179q-14 103 -40 207q-27 108 -79 181t-120 73
t-114 -73q-47 -74 -47 -216q0 -82 13 -180q13 -101 42 -208t81 -179q53 -72 120 -72z" />
    <glyph glyph-name="Obreve" unicode="&#x14e;" horiz-adv-x="1599" 
d="M1044 1884h19q-31 -346 -265 -346t-265 346h19q27 -84 99 -132t147 -48t147 48t99 132zM801 -27h-1q-338 0 -540 205t-202 555q0 351 202 554q202 204 540 204t540 -204q203 -205 203 -554q0 -350 -202 -555t-540 -205zM851 39l-1 -1q143 0 233 143q90 142 90 392
q0 100 -13 204q-14 108 -45 225t-78 210q-47 94 -121 153q-75 60 -165 60q-147 0 -237 -144t-90 -386q0 -125 24 -264q23 -135 71 -277q46 -136 134 -226q87 -89 198 -89z" />
    <glyph glyph-name="obreve" unicode="&#x14f;" horiz-adv-x="1150" 
d="M823 1460h19q-31 -346 -265 -346t-265 346h19q27 -84 99 -132t147 -48t147 48t99 132zM577 -20h1q-242 0 -384 135t-142 370q0 241 144 386q144 146 389 146q238 0 379 -138t141 -373q0 -240 -144 -383q-145 -143 -384 -143zM625 33l-3 -2q68 0 114 72q46 71 46 218
q0 84 -13 179q-14 103 -40 207q-27 108 -79 181t-120 73t-114 -73q-47 -74 -47 -216q0 -82 13 -180q13 -101 42 -208t81 -179q53 -72 120 -72z" />
    <glyph glyph-name="Ohungarumlaut" unicode="&#x150;" horiz-adv-x="1599" 
d="M897 1550h-17q23 206 27 328h291q-140 -161 -301 -328zM523 1548h-19q23 218 26 328h293q-160 -185 -300 -328zM799 -27h-1q-338 0 -540 205t-202 555q0 351 202 554q202 204 540 204t540 -204q203 -205 203 -554q0 -350 -202 -555t-540 -205zM849 39l-1 -1
q143 0 233 143q90 142 90 392q0 100 -13 204q-14 108 -45 225t-78 210q-47 94 -121 153q-75 60 -165 60q-147 0 -237 -144t-90 -386q0 -125 24 -264q23 -135 71 -277q46 -136 134 -226q87 -89 198 -89z" />
    <glyph glyph-name="ohungarumlaut" unicode="&#x151;" horiz-adv-x="1150" 
d="M674 1133h-19q23 214 29 327h291q-145 -165 -301 -327zM299 1130l-18 -1q23 218 26 328h293q-145 -168 -301 -327zM575 -21h1q-242 0 -384 135t-142 370q0 240 144 386t389 146q238 0 379 -138t141 -373q0 -241 -144 -383q-145 -143 -384 -143zM623 32l-3 -2q68 0 114 72
q46 71 46 218q0 84 -13 179q-14 103 -40 207q-27 108 -79 181t-120 73t-114 -73q-47 -74 -47 -216q0 -82 13 -180q13 -101 42 -208t81 -179q53 -72 120 -72z" />
    <glyph glyph-name="OE" unicode="&#x152;" horiz-adv-x="2189" 
d="M2083 420h13l-49 -420h-961v61q-141 -84 -317 -84q-302 0 -508 203q-205 202 -205 552t204 552q203 202 507 202q178 0 319 -84v61h900l36 -417h-14q-46 145 -154 250t-270 105h-166v-586h156q173 0 270 160h10v-400h-10q-41 73 -109 126q-70 54 -160 53l-156 -4v-588
q0 -43 57 -70t155 -27h51q125 0 230 105t171 250zM839 39l-2 1q161 0 247 170v872q-52 170 -138 255q-86 86 -194 86q-150 0 -240 -138t-90 -386q0 -119 23 -262q22 -136 68 -279q45 -140 130 -229q85 -90 196 -90z" />
    <glyph glyph-name="oe" unicode="&#x153;" horiz-adv-x="1779" 
d="M1716 362l15 -11q-11 -55 -35 -111q-23 -55 -69 -119q-47 -65 -132 -104t-198 -39q-227 0 -368 145q-118 -145 -353 -145q-242 0 -384 135t-142 370q0 241 144 386q144 146 389 146q231 0 348 -139q142 139 363 139q117 0 207 -42t135 -105t66 -123t21 -113v-25h-653v-28
q0 -195 107 -290t255 -95q198 -2 284 168zM624 30l1 1q67 0 114 72q46 71 46 216q0 82 -13 179q-14 100 -42 207t-81 180q-52 73 -120 73t-114 -73q-47 -74 -47 -216q0 -82 13 -180q13 -101 42 -208t81 -179t120 -72zM1255 959v1q-158 0 -182 -306l367 4q-1 42 -11 92
q-9 44 -29 96q-20 50 -57 81q-38 32 -88 32z" />
    <glyph glyph-name="Racute" unicode="&#x154;" horiz-adv-x="1497" 
d="M905 1878l1 1q-186 -194 -327 -328h-21q22 181 30 327h317zM1301 212l-2 -1q68 -103 180 -197v-14h-447q-216 351 -402 700l-94 -4v-440q0 -121 26 -159t129 -83v-14h-659v14q103 45 129 83t26 159v952q0 122 -25 159q-26 38 -129 83v14h684q267 0 419 -97
q153 -97 153 -261q0 -128 -90 -226q-90 -97 -235 -136q145 -249 337 -532zM536 1401l-1 -639h125q128 0 204 88q77 89 77 246q0 305 -299 305h-106z" />
    <glyph glyph-name="racute" unicode="&#x155;" horiz-adv-x="874" 
d="M348 1128h-19q23 194 27 328h320q-160 -166 -328 -328zM17 0l2 12q78 40 99 78t21 148v434q0 120 -22 165q-23 47 -99 90v14q214 12 428 78l-4 -205h4q27 76 99 139t182 63q50 0 96 -23l-41 -329h-14q-129 168 -217 167q-64 0 -98 -75v-516q0 -110 27 -148t129 -78v-14
h-592z" />
    <glyph glyph-name="uni0156" unicode="&#x156;" horiz-adv-x="1497" 
d="M1300 211l-2 -1q68 -103 180 -197v-14h-447q-216 351 -402 700l-94 -4v-440q0 -121 26 -159t129 -83v-14h-659v14q103 45 129 83t26 159v952q0 122 -25 159q-26 38 -129 83v14h684q267 0 419 -97q153 -98 153 -261q0 -129 -90 -226t-235 -136q145 -249 337 -532z
M535 1400l-1 -639h125q128 0 204 88q77 89 77 246q0 305 -299 305h-106zM740 -67l1 -1q62 0 108 -37t46 -105q0 -82 -69 -175q-70 -94 -202 -140l-9 16q112 97 146 205h-19q-64 0 -107 33q-44 33 -44 83q0 49 44 85q43 36 105 36z" />
    <glyph glyph-name="uni0157" unicode="&#x157;" horiz-adv-x="874" 
d="M16 0l2 12q78 40 99 78t21 148v434q0 120 -22 165q-22 47 -99 90v14q214 12 428 78l-4 -205h4q27 76 99 139t182 63q50 0 96 -23l-41 -329h-14q-129 168 -217 167q-63 0 -98 -75v-516q0 -110 27 -148t129 -78v-14h-592zM309 -68v-1q62 0 108 -37t46 -105q0 -82 -69 -175
q-70 -94 -202 -140l-8 16q112 97 146 205h-19q-63 0 -107 33t-44 83q0 49 44 85t105 36z" />
    <glyph glyph-name="Rcaron" unicode="&#x158;" horiz-adv-x="1497" 
d="M668 1526l-16 1q-150 217 -278 389l12 12l274 -160l275 160l12 -12q-125 -166 -279 -390zM1301 212l-2 -1q68 -103 180 -197v-14h-447q-216 351 -402 700l-94 -4v-440q0 -121 26 -159t129 -83v-14h-659v14q103 45 129 83t26 159v952q0 122 -25 159q-26 38 -129 83v14h684
q267 0 419 -97q153 -97 153 -261q0 -128 -90 -226q-90 -97 -235 -136q145 -249 337 -532zM536 1401l-1 -639h125q128 0 204 88q77 89 77 246q0 305 -299 305h-106z" />
    <glyph glyph-name="rcaron" unicode="&#x159;" horiz-adv-x="874" 
d="M158 1487l256 -148l256 150l10 -10q-102 -127 -258 -360h-16q-59 76 -145 197q-69 96 -116 161zM16 2l2 12q78 40 99 78t21 148v434q0 120 -22 165q-22 47 -99 90v14q214 12 428 78l-4 -205h4q27 76 99 139t182 63q50 0 96 -23l-41 -329h-14q-129 168 -217 167
q-63 0 -98 -75v-516q0 -110 27 -148t129 -78v-14h-592z" />
    <glyph glyph-name="Sacute" unicode="&#x15a;" horiz-adv-x="1161" 
d="M514 1550l-21 1q23 181 30 327h318q-186 -194 -327 -328zM599 -26l-2 -2q-216 0 -480 121l-27 430h14q56 -122 124 -223q70 -103 171 -182q103 -80 204 -80q90 0 152 59t62 162q0 110 -69 176q-68 65 -251 174t-250 170q-137 128 -137 306q0 187 131 297q130 109 329 109
q174 0 396 -76l41 -418h-15q-86 180 -202 306q-117 128 -238 128q-79 0 -135 -52q-57 -53 -57 -148q0 -91 63 -151q62 -59 245 -165q91 -52 101 -58q32 -20 83 -54q60 -40 80 -60q34 -34 59 -61q38 -41 51 -76q15 -41 26 -85q12 -49 12 -105q0 -117 -43 -204
q-43 -88 -114 -138t-153 -75q-81 -25 -171 -25z" />
    <glyph glyph-name="sacute" unicode="&#x15b;" horiz-adv-x="878" 
d="M358 1128h-20q23 201 29 328h319q-160 -166 -328 -328zM465 -27l2 -2q-150 0 -369 74l-35 307l15 2q226 -332 390 -330q52 0 87 33t35 86q0 68 -58 120q-58 53 -177 114q-67 36 -106 60q-36 23 -90 66t-78 99t-24 123q0 139 102 216q101 76 252 76q129 0 327 -60l29 -284
l-16 -4q-82 120 -177 208q-94 87 -177 87q-47 0 -77 -31t-30 -84q0 -37 15 -67q15 -29 54 -58q37 -27 68 -45q29 -17 90 -48q12 -7 16 -8q143 -72 219 -150q77 -79 77 -201q0 -137 -97 -218q-98 -81 -267 -81z" />
    <glyph glyph-name="Scircumflex" unicode="&#x15c;" horiz-adv-x="1161" 
d="M324 1522l-13 12q148 202 279 389h16q144 -213 279 -389l-13 -12l-274 161zM600 -27l-2 -2q-216 0 -480 121l-27 430h14q56 -122 124 -223q70 -103 171 -182q103 -80 204 -80q90 0 152 59t62 162q0 110 -69 176q-68 65 -251 174t-250 170q-137 128 -137 306
q0 187 131 297q130 109 329 109q174 0 396 -76l41 -418h-15q-86 180 -202 306q-117 128 -238 128q-79 0 -135 -52q-57 -52 -57 -148q0 -91 63 -151q62 -59 245 -165q91 -52 101 -58q32 -20 83 -54q60 -40 80 -60q34 -34 59 -61q38 -41 51 -76q15 -41 26 -85q12 -50 12 -105
q0 -117 -43 -204q-44 -89 -114 -138t-153 -75q-81 -25 -171 -25z" />
    <glyph glyph-name="scircumflex" unicode="&#x15d;" horiz-adv-x="878" 
d="M178 1114l-13 9q55 75 116 162q80 114 145 198h16q158 -234 258 -359l-10 -10l-256 150zM464 -28l2 -2q-150 0 -369 74l-35 307l15 2q227 -331 390 -330q53 0 87 33q35 33 35 86q0 68 -58 120q-59 52 -177 114q-67 36 -106 60q-36 22 -90 66t-78 99t-24 123
q0 140 102 216q101 76 252 76q129 0 327 -60l29 -284l-16 -4q-82 120 -177 208q-95 87 -177 87q-47 0 -77 -31q-30 -32 -30 -84q0 -37 15 -67q15 -29 54 -58q37 -27 68 -45q28 -16 90 -48q12 -7 16 -8q142 -72 219 -150q77 -79 77 -201q0 -137 -97 -218t-267 -81z" />
    <glyph glyph-name="Scedilla" unicode="&#x15e;" horiz-adv-x="1161" 
d="M600 -27l-1 -2l-12 -28q281 -25 279 -186q0 -188 -407 -186l10 39q219 16 219 114q0 50 -60 86t-148 36l70 127q-210 13 -432 119l-27 430h14q56 -122 124 -223q70 -103 171 -182q103 -80 204 -80q90 0 152 59t62 162q0 110 -69 176q-68 65 -251 174t-250 170
q-137 128 -137 306q0 187 131 297q130 109 329 109q174 0 396 -76l41 -418h-15q-86 180 -202 306q-117 128 -238 128q-79 0 -135 -52q-57 -52 -57 -148q0 -91 63 -151q62 -59 245 -165q91 -52 101 -58q32 -20 83 -54q60 -40 80 -60q34 -34 59 -61q38 -41 51 -76
q15 -41 26 -85q12 -50 12 -105q0 -117 -43 -204q-44 -89 -114 -138t-153 -75q-81 -25 -171 -25z" />
    <glyph glyph-name="scedilla" unicode="&#x15f;" horiz-adv-x="878" 
d="M829 272l1 -3q0 -135 -97 -216q-98 -82 -276 -83l-21 -34q250 -18 250 -164q0 -104 -115 -161t-330 -55l16 39q110 7 177 41q66 33 66 92q0 45 -51 78q-52 34 -131 35l95 133q-128 10 -316 72l-35 307l15 2q227 -331 390 -330q53 0 87 33q35 33 35 86q0 68 -58 120
q-59 52 -177 114q-67 36 -106 60q-36 22 -90 66t-78 99t-24 123q0 140 102 216q101 76 252 76q129 0 327 -60l29 -284l-16 -4q-82 120 -177 208q-95 87 -177 87q-47 0 -77 -31q-30 -32 -30 -84q0 -37 15 -67q15 -29 54 -58q37 -27 68 -45q28 -16 90 -48q12 -7 16 -8
q141 -70 219 -150t78 -202z" />
    <glyph glyph-name="Scaron" unicode="&#x160;" horiz-adv-x="1161" 
d="M322 1927l274 -159l274 160l13 -12q-125 -166 -279 -390h-16q-156 225 -279 389zM600 -26l-2 -2q-216 0 -480 121l-27 430h14q56 -122 124 -223q70 -103 171 -182q103 -80 204 -80q90 0 152 59t62 162q0 110 -69 176q-68 65 -251 174t-250 170q-137 128 -137 306
q0 187 131 297q130 109 329 109q174 0 396 -76l41 -418h-15q-86 180 -202 306q-117 128 -238 128q-79 0 -135 -52q-57 -53 -57 -148q0 -91 63 -151q62 -59 245 -165q91 -52 101 -58q32 -20 83 -54q60 -40 80 -60q34 -34 59 -61q38 -41 51 -76q15 -41 26 -85q12 -49 12 -105
q0 -117 -43 -204q-44 -88 -114 -138t-153 -75q-81 -25 -171 -25z" />
    <glyph glyph-name="scaron" unicode="&#x161;" horiz-adv-x="878" 
d="M168 1487l256 -148l256 150l10 -10q-102 -127 -258 -360h-16q-59 76 -145 197q-18 25 -44 61.5t-42.5 60t-28.5 39.5zM465 -25l2 -2q-150 0 -369 74l-35 307l15 2q226 -332 390 -330q52 0 87 33t35 86q0 68 -58 120q-58 53 -177 114q-67 36 -106 60q-36 23 -90 66t-78 99
t-24 123q0 139 102 216q101 76 252 76q129 0 327 -60l29 -284l-16 -4q-82 120 -177 208q-94 87 -177 87q-47 0 -77 -31t-30 -84q0 -37 15 -67q15 -29 54 -58q37 -27 68 -45q29 -17 90 -48q12 -7 16 -8q143 -72 219 -150q77 -79 77 -201q0 -137 -97 -218q-98 -81 -267 -81z
" />
    <glyph glyph-name="uni0162" unicode="&#x162;" horiz-adv-x="1374" 
d="M1292 1464l40 -418h-14q-46 145 -154 250t-270 105h-23v-1145q0 -121 26 -159t129 -83v-14h-305l-21 -51q281 -26 281 -186q0 -187 -408 -186l11 39q219 16 219 114q0 50 -60 87q-59 37 -148 37l82 147h-314v14q103 45 129 83t26 159v1145h-31q-161 0 -268 -105
t-156 -250h-14l37 417h1206z" />
    <glyph glyph-name="uni0163" unicode="&#x163;" horiz-adv-x="714" 
d="M393 -20l-22 -2l-25 -41q250 -18 250 -164q0 -104 -115 -161t-330 -55l16 39q110 7 177 41q66 33 66 92q0 45 -51 78q-52 34 -131 35l101 144q-94 18 -151 87t-57 191v662h-96v32q297 176 383 314h22v-283h252l-10 -63h-238l-6 -613q-2 -102 40 -145t101 -43q72 0 138 68
l10 -11q-121 -202 -324 -202z" />
    <glyph glyph-name="Tcaron" unicode="&#x164;" horiz-adv-x="1374" 
d="M707 1526l-16 1q-150 217 -278 389l12 12l274 -160l275 160l12 -12q-124 -166 -279 -390zM1293 1465l39 -417h-14q-46 145 -154 250t-270 105h-23v-1145q0 -121 26 -159t129 -83v-14h-662v14q103 45 129 83t26 159v1145h-31q-162 0 -268 -105q-107 -105 -156 -250h-14
l37 417h1206z" />
    <glyph glyph-name="tcaron" unicode="&#x165;" horiz-adv-x="714" 
d="M530 1049h-14l33 436h266zM393 -20h1q-117 0 -195 72t-78 212v662h-96v32q297 176 383 314h22v-283h252l-10 -63h-238l-6 -613q-2 -102 40 -145t101 -43q72 0 138 68l10 -11q-121 -202 -324 -202z" />
    <glyph glyph-name="Tbar" unicode="&#x166;" horiz-adv-x="1374" 
d="M1292 1464l39 -417h-14q-46 145 -154 250t-270 105h-23v-516h236v-60h-236v-569q0 -121 26 -159t129 -83v-14h-662v14q103 45 129 83t26 159v569h-229v60h229v516h-31q-161 0 -268 -105t-156 -250h-14l37 417h1206z" />
    <glyph glyph-name="tbar" unicode="&#x167;" horiz-adv-x="714" 
d="M707 193l11 -12q-122 -203 -324 -201q-117 0 -195 72t-78 212v420h-90v59h90v183h-96v32q297 176 383 314h22v-283h252l-10 -63h-238l-2 -183h209v-59h-209l-4 -371q-2 -188 145 -188q68 0 134 68z" />
    <glyph glyph-name="Utilde" unicode="&#x168;" horiz-adv-x="1507" 
d="M1126 1812l21 -6q-27 -134 -87 -183q-59 -49 -178 -49q-24 0 -129 31q-127 37 -156 37q-47 0 -75 -12q-27 -12 -66 -47l-19 4q23 124 84 179q62 56 168 56q45 0 144 -31q120 -37 141 -37q62 0 85 10t67 48zM1491 1462l-2 -15q-94 -40 -132 -77q-38 -36 -54 -109
q-16 -71 -16 -234v-557q0 -240 -133 -370t-387 -130q-85 0 -165 15q-77 15 -157 53q-78 38 -135 96q-56 58 -91 150q-35 93 -35 210v710q0 122 -25 159q-26 38 -129 83v14h659v-14q-103 -45 -129 -83q-25 -37 -25 -159v-716q0 -212 91 -321q92 -110 244 -110q66 0 125 21
t111 66t84 129q31 83 31 197v557q0 163 -16 234q-17 74 -54 110q-38 37 -129 77v14h469z" />
    <glyph glyph-name="utilde" unicode="&#x169;" horiz-adv-x="1234" 
d="M440 1235l-1 -1q-58 0 -117 -59l-17 4q26 125 81 173q56 48 166 48q16 0 115 -33q108 -35 129 -35q51 0 75 11q23 11 60 48l20 -5q-37 -219 -213 -219q-58 0 -145 31q-114 37 -153 37zM1103 251l2 -3q0 -98 21 -129q21 -32 98 -59v-14l-424 -78v209q-52 -78 -145 -142
q-92 -64 -214 -64q-116 0 -210 71q-93 70 -93 237v374q0 130 -22 177q-22 48 -99 93v14q217 17 435 81q0 -112 -3 -348t-3 -345q0 -98 43 -147t109 -49q100 0 193 107v419q0 131 -21 177t-99 93v14q213 13 432 78v-766z" />
    <glyph glyph-name="Umacron" unicode="&#x16a;" horiz-adv-x="1507" 
d="M1102 1739v-154h-631v154h631zM1493 1464l-2 -15q-94 -40 -132 -77q-38 -36 -54 -109q-16 -71 -16 -234v-557q0 -240 -133 -370t-387 -130q-85 0 -165 15q-77 15 -157 53q-78 38 -135 96q-56 58 -91 150q-35 93 -35 210v710q0 122 -25 159q-26 38 -129 83v14h659v-14
q-103 -45 -129 -83q-25 -37 -25 -159v-716q0 -212 91 -321q92 -110 244 -110q66 0 125 21t111 66t84 129q31 83 31 197v557q0 163 -16 234q-17 74 -54 110q-38 37 -129 77v14h469z" />
    <glyph glyph-name="umacron" unicode="&#x16b;" horiz-adv-x="1234" 
d="M899 1337v-157h-549v157h549zM1104 252l2 -3q0 -97 21 -129t98 -59v-14l-424 -78v209q-52 -78 -145 -142q-92 -64 -214 -64q-116 0 -210 71q-93 71 -93 237v374q0 130 -22 177q-23 48 -99 93v14q218 16 435 81q0 -113 -3 -348t-3 -345q0 -98 43 -147t109 -49
q100 0 193 107v419q0 130 -21 177t-99 93v14q213 14 432 78v-766z" />
    <glyph glyph-name="Ubreve" unicode="&#x16c;" horiz-adv-x="1507" 
d="M1032 1884h19q-31 -346 -265 -346t-265 346h19q27 -84 99 -132t147 -48t147 48t99 132zM1495 1464l-2 -15q-94 -40 -132 -77q-38 -36 -54 -109q-16 -71 -16 -234v-557q0 -240 -133 -370t-387 -130q-85 0 -165 15q-77 15 -157 53q-78 38 -135 96q-56 58 -91 150
q-35 93 -35 210v710q0 122 -25 159q-26 38 -129 83v14h659v-14q-103 -45 -129 -83q-25 -37 -25 -159v-716q0 -212 91 -321q92 -110 244 -110q67 0 125 21q59 21 111 66t84 129q31 83 31 197v557q0 163 -16 234q-17 74 -54 110q-38 37 -129 77v14h469z" />
    <glyph glyph-name="ubreve" unicode="&#x16d;" horiz-adv-x="1234" 
d="M618 1114q-234 0 -265 346h19q27 -84 99 -132t147 -48q76 0 149 48t99 132h17q-31 -346 -265 -346zM1103 252l2 -3q0 -97 21 -129t98 -59v-14l-424 -78v209q-52 -78 -145 -142q-92 -64 -214 -64q-116 0 -210 71q-93 71 -93 237v374q0 130 -22 177q-22 48 -99 93v14
q217 16 435 81q0 -113 -3 -348t-3 -345q0 -98 43 -147t109 -49q100 0 193 107v419q0 130 -21 177t-99 93v14q213 14 432 78v-766z" />
    <glyph glyph-name="Uring" unicode="&#x16e;" horiz-adv-x="1507" 
d="M784 1538h-1q-78 0 -135 57t-57 139t56 138q55 55 135 55q79 0 134 -55q56 -56 56 -138q0 -83 -55 -139q-55 -57 -133 -57zM786 1595l-1 1q52 0 83 40q32 41 32 94q0 59 -34 99q-35 41 -87 41q-49 0 -82 -40t-33 -93q0 -55 36 -99q36 -43 86 -43zM1490 1465l-2 -15
q-94 -40 -132 -77q-38 -36 -54 -109q-16 -71 -16 -234v-557q0 -240 -133 -370t-387 -130q-86 0 -165 15q-77 15 -157 53q-78 37 -135 96q-56 58 -91 150q-35 93 -35 210v710q0 122 -25 159q-26 38 -129 83v14h659v-14q-103 -45 -129 -83q-25 -37 -25 -159v-716
q0 -212 91 -321q92 -110 244 -110q67 0 125 21t111 66t84 129q31 83 31 197v557q0 163 -16 234q-17 74 -54 110q-38 37 -129 77v14h469z" />
    <glyph glyph-name="uring" unicode="&#x16f;" horiz-adv-x="1234" 
d="M618 1079h-1q-78 0 -135 57t-57 139q0 79 57 135q58 56 135 56t133 -56t56 -135q0 -83 -55 -139q-55 -57 -133 -57zM612 1411v1q-49 0 -82 -39t-33 -94t36 -99q36 -43 89 -43q50 0 81 42q32 43 32 95q0 56 -36 97q-36 40 -87 40zM1102 253l2 -3q0 -98 21 -129
q21 -32 98 -59v-14l-424 -78v209q-52 -78 -145 -142q-92 -64 -214 -64q-116 0 -210 71q-93 70 -93 237v374q0 130 -22 177q-23 48 -99 93v14q218 17 435 81q0 -112 -3 -348t-3 -345q0 -98 43 -147t109 -49q100 0 193 107v419q0 131 -21 177t-99 93v14q213 13 432 78v-766z
" />
    <glyph glyph-name="Uhungarumlaut" unicode="&#x170;" horiz-adv-x="1507" 
d="M883 1550h-19q23 214 29 328h291q-140 -161 -301 -328zM508 1548h-20q23 212 27 328h293q-160 -185 -300 -328zM1492 1464l-2 -15q-94 -40 -132 -77q-38 -36 -54 -109q-16 -71 -16 -234v-557q0 -240 -133 -370t-387 -130q-86 0 -165 15q-77 15 -157 53q-78 38 -135 96
q-56 58 -91 150q-35 93 -35 210v710q0 122 -25 159q-26 38 -129 83v14h659v-14q-103 -45 -129 -83q-25 -37 -25 -159v-716q0 -212 91 -321q92 -110 244 -110q67 0 125 21t111 66t84 129q31 83 31 197v557q0 163 -16 234q-17 74 -54 110q-38 37 -129 77v14h469z" />
    <glyph glyph-name="uhungarumlaut" unicode="&#x171;" horiz-adv-x="1234" 
d="M1018 1460q-144 -165 -301 -327h-19q23 214 29 327h291zM643 1458v-1q-145 -168 -301 -327h-18q23 218 26 328h293zM1104 251l2 -3q0 -98 21 -129q21 -32 98 -59v-14l-424 -78v209q-52 -78 -145 -142q-92 -64 -214 -64q-116 0 -210 71q-93 70 -93 237v374q0 130 -22 177
q-23 48 -99 93v14q218 17 435 81q0 -112 -3 -348t-3 -345q0 -98 43 -147t109 -49q100 0 193 107v419q0 131 -21 177t-99 93v14q213 13 432 78v-766z" />
    <glyph glyph-name="Uogonek" unicode="&#x172;" horiz-adv-x="1507" 
d="M1493 1464l-1 -16q-94 -40 -132 -77q-38 -36 -54 -109q-16 -71 -16 -234v-557q0 -334 -250 -448q-53 -35 -99 -94t-46 -112q0 -37 24 -58t63 -21q72 0 133 55l15 -10q-34 -65 -110 -109q-74 -43 -157 -43q-77 0 -124 37q-48 38 -48 96q0 117 205 220q-66 -11 -127 -12
q-85 0 -165 15q-77 15 -157 53q-78 38 -135 96q-56 58 -91 150q-35 93 -35 210v710q0 122 -25 159q-26 38 -129 83v14h659v-14q-103 -45 -129 -83q-25 -37 -25 -159v-716q0 -212 91 -321q92 -110 244 -110q66 0 125 21t111 66t84 129q31 83 31 197v557q0 163 -16 234
q-17 74 -54 110q-38 37 -129 77v14h469z" />
    <glyph glyph-name="uogonek" unicode="&#x173;" horiz-adv-x="1234" 
d="M848 -20l1 -4q-102 -90 -103 -181q0 -41 25 -62t61 -21q76 0 136 60l14 -11q-34 -70 -110 -114q-74 -43 -157 -43q-76 0 -123 38t-47 99q0 137 256 254v182q-52 -78 -145 -142q-92 -64 -214 -64q-116 0 -210 71q-93 70 -93 237v374q0 130 -22 177q-23 48 -99 93v14
q218 17 435 81q0 -112 -3 -348t-3 -345q0 -98 43 -147t109 -49q100 0 193 107v419q0 131 -21 177t-99 93v14q213 13 432 78v-766q0 -97 21 -129t98 -59v-14z" />
    <glyph glyph-name="Wcircumflex" unicode="&#x174;" horiz-adv-x="2211" 
d="M1155 1683l-274 -161l-13 12q148 202 279 389h16q144 -213 279 -389l-12 -12zM1755 1464l451 -1v-14q-75 -50 -121 -102q-45 -51 -63 -87q-17 -34 -46 -118l-407 -1143h-129l-342 920l-334 -920h-127l-473 1278q-13 40 -26 62q-11 20 -44 51q-30 29 -87 61v14h662v-14
q-83 -39 -114 -69q-32 -30 -32 -63q0 -18 13 -54l303 -873l219 633l-94 252q-25 62 -54 97q-28 34 -108 78v14h663v-14q-76 -37 -106 -69q-30 -31 -30 -72q0 -33 33 -127l280 -791l250 748q33 97 33 138q0 50 -37 87q-38 38 -133 84v14z" />
    <glyph glyph-name="wcircumflex" unicode="&#x175;" horiz-adv-x="1714" 
d="M897 1264l-257 -151l-12 10q55 75 116 162q80 114 145 198h16q158 -234 258 -359l-10 -10zM1373 988h344v-14q-72 -57 -109 -105q-35 -45 -67 -117l-323 -754h-99l-264 606l-262 -606h-96l-365 833q-38 83 -133 144v14h559v-14q-106 -51 -106 -113q0 -26 16 -67
q39 -95 207 -477l149 357l-67 158q-35 84 -135 141v14h561v-14q-109 -49 -109 -115q0 -26 17 -65q82 -196 206 -478q111 271 177 437q14 39 14 67q0 40 -25 72t-90 82v14z" />
    <glyph glyph-name="Ycircumflex" unicode="&#x176;" horiz-adv-x="1439" 
d="M772 1683l-274 -161l-13 12q148 202 279 389h16q144 -213 279 -389l-12 -12zM1022 1464h415v-14q-81 -50 -133 -111t-108 -154l-299 -504v-424q0 -121 26 -159t131 -83v-14h-660v14q103 45 129 83t26 159v412l-379 612q-22 36 -38 59q-15 21 -48 51q-36 33 -76 59v14h664
v-14q-133 -76 -133 -129q0 -32 55 -121l274 -444l248 428q37 65 37 108q0 74 -131 158v14z" />
    <glyph glyph-name="ycircumflex" unicode="&#x177;" horiz-adv-x="1112" 
d="M588 1264l-256 -151l-13 10q55 75 116 162q80 114 145 198h16q158 -234 258 -359l-10 -10zM774 988l341 -1v-14q-72 -51 -106 -97q-35 -46 -72 -135q-301 -697 -342 -777q-77 -155 -153 -241q-74 -85 -176 -156l-149 196l6 13l16 -2h23q274 0 357 168l29 57l-410 829
q-41 86 -137 146v14h592v-14q-103 -57 -105 -119q0 -25 23 -76l201 -426q124 278 171 410q12 31 12 57q0 76 -121 154v14z" />
    <glyph glyph-name="Ydieresis" unicode="&#x178;" horiz-adv-x="1439" 
d="M981 1550v-1q-59 0 -101 42t-42 102q0 57 43 99t100 42t99 -42t42 -99t-42 -100t-99 -43zM555 1547v-1q-57 0 -100 43t-43 101q0 57 43 99q44 42 100 42q57 0 100 -42t43 -99q0 -56 -42 -100q-42 -43 -101 -43zM1022 1462h415v-14q-81 -50 -133 -111t-108 -154l-299 -504
v-424q0 -121 26 -159t131 -83v-14h-660v14q103 45 129 83t26 159v412l-379 612q-22 36 -38 59q-15 21 -48 51q-36 33 -76 59v14h664v-14q-133 -76 -133 -129q0 -32 55 -121l274 -444l248 428q37 65 37 108q0 74 -131 158v14z" />
    <glyph glyph-name="Zacute" unicode="&#x179;" horiz-adv-x="1255" 
d="M913 1878l1 1q-186 -194 -327 -328h-21q22 181 30 327h317zM1189 421l14 -2l-49 -420h-1096v41l748 1360h-248q-162 0 -270 -105t-155 -248h-14l37 417h1036v-41l-746 -1357h342q125 0 230 105t171 250z" />
    <glyph glyph-name="zacute" unicode="&#x17a;" horiz-adv-x="976" 
d="M745 1456q-153 -158 -327 -328h-21q23 201 29 328h319zM926 989l1 -38l-533 -901h230q63 0 120 57q58 57 158 251h14l-32 -358h-832v33l539 903h-207q-56 0 -109 -52q-53 -51 -169 -243h-14l33 348h801z" />
    <glyph glyph-name="Zdotaccent" unicode="&#x17b;" horiz-adv-x="1255" 
d="M663 1554l-2 -1q-57 0 -100 42t-43 102q0 57 43 99t101 42t101 -42t43 -99q0 -59 -43 -101t-100 -42zM1185 419l14 -2l-49 -420h-1096v41l748 1360h-248q-162 0 -270 -105t-155 -248h-14l37 417h1036v-41l-746 -1357h342q125 0 230 105t171 250z" />
    <glyph glyph-name="zdotaccent" unicode="&#x17c;" horiz-adv-x="976" 
d="M495 1128l-1 -2q-68 0 -117 48t-49 111q0 62 49 108q50 47 117 47q69 0 116 -46q48 -46 48 -108q0 -66 -48 -112q-47 -46 -115 -46zM924 987l1 -38l-533 -901h230q63 0 120 57q58 57 158 251h14l-32 -358h-832v33l539 903h-207q-56 0 -109 -52q-53 -51 -169 -243h-14
l33 348h801z" />
    <glyph glyph-name="Zcaron" unicode="&#x17d;" horiz-adv-x="1255" 
d="M676 1526l-16 1q-150 217 -278 389l12 12l275 -160l274 160l12 -12q-125 -166 -279 -390zM1189 421l14 -2l-49 -420h-1096v41l748 1360h-248q-162 0 -270 -105t-155 -248h-14l37 417h1036v-41l-746 -1357h342q125 0 230 105t171 250z" />
    <glyph glyph-name="zcaron" unicode="&#x17e;" horiz-adv-x="976" 
d="M494 1118l-17 1q-59 76 -145 197q-18 25 -44 61.5t-42.5 60t-28.5 39.5l12 10l256 -150l256 150l11 -10q-100 -125 -258 -359zM926 990l1 -38l-533 -901h230q63 0 120 57q58 58 158 251h14l-32 -358h-832v33l539 903h-207q-56 0 -109 -52q-53 -51 -169 -243h-14l33 348
h801z" />
    <glyph glyph-name="Aringacute" unicode="&#x1fa;" horiz-adv-x="1486" 
d="M997 2216h1q-192 -170 -327 -283h-21q23 162 30 283h317zM750 1538h-1q-78 0 -135 57t-57 139t57 138q56 55 135 55q78 0 133 -55q56 -56 56 -138q0 -83 -55 -139q-55 -57 -133 -57zM747 1870h-2q-50 0 -84 -40t-34 -93q0 -56 37 -99t87 -43q52 0 83 40q32 41 32 96
q0 58 -34 98q-35 41 -85 41zM1302 207l1 1q19 -51 32 -77q12 -23 44 -54q31 -29 89 -63v-14h-667v14q80 39 110 69t30 69q0 38 -33 132l-73 206h-463l-17 -47q-63 -185 -63 -246q0 -59 36 -99q36 -41 124 -84v-14h-435v14q106 85 156 167q49 81 111 249l286 795l-73 143
q191 72 307 154zM408 589h393l-197 555z" />
    <glyph glyph-name="aringacute" unicode="&#x1fb;" horiz-adv-x="1144" 
d="M512 1503h-19q23 194 27 328h320q-160 -166 -328 -328zM591 1079q-78 0 -135 57t-57 139q0 79 57 135q58 56 135 56t133 -56q55 -55 55 -135q0 -83 -55 -139q-56 -57 -133 -57zM597 1137v1q49 0 81 42q32 43 32 95q0 57 -36 97t-87 40q-49 0 -82 -39t-33 -94
q0 -56 37 -99t88 -43zM884 -19l4 -6q-110 0 -153 66q-44 66 -39 152h-2q-45 -86 -139 -150t-219 -64t-200 66t-75 170q0 151 164 255q163 103 473 183l4 162q2 59 -27 104t-90 45q-92 0 -146 -99q-53 -98 -73 -234l-10 -2l-217 131q56 105 178 179q123 75 305 75
q114 0 195 -32q79 -32 117 -87q38 -56 51 -112q13 -57 12 -121l-10 -486q0 -34 12 -50.5t37 -15.5q56 0 90 81l17 -8q-27 -85 -93 -143q-67 -59 -166 -59zM511 151l-1 -1q98 0 180 102l8 356q-311 -96 -311 -303q0 -74 34 -114t90 -40z" />
    <glyph glyph-name="AEacute" unicode="&#x1fc;" horiz-adv-x="2017" 
d="M1618 1878v1q-190 -199 -328 -328h-20q22 181 30 327h318zM1911 421l16 1l-49 -420h-1135v14q103 45 129 83t26 159v231h-473l-80 -137q-68 -118 -68 -170q0 -44 37 -82q38 -39 123 -84v-14h-432v14q90 80 141 141q53 64 128 192l547 930q10 16 10 36q0 29 -31 59
q-30 28 -108 79v14h1116l37 -417h-14q-47 143 -155 248t-270 105h-158v-584h158q170 0 267 160h10v-399h-10q-39 74 -109 126t-159 51l-158 -4v-590q0 -43 57 -70t155 -27h51q125 0 230 105t171 250zM481 582h418v706h-4z" />
    <glyph glyph-name="aeacute" unicode="&#x1fd;" horiz-adv-x="1675" 
d="M805 1128h-21q23 201 29 328h320q-160 -166 -328 -328zM360 -20l2 -3q-122 0 -213 57t-91 180q0 158 168 260q167 101 471 181l2 172q1 63 -33 99t-90 36q-96 0 -148 -99q-53 -99 -66 -232l-12 -2l-213 133q46 96 167 174q120 78 286 78q191 0 291 -121q146 121 323 121
q187 0 302 -115q116 -116 116 -273v-25h-653q-5 -111 27 -195t87 -129t117 -66t123 -21q201 0 289 166l14 -6q-32 -163 -142 -266q-112 -104 -292 -104q-128 0 -235 52q-109 53 -170 147q-51 -83 -172 -141q-120 -58 -255 -58zM973 652l362 2q-5 130 -54 215q-50 86 -129 86
q-74 0 -123 -84q-50 -85 -56 -219zM549 114h-1q134 0 207 106q-66 118 -66 273q0 61 6 120q-160 -57 -235 -132t-75 -187q0 -96 48 -138t116 -42z" />
    <glyph glyph-name="Oslashacute" unicode="&#x1fe;" horiz-adv-x="1599" 
d="M1049 1878l1 1q-190 -199 -328 -328h-21q23 181 30 327h318zM1273 1347h-1q270 -205 270 -613q0 -350 -202 -555t-540 -205q-253 0 -428 115l-107 -149h-67l129 180q-268 207 -270 614q0 351 202 554q203 204 540 204q250 0 429 -113l98 138h68zM424 896h1
q0 -271 86 -518l555 774q-118 274 -315 274q-147 0 -237 -144t-90 -386zM849 40v-1q146 0 236 143q90 142 90 392q0 278 -87 517l-552 -775q118 -276 313 -276z" />
    <glyph glyph-name="oslashacute" unicode="&#x1ff;" horiz-adv-x="1150" 
d="M827 1456q-153 -158 -327 -328h-21q23 201 29 328h319zM918 915l-1 -1q184 -135 184 -409q0 -241 -144 -383q-145 -143 -384 -143q-179 0 -301 73l-100 -135h-57l119 160q-185 135 -187 407q0 240 144 386t383 146q172 0 303 -74l86 115h59zM368 673v-1q0 -170 47 -355
l305 412q-70 229 -192 231q-68 0 -114 -72q-46 -71 -46 -215zM620 31v-1q71 0 116 72t45 215q0 167 -45 355l-307 -412q73 -229 191 -229z" />
    <glyph glyph-name="uni0218" unicode="&#x218;" horiz-adv-x="1161" 
d="M600 -27l-2 -2q-216 0 -480 121l-27 430h14q56 -122 124 -223q70 -103 171 -182q103 -80 204 -80q90 0 152 59t62 162q0 110 -69 176q-68 65 -251 174t-250 170q-137 128 -137 306q0 187 131 297q130 109 329 109q174 0 396 -76l41 -418h-15q-86 180 -202 306
q-117 128 -238 128q-79 0 -135 -52q-57 -52 -57 -148q0 -91 63 -151q62 -59 245 -165q91 -52 101 -58q32 -20 83 -54q60 -40 80 -60q34 -34 59 -61q38 -41 51 -76q15 -41 26 -85q12 -50 12 -105q0 -117 -43 -204q-44 -89 -114 -138t-153 -75q-81 -25 -171 -25zM583 -68l2 -1
q62 0 108 -37t46 -105q0 -82 -69 -175q-70 -94 -202 -140l-8 16q111 96 145 205h-18q-63 0 -108 33t-45 83q0 49 44 85t105 36z" />
    <glyph glyph-name="uni0219" unicode="&#x219;" horiz-adv-x="878" 
d="M465 -27l2 -2q-150 0 -369 74l-35 307l15 2q226 -332 390 -330q52 0 87 33t35 86q0 68 -58 120q-58 53 -177 114q-67 36 -106 60q-36 23 -90 66t-78 99t-24 123q0 139 102 216q101 76 252 76q129 0 327 -60l29 -284l-16 -4q-82 120 -177 208q-94 87 -177 87
q-47 0 -77 -31t-30 -84q0 -37 15 -67q15 -29 54 -58q37 -27 68 -45q29 -17 90 -48q12 -7 16 -8q143 -72 219 -150q77 -79 77 -201q0 -137 -97 -218q-98 -81 -267 -81zM450 -68l2 -1q62 0 108 -37t46 -105q0 -82 -69 -175q-70 -94 -202 -140l-8 16q111 96 145 205h-18
q-63 0 -108 33t-45 83q0 49 44 85q43 36 105 36z" />
    <glyph glyph-name="uni021A" unicode="&#x21a;" horiz-adv-x="1374" 
d="M1292 1464l39 -417h-14q-46 145 -154 250t-270 105h-23v-1145q0 -121 26 -159t129 -83v-14h-662v14q103 45 129 83t26 159v1145h-31q-161 0 -268 -105t-156 -250h-14l37 417h1206zM698 -59l1 -2q61 0 108 -38q46 -37 46 -105q0 -82 -69 -175q-70 -94 -202 -140l-9 16
q112 97 146 205h-19q-64 0 -107 34q-44 35 -44 84t44 85q43 36 105 36z" />
    <glyph glyph-name="uni021B" unicode="&#x21b;" horiz-adv-x="714" 
d="M393 -20h1q-117 0 -195 72t-78 212v662h-96v32q297 176 383 314h22v-283h252l-10 -63h-238l-6 -613q-2 -102 40 -145t101 -43q72 0 138 68l10 -11q-121 -202 -324 -202zM361 -66l1 -1q62 0 108 -37t46 -105q0 -82 -69 -175q-70 -94 -202 -140l-8 16q111 96 145 205h-19
q-63 0 -107 33t-44 83q0 49 44 85t105 36z" />
    <glyph glyph-name="uni0237" unicode="&#x237;" horiz-adv-x="571" 
d="M-45 -428l-5 15q102 55 144 138t42 237v694q0 96 -15 147t-33 69q-19 19 -72 53v14q217 16 433 81v-877q0 -475 -494 -571z" />
    <glyph glyph-name="circumflex" unicode="&#x2c6;" horiz-adv-x="677" 
d="M84 1122l-11 11q47 65 116 161q86 121 145 197h16q154 -228 258 -358l-10 -11l-256 150z" />
    <glyph glyph-name="caron" unicode="&#x2c7;" horiz-adv-x="677" 
d="M84 1495l258 -149l256 149l10 -10q-102 -127 -258 -360h-16q-65 84 -145 198q-89 126 -115 162z" />
    <glyph glyph-name="breve" unicode="&#x2d8;" horiz-adv-x="673" 
d="M586 1468h16q-33 -346 -264 -346q-236 0 -266 346h18q27 -84 99 -132t150 -48q76 0 148 48t99 132z" />
    <glyph glyph-name="dotaccent" unicode="&#x2d9;" horiz-adv-x="473" 
d="M240 1139v-1q-67 0 -117 47q-49 46 -49 108q0 64 49 110q50 47 117 47t114 -46q48 -46 48 -108q0 -64 -48 -110q-49 -47 -114 -47z" />
    <glyph glyph-name="ring" unicode="&#x2da;" horiz-adv-x="522" 
d="M266 1087l-2 -1q-80 0 -135 57q-56 58 -56 139q0 79 56 137q55 57 135 57q78 0 134 -57q56 -58 56 -136q0 -83 -55 -139q-55 -57 -133 -57zM270 1144h-1q49 0 81 41q31 40 31 96q0 57 -36 97t-85 40q-51 0 -84 -39t-33 -92q0 -58 38 -101q37 -42 89 -42z" />
    <glyph glyph-name="ogonek" unicode="&#x2db;" horiz-adv-x="579" 
d="M244 -393l1 -3q-75 0 -122 37q-48 37 -48 99q0 88 101 165q99 76 258 133v-16q-58 -35 -108 -100q-51 -66 -51 -124q0 -41 25 -62t61 -21q73 0 138 60l12 -11q-34 -70 -110 -114q-74 -43 -157 -43z" />
    <glyph glyph-name="tilde" unicode="&#x2dc;" horiz-adv-x="788" 
d="M698 1403l22 -6q-38 -219 -216 -219q-51 0 -144 30q-114 37 -151 37q-55 0 -120 -59l-16 4q26 125 81 173q56 48 165 48q16 0 115 -33q106 -34 129 -33q54 0 75 10q22 11 60 48z" />
    <glyph glyph-name="hungarumlaut" unicode="&#x2dd;" horiz-adv-x="831" 
d="M465 1141h-19q22 209 27 327h293q-185 -207 -301 -327zM90 1139h-18q19 175 26 327h293q-172 -196 -301 -327z" />
    <glyph glyph-name="Wgrave" unicode="&#x1e80;" horiz-adv-x="2211" 
d="M1233 1550v-1q-168 162 -328 328h320q6 -143 28 -327h-20zM1755 1463l451 -1v-14q-75 -50 -121 -102q-45 -51 -63 -87q-17 -34 -46 -118l-407 -1143h-129l-342 920l-334 -920h-127l-473 1278q-13 40 -26 62q-11 20 -44 51q-30 29 -87 61v14h662v-14q-83 -39 -114 -69
q-32 -30 -32 -63q0 -18 13 -54l303 -873l219 633l-94 252q-25 62 -54 97q-28 35 -108 78v14h663v-14q-76 -37 -106 -69t-30 -72q0 -32 33 -127l280 -791l250 748q33 98 33 138q0 50 -37 87q-38 38 -133 84v14z" />
    <glyph glyph-name="wgrave" unicode="&#x1e81;" horiz-adv-x="1714" 
d="M981 1128v-1q-168 162 -328 328h318q7 -143 30 -327h-20zM1374 988h344v-14q-72 -57 -109 -105q-35 -45 -67 -117l-323 -754h-99l-264 606l-262 -606h-96l-365 833q-38 83 -133 144v14h559v-14q-106 -51 -106 -113q0 -26 16 -67q39 -95 207 -477l149 357l-67 158
q-34 84 -135 141v14h561v-14q-109 -49 -109 -115q0 -26 17 -65q82 -196 206 -478q111 271 177 437q14 39 14 67q0 40 -25 72t-90 82v14z" />
    <glyph glyph-name="Wacute" unicode="&#x1e82;" horiz-adv-x="2211" 
d="M1399 1878v1q-190 -199 -328 -328h-20q23 181 30 327h318zM1755 1465l451 -1v-14q-75 -50 -121 -102q-45 -51 -63 -87q-17 -34 -46 -118l-407 -1143h-129l-342 920l-334 -920h-127l-473 1278q-13 40 -26 62q-11 20 -44 51q-30 29 -87 61v14h662v-14q-83 -39 -114 -69
q-32 -30 -32 -63q0 -18 13 -54l303 -873l219 633l-94 252q-25 62 -54 97q-28 35 -108 78v14h663v-14q-76 -37 -106 -69t-30 -72q0 -32 33 -127l280 -791l250 748q33 98 33 138q0 50 -37 87q-38 38 -133 84v14z" />
    <glyph glyph-name="wacute" unicode="&#x1e83;" horiz-adv-x="1714" 
d="M1147 1456h1q-160 -166 -328 -328h-20q23 194 27 328h320zM1375 989h344v-14q-72 -57 -109 -105q-35 -45 -67 -117l-323 -754h-99l-264 606l-262 -606h-96l-365 833q-38 83 -133 144v14h559v-14q-106 -51 -106 -113q0 -26 16 -67q39 -94 207 -477l149 357l-67 158
q-35 84 -135 141v14h561v-14q-109 -49 -109 -115q0 -26 17 -65q82 -196 206 -478q111 271 177 437q14 39 14 67q0 40 -25 72t-90 82v14z" />
    <glyph glyph-name="Wdieresis" unicode="&#x1e84;" horiz-adv-x="2211" 
d="M1364 1550v-1q-56 0 -100 42q-43 42 -43 102q0 57 43 99q44 42 100 42q57 0 99 -42t42 -99t-42 -100t-99 -43zM938 1547v-1q-57 0 -100 43t-43 101q0 57 43 99q44 42 100 42t100 -42q43 -42 43 -99t-43 -100t-100 -43zM1755 1462l451 -1v-14q-75 -50 -121 -102
q-45 -51 -63 -87q-17 -34 -46 -118l-407 -1143h-129l-342 920l-334 -920h-127l-473 1278q-13 40 -26 62q-11 20 -44 51q-30 29 -87 61v14h662v-14q-83 -39 -114 -69q-32 -30 -32 -63q0 -18 13 -54l303 -873l219 633l-94 252q-25 62 -54 97q-28 34 -108 78v14h663v-14
q-76 -37 -106 -69q-30 -31 -30 -72q0 -33 33 -127l280 -791l250 748q33 97 33 138q0 50 -37 87q-38 38 -133 84v14z" />
    <glyph glyph-name="wdieresis" unicode="&#x1e85;" horiz-adv-x="1714" 
d="M711 1143l-1 -2q-57 0 -100 43t-43 100q0 58 43 101q44 44 101 44q58 0 101 -43q44 -44 44 -100q0 -57 -43 -100t-102 -43zM1080 1141l-2 -2q-57 0 -100 43t-43 100q0 58 43 101q44 44 101 44q58 0 101 -43t43 -100t-43 -100t-100 -43zM1370 985h344v-14
q-72 -57 -109 -105q-35 -45 -67 -117l-323 -754h-99l-264 606l-262 -606h-96l-365 833q-38 83 -133 144v14h559v-14q-106 -51 -106 -113q0 -26 16 -67q39 -94 207 -477l149 357l-67 158q-34 84 -135 141v14h561v-14q-109 -49 -109 -115q0 -26 17 -65q82 -196 206 -478
q111 271 177 437q14 39 14 67q0 40 -25 72t-90 82v14z" />
    <glyph glyph-name="uni1E8A" unicode="&#x1e8a;" horiz-adv-x="1503" 
d="M815 1554v-1q-57 0 -100 42t-43 102q0 57 43 99t100 42t100 -42t43 -99q0 -59 -43 -101t-100 -42zM1286 210v1q46 -73 85 -114q41 -43 117 -83v-14h-701v14q68 39 95 67q29 31 29 64q0 30 -26 76l-240 387l-231 -315q-61 -84 -63 -137q0 -70 121 -142v-14h-451v14
q88 50 156 110q64 57 154 174l278 369l-372 587q-35 52 -51 75t-57 57t-96 63v14h704v-14q-129 -67 -129 -125q0 -32 31 -82l217 -350l213 291q51 67 51 123q0 68 -116 143v14h444v-14q-152 -79 -297 -270l-260 -342z" />
    <glyph glyph-name="uni1E8B" unicode="&#x1e8b;" horiz-adv-x="1130" 
d="M573 1128l-1 -2q-68 0 -117 48t-49 111q0 62 49 108q50 47 117 47q69 0 116 -46q48 -46 48 -108q0 -66 -48 -112q-47 -46 -115 -46zM991 137l1 -1q45 -62 129 -126v-14h-587v14q112 40 111 84q0 17 -20 49l-164 252l-148 -194q-32 -39 -30 -80q0 -71 102 -111v-14h-375
v14q131 71 230 195l188 237l-276 404q-59 90 -134 125v14h588v-14q-110 -37 -108 -84q0 -32 43 -94l127 -193l131 178q35 50 35 78q0 49 -101 115v14h361v-14q-78 -40 -130 -87q-49 -45 -106 -120l-158 -209z" />
    <glyph glyph-name="Ygrave" unicode="&#x1ef2;" horiz-adv-x="1439" 
d="M852 1550v-1q-168 162 -328 328h320q6 -143 28 -327h-20zM1022 1463h415v-14q-81 -50 -133 -111t-108 -154l-299 -504v-424q0 -121 26 -159t131 -83v-14h-660v14q103 45 129 83t26 159v412l-379 612q-22 36 -38 59q-15 21 -48 51q-36 33 -76 59v14h664v-14
q-133 -76 -133 -129q0 -32 55 -121l274 -444l248 428q37 65 37 108q0 74 -131 158v14z" />
    <glyph glyph-name="ygrave" unicode="&#x1ef3;" horiz-adv-x="1112" 
d="M672 1128v-1q-168 162 -328 328h318q8 -143 30 -327h-20zM774 988l341 -1v-14q-72 -51 -106 -97q-35 -46 -72 -135q-301 -697 -342 -777q-77 -155 -153 -241q-74 -85 -176 -156l-149 196l6 13l16 -2h23q274 0 357 168l29 57l-410 829q-41 86 -137 146v14h592v-14
q-103 -57 -105 -119q0 -25 23 -76l201 -426q124 278 171 410q12 31 12 57q0 76 -121 154v14z" />
    <glyph glyph-name="endash" unicode="&#x2013;" horiz-adv-x="983" 
d="M913 571v-69h-839v69h839z" />
    <glyph glyph-name="emdash" unicode="&#x2014;" horiz-adv-x="1822" 
d="M1753 571v-69h-1679v69h1679z" />
    <glyph glyph-name="quoteleft" unicode="&#x2018;" horiz-adv-x="407" 
d="M207 1208h-2q63 0 107 -42t44 -105q0 -61 -44 -105q-43 -43 -105 -43q-63 0 -109 48q-46 47 -46 132q0 101 70 217q70 117 204 177l8 -17q-107 -117 -141 -262h14z" />
    <glyph glyph-name="quoteright" unicode="&#x2019;" horiz-adv-x="407" 
d="M203 1489l-1 -1q62 0 109 -48q46 -47 46 -132q0 -103 -70 -219q-71 -117 -201 -177l-8 17q110 127 141 264h-14q-63 0 -108 42t-45 103q0 64 45 107q46 44 106 44z" />
    <glyph glyph-name="quotesinglbase" unicode="&#x201a;" horiz-adv-x="524" 
d="M262 311l-1 -1q68 0 116 -51t48 -145q0 -110 -75 -238t-216 -192l-8 16q122 141 156 295h-19q-67 0 -114 45t-47 111t47 113t113 47z" />
    <glyph glyph-name="quotedblleft" unicode="&#x201c;" horiz-adv-x="786" 
d="M207 1208h-2q63 0 107 -42t44 -105q0 -61 -44 -105q-43 -43 -105 -43q-63 0 -109 48q-46 47 -46 132q0 101 70 217q70 117 204 177l8 -17q-107 -117 -141 -262h14zM584 1208l2 -1q66 0 108 -42t42 -105q0 -61 -44 -105q-43 -43 -105 -43q-67 0 -111 50q-43 49 -43 129
q0 102 69 219t201 177l8 -17q-109 -122 -142 -262h15z" />
    <glyph glyph-name="quotedblright" unicode="&#x201d;" horiz-adv-x="786" 
d="M203 1489l-1 -1q62 0 109 -48q46 -47 46 -132q0 -103 -70 -219q-71 -117 -201 -177l-8 17q110 127 141 264h-14q-63 0 -108 42t-45 103q0 64 45 107q46 44 106 44zM581 1488h-3q62 0 109 -48q46 -47 46 -132q0 -102 -69 -219t-200 -177l-10 17q110 121 141 264h-14
q-63 0 -106 42t-43 104q0 61 44 105t105 44z" />
    <glyph glyph-name="quotedblbase" unicode="&#x201e;" horiz-adv-x="923" 
d="M262 311l-1 -1q68 0 116 -51t48 -145q0 -110 -75 -238t-216 -192l-8 16q122 141 156 295h-19q-67 0 -114 45t-47 111t47 113t113 47zM658 310l3 -1q67 0 117 -51q49 -50 49 -145q0 -111 -75 -238t-216 -192l-11 16q124 140 158 295h-18q-71 0 -117 45t-46 111t45 113
t111 47z" />
    <glyph glyph-name="dagger" unicode="&#x2020;" horiz-adv-x="790" 
d="M664 1204v-43h-246v-575h-41v575h-246v43h246v260h41v-260h246z" />
    <glyph glyph-name="daggerdbl" unicode="&#x2021;" horiz-adv-x="790" 
d="M664 1161h-246v-237h246v-43h-246v-295h-41v295h-246v43h246v237h-246v43h246v260h41v-260h246v-43z" />
    <glyph glyph-name="bullet" unicode="&#x2022;" horiz-adv-x="819" 
d="M412 260v-1q-132 0 -232 98q-99 97 -99 231q0 133 99 232t232 99q134 0 232 -99q97 -98 97 -232t-97 -231t-232 -97z" />
    <glyph glyph-name="ellipsis" unicode="&#x2026;" horiz-adv-x="1474" 
d="M268 -16l-1 -1q-68 0 -117 49t-49 114q0 67 50 117q49 49 117 49q66 0 115 -49t49 -117q0 -66 -49 -114t-115 -48zM740 -17v-1q-70 0 -118 49t-48 114q0 70 48 118t116 48t117 -49t49 -117q0 -66 -49 -114t-115 -48zM1209 -18l-1 -1q-67 0 -115 49q-48 50 -48 114
q0 68 48 117t116 49t117 -49t49 -117q0 -66 -49 -114q-50 -48 -117 -48z" />
    <glyph glyph-name="perthousand" unicode="&#x2030;" horiz-adv-x="2818" 
d="M477 -31l-47 29l997 1503l46 -33zM457 532v1q-182 0 -293 129t-111 327q0 200 113 336q113 135 299 135q179 0 290 -127t111 -330q0 -201 -111 -336t-298 -135zM492 576l1 -4q68 0 111 79q44 80 44 234q0 111 -21 228q-21 118 -73 210q-52 93 -124 93q-68 0 -113 -78
t-45 -230q0 -183 58 -357q58 -175 162 -175zM1457 915v-1q178 0 291 -125t113 -327q0 -200 -113 -337q-112 -136 -299 -136q-180 0 -292 127t-112 330q0 198 113 334q112 135 299 135zM2366 914v-1q178 0 291 -125t113 -327q0 -201 -112 -337t-300 -136q-178 0 -289 127
t-111 330q0 201 111 335t297 134zM1422 872v-2q-67 0 -112 -79t-45 -231q0 -111 21 -228q21 -118 73 -211q52 -94 124 -94q68 0 113 79q45 80 45 231q0 109 -21 226q-21 118 -73 213q-53 96 -125 96zM2332 870h-3q-68 0 -111 -79q-44 -80 -44 -234q0 -185 57 -358
q57 -172 161 -172q68 0 113 79q45 80 45 231q0 181 -57 357t-161 176z" />
    <glyph glyph-name="guilsinglleft" unicode="&#x2039;" horiz-adv-x="724" 
d="M647 958q-111 -218 -266 -440q157 -222 266 -440h-57q-239 223 -508 430v20q269 207 508 430h57z" />
    <glyph glyph-name="guilsinglright" unicode="&#x203a;" horiz-adv-x="724" 
d="M82 958h57q223 -211 508 -430v-20q-285 -219 -508 -430h-57q107 221 267 440q-160 219 -267 440z" />
    <glyph glyph-name="fraction" unicode="&#x2044;" horiz-adv-x="389" 
d="M-297 0l1008 1464h61l-1008 -1464h-61z" />
    <glyph glyph-name="Euro" unicode="&#x20ac;" horiz-adv-x="1495" 
d="M922 37l-4 -1q98 0 218 127q121 129 218 291h14l-37 -416q-227 -66 -434 -66q-265 0 -450 165t-204 511h-189v58h187v6q0 82 12 159h-199v58h209q52 253 230 393t414 140q166 0 426 -65l37 -408h-14q-104 167 -222 291t-219 124q-96 0 -178 -121q-83 -121 -108 -354h549
l-11 -58h-542q-5 -63 -7 -151v-14h494l-10 -58h-481q11 -297 100 -454q90 -157 201 -157z" />
    <glyph glyph-name="trademark" unicode="&#x2122;" horiz-adv-x="1687" 
d="M678 1464l17 -220h-8q-27 72 -81 129t-128 57h-10v-570q0 -56 12 -76t61 -45v-6h-336v6q50 26 62 47t12 74v570h-13q-74 0 -128 -57q-55 -58 -83 -130h-6l19 221h610zM1641 1457h-1q-50 -25 -61 -45q-10 -19 -10 -73v-479q0 -55 11 -75q10 -19 60 -45v-8h-333v8
q50 26 60 46q11 22 11 74v447h-2q-188 -373 -234 -480h-25q-99 204 -258 476v-345q0 -110 15 -147t83 -72v-6h-233v6q73 38 86 75q14 39 14 144v400q-33 57 -98 98v8h266q152 -272 213 -402l211 403h225v-8z" />
    <glyph glyph-name="oneeighth" unicode="&#x215b;" horiz-adv-x="1656" 
d="M63 612l-2 10q56 26 73 50q16 22 16 90v489q0 45 -21 68t-89 56v6l319 115v-733q0 -66 15 -90q15 -25 75 -50v-11h-386zM223 -1l1008 1464h61l-1007 -1464h-62zM1266 -17v-6q-128 0 -217 63q-88 63 -88 169q0 82 53 137t135 77q-156 84 -156 223q0 106 81 168
q80 61 202 61q118 0 194 -55q77 -56 77 -133q0 -67 -57 -114q-57 -46 -119 -63q45 -26 66 -39t63 -48q43 -35 62 -81q20 -48 20 -103q0 -122 -91 -189t-225 -67zM1346 519l-2 -1q70 70 69 168q0 68 -39 108t-94 40q-52 0 -84 -33q-32 -34 -32 -90q0 -59 45 -101
q43 -40 137 -91zM1264 15l-1 1q63 0 101 36t38 98q0 68 -54 125t-178 127q-72 -72 -72 -189q0 -90 45 -144t121 -54z" />
    <glyph glyph-name="threeeighths" unicode="&#x215c;" horiz-adv-x="1767" 
d="M43 1294l2 -4q57 91 140 144t177 53q89 0 147 -47q57 -47 57 -119q0 -79 -66 -134t-162 -84v-2q27 6 55 6q95 0 162 -61q68 -62 68 -171q0 -129 -94 -204q-95 -75 -229 -75q-117 0 -264 53l80 203l10 -2q28 -86 75 -150q46 -64 105 -64q55 0 93 59q37 58 37 144
q0 91 -42 146q-42 56 -118 56q-47 0 -104 -24l-8 26q225 109 225 231q0 52 -35 81t-87 29q-121 0 -210 -102zM340 -4l1008 1464h61l-1008 -1464h-61zM1382 -20l-3 -6q-129 0 -217 63t-88 169q0 83 54 137q55 55 136 77q-156 84 -156 223q0 107 81 168q80 61 202 61
q118 0 194 -55q77 -56 77 -133q0 -68 -57 -114q-57 -47 -118 -63q45 -25 66 -39t63 -48q43 -35 62 -81q20 -48 20 -103q0 -122 -91 -189t-225 -67zM1459 516v-1q70 70 70 168q0 67 -39 108q-39 40 -94 40q-52 0 -84 -33q-32 -34 -32 -90q0 -59 44 -101q42 -41 135 -91z
M1379 12l-2 1q63 0 102 36t39 98q0 68 -54 125q-52 55 -179 127q-72 -72 -72 -189q0 -90 45 -144t121 -54z" />
    <glyph glyph-name="fiveeighths" unicode="&#x215d;" horiz-adv-x="1787" 
d="M313 1149l-4 1q135 0 222 -72t87 -199q0 -141 -102 -211q-101 -70 -225 -70q-113 0 -261 51l63 242h10q32 -104 81 -182q50 -78 105 -78q52 0 93 59t41 150q0 109 -52 160q-53 51 -132 51q-91 0 -171 -47l120 473h289q63 0 91 12t66 51l8 -2l-84 -231h-371l-45 -185
q64 27 171 27zM354 1l1008 1464h61l-1007 -1464h-62zM1397 -15v-6q-129 0 -217 63t-88 169q0 82 53 137t135 77q-156 84 -156 223q0 106 81 168q80 61 202 61q118 0 194 -55q77 -56 77 -133q0 -67 -57 -114q-57 -46 -119 -63q45 -26 66 -39t63 -48q43 -35 62 -81
q20 -48 20 -103q0 -122 -91 -189t-225 -67zM1477 521l-2 -1q71 70 69 168q0 68 -39 108t-94 40q-53 0 -84 -33q-32 -34 -32 -90q0 -59 45 -101q43 -40 137 -91zM1395 17v1q63 0 101 36t38 98q0 68 -54 125q-52 55 -179 127q-72 -72 -72 -189q0 -90 45 -144t121 -54z" />
    <glyph glyph-name="seveneighths" unicode="&#x215e;" horiz-adv-x="1636" 
d="M133 612l-2 1q66 343 344 675h-289q-66 0 -96 -18q-32 -19 -68 -70l-11 2l76 275h547v-31q-73 -80 -125 -167q-54 -90 -83 -156q-30 -68 -54 -170q-23 -95 -34 -163q-9 -51 -25 -178h-180zM203 1l1007 1464h62l-1008 -1464h-61zM1245 -15l-2 -6q-129 0 -217 63t-88 169
q0 83 54 137q55 55 135 77q-156 84 -155 223q0 106 81 168q80 61 201 61q118 0 194 -55q77 -56 77 -133q0 -67 -57 -114t-118 -63q45 -26 66 -39t63 -48q43 -35 62 -81q20 -48 20 -103q0 -122 -91 -189t-225 -67zM1323 521v-1q70 70 70 168q0 68 -39 108t-94 40
q-52 0 -84 -33q-32 -34 -32 -90q0 -59 44 -101q42 -41 135 -91zM1243 17v1q63 0 101 36t38 98q0 68 -54 125q-52 55 -179 127q-72 -72 -72 -189q0 -90 45 -144t121 -54z" />
    <glyph glyph-name="arrowleft" unicode="&#x2190;" horiz-adv-x="1171" 
d="M1114 573l-1 -71h-874q128 -56 253 -151q126 -96 186 -186l-227 -94q-113 280 -390 467q276 188 390 465l227 -95q-62 -92 -189 -186q-130 -96 -253 -149h878zM132 539l6 -2v4q-2 -2 -6 -2z" />
    <glyph glyph-name="arrowup" unicode="&#x2191;" horiz-adv-x="1048" 
d="M526 1063l-1 1q194 -281 468 -389l-94 -228q-90 57 -187 185q-95 124 -151 255v-879h-69v879q-56 -131 -151 -255q-96 -127 -187 -186l-93 228q271 108 465 389zM523 984h4q-2 2 -2 6q0 -4 -2 -6z" />
    <glyph glyph-name="arrowright" unicode="&#x2192;" horiz-adv-x="1171" 
d="M727 1004l2 3q109 -275 387 -465q-276 -190 -387 -468l-227 94q59 91 183 185q125 95 252 150h-875v71h879q-126 52 -255 149q-128 96 -186 186zM1038 540h3q2 2 3 2q-4 0 -6 2v-4z" />
    <glyph glyph-name="arrowdown" unicode="&#x2193;" horiz-adv-x="1048" 
d="M899 625l96 -227q-275 -110 -468 -390q-194 281 -465 389l93 228q91 -59 186 -186t150 -255v879h69v-879q56 129 151 255q96 127 188 186z" />
    <glyph glyph-name="uni2196" unicode="&#x2196;" horiz-adv-x="942" 
d="M885 199l-48 -51l-619 619q82 -207 82 -422q0 -71 -12 -126l-226 96q76 173 76 375q0 100 -22 228q132 -23 227 -23q196 0 377 78l96 -228q-54 -10 -119 -10q-228 0 -435 86z" />
    <glyph glyph-name="uni2197" unicode="&#x2197;" horiz-adv-x="944" 
d="M831 922h-1q-23 -129 -21 -230q0 -201 76 -375l-226 -96q-10 43 -10 121q0 230 82 430l-620 -620l-50 49l621 620q-200 -82 -430 -82q-74 0 -121 11l96 225q174 -76 375 -76q97 0 229 23z" />
    <glyph glyph-name="uni2198" unicode="&#x2198;" horiz-adv-x="942" 
d="M885 762l-1 2q-76 -174 -76 -377q0 -101 22 -227q-129 23 -227 21q-195 0 -377 -78l-96 228q54 10 119 10q223 0 435 -84l-623 623l50 49l620 -621q-82 201 -82 429q0 76 10 119z" />
    <glyph glyph-name="uni2199" unicode="&#x2199;" horiz-adv-x="942" 
d="M262 264q208 84 434 84q64 0 120 -10l-96 -227q-183 78 -377 77q-101 0 -227 -22q23 129 21 227q0 203 -76 377l226 94q12 -56 12 -123q0 -217 -84 -426l621 621l49 -51z" />
    <glyph glyph-name="minus" unicode="&#x2212;" horiz-adv-x="788" 
d="M760 723v-64h-727v64h727z" />
    <glyph glyph-name="glyph1" horiz-adv-x="0" 
 />
    <glyph glyph-name="glyph2" horiz-adv-x="681" 
 />
    <glyph glyph-name="J.aalt" horiz-adv-x="712" 
d="M276 1550l-20 1q22 181 30 327h317q-186 -194 -327 -328zM35 -267l-9 19q160 94 159 283v1173q0 122 -25 159q-26 38 -129 83v14h659v-14q-103 -45 -129 -83q-25 -37 -25 -159v-956q0 -102 -32 -189q-31 -85 -80 -138t-118 -93q-73 -42 -132 -62q-58 -20 -139 -37z" />
    <glyph glyph-name="R.aalt" horiz-adv-x="1497" 
d="M1300 211l-2 -1q64 -99 181 -197v-14h-447q-216 351 -402 700l-94 -4v-440q0 -121 26 -159t129 -83v-14h-659v14q103 45 129 83t26 159v952q0 122 -25 159q-26 38 -129 83v14h684q263 0 417 -98q153 -97 153 -261t-144 -272t-349 -108h-78v-6q96 -62 237 -63q46 0 81 7
q99 -187 266 -451zM535 1400l-1 -639h137q119 0 194 90t75 244q0 305 -299 305h-106z" />
    <glyph glyph-name="i.aalt" horiz-adv-x="583" 
d="M270 1137l-2 -2q-67 0 -117 47q-49 46 -49 110q0 61 50 108t117 47q69 0 116 -46q48 -47 48 -108q0 -66 -48 -111t-115 -45zM13 -2l1 13q78 41 99 78t21 148v415q0 96 -14 149q-13 50 -32 69q-18 18 -74 53v14q219 17 435 81v-780q0 -110 21 -148q21 -37 98 -78v-14h-555
z" />
    <glyph glyph-name="j.aalt" horiz-adv-x="571" 
d="M197 1137h-21q23 201 29 327h319q-159 -165 -327 -327zM-45 -428l-5 15q102 55 144 138t42 237v694q0 96 -15 147t-33 69q-19 19 -72 53v14q217 16 433 81v-877q0 -475 -494 -571z" />
    <glyph glyph-name="glyph372" horiz-adv-x="1529" 
d="M995 -27l-4 -3q-175 0 -374 72l79 375h15q58 -160 133 -272q76 -114 153 -114q71 0 129 75q59 76 59 200q0 101 -40 180q-41 81 -106 128q-66 48 -138 75t-149 39l-62 96l357 496q-107 102 -258 102q-115 0 -184 -70t-69 -195v-1159h-504v14q103 45 129 83t26 159v668
q0 270 140 419t429 149q172 0 307 -50q133 -50 207 -117v-20l-301 -379q89 -18 172 -57q81 -38 157 -99t119 -153q44 -94 44 -207q0 -201 -127 -318q-128 -117 -339 -117z" />
    <glyph glyph-name="a.salt" horiz-adv-x="1200" 
d="M444 -20l-1 3q-160 0 -277 130q-117 131 -117 372t121 387q121 147 313 147q72 0 135 -24q65 -25 101 -52q33 -25 75 -52q38 -24 65 -24q67 0 177 150h31v-805q0 -66 24 -91t98 -57v-14l-426 -72l-2 183h-2q-45 -77 -129 -129q-83 -52 -186 -52zM570 99h-2q95 0 183 121
v438q-33 122 -88 205q-55 84 -130 84q-160 0 -160 -391q0 -208 51 -333q51 -124 146 -124z" />
    <glyph glyph-name="glyph374" horiz-adv-x="1200" 
d="M545 1128h-21q23 201 29 328h319q-153 -160 -327 -328zM444 -20l-1 3q-160 0 -277 130q-117 131 -117 372t121 387q121 147 313 147q72 0 135 -24q65 -25 101 -52q33 -25 75 -52q38 -24 65 -24q67 0 177 150h31v-805q0 -66 24 -91t98 -57v-14l-426 -72l-2 183h-2
q-45 -77 -129 -129q-83 -52 -186 -52zM570 99h-2q95 0 183 121v438q-33 122 -88 205q-55 84 -130 84q-160 0 -160 -391q0 -208 51 -333q51 -124 146 -124z" />
    <glyph glyph-name="glyph375" horiz-adv-x="1200" 
d="M868 1460h19q-31 -346 -265 -346t-265 346h19q27 -84 99 -132t147 -48t147 48t99 132zM446 -20l-1 3q-160 0 -277 130q-117 131 -117 372t121 387q122 147 313 147q72 0 135 -24q65 -25 101 -52q33 -25 75 -52q38 -24 65 -24q67 0 177 150h31v-805q0 -66 24 -91t98 -57
v-14l-426 -72l-2 183h-2q-45 -77 -129 -129q-83 -52 -186 -52zM572 99h-2q95 0 183 121v438q-33 122 -88 205q-55 84 -130 84q-160 0 -160 -391q0 -208 51 -333q51 -124 146 -124z" />
    <glyph glyph-name="glyph376" horiz-adv-x="1200" 
d="M367 1114l-13 9q55 75 116 162q75 107 144 198h17q158 -234 258 -359l-10 -10l-256 150zM444 -21l-1 3q-160 0 -277 130t-117 372q0 241 121 387q121 147 313 147q72 0 135 -24q65 -25 101 -52q33 -25 75 -52q38 -24 65 -24q67 0 177 150h31v-805q0 -65 24 -91
q24 -25 98 -57v-14l-426 -72l-2 183h-2q-45 -76 -129 -129q-83 -52 -186 -52zM570 98h-2q95 0 183 121v438q-33 122 -88 205q-55 84 -130 84q-160 0 -160 -391q0 -209 51 -333t146 -124z" />
    <glyph glyph-name="glyph377" horiz-adv-x="1200" 
d="M436 1143l-1 -2q-57 0 -100 43t-43 100q0 58 43 101q44 44 101 44q58 0 101 -43q44 -44 44 -100q0 -57 -43 -100t-102 -43zM806 1141v-2q-57 0 -100 43t-43 100q0 58 43 101q44 44 100 44q57 0 100 -43t43 -100t-43 -100t-100 -43zM443 -24l-1 3q-160 0 -277 130
q-117 131 -117 372t121 387q121 147 313 147q72 0 135 -24q65 -25 101 -52q33 -25 75 -52q37 -24 65 -24q68 0 177 150h31v-805q0 -66 24 -91t98 -57v-14l-426 -72l-2 183h-2q-45 -77 -129 -129q-83 -52 -186 -52zM569 95h-2q95 0 183 121v438q-33 122 -88 205
q-56 84 -130 84q-160 0 -160 -391q0 -208 51 -333q51 -124 146 -124z" />
    <glyph glyph-name="glyph378" horiz-adv-x="1200" 
d="M709 1128l1 -1q-168 162 -328 328h317q7 -143 30 -327h-20zM445 -21l-1 3q-160 0 -277 130t-117 372q0 241 121 387q121 147 313 147q72 0 135 -24q65 -25 101 -52q33 -25 75 -52q37 -24 65 -24q68 0 177 150h31v-805q0 -65 24 -91q24 -25 98 -57v-14l-426 -72l-2 183h-2
q-45 -76 -129 -129q-83 -52 -186 -52zM571 98h-2q95 0 183 121v438q-33 122 -88 205q-56 84 -130 84q-160 0 -160 -391q0 -209 51 -333t146 -124z" />
    <glyph glyph-name="glyph379" horiz-adv-x="1200" 
d="M903 1337v-157h-549v157h549zM444 -20l-1 3q-160 0 -277 130q-117 131 -117 372t121 387q121 147 313 147q72 0 135 -24q65 -25 101 -52q33 -25 75 -52q38 -24 65 -24q67 0 177 150h31v-805q0 -66 24 -91t98 -57v-14l-426 -72l-2 183h-2q-45 -77 -129 -129
q-83 -52 -186 -52zM570 99h-2q95 0 183 121v438q-33 122 -88 205q-55 84 -130 84q-160 0 -160 -391q0 -208 51 -333q51 -124 146 -124z" />
    <glyph glyph-name="glyph380" horiz-adv-x="1200" 
d="M1016 20l-2 3q-55 -39 -100 -100q-45 -62 -45 -115q0 -41 25 -62q26 -21 61 -21q76 0 136 60l14 -10q-34 -70 -110 -114t-157 -44q-76 0 -123 38t-47 96q0 140 262 258l-170 -29l-2 183h-2q-45 -76 -128 -129q-82 -52 -186 -52q-160 0 -277 130t-117 372q0 241 121 387
q121 147 313 147q72 0 135 -24q65 -25 101 -52q33 -25 75 -52q37 -24 65 -24q68 0 177 150h31v-805q0 -65 24 -91q24 -25 98 -57v-14zM752 220l-2 438q-33 122 -88 205q-56 84 -130 84q-160 0 -160 -391q0 -208 51 -333q51 -124 146 -124t183 121z" />
    <glyph glyph-name="glyph381" horiz-adv-x="1200" 
d="M622 1079h-1q-78 0 -135 57t-57 139q0 79 57 135q58 56 135 56t133 -56t56 -135q0 -83 -55 -139q-55 -57 -133 -57zM627 1137l1 1q50 0 81 42q32 43 32 95q0 57 -36 97t-88 40q-49 0 -82 -39t-33 -94q0 -56 37 -99t88 -43zM443 -19l-1 3q-160 0 -277 130t-117 372
q0 241 121 387q121 147 313 147q72 0 135 -24q65 -25 101 -52q33 -25 75 -52q37 -24 65 -24q68 0 177 150h31v-805q0 -65 24 -91q24 -25 98 -57v-14l-426 -72l-2 183h-2q-45 -76 -129 -129q-83 -52 -186 -52zM569 100h-2q95 0 183 121v438q-33 122 -88 205q-56 84 -130 84
q-160 0 -160 -391q0 -209 51 -333t146 -124z" />
    <glyph glyph-name="glyph382" horiz-adv-x="1200" 
d="M545 1503h-21q23 201 29 328h319q-153 -160 -327 -328zM622 1079h-1q-78 0 -135 57t-57 139q0 79 57 135q58 56 135 56t133 -56t56 -135q0 -83 -55 -139q-55 -57 -133 -57zM627 1137l1 1q50 0 81 42q32 43 32 95q0 57 -36 97t-88 40q-49 0 -82 -39t-33 -94q0 -56 37 -99
t88 -43zM443 -19l-1 3q-160 0 -277 130t-117 372q0 241 121 387q121 147 313 147q72 0 135 -24q65 -25 101 -52q33 -25 75 -52q37 -24 65 -24q68 0 177 150h31v-805q0 -65 24 -91q24 -25 98 -57v-14l-426 -72l-2 183h-2q-45 -76 -129 -129q-83 -52 -186 -52zM569 100h-2
q95 0 183 121v438q-33 122 -88 205q-56 84 -130 84q-160 0 -160 -391q0 -209 51 -333t146 -124z" />
    <glyph glyph-name="glyph383" horiz-adv-x="1200" 
d="M934 1391l19 -6q-37 -219 -213 -219q-58 0 -145 31q-114 37 -153 37q-58 0 -117 -59l-17 4q26 125 81 173q56 48 166 48q16 0 115 -33q108 -35 129 -35q51 0 75 11q22 11 60 48zM443 -21l-1 3q-160 0 -277 130t-117 372q0 241 121 387q121 147 313 147q72 0 135 -24
q65 -25 101 -52q33 -25 75 -52q37 -24 65 -24q68 0 177 150h31v-805q0 -65 24 -91q24 -25 98 -57v-14l-426 -72l-2 183h-2q-45 -76 -129 -129q-83 -52 -186 -52zM569 98h-2q95 0 183 121v438q-33 122 -88 205q-56 84 -130 84q-160 0 -160 -391q0 -209 51 -333t146 -124z" />
    <glyph glyph-name="zero.zero" horiz-adv-x="1220" 
d="M610 1464h2q220 0 387 -204q166 -203 166 -550q0 -344 -165 -540q-165 -197 -387 -197q-224 0 -390 199t-166 543t166 546q167 203 387 203zM610 1407q-104 0 -168 -171q-64 -170 -64 -517q0 -103 6 -195q53 68 216 238q163 171 230 268q-27 192 -85 284q-59 93 -135 93z
M614 31l1 -1q102 0 168 167t66 513q0 89 -8 233q-55 -69 -219 -238q-164 -168 -230 -267q22 -206 81 -307q58 -100 141 -100z" />
    <glyph glyph-name="zero.superior" horiz-adv-x="802" 
d="M401 885q-137 0 -241 117q-103 116 -103 326q0 208 105 330q105 121 240 121q136 0 239 -121q104 -122 104 -330q0 -210 -103 -326q-104 -117 -241 -117zM400 922l1 -1q129 0 129 409q0 212 -36 312q-36 101 -94 101q-129 0 -129 -410q0 -411 129 -411z" />
    <glyph glyph-name="one.superior" horiz-adv-x="468" 
d="M63 901l-2 7q56 27 73 51q16 23 16 92v489q0 46 -21 68q-21 23 -89 56v6l319 115v-733q0 -66 15 -90t75 -51v-10h-386z" />
    <glyph glyph-name="two.superior" horiz-adv-x="624" 
d="M428 1073l-4 -1q64 0 95 18t75 69l8 -4l-78 -254h-524v31q192 195 277 327q84 131 84 232q0 77 -39 121q-39 43 -99 43q-94 0 -190 -105l-19 11q135 219 308 219q90 0 158 -60t68 -165q0 -63 -24 -123q-24 -59 -84 -124q-57 -61 -101 -102q-36 -33 -132 -112
q-7 -5 -15.5 -12.5t-9.5 -8.5h246z" />
    <glyph glyph-name="three.superior" horiz-adv-x="679" 
d="M43 1583l1 -1q124 195 317 195q91 0 147 -46q57 -47 57 -118q0 -78 -66 -135t-162 -87v-2q29 6 57 6q95 0 162 -61t67 -171q0 -129 -94 -204t-229 -75q-122 0 -264 51l80 205l10 -2q28 -86 75 -150q46 -64 105 -64q56 0 93 58t37 144q0 90 -42 147t-118 57
q-47 0 -104 -24l-8 26q225 110 225 232q0 52 -36 80q-37 29 -91 29q-116 0 -205 -102z" />
    <glyph glyph-name="four.superior" horiz-adv-x="733" 
d="M698 1153l-113 -2v-100q0 -67 14 -90q13 -22 74 -51v-10h-365v10q57 27 72 51t15 92v100h-370v16l532 607h29v-549h125zM122 1225h272v317z" />
    <glyph glyph-name="five.superior" horiz-adv-x="700" 
d="M309 1438l1 -1q137 0 224 -72t87 -201q0 -140 -102 -210q-101 -70 -225 -70q-115 0 -262 53l63 242h10q32 -104 81 -182q50 -78 105 -78q53 0 93 58q41 59 41 150q0 109 -52 160q-53 51 -132 51q-91 0 -171 -47l120 471h289q60 0 90 14q28 13 66 53l8 -2l-84 -232h-371
l-45 -184q72 27 166 27z" />
    <glyph glyph-name="six.superior" horiz-adv-x="765" 
d="M444 1389h-3q104 0 185 -60t81 -175q0 -122 -93 -196q-92 -73 -234 -73q-146 0 -235 86q-88 85 -88 240q0 225 165 380q165 154 392 186l4 -17q-146 -63 -240 -179q-93 -115 -120 -264q75 72 186 72zM384 918l-1 -1q55 0 90 54q35 55 35 140q0 88 -38 149q-38 60 -108 60
q-66 0 -113 -51q-4 -36 -4 -72q0 -128 38 -204q37 -75 101 -75z" />
    <glyph glyph-name="seven.superior" horiz-adv-x="645" 
d="M133 901v2q66 343 344 675h-289q-66 0 -96 -18q-32 -19 -68 -70l-11 2l76 272h547v-28q-88 -98 -147 -198t-93 -216q-33 -111 -49 -198q-13 -73 -34 -223h-180z" />
    <glyph glyph-name="eight.superior" horiz-adv-x="735" 
d="M362 885l-3 -5q-129 0 -217 63t-88 169q0 83 54 137q55 55 136 77q-156 84 -156 225q0 103 81 165q80 61 202 61q118 0 194 -55q77 -56 77 -133q0 -67 -57 -114t-118 -63q45 -26 66 -39t63 -48q43 -35 62 -81q20 -48 20 -103q0 -122 -91 -189t-225 -67zM439 1422v-1
q70 73 70 168q0 67 -39 108q-39 40 -94 40q-52 0 -84 -33q-32 -34 -32 -90q0 -59 44 -101q42 -41 135 -91zM359 918q62 0 101 36t39 98q0 68 -54 125q-52 55 -179 127q-72 -72 -71 -189q0 -91 45 -144t119 -53z" />
    <glyph glyph-name="nine.superior" horiz-adv-x="716" 
d="M360 1780h-1q149 0 237 -86q87 -86 87 -242q0 -223 -164 -379q-163 -155 -393 -187l-4 18q147 62 240 177q94 116 119 264q-79 -70 -186 -70q-103 0 -182 60q-80 60 -80 174q0 125 93 198q92 73 234 73zM376 1343l1 -3q66 0 110 50q5 45 6 75q0 129 -37 204
q-37 76 -102 76q-56 0 -93 -54q-37 -53 -37 -142q0 -87 40 -146q40 -60 112 -60z" />
    <glyph glyph-name="zero.superior.zero" horiz-adv-x="753" 
d="M377 1780h-4q135 0 240 -121t105 -330q0 -210 -103 -326q-103 -117 -240 -117t-240 117q-103 116 -103 326q0 209 105 330t240 121zM371 1743h1q-58 0 -92 -102q-35 -103 -35 -309q0 -54 2 -92q17 23 113 123q94 99 132 157q-27 223 -121 223zM374 922h1q57 0 93 98
t36 305q0 58 -4 121q-27 -32 -117 -126t-129 -153q23 -245 120 -245z" />
    <glyph glyph-name="zero.oldstyle" horiz-adv-x="1114" 
d="M559 -25h-1q-221 0 -365 150t-144 366t144 372t365 156q220 0 363 -156q143 -157 143 -372q0 -216 -141 -366t-364 -150zM558 31v-1q177 0 310 122q132 122 132 339q0 215 -132 342q-131 127 -310 127t-313 -128q-133 -127 -133 -343q0 -215 134 -337q133 -121 312 -121z
" />
    <glyph glyph-name="one.oldstyle" horiz-adv-x="634" 
d="M502 240l2 1q0 -111 21 -148t99 -78v-14h-541v14q78 41 99 78t21 148v444q0 86 -31 117q-32 32 -139 56v14l469 148v-780z" />
    <glyph glyph-name="two.oldstyle" horiz-adv-x="993" 
d="M688 236h1q75 0 122 16q49 17 69 34q24 21 71 69l15 -4l-50 -155l-63 -195h-811v55q297 229 418 361q121 131 121 249q0 86 -57 135q-58 50 -141 50q-121 0 -267 -129l-39 12q193 283 444 283q135 0 231 -75t96 -200q0 -133 -123 -247q-121 -112 -383 -259h346z" />
    <glyph glyph-name="three.oldstyle" horiz-adv-x="976" 
d="M43 723l-2 -1q91 134 218 214q125 79 269 79q142 0 231 -73q90 -74 90 -186q0 -118 -97 -203q-98 -85 -249 -135v-2q53 8 82 8q141 0 248 -95t107 -267q0 -201 -148 -315t-355 -114q-188 0 -407 82l118 285l15 -2q125 -309 293 -309q95 0 158 93t63 228q0 136 -69 225
t-190 89q-78 0 -168 -37l-12 37q364 174 363 364q0 86 -57 131t-145 45q-187 0 -333 -162z" />
    <glyph glyph-name="four.oldstyle" horiz-adv-x="1138" 
d="M1083 49l-185 1v-155q0 -106 23 -144q23 -37 126 -81v-14h-564v14q100 43 124 79t24 145v155h-590v27l811 936h47v-854h203zM181 159h449v524z" />
    <glyph glyph-name="five.oldstyle" horiz-adv-x="1009" 
d="M461 481l1 1q208 0 342 -111q133 -111 133 -304q0 -111 -46 -199t-123 -139q-75 -50 -162 -76q-84 -25 -176 -25q-176 0 -401 84l96 336h14q128 -371 295 -371q88 0 159 93q71 94 71 246q0 164 -84 243q-85 80 -215 80q-150 0 -277 -76l182 725h445q94 0 139 21
q46 21 107 87l12 -4l-127 -347h-574l-75 -307q102 43 264 43z" />
    <glyph glyph-name="six.oldstyle" horiz-adv-x="1153" 
d="M670 813l-6 -1q174 0 304 -102t130 -288q0 -202 -150 -326q-151 -125 -380 -125q-232 0 -378 140q-145 139 -145 408q0 245 127 448q128 204 330 327q204 124 444 164l4 -26q-247 -107 -402 -301t-199 -443q137 125 321 125zM578 24l-1 -3q98 0 164 91q66 92 66 241
q0 150 -66 252t-195 102q-125 0 -213 -97q-6 -52 -6 -105q0 -220 68 -351q67 -130 183 -130z" />
    <glyph glyph-name="seven.oldstyle" horiz-adv-x="980" 
d="M207 -348h-2q106 542 549 1069h-457q-102 0 -151 -25q-50 -26 -117 -115l-15 4l115 405h850v-43q-136 -156 -228 -310q-93 -156 -147 -327t-81 -312q-27 -142 -54 -346h-262z" />
    <glyph glyph-name="eight.oldstyle" horiz-adv-x="1081" 
d="M535 -27l-2 1q-203 0 -344 102t-141 275q0 131 84 225q85 95 225 134q-258 136 -258 363q0 169 130 266q131 98 319 98q183 0 305 -88q123 -89 123 -216q0 -113 -91 -194q-93 -82 -196 -116q51 -27 84 -45q35 -19 89 -60q56 -43 87 -85q32 -44 57 -109q26 -67 26 -139
q0 -187 -143 -300q-142 -112 -354 -112zM651 847l-1 2q127 117 127 287q0 112 -64 179q-65 68 -162 68q-89 0 -144 -58t-55 -156q0 -100 69 -169q68 -68 230 -153zM534 34l-1 1q107 0 174 66q68 66 68 173q0 118 -91 210q-91 93 -292 202q-137 -110 -137 -318
q0 -156 78 -245t201 -89z" />
    <glyph glyph-name="nine.oldstyle" horiz-adv-x="1099" 
d="M551 1018l-2 -2q223 0 362 -131q138 -131 138 -378q0 -341 -250 -579q-251 -239 -604 -294l-4 25q233 98 383 281q151 184 191 414q-128 -117 -307 -116q-164 0 -287 93t-123 267q0 186 143 303t360 117zM569 332l-1 -1q117 0 205 88q4 59 4 104q0 202 -64 323
q-65 122 -174 122q-91 0 -154 -86t-63 -225q0 -137 63 -231t184 -94z" />
    <glyph glyph-name="zero.tnum" 
d="M573 -27l1 -2q-211 0 -372 200q-160 199 -160 546q0 339 161 544q161 204 369 204t369 -204q161 -205 161 -548q0 -344 -159 -542t-370 -198zM574 29l-2 1q98 0 155 177t57 509q0 346 -59 520q-58 172 -156 172q-95 0 -153 -172q-58 -171 -58 -519q0 -349 60 -519
q60 -169 156 -169z" />
    <glyph glyph-name="one.tnum" 
d="M295 0l-2 14q109 46 133 87t24 156v836q0 77 -38 113q-38 37 -153 83v12l498 177v-1221q0 -115 24 -156t132 -87v-14h-618z" />
    <glyph glyph-name="two.tnum" 
d="M752 258l-2 2q108 0 163 32q54 32 125 122l15 -6l-127 -406h-862v49q322 325 468 551t146 399q0 129 -66 202t-167 73q-167 0 -324 -180l-31 16q92 152 219 254t279 102q148 0 258 -100q111 -100 111 -273q0 -61 -18 -126q-19 -67 -40 -114q-22 -48 -78 -118
q-63 -78 -91 -111q-34 -39 -120 -121q-83 -79 -127 -118q-75 -67 -145 -129h414z" />
    <glyph glyph-name="three.tnum" 
d="M109 1151v-2q97 145 231 229t283 84q147 0 241 -78t94 -199q0 -235 -366 -363v-2q37 8 80 8q154 0 268 -102t114 -287q0 -217 -156 -342q-155 -124 -375 -124q-197 0 -428 88l123 304l16 -5q129 -328 306 -327q102 0 168 102t66 247q0 147 -72 243t-199 96
q-76 0 -178 -41l-13 41q383 186 383 393q0 95 -60 143t-151 48q-200 0 -351 -175z" />
    <glyph glyph-name="four.tnum" 
d="M1110 422h-194v-166q0 -116 24 -156t132 -87v-14h-594v14q109 46 133 87q24 40 24 156v166h-623v31l854 1007h52v-919h212zM160 541h473v573z" />
    <glyph glyph-name="five.tnum" 
d="M528 895l1 -3q219 0 360 -120t141 -329q0 -157 -86 -269q-85 -111 -202 -157q-116 -46 -246 -46q-184 0 -423 93l102 352h14q135 -391 310 -391q95 0 168 100q74 101 74 267q0 178 -88 265q-89 87 -228 87q-153 0 -289 -83l191 778h467q102 0 150 24q47 24 112 93l12 -4
l-135 -368h-604l-80 -336q114 47 279 47z" />
    <glyph glyph-name="six.tnum" 
d="M664 815l-2 -1q174 0 304 -102t130 -288q0 -202 -150 -326q-151 -125 -378 -125q-231 0 -379 140q-147 139 -147 408q0 183 74 348q74 163 198 282q124 118 287 198q164 80 340 110l6 -26q-245 -103 -403 -300t-201 -447q131 129 321 129zM578 24l-3 -1q98 0 164 92
q66 91 66 243q0 150 -66 251t-195 101q-125 0 -213 -97q-6 -55 -6 -108q0 -219 69 -350t184 -131z" />
    <glyph glyph-name="seven.tnum" 
d="M266 0v-1q112 592 578 1158h-482q-110 0 -163 -30t-120 -124l-14 4l120 432h895v-45q-142 -166 -240 -333q-96 -164 -154 -350t-86 -335q-29 -153 -57 -376h-277z" />
    <glyph glyph-name="eight.tnum" 
d="M565 -27l-2 -3q-207 0 -352 105t-145 281q0 134 87 231q88 98 228 137q-262 141 -262 371q0 172 133 271q134 99 324 99q186 0 312 -90t126 -221q0 -116 -94 -198q-95 -83 -198 -113q68 -37 87 -49q28 -17 88 -63q59 -45 90 -87q33 -43 59 -108q27 -66 27 -142
q0 -193 -147 -307t-361 -114zM682 863l-2 2q129 119 129 288q0 116 -66 185t-163 69q-90 0 -147 -60t-57 -156q0 -103 72 -173q73 -72 234 -155zM561 32l-1 -1q111 0 179 68t68 176q0 118 -92 213t-299 209q-139 -115 -139 -325q0 -157 80 -249q79 -91 204 -91z" />
    <glyph glyph-name="nine.tnum" 
d="M573 1466l3 1q233 0 378 -139q146 -140 146 -408q0 -245 -127 -450t-330 -328q-201 -122 -444 -163l-4 26q247 107 402 301q157 196 200 445q-130 -127 -320 -127q-173 0 -304 102q-130 102 -130 289q0 201 152 326t378 125zM597 730l-2 -1q125 0 213 96q6 55 6 109
q0 220 -67 350q-68 131 -183 131q-98 0 -164 -92q-66 -91 -66 -240q0 -151 68 -252t195 -101z" />
    <glyph glyph-name="zero.tnum.zero" 
d="M571 1466l1 -2q208 0 369 -204q161 -205 161 -548q0 -344 -159 -542t-370 -198q-212 0 -372 199t-160 543t159 548t371 204zM570 1407l-2 -2q-97 0 -154 -179q-57 -178 -57 -504q0 -86 4 -183q51 61 198 213q148 152 212 242q-23 209 -75 311t-126 102zM572 27l-2 1
q95 0 153 169q59 171 59 519q0 104 -6 194q-48 -58 -198 -214q-147 -153 -210 -243q40 -426 204 -426z" />
    <glyph glyph-name="zero.tnum.oldstyle" 
d="M573 -25v-1q-222 0 -366 150t-144 363q0 215 144 372t366 157q221 0 364 -156q142 -155 142 -372q0 -214 -142 -363q-143 -150 -364 -150zM570 30l-1 -2q179 0 312 123q134 123 134 336q0 217 -132 346t-310 129t-312 -128t-134 -345q0 -213 134 -336q133 -123 309 -123z
" />
    <glyph glyph-name="one.tnum.oldstyle" 
d="M756 240l2 1q0 -111 21 -148t99 -78v-14h-541v14q78 41 99 78t21 148v446q0 86 -31 117q-32 32 -139 56v14l469 148v-782z" />
    <glyph glyph-name="two.tnum.oldstyle" 
d="M762 236v2q72 0 123 17q49 16 68 32q18 15 71 68l14 -4l-49 -155l-63 -195h-811v55q297 226 417 360t120 251q0 85 -57 135q-58 50 -141 50q-118 0 -267 -129l-38 12q193 283 444 283q133 0 231 -75t98 -200q0 -134 -124 -249q-125 -116 -382 -258h346z" />
    <glyph glyph-name="three.tnum.oldstyle" 
d="M133 725l-1 -2q90 135 217 214t271 79q139 0 228 -74t89 -186q0 -119 -99 -203t-247 -135v-2q56 8 84 8q140 0 246 -95q105 -95 105 -267q0 -201 -147 -315t-354 -114q-189 0 -408 82l119 285l14 -2q124 -309 293 -309q95 0 158 93t63 228q0 136 -69 225t-190 89
q-78 0 -168 -37l-10 37q362 176 362 366q0 86 -57 131t-145 45q-185 0 -331 -161z" />
    <glyph glyph-name="four.tnum.oldstyle" 
d="M1083 49l-183 1v-155q0 -107 21 -144t128 -81v-14h-566v14q103 45 126 81q22 35 22 143v155h-590v27l811 938h47v-856h203zM183 159h449v526z" />
    <glyph glyph-name="five.tnum.oldstyle" 
d="M528 481l-2 2q211 0 346 -111t135 -304q0 -110 -48 -199q-48 -88 -123 -139q-73 -50 -161 -76q-84 -25 -176 -25q-179 0 -402 84l99 336h12q128 -371 295 -371q89 0 159 93q71 94 71 246q0 163 -84 243q-85 80 -215 80q-151 0 -276 -76l182 727h444q90 0 138 20
q47 20 110 87l10 -4l-127 -346h-573l-76 -310q99 43 262 43z" />
    <glyph glyph-name="six.tnum.oldstyle" 
d="M664 815l-2 -1q174 0 304 -102t130 -288q0 -202 -150 -326q-151 -125 -378 -125q-231 0 -379 140q-147 139 -147 408q0 183 74 348q74 163 198 282q124 118 287 198q164 80 340 110l6 -26q-245 -103 -403 -300t-201 -447q131 129 321 129zM578 24l-3 -1q98 0 164 92
q66 91 66 243q0 150 -66 251t-195 101q-125 0 -213 -97q-6 -55 -6 -108q0 -219 69 -350t184 -131z" />
    <glyph glyph-name="seven.tnum.oldstyle" 
d="M283 -348l-3 -1q106 545 549 1071h-458q-98 0 -148 -25q-51 -25 -118 -115l-14 4l113 405h852v-43q-136 -156 -228 -310q-93 -157 -147 -328q-53 -168 -82 -312q-29 -140 -54 -346h-262z" />
    <glyph glyph-name="eight.tnum.oldstyle" 
d="M565 -27l1 1q-202 0 -345 104q-142 103 -142 278q0 136 88 225q89 91 223 131q-258 136 -258 363q0 168 131 266t318 98q179 0 303 -89q123 -88 123 -221q0 -107 -91 -189t-193 -115q73 -39 110 -63q39 -26 102 -81q63 -56 96 -130q33 -75 33 -165q0 -188 -144 -300
q-145 -113 -355 -113zM683 849q127 117 127 285q0 112 -64 180q-64 69 -160 69q-88 0 -145 -59q-57 -58 -57 -153q0 -100 69 -169q68 -68 230 -153zM568 32h1q106 0 174 68t68 171q0 118 -91 210q-92 94 -292 204q-139 -111 -139 -319q0 -154 78 -244t201 -90z" />
    <glyph glyph-name="nine.tnum.oldstyle" 
d="M571 1020l-2 -1q220 0 360 -131t140 -381q0 -225 -122 -418q-121 -192 -312 -306q-192 -115 -417 -149l-6 25q233 98 383 279q151 182 191 413q-129 -116 -305 -114q-165 0 -287 94q-123 95 -123 268q0 184 143 303q142 118 357 118zM590 333h1q117 0 205 88q4 59 4 104
q0 202 -64 324q-64 123 -174 123q-94 0 -157 -87t-63 -225t63 -232q63 -95 185 -95z" />
    <glyph glyph-name="zero.inferior" horiz-adv-x="753" 
d="M377 -303h-4q-137 0 -240 117q-103 116 -103 326q0 208 105 330q105 121 240 121t240 -121q105 -122 105 -330q0 -210 -103 -326q-103 -117 -240 -117zM373 -266v-1q129 0 129 409q0 212 -36 312q-36 101 -93 101q-129 0 -129 -410q0 -411 129 -411z" />
    <glyph glyph-name="one.inferior" horiz-adv-x="468" 
d="M63 -287l-1 10q56 26 73 50q16 22 16 90v489q0 47 -21 68q-22 22 -89 56v6l319 115v-733q0 -66 14 -91q13 -23 75 -49v-11h-386z" />
    <glyph glyph-name="two.inferior" horiz-adv-x="624" 
d="M428 -115l-4 -3q61 0 94 18q32 17 76 69l8 -4l-78 -254h-524v31q192 195 277 327q84 131 84 232q0 78 -40 121t-100 43q-92 0 -188 -105l-19 11q135 219 308 219q90 0 158 -60t68 -164q0 -63 -24 -123q-24 -59 -84 -124t-101 -101q-31 -28 -132 -112q-7 -5 -15.5 -12.5
t-9.5 -8.5h246z" />
    <glyph glyph-name="three.inferior" horiz-adv-x="655" 
d="M43 395l-2 -2q55 88 139 142t180 54q89 0 147 -47q57 -46 57 -119q0 -77 -66 -132t-162 -87v-2q27 6 57 6q95 0 162 -61t67 -171q0 -129 -94 -204t-229 -75q-121 0 -264 51l80 205l10 -2q29 -85 75 -150q46 -64 105 -64q55 0 93 59q37 58 37 144q0 90 -42 146t-118 56
q-47 0 -104 -24l-8 26q225 110 225 231q0 52 -35 81t-87 29q-119 0 -209 -102z" />
    <glyph glyph-name="four.inferior" horiz-adv-x="733" 
d="M698 -35l-113 1v-100q0 -67 14 -90q13 -22 74 -51v-11h-365v11q57 27 72 50t15 90v100h-370v17l532 606h29v-549h125zM122 40h272v317z" />
    <glyph glyph-name="five.inferior" horiz-adv-x="675" 
d="M309 250l1 -1q137 0 224 -72t87 -201q0 -140 -102 -210q-101 -70 -225 -70q-115 0 -262 53l63 242h10q32 -104 81 -182q50 -78 105 -78q53 0 93 58q41 59 41 151q0 109 -52 160q-53 51 -132 51q-91 0 -171 -48l120 471h289q60 0 90 14q28 13 66 53l8 -2l-84 -231h-371
l-45 -185q72 27 166 27z" />
    <glyph glyph-name="six.inferior" horiz-adv-x="765" 
d="M444 201l-3 -2q104 0 185 -60t81 -175q0 -122 -93 -196q-92 -73 -234 -73q-146 0 -235 86q-88 85 -88 242q0 225 164 380q163 155 393 186l4 -17q-148 -63 -240 -178q-93 -116 -120 -265q75 72 186 72zM384 -272l-1 -1q55 0 90 54q35 55 35 140q0 88 -38 149
q-38 60 -108 60q-66 0 -113 -51q-4 -36 -4 -72q0 -128 38 -204q37 -75 101 -75z" />
    <glyph glyph-name="seven.inferior" horiz-adv-x="645" 
d="M133 -287q66 343 344 675h-289q-66 0 -96 -18q-31 -19 -68 -70l-11 2l76 272h547v-28q-88 -98 -147 -198t-93 -216q-33 -112 -49 -196q-13 -72 -34 -223h-180z" />
    <glyph glyph-name="eight.inferior" horiz-adv-x="686" 
d="M338 -303l-1 -4q-129 0 -217 63t-88 169q0 82 53 137t135 77q-156 84 -155 226q0 104 81 164t202 60q118 0 194 -55q77 -56 77 -133q0 -67 -57 -114q-57 -46 -119 -63q45 -26 66 -39t63 -48q43 -35 62 -81q20 -48 20 -103q0 -122 -91 -189t-225 -67zM417 236v1
q71 71 69 168q0 68 -39 107t-94 39q-53 0 -84 -33q-31 -32 -31 -90q0 -59 44 -101q42 -41 135 -91zM337 -267v-1q64 0 101 37q38 38 38 99q0 68 -54 125q-52 55 -179 127q-72 -72 -72 -189q0 -90 45 -144t121 -54z" />
    <glyph glyph-name="nine.inferior" horiz-adv-x="716" 
d="M360 592l-1 1q149 0 237 -86q87 -85 87 -242q0 -223 -164 -379q-163 -155 -393 -187l-4 18q147 61 240 177q94 116 119 264q-79 -70 -186 -70q-103 0 -182 60q-80 60 -80 175q0 125 93 197t234 72zM376 157h1q67 0 110 49q5 45 6 76q0 129 -37 203q-38 75 -102 75
q-56 0 -93 -54q-37 -53 -37 -143q0 -87 40 -146q40 -60 112 -60z" />
    <glyph glyph-name="zero.dnom" horiz-adv-x="835" 
d="M418 -16h-4q-136 0 -240 117q-103 116 -103 326q0 209 105 330t240 121t240 -121t105 -330q0 -210 -103 -326q-104 -117 -240 -117zM414 20v-1q129 0 129 410q0 211 -36 312t-93 101q-129 0 -129 -410q0 -412 129 -412z" />
    <glyph glyph-name="one.dnom" horiz-adv-x="550" 
d="M104 0l-2 7q56 27 73 51q16 23 16 92v489q0 45 -21 68t-89 56v6l319 115v-733q0 -66 15 -90t74 -51v-10h-385z" />
    <glyph glyph-name="two.dnom" horiz-adv-x="706" 
d="M469 172l-4 -1q63 0 95 18t75 69l8 -4l-78 -254h-524v31q191 194 277 326q84 129 84 233q0 78 -40 121t-100 43q-92 0 -188 -105l-19 10q135 218 308 220q91 0 158 -60q68 -60 68 -165q0 -63 -24 -123q-24 -59 -84 -124q-57 -61 -101 -102q-36 -33 -132 -112
q-7 -5 -15.5 -12.5t-9.5 -8.5h246z" />
    <glyph glyph-name="three.dnom" horiz-adv-x="737" 
d="M84 682v-2q125 195 317 195q91 0 147 -46q57 -47 57 -117q0 -78 -66 -135t-162 -87v-3q25 5 57 7q95 0 162 -61t67 -171q0 -129 -94 -204q-95 -75 -229 -75q-122 0 -264 51l80 205l10 -2q28 -85 75 -150q46 -64 105 -64q56 0 93 58t37 144q0 90 -42 147t-118 57
q-47 0 -104 -24l-8 26q225 109 225 231q0 52 -35 81t-87 29q-119 0 -209 -102z" />
    <glyph glyph-name="four.dnom" horiz-adv-x="815" 
d="M739 252l-113 -2v-100q0 -67 14 -90q13 -22 74 -51v-10h-365v10q57 27 72 51t15 92v100h-370v16l532 606h29v-548h125zM163 324h272v317z" />
    <glyph glyph-name="five.dnom" horiz-adv-x="757" 
d="M350 537l1 -2q137 0 224 -72t87 -201q0 -140 -102 -210q-101 -70 -225 -70q-115 0 -262 53l63 242h10q32 -104 81 -182t105 -78q52 0 93 59t41 150q0 109 -52 160t-132 51q-91 0 -171 -47l120 471h289q60 0 90 14q28 13 66 53l8 -2l-84 -232h-371l-45 -184q72 27 166 27z
" />
    <glyph glyph-name="six.dnom" horiz-adv-x="798" 
d="M461 487l2 -3q103 0 183 -59q79 -58 79 -174q0 -122 -92 -196q-91 -73 -234 -73q-151 0 -237 85q-87 85 -87 243q0 223 164 378t393 188l2 -19q-147 -61 -240 -177t-120 -264q77 71 187 71zM405 13h1q55 0 91 54t36 143q0 86 -39 147q-39 62 -111 62q-64 0 -113 -49
q-4 -40 -4 -76q0 -127 38 -205q37 -76 101 -76z" />
    <glyph glyph-name="seven.dnom" horiz-adv-x="727" 
d="M174 0v2q66 343 344 675h-289q-66 0 -96 -18q-31 -18 -69 -70l-10 2l76 272h547v-28q-89 -97 -147 -198t-93 -216q-33 -111 -49 -198q-13 -73 -34 -223h-180z" />
    <glyph glyph-name="eight.dnom" horiz-adv-x="768" 
d="M379 -16v-6q-129 0 -217 63t-88 169q0 82 53 137t135 77q-156 84 -156 223q0 107 81 168q80 61 202 61q118 0 194 -55q77 -56 77 -133q0 -68 -57 -114t-119 -63q45 -25 66 -39t63 -48q43 -35 62 -81q20 -48 20 -103q0 -122 -91 -189t-225 -67zM459 520v-1q71 71 69 168
q0 67 -39 108q-39 40 -94 40q-53 0 -84 -33q-31 -32 -31 -90q0 -59 44 -101q42 -41 135 -91zM379 16v1q63 0 101 36t38 98q0 68 -54 125q-52 55 -179 127q-72 -72 -72 -189q0 -90 45 -144t121 -54z" />
    <glyph glyph-name="nine.dnom" horiz-adv-x="798" 
d="M401 879l-1 -1q149 0 237 -86q87 -85 87 -242q0 -223 -164 -379t-393 -186l-4 18q147 61 240 177q94 116 119 263q-80 -71 -186 -69q-102 0 -182 60t-80 174q0 124 93 198q92 73 234 73zM417 441v-3q66 0 110 50q4 40 4 75q0 127 -36 204q-36 76 -100 76q-55 0 -93 -54
q-37 -53 -37 -142q0 -87 40 -146q41 -60 112 -60z" />
    <glyph glyph-name="zero.numr" horiz-adv-x="753" 
d="M377 598l-4 -1q-137 0 -240 117q-103 116 -103 326q0 208 105 330q105 121 240 121t240 -121q105 -122 105 -330q0 -209 -103 -325q-103 -117 -240 -117zM373 632v-1q129 0 129 409q0 212 -36 312q-36 101 -93 101q-129 0 -129 -410q0 -411 129 -411z" />
    <glyph glyph-name="one.numr" horiz-adv-x="468" 
d="M63 612l-2 10q56 26 73 50q16 22 16 90v489q0 45 -21 68t-89 56v6l319 115v-733q0 -66 15 -90q15 -25 75 -50v-11h-386z" />
    <glyph glyph-name="two.numr" horiz-adv-x="624" 
d="M428 784l-4 -3q64 0 95 18t75 69l8 -4l-78 -254h-524v31q192 195 277 327q84 130 84 232q0 78 -40 121t-100 43q-92 0 -188 -104l-19 10q135 219 308 219q90 0 158 -60t68 -164q0 -63 -24 -123q-24 -59 -84 -124t-101 -101q-31 -28 -132 -112q-7 -5 -15.5 -12.5
t-9.5 -8.5h246z" />
    <glyph glyph-name="three.numr" horiz-adv-x="655" 
d="M43 1294l2 -4q57 91 140 144t177 53q89 0 147 -47q57 -47 57 -119q0 -79 -66 -134t-162 -84v-2q27 6 55 6q95 0 162 -61q68 -62 68 -171q0 -129 -94 -204q-95 -75 -229 -75q-117 0 -264 53l80 203l10 -2q28 -86 75 -150q46 -64 105 -64q55 0 93 59q37 58 37 144
q0 91 -42 146q-42 56 -118 56q-47 0 -104 -24l-8 26q225 109 225 231q0 52 -35 81t-87 29q-121 0 -210 -102z" />
    <glyph glyph-name="four.numr" horiz-adv-x="733" 
d="M698 864l-113 1v-100q0 -67 14 -90q13 -22 74 -51v-11h-365v11q57 27 72 50q15 22 15 90v100h-370v17l532 608h29v-551h125zM122 939h272v317z" />
    <glyph glyph-name="five.numr" horiz-adv-x="675" 
d="M313 1149l-4 1q135 0 222 -72t87 -199q0 -141 -102 -211q-101 -70 -225 -70q-113 0 -261 51l63 242h10q32 -104 81 -182q50 -78 105 -78q52 0 93 59t41 150q0 109 -52 160q-53 51 -132 51q-91 0 -171 -47l120 473h289q63 0 91 12t66 51l8 -2l-84 -231h-371l-45 -185
q64 27 171 27z" />
    <glyph glyph-name="six.numr" horiz-adv-x="765" 
d="M446 1102l-1 -3q103 0 183 -60t80 -175q0 -123 -93 -195t-234 -72q-151 0 -237 85q-87 86 -87 241q0 225 164 380q163 155 393 186l4 -16q-146 -63 -240 -179q-93 -115 -120 -266q77 74 188 74zM386 626h-1q55 0 90 54q35 55 35 140q0 88 -38 149q-38 60 -108 60
q-66 0 -113 -51q-4 -36 -4 -72q0 -126 38 -204q37 -76 101 -76z" />
    <glyph glyph-name="seven.numr" horiz-adv-x="645" 
d="M133 612l-2 1q66 343 344 675h-289q-66 0 -96 -18q-32 -19 -68 -70l-11 2l76 275h547v-31q-73 -80 -125 -167q-54 -90 -83 -156q-30 -68 -54 -170q-23 -95 -34 -163q-9 -51 -25 -178h-180z" />
    <glyph glyph-name="eight.numr" horiz-adv-x="686" 
d="M338 598l-1 -6q-128 0 -217 62q-88 61 -88 168q0 82 53 137t135 77q-156 84 -155 226q0 104 81 164t202 60q118 0 194 -55q77 -56 77 -132q0 -67 -57 -114q-57 -46 -119 -63q45 -26 66 -39t63 -48q43 -35 62 -81q20 -48 20 -103q0 -121 -91 -187t-225 -66zM417 1133v2
q71 73 69 168q0 68 -39 107t-94 39q-53 0 -84 -33q-31 -32 -31 -91t44 -101q42 -41 135 -91zM339 631l1 -2q62 0 99 37q38 38 38 99q0 68 -54 125q-52 55 -179 127q-72 -72 -72 -186q0 -91 47 -146q47 -54 120 -54z" />
    <glyph glyph-name="nine.numr" horiz-adv-x="716" 
d="M360 1491l-1 1q149 0 237 -86q87 -86 87 -242q0 -223 -164 -379q-163 -155 -393 -187l-4 18q147 62 240 177q94 116 119 264q-79 -70 -186 -70q-103 0 -182 60q-80 60 -80 175q0 125 93 197t234 72zM376 1056l1 -1q67 0 110 49q5 45 6 76q0 129 -37 203q-38 75 -102 75
q-56 0 -93 -54q-37 -53 -37 -142q0 -87 40 -146q40 -60 112 -60z" />
    <glyph glyph-name="zero.inferior.zero" horiz-adv-x="753" 
d="M377 592h-4q135 0 240 -121t105 -330q0 -210 -103 -326q-103 -117 -240 -117t-240 117q-103 116 -103 326q0 209 105 330t240 121zM371 555v-1q-127 0 -127 -426q0 -38 2 -74q17 23 113 123q94 99 132 157q-29 221 -120 221zM373 -267v1q57 0 93 98q36 97 36 305
q0 60 -4 123q-25 -31 -119 -129q-90 -95 -129 -150q27 -248 123 -248z" />
    <glyph glyph-name="zero.dnom.zero" horiz-adv-x="802" 
d="M401 879q136 0 239 -121q104 -122 104 -330q0 -210 -103 -326q-103 -117 -241 -117q-137 0 -241 117q-103 116 -103 326q0 208 105 330q105 121 240 121zM398 842l1 3q-57 0 -92 -102q-35 -103 -35 -309v-65q18 19 81 84t99 108t63 90q-33 191 -117 191zM401 23
q129 0 129 412q0 78 -6 141q-38 -54 -128 -147q-88 -91 -120 -129q22 -277 125 -277z" />
    <glyph glyph-name="zero.numr.zero" horiz-adv-x="802" 
d="M401 1491v-1q136 0 239 -121q104 -122 104 -330q0 -209 -103 -325q-103 -117 -241 -117q-137 0 -241 117q-103 116 -103 326q0 208 105 330q105 121 240 121zM398 1453l1 1q-57 0 -92 -102q-35 -103 -35 -309v-65q18 20 81 84q65 67 99 109q35 44 63 92q-33 190 -117 190
zM401 633q129 0 129 411q0 78 -6 142q-37 -48 -126 -142q-90 -95 -122 -135q22 -276 125 -276z" />
    <glyph glyph-name="colon.aalt" horiz-adv-x="493" 
d="M250 811q-71 0 -120 49t-49 117q0 71 49 120t120 49q68 0 117 -49t49 -120q0 -68 -49 -117t-117 -49zM250 143q-70 0 -120 51q-49 50 -49 118t49 117q50 50 120 50q67 0 117 -50q49 -49 49 -117t-49 -118q-49 -51 -117 -51z" />
    <glyph glyph-name="exclamdown.aalt" horiz-adv-x="432" 
d="M219 1481q67 0 117 -48q49 -48 49 -114t-49 -114q-50 -48 -117 -48q-71 0 -120 48t-49 114t49 114t120 48zM186 1034h63q91 -758 141 -1014v-20h-342v20q52 272 138 1014z" />
    <glyph glyph-name="questiondown.aalt" horiz-adv-x="985" 
d="M589 1487v-1q67 0 118 -48t51 -114t-51 -115q-50 -49 -118 -49q-67 0 -117 50t-50 115q0 66 50 114t117 48zM638 1039l-4 -3q-4 -106 -36 -198q-31 -90 -75 -157q-52 -78 -85 -126q-40 -58 -70 -131q-28 -69 -28 -144q0 -104 46 -177t114 -73q35 0 68 24q32 23 55 54
q24 32 47 78q24 48 36 78t27 75t15 47l10 2l158 -276q-31 -24 -78 -50q-48 -26 -151 -58q-100 -31 -201 -31q-177 0 -298 89q-120 88 -120 252q0 92 43 171t109 139q73 66 133 117q69 58 126 133q59 77 77 165h82z" />
    <glyph glyph-name="slash.case" horiz-adv-x="681" 
d="M2 -199l592 1821h61l-594 -1821h-59z" />
    <glyph glyph-name="backslash.aalt" horiz-adv-x="671" 
d="M686 -199h-61l-592 1821h61z" />
    <glyph glyph-name="parenleft.aalt" horiz-adv-x="751" 
d="M721 1686v-1q-179 -180 -276 -405q-97 -224 -97 -577t96 -576q96 -224 276 -404l-10 -17q-612 310 -612 998t613 998z" />
    <glyph glyph-name="parenright.aalt" horiz-adv-x="714" 
d="M45 1702h-2q612 -314 612 -997t-612 -997l-12 17q181 181 278 404q98 225 98 576q0 354 -97 576q-98 224 -277 405z" />
    <glyph glyph-name="braceleft.aalt" horiz-adv-x="780" 
d="M479 225l1 -6q-16 -93 -16 -176q0 -149 60 -226q60 -76 188 -111l-9 -18q-88 4 -166 30q-77 25 -148 72t-113 131t-42 193q0 48 11 112l14 86q8 46 8 91q0 130 -58 198q-59 70 -118 80v27q59 11 116 80t57 197q0 47 -8 93l-14 86q-10 62 -12 114q0 110 42 192
q42 83 113 131q71 49 149 74q80 26 167 32l9 -18q-127 -34 -187 -114q-60 -79 -60 -226q0 -83 16 -176l15 -84q6 -43 6 -78q0 -136 -74 -219t-162 -92q88 -7 163 -90q75 -82 75 -217q0 -23 -8 -84z" />
    <glyph glyph-name="braceright.aalt" horiz-adv-x="739" 
d="M487 1081l-3 -4q-8 -46 -8 -93q0 -129 57 -198t116 -77v-29q-57 -7 -115 -76q-58 -68 -58 -196q0 -42 8 -95l15 -88q8 -54 8 -100q0 -113 -42 -198q-42 -86 -112 -135q-69 -49 -150 -73q-79 -24 -168 -30l-6 18q124 33 186 109q63 76 63 231q0 74 -17 174l-14 86
q-6 43 -6 81q0 224 184 294q45 16 69 16q-90 -1 -172 82t-82 230q0 38 6 81l14 84q16 96 18 176q0 151 -60 227q-60 77 -187 111l6 18q89 -5 168 -30q77 -25 151 -74q72 -48 114 -131q42 -82 42 -192q0 -54 -10 -113z" />
    <glyph glyph-name="bracketleft.aalt" horiz-adv-x="657" 
d="M588 1636h-203v-1867h203v-52h-416v1971h416v-52z" />
    <glyph glyph-name="bracketright.aalt" horiz-adv-x="641" 
d="M57 1636v52h416v-1971h-416v52h203v1867h-203z" />
    <glyph glyph-name="hyphen.aalt" horiz-adv-x="757" 
d="M688 694v-88h-614v88h614z" />
    <glyph glyph-name="endash.aalt" horiz-adv-x="983" 
d="M913 676v-70h-839v70h839z" />
    <glyph glyph-name="emdash.aalt" horiz-adv-x="1822" 
d="M1753 676v-70h-1679v70h1679z" />
    <glyph glyph-name="guillemotleft.aalt" horiz-adv-x="1150" 
d="M647 1151q-111 -218 -266 -440q158 -223 266 -441h-57q-239 223 -508 430v21q269 207 508 430h57zM1073 1151q-104 -216 -264 -440q161 -225 264 -441h-55q-239 223 -508 430v21q269 207 508 430h55z" />
    <glyph glyph-name="guillemotright.aalt" horiz-adv-x="1150" 
d="M82 1151h57q223 -211 508 -430v-21q-285 -219 -508 -430h-57q106 219 267 441q-160 219 -267 440zM510 1151h57q215 -204 507 -430v-21q-292 -226 -507 -430h-57q106 219 267 441q-160 219 -267 440z" />
    <glyph glyph-name="guilsinglleft.aalt" horiz-adv-x="724" 
d="M647 1151q-111 -218 -266 -440q158 -223 266 -441h-57q-239 223 -508 430v21q269 207 508 430h57z" />
    <glyph glyph-name="guilsinglright.aalt" horiz-adv-x="724" 
d="M82 1151h57q223 -211 508 -430v-21q-285 -219 -508 -430h-57q106 219 267 441q-160 219 -267 440z" />
    <glyph glyph-name="cent.oldstyle" horiz-adv-x="997" 
d="M969 371h1q-27 -161 -130 -273t-276 -118v-168h-59v170q-193 12 -324 149t-131 368q0 232 130 366q130 135 325 148v135h59v-133q129 -6 221 -70q94 -65 146 -150l-207 -160l-12 6q-10 109 -48 196q-38 88 -102 113v-743q50 -17 115 -19q97 0 167 57t108 134zM335 614v1
q0 -271 170 -378v725q-68 -6 -119 -99t-51 -249z" />
    <glyph glyph-name="dollar.oldstyle" horiz-adv-x="1169" 
d="M1085 403l-5 -4q0 -112 -40 -195q-41 -85 -109 -132q-71 -49 -148 -74q-79 -26 -165 -27v-157h-74v159q-200 17 -424 115l-27 422h15q82 -173 198 -307q115 -133 239 -160v512q-1 1 -11 6q-5 3 -33 20q-187 107 -254 168q-133 123 -133 292q0 173 122 280
q121 106 311 114v143h74v-145q167 -7 351 -69l41 -410h-15q-71 141 -170 261q-97 118 -206 151v-453q37 -19 51 -28q13 -7 42 -24q78 -43 121 -69q39 -24 96 -69q58 -46 84 -85q27 -40 48 -102t21 -133zM360 1180v2q0 -70 39 -117q38 -46 143 -111v420q-77 -5 -129 -55
q-53 -51 -53 -139zM616 37v-2q88 5 145 61q57 57 57 153q0 83 -47 141q-47 57 -155 122v-475z" />
    <glyph glyph-name="Euro.oldstyle" horiz-adv-x="1353" 
d="M836 37l1 -5q83 0 191 124t204 291h14l-33 -414q-60 -19 -179 -41q-124 -23 -218 -23q-115 0 -217 38q-100 37 -183 116q-83 78 -135 208q-53 131 -63 303h-168v57h166v6q0 77 10 156h-176v55h187q47 246 207 387t380 141q152 0 389 -64l33 -403h-14q-98 165 -207 287
q-109 123 -186 123q-82 0 -151 -115q-68 -115 -91 -354h481l-10 -55h-475q-4 -80 -4 -147v-15h430l-10 -57h-418q8 -293 81 -446q74 -153 164 -153z" />
    <glyph glyph-name="sterling.oldstyle" horiz-adv-x="1140" 
d="M1030 451l12 1l-55 -451h-932v88q238 150 238 440q0 102 -59 228h-187v57h162q-41 97 -41 193q0 187 128 315t363 128q154 0 329 -49l43 -352h-16q-85 142 -190 242q-107 102 -202 102q-74 0 -133 -55q-60 -56 -60 -151q0 -72 60 -183q61 -112 74 -189h283v-57h-277
q2 -22 2 -42q0 -70 -9 -120q-9 -51 -37 -115q-29 -67 -94 -132q-66 -66 -171 -132h514q70 0 139 72q70 73 116 162z" />
    <glyph glyph-name="yen.oldstyle" horiz-adv-x="1386" 
d="M985 1413l396 -1v-12q-82 -58 -127 -112t-102 -150l-248 -422h250v-53h-283l-2 -5v-163h287v-56h-287v-184q0 -121 26 -159t129 -83v-14h-659v14q103 45 129 83t26 159v184h-282v56h282v149l-12 19h-272v53h241l-317 516q-68 106 -153 168v12h645v-12q-68 -39 -97 -68
q-27 -27 -27 -56q0 -37 54 -121l262 -422l231 406q35 62 35 106q0 73 -125 156v12z" />
    <glyph glyph-name="cent.tnum" 
d="M1040 371l2 -2q-27 -161 -130 -273t-276 -118v-168h-60v170q-193 12 -324 149q-130 136 -130 368t130 368q131 137 324 149v135h60v-133q126 -6 218 -70t148 -150l-206 -162l-13 6q-27 260 -147 311v-745q51 -17 114 -19q98 0 167 57q70 58 107 135zM408 612v-1
q0 -272 169 -378v727q-67 -6 -118 -99t-51 -249z" />
    <glyph glyph-name="dollar.tnum" 
d="M1073 410v-1q0 -148 -73 -249q-74 -103 -174 -143q-100 -41 -219 -45v-161h-74v163q-199 16 -423 117l-25 426h14q79 -169 192 -306q112 -136 242 -165v526l-45 27q-177 106 -235 156q-152 131 -152 312q0 175 123 282t309 117v146h74v-148q157 -10 351 -72l41 -414h-14
q-181 358 -378 417v-465q25 -11 51 -29q26 -13 72 -42q18 -11 43 -26t31 -19q31 -19 68 -45q43 -30 66 -52q27 -26 54 -58q30 -36 44 -69q16 -37 26 -81q11 -49 11 -99zM352 1205h-1q0 -72 39 -120t141 -111v430q-73 -4 -126 -57t-53 -142zM605 38q89 6 146 63t57 155
q0 87 -47 145q-46 56 -156 124v-487z" />
    <glyph glyph-name="Euro.tnum" 
d="M721 37l-1 -3q78 0 180 125q103 125 197 293h12l-31 -416q-69 -24 -180 -44q-114 -21 -202 -21q-244 0 -397 180q-152 179 -169 497h-158v58h156v6q0 81 10 162h-166v58h177q45 248 198 390q154 143 362 143q139 0 372 -65l33 -408h-14q-96 166 -200 291
q-102 123 -174 123t-135 -118q-62 -117 -82 -357h448l-8 -58h-444q-4 -84 -4 -153v-14h399l-8 -58h-391q7 -295 74 -454q66 -157 146 -157z" />
    <glyph glyph-name="sterling.tnum" 
d="M1032 455l12 -2l-56 -455h-932v88q238 154 238 453q0 102 -59 231h-187v57h160q-41 102 -41 199q0 190 129 321t363 131q151 0 331 -52l43 -354h-16q-86 142 -192 245q-107 104 -202 104q-73 0 -133 -57t-60 -156q0 -73 60 -187q61 -115 74 -192h283v-57h-275
q2 -22 2 -55q0 -140 -58 -255q-59 -116 -255 -245h516q71 0 138 72q68 73 117 166z" />
    <glyph glyph-name="yen.tnum" 
d="M831 1440l358 -1v-13q-72 -55 -115 -115q-42 -58 -88 -150l-217 -434h225v-55h-248v-172h250v-53h-250v-193q0 -121 26 -159t129 -83v-14h-657v14q103 45 129 83t26 159v193h-247v53h247v155l-8 17h-241v55h212l-274 528q-40 83 -129 171v13h592v-13q-100 -73 -100 -123
q0 -37 45 -123l219 -422l194 405q33 73 33 111q0 76 -111 153v13z" />
    <glyph glyph-name="cent.tnum.oldstyle" 
d="M1040 371l2 -2q-27 -161 -130 -273t-276 -118v-168h-60v170q-193 12 -324 149q-130 136 -130 368t130 368q131 137 324 149v135h60v-133q126 -6 218 -70t148 -150l-206 -162l-13 6q-27 260 -147 311v-745q51 -17 114 -19q98 0 167 57q70 58 107 135zM408 612v-1
q0 -272 169 -378v727q-67 -6 -118 -99t-51 -249z" />
    <glyph glyph-name="dollar.tnum.oldstyle" 
d="M1073 410l-1 -2q0 -111 -42 -198q-42 -86 -111 -136t-148 -75t-165 -27v-161h-74v163q-200 16 -423 117l-25 426h14q80 -169 192 -306q112 -136 242 -165v526q-24 14 -48 29q-179 103 -241 159q-143 129 -144 307q0 176 123 284q122 107 309 118v146h74v-148
q157 -11 351 -72l41 -414h-14q-181 359 -378 417v-465q6 -1 51 -29q16 -10 72 -42t72 -42q44 -28 62 -40q46 -31 60 -46q12 -14 48 -46q33 -30 45 -57q2 -5 29 -61q17 -36 23 -75q6 -41 6 -85zM351 1206h-1q0 -72 39 -120t141 -111v430q-74 -5 -126 -57q-53 -53 -53 -142z
M604 37q89 6 146 63t57 155q0 88 -47 146t-156 125v-489z" />
    <glyph glyph-name="Euro.tnum.oldstyle" 
d="M717 37l-4 -1q68 0 167 124q101 127 191 291h15l-31 -414q-193 -62 -365 -64q-101 0 -192 38q-90 37 -168 114q-77 76 -127 207q-49 130 -60 305h-147v57h145v6q0 73 11 159h-156v55h164q45 248 195 387q151 140 347 140q131 0 356 -64l29 -403h-13q-96 168 -195 288
t-162 120t-119 -117t-75 -352h420l-10 -55h-414q-4 -84 -4 -150v-15h373l-8 -57h-365q5 -155 25 -270q22 -121 49 -188q28 -68 62 -105q33 -36 66 -36z" />
    <glyph glyph-name="sterling.tnum.oldstyle" 
d="M1032 451l11 1l-56 -451h-932v88q238 150 238 440q0 54 -10 98q-11 48 -18 65q-10 24 -30 68h-187v57h160q-41 97 -41 193q0 188 129 315q130 128 363 128q151 0 331 -49l43 -352h-16q-86 141 -192 242q-107 102 -204 102q-73 0 -132 -55q-60 -55 -60 -151q0 -72 60 -183
q61 -113 74 -190h283v-57h-275q2 -22 2 -51q0 -66 -9 -114q-9 -50 -37 -114q-28 -65 -95 -132q-66 -66 -171 -132h516q70 0 139 72q70 73 116 162z" />
    <glyph glyph-name="yen.tnum.oldstyle" 
d="M831 1415l355 -1v-12q-74 -58 -114 -112q-40 -56 -87 -150l-215 -424h223v-53h-248v-168h250v-56h-250v-184q0 -121 26 -159t129 -83v-14h-657v14q103 45 129 83t26 159v184h-247v56h247v149l-10 19h-239v53h212l-276 518q-56 103 -127 168v12h592v-12q-57 -40 -79 -67
q-22 -26 -22 -55q0 -34 47 -123l221 -414l192 398q33 66 33 108q0 77 -111 154v12z" />
    <glyph glyph-name="at.aalt" horiz-adv-x="1544" 
d="M1362 186l120 -137q-97 -52 -254 -95q-159 -44 -317 -44q-355 0 -608 224q-252 224 -252 585q0 344 228 575t550 231q262 0 427 -156t161 -387l-14 -702h-21q-117 102 -182 102q-33 0 -69 -21t-66 -48t-84 -48t-116 -21q-169 0 -270 138q-101 139 -101 341q0 212 111 356
t295 144q166 0 276 -101v29q0 97 -105 210t-292 113q-65 0 -127 -15q-63 -15 -132 -58q-71 -44 -122 -114q-52 -72 -86 -195q-35 -126 -35 -286q0 -381 176 -613q175 -231 459 -231q156 0 270 66q113 66 180 158zM1148 453l15 478q-33 95 -96 165q-63 71 -139 71
q-162 0 -162 -374q0 -241 60 -346t144 -105q96 0 178 111z" />
    <glyph glyph-name="bar.aalt" horiz-adv-x="370" 
d="M219 -199h-63v1821h63v-1821z" />
    </font>
</defs>
</svg>
