<?xml version="1.0" standalone="no"?>
<!DOCTYPE svg PUBLIC "-//W3C//DTD SVG 1.1//EN" "http://www.w3.org/Graphics/SVG/1.1/DTD/svg11.dtd" >
<svg xmlns="http://www.w3.org/2000/svg" xmlns:xlink="http://www.w3.org/1999/xlink" version="1.1">
<metadata>
Created by FontForge 20201107 at Thu Sep 12 13:24:31 2019
 By 
Copyright (c) 2019 by BumBumType. All rights reserved. Desktop use is strictly prohibited.
</metadata>
<defs>
<font id="AlbraRegular" horiz-adv-x="1069" >
  <font-face 
    font-family="Albra Regular"
    font-weight="400"
    font-stretch="normal"
    units-per-em="2048"
    panose-1="0 0 5 0 0 0 0 0 0 0"
    ascent="1610"
    descent="-438"
    x-height="981"
    cap-height="1460"
    bbox="-291 -493 2639 2216"
    underline-thickness="0"
    underline-position="0"
    unicode-range="U+0020-2212"
  />
<missing-glyph horiz-adv-x="1781" 
 />
    <glyph glyph-name="f_f.liga" unicode="ff" horiz-adv-x="1306" 
d="M1030 1497l-3 -1q-78 0 -78 -174q0 -118 35 -342h289l-12 -51h-277v-688q0 -118 32 -156q31 -37 146 -75v-12h-518v12q97 38 122 75q26 38 26 156v688h-430v-688q0 -119 27 -156t123 -75v-12h-491v12q96 38 123 75t27 156v688h-137v51h137v35q0 257 96 382
q96 124 272 124q117 0 243 -33l-92 -154h-8q-110 142 -201 144q-66 0 -93 -88t-27 -322q0 -8 3 -87h430v109q0 226 66.5 338.5t199.5 111.5q128 0 300 -84l-135 -156l-11 5q-100 192 -184 192z" />
    <glyph glyph-name="f_i.liga" unicode="fi" horiz-adv-x="1157" 
d="M989 242l-4 -2q0 -118 26 -156q25 -38 123 -75v-12h-490v12q96 37 123 75t27 155v688h-432v-688q0 -118 32 -156q32 -37 147 -75v-12h-518v12q97 38 122 75q26 38 26 156v688h-137v51h137v39q0 129 27 226q28 99 67 152q41 54 95 89q54 34 101 45q44 10 93 10
q155 0 356 -98l-125 -199h-8q-116 260 -231 260q-70 0 -126 -78q-55 -77 -55 -259v-184h432q111 0 192 29v-768z" />
    <glyph glyph-name="f_l.liga" unicode="fl" horiz-adv-x="1173" 
d="M1006 242l-4 2q0 -118 26 -156q25 -37 122 -75v-12h-489v12q96 37 123 75t27 155v1101q-125 156 -264 156q-184 0 -184 -301v-217h321v-51h-321v-688q0 -118 32 -156q31 -37 147 -75v-12h-520v12q96 38 123 75t27 156v688h-141v51h141v84q0 251 110 363q110 111 273 111
q109 0 307 -57l144 45v-1286z" />
    <glyph glyph-name=".notdef" horiz-adv-x="1781" 
 />
    <glyph glyph-name=".null" horiz-adv-x="0" 
 />
    <glyph glyph-name="nonmarkingreturn" horiz-adv-x="682" 
 />
    <glyph glyph-name="space" unicode=" " horiz-adv-x="462" 
 />
    <glyph glyph-name="exclam" unicode="!" horiz-adv-x="436" 
d="M197 408l1 -1q-4 51 -21 299q-17 246 -30 414q-15 182 -31 328v16h211v-16q-18 -162 -33 -337q-15 -179 -30 -394q-18 -256 -22 -309h-45zM222 -15v-1q-50 0 -90 38q-39 38 -39 90q0 50 39 87q40 38 90 38q51 0 89 -38t38 -87q0 -51 -38 -89t-89 -38z" />
    <glyph glyph-name="quotedbl" unicode="&#x22;" horiz-adv-x="557" 
d="M158 967h-29q-32 224 -78 497h185q-46 -273 -78 -497zM432 965l-26 -1l-78 498h182q-46 -273 -78 -497z" />
    <glyph glyph-name="numbersign" unicode="#" horiz-adv-x="1275" 
d="M1231 856h-311l-132 -371h308l-11 -49h-313l-156 -436h-41l156 436h-358l-158 -436h-41l158 436h-293l10 49h301l135 371h-301l11 49h307l151 416h41l-151 -416h354l147 416h41l-147 -416h303zM748 485l131 371h-353l-135 -371h357z" />
    <glyph glyph-name="dollar" unicode="$" horiz-adv-x="1132" 
d="M1034 373h-2q0 -193 -129 -295t-305 -102v-163h-65v168q-199 19 -400 129l-24 340h14q66 -155 172 -274q106 -120 238 -142v604l-11 6q-70 42 -126 77q-37 23 -102 74q-60 46 -88 86q-25 35 -49 95q-22 56 -22 121q0 164 115 263q116 99 285 105v146h65v-148
q154 -11 324 -81l41 -325h-15q-59 126 -150 227t-201 127v-545l29 -16q88 -50 135 -78q44 -27 108 -77q60 -47 91 -90q30 -42 51 -102t21 -130zM309 1180v2q0 -88 50 -144q49 -56 174 -132v512q-92 -5 -158 -66q-66 -62 -66 -172zM598 31l1 1q109 4 179 74q69 69 69 180
q0 104 -63 173t-186 141v-569z" />
    <glyph glyph-name="percent" unicode="%" horiz-adv-x="1835" 
d="M438 -27l-39 23l998 1503l37 -29zM438 545l-1 -2q-172 0 -276 134q-103 133 -103 318t104 327q104 141 279 141q173 0 275 -135t102 -319q0 -186 -103 -325t-277 -139zM460 578h-3q88 0 148 93t60 269q0 188 -66 338t-183 150q-91 0 -148 -99t-57 -265q0 -117 27 -225
q27 -110 85 -185q58 -76 137 -76zM1395 909l-2 1q174 0 276 -133t102 -319q0 -187 -102 -328t-276 -141q-176 0 -278 134q-102 133 -102 320q0 186 104 326t278 140zM1370 873l-2 -2q-88 0 -147 -93q-58 -92 -58 -265q0 -119 27 -227q27 -110 85 -185q58 -76 136 -76
q88 0 148 93t60 267q0 188 -66 338t-183 150z" />
    <glyph glyph-name="ampersand" unicode="&#x26;" horiz-adv-x="1548" 
d="M516 -25l-2 -1q-202 0 -330 99t-128 259q0 154 122 256q120 101 329 172q-223 268 -223 420q0 124 101 216t263 92q155 0 250 -85q96 -85 96 -196q0 -174 -286 -372l383 -453q44 61 85 165q40 102 48 153q8 56 -30 96q-38 41 -120 80v12h404v-12q-93 -46 -131 -88
q-39 -44 -72 -117q-78 -211 -154 -326l148 -164q55 -61 111 -61q77 0 136 98l12 -6q-31 -94 -93 -166q-61 -72 -150 -72q-72 0 -135 51t-163 163q-187 -213 -471 -213zM678 867l1 2q154 166 154 349q0 109 -57 169t-129 60q-71 0 -123 -57q-53 -58 -53 -151q0 -83 48 -162
t159 -210zM593 75h-1q203 0 362 153l-417 496q-129 -58 -201 -138t-72 -201q0 -139 93 -225q92 -85 236 -85z" />
    <glyph glyph-name="quotesingle" unicode="'" horiz-adv-x="282" 
d="M158 967h-29q-32 224 -78 497h185q-46 -273 -78 -497z" />
    <glyph glyph-name="parenleft" unicode="(" horiz-adv-x="690" 
d="M260 606l2 -1q0 -184 32 -344q32 -158 90 -275t123 -201t149 -164l-14 -18q-537 343 -537 1004t537 1004l14 -21q-180 -168 -288 -399t-108 -585z" />
    <glyph glyph-name="parenright" unicode=")" horiz-adv-x="690" 
d="M53 1610v-1q537 -343 537 -1003t-537 -1003l-14 18q84 80 149 164q63 82 124 201q59 115 91 275t32 344q0 354 -108 585t-288 399z" />
    <glyph glyph-name="asterisk" unicode="*" horiz-adv-x="954" 
d="M897 1104l-16 -6l-375 -27l287 -237l10 -13l-164 -116l-10 12l-150 340l-149 -340l-8 -10l-168 114l12 13l287 235l-375 29l-19 4l66 190l14 -6l324 -186l-86 348v16h205v-16l-88 -350l327 188l15 6z" />
    <glyph glyph-name="plus" unicode="+" horiz-adv-x="923" 
d="M889 707v-48h-402v-393h-45v393h-403v48h403v389h45v-389h402z" />
    <glyph glyph-name="comma" unicode="," horiz-adv-x="462" 
d="M233 242l-3 2q51 0 88 -40t37 -118q0 -93 -56 -196q-55 -102 -173 -165l-8 16q110 118 139 261q-10 -2 -15 -2q-58 0 -96 35t-38 86q0 49 38 85t87 36z" />
    <glyph glyph-name="hyphen" unicode="-" horiz-adv-x="737" 
d="M662 569v-63h-582v63h582z" />
    <glyph glyph-name="period" unicode="." horiz-adv-x="468" 
d="M238 -12l-1 -1q-52 0 -90 38t-38 89q0 52 39 89q40 38 90 38q51 0 89 -38t38 -89t-38 -89q-37 -37 -89 -37z" />
    <glyph glyph-name="slash" unicode="/" horiz-adv-x="686" 
d="M8 -240l592 1821h49l-592 -1821h-49z" />
    <glyph glyph-name="zero" unicode="0" horiz-adv-x="1116" 
d="M561 -25l-3 -1q-215 0 -356 207t-141 535q0 333 146 541q145 207 351 207t350 -210t144 -543q0 -329 -139 -532q-139 -204 -352 -204zM558 19l-1 -2q131 0 212 188q81 187 81 510q0 341 -86 522q-86 180 -210 180t-210 -180q-85 -179 -85 -520q0 -340 86 -520
q85 -178 213 -178z" />
    <glyph glyph-name="one" unicode="1" horiz-adv-x="704" 
d="M104 0v11q123 43 153 81t30 167v891q0 77 -42 110q-43 34 -169 65v10l401 140v-1215q0 -130 30 -167t152 -81v-12h-555z" />
    <glyph glyph-name="two" unicode="2" horiz-adv-x="995" 
d="M641 182l-2 1q121 0 177 35q55 34 129 143l10 -4l-110 -356h-830v41q333 331 494 573q162 243 162 425q0 131 -70 207t-172 76q-91 0 -185 -57t-168 -149l-27 12q78 143 204 239t263 96q140 0 240 -97q101 -98 101 -258q0 -173 -147 -384q-148 -213 -493 -543h424z" />
    <glyph glyph-name="three" unicode="3" horiz-adv-x="1034" 
d="M88 1184l-3 -1q213 281 467 279q140 0 231 -79q92 -80 92 -204q0 -223 -326 -357v-2q31 6 66 6q136 0 245 -100q110 -101 110 -285q0 -212 -148 -339q-149 -128 -343 -128q-195 0 -411 91l96 196l12 -4q143 -236 326 -234q121 0 201 104t80 260q0 154 -81 247t-214 93
q-87 0 -183 -41l-12 33q401 195 401 424q0 200 -227 198q-193 0 -358 -174z" />
    <glyph glyph-name="four" unicode="4" horiz-adv-x="1136" 
d="M1069 428h-212v-168q0 -130 30 -167t152 -81v-12h-544v12q123 44 153 81t30 167v168h-629v41l758 991h51v-925h232zM157 535h520v690z" />
    <glyph glyph-name="five" unicode="5" horiz-adv-x="1056" 
d="M494 891l3 -4q200 0 330 -122q129 -121 129 -318q0 -211 -147 -343t-347 -132q-186 0 -396 97l97 221h12q121 -276 295 -277q113 0 206 105t93 294q0 185 -91 276t-234 91q-167 0 -318 -88l174 748h416q112 0 159 29q47 28 108 114l10 -4l-119 -324h-563l-94 -419
q29 17 111 36q85 20 166 20z" />
    <glyph glyph-name="six" unicode="6" horiz-adv-x="1095" 
d="M608 815l-3 -3q173 0 298 -108q124 -108 124 -283q0 -181 -135 -315q-134 -133 -342 -133q-84 0 -165 26q-79 25 -156 81q-76 55 -123 167q-46 110 -46 263q0 178 66 337q66 158 179 276q113 117 257 203t309 135l7 -28q-248 -119 -414 -321t-207 -453q145 156 351 156z
M558 11v1q118 0 200 96q83 97 83 266q0 156 -75 257t-222 101q-173 0 -297 -139q-4 -51 -4 -92q0 -211 87 -351q87 -139 228 -139z" />
    <glyph glyph-name="seven" unicode="7" horiz-adv-x="1015" 
d="M238 0l-1 1q125 649 582 1239h-479q-124 0 -177 -35q-52 -34 -120 -143l-12 4l106 375h854v-33q-263 -329 -384 -649q-121 -321 -171 -759h-198z" />
    <glyph glyph-name="eight" unicode="8" horiz-adv-x="1050" 
d="M528 -25v-2q-193 0 -330 107q-136 106 -136 285q0 145 92 243t233 143q-270 133 -270 358q0 162 125 258t290 96q162 0 280 -91t118 -220q0 -117 -93 -210q-94 -94 -199 -134q52 -27 87 -45q34 -18 89 -59q54 -40 87 -81q34 -42 59 -103q26 -64 26 -135q0 -173 -128 -292
q-127 -118 -330 -118zM606 823h-1q174 131 174 318q0 125 -70 201q-71 77 -181 77q-106 0 -175 -72t-69 -178t74 -178q73 -71 248 -168zM529 16v-2q127 0 207 83q79 82 79 210q0 134 -100 231q-101 98 -297 192q-81 -44 -139 -137q-57 -91 -57 -225q0 -157 86 -255
q85 -97 221 -97z" />
    <glyph glyph-name="nine" unicode="9" horiz-adv-x="1095" 
d="M541 1464v-2q86 0 164 -25t156 -83q77 -57 123 -168q46 -110 46 -262q0 -348 -231 -597q-230 -248 -579 -352l-6 29q247 117 414 320q166 202 207 453q-143 -155 -351 -153q-180 0 -301 111t-121 281q0 181 137 315q136 133 342 133zM549 703q172 0 295 137q4 51 4 92
q0 211 -86 351t-227 140q-117 0 -201 -96t-84 -266q0 -157 76 -257q77 -101 223 -101z" />
    <glyph glyph-name="colon" unicode=":" horiz-adv-x="428" 
d="M217 707l-1 -1q-52 0 -90 38t-38 92q0 52 39 89q40 38 90 38q51 0 89 -38t38 -89q0 -50 -38 -90q-38 -39 -89 -39zM216 -19l1 -1q-50 0 -90 38q-39 38 -39 89q0 50 38 90q38 39 90 39t89 -39q38 -40 38 -90q0 -51 -38 -89q-37 -37 -89 -37z" />
    <glyph glyph-name="semicolon" unicode=";" horiz-adv-x="446" 
d="M217 707l-1 -1q-52 0 -90 38t-38 92q0 52 39 89q40 38 90 38q51 0 89 -38t38 -89q0 -50 -38 -90q-38 -39 -89 -39zM235 241l-2 1q51 0 87 -40t36 -118q0 -93 -56 -196q-56 -102 -171 -165l-8 16q110 122 138 262q-10 -2 -15 -2q-58 0 -96 35t-38 86q0 49 38 85t87 36z
" />
    <glyph glyph-name="less" unicode="&#x3c;" horiz-adv-x="901" 
d="M866 250l-827 434v47l827 438v-55l-772 -409l772 -400v-55z" />
    <glyph glyph-name="equal" unicode="=" horiz-adv-x="837" 
d="M55 774v47h727v-47h-727zM55 532v50h727v-50h-727z" />
    <glyph glyph-name="greater" unicode="&#x3e;" horiz-adv-x="901" 
d="M39 250v55l772 400l-772 409v55l827 -438v-47z" />
    <glyph glyph-name="question" unicode="?" horiz-adv-x="880" 
d="M313 410v-3q6 106 43 197q38 95 85 159q48 66 96 129q47 62 79 136q32 75 32 151q0 106 -51 187t-139 81q-66 0 -126 -54t-93 -114q-32 -58 -58 -130h-4l-119 192q195 145 402 147q166 0 270 -89t104 -237q0 -91 -43 -170q-43 -80 -106 -142q-62 -62 -127 -124
q-66 -63 -116 -144q-50 -82 -61 -172h-68zM354 -17l-1 -1q-50 0 -90 38q-39 38 -39 90q0 50 39 87q40 38 90 38q51 0 89 -38t38 -87q0 -52 -37 -89q-38 -38 -89 -38z" />
    <glyph glyph-name="at" unicode="@" horiz-adv-x="1492" 
d="M1329 -86l96 -117q-84 -51 -226 -93q-143 -42 -291 -42q-221 0 -413 99q-191 99 -313 288q-121 188 -121 424q0 331 221 566q220 234 528 234q252 0 402 -153t146 -364l-17 -715h-18q-86 92 -138 92q-29 0 -68 -30q-36 -27 -98 -61q-58 -31 -132 -31q-169 0 -268 141
t-99 329q0 197 108 342q108 146 287 146q163 0 287 -119v14q0 129 -112 247t-312 118q-74 0 -141 -16q-70 -17 -144 -64q-75 -48 -131 -122q-55 -72 -91 -201q-36 -128 -36 -291q0 -192 50 -345q49 -152 123 -240q74 -89 171 -146t182 -78q84 -21 162 -21q141 0 246 63
q104 62 160 146zM1176 217l18 450q-35 97 -114 179q-80 83 -180 83q-211 0 -211 -383q0 -245 80 -358q79 -112 177 -112q61 0 124 42q62 41 106 99z" />
    <glyph glyph-name="A" unicode="A" horiz-adv-x="1474" 
d="M1262 188l-1 -2q31 -79 62 -111q29 -31 128 -64v-12h-586v12q97 34 134 59q36 24 36 62q0 30 -26 105l-99 270h-514l-26 -72q-78 -207 -78 -272q0 -55 38 -87q39 -32 132 -65v-12h-436v12q106 66 159 140q53 73 123 273l314 854l-60 119q120 50 198 110zM425 586h455
l-228 624z" />
    <glyph glyph-name="B" unicode="B" horiz-adv-x="1335" 
d="M825 821l1 4q159 -28 283 -128q123 -99 123 -271q0 -182 -147 -302t-409 -120h-637v12q86 30 121 53q33 21 47 62q14 42 14 132v944q0 90 -14 132q-14 41 -47 62q-35 23 -121 53v12h637q230 0 354 -100q125 -101 125 -243q0 -85 -55 -150q-55 -66 -124 -97
q-70 -32 -151 -51v-4zM638 1417h-193v-596h185q126 0 214 83q87 82 87 218q0 128 -79 211q-79 84 -214 84zM663 63l2 -1q335 0 333 347q0 186 -91 277t-243 85l-218 -10v-617q0 -33 54 -57t152 -24h11z" />
    <glyph glyph-name="C" unicode="C" horiz-adv-x="1370" 
d="M752 1440l-1 1q-181 0 -315 -183q-133 -182 -133 -510q0 -340 141 -531q141 -190 317 -190q129 0 254 105q124 104 216 248h12l-41 -326q-230 -78 -444 -78q-310 0 -504 198q-193 197 -193 542q0 350 198 561q198 212 497 212q190 0 447 -78l41 -326h-12
q-91 144 -216 250q-124 105 -264 105z" />
    <glyph glyph-name="D" unicode="D" horiz-adv-x="1445" 
d="M567 1464l-1 3q401 0 608 -195t207 -514q0 -324 -198 -540t-521 -216h-623v12q86 30 121 53q33 21 47 62q14 42 14 132v944q0 90 -14 132q-14 41 -47 62q-35 23 -121 53v12h528zM652 62l1 -1q233 0 362 186t129 500q0 323 -144 496q-144 172 -441 172h-115v-1272
q0 -33 54 -57t152 -24h2z" />
    <glyph glyph-name="E" unicode="E" horiz-adv-x="1271" 
d="M1159 356l13 2l-49 -356h-1083v12q86 30 121 53q33 21 47 62q14 42 14 132v944q0 90 -14 132q-14 41 -47 62q-35 23 -121 53v12h1012l36 -340h-14q-39 114 -131 202q-91 87 -233 87h-265v-604h263q145 0 229 137h10v-342h-10q-33 63 -93 111q-59 48 -136 46l-263 -4v-615
q0 -38 72 -63q71 -25 201 -25h100q112 0 201 92t140 210z" />
    <glyph glyph-name="F" unicode="F" horiz-adv-x="1169" 
d="M1065 1464l36 -338h-15q-39 114 -131 202q-91 87 -233 87h-279v-604h252q145 0 231 137h10v-342h-10q-86 158 -230 156l-252 -4v-496q0 -130 36 -167q36 -38 184 -81v-12h-625v12q86 30 121 53q33 21 47 62q14 42 14 132v944q0 90 -14 132q-14 41 -47 62q-35 23 -121 53
v12h1026z" />
    <glyph glyph-name="G" unicode="G" horiz-adv-x="1517" 
d="M733 -25l-1 1q-292 0 -481 203t-189 540q0 347 200 559q199 211 519 211q215 0 453 -84l39 -332h-14q-225 367 -494 367q-196 0 -329 -187q-134 -188 -134 -519q0 -340 141 -522t339 -182q66 0 129 15t117 63t54 122v281q0 121 -51 175t-215 54v23h594v-12
q-74 -43 -90 -81q-17 -39 -17 -167v-457h-13q-52 49 -114 49q-37 0 -97 -30q-61 -31 -148 -60q-89 -30 -198 -30z" />
    <glyph glyph-name="H" unicode="H" horiz-adv-x="1560" 
d="M1526 1452l-2 -2q-123 -44 -153 -81t-30 -167v-944q0 -130 30 -167t153 -81v-12h-586v12q124 44 152 81q29 38 29 167v504h-676v-504q0 -92 15 -132q15 -41 48 -62q32 -20 121 -52v-12h-588v12q86 30 121 53q33 21 47 62q14 42 14 132v944q0 90 -14 132q-14 41 -47 62
q-35 23 -121 53v12h588v-12q-89 -32 -121 -52q-33 -21 -48 -62q-15 -40 -15 -132v-362h676v362q0 130 -28 167q-29 38 -151 81v12h586v-12z" />
    <glyph glyph-name="I" unicode="I" horiz-adv-x="661" 
d="M39 0v10q86 30 121 53q33 21 47 62q14 42 14 132v944q0 90 -14 132q-14 41 -47 62q-35 23 -121 53v12h588v-12q-89 -32 -121 -52q-33 -21 -48 -62q-15 -40 -15 -132v-944q0 -92 15 -132q15 -41 48 -62q32 -20 121 -52v-12h-588z" />
    <glyph glyph-name="J" unicode="J" horiz-adv-x="647" 
d="M45 -270l-5 21q174 101 174 303v1149q0 129 -30 167t-153 81v12h585v-12q-122 -43 -151 -81q-28 -37 -28 -167v-1014q0 -107 -33 -189q-33 -83 -96 -134t-123 -81q-56 -28 -140 -55z" />
    <glyph glyph-name="K" unicode="K" horiz-adv-x="1435" 
d="M444 260v-2q0 -92 15 -132q15 -41 48 -62q32 -20 121 -52v-12h-588v12q86 30 121 53q33 21 47 62q14 42 14 132v944q0 90 -14 132q-14 41 -47 62q-35 23 -121 53v12h588v-12q-89 -32 -121 -52q-33 -21 -48 -62q-15 -40 -15 -132v-944zM473 725l457 436q98 92 98 165
q0 80 -117 123v12h473v-12q-100 -53 -177 -111q-82 -63 -203 -175l-351 -321l531 -670q102 -129 231 -162v-12h-371z" />
    <glyph glyph-name="L" unicode="L" horiz-adv-x="1243" 
d="M1133 356l14 1l-49 -356h-1057v12q86 30 121 53q33 21 47 62q14 42 14 132v944q0 90 -14 132q-14 41 -47 62q-35 23 -121 53v12h588v-12q-89 -32 -121 -52q-33 -21 -48 -62t-15 -132v-1063q0 -38 72 -63q71 -25 201 -25h71q110 0 201 89t143 213z" />
    <glyph glyph-name="M" unicode="M" horiz-adv-x="1839" 
d="M1804 1452h-3q-123 -44 -153 -81q-30 -38 -30 -167v-944q0 -130 30 -167t153 -81v-12h-585v12q123 44 153 81q30 38 30 167v1004h-4q-391 -723 -523 -998h-28q-296 568 -546 978v-858q0 -151 18 -220t55 -97q38 -29 133 -57v-12h-467v12q97 29 134 57q38 29 56 98t18 220
v918q-26 43 -87 85q-62 43 -115 62v12h393q288 -492 506 -932l494 932h368v-12z" />
    <glyph glyph-name="N" unicode="N" horiz-adv-x="1499" 
d="M1473 1464l-1 -14q-95 -28 -133 -57q-37 -28 -55 -97t-18 -220v-1077h-164q-359 574 -801 1235v-848q0 -151 18 -220t55 -97q38 -29 133 -57v-12h-469v12q97 29 134 57q38 29 56 98t18 220v911q-56 92 -201 153v12h361q462 -695 802 -1242v856q0 150 -17 221
q-16 68 -54 97t-133 57v12h469z" />
    <glyph glyph-name="O" unicode="O" horiz-adv-x="1533" 
d="M766 -25h-2q-310 0 -506 211q-197 212 -197 547t197 546q197 210 506 210q310 0 506 -210q197 -211 197 -546q0 -336 -196 -547t-505 -211zM801 29l-1 -2q190 0 310 169q120 170 120 444q0 133 -32 272q-32 136 -90 255q-59 119 -159 194q-101 75 -223 75
q-193 0 -312 -170q-118 -169 -118 -443q0 -186 54 -363t172 -304t279 -127z" />
    <glyph glyph-name="P" unicode="P" horiz-adv-x="1232" 
d="M510 680l-67 2v-420q0 -130 33 -167t168 -81v-12h-606v12q86 30 121 53q33 21 47 62q14 42 14 132v944q0 90 -14 132q-14 41 -47 62q-35 23 -121 53v12h563q258 0 411 -93t153 -292q0 -399 -655 -399zM572 1417h-130v-684h58q229 0 343 86t113 258q0 169 -102 254
q-103 86 -282 86z" />
    <glyph glyph-name="Q" unicode="Q" horiz-adv-x="1533" 
d="M795 -25l-2 -1q56 -104 239 -155t389 -60v-6l-166 -170q-185 39 -333 140q-146 100 -190 252q-296 12 -483 222q-187 209 -187 536q0 335 197 546q197 210 506 210t506 -210q197 -211 197 -546q0 -329 -187 -538t-486 -220zM297 822l-1 -2q0 -186 54 -363t172 -304
t279 -127q190 0 310 169t120 444q0 133 -32 272q-31 137 -90 255q-59 119 -159 194t-223 75q-193 0 -312 -171q-118 -170 -118 -442z" />
    <glyph glyph-name="R" unicode="R" horiz-adv-x="1380" 
d="M1188 178v-3q62 -85 170 -165v-12h-309q-259 372 -477 721l-129 -4v-457q0 -92 15 -132q15 -41 48 -62q32 -20 121 -52v-12h-588v12q86 30 121 53q33 21 47 62q14 42 14 132v944q0 90 -14 132q-14 41 -47 62q-35 23 -121 53v12h600q255 0 394 -98q138 -98 138 -249
q0 -141 -105 -244t-269 -132q183 -277 391 -561zM444 1410v-643h185q140 0 229 82q90 83 90 249q0 162 -89 237q-88 75 -245 75h-170z" />
    <glyph glyph-name="S" unicode="S" horiz-adv-x="1124" 
d="M594 -25l-2 -8q-215 0 -462 136l-25 344h15q44 -105 105 -196q60 -90 156 -159t201 -69q112 0 186 72t74 187q0 52 -21 102t-45 81q-25 32 -79 72q-58 42 -82 57q-27 16 -99 57q-205 120 -298 215q-91 92 -91 245q0 172 121 274q122 102 300 102q172 0 369 -84l41 -330
h-15q-68 143 -174 254q-107 111 -231 111q-94 0 -163 -63t-69 -178q0 -101 65 -163q62 -59 254 -172q79 -46 111 -66q39 -24 93 -61q63 -43 86 -72q36 -45 59 -76q35 -47 45 -97q11 -53 11 -112q0 -196 -129 -300q-128 -103 -307 -103z" />
    <glyph glyph-name="T" unicode="T" horiz-adv-x="1323" 
d="M1235 1464l36 -340h-12q-41 118 -132 203q-92 86 -232 86h-117v-1153q0 -129 29 -167q29 -37 150 -81v-12h-585v12q123 44 153 81t30 167v1153h-123q-140 0 -232 -86q-91 -85 -132 -203h-13l37 340h1143z" />
    <glyph glyph-name="U" unicode="U" horiz-adv-x="1478" 
d="M1458 1464l1 -14q-95 -28 -133 -57q-37 -28 -55 -97t-18 -220v-616q0 -231 -136 -358t-363 -127q-96 0 -186 26q-88 25 -169 81t-129 165t-48 261v694q0 90 -14 132q-14 41 -47 62q-35 23 -121 53v12h588v-12q-89 -32 -121 -52q-33 -21 -48 -62t-15 -132v-684
q0 -226 101 -350q101 -123 270 -123q158 0 269 105t111 308v618q0 152 -18 221t-55 97q-38 29 -133 57v12h469z" />
    <glyph glyph-name="V" unicode="V" horiz-adv-x="1449" 
d="M1006 1464l432 -3v-12q-112 -50 -152 -99t-84 -167l-444 -1190h-51l-514 1313q-23 56 -54 84t-126 60v12h586v-12q-95 -34 -133 -60q-37 -25 -37 -60q0 -26 35 -119l346 -919h4l330 893q29 78 29 121q0 49 -38 82q-37 32 -129 64v12z" />
    <glyph glyph-name="W" unicode="W" horiz-adv-x="2179" 
d="M1729 1464l441 -3v-12q-115 -52 -151 -99q-36 -46 -81 -171l-424 -1186h-49l-374 1048l-371 -1048h-49l-475 1309q-14 38 -25 55q-12 19 -49 42q-38 24 -108 51v12h586v-12q-101 -31 -139 -57q-37 -25 -37 -58q0 -20 12 -53l338 -960l281 815l-60 168q-11 36 -23 54
q-11 17 -48 41q-38 24 -111 51v12h582v-12q-93 -34 -129 -59q-34 -24 -34 -63q0 -33 29 -117l311 -890l293 860q33 99 32 132q0 45 -36 75t-132 63v12z" />
    <glyph glyph-name="X" unicode="X" horiz-adv-x="1462" 
d="M1212 193l-2 -1q28 -42 50 -72q16 -21 63 -55q45 -32 117 -55v-12h-617v12q78 26 114 52q37 27 37 64q0 33 -31 82l-285 448l-284 -411q-49 -70 -49 -121q0 -76 131 -114v-12h-428v12q142 56 272 234l330 459l-365 567q-33 50 -54 75q-23 27 -64 56q-44 31 -107 50v12
h612v-12q-82 -27 -118 -51t-36 -59q0 -32 32 -84l258 -405l261 377q37 53 36 93q0 80 -124 129v12h421v-12q-146 -58 -268 -228l-297 -416z" />
    <glyph glyph-name="Y" unicode="Y" horiz-adv-x="1411" 
d="M997 1464h403v-12q-58 -22 -106 -63q-47 -39 -70 -72q-22 -31 -60 -93l-340 -561v-404q0 -129 30 -167t153 -81v-12h-586v12q123 43 153 81t30 167v389l-405 662q-33 51 -64 77q-35 28 -121 65v12h586v-12q-91 -42 -120 -61q-31 -21 -31 -49t45 -102l309 -510l295 496
q35 59 35 99q0 76 -136 127v12z" />
    <glyph glyph-name="Z" unicode="Z" horiz-adv-x="1202" 
d="M1130 356h13l-49 -356h-1031v31l805 1382h-366q-141 0 -234 -87t-132 -202h-14l37 340h970v-30l-806 -1381h462q113 0 201 90t144 213z" />
    <glyph glyph-name="bracketleft" unicode="[" horiz-adv-x="620" 
d="M545 1550h-230v-1882h230v-41h-367v1966h367v-43z" />
    <glyph glyph-name="backslash" unicode="\" horiz-adv-x="675" 
d="M680 -240h-47l-594 1821h49z" />
    <glyph glyph-name="bracketright" unicode="]" horiz-adv-x="604" 
d="M63 1550v43h367v-1966h-367v41h230v1882h-230z" />
    <glyph glyph-name="asciicircum" unicode="^" horiz-adv-x="1155" 
d="M178 831l387 633h29l387 -633h-55l-346 560l-347 -560h-55z" />
    <glyph glyph-name="underscore" unicode="_" horiz-adv-x="956" 
d="M897 -174v-49h-834v49h834z" />
    <glyph glyph-name="grave" unicode="`" horiz-adv-x="436" 
d="M340 1137q-101 117 -260 327h223q37 -231 57 -327h-20z" />
    <glyph glyph-name="a" unicode="a" horiz-adv-x="1048" 
d="M836 -20h-1q-83 0 -117 60t-30 144l-2 2q-46 -80 -141 -141q-94 -61 -217 -61t-195 63t-72 161q0 137 156 242q157 106 477 200l4 135q2 73 -31 128q-33 56 -119 56q-106 0 -166 -88q-59 -88 -76 -210l-10 -2l-156 112q56 89 163 156q109 68 259 68q157 0 242 -80
q84 -80 80 -198l-15 -573q-1 -27 17 -49q18 -21 41 -21q51 0 96 92l14 -8q-26 -78 -76 -133q-51 -55 -125 -55zM423 94l1 -1q131 0 261 142l10 376q-236 -77 -332 -165t-96 -192q0 -74 42 -117t114 -43z" />
    <glyph glyph-name="b" unicode="b" horiz-adv-x="1099" 
d="M651 1006l-2 -2q174 0 284 -147q110 -148 110 -360q0 -223 -120 -372q-120 -148 -292 -148q-63 0 -123 24q-59 24 -94 51q-32 25 -71 51q-36 24 -58 24q-56 0 -120 -154h-25v1305q0 77 -31 117q-31 41 -117 69v13q178 12 342 63v-715h2q133 181 315 181zM627 29l-1 1
q107 0 161 111t54 296q0 213 -69 351t-194 138q-123 0 -246 -164v-408q40 -130 117 -228q76 -97 178 -97z" />
    <glyph glyph-name="c" unicode="c" horiz-adv-x="933" 
d="M514 -20l-3 -4q-195 0 -327 142t-132 370q0 225 129 369t310 144q117 0 212 -60q94 -60 156 -146l-166 -131l-8 4q-12 104 -66 197t-144 93q-96 0 -171 -105t-75 -280q0 -206 107 -325q106 -118 261 -118q111 0 183 60t103 142l16 -6q-29 -140 -123 -243t-262 -103z" />
    <glyph glyph-name="d" unicode="d" horiz-adv-x="1126" 
d="M446 -20h-2q-163 0 -277 140t-114 359q0 224 118 375q119 152 294 152q167 0 300 -123v399q0 137 -152 182v13q176 12 344 63v-1354q0 -63 27 -87q26 -23 121 -52v-12l-336 -55v188h-2q-55 -84 -139 -136q-83 -52 -182 -52zM514 57h-1q127 0 250 160v422
q-45 128 -122 222q-77 93 -174 93q-109 0 -162 -117q-52 -116 -52 -289q0 -212 72 -352q72 -139 189 -139z" />
    <glyph glyph-name="e" unicode="e" horiz-adv-x="978" 
d="M907 332l17 -13q-11 -52 -31 -100q-22 -51 -63 -110q-42 -60 -120 -96t-181 -36q-205 0 -340 142q-135 143 -135 364t134 372q134 150 342 150q97 0 171 -37q76 -38 113 -85q39 -49 62 -105q24 -57 30 -91q6 -35 6 -48v-27h-677q-1 -26 -3 -28q0 -224 111 -340
q111 -115 274 -115q86 0 149 36t88 73q28 41 53 94zM483 949q-94 0 -160 -81t-84 -223l483 4q-1 30 -14 76q-12 42 -38 98q-26 54 -75 90t-112 36z" />
    <glyph glyph-name="f" unicode="f" horiz-adv-x="681" 
d="M406 1497l-2 1q-78 0 -78 -168q0 -113 37 -348h286l-12 -51h-274v-688q0 -118 32 -156q31 -37 144 -75v-12h-518v12q96 38 123 75t27 155v688h-141v51h141v109q0 226 66.5 338.5t199.5 111.5q121 0 300 -84l-135 -156l-10 5q-96 192 -186 192z" />
    <glyph glyph-name="g" unicode="g" horiz-adv-x="1007" 
d="M735 133l-4 -8q250 -67 250 -252q0 -79 -45 -141q-46 -63 -121 -95q-79 -34 -160 -50t-172 -16q-107 0 -207 21t-177 75q-76 54 -76 129q0 85 88 146q89 62 201 93q-3 0 -43 8q-163 31 -162 144q0 63 59 114q59 52 158 80q-119 29 -188 107t-69 194q0 143 107 233t275 90
h24q144 0 214 47t77 105l176 -61v-6q-104 -119 -270 -119q-43 0 -86 8v-6q116 -32 199 -109q84 -78 84 -190q0 -129 -109 -219q-110 -90 -294 -90q-46 0 -86 6q-100 -29 -102 -87q0 -52 54 -63l76 -16q78 -13 177 -36q103 -23 152 -36zM442 959v-3q-82 0 -135 -60
q-53 -61 -53 -179q0 -131 63 -227t173 -96q82 0 135 59q52 58 52 177q0 138 -67 233q-68 96 -168 96zM506 -390h-2q132 0 228 47q94 46 94 137q0 122 -161 166q-72 18 -303 60q-32 -12 -67 -33q-33 -20 -73 -71q-39 -50 -39 -107q0 -95 93 -147q92 -52 230 -52z" />
    <glyph glyph-name="h" unicode="h" horiz-adv-x="1175" 
d="M1008 242h-1q0 -118 26 -156q25 -37 122 -75v-12h-489v12q98 39 122 75q25 37 26 155q4 343 4 405q0 248 -180 248q-152 0 -272 -172v-481q0 -118 26 -156q25 -37 122 -75v-12h-489v12q96 38 123 75t27 155v960q0 76 -6 120t-30 71q-25 28 -43 38q-20 11 -72 33v13
q176 12 344 63v-754q147 220 362 222q118 0 198 -72t80 -213v-479z" />
    <glyph glyph-name="i" unicode="i" horiz-adv-x="534" 
d="M244 1169h2q-50 0 -87 36q-38 36 -38 85q0 47 38 83q37 36 87 36q47 0 84 -37q38 -38 38 -82q0 -49 -37 -85t-87 -36zM27 0l-3 11q96 37 123 75q27 37 27 155v432q0 77 -6 120q-6 44 -30 71q-25 28 -43 38q-19 10 -72 33v12q193 17 345 64v-768q0 -119 27 -156t123 -75
v-12h-491z" />
    <glyph glyph-name="j" unicode="j" horiz-adv-x="503" 
d="M231 1169q-49 0 -87 36t-38 85q0 47 38 83t87 36q47 0 84 -37q38 -38 38 -82q0 -49 -36 -85t-86 -36zM-28 -426l-7 12q107 56 150 139q44 85 44 241v707q0 97 -18 147t-42 68t-90 45v12q196 18 342 64v-940q0 -392 -379 -495z" />
    <glyph glyph-name="k" unicode="k" horiz-adv-x="1087" 
d="M25 0l-2 12q96 38 123 75t27 155v960q0 76 -6 120t-30 71q-25 28 -43 38q-20 11 -72 33v13q176 12 344 63v-1038l321 282q51 45 51 84q0 59 -100 102v12h391v-12q-2 -1 -12.5 -7t-20.5 -12t-20.5 -12t-12.5 -7t-5.5 -3.5t-10.5 -7t-12 -7.5l-28 -18q-10 -6 -25 -16
l-27 -18q-3 -2 -11.5 -8t-12.5 -9q-9 -6 -25 -20t-25 -20q-13 -9 -28 -24l-215 -188l350 -442q74 -91 180 -138v-12h-299l-369 475h-34v-233q0 -119 27 -156t123 -75v-12h-491z" />
    <glyph glyph-name="l" unicode="l" horiz-adv-x="534" 
d="M25 0l-2 11q96 37 123 75q27 37 27 155v960q0 77 -6 120q-6 44 -30 71q-25 28 -43 38q-20 10 -72 33v13q176 12 344 63v-1296q0 -119 27 -156t123 -75v-12h-491z" />
    <glyph glyph-name="m" unicode="m" horiz-adv-x="1744" 
d="M1579 242l-7 2q0 -118 26 -156q25 -37 122 -75v-12h-489v12q96 37 123 75q27 37 30 155q4 248 4 424q0 113 -54 170t-132 57q-133 0 -235 -172v-479q0 -118 26 -156q25 -37 122 -75v-12h-489v12q96 38 123 75q28 38 29 155q4 248 4 424q0 111 -52 169t-130 58
q-134 0 -237 -174v-477q0 -118 26 -156q25 -37 122 -75v-12h-489v12q96 37 123 75q27 37 27 155v434q0 137 -27 179q-27 41 -123 79v12q187 17 339 64v-230q130 224 336 226q103 0 179 -57q77 -57 92 -168q135 224 336 226q115 0 195 -71t80 -206v-487z" />
    <glyph glyph-name="n" unicode="n" horiz-adv-x="1173" 
d="M1006 242h-4q0 -118 27 -155t123 -75v-12h-489v12q96 38 123 75q28 38 29 155q2 214 2 424q0 118 -52 173q-53 56 -132 56q-141 0 -268 -174v-479q0 -118 26 -156q25 -37 122 -75v-12h-489v12q96 37 123 75q27 37 27 155v434q0 137 -27 179q-27 41 -123 79v12
q187 17 339 64v-234q151 229 366 231q119 0 198 -72t79 -213v-479z" />
    <glyph glyph-name="o" unicode="o" 
d="M532 -20l-2 2q-213 0 -345 141t-132 360q0 215 129 369q129 155 351 155q223 0 350 -147q128 -148 128 -360q0 -214 -129 -367t-350 -153zM565 25l-4 -2q103 0 174 96q71 97 71 280q0 131 -31 254q-32 125 -105 218q-74 93 -171 93q-104 0 -176 -97t-72 -282
q0 -92 20 -190q19 -96 57 -180q38 -85 99 -137q62 -53 138 -53z" />
    <glyph glyph-name="p" unicode="p" horiz-adv-x="1116" 
d="M668 1006l-3 -2q175 0 284 -141q110 -142 110 -352q0 -225 -122 -379q-122 -153 -290 -153q-162 0 -297 135h-2v-283q0 -119 37 -155q37 -35 172 -73v-13h-551v13q95 37 123 74q27 36 27 155v985q0 53 -30 75t-120 42v12q187 17 339 64l-2 -185l4 -2q137 183 321 183z
M640 29h-2q106 0 161 108q56 109 56 294q0 220 -73 357q-74 138 -195 138q-123 0 -242 -162v-410q38 -130 114 -227q77 -98 181 -98z" />
    <glyph glyph-name="q" unicode="q" horiz-adv-x="1112" 
d="M557 -410l-1 12q134 37 172 74q37 36 37 155v328h-2q-47 -71 -129 -126t-184 -55q-174 0 -285 147t-111 360q0 223 120 372q120 148 292 148q85 0 156 -40q74 -42 123 -79q51 -39 79 -39q56 0 114 135h20v-1151q0 -118 26 -155q25 -35 122 -73v-13h-549zM515 56l-2 2
q74 0 140 48q65 47 111 113v422q-45 129 -121 219q-77 92 -174 92q-111 0 -163 -115q-52 -114 -52 -294q0 -211 69 -349t192 -138z" />
    <glyph glyph-name="r" unicode="r" horiz-adv-x="808" 
d="M25 0v12q96 38 123 75t27 155v432q0 129 -27 177q-27 49 -124 83v12q193 17 339 64l-6 -209h4q29 74 98 140t170 66q59 0 102 -31l-20 -223h-13q-98 118 -188 116q-88 0 -144 -120v-506q0 -118 32 -156q31 -37 149 -75v-12h-522z" />
    <glyph glyph-name="s" unicode="s" horiz-adv-x="831" 
d="M438 -25l-5 -3q-161 0 -346 88l-24 248l12 2q205 -297 372 -297q71 0 111 45q41 46 41 113q0 79 -60 132q-61 53 -181 111q-57 28 -83 42q-30 16 -75 48q-45 31 -70 61q-26 30 -45 76q-19 45 -19 99q0 131 97 198q98 68 225 68q132 0 297 -68l19 -229l-13 -4
q-67 103 -151 180q-86 78 -165 78q-61 0 -102 -41q-40 -40 -40 -108q0 -37 15 -70q14 -31 32 -52q16 -20 57 -45q39 -24 62 -36q2 -1 76 -37q143 -68 219 -141q77 -74 77 -186q0 -125 -93 -198q-94 -74 -240 -74z" />
    <glyph glyph-name="t" unicode="t" horiz-adv-x="647" 
d="M387 -16h1q-109 0 -181 69t-72 202v676h-104v24q212 154 274 279h21v-252h286l-6 -51h-278l-4 -647q0 -110 45 -159t114 -49q80 0 150 76l10 -11q-106 -157 -256 -157z" />
    <glyph glyph-name="u" unicode="u" horiz-adv-x="1171" 
d="M1006 227l1 -1q0 -99 26 -127q25 -26 122 -52v-12l-334 -64v217q-167 -213 -369 -213q-118 0 -198 72q-79 72 -79 211v416q0 136 -27 179t-123 81v12q193 17 345 64q0 -111 -3 -348t-3 -348q0 -118 51 -173q51 -56 131 -56q135 0 268 145v443q0 137 -27 180t-123 81v12
q172 12 342 62v-781z" />
    <glyph glyph-name="v" unicode="v" horiz-adv-x="1062" 
d="M709 981l349 3v-12q-88 -43 -121 -78q-32 -34 -61 -108l-320 -788h-39l-348 827q-23 51 -56 83t-109 63v12h496v-12q-74 -26 -103 -49q-30 -24 -30 -57q0 -21 20 -78q7 -19 16 -39q12 -27 69 -165q23 -56 143 -342q155 383 209 544q11 36 13 64q0 37 -29 63
q-28 26 -99 57v12z" />
    <glyph glyph-name="w" unicode="w" horiz-adv-x="1646" 
d="M1294 981l347 -3v-12q-67 -39 -90 -54t-47 -44q-23 -27 -43 -78l-321 -797h-43l-273 655l-266 -655h-41l-350 835q-31 74 -165 138v12h498v-12q-77 -27 -106 -49q-30 -23 -30 -54q0 -24 16 -65q11 -31 233 -557l185 469l-51 125q-18 48 -55 74q-36 26 -108 58v12h499v-12
q-76 -22 -109 -44q-31 -21 -31 -56q0 -24 14 -60q6 -14 76 -182q36 -86 162 -382q201 521 213 552q14 36 14 59q0 35 -28 59q-30 25 -100 56v12z" />
    <glyph glyph-name="x" unicode="x" horiz-adv-x="1075" 
d="M911 125v1q45 -67 150 -113v-12h-520v12q145 39 145 84q0 11 -20 45l-193 287l-201 -266q-20 -28 -20 -51q0 -56 123 -99v-12h-357v12q122 53 195 150l236 305l-271 389q-62 91 -151 113v12h518v-12q-146 -34 -148 -80q0 -19 37 -74l164 -242l180 248q23 35 23 51
q0 47 -123 96v12h352v-12q-121 -51 -196 -154l-209 -280z" />
    <glyph glyph-name="y" unicode="y" horiz-adv-x="1079" 
d="M719 981l355 -4v-12q-87 -40 -121 -80t-62 -115q-210 -552 -254 -660q-35 -86 -84 -180q-53 -106 -81 -153q-30 -48 -78 -104q-50 -57 -122 -104l-118 156l4 12q101 0 199 46q99 47 150 150l2 9q3 5 12 23q4 8 18 38l-367 821q-44 102 -166 144v12h512v-12
q-71 -28 -102 -53q-30 -24 -30 -57q0 -26 19 -67l235 -545q116 276 204 538q10 33 10 56q0 76 -135 129v12z" />
    <glyph glyph-name="z" unicode="z" horiz-adv-x="913" 
d="M854 981v-23l-571 -915h315q53 0 95 48q41 47 138 218h13l-33 -309h-752v23l572 915h-287q-43 0 -85 -46q-43 -48 -150 -208h-13l33 297h725z" />
    <glyph glyph-name="braceleft" unicode="{" horiz-adv-x="708" 
d="M397 135l2 -5q-20 -98 -20 -182q0 -292 256 -338l-8 -18q-179 26 -291 123q-113 98 -113 282q0 60 17 145l14 70q12 58 12 117q0 125 -54 191q-54 65 -114 76v23q60 11 113 76q54 66 54 189q0 62 -12 120l-14 69q-17 83 -18 147q0 181 113 279q112 97 291 123l8 -18
q-256 -46 -256 -338q0 -77 20 -183l19 -92q10 -49 10 -96q0 -125 -66 -201t-132 -84q67 -12 132 -88q66 -76 66 -198q0 -47 -10 -97z" />
    <glyph glyph-name="bar" unicode="|" horiz-adv-x="374" 
d="M215 -240h-53v1821h53v-1821z" />
    <glyph glyph-name="braceright" unicode="}" horiz-adv-x="667" 
d="M420 1001l-2 2q-12 -57 -12 -116q0 -124 54 -190q53 -65 113 -76v-22q-60 -11 -113 -76q-54 -66 -54 -189q0 -62 12 -120l14 -70q17 -83 18 -145q0 -181 -113 -280q-112 -98 -291 -124l-8 19q256 46 256 338q0 80 -21 182l-18 92q-10 49 -10 97q0 125 66 200t131 86
q-67 11 -131 87q-65 77 -65 199q0 47 10 96l18 92q20 96 21 183q0 292 -256 338l8 18q179 -26 291 -123q113 -98 113 -282q0 -61 -17 -146z" />
    <glyph glyph-name="asciitilde" unicode="~" horiz-adv-x="948" 
d="M670 580q-70 0 -204 69t-213 69q-98 0 -197 -78l-18 14q131 203 282 203q71 0 202 -70t210 -70q78 0 164 51l14 -14q-104 -174 -240 -174z" />
    <glyph glyph-name="exclamdown" unicode="&#xa1;" horiz-adv-x="436" 
d="M221 1010q52 0 89 -37q38 -38 38 -88t-38 -88q-37 -37 -89 -37q-53 0 -90 37q-38 38 -38 88t38 88q37 37 90 37zM197 588l43 -2q11 -133 23 -306q9 -127 29 -393q14 -179 33 -339v-16h-211v16q18 160 33 330t30 411q13 214 20 299z" />
    <glyph glyph-name="cent" unicode="&#xa2;" horiz-adv-x="933" 
d="M899 326l-1 -3q-28 -141 -123 -243t-258 -102v-168h-47v170q-178 16 -297 158q-118 140 -118 354q0 215 121 357q122 143 294 153v137h47v-135q112 -6 201 -67q90 -61 145 -139l-166 -131l-8 4q-12 98 -54 179t-118 103v-813q44 -10 87 -10q106 0 177 60t102 142z
M230 570l-1 -1q0 -157 66 -264q66 -106 173 -150v803q-86 0 -162 -105q-76 -104 -76 -283z" />
    <glyph glyph-name="sterling" unicode="&#xa3;" horiz-adv-x="1091" 
d="M975 381l11 -3l-55 -381h-873v70q75 49 130 111q53 61 78 107q24 45 36 111q11 62 13 91q1 17 1 78q0 81 -55 215h-209v49h189q-52 129 -54 236q0 179 120 300t319 121q142 0 305 -60l41 -268h-14q-73 114 -171 199q-97 84 -195 84q-94 0 -165 -75q-71 -76 -71 -191
q0 -78 54 -194q53 -112 64 -150h311v-49h-299q11 -44 13 -143q0 -61 -6 -102q-6 -40 -30 -103q-23 -61 -86 -133q-61 -71 -162 -150h528q63 0 126 69q61 67 106 161z" />
    <glyph glyph-name="currency" unicode="&#xa4;" horiz-adv-x="1056" 
d="M897 360h-1q-4 -4 -6 -9l129 -129l-37 -41l-131 133q-136 -123 -320 -122q-181 0 -321 122l-133 -133l-39 39l135 133l-8 8h2q-115 134 -115 310q0 185 121 321l-133 133l41 39l133 -133l4 4q117 117 313 117q174 0 314 -119v2l6 -6l131 133l39 -39l-131 -131q0 -2 4 -6
h-2q121 -140 121 -309q0 -89 -35 -180t-81 -137zM112 672h-1q0 -174 123 -297t296 -123t296 123t123 297t-123 299t-298 125q-170 0 -293 -125t-123 -299z" />
    <glyph glyph-name="yen" unicode="&#xa5;" horiz-adv-x="1357" 
d="M961 1442h383v-12q-43 -17 -78 -41q-33 -23 -60 -57t-42 -57q-19 -28 -44 -72l-299 -506h267v-45h-291v-178h293v-45h-293v-170q0 -129 30 -167t153 -81v-12h-586v12q123 43 153 81t30 167v170h-293v45h293v164l-9 14h-286v45h260l-355 588q-33 55 -61 80q-29 26 -112 64
v12h568v-12q-86 -42 -114 -61q-30 -21 -30 -49q0 -27 43 -100l295 -500l281 485q35 58 35 101q0 72 -131 125v12z" />
    <glyph glyph-name="section" unicode="&#xa7;" horiz-adv-x="1095" 
d="M975 543l-4 8q0 -101 -61 -171q-62 -71 -172 -141q140 -113 141 -246q0 -128 -100 -210q-101 -83 -248 -83q-146 0 -311 80l-14 256h14q51 -116 136 -204t184 -88q72 0 131 45t59 125q0 38 -16 73q-17 37 -31 58q-15 23 -63 60q-12 9 -27.5 21t-23.5 18.5t-13 10.5
q-16 12 -81 57q-123 86 -186 135t-111 126t-48 162q0 205 223 319q-145 118 -145 258q0 119 89 200t237 81q150 0 299 -66l26 -245h-12q-58 105 -144 187q-85 81 -174 81q-67 0 -120 -47q-52 -46 -52 -123q0 -35 15 -71t33 -60q19 -25 55 -54q38 -30 54 -42q10 -7 59 -37
q43 -26 44 -27q71 -46 79 -51q30 -19 89 -69q63 -53 95 -94q36 -46 65 -106q30 -63 30 -126zM705 266v2q125 104 125 216q0 162 -320 365q-52 31 -127 84q-123 -83 -123 -211q0 -90 69 -167t225 -186q40 -28 85 -58q41 -27 66 -45z" />
    <glyph glyph-name="dieresis" unicode="&#xa8;" horiz-adv-x="716" 
d="M190 1176q-48 0 -79 33q-31 32 -31 78q0 47 33 80t78 33q47 0 80 -34t33 -79t-33 -78t-81 -33zM527 1176q-45 0 -78 33t-33 78q0 47 33 80t78 33t79 -34t34 -79t-33 -78t-80 -33z" />
    <glyph glyph-name="copyright" unicode="&#xa9;" horiz-adv-x="1675" 
d="M838 -10h-1q-311 0 -530 219t-219 528t219 527q220 218 531 218q308 0 528 -218q219 -218 219 -528t-219 -528q-220 -218 -528 -218zM839 43h-2q284 0 485 208q201 209 201 486q0 280 -203 485q-203 204 -481 204q-279 0 -484 -202t-205 -487q0 -283 204 -489
q204 -205 485 -205zM833 1229l2 -1q-121 0 -211 -123t-90 -342q0 -224 95 -354q95 -129 213 -129q88 0 171 71t144 165h8l-26 -217q-157 -51 -297 -51q-209 0 -338 132t-129 361q0 233 132 377t331 144q128 0 301 -54l26 -217h-8q-58 93 -144 166q-85 72 -180 72z" />
    <glyph glyph-name="ordfeminine" unicode="&#xaa;" horiz-adv-x="657" 
d="M516 889l-1 -1q-102 0 -102 127v2q-29 -52 -84 -89q-56 -38 -131 -38t-118 39t-43 102q0 161 379 261l4 92q2 39 -18 69q-19 30 -64 30q-57 0 -91 -55q-34 -54 -46 -129l-6 -2l-111 68q33 56 102 100q68 43 171 43q115 0 163 -55t46 -135l-8 -318q0 -41 33 -41
q29 0 54 54l10 -6q-17 -50 -52 -84t-87 -34zM280 978l-1 -1q68 0 131 70l4 221q-219 -72 -219 -199q0 -42 23 -67q22 -24 62 -24z" />
    <glyph glyph-name="guillemotleft" unicode="&#xab;" horiz-adv-x="1040" 
d="M580 922h1q-125 -202 -289 -410q165 -207 288 -412h-33q-199 194 -459 402v20q260 208 459 400h33zM957 922v1q-124 -202 -290 -410q165 -205 290 -412h-32q-215 207 -459 402v20q236 187 459 399h32z" />
    <glyph glyph-name="registered" unicode="&#xae;" horiz-adv-x="1161" 
d="M582 584h-1q-205 0 -349 144t-144 347t144 347t350 144q203 0 347 -144t144 -347t-144 -347t-347 -144zM581 635v-2q182 0 311 131q129 130 129 309q0 178 -129 310t-311 132q-178 0 -310 -129t-132 -311t132 -311t310 -129zM775 866v-3q26 -34 64 -63v-4h-119
q-128 201 -180 289l-47 -3v-184q0 -50 11 -66q10 -14 56 -31v-4h-221v4q44 16 57 32q12 15 12 66v379q0 51 -12 66q-13 16 -57 32v6h227q96 0 150 -39t54 -101q0 -63 -52 -108t-129 -45h-25v-2q34 -23 84 -18q3 -3 29 -45q33 -53 57 -94q27 -46 41 -64zM493 1359v-256h71
q50 0 85 33q34 33 34 98q0 125 -127 125h-63z" />
    <glyph glyph-name="macron" unicode="&#xaf;" horiz-adv-x="659" 
d="M584 1335v-118h-504v118h504z" />
    <glyph glyph-name="degree" unicode="&#xb0;" horiz-adv-x="849" 
d="M428 864l1 -2q-129 0 -222 93t-93 222q0 131 92 221t222 90q128 0 220 -90q91 -90 91 -221t-91 -222t-220 -91zM429 913l-1 1q110 0 182 78t72 185q0 111 -72 186t-183 75t-184 -75q-73 -74 -73 -186q0 -111 76 -187q77 -77 183 -77z" />
    <glyph glyph-name="uni00B2" unicode="&#xb2;" horiz-adv-x="608" 
d="M401 745l-1 -2q67 0 102 20q34 19 75 78l8 -2l-72 -230h-506v29q379 379 379 585q0 78 -41 122t-99 44q-107 0 -204 -115l-18 6q50 86 126 147q77 62 165 62q86 0 149 -60t63 -157q0 -108 -89 -226q-87 -115 -288 -301h251z" />
    <glyph glyph-name="uni00B3" unicode="&#xb3;" horiz-adv-x="632" 
d="M47 1311h1q130 178 297 178q85 0 141 -47t56 -120q0 -136 -209 -216v-2q12 4 33 4q107 0 170 -63t63 -168q0 -129 -92 -204q-91 -75 -215 -75q-116 0 -252 53l65 152l9 -2q80 -170 189 -170q63 0 108 60t45 150q0 92 -46 147q-47 56 -124 56q-49 0 -109 -24l-8 22
q236 111 236 244q0 117 -132 117q-119 0 -210 -105z" />
    <glyph glyph-name="acute" unicode="&#xb4;" horiz-adv-x="436" 
d="M100 1137h-20q20 96 57 327h223q-159 -210 -260 -327z" />
    <glyph glyph-name="paragraph" unicode="&#xb6;" horiz-adv-x="978" 
d="M524 1464l-2 -1464h-282v12q123 44 153 81t30 167v322h-47q-139 0 -238 129t-99 311t99 312t239 130h147zM942 1464v-16q-89 -32 -121 -52q-33 -21 -48 -62q-15 -40 -15 -132v-944q0 -92 15 -132q15 -41 48 -62q32 -20 121 -52v-12h-282v1464h282z" />
    <glyph glyph-name="periodcentered" unicode="&#xb7;" horiz-adv-x="452" 
d="M229 446l-1 -1q-57 0 -99 42t-42 98q0 57 42 99t99 42q56 0 98 -42t42 -99q0 -55 -42 -97t-97 -42z" />
    <glyph glyph-name="cedilla" unicode="&#xb8;" horiz-adv-x="559" 
d="M96 -406l-1 -1q246 23 246 138q0 47 -50 77q-49 29 -138 34l104 152h37l-39 -68q225 -14 225 -156q0 -102 -102 -156q-101 -54 -298 -52z" />
    <glyph glyph-name="uni00B9" unicode="&#xb9;" horiz-adv-x="440" 
d="M63 610v8q67 27 84 51q17 25 17 98v516q0 45 -24 66q-25 22 -94 44v6l270 96v-729q0 -73 15 -97t87 -51v-8h-355z" />
    <glyph glyph-name="ordmasculine" unicode="&#xba;" horiz-adv-x="669" 
d="M334 889h-1q-137 0 -219 84q-82 83 -82 219q0 134 83 225q83 90 222 90q133 0 216 -84q83 -85 83 -221q0 -135 -83 -224t-219 -89zM359 920l-2 -1q49 0 84 50q34 49 34 147q0 74 -15 152q-15 77 -56 144q-40 66 -96 66q-52 0 -86 -51q-35 -52 -35 -149q0 -118 45 -238
t127 -120z" />
    <glyph glyph-name="guillemotright" unicode="&#xbb;" horiz-adv-x="1040" 
d="M88 922h33q220 -208 459 -400v-20q-244 -195 -459 -402h-33q128 209 291 412q-165 205 -291 410zM465 922l34 -1q216 -206 458 -399v-20q-249 -197 -458 -402h-33q123 205 288 412q-164 208 -289 410z" />
    <glyph glyph-name="onequarter" unicode="&#xbc;" horiz-adv-x="1583" 
d="M63 610v8q67 27 84 51q17 25 17 98v516q0 45 -24 66q-25 22 -94 44v6l270 96v-729q0 -73 15 -97t87 -51v-8h-355zM203 0l1009 1464h50l-1008 -1464h-51zM1503 256l-122 -1v-100q0 -72 17 -97q16 -24 87 -51v-8h-344v8q70 27 85 51t15 98v100h-373v20l484 601h30v-555h134
zM945 321h295v376z" />
    <glyph glyph-name="onehalf" unicode="&#xbd;" horiz-adv-x="1554" 
d="M63 610v8q67 27 84 51q17 25 17 98v516q0 45 -24 66q-25 22 -94 44v6l270 96v-729q0 -73 15 -97t87 -51v-8h-355zM203 0l1009 1464h50l-1008 -1464h-51zM1307 133h-1q67 0 101 20q32 19 76 78l8 -2l-72 -229h-506v27q379 379 379 585q0 78 -41 122t-99 44
q-102 0 -203 -114l-18 6q49 86 126 147q77 62 165 62q86 0 149 -60t63 -157q0 -109 -90 -226q-91 -119 -289 -303h252z" />
    <glyph glyph-name="threequarters" unicode="&#xbe;" horiz-adv-x="1701" 
d="M47 1311h1q130 178 297 178q85 0 141 -47t56 -120q0 -136 -209 -216v-2q12 4 33 4q107 0 170 -63t63 -168q0 -129 -92 -204q-91 -75 -215 -75q-116 0 -252 53l65 152l9 -2q80 -170 189 -170q63 0 108 60t45 150q0 92 -46 147q-47 56 -124 56q-49 0 -109 -24l-8 22
q236 111 236 244q0 117 -132 117q-119 0 -210 -105zM323 0l1009 1464h49l-1007 -1464h-51zM1623 256l-122 -1v-100q0 -72 17 -97q16 -24 87 -51v-8h-344v8q70 27 85 51t15 98v100h-373v20l483 601h31v-555h133zM1065 321h295v376z" />
    <glyph glyph-name="questiondown" unicode="&#xbf;" horiz-adv-x="872" 
d="M532 1010q52 0 89 -37q38 -38 38 -88q0 -51 -37 -88t-90 -37t-90 37q-38 38 -38 88t38 88q37 37 90 37zM573 588l-4 -4q-7 -101 -44 -196q-36 -93 -84 -159q-14 -20 -95 -129q-46 -63 -78 -135q-31 -71 -31 -150q0 -103 50 -186q49 -82 140 -82q67 0 125 54q60 55 92 114
q33 60 57 129l5 2l118 -192q-195 -145 -401 -147q-167 0 -270 90t-103 235q0 89 43 168q45 82 106 143q84 84 127 126q65 63 116 146q52 83 62 173h69z" />
    <glyph glyph-name="Agrave" unicode="&#xc0;" horiz-adv-x="1474" 
d="M823 1575l-19 1q-107 120 -261 323h223q34 -223 57 -324zM1263 189l-1 -2q31 -79 62 -111q29 -31 128 -64v-12h-586v12q97 34 134 59q36 24 36 62q0 30 -26 105l-99 270h-514l-26 -72q-78 -207 -78 -272q0 -55 38 -87q39 -32 132 -65v-12h-436v12q106 66 159 140
q52 74 123 273l314 854l-60 119q120 50 198 110zM426 587h455l-228 624z" />
    <glyph glyph-name="Aacute" unicode="&#xc1;" horiz-adv-x="1474" 
d="M930 1898h1q-138 -187 -260 -327h-21q22 109 57 327h223zM1263 188l-1 -2q31 -79 62 -111q29 -31 128 -64v-12h-586v12q97 34 134 59q36 24 36 62q0 30 -26 105l-99 270h-514l-26 -72q-78 -207 -78 -272q0 -55 38 -87q39 -32 132 -65v-12h-436v12q106 66 159 140
q52 73 123 273l314 854l-60 119q120 50 198 110zM426 586h455l-228 624z" />
    <glyph glyph-name="Acircumflex" unicode="&#xc2;" horiz-adv-x="1474" 
d="M745 1704l-240 -174l-12 12q127 178 246 363h11q145 -223 247 -363l-14 -12zM1261 188l-1 -2q31 -79 62 -111q29 -31 128 -64v-12h-586v12q97 34 134 59q36 24 36 62q0 30 -26 105l-99 270h-514l-26 -72q-78 -207 -78 -272q0 -55 38 -87q39 -32 132 -65v-12h-436v12
q106 66 159 140q52 73 123 273l314 854l-60 119q120 50 198 110zM424 586h455l-228 624z" />
    <glyph glyph-name="Atilde" unicode="&#xc3;" horiz-adv-x="1474" 
d="M582 1653v-1q-53 0 -80 -12t-64 -49l-14 4q18 96 68 140t140 44q32 0 135 -33t138 -33q48 0 76 14q25 13 55 47l17 -5q-32 -182 -193 -182q-48 0 -147 31q-114 35 -131 35zM1262 187l-1 -2q31 -79 62 -111q29 -31 128 -64v-12h-586v12q97 34 134 59q36 24 36 62
q0 30 -26 105l-99 270h-514l-26 -72q-78 -207 -78 -272q0 -55 38 -87q39 -32 132 -65v-12h-436v12q106 66 159 140t123 273l314 854l-60 119q120 50 198 110zM425 585h455l-228 624z" />
    <glyph glyph-name="Adieresis" unicode="&#xc4;" horiz-adv-x="1474" 
d="M547 1561v-1q-49 0 -84 33q-34 33 -34 83q0 47 34 81q35 35 84 35q46 0 81 -35t35 -81q0 -49 -35 -82q-34 -33 -81 -33zM930 1560v-1q-46 0 -81 33t-35 83q0 46 35 81t81 35q49 0 84 -35t35 -81q0 -49 -35 -82q-34 -33 -84 -33zM1262 186l-1 -2q31 -79 62 -111
q29 -31 128 -64v-12h-586v12q97 34 134 59q36 24 36 62q0 30 -26 105l-99 270h-514l-26 -72q-78 -207 -78 -272q0 -55 38 -87q39 -32 132 -65v-12h-436v12q106 66 159 140q53 73 123 273l314 854l-60 119q120 50 198 110zM425 584h455l-228 624z" />
    <glyph glyph-name="Aring" unicode="&#xc5;" horiz-adv-x="1474" 
d="M739 1534v-3q-75 0 -129 56q-54 55 -54 135q0 76 54 132t129 56t129 -54t54 -132q0 -80 -54 -135t-129 -55zM737 1863h-2q-54 0 -90 -40q-36 -41 -36 -97q0 -57 38 -103q38 -45 92 -45t90 43t36 99q0 60 -37 101q-38 42 -91 42zM1259 185l-1 -2q31 -79 62 -111
q29 -31 128 -64v-12h-586v12q97 34 134 59q36 24 36 62q0 30 -26 105l-99 270h-514l-26 -72q-78 -207 -78 -272q0 -55 38 -87q39 -32 132 -65v-12h-436v12q106 66 159 140q52 74 123 273l314 854l-60 119q120 50 198 110zM422 583h455l-228 624z" />
    <glyph glyph-name="AE" unicode="&#xc6;" horiz-adv-x="1966" 
d="M1855 356l9 -2l-49 -356h-1074v12q123 44 153 81t30 167v246h-479l-134 -227q-49 -85 -49 -132q0 -80 166 -135v-12h-422v12q83 55 135 110q50 53 108 152l610 1033q8 18 8 24q0 25 -36 51q-39 28 -130 71v12h1044l37 -340h-12q-41 118 -132 203q-92 86 -232 86h-258
v-602h250q145 0 229 137h10v-342h-10q-35 64 -93 110q-58 47 -135 45l-250 -4v-615q0 -37 72 -63q71 -25 201 -25h88q112 0 201 90t144 213zM490 580h434v729h-4z" />
    <glyph glyph-name="Ccedilla" unicode="&#xc7;" horiz-adv-x="1370" 
d="M762 27l-1 1q129 0 254 105q124 104 216 248h12l-41 -326q-225 -77 -436 -78l-20 -43q118 -8 189 -54q71 -47 71 -126q0 -172 -367 -172l10 35q103 7 162 39t59 83q0 44 -59 77q-59 34 -153 35l70 125q-295 7 -481 207t-186 535q0 346 198 559t497 213q190 0 447 -78
l41 -326h-12q-91 144 -216 250q-124 105 -264 105q-182 0 -315 -183q-133 -182 -133 -510q0 -340 141 -531q141 -190 317 -190z" />
    <glyph glyph-name="Egrave" unicode="&#xc8;" horiz-adv-x="1271" 
d="M737 1571h-20q-112 127 -262 327h225q38 -231 57 -327zM1159 356l13 2l-49 -356h-1083v12q86 30 121 53q33 21 47 62q14 42 14 132v944q0 90 -14 132q-14 41 -47 62q-35 23 -121 53v12h1012l36 -340h-14q-39 114 -131 202q-91 87 -233 87h-265v-604h263q145 0 229 137h10
v-342h-10q-33 63 -93 111q-59 48 -136 46l-263 -4v-615q0 -38 72 -63q71 -25 201 -25h100q112 0 201 92t140 210z" />
    <glyph glyph-name="Eacute" unicode="&#xc9;" horiz-adv-x="1271" 
d="M844 1898h1q-138 -187 -260 -327h-21q22 109 57 327h223zM1160 356l13 2l-49 -356h-1083v12q86 30 121 53q33 21 47 62q14 42 14 132v944q0 90 -14 132q-14 41 -47 62q-35 23 -121 53v12h1012l36 -340h-14q-39 114 -131 202q-91 87 -233 87h-265v-604h263q145 0 229 137
h10v-342h-10q-33 63 -93 111q-59 48 -136 46l-263 -4v-615q0 -38 72 -63q71 -25 201 -25h100q112 0 201 92t140 210z" />
    <glyph glyph-name="Ecircumflex" unicode="&#xca;" horiz-adv-x="1271" 
d="M659 1704l-240 -174l-12 12q127 178 246 363h11q145 -223 247 -363l-14 -12zM1158 356l13 2l-49 -356h-1083v12q86 30 121 53q33 21 47 62q14 42 14 132v944q0 90 -14 132q-14 41 -47 62q-35 23 -121 53v12h1012l36 -340h-14q-39 114 -131 202q-92 87 -233 87h-265v-604
h263q145 0 229 137h10v-342h-10q-33 63 -93 111q-59 48 -136 46l-263 -4v-615q0 -38 72 -63q71 -25 201 -25h100q112 0 201 92t140 210z" />
    <glyph glyph-name="Edieresis" unicode="&#xcb;" horiz-adv-x="1271" 
d="M461 1561v-1q-49 0 -84 33q-34 33 -34 83q0 47 34 81q35 35 84 35q46 0 81 -35t35 -81q0 -49 -35 -82q-34 -33 -81 -33zM844 1560v-1q-46 0 -81 33t-35 83q0 46 35 81t81 35q49 0 84 -35t35 -81q0 -49 -35 -82q-34 -33 -84 -33zM1159 354l13 2l-49 -356h-1083v12
q86 30 121 53q33 21 47 62q14 42 14 132v944q0 90 -14 132q-14 41 -47 62q-35 23 -121 53v12h1012l36 -340h-14q-39 114 -131 202q-91 87 -233 87h-265v-604h263q145 0 229 137h10v-342h-10q-33 63 -93 111q-59 48 -136 46l-263 -4v-615q0 -38 72 -63q71 -25 201 -25h100
q112 0 201 92t140 210z" />
    <glyph glyph-name="Igrave" unicode="&#xcc;" horiz-adv-x="661" 
d="M399 1571q-112 127 -262 327h225q39 -240 58 -327h-21zM39 0v10q86 30 121 53q33 21 47 62q14 42 14 132v944q0 90 -14 132q-14 41 -47 62q-35 23 -121 53v12h588v-12q-89 -32 -121 -52q-33 -21 -48 -62q-15 -40 -15 -132v-944q0 -92 15 -132q15 -41 48 -62
q32 -20 121 -52v-12h-588z" />
    <glyph glyph-name="Iacute" unicode="&#xcd;" horiz-adv-x="661" 
d="M264 1571h-20q22 109 57 327h223q-138 -187 -260 -327zM39 0v10q86 30 121 53q33 21 47 62q14 42 14 132v944q0 90 -14 132q-14 41 -47 62q-35 23 -121 53v12h588v-12q-89 -32 -121 -52q-33 -21 -48 -62q-15 -40 -15 -132v-944q0 -92 15 -132q15 -41 48 -62
q32 -20 121 -52v-12h-588z" />
    <glyph glyph-name="Icircumflex" unicode="&#xce;" horiz-adv-x="661" 
d="M100 1530l-12 12q128 178 246 363h10q137 -212 248 -363l-14 -12l-238 174zM39 0v10q86 30 121 53q33 21 47 62q14 42 14 132v944q0 90 -14 132q-14 41 -47 62q-35 23 -121 53v12h588v-12q-89 -32 -121 -52q-33 -21 -48 -62q-15 -40 -15 -132v-944q0 -92 15 -132
q15 -41 48 -62q32 -20 121 -52v-12h-588z" />
    <glyph glyph-name="Idieresis" unicode="&#xcf;" horiz-adv-x="661" 
d="M141 1561l-1 -1q-49 0 -82 33t-33 83q0 46 33 81t83 35q46 0 81 -35t35 -81q0 -49 -35 -82q-34 -33 -81 -33zM523 1560l-1 -1q-46 0 -81 33q-34 33 -34 83q0 46 35 81t81 35q49 0 84 -35t35 -81q0 -49 -35 -82t-84 -33zM37 -2v10q86 30 121 53q33 21 47 62q14 42 14 132
v944q0 90 -14 132q-14 41 -47 62q-35 23 -121 53v12h588v-12q-89 -32 -121 -52q-33 -21 -48 -62q-15 -40 -15 -132v-944q0 -92 15 -132q15 -41 48 -62q32 -20 121 -52v-12h-588z" />
    <glyph glyph-name="Eth" unicode="&#xd0;" horiz-adv-x="1445" 
d="M567 1464l-1 3q401 0 608 -195t207 -514q0 -324 -198 -540t-521 -216h-623v12q86 30 121 53q33 21 47 62q14 42 14 132v479h-104v49h104v416q0 90 -14 132q-14 41 -47 62q-35 23 -121 53v12h528zM652 62l1 -1q233 0 362 186t129 500q0 323 -144 496q-144 172 -441 172
h-115v-625h234v-49h-234v-598q0 -33 54 -57t152 -24h2z" />
    <glyph glyph-name="Ntilde" unicode="&#xd1;" horiz-adv-x="1499" 
d="M612 1653l-2 -1q-52 0 -79 -12t-64 -49l-14 4q18 97 67 140q50 44 141 44q31 0 135 -33t138 -33q48 0 76 14q27 14 56 47l16 -5q-32 -182 -192 -182q-48 0 -147 31q-114 35 -131 35zM1471 1463l-1 -14q-95 -28 -133 -57q-37 -28 -55 -97t-18 -220v-1077h-164
q-359 574 -801 1235v-848q0 -151 18 -220t55 -97q38 -29 133 -57v-12h-469v12q97 29 134 57q38 29 56 98t18 220v911q-56 91 -201 153v12h361q462 -695 802 -1242v856q0 150 -17 221q-16 68 -54 97t-133 57v12h469z" />
    <glyph glyph-name="Ograve" unicode="&#xd2;" horiz-adv-x="1533" 
d="M831 1571q-112 127 -262 327h226q37 -231 57 -327h-21zM766 -25h-2q-310 0 -506 211q-197 212 -197 547t197 546q197 210 506 210q310 0 506 -210q197 -211 197 -546q0 -336 -196 -547t-505 -211zM801 29l-1 -2q190 0 310 169q120 170 120 444q0 133 -32 272
q-32 136 -90 255q-59 119 -159 194q-101 75 -223 75q-193 0 -312 -170q-118 -169 -118 -443q0 -186 54 -363t172 -304t279 -127z" />
    <glyph glyph-name="Oacute" unicode="&#xd3;" horiz-adv-x="1533" 
d="M696 1571h-20q22 109 57 327h223q-138 -187 -260 -327zM766 -25h-2q-310 0 -506 211q-197 212 -197 547t197 546q197 210 506 210q310 0 506 -210q197 -211 197 -546q0 -336 -196 -547t-505 -211zM801 29l-1 -2q190 0 310 169q120 170 120 444q0 133 -32 272
q-32 136 -90 255q-59 119 -159 194q-101 75 -223 75q-193 0 -312 -170q-118 -169 -118 -443q0 -186 54 -363t172 -304t279 -127z" />
    <glyph glyph-name="Ocircumflex" unicode="&#xd4;" horiz-adv-x="1533" 
d="M535 1530l-13 12q128 178 246 363h10q137 -212 248 -363l-14 -12l-238 174zM766 -25h-2q-310 0 -506 211q-197 212 -197 547t197 546q197 210 506 210q310 0 506 -210q197 -211 197 -546q0 -336 -196 -547t-505 -211zM801 29l-1 -2q190 0 310 169q120 170 120 444
q0 133 -32 272q-32 136 -90 255q-59 119 -159 194q-101 75 -223 75q-193 0 -312 -170q-118 -169 -118 -443q0 -186 54 -363t172 -304t279 -127z" />
    <glyph glyph-name="Otilde" unicode="&#xd5;" horiz-adv-x="1533" 
d="M1063 1774l14 -6q-32 -182 -192 -182q-45 0 -148 31q-114 35 -131 35q-52 0 -79 -12t-64 -49l-14 4q18 97 67 140q50 44 139 44q31 0 136 -33t140 -33q48 0 76 14q27 14 56 47zM764 -26h-2q-310 0 -506 211q-197 212 -197 547t197 546q196 210 506 210t506 -210
q197 -211 197 -546q0 -336 -196 -547t-505 -211zM799 28l-1 -2q190 0 310 169t120 444q0 133 -32 272q-32 137 -90 255q-59 119 -159 194t-223 75q-193 0 -312 -170q-118 -169 -118 -443q0 -186 54 -363t172 -304t279 -127z" />
    <glyph glyph-name="Odieresis" unicode="&#xd6;" horiz-adv-x="1533" 
d="M575 1561l-1 -1q-49 0 -82 33t-33 83q0 46 33 81t83 35q46 0 81 -35t35 -81q0 -49 -35 -82q-34 -33 -81 -33zM957 1560l-1 -1q-46 0 -81 33q-34 33 -34 83q0 46 35 81t81 35q49 0 84 -35t35 -81q0 -49 -35 -82t-84 -33zM764 -27h-2q-310 0 -506 211q-197 212 -197 547
t197 546q196 210 506 210t506 -210q197 -211 197 -546q0 -336 -196 -547t-505 -211zM799 27l-1 -2q190 0 310 169q120 170 120 444q0 133 -32 272q-32 136 -90 255q-59 119 -159 194t-223 75q-193 0 -312 -170q-118 -169 -118 -443q0 -186 54 -363t172 -304t279 -127z" />
    <glyph glyph-name="multiply" unicode="&#xd7;" horiz-adv-x="808" 
d="M723 401l-33 -34l-284 284l-277 -276l-33 31l279 278l-287 285l35 35l285 -287l276 276l31 -32l-275 -275z" />
    <glyph glyph-name="Oslash" unicode="&#xd8;" horiz-adv-x="1533" 
d="M1221 1327q247 -211 246 -594q0 -336 -196 -547t-505 -211q-239 0 -418 134l-123 -172h-55l143 198q-250 217 -250 598q0 335 197 546q197 210 506 210q242 0 420 -133l112 157h56zM299 821l-2 -1q0 -298 125 -528l659 921q-137 221 -351 222q-194 0 -313 -171
q-118 -170 -118 -443zM803 28v-1q184 0 306 167t122 446q0 298 -125 530l-657 -921q140 -221 354 -221z" />
    <glyph glyph-name="Ugrave" unicode="&#xd9;" horiz-adv-x="1478" 
d="M834 1571h1q-115 131 -264 327h226q37 -231 57 -327h-20zM1459 1464l1 -14q-95 -28 -133 -57q-37 -28 -55 -97t-18 -220v-616q0 -231 -136 -358t-363 -127q-96 0 -186 26q-88 25 -169 81t-129 165t-48 261v694q0 90 -14 132q-14 41 -47 62q-35 23 -121 53v12h588v-12
q-89 -32 -121 -52q-33 -21 -48 -62t-15 -132v-684q0 -226 101 -350q100 -123 270 -123q158 0 269 105t111 308v618q0 152 -18 221t-55 97q-38 29 -133 57v12h469z" />
    <glyph glyph-name="Uacute" unicode="&#xda;" horiz-adv-x="1478" 
d="M700 1571h-20q22 109 57 327h224q-143 -190 -261 -327zM1458 1464l1 -14q-95 -28 -133 -57q-37 -28 -55 -97t-18 -220v-616q0 -231 -136 -358t-363 -127q-96 0 -186 26q-88 25 -169 81t-129 165t-48 261v694q0 90 -14 132q-14 41 -47 62q-35 23 -121 53v12h588v-12
q-89 -32 -121 -52q-33 -21 -48 -62t-15 -132v-684q0 -226 101 -350q101 -123 270 -123q158 0 269 105t111 308v618q0 152 -18 221t-55 97q-38 29 -133 57v12h469z" />
    <glyph glyph-name="Ucircumflex" unicode="&#xdb;" horiz-adv-x="1478" 
d="M537 1530l-13 12q128 178 246 363h10q137 -212 248 -363l-14 -12l-238 174zM1458 1464l1 -14q-95 -28 -133 -57q-37 -28 -55 -97t-18 -220v-616q0 -231 -136 -358t-363 -127q-96 0 -186 26q-88 25 -169 81t-129 165t-48 261v694q0 90 -14 132q-14 41 -47 62
q-35 23 -121 53v12h588v-12q-89 -32 -121 -52q-33 -21 -48 -62t-15 -132v-684q0 -226 101 -350q101 -123 270 -123q158 0 269 105t111 308v618q0 152 -18 221t-55 97q-38 29 -133 57v12h469z" />
    <glyph glyph-name="Udieresis" unicode="&#xdc;" horiz-adv-x="1478" 
d="M578 1561l1 -1q-49 0 -84 33q-34 33 -34 83q0 46 33 81t83 35q46 0 81 -35t35 -81q0 -49 -34 -82q-35 -33 -81 -33zM962 1560l-3 -1q-47 0 -81 33q-35 33 -35 83q0 46 35 81t83 35q49 0 84 -35t35 -81q0 -49 -34 -82t-84 -33zM1456 1462l1 -14q-95 -28 -133 -57
q-37 -28 -55 -97t-18 -220v-616q0 -231 -136 -358t-363 -127q-96 0 -186 26q-88 25 -169 81t-129 165t-48 261v694q0 90 -14 132q-14 41 -47 62q-35 23 -121 53v12h588v-12q-89 -32 -121 -52q-33 -21 -48 -62t-15 -132v-684q0 -226 101 -350q101 -123 270 -123
q158 0 269 105t111 308v618q0 152 -18 221t-55 97q-38 29 -133 57v12h469z" />
    <glyph glyph-name="Yacute" unicode="&#xdd;" horiz-adv-x="1411" 
d="M950 1898q-138 -187 -260 -327h-20q22 109 57 327h223zM997 1464h403v-12q-58 -22 -106 -63q-47 -39 -70 -72q-22 -31 -60 -93l-340 -561v-404q0 -129 30 -167t153 -81v-12h-586v12q123 43 153 81t30 167v389l-405 662q-33 51 -64 77q-35 28 -121 65v12h586v-12
q-91 -42 -120 -61q-31 -21 -31 -49t45 -102l309 -510l295 496q35 59 35 99q0 76 -136 127v12z" />
    <glyph glyph-name="germandbls" unicode="&#xdf;" horiz-adv-x="1200" 
d="M655 911l-11 -10q0 -45 51 -89t123 -87q69 -41 144 -98q71 -54 123 -140q51 -85 51 -192q0 -154 -94 -241t-229 -87q-147 0 -315 99l41 278l12 -2q44 -137 111 -236q68 -99 150 -99q62 0 110 57t48 159q0 95 -45 168t-111 120q-70 49 -130 87q-64 40 -109 94t-45 117
q0 49 27 88q26 38 65 69q50 40 74 61q36 31 63 81t27 116q0 101 -55 163q-55 63 -135 63q-94 0 -165 -90q-70 -89 -70 -273v-845q0 -118 27 -156t123 -75v-12h-491v12q96 37 123 75q27 37 27 155v688h-127v53h127v78q0 184 108 306t314 122q146 0 246 -66q101 -66 101 -187
q0 -75 -44 -127q-43 -51 -98 -72q-54 -21 -98 -53t-44 -72z" />
    <glyph glyph-name="agrave" unicode="&#xe0;" horiz-adv-x="1048" 
d="M584 1135q-101 117 -260 327h223q37 -231 57 -327h-20zM836 -20h-1q-83 0 -117 60t-30 144l-2 2q-46 -80 -141 -141q-94 -61 -217 -61t-195 63t-72 161q0 137 156 242q157 106 477 200l4 135q2 73 -31 128q-33 56 -119 56q-106 0 -166 -88q-59 -88 -76 -210l-10 -2
l-156 112q56 89 163 156q109 68 259 68q157 0 242 -80q84 -80 80 -198l-15 -573q-1 -27 17 -49q18 -21 41 -21q51 0 96 92l14 -8q-26 -78 -76 -133q-51 -55 -125 -55zM423 94l1 -1q131 0 261 142l10 376q-236 -77 -332 -165t-96 -192q0 -74 42 -117t114 -43z" />
    <glyph glyph-name="aacute" unicode="&#xe1;" horiz-adv-x="1048" 
d="M504 1135h-19q19 96 57 327h223q-145 -192 -261 -327zM838 -20h-1q-83 0 -117 60t-30 144l-2 2q-46 -80 -141 -141q-94 -61 -217 -61t-195 63t-72 161q0 137 156 242q157 106 477 200l4 135q2 73 -31 128q-33 56 -119 56q-106 0 -166 -88q-59 -88 -76 -210l-10 -2
l-156 112q56 89 163 156q109 68 259 68q157 0 242 -80q84 -80 80 -198l-15 -573q-1 -27 17 -49q18 -21 41 -21q51 0 96 92l14 -8q-26 -78 -76 -133q-51 -55 -125 -55zM425 94l1 -1q131 0 261 142l10 376q-236 -77 -332 -165t-96 -192q0 -74 42 -117t114 -43z" />
    <glyph glyph-name="acircumflex" unicode="&#xe2;" horiz-adv-x="1048" 
d="M305 1110l-11 12q86 118 243 357h10q128 -194 244 -357l-15 -12l-233 172zM837 -20h-1q-82 0 -117 60t-30 144l-2 2q-47 -80 -141 -141t-217 -61t-195 63t-72 161q0 137 156 242q157 106 477 200l4 135q2 73 -31 128q-33 56 -119 56q-106 0 -166 -88q-59 -88 -76 -210
l-10 -2l-156 112q56 89 163 156q109 68 259 68q157 0 242 -80q84 -80 80 -198l-15 -573q-1 -27 17 -49q18 -21 41 -21q51 0 96 92l14 -8q-26 -78 -76 -133q-51 -55 -125 -55zM424 94l1 -1q131 0 261 142l10 376q-236 -77 -332 -165t-96 -192q0 -74 42 -117t114 -43z" />
    <glyph glyph-name="atilde" unicode="&#xe3;" horiz-adv-x="1048" 
d="M817 1382l18 -4q-31 -178 -180 -178q-54 0 -138 31q-103 35 -121 35q-36 0 -57 -7q-22 -7 -34 -18q-8 -7 -37 -36l-14 4q32 179 178 180q64 0 139 -31q85 -35 134 -35q61 0 112 59zM835 -20h-1q-82 0 -117 60t-30 144l-2 2q-47 -80 -141 -141t-217 -61t-195 63t-72 161
q0 137 156 242q157 106 477 200l4 135q2 73 -31 128q-33 56 -119 56q-106 0 -166 -88q-59 -88 -76 -210l-10 -2l-156 112q56 89 163 156q109 68 259 68q157 0 242 -80q84 -80 80 -198l-15 -573q-1 -27 17 -49q18 -21 41 -21q51 0 96 92l14 -8q-26 -78 -76 -133
q-51 -55 -125 -55zM422 94l1 -1q131 0 261 142l10 376q-236 -77 -332 -165t-96 -192q0 -74 42 -117t114 -43z" />
    <glyph glyph-name="adieresis" unicode="&#xe4;" horiz-adv-x="1048" 
d="M373 1174v1q-44 0 -78 32q-33 31 -33 78t33 80t78 33t78 -34t33 -79t-33 -78t-78 -33zM709 1175h1q-46 0 -77 33q-32 34 -32 78q0 46 32 80q31 33 77 33q45 0 78 -33t33 -80q0 -45 -33 -78t-79 -33zM837 -19h-1q-82 0 -117 60t-30 144l-2 2q-47 -79 -141 -141
q-94 -61 -217 -61t-195 63t-72 161q0 137 156 242q157 106 477 200l4 135q2 73 -31 128q-33 56 -119 56q-106 0 -166 -88q-59 -88 -76 -210l-10 -2l-156 112q56 89 163 156q109 68 259 68q157 0 242 -80q84 -80 80 -198l-15 -573q-1 -27 17 -49q18 -21 41 -21q51 0 96 92
l14 -8q-26 -78 -76 -133q-51 -55 -125 -55zM424 95l1 -1q131 0 261 142l10 376q-236 -77 -332 -165q-96 -89 -96 -192q0 -73 42 -117q42 -43 114 -43z" />
    <glyph glyph-name="aring" unicode="&#xe5;" horiz-adv-x="1048" 
d="M545 1081l-1 -2q-76 0 -130 56q-54 55 -54 135q0 76 54 132q54 55 131 55t129 -54q53 -55 53 -132q0 -79 -53 -135q-52 -55 -129 -55zM548 1126h1q53 0 87 45q35 46 35 102q0 57 -39 98t-93 41q-53 0 -88 -41q-34 -40 -34 -98q0 -57 39 -102t92 -45zM836 -22h-1
q-83 0 -117 60t-30 144l-2 2q-46 -80 -141 -141q-94 -61 -217 -61t-195 63t-72 161q0 137 156 242q157 106 477 200l4 135q2 73 -31 128q-33 56 -119 56q-106 0 -166 -88q-59 -88 -76 -210l-10 -2l-156 112q56 89 163 156q109 68 259 68q157 0 242 -80q84 -80 80 -198
l-15 -573q-1 -27 17 -49q18 -21 41 -21q51 0 96 92l14 -8q-26 -78 -76 -133q-51 -55 -125 -55zM423 92l1 -1q131 0 261 142l10 376q-236 -77 -332 -165t-96 -192q0 -74 42 -117t114 -43z" />
    <glyph glyph-name="ae" unicode="&#xe6;" horiz-adv-x="1611" 
d="M356 -20h-1q-124 0 -209 56q-84 56 -84 167q0 151 163 254q165 104 471 194l2 140q2 85 -39 132q-40 46 -116 46q-109 0 -168 -89q-58 -88 -70 -207l-10 -2l-154 112q55 89 162 157q106 67 247 67q206 0 280 -162q135 162 332 162q176 0 281 -116q105 -115 105 -257v-23
h-678q0 -6 -1 -14t-1 -18q0 -120 35 -211t93 -140t124 -73t135 -24q195 0 289 199l14 -6q-26 -154 -129 -249q-103 -94 -264 -94q-127 0 -231 56q-104 55 -162 153q-45 -90 -164 -150q-118 -60 -252 -60zM873 651l482 1q-6 118 -75 209q-69 92 -165 92q-89 0 -160 -86
q-70 -85 -82 -216zM460 69l-2 -1q81 0 161 40q82 41 131 117q-58 123 -60 258q0 79 6 126q-226 -78 -328 -162t-102 -205q0 -92 57 -132q58 -41 137 -41z" />
    <glyph glyph-name="ccedilla" unicode="&#xe7;" horiz-adv-x="933" 
d="M498 -20l-6 -5q-2 0 -5.5 0.5t-10.5 1t-13 0.5l-29 -52q224 -13 226 -156q0 -102 -103 -156t-298 -52l17 33q247 23 245 137q0 47 -51 77q-50 29 -139 34l98 140q-167 32 -273 168t-106 339q0 225 130 368q131 144 313 144q115 0 210 -60q94 -60 156 -146l-166 -131l-8 4
q-12 104 -66 197t-144 93q-96 0 -171 -105t-75 -280q0 -206 107 -325q106 -118 261 -118q111 0 183 60t103 142l16 -6q-75 -346 -401 -346z" />
    <glyph glyph-name="egrave" unicode="&#xe8;" horiz-adv-x="978" 
d="M571 1135h-20q-101 117 -260 327h223q38 -231 57 -327zM907 332l17 -13q-11 -52 -31 -100q-22 -51 -63 -110q-42 -60 -120 -96t-181 -36q-205 0 -340 142q-135 143 -135 364t134 372q134 150 342 150q97 0 171 -37q76 -38 113 -85q39 -49 62 -105q24 -57 30 -91
q6 -35 6 -48v-27h-677q-1 -26 -3 -28q0 -224 111 -340q111 -115 274 -115q86 0 149 36t88 73q28 41 53 94zM483 949q-94 0 -160 -81t-84 -223l483 4q-1 30 -14 76q-12 42 -38 98q-26 54 -75 90t-112 36z" />
    <glyph glyph-name="eacute" unicode="&#xe9;" horiz-adv-x="978" 
d="M729 1462h1q-146 -194 -261 -327h-20q19 96 57 327h223zM908 332l17 -13q-11 -52 -31 -100q-22 -51 -63 -110q-42 -60 -120 -96t-181 -36q-205 0 -340 142q-135 143 -135 364t134 372q133 150 342 150q97 0 171 -37q76 -38 113 -85q39 -49 62 -105q24 -57 30 -91
q6 -35 6 -48v-27h-677q-1 -26 -3 -28q0 -224 111 -340q111 -115 274 -115q86 0 149 36t88 73q28 41 53 94zM484 949q-94 0 -160 -81t-84 -223l483 4q-1 30 -14 76q-12 42 -38 98q-25 54 -75 90t-112 36z" />
    <glyph glyph-name="ecircumflex" unicode="&#xea;" horiz-adv-x="978" 
d="M510 1282l-237 -172l-12 12q85 118 243 357h10q128 -194 244 -357l-15 -12zM908 332l17 -13q-11 -52 -31 -100q-22 -51 -63 -110q-42 -60 -120 -96t-181 -36q-205 0 -340 142q-135 143 -135 364t134 372q133 150 342 150q97 0 171 -37q76 -38 113 -85q39 -49 62 -105
q24 -57 30 -91q6 -35 6 -48v-27h-677q-1 -26 -3 -28q0 -224 111 -340q111 -115 274 -115q86 0 149 36t88 73q28 41 53 94zM484 949q-94 0 -160 -81t-84 -223l483 4q-1 30 -14 76q-12 42 -38 98q-25 54 -75 90t-112 36z" />
    <glyph glyph-name="edieresis" unicode="&#xeb;" horiz-adv-x="978" 
d="M340 1174v1q-44 0 -78 32q-33 31 -33 78t33 80t78 33t78 -34t33 -79t-33 -78t-78 -33zM676 1175h1q-45 0 -77 33q-32 34 -32 78q0 46 32 80q32 33 77 33t78 -33t33 -80q0 -45 -33 -78t-79 -33zM908 333l17 -13q-11 -52 -31 -100q-22 -51 -63 -110q-42 -60 -120 -96
t-181 -36q-205 0 -340 142t-135 364q0 221 134 372q133 150 342 150q97 0 171 -37q76 -38 113 -85q39 -49 62 -105q24 -57 30 -91t6 -48v-27h-677q-1 -26 -3 -28q0 -225 111 -340t274 -115q86 0 149 36t88 73q28 41 53 94zM484 950q-94 0 -160 -81t-84 -223l483 4
q-1 30 -14 76q-12 42 -38 98q-25 54 -75 90t-112 36z" />
    <glyph glyph-name="igrave" unicode="&#xec;" horiz-adv-x="534" 
d="M285 1137q-101 117 -260 327h223q38 -231 57 -327h-20zM25 0l-3 11q96 37 123 75q27 37 27 155v432q0 77 -6 120q-6 44 -30 71q-25 28 -43 38q-19 10 -72 33v12q193 17 345 64v-768q0 -119 27 -156t123 -75v-12h-491z" />
    <glyph glyph-name="iacute" unicode="&#xed;" horiz-adv-x="534" 
d="M203 1137h-19q20 96 57 327h223q-146 -192 -261 -327zM27 0l-3 11q96 37 123 75q27 37 27 155v432q0 77 -6 120q-6 44 -30 71q-25 28 -43 38q-19 10 -72 33v12q193 17 345 64v-768q0 -119 27 -156t123 -75v-12h-491z" />
    <glyph glyph-name="icircumflex" unicode="&#xee;" horiz-adv-x="534" 
d="M6 1112l-11 12q85 118 243 357h10q128 -194 244 -357l-15 -12l-233 172zM26 0l-3 11q96 37 123 75q27 37 27 155v432q0 77 -6 120q-6 44 -30 71q-25 28 -43 38q-20 10 -72 33v12q193 17 345 64v-768q0 -119 27 -156t123 -75v-12h-491z" />
    <glyph glyph-name="idieresis" unicode="&#xef;" horiz-adv-x="534" 
d="M74 1176q-45 0 -78 33t-33 78q0 47 33 80t78 33t78 -34t33 -79t-33 -78t-78 -33zM410 1176h1q-45 0 -77 33q-32 34 -32 78q0 46 32 80q32 33 77 33t78 -34t33 -79t-33 -78t-79 -33zM26 0l-3 11q96 37 123 75q27 37 27 155v432q0 77 -6 120q-6 44 -30 71q-25 28 -43 38
q-20 10 -72 33v12q193 17 345 64v-768q0 -119 27 -156t123 -75v-12h-491z" />
    <glyph glyph-name="ntilde" unicode="&#xf1;" horiz-adv-x="1173" 
d="M457 1266h-2q-47 0 -72 -12q-26 -12 -57 -49l-15 4q31 179 180 180q62 0 139 -31q85 -35 133 -35q61 0 114 59l18 -4q-31 -178 -180 -178q-47 0 -137 31q-107 35 -121 35zM1004 242h-4q0 -118 27 -155t123 -75v-12h-489v12q96 38 123 75q28 38 29 155q2 214 2 424
q0 118 -52 173q-53 56 -132 56q-141 0 -268 -174v-479q0 -118 26 -156q25 -37 122 -75v-12h-489v12q96 37 123 75q27 37 27 155v434q0 137 -27 179q-27 41 -123 79v12q187 17 339 64v-234q151 229 366 231q119 0 198 -72t79 -213v-479z" />
    <glyph glyph-name="ograve" unicode="&#xf2;" 
d="M578 1135q-98 113 -261 327h224q37 -231 57 -327h-20zM532 -20l-2 2q-213 0 -345 141t-132 360q0 215 129 369q129 155 351 155q223 0 350 -147q128 -148 128 -360q0 -214 -129 -367t-350 -153zM565 25l-4 -2q103 0 174 96q71 97 71 280q0 131 -31 254q-32 125 -105 218
q-74 93 -171 93q-104 0 -176 -97t-72 -282q0 -92 20 -190q19 -96 57 -180q38 -85 99 -137q62 -53 138 -53z" />
    <glyph glyph-name="oacute" unicode="&#xf3;" 
d="M496 1135h-20q20 96 57 327h224q-145 -192 -261 -327zM533 -20l-2 2q-213 0 -345 141t-132 360q0 215 129 369q129 155 351 155t350 -147q128 -148 128 -360q0 -214 -129 -367t-350 -153zM566 25l-4 -2q104 0 174 96q71 97 71 280q0 131 -31 254q-32 125 -105 218
t-171 93q-104 0 -176 -97t-72 -282q0 -92 20 -190q20 -96 57 -180q38 -85 99 -137q62 -53 138 -53z" />
    <glyph glyph-name="ocircumflex" unicode="&#xf4;" 
d="M297 1110l-12 12q85 118 243 357h11q121 -185 243 -357l-14 -12l-233 172zM532 -20l-2 2q-213 0 -345 141t-132 360q0 215 129 369q129 155 351 155q223 0 350 -147q128 -148 128 -360q0 -214 -129 -367t-350 -153zM565 25l-4 -2q103 0 174 96q71 97 71 280
q0 131 -31 254q-32 125 -105 218q-74 93 -171 93q-104 0 -176 -97t-72 -282q0 -92 20 -190q19 -96 57 -180q38 -85 99 -137q62 -53 138 -53z" />
    <glyph glyph-name="otilde" unicode="&#xf5;" 
d="M809 1382l16 -4q-31 -178 -178 -178q-54 0 -138 31q-103 35 -121 35q-36 0 -57 -7q-22 -7 -34 -18q-8 -7 -37 -36l-14 4q32 179 178 180q64 0 139 -31q85 -35 133 -35q62 0 113 59zM530 -20l-2 2q-213 0 -345 141t-132 360q0 215 129 369q129 155 351 155q223 0 350 -147
q128 -148 128 -360q0 -214 -129 -367t-350 -153zM563 25l-4 -2q103 0 174 96q71 97 71 280q0 131 -31 254q-32 125 -105 218q-74 93 -171 93q-104 0 -176 -97t-72 -282q0 -92 20 -190q19 -96 57 -180q38 -85 99 -137q62 -53 138 -53z" />
    <glyph glyph-name="odieresis" unicode="&#xf6;" 
d="M364 1174v1q-44 0 -78 32q-33 31 -33 78t33 80t78 33t78 -34t33 -79t-33 -78t-78 -33zM699 1175h-2q-45 0 -76 33q-31 32 -31 78t32 80q32 33 77 33t79 -33t34 -80q0 -45 -33 -78t-80 -33zM529 -19l-2 2q-213 0 -345 141t-132 360q0 214 129 369t351 155t350 -147
q128 -148 128 -360q0 -214 -129 -367t-350 -153zM562 26l-4 -2q104 0 174 96q71 97 71 280q0 131 -31 254q-32 125 -105 218t-171 93q-104 0 -176 -97q-72 -98 -72 -282q0 -92 20 -190q20 -96 57 -180q38 -85 99 -137q62 -53 138 -53z" />
    <glyph glyph-name="divide" unicode="&#xf7;" horiz-adv-x="899" 
d="M448 834q-38 0 -67 27q-28 27 -28 66t28 66q29 27 67 27t67 -27q28 -27 28 -66t-28 -66q-29 -27 -67 -27zM814 709v-50h-727v50h727zM441 328q-39 0 -66 27t-27 66t27 66t66 27t67 -27t28 -66t-28 -66t-67 -27z" />
    <glyph glyph-name="oslash" unicode="&#xf8;" 
d="M844 897v-1q168 -142 168 -396q0 -213 -128 -367q-128 -153 -348 -153q-167 0 -283 86l-107 -150h-43l121 170q-168 146 -168 396q0 214 129 369t351 155q164 0 279 -84l90 127h47zM256 583q0 -196 70 -355l399 566q-84 168 -221 168q-104 0 -176 -97t-72 -282zM565 22h1
q106 0 177 96q71 97 71 280q0 201 -70 357l-401 -563q86 -170 222 -170z" />
    <glyph glyph-name="ugrave" unicode="&#xf9;" horiz-adv-x="1171" 
d="M651 1135h-20q-101 117 -260 327h223q38 -231 57 -327zM1006 227l1 -1q0 -99 26 -127q25 -26 122 -52v-12l-334 -64v217q-167 -213 -369 -213q-118 0 -198 72q-79 72 -79 211v416q0 136 -27 179t-123 81v12q193 17 345 64q0 -111 -3 -348t-3 -348q0 -118 51 -173
q51 -56 131 -56q135 0 268 145v443q0 137 -27 180t-123 81v12q172 12 342 62v-781z" />
    <glyph glyph-name="uacute" unicode="&#xfa;" horiz-adv-x="1171" 
d="M809 1462h2q-145 -194 -261 -327h-21q19 96 57 327h223zM1008 227l1 -1q0 -99 26 -127q25 -26 122 -52v-12l-334 -64v217q-167 -213 -369 -213q-118 0 -198 72q-79 72 -79 211v416q0 136 -27 179t-123 81v12q193 17 345 64q0 -111 -3 -348t-3 -348q0 -118 51 -173
q51 -56 131 -56q135 0 268 145v443q0 137 -27 180t-123 81v12q172 12 342 62v-781z" />
    <glyph glyph-name="ucircumflex" unicode="&#xfb;" horiz-adv-x="1171" 
d="M590 1282l-237 -172l-12 12q85 118 243 357h10q128 -194 244 -357l-15 -12zM1007 227l1 -1q0 -99 26 -127q25 -26 122 -52v-12l-334 -64v217q-166 -213 -369 -213q-119 0 -198 72t-79 211v416q0 136 -27 179t-123 81v12q193 17 345 64q0 -111 -3 -348t-3 -348
q0 -118 51 -173q51 -56 131 -56q135 0 268 145v443q0 137 -27 180t-123 81v12q172 12 342 62v-781z" />
    <glyph glyph-name="udieresis" unicode="&#xfc;" horiz-adv-x="1171" 
d="M420 1174l-1 1q-46 0 -78 32t-32 78q0 47 33 80t78 33t78 -34t33 -79t-33 -78t-78 -33zM755 1175h-1q-46 0 -77 33q-32 34 -32 78q0 46 32 80q31 33 77 33q47 0 80 -33t33 -80q0 -45 -33 -78t-79 -33zM1004 228l1 -1q0 -99 26 -127q25 -26 122 -52v-12l-334 -64v217
q-167 -213 -369 -213q-118 0 -198 72q-79 72 -79 211v416q0 135 -27 179t-123 81v12q193 17 345 64q0 -111 -3 -348t-3 -348q0 -117 51 -173t131 -56q135 0 268 145v443q0 136 -27 180t-123 81v12q172 12 342 62v-781z" />
    <glyph glyph-name="yacute" unicode="&#xfd;" horiz-adv-x="1079" 
d="M788 1462h1q-145 -194 -261 -327h-20q20 96 57 327h223zM720 981l355 -4v-12q-87 -40 -121 -80t-62 -115q-210 -552 -254 -660q-34 -86 -84 -180q-52 -106 -81 -153q-30 -48 -78 -104q-50 -57 -122 -104l-118 156l4 12q101 0 199 46q99 47 150 150l2 9q3 5 12 23
q4 8 18 38l-367 821q-44 102 -166 144v12h512v-12q-71 -28 -102 -53q-30 -24 -30 -57q0 -26 19 -67l235 -545q116 276 204 538q10 33 10 56q0 76 -135 129v12z" />
    <glyph glyph-name="ydieresis" unicode="&#xff;" horiz-adv-x="1079" 
d="M399 1174l-2 1q-46 0 -78 32q-31 31 -31 78t33 80t78 33t78 -34t33 -79t-33 -78t-78 -33zM733 1175h-2q-45 0 -76 33q-31 32 -31 78t32 80q32 33 77 33q47 0 80 -33t33 -80q0 -45 -33 -78t-80 -33zM715 982l355 -4v-12q-87 -40 -121 -80t-62 -115q-210 -552 -254 -660
q-35 -85 -84 -180q-53 -107 -81 -153q-30 -48 -78 -104q-50 -57 -122 -104l-118 156l4 12q101 0 199 46q99 46 150 150l2 9q3 5 12 23q4 8 18 38l-367 821q-44 102 -166 144v12h512v-12q-71 -28 -102 -53q-30 -24 -30 -57q0 -26 19 -67l235 -545q116 276 204 538
q10 33 10 56q0 77 -135 129v12z" />
    <glyph glyph-name="Amacron" unicode="&#x100;" horiz-adv-x="1474" 
d="M1001 1714v-123h-526v123h526zM1262 188l-1 -2q31 -79 62 -111q29 -31 128 -64v-12h-586v12q97 34 134 59q36 24 36 62q0 30 -26 105l-99 270h-514l-26 -72q-78 -207 -78 -272q0 -55 38 -87q39 -32 132 -65v-12h-436v12q106 66 159 140q53 73 123 273l314 854l-60 119
q120 50 198 110zM425 586h455l-228 624z" />
    <glyph glyph-name="amacron" unicode="&#x101;" horiz-adv-x="1048" 
d="M799 1333v-119h-502v119h502zM836 -20h-1q-83 0 -117 60t-30 144l-2 2q-46 -80 -141 -141q-94 -61 -217 -61t-195 63t-72 161q0 137 156 242q157 106 477 200l4 135q2 73 -31 128q-33 56 -119 56q-106 0 -166 -88q-59 -88 -76 -210l-10 -2l-156 112q56 89 163 156
q109 68 259 68q157 0 242 -80q84 -80 80 -198l-15 -573q-1 -27 17 -49q18 -21 41 -21q51 0 96 92l14 -8q-26 -78 -76 -133q-51 -55 -125 -55zM423 94l1 -1q131 0 261 142l10 376q-236 -77 -332 -165t-96 -192q0 -74 42 -117t114 -43z" />
    <glyph glyph-name="Abreve" unicode="&#x102;" horiz-adv-x="1474" 
d="M737 1554h-2q-213 0 -243 322h18q25 -85 89 -135q62 -49 137 -49q73 0 138 49q67 50 89 135h18q-31 -322 -244 -322zM1260 188l-1 -2q31 -79 62 -111q29 -31 128 -64v-12h-586v12q97 34 134 59q36 24 36 62q0 30 -26 105l-99 270h-514l-26 -72q-78 -207 -78 -272
q0 -55 38 -87q39 -32 132 -65v-12h-436v12q106 66 159 140q53 73 123 273l314 854l-60 119q120 50 198 110zM423 586h455l-228 624z" />
    <glyph glyph-name="abreve" unicode="&#x103;" horiz-adv-x="1048" 
d="M766 1452h19q-32 -326 -241 -326q-212 0 -244 326h18q22 -86 87 -135q65 -50 138 -50q71 0 136 50q65 49 87 135zM837 -20h-1q-82 0 -117 60t-30 144l-2 2q-47 -80 -141 -141t-217 -61t-195 63t-72 161q0 137 156 242q157 106 477 200l4 135q2 73 -31 128q-33 56 -119 56
q-106 0 -166 -88q-59 -88 -76 -210l-10 -2l-156 112q56 89 163 156q109 68 259 68q157 0 242 -80q84 -80 80 -198l-15 -573q-1 -27 17 -49q18 -21 41 -21q51 0 96 92l14 -8q-26 -78 -76 -133q-51 -55 -125 -55zM424 94l1 -1q131 0 261 142l10 376q-236 -77 -332 -165
t-96 -192q0 -74 42 -117t114 -43z" />
    <glyph glyph-name="Aogonek" unicode="&#x104;" horiz-adv-x="1474" 
d="M1276 0l-2 -4q-141 -111 -141 -213q0 -41 26 -62q25 -21 65 -21q82 0 151 66l13 -13q-39 -63 -108 -102t-142 -39q-71 0 -114 34q-44 35 -44 90q0 67 68 137t174 125h-357v12q97 34 134 59q36 24 36 62q0 30 -26 105l-99 270h-514l-26 -72q-78 -207 -78 -272
q0 -55 38 -87q39 -32 132 -65v-12h-436v12q106 66 159 140t123 273l314 854l-60 119q120 50 198 110l502 -1319q31 -79 62 -111q29 -31 128 -64v-12h-176zM424 584h455l-228 624z" />
    <glyph glyph-name="aogonek" unicode="&#x105;" horiz-adv-x="1048" 
d="M858 -291l-4 -2q82 0 153 66l12 -13q-39 -63 -108 -102t-142 -39q-71 0 -114 34q-44 35 -44 90q0 121 199 238q-70 7 -99 66q-28 58 -24 136l-2 2q-47 -79 -141 -141q-94 -61 -217 -61t-195 63t-72 161q0 137 156 242q157 106 477 200l4 135q2 73 -31 128q-33 56 -119 56
q-106 0 -166 -88q-59 -88 -76 -210l-10 -2l-156 112q56 89 163 156q109 68 259 68q157 0 242 -80q84 -80 80 -198l-15 -573q-1 -27 17 -49q18 -21 41 -21q51 0 96 92l14 -8q-46 -147 -150 -180q-119 -102 -119 -195q0 -41 26 -62q25 -21 65 -21zM682 234l11 375
q-236 -77 -332 -165t-96 -192q0 -74 42 -117t114 -43q131 2 261 142z" />
    <glyph glyph-name="Cacute" unicode="&#x106;" horiz-adv-x="1370" 
d="M700 1571h-20q22 109 57 327h224q-143 -190 -261 -327zM752 1440l-1 1q-181 0 -315 -183q-133 -182 -133 -510q0 -340 141 -531q141 -190 317 -190q129 0 254 105q124 104 216 248h12l-41 -326q-230 -78 -444 -78q-310 0 -504 198q-193 197 -193 542q0 350 198 561
q198 212 497 212q190 0 447 -78l41 -326h-12q-91 144 -216 250q-124 105 -264 105z" />
    <glyph glyph-name="cacute" unicode="&#x107;" horiz-adv-x="933" 
d="M444 1135h-20q20 96 57 327h224q-145 -192 -261 -327zM514 -20l-3 -4q-195 0 -327 142t-132 370q0 225 129 369t310 144q117 0 212 -60q94 -60 156 -146l-166 -131l-8 4q-12 104 -66 197t-144 93q-96 0 -171 -105t-75 -280q0 -206 107 -325q106 -118 261 -118
q111 0 183 60t103 142l16 -6q-29 -140 -123 -243t-262 -103z" />
    <glyph glyph-name="Ccircumflex" unicode="&#x108;" horiz-adv-x="1370" 
d="M539 1530l-13 12q128 178 246 363h10q137 -212 248 -363l-14 -12l-238 174zM752 1440l-1 1q-181 0 -315 -183q-133 -182 -133 -510q0 -340 141 -531q141 -190 317 -190q129 0 254 105q124 104 216 248h12l-41 -326q-230 -78 -444 -78q-310 0 -504 198q-193 197 -193 542
q0 350 198 561q198 212 497 212q190 0 447 -78l41 -326h-12q-91 144 -216 250q-124 105 -264 105z" />
    <glyph glyph-name="ccircumflex" unicode="&#x109;" horiz-adv-x="933" 
d="M246 1110l-12 12q86 118 243 357h10q128 -194 244 -357l-14 -12l-234 172zM515 -20l-3 -4q-195 0 -327 142t-132 370q0 225 129 369t310 144q118 0 212 -60t156 -146l-166 -131l-8 4q-12 104 -66 197t-144 93q-96 0 -171 -105t-75 -280q0 -206 107 -325
q106 -118 261 -118q111 0 183 60t103 142l16 -6q-28 -140 -123 -243q-94 -103 -262 -103z" />
    <glyph glyph-name="Cdotaccent" unicode="&#x10a;" horiz-adv-x="1370" 
d="M768 1561v-1q-46 0 -81 35t-35 81t35 81t81 35q49 0 84 -35q34 -34 34 -81t-34 -81t-84 -34zM752 1439l-1 1q-181 0 -315 -183q-133 -182 -133 -510q0 -341 141 -531t317 -190q129 0 254 105q124 104 216 248h12l-41 -326q-230 -78 -444 -78q-310 0 -504 198
q-193 197 -193 542q0 349 198 561t497 212q190 0 447 -78l41 -326h-12q-91 144 -216 250q-124 105 -264 105z" />
    <glyph glyph-name="cdotaccent" unicode="&#x10b;" horiz-adv-x="933" 
d="M483 1167h2q-49 0 -87 36t-38 85q0 47 38 83t87 36q47 0 84 -37q38 -38 38 -82q0 -49 -37 -85q-38 -36 -87 -36zM516 -20l-3 -4q-195 0 -327 142t-132 370q0 225 129 369t310 144q117 0 212 -60q94 -60 156 -146l-166 -131l-8 4q-12 104 -66 197t-144 93q-96 0 -171 -105
t-75 -280q0 -206 107 -325q106 -118 261 -118q111 0 183 60t103 142l16 -6q-29 -140 -123 -243t-262 -103z" />
    <glyph glyph-name="Ccaron" unicode="&#x10c;" horiz-adv-x="1370" 
d="M535 1911l239 -174l238 174l14 -13q-138 -196 -246 -362h-10q-124 194 -248 362zM752 1440l-1 1q-181 0 -315 -183q-133 -182 -133 -510q0 -340 141 -531q141 -190 317 -190q129 0 254 105q124 104 216 248h12l-41 -326q-230 -78 -444 -78q-310 0 -504 198
q-193 197 -193 542q0 350 198 561q198 212 497 212q190 0 447 -78l41 -326h-12q-91 144 -216 250q-124 105 -264 105z" />
    <glyph glyph-name="ccaron" unicode="&#x10d;" horiz-adv-x="933" 
d="M246 1481l235 -172l236 172l12 -13q-109 -152 -244 -358h-8q-147 225 -244 358zM514 -20l-3 -4q-195 0 -327 142t-132 370q0 225 129 369t310 144q117 0 212 -60q94 -60 156 -146l-166 -131l-8 4q-12 104 -66 197t-144 93q-96 0 -171 -105t-75 -280q0 -206 107 -325
q106 -118 261 -118q111 0 183 60t103 142l16 -6q-29 -140 -123 -243t-262 -103z" />
    <glyph glyph-name="Dcaron" unicode="&#x10e;" horiz-adv-x="1445" 
d="M713 1536l-12 1q-127 199 -246 362l12 13l240 -174l237 174l14 -13q-148 -210 -245 -363zM566 1465l-1 3q401 0 608 -195t207 -514q0 -324 -198 -540t-521 -216h-623v12q86 30 121 53q33 21 47 62q14 42 14 132v944q0 90 -14 132q-14 41 -47 62q-35 23 -121 53v12h528z
M651 63l1 -1q233 0 362 186t129 500q0 324 -144 496t-441 172h-115v-1272q0 -33 54 -57t152 -24h2z" />
    <glyph glyph-name="dcaron" unicode="&#x10f;" horiz-adv-x="1126" 
d="M446 -20h-2q-163 0 -277 140t-114 359q0 224 118 375q119 152 294 152q167 0 300 -123v399q0 137 -152 182v13q176 12 344 63v-1354q0 -63 27 -87q26 -23 121 -52v-12l-336 -55v188h-2q-55 -84 -139 -136q-83 -52 -182 -52zM1081 1063h-14l31 426h196zM514 57h-1
q127 0 250 160v422q-45 128 -122 222q-77 93 -174 93q-109 0 -162 -117q-52 -116 -52 -289q0 -212 72 -352q72 -139 189 -139z" />
    <glyph glyph-name="Dcroat" unicode="&#x110;" horiz-adv-x="1445" 
d="M567 1464l-1 3q401 0 608 -195t207 -514q0 -324 -198 -540t-521 -216h-623v12q86 30 121 53q33 21 47 62q14 42 14 132v479h-104v49h104v416q0 90 -14 132q-14 41 -47 62q-35 23 -121 53v12h528zM652 62l1 -1q233 0 362 186t129 500q0 323 -144 496q-144 172 -441 172
h-115v-625h234v-49h-234v-598q0 -33 54 -57t152 -24h2z" />
    <glyph glyph-name="dcroat" unicode="&#x111;" horiz-adv-x="1126" 
d="M958 186h-1q0 -63 27 -87q26 -23 121 -52v-12l-336 -55v188h-2q-55 -84 -139 -136q-83 -52 -183 -52q-163 0 -277 140t-114 359q0 224 118 375q119 152 294 152q166 0 300 -123v340h-260v49h260v10q0 137 -152 182v13q176 12 344 63v-268h136v-49h-136v-1037zM765 217
l-1 422q-45 128 -122 222q-76 93 -174 93q-110 0 -162 -117q-52 -116 -52 -289q0 -212 72 -352q72 -139 189 -139q127 0 250 160z" />
    <glyph glyph-name="Emacron" unicode="&#x112;" horiz-adv-x="1271" 
d="M946 1714v-123h-586v123h586zM1159 356l13 2l-49 -356h-1083v12q86 30 121 53q33 21 47 62q14 42 14 132v944q0 90 -14 132q-14 41 -47 62q-35 23 -121 53v12h1012l36 -340h-14q-39 114 -131 202q-91 87 -233 87h-265v-604h263q145 0 229 137h10v-342h-10q-33 63 -93 111
q-59 48 -136 46l-263 -4v-615q0 -38 72 -63q71 -25 201 -25h100q112 0 201 92t140 210z" />
    <glyph glyph-name="emacron" unicode="&#x113;" horiz-adv-x="978" 
d="M766 1333v-119h-502v119h502zM907 332l17 -13q-11 -52 -31 -100q-22 -51 -63 -110q-42 -60 -120 -96t-181 -36q-205 0 -340 142q-135 143 -135 364t134 372q134 150 342 150q97 0 171 -37q76 -38 113 -85q39 -49 62 -105q24 -57 30 -91q6 -35 6 -48v-27h-677
q-1 -26 -3 -28q0 -224 111 -340q111 -115 274 -115q86 0 149 36t88 73q28 41 53 94zM483 949q-94 0 -160 -81t-84 -223l483 4q-1 30 -14 76q-12 42 -38 98q-26 54 -75 90t-112 36z" />
    <glyph glyph-name="Ebreve" unicode="&#x114;" horiz-adv-x="1271" 
d="M651 1550h1q-213 0 -243 326h18q25 -86 90 -135q65 -50 136 -50t135 50q63 49 87 135h19q-32 -326 -243 -326zM1160 356l13 2l-49 -356h-1083v12q86 30 121 53q33 21 47 62q14 42 14 132v944q0 90 -14 132q-14 41 -47 62q-35 23 -121 53v12h1012l36 -340h-14
q-39 114 -131 202q-91 87 -233 87h-265v-604h263q145 0 229 137h10v-342h-10q-33 63 -93 111q-59 48 -136 46l-263 -4v-615q0 -38 72 -63q71 -25 201 -25h100q112 0 201 92t140 210z" />
    <glyph glyph-name="ebreve" unicode="&#x115;" horiz-adv-x="978" 
d="M508 1126q-212 0 -244 326h19q23 -86 87 -135q65 -50 138 -50q72 0 137 50q65 49 87 135h19q-32 -326 -243 -326zM907 332l17 -13q-11 -52 -31 -100q-22 -51 -63 -110q-42 -60 -120 -96t-181 -36q-205 0 -340 142q-135 143 -135 364t134 372q134 150 342 150
q97 0 171 -37q76 -38 113 -85q39 -49 62 -105q24 -57 30 -91q6 -35 6 -48v-27h-677q-1 -26 -3 -28q0 -224 111 -340q111 -115 274 -115q86 0 149 36t88 73q28 41 53 94zM483 949q-94 0 -160 -81t-84 -223l483 4q-1 30 -14 76q-12 42 -38 98q-26 54 -75 90t-112 36z" />
    <glyph glyph-name="Edotaccent" unicode="&#x116;" horiz-adv-x="1271" 
d="M651 1561l-1 -1q-46 0 -81 35q-34 34 -34 81q0 46 35 81t81 35q49 0 84 -35q34 -34 34 -81t-34 -81t-84 -34zM1158 355l13 2l-49 -356h-1083v12q86 30 121 53q33 21 47 62q14 42 14 132v944q0 90 -14 132q-14 41 -47 62q-35 23 -121 53v12h1012l36 -340h-14
q-39 114 -131 202q-92 87 -233 87h-265v-604h263q145 0 229 137h10v-342h-10q-33 63 -93 111q-59 48 -136 46l-263 -4v-615q0 -37 72 -63q71 -25 201 -25h100q112 0 201 92t140 210z" />
    <glyph glyph-name="edotaccent" unicode="&#x117;" horiz-adv-x="978" 
d="M510 1167h2q-50 0 -87 36q-38 36 -38 85q0 47 38 83q37 36 87 36q47 0 84 -37q38 -38 38 -82q0 -49 -37 -85t-87 -36zM909 332l17 -13q-11 -52 -31 -100q-22 -51 -63 -110q-42 -60 -120 -96t-181 -36q-205 0 -340 142q-135 143 -135 364t134 372q134 150 342 150
q97 0 171 -37q76 -38 113 -85q39 -49 62 -105q24 -57 30 -91q6 -35 6 -48v-27h-677q-1 -26 -3 -28q0 -224 111 -340q111 -115 274 -115q86 0 149 36t88 73q28 41 53 94zM485 949q-94 0 -160 -81t-84 -223l483 4q-1 30 -14 76q-12 42 -38 98q-26 54 -75 90t-112 36z" />
    <glyph glyph-name="Eogonek" unicode="&#x118;" horiz-adv-x="1271" 
d="M963 0l-3 -1q-58 -41 -99 -97q-42 -57 -42 -106q0 -39 26 -60q25 -21 65 -21q79 0 152 62l12 -13q-39 -58 -108 -96q-70 -38 -141 -38q-67 0 -112 33t-45 86q0 66 68 132q68 67 176 119h-872v12q86 30 121 53q33 21 47 62q14 42 14 132v944q0 90 -14 132q-14 41 -47 62
q-35 23 -121 53v12h1012l36 -340h-14q-39 114 -131 202q-91 87 -233 87h-265v-604h263q145 0 229 137h10v-342h-10q-33 63 -93 111q-59 48 -136 46l-263 -4v-615q0 -38 72 -63q71 -25 201 -25h100q112 0 201 93q90 94 140 211h12l-49 -356h-159z" />
    <glyph glyph-name="eogonek" unicode="&#x119;" horiz-adv-x="978" 
d="M690 8l-2 -5q-59 -44 -102 -103q-44 -61 -44 -113q0 -41 26 -62t65 -21q82 0 151 66l13 -13q-40 -63 -110 -102q-69 -39 -146 -39q-66 0 -109 34t-43 90q0 124 205 242q-33 -4 -69 -4q-203 0 -336 141q-134 142 -134 365q0 224 135 372q135 149 341 149q97 0 171 -37
q76 -38 113 -85q39 -49 62 -105q24 -57 30 -91q6 -35 6 -48v-27h-677q-1 -26 -3 -28q0 -224 111 -340q111 -115 274 -115q86 0 149 36q64 36 89 72q25 35 51 95l17 -8q-11 -56 -31 -104q-21 -51 -74 -116q-53 -64 -129 -96zM481 949q-94 0 -160 -81t-84 -223l483 4
q-1 30 -14 76q-12 42 -38 98q-26 54 -75 90t-112 36z" />
    <glyph glyph-name="Ecaron" unicode="&#x11a;" horiz-adv-x="1271" 
d="M664 1536l-12 1q-127 199 -246 362l12 13l239 -174l238 174l14 -13q-148 -210 -245 -363zM1158 357l13 2l-49 -356h-1083v12q86 30 121 53q33 21 47 62q14 42 14 132v944q0 90 -14 132q-14 41 -47 62q-35 23 -121 53v12h1012l36 -340h-14q-39 114 -131 202
q-92 87 -233 87h-265v-604h263q145 0 229 137h10v-342h-10q-33 63 -93 111q-59 48 -136 46l-263 -4v-615q0 -37 72 -63q71 -25 201 -25h100q112 0 201 92t140 210z" />
    <glyph glyph-name="ecaron" unicode="&#x11b;" horiz-adv-x="978" 
d="M510 1110h-8q-147 225 -244 358l12 13l236 -172l235 172l13 -13q-109 -151 -244 -358zM907 332l17 -13q-11 -52 -31 -100q-22 -51 -63 -110q-42 -60 -120 -96t-181 -36q-205 0 -340 142q-135 143 -135 364t134 372q134 150 342 150q97 0 171 -37q76 -38 113 -85
q39 -49 62 -105q24 -57 30 -91q6 -35 6 -48v-27h-677q-1 -26 -3 -28q0 -224 111 -340q111 -115 274 -115q86 0 149 36t88 73q28 41 53 94zM483 949q-94 0 -160 -81t-84 -223l483 4q-1 30 -14 76q-12 42 -38 98q-26 54 -75 90t-112 36z" />
    <glyph glyph-name="Gcircumflex" unicode="&#x11c;" horiz-adv-x="1517" 
d="M555 1530l-13 12q128 178 246 363h11q137 -212 248 -363l-15 -12l-237 174zM732 -25l-1 1q-292 0 -481 203t-189 540q0 347 200 559q199 211 519 211q214 0 453 -84l39 -332h-14q-225 367 -494 367q-196 0 -329 -187q-134 -188 -134 -519q0 -340 141 -522t339 -182
q66 0 129 15t117 63t54 122v281q0 121 -51 175t-215 54v23h594v-12q-73 -43 -90 -81q-17 -39 -17 -167v-457h-13q-52 49 -114 49q-37 0 -97 -30q-61 -31 -148 -60q-88 -30 -198 -30z" />
    <glyph glyph-name="gcircumflex" unicode="&#x11d;" horiz-adv-x="1007" 
d="M475 1282l-236 -172l-13 12q86 118 243 357h10q128 -194 244 -357l-14 -12zM736 133l-4 -8q250 -67 250 -252q0 -79 -45 -141q-46 -63 -121 -95q-79 -34 -160 -50t-172 -16q-106 0 -207 21t-177 75t-76 129q0 85 88 146q88 62 201 93q-3 0 -43 8q-164 31 -162 144
q0 63 59 114q59 52 158 80q-119 29 -188 107t-69 194q0 143 107 233t275 90h24q144 0 214 47t77 105l176 -61v-6q-104 -119 -270 -119q-43 0 -86 8v-6q116 -32 199 -109q84 -78 84 -190q0 -129 -109 -219t-294 -90q-45 0 -86 6q-101 -29 -102 -87q0 -52 54 -63l76 -16
q78 -13 177 -36q103 -23 152 -36zM443 959v-3q-83 0 -135 -60q-53 -61 -53 -179q0 -131 63 -227t173 -96q82 0 135 59q52 58 52 177q0 138 -67 233q-67 96 -168 96zM507 -390h-2q132 0 228 47q94 46 94 137q0 122 -161 166q-72 18 -303 60q-32 -12 -67 -33q-33 -20 -73 -71
q-39 -50 -39 -107q0 -95 93 -147q92 -52 230 -52z" />
    <glyph glyph-name="Gbreve" unicode="&#x11e;" horiz-adv-x="1517" 
d="M1010 1876h18q-32 -326 -243 -326q-213 0 -243 326h18q26 -86 90 -135q65 -50 136 -50t135 50t89 135zM733 -25l-1 1q-292 0 -481 203t-189 540q0 347 200 559q199 211 519 211q215 0 453 -84l39 -332h-14q-225 367 -494 367q-196 0 -329 -187q-134 -188 -134 -519
q0 -340 141 -522t339 -182q66 0 129 15t117 63t54 122v281q0 121 -51 175t-215 54v23h594v-12q-74 -43 -90 -81q-17 -39 -17 -167v-457h-13q-52 49 -114 49q-37 0 -97 -30q-61 -31 -148 -60q-89 -30 -198 -30z" />
    <glyph glyph-name="gbreve" unicode="&#x11f;" horiz-adv-x="1007" 
d="M473 1126q-212 0 -244 326h19q22 -86 87 -135q65 -50 138 -50q72 0 137 50q64 49 87 135h19q-32 -326 -243 -326zM735 133l-4 -8q250 -67 250 -252q0 -79 -45 -141q-46 -63 -121 -95q-79 -34 -160 -50t-172 -16q-107 0 -207 21t-177 75q-76 54 -76 129q0 85 88 146
q89 62 201 93q-3 0 -43 8q-163 31 -162 144q0 63 59 114q59 52 158 80q-119 29 -188 107t-69 194q0 143 107 233t275 90h24q144 0 214 47t77 105l176 -61v-6q-104 -119 -270 -119q-43 0 -86 8v-6q116 -32 199 -109q84 -78 84 -190q0 -129 -109 -219q-110 -90 -294 -90
q-46 0 -86 6q-100 -29 -102 -87q0 -52 54 -63l76 -16q78 -13 177 -36q103 -23 152 -36zM442 959v-3q-82 0 -135 -60q-53 -61 -53 -179q0 -131 63 -227t173 -96q82 0 135 59q52 58 52 177q0 138 -67 233q-68 96 -168 96zM506 -390h-2q132 0 228 47q94 46 94 137
q0 122 -161 166q-72 18 -303 60q-32 -12 -67 -33q-33 -20 -73 -71q-39 -50 -39 -107q0 -95 93 -147q92 -52 230 -52z" />
    <glyph glyph-name="Gdotaccent" unicode="&#x120;" horiz-adv-x="1517" 
d="M786 1561l-1 -1q-46 0 -81 35q-34 34 -34 81q0 46 35 81t81 35q49 0 84 -35q34 -34 34 -81t-34 -81t-84 -34zM732 -26l-1 1q-292 0 -481 203q-189 202 -189 540q0 347 200 559q199 211 519 211q214 0 453 -84l39 -332h-14q-225 367 -494 367q-196 0 -329 -187
q-134 -188 -134 -519q0 -341 141 -522q141 -182 339 -182q66 0 129 15t117 63t54 122v281q0 121 -51 175t-215 54v23h594v-12q-73 -44 -90 -81q-17 -39 -17 -167v-457h-13q-52 49 -114 49q-37 0 -97 -30q-61 -31 -148 -60q-88 -30 -198 -30z" />
    <glyph glyph-name="gdotaccent" unicode="&#x121;" horiz-adv-x="1007" 
d="M473 1174v-1q-46 0 -81 35t-35 81t35 81t81 35q49 0 84 -35q34 -34 34 -81t-34 -81t-84 -34zM735 132l-4 -8q250 -67 250 -252q0 -80 -45 -141q-46 -63 -121 -95q-79 -34 -160 -50t-172 -16q-107 0 -207 21t-177 75q-76 54 -76 129q0 85 88 146q89 61 201 93q-3 0 -43 8
q-163 32 -162 144q0 63 59 114q59 52 158 80q-119 29 -188 107t-69 194q0 143 107 233t275 90h24q144 0 214 47t77 105l176 -61v-6q-104 -119 -270 -119q-43 0 -86 8v-6q116 -32 199 -109q84 -78 84 -190q0 -129 -109 -219q-110 -90 -294 -90q-46 0 -86 6q-100 -28 -102 -87
q0 -53 54 -63l76 -16q78 -14 177 -36q103 -23 152 -36zM442 958v-3q-82 0 -135 -60q-53 -61 -53 -179q0 -131 63 -227t173 -96q82 0 135 59q52 58 52 177q0 138 -67 233q-68 96 -168 96zM506 -391h-2q132 0 228 47q94 46 94 137q0 122 -161 166q-72 18 -303 60
q-32 -12 -67 -33q-33 -20 -73 -71q-39 -50 -39 -107q0 -94 93 -147q92 -52 230 -52z" />
    <glyph glyph-name="uni0122" unicode="&#x122;" horiz-adv-x="1517" 
d="M1411 762l-1 -11q-74 -43 -90 -81q-17 -39 -17 -167v-457h-13q-52 49 -114 49q-37 0 -97 -30q-61 -31 -148 -60q-89 -30 -198 -30q-292 0 -481 203q-189 202 -189 540q0 347 200 559q199 211 519 211q214 0 453 -84l39 -332h-14q-225 367 -494 367q-196 0 -329 -187
q-134 -188 -134 -519q0 -341 141 -522q141 -182 339 -182q66 0 129 15t117 63t54 122v281q0 121 -51 175t-215 54v23h594zM792 -69l-2 -4q50 0 84 -31q35 -32 35 -91q0 -73 -53 -152q-52 -78 -162 -123l-8 14q102 90 129 191q-10 -2 -21 -2q-48 0 -85 29q-36 29 -36 68
q0 41 36 71t83 30z" />
    <glyph glyph-name="uni0123" unicode="&#x123;" horiz-adv-x="1007" 
d="M438 1145h-1q-48 0 -82 32q-33 31 -33 93q0 73 52 150q52 78 162 123l8 -14q-102 -90 -129 -191q10 2 15 2q55 0 91 -27t36 -68q0 -40 -36 -70t-83 -30zM734 133l-4 -8q250 -67 250 -252q0 -79 -45 -141q-46 -63 -121 -95q-79 -34 -160 -50t-172 -16q-106 0 -207 21
t-177 75t-76 129q0 85 88 146q88 62 201 93q-3 0 -43 8q-164 31 -162 144q0 63 59 114q59 52 158 80q-119 29 -188 107t-69 194q0 143 107 233q106 90 275 90h24q144 0 214 47t77 105l176 -61v-6q-104 -119 -270 -119q-43 0 -86 8v-6q116 -32 199 -109q84 -78 84 -190
q0 -129 -109 -219t-294 -90q-45 0 -86 6q-101 -29 -102 -87q0 -52 54 -63l76 -16q78 -13 177 -36q103 -23 152 -36zM441 959v-3q-83 0 -135 -60q-53 -61 -53 -179q0 -131 63 -227t173 -96q82 0 135 59q52 58 52 177q0 138 -67 233q-67 96 -168 96zM505 -390h-2q132 0 228 47
q94 46 94 137q0 122 -161 166q-72 18 -303 60q-32 -12 -67 -33q-33 -20 -73 -71q-39 -50 -39 -107q0 -95 93 -147q92 -52 230 -52z" />
    <glyph glyph-name="Hcircumflex" unicode="&#x124;" horiz-adv-x="1560" 
d="M788 1704l-240 -174l-12 12q128 178 246 363h11q145 -223 247 -363l-14 -12zM1525 1452l-2 -2q-123 -44 -153 -81t-30 -167v-944q0 -130 30 -167t153 -81v-12h-586v12q124 44 152 81q29 38 29 167v504h-676v-504q0 -92 15 -132q15 -41 48 -62q32 -20 121 -52v-12h-588v12
q86 30 121 53q33 21 47 62q14 42 14 132v944q0 90 -14 132q-14 41 -47 62q-35 23 -121 53v12h588v-12q-89 -32 -121 -52q-33 -21 -48 -62q-15 -40 -15 -132v-362h676v362q0 130 -28 167q-29 38 -151 81v12h586v-12z" />
    <glyph glyph-name="hcircumflex" unicode="&#x125;" horiz-adv-x="1175" 
d="M569 1731l-216 -156l-12 12q111 150 223 326h8q124 -191 225 -326l-15 -12zM1007 242h-1q0 -118 26 -156q25 -37 122 -75v-12h-489v12q98 39 122 75q25 37 26 155q4 343 4 405q0 248 -180 248q-152 0 -272 -172v-481q0 -118 26 -156q25 -37 122 -75v-12h-489v12
q96 38 123 75t27 155v960q0 76 -6 120t-30 71q-25 28 -43 38q-19 11 -72 33v13q176 12 344 63v-754q147 220 362 222q119 0 198 -72q80 -72 80 -213v-479z" />
    <glyph glyph-name="Hbar" unicode="&#x126;" horiz-adv-x="1560" 
d="M1526 1452l-2 -2q-123 -44 -153 -81t-30 -167v-108h152v-43h-152v-793q0 -130 30 -167t153 -81v-12h-586v12q124 44 152 81q29 38 29 167v504h-676v-504q0 -92 15 -132q15 -41 48 -62q32 -20 121 -52v-12h-588v12q86 30 121 53q33 21 47 62q14 42 14 132v793h-155v43h155
v108q0 90 -14 132q-14 41 -47 62q-35 23 -121 53v12h588v-12q-89 -32 -121 -52q-33 -21 -48 -62q-15 -40 -15 -132v-108h676v108q0 130 -28 167q-29 38 -151 81v12h586v-12zM1118 840v211h-676v-211h676z" />
    <glyph glyph-name="hbar" unicode="&#x127;" horiz-adv-x="1175" 
d="M1008 242l-1 2q0 -118 26 -156q25 -37 122 -75v-12h-489v12q98 39 122 75q25 37 26 155q4 343 4 405q0 248 -180 248q-152 0 -272 -172v-481q0 -118 26 -156q25 -37 122 -75v-12h-489v12q96 38 123 75t27 155v981h-137v49h135q-5 67 -25 102q-22 37 -43 50q-25 15 -81 38
v13q176 12 344 63v-266h237v-49h-237v-439q147 220 362 222q118 0 198 -72t80 -213v-479z" />
    <glyph glyph-name="Itilde" unicode="&#x128;" horiz-adv-x="661" 
d="M631 1774l13 -6q-32 -182 -192 -182q-45 0 -148 31q-114 35 -131 35q-52 0 -79 -12t-64 -49l-15 4q18 96 68 140t140 44q31 0 136 -33t140 -33q48 0 76 14q27 14 56 47zM36 -1v10q86 30 121 53q33 21 47 62q14 42 14 132v944q0 90 -14 132q-14 41 -47 62q-35 23 -121 53
v12h588v-12q-89 -32 -121 -52q-33 -21 -48 -62t-15 -132v-944q0 -91 15 -132t48 -62q32 -20 121 -52v-12h-588z" />
    <glyph glyph-name="itilde" unicode="&#x129;" horiz-adv-x="534" 
d="M518 1384l18 -4q-31 -178 -180 -178q-54 0 -138 31q-103 35 -121 35q-36 0 -57 -7q-22 -7 -34 -18q-8 -7 -37 -36l-14 4q32 179 178 180q64 0 139 -31q85 -35 134 -35q61 0 112 59zM24 0l-3 11q96 37 123 75q27 37 27 155v432q0 77 -6 120q-6 44 -30 71q-25 28 -43 38
q-20 10 -72 33v12q193 17 345 64v-768q0 -119 27 -156t123 -75v-12h-491z" />
    <glyph glyph-name="Imacron" unicode="&#x12a;" horiz-adv-x="661" 
d="M627 1714v-123h-586v123h586zM39 0v10q86 30 121 53q33 21 47 62q14 42 14 132v944q0 90 -14 132q-14 41 -47 62q-35 23 -121 53v12h588v-12q-89 -32 -121 -52q-33 -21 -48 -62q-15 -40 -15 -132v-944q0 -92 15 -132q15 -41 48 -62q32 -20 121 -52v-12h-588z" />
    <glyph glyph-name="imacron" unicode="&#x12b;" horiz-adv-x="534" 
d="M500 1335v-118h-502v118h502zM25 0l-3 11q96 37 123 75q27 37 27 155v432q0 77 -6 120q-6 44 -30 71q-25 28 -43 38q-19 10 -72 33v12q193 17 345 64v-768q0 -119 27 -156t123 -75v-12h-491z" />
    <glyph glyph-name="Ibreve" unicode="&#x12c;" horiz-adv-x="661" 
d="M557 1876h17q-32 -326 -241 -326q-212 0 -244 326h19q26 -86 90 -135q65 -50 136 -50t135 50q62 49 88 135zM38 0v10q86 30 121 53q33 21 47 62q14 42 14 132v944q0 90 -14 132q-14 41 -47 62q-35 23 -121 53v12h588v-12q-89 -32 -121 -52q-33 -21 -48 -62
q-15 -40 -15 -132v-944q0 -92 15 -132q15 -41 48 -62q32 -20 121 -52v-12h-588z" />
    <glyph glyph-name="ibreve" unicode="&#x12d;" horiz-adv-x="534" 
d="M465 1454h19q-32 -326 -241 -326q-212 0 -244 326h18q23 -86 87 -135q65 -50 138 -50q71 0 136 50q64 49 87 135zM26 0l-3 11q96 37 123 75q27 37 27 155v432q0 77 -6 120q-6 44 -30 71q-25 28 -43 38q-20 10 -72 33v12q193 17 345 64v-768q0 -119 27 -156t123 -75v-12
h-491z" />
    <glyph glyph-name="Iogonek" unicode="&#x12e;" horiz-adv-x="661" 
d="M627 1452l-4 -3q-89 -32 -121 -52q-33 -21 -48 -62t-15 -132v-944q0 -91 15 -132t48 -62q32 -20 121 -52v-12h-221q-58 -41 -99 -97q-42 -57 -42 -106q0 -39 26 -60t65 -21q79 0 152 62l12 -13q-39 -58 -108 -96q-70 -38 -141 -38q-67 0 -112 33t-45 86q0 66 68 132
q68 67 176 119h-315v12q86 30 121 53q33 21 47 62q14 42 14 132v944q0 90 -14 132q-14 41 -47 62q-35 23 -121 53v12h588v-12z" />
    <glyph glyph-name="iogonek" unicode="&#x12f;" horiz-adv-x="534" 
d="M244 1169h2q-50 0 -87 36q-38 36 -38 85q0 47 38 83q37 36 87 36q47 0 84 -37q38 -38 38 -82q0 -49 -37 -85t-87 -36zM362 0l-6 -3q-141 -111 -141 -213q0 -41 26 -62q25 -21 65 -21q82 0 153 66l12 -13q-39 -63 -108 -102t-142 -39q-71 0 -114 34t-43 90q0 67 68 137
t174 125h-282v12q96 37 123 75q27 37 27 155v432q0 77 -6 120q-6 44 -30 71q-25 28 -43 38q-19 10 -72 33v12q193 17 345 64v-768q0 -119 27 -156t123 -75v-12h-156z" />
    <glyph glyph-name="Idotaccent" unicode="&#x130;" horiz-adv-x="661" 
d="M332 1561v-1q-46 0 -81 35t-35 81t35 81t81 35q49 0 84 -35q34 -34 34 -81t-34 -81t-84 -34zM39 -1v10q86 30 121 53q33 21 47 62q14 42 14 132v944q0 90 -14 132q-14 41 -47 62q-35 23 -121 53v12h588v-12q-89 -32 -121 -52q-33 -21 -48 -62t-15 -132v-944
q0 -91 15 -132t48 -62q32 -20 121 -52v-12h-588z" />
    <glyph glyph-name="dotlessi" unicode="&#x131;" horiz-adv-x="534" 
d="M25 0l-3 11q96 37 123 75q27 37 27 155v432q0 77 -6 120q-6 44 -30 71q-25 28 -43 38q-19 10 -72 33v12q193 17 345 64v-768q0 -119 27 -156t123 -75v-12h-491z" />
    <glyph glyph-name="Jcircumflex" unicode="&#x134;" horiz-adv-x="647" 
d="M90 1530l-12 12q128 178 246 363h10q137 -212 248 -363l-15 -12l-237 174zM45 -270l-5 21q174 101 174 303v1149q0 129 -30 167t-153 81v12h585v-12q-122 -43 -151 -81q-28 -37 -28 -167v-1014q0 -107 -33 -189q-33 -83 -96 -134t-123 -81q-56 -28 -140 -55z" />
    <glyph glyph-name="jcircumflex" unicode="&#x135;" horiz-adv-x="503" 
d="M-6 1112l-12 12q86 118 243 357h11q122 -185 243 -357l-14 -12l-234 172zM-27 -426l-7 12q107 56 150 139q44 85 44 241v707q0 97 -18 147t-42 68t-90 45v12q196 18 342 64v-940q0 -392 -379 -495z" />
    <glyph glyph-name="uni0136" unicode="&#x136;" horiz-adv-x="1435" 
d="M444 260v-2q0 -92 15 -132q15 -41 48 -62q32 -20 121 -52v-12h-588v12q86 30 121 53q33 21 47 62q14 42 14 132v944q0 90 -14 132q-14 41 -47 62q-35 23 -121 53v12h588v-12q-89 -32 -121 -52q-33 -21 -48 -62q-15 -40 -15 -132v-944zM473 725l457 436q98 92 98 165
q0 80 -117 123v12h473v-12q-100 -53 -177 -111q-82 -63 -203 -175l-351 -321l531 -670q102 -129 231 -162v-12h-371zM782 -72v-4q50 0 84 -31q35 -32 35 -91q0 -73 -53 -152q-52 -78 -162 -123l-8 14q102 90 129 191q-8 -2 -23 -2q-48 0 -85 29q-36 29 -36 68q0 41 36 71
t83 30z" />
    <glyph glyph-name="uni0137" unicode="&#x137;" horiz-adv-x="1087" 
d="M25 0l-2 12q96 38 123 75t27 155v960q0 76 -6 120t-30 71q-25 28 -43 38q-20 11 -72 33v13q176 12 344 63v-1038l321 282q51 45 51 84q0 59 -100 102v12h391v-12q-2 -1 -12.5 -7t-20.5 -12t-20.5 -12t-12.5 -7t-5.5 -3.5t-10.5 -7t-12 -7.5l-28 -18q-10 -6 -25 -16
l-27 -18q-3 -2 -11.5 -8t-12.5 -9q-9 -6 -25 -20t-25 -20q-13 -9 -28 -24l-215 -188l350 -442q74 -91 180 -138v-12h-299l-369 475h-34v-233q0 -119 27 -156t123 -75v-12h-491zM592 -70v-2q50 0 84 -31q35 -32 35 -91q0 -74 -54 -152t-162 -123l-9 14q102 90 129 191
q-10 -2 -15 -2q-55 0 -91 27t-36 68t36 71t83 30z" />
    <glyph glyph-name="Lacute" unicode="&#x139;" horiz-adv-x="1243" 
d="M535 1898q-141 -190 -261 -327h-20q22 109 57 327h224zM1133 356l14 1l-49 -356h-1057v12q86 30 121 53q33 21 47 62q14 42 14 132v944q0 90 -14 132q-14 41 -47 62q-35 23 -121 53v12h588v-12q-89 -32 -121 -52q-33 -21 -48 -62t-15 -132v-1063q0 -38 72 -63
q71 -25 201 -25h71q110 0 201 89t143 213z" />
    <glyph glyph-name="lacute" unicode="&#x13a;" horiz-adv-x="534" 
d="M125 1589l-21 6q34 73 132 306l215 -52q-171 -144 -326 -260zM25 0l-2 11q96 37 123 75q27 37 27 155v960q0 77 -6 120q-6 44 -30 71q-25 28 -43 38q-20 10 -72 33v13q176 12 344 63v-1296q0 -119 27 -156t123 -75v-12h-491z" />
    <glyph glyph-name="uni013B" unicode="&#x13b;" horiz-adv-x="1243" 
d="M1133 356l14 1l-49 -356h-1057v12q86 30 121 53q33 21 47 62q14 42 14 132v944q0 90 -14 132q-14 41 -47 62q-35 23 -121 53v12h588v-12q-89 -32 -121 -52q-33 -21 -48 -62t-15 -132v-1063q0 -38 72 -63q71 -25 201 -25h71q110 0 201 89t143 213zM684 -69l1 -2
q50 0 84 -31q35 -32 35 -91q0 -74 -54 -152t-162 -123l-8 14q102 90 129 191q-10 -2 -17 -2q-55 0 -91 27t-36 68t36 71t83 30z" />
    <glyph glyph-name="uni013C" unicode="&#x13c;" horiz-adv-x="534" 
d="M25 0l-2 11q96 37 123 75q27 37 27 155v960q0 77 -6 120q-6 44 -30 71q-25 28 -43 38q-20 10 -72 33v13q176 12 344 63v-1296q0 -119 27 -156t123 -75v-12h-491zM272 -71l-2 -2q50 0 84 -31q35 -32 35 -91q0 -73 -53 -152q-52 -78 -162 -123l-8 14q102 90 129 191
q-10 -2 -15 -2q-55 0 -91 27t-36 68t36 71t83 30z" />
    <glyph glyph-name="Lcaron" unicode="&#x13d;" horiz-adv-x="1243" 
d="M1133 356l14 1l-49 -356h-1057v12q86 30 121 53q33 21 47 62q14 42 14 132v944q0 90 -14 132q-14 41 -47 62q-35 23 -121 53v12h588v-12q-89 -32 -121 -52q-33 -21 -48 -62t-15 -132v-1063q0 -38 72 -63q71 -25 201 -25h71q110 0 201 89t143 213zM958 1463
q-159 -210 -260 -327h-20q20 96 57 327h223z" />
    <glyph glyph-name="lcaron" unicode="&#x13e;" horiz-adv-x="495" 
d="M25 0l-2 11q96 37 123 75q27 37 27 155v960q0 77 -6 120q-6 44 -30 71q-25 28 -43 38q-20 10 -72 33v13q176 12 344 63v-1296q0 -119 27 -156t123 -75v-12h-491zM481 1062h-16l33 426h196z" />
    <glyph glyph-name="Ldot" unicode="&#x13f;" horiz-adv-x="1243" 
d="M1133 356l14 1l-49 -356h-1057v12q86 30 121 53q33 21 47 62q14 42 14 132v944q0 90 -14 132q-14 41 -47 62q-35 23 -121 53v12h588v-12q-89 -32 -121 -52q-33 -21 -48 -62t-15 -132v-1063q0 -38 72 -63q71 -25 201 -25h71q110 0 201 89t143 213zM805 517l-1 1
q-57 0 -99 42t-42 97q0 57 42 99t100 42q55 0 97 -42t42 -100q0 -55 -42 -97t-97 -42z" />
    <glyph glyph-name="ldot" unicode="&#x140;" horiz-adv-x="921" 
d="M25 0l-2 11q96 37 123 75q27 37 27 155v960q0 77 -6 120q-6 44 -30 71q-25 28 -43 38q-20 10 -72 33v13q176 12 344 63v-1296q0 -119 27 -156t123 -75v-12h-491zM727 445v-1q-55 0 -97 42t-42 98q0 57 42 99t97 42q57 0 99 -42t42 -99q0 -55 -42 -97t-99 -42z" />
    <glyph glyph-name="Lslash" unicode="&#x141;" horiz-adv-x="1243" 
d="M1133 356l14 1l-49 -356h-1057v12q86 30 121 53q33 21 47 62q14 42 14 132v297l-182 -108v53l182 108v594q0 90 -14 132q-14 41 -47 62q-35 23 -121 53v12h588v-12q-89 -32 -121 -52q-33 -21 -48 -62t-15 -132v-463l301 179v-54l-301 -178v-547q0 -38 72 -63
q71 -25 201 -25h71q110 0 201 89t143 213z" />
    <glyph glyph-name="lslash" unicode="&#x142;" horiz-adv-x="534" 
d="M367 242l-2 -1q0 -119 27 -156t123 -75v-12h-491v12q96 38 123 75t27 155v438l-139 -102v53l139 104v467q0 76 -6 120t-30 71q-25 28 -43 38q-19 11 -72 33v13q176 12 344 63v-659l125 94v-58l-125 -92v-581z" />
    <glyph glyph-name="Nacute" unicode="&#x143;" horiz-adv-x="1499" 
d="M963 1898q-141 -190 -261 -327h-20q22 109 57 327h224zM1473 1464l-1 -14q-95 -28 -133 -57q-37 -28 -55 -97t-18 -220v-1077h-164q-359 574 -801 1235v-848q0 -151 18 -220t55 -97q38 -29 133 -57v-12h-469v12q97 29 134 57q38 29 56 98t18 220v911q-56 92 -201 153v12
h361q462 -695 802 -1242v856q0 150 -17 221q-16 68 -54 97t-133 57v12h469z" />
    <glyph glyph-name="nacute" unicode="&#x144;" horiz-adv-x="1173" 
d="M823 1462h1q-146 -194 -261 -327h-20q19 96 57 327h223zM1007 242h-4q0 -118 27 -155t123 -75v-12h-489v12q96 38 123 75q28 38 29 155q2 214 2 424q0 118 -52 173q-53 56 -132 56q-140 0 -268 -174v-479q0 -118 26 -156q25 -37 122 -75v-12h-489v12q96 37 123 75
q27 37 27 155v434q0 137 -27 179q-27 41 -123 79v12q187 17 339 64v-234q152 229 366 231q118 0 198 -72q79 -72 79 -213v-479z" />
    <glyph glyph-name="uni0145" unicode="&#x145;" horiz-adv-x="1499" 
d="M1473 1464l-1 -14q-95 -28 -133 -57q-37 -28 -55 -97t-18 -220v-1077h-164q-359 574 -801 1235v-848q0 -151 18 -220t55 -97q38 -29 133 -57v-12h-469v12q97 29 134 57q38 29 56 98t18 220v911q-56 92 -201 153v12h361q462 -695 802 -1242v856q0 150 -17 221
q-16 68 -54 97t-133 57v12h469zM763 -72v-2q50 0 84 -31q35 -32 35 -91q0 -74 -54 -152t-162 -123l-9 14q102 90 129 191q-10 -2 -15 -2q-55 0 -91 27t-36 68t36 71t83 30z" />
    <glyph glyph-name="uni0146" unicode="&#x146;" horiz-adv-x="1173" 
d="M1006 242h-4q0 -118 27 -155t123 -75v-12h-489v12q96 38 123 75q28 38 29 155q2 214 2 424q0 118 -52 173q-53 56 -132 56q-141 0 -268 -174v-479q0 -118 26 -156q25 -37 122 -75v-12h-489v12q96 37 123 75q27 37 27 155v434q0 137 -27 179q-27 41 -123 79v12
q187 17 339 64v-234q151 229 366 231q119 0 198 -72t79 -213v-479zM604 -70v-4q50 0 84 -31q35 -32 35 -91q0 -73 -53 -152q-52 -78 -162 -123l-8 14q102 90 129 191q-8 -2 -23 -2q-48 0 -85 29q-36 29 -36 68q0 41 36 71t83 30z" />
    <glyph glyph-name="Ncaron" unicode="&#x147;" horiz-adv-x="1499" 
d="M782 1536l-10 1q-124 194 -248 362l13 13l239 -174l238 174l14 -13q-144 -203 -246 -363zM1473 1465l-1 -14q-95 -28 -133 -57q-37 -28 -55 -97t-18 -220v-1077h-164q-359 574 -801 1235v-848q0 -151 18 -220t55 -97q38 -29 133 -57v-12h-469v12q97 29 134 57
q38 29 56 98t18 220v911q-56 91 -201 153v12h361q462 -695 802 -1242v856q0 150 -17 221q-16 68 -54 97t-133 57v12h469z" />
    <glyph glyph-name="ncaron" unicode="&#x148;" horiz-adv-x="1173" 
d="M604 1110h-8q-147 225 -244 358l13 13l235 -172l236 172l12 -13q-109 -151 -244 -358zM1006 242h-4q0 -118 27 -155t123 -75v-12h-489v12q96 38 123 75q28 38 29 155q2 214 2 424q0 118 -52 173q-53 56 -132 56q-141 0 -268 -174v-479q0 -118 26 -156q25 -37 122 -75v-12
h-489v12q96 37 123 75q27 37 27 155v434q0 137 -27 179q-27 41 -123 79v12q187 17 339 64v-234q151 229 366 231q119 0 198 -72t79 -213v-479z" />
    <glyph glyph-name="Eng" unicode="&#x14a;" horiz-adv-x="1499" 
d="M1473 1464l-3 -15q-95 -28 -133 -57q-37 -28 -55 -97t-18 -220v-1255q0 -119 -55 -181q-55 -63 -153 -63q-137 0 -215 86l98 217h12q18 -80 63 -140t108 -60q44 0 69 36q26 37 26 89v195h-115q-359 574 -801 1235v-848q0 -151 18 -220t55 -97q38 -29 133 -57v-12h-469v12
q97 29 134 57q38 29 56 98t18 220v911q-56 92 -201 153v12h361q462 -695 802 -1242v856q0 150 -17 221q-16 68 -54 97t-133 57v12h469z" />
    <glyph glyph-name="eng" unicode="&#x14b;" horiz-adv-x="1153" 
d="M729 1006l-3 2q118 0 198 -72t80 -213l-2 -653q0 -391 -381 -490l-7 16q104 53 149 134q46 82 47 234l4 703q0 115 -48 172t-130 57q-131 0 -272 -158v-495q0 -119 27 -156t123 -75v-12h-491v12q96 38 123 75t27 155v434q0 137 -27 179q-27 41 -123 79v12q187 17 339 64
v-224q172 220 367 220z" />
    <glyph glyph-name="Omacron" unicode="&#x14c;" horiz-adv-x="1533" 
d="M1059 1714v-123h-586v123h586zM766 -25h-2q-310 0 -506 211q-197 212 -197 547t197 546q197 210 506 210q310 0 506 -210q197 -211 197 -546q0 -336 -196 -547t-505 -211zM801 29l-1 -2q190 0 310 169q120 170 120 444q0 133 -32 272q-32 136 -90 255q-59 119 -159 194
q-101 75 -223 75q-193 0 -312 -170q-118 -169 -118 -443q0 -186 54 -363t172 -304t279 -127z" />
    <glyph glyph-name="omacron" unicode="&#x14d;" 
d="M791 1333v-119h-502v119h502zM532 -20l-2 2q-213 0 -345 141t-132 360q0 215 129 369q129 155 351 155q223 0 350 -147q128 -148 128 -360q0 -214 -129 -367t-350 -153zM565 25l-4 -2q103 0 174 96q71 97 71 280q0 131 -31 254q-32 125 -105 218q-74 93 -171 93
q-104 0 -176 -97t-72 -282q0 -92 20 -190q19 -96 57 -180q38 -85 99 -137q62 -53 138 -53z" />
    <glyph glyph-name="Obreve" unicode="&#x14e;" horiz-adv-x="1533" 
d="M989 1876h19q-32 -326 -243 -326q-212 0 -244 326h19q26 -86 90 -135q65 -50 136 -50t135 50q62 49 88 135zM766 -25h-2q-310 0 -506 211q-197 212 -197 547t197 546q197 210 506 210q310 0 506 -210q197 -211 197 -546q0 -336 -196 -547t-505 -211zM801 29l-1 -2
q190 0 310 169q120 170 120 444q0 133 -32 272q-32 136 -90 255q-59 119 -159 194q-101 75 -223 75q-193 0 -312 -170q-118 -169 -118 -443q0 -186 54 -363t172 -304t279 -127z" />
    <glyph glyph-name="obreve" unicode="&#x14f;" 
d="M758 1452h19q-32 -326 -241 -326q-212 0 -244 326h18q22 -86 87 -135q65 -50 138 -50q71 0 136 50q65 49 87 135zM533 -20l-2 2q-213 0 -345 141t-132 360q0 215 129 369q129 155 351 155t350 -147q128 -148 128 -360q0 -214 -129 -367t-350 -153zM566 25l-4 -2
q104 0 174 96q71 97 71 280q0 131 -31 254q-32 125 -105 218t-171 93q-104 0 -176 -97t-72 -282q0 -92 20 -190q20 -96 57 -180q38 -85 99 -137q62 -53 138 -53z" />
    <glyph glyph-name="Ohungarumlaut" unicode="&#x150;" horiz-adv-x="1533" 
d="M866 1571h-18q20 107 54 327h219q-121 -166 -255 -327zM516 1569h-19q29 133 54 327h221q-183 -241 -256 -327zM769 -25h-2q-310 0 -506 211q-197 212 -197 547t197 546q197 210 506 210t506 -210q197 -211 197 -546q0 -336 -196 -547t-505 -211zM804 29l-1 -2
q190 0 310 169q120 170 120 444q0 133 -32 272q-31 136 -90 255t-159 194t-223 75q-193 0 -312 -170q-118 -169 -118 -443q0 -186 54 -363t172 -304t279 -127z" />
    <glyph glyph-name="ohungarumlaut" unicode="&#x151;" 
d="M283 1135h-20q29 133 54 327h222q-183 -241 -256 -327zM636 1135h-20q22 121 56 327h219q-121 -165 -255 -327zM534 -20l-2 2q-213 0 -345 141t-132 360q0 215 129 369q129 155 351 155q223 0 350 -147q128 -148 128 -360q0 -214 -129 -367t-350 -153zM567 25l-4 -2
q103 0 174 96q71 97 71 280q0 131 -31 254q-32 125 -105 218q-74 93 -171 93q-104 0 -176 -97t-72 -282q0 -92 20 -190q19 -96 57 -180q38 -85 99 -137q62 -53 138 -53z" />
    <glyph glyph-name="OE" unicode="&#x152;" horiz-adv-x="2179" 
d="M2068 356l12 -1l-49 -356h-889v123q-151 -146 -387 -148q-297 0 -495 211t-198 547q0 335 197 546q197 210 494 210q241 0 389 -150v125h827l37 -340h-12q-41 118 -132 203q-92 86 -234 86h-274v-602h256q145 0 229 137h10v-342h-10q-33 62 -92 111q-58 48 -137 46
l-256 -4v-617q0 -37 72 -63q71 -25 201 -25h96q113 0 201 90t144 213zM802 26q232 0 339 243v770q-59 191 -165 294q-107 104 -246 104q-186 0 -309 -165t-123 -448q0 -190 52 -365q53 -178 171 -305q119 -128 281 -128z" />
    <glyph glyph-name="oe" unicode="&#x153;" horiz-adv-x="1742" 
d="M1671 332l17 -10q-11 -52 -31 -100q-22 -51 -63 -110q-42 -60 -120 -96t-181 -36q-123 0 -225 54q-101 53 -166 152q-117 -208 -368 -206q-221 0 -350 144t-129 357q0 215 129 369q129 155 351 155q260 0 374 -207q133 207 381 207q99 0 173 -37q76 -38 114 -85
q39 -48 63 -105t30 -91q6 -35 6 -48v-27h-678q0 -5 -0.5 -9.5t-0.5 -7.5t-0.5 -5.5t-0.5 -3.5v-2q0 -224 111 -340q111 -115 274 -115q86 0 149 36t88 73q28 41 53 94zM567 21l-4 -2q104 0 176 97q72 98 72 279q0 129 -33 254q-33 126 -106 218q-74 93 -171 93
q-104 0 -176 -97t-72 -282q0 -92 20 -190q19 -96 57 -180q38 -85 99 -137q62 -53 138 -53zM1243 950l-2 -1q-96 0 -159 -79q-64 -80 -83 -223l481 4q-2 31 -13 69q-13 42 -36 98q-24 57 -73 94q-50 38 -115 38z" />
    <glyph glyph-name="Racute" unicode="&#x154;" horiz-adv-x="1380" 
d="M815 1898q-138 -187 -260 -327h-20q23 109 57 327h223zM1188 178v-3q62 -85 170 -165v-12h-309q-259 372 -477 721l-129 -4v-457q0 -92 15 -132q15 -41 48 -62q32 -20 121 -52v-12h-588v12q86 30 121 53q33 21 47 62q14 42 14 132v944q0 90 -14 132q-14 41 -47 62
q-35 23 -121 53v12h600q255 0 394 -98q138 -98 138 -249q0 -141 -105 -244t-269 -132q183 -277 391 -561zM444 1410v-643h185q140 0 229 82q90 83 90 249q0 162 -89 237q-88 75 -245 75h-170z" />
    <glyph glyph-name="racute" unicode="&#x155;" horiz-adv-x="808" 
d="M373 1135h-19q20 96 57 327h223q-146 -192 -261 -327zM27 0v12q96 38 123 75t27 155v432q0 129 -27 177q-27 49 -124 83v12q193 17 339 64l-6 -209h4q29 74 98 140t170 66q59 0 102 -31l-20 -223h-13q-98 118 -188 116q-88 0 -144 -120v-506q0 -118 32 -156
q31 -37 149 -75v-12h-522z" />
    <glyph glyph-name="uni0156" unicode="&#x156;" horiz-adv-x="1380" 
d="M1188 178v-3q62 -85 170 -165v-12h-309q-259 372 -477 721l-129 -4v-457q0 -92 15 -132q15 -41 48 -62q32 -20 121 -52v-12h-588v12q86 30 121 53q33 21 47 62q14 42 14 132v944q0 90 -14 132q-14 41 -47 62q-35 23 -121 53v12h600q255 0 394 -98q138 -98 138 -249
q0 -141 -105 -244t-269 -132q183 -277 391 -561zM444 1410v-643h185q140 0 229 82q90 83 90 249q0 162 -89 237q-88 75 -245 75h-170zM713 -73l-2 -2q50 0 84 -31q35 -32 35 -91q0 -73 -53 -152q-53 -78 -162 -123l-8 14q102 90 129 191q-10 -2 -15 -2q-55 0 -91 27t-36 68
t36 71t83 30z" />
    <glyph glyph-name="uni0157" unicode="&#x157;" horiz-adv-x="808" 
d="M25 0v12q96 38 123 75t27 155v432q0 129 -27 177q-27 49 -124 83v12q193 17 339 64l-6 -209h4q29 74 98 140t170 66q59 0 102 -31l-20 -223h-13q-98 118 -188 116q-88 0 -144 -120v-506q0 -118 32 -156q31 -37 149 -75v-12h-522zM274 -70l-2 -2q50 0 84 -31
q35 -32 35 -91q0 -73 -53 -152q-52 -78 -162 -123l-8 14q102 90 129 191q-10 -2 -15 -2q-55 0 -91 27t-36 68t36 71t83 30z" />
    <glyph glyph-name="Rcaron" unicode="&#x158;" horiz-adv-x="1380" 
d="M635 1536l-10 1q-124 194 -248 362l12 13l240 -174l237 174l15 -13q-144 -203 -246 -363zM1188 179v-3q62 -85 170 -165v-12h-309q-259 372 -477 721l-129 -4v-457q0 -91 15 -132t48 -62q32 -20 121 -52v-12h-588v12q86 30 121 53q33 21 47 62q14 42 14 132v944
q0 90 -14 132q-14 41 -47 62q-35 23 -121 53v12h600q255 0 394 -98q138 -97 138 -249q0 -140 -105 -244q-105 -103 -269 -132q183 -277 391 -561zM444 1411v-643h185q140 0 229 82q90 82 90 249q0 162 -89 237q-88 75 -245 75h-170z" />
    <glyph glyph-name="rcaron" unicode="&#x159;" horiz-adv-x="808" 
d="M174 1481l236 -172l235 172l12 -13q-114 -159 -243 -358h-8q-147 225 -244 358zM25 0v12q96 38 123 75t27 155v432q0 129 -27 177q-27 49 -124 83v12q193 17 339 64l-6 -209h4q29 74 98 140t170 66q59 0 102 -31l-20 -223h-13q-98 118 -188 116q-88 0 -144 -120v-506
q0 -118 32 -156q31 -37 149 -75v-12h-522z" />
    <glyph glyph-name="Sacute" unicode="&#x15a;" horiz-adv-x="1124" 
d="M500 1571h-20q22 109 57 327h223q-138 -187 -260 -327zM595 -25l-2 -8q-215 0 -462 136l-25 344h15q44 -105 105 -196q60 -90 156 -159t201 -69q113 0 186 72q74 72 74 187q0 52 -21 102t-45 81q-25 32 -79 72q-58 42 -82 57q-27 16 -99 57q-205 120 -298 215
q-91 92 -91 245q0 172 121 274t300 102q173 0 369 -84l41 -330h-15q-68 143 -174 254t-231 111q-94 0 -163 -63t-69 -178q0 -101 65 -163q62 -59 254 -172q80 -46 111 -66q39 -24 93 -61q63 -43 86 -72q36 -45 59 -76q35 -47 45 -97q11 -53 11 -112q0 -196 -129 -300
q-128 -103 -307 -103z" />
    <glyph glyph-name="sacute" unicode="&#x15b;" horiz-adv-x="831" 
d="M365 1135h-20q19 96 57 327h224q-146 -192 -261 -327zM439 -25l-5 -3q-161 0 -346 88l-24 248l12 2q206 -297 372 -297q70 0 111 45q41 46 41 113q0 79 -60 132q-61 53 -181 111q-57 28 -83 42q-30 16 -75 48q-45 31 -70 61q-26 30 -45 76q-19 45 -19 99q0 131 97 198
q98 68 225 68q132 0 297 -68l19 -229l-13 -4q-67 103 -151 180q-85 78 -165 78q-61 0 -102 -41q-40 -40 -40 -108q0 -37 15 -70q14 -31 32 -52q17 -20 57 -45q39 -24 62 -36q2 -1 76 -37q142 -68 219 -141q77 -74 77 -186q0 -125 -93 -198q-94 -74 -240 -74z" />
    <glyph glyph-name="Scircumflex" unicode="&#x15c;" horiz-adv-x="1124" 
d="M338 1530l-13 12q127 178 246 363h11q145 -223 247 -363l-14 -12l-237 174zM593 -25l-2 -8q-215 0 -462 136l-25 344h15q44 -105 105 -196q60 -90 156 -159t201 -69q113 0 186 72q74 72 74 187q0 52 -21 102t-45 81q-25 32 -79 72q-58 42 -82 57q-27 16 -99 57
q-205 120 -298 215q-91 92 -91 245q0 172 121 274t300 102q173 0 369 -84l41 -330h-15q-68 143 -174 254t-231 111q-94 0 -163 -63t-69 -178q0 -101 65 -163q62 -59 254 -172q80 -46 111 -66q39 -24 93 -61q63 -43 86 -72q36 -45 59 -76q35 -47 45 -97q11 -53 11 -112
q0 -196 -129 -300q-128 -103 -307 -103z" />
    <glyph glyph-name="scircumflex" unicode="&#x15d;" horiz-adv-x="831" 
d="M166 1110l-12 12q86 118 243 357h11q122 -185 243 -357l-14 -12l-234 172zM438 -25l-5 -3q-161 0 -346 88l-24 248l12 2q205 -297 372 -297q71 0 111 45q41 46 41 113q0 79 -60 132q-61 53 -181 111q-57 28 -83 42q-30 16 -75 48q-45 31 -70 61q-26 30 -45 76
q-19 45 -19 99q0 131 97 198q98 68 225 68q132 0 297 -68l19 -229l-13 -4q-67 103 -151 180q-86 78 -165 78q-61 0 -102 -41q-40 -40 -40 -108q0 -37 15 -70q14 -31 32 -52q16 -20 57 -45q39 -24 62 -36q2 -1 76 -37q143 -68 219 -141q77 -74 77 -186q0 -125 -93 -198
q-94 -74 -240 -74z" />
    <glyph glyph-name="Scedilla" unicode="&#x15e;" horiz-adv-x="1124" 
d="M1030 379l-1 -7q0 -196 -128 -300q-127 -103 -306 -103l-21 -43q118 -8 189 -54q71 -47 71 -126q0 -172 -367 -172l10 35q103 7 162 39t59 83q0 44 -59 77q-59 34 -153 35l70 127q-198 12 -426 134l-25 344h15q44 -105 105 -196q60 -90 156 -159t201 -69q112 0 186 72
t74 187q0 53 -21 102t-45 81q-25 32 -79 72q-58 42 -82 57q-27 17 -99 57q-205 120 -298 215q-91 92 -91 245q0 172 121 274q122 102 300 102q172 0 369 -84l41 -330h-15q-68 143 -174 254q-107 111 -231 111q-94 0 -163 -63t-69 -178q0 -101 65 -163q62 -59 254 -172
q79 -47 111 -66q39 -24 93 -61q63 -43 86 -72q36 -45 59 -76q35 -47 45 -97q11 -53 11 -112z" />
    <glyph glyph-name="scedilla" unicode="&#x15f;" horiz-adv-x="831" 
d="M772 250l-6 -4q0 -122 -90 -196q-90 -73 -242 -78l-28 -49q225 -13 225 -156q0 -102 -103 -156t-297 -52l16 32q246 23 246 138q0 47 -51 77q-50 29 -139 34l94 133q-142 11 -309 88l-24 248l12 2q206 -297 372 -297q70 0 111 45q41 46 41 113q0 80 -60 132
q-61 53 -181 111q-57 28 -83 42q-30 17 -75 48t-70 61q-26 30 -45 76q-19 45 -19 99q0 131 97 198q98 68 225 68q132 0 297 -68l19 -229l-13 -4q-67 103 -151 180q-85 78 -165 78q-61 0 -102 -41q-40 -40 -40 -108q0 -37 15 -70q14 -31 32 -52q17 -19 57 -45q39 -24 62 -36
q2 -1 76 -37q141 -67 219 -140q77 -72 77 -185z" />
    <glyph glyph-name="Scaron" unicode="&#x160;" horiz-adv-x="1124" 
d="M334 1911l238 -174l238 174l14 -13q-145 -205 -245 -362h-11q-127 199 -246 362zM593 -25l-2 -8q-215 0 -462 136l-25 344h15q44 -105 105 -196q60 -90 156 -159t201 -69q113 0 186 72q74 72 74 187q0 52 -21 102t-45 81q-25 32 -79 72q-58 42 -82 57q-27 16 -99 57
q-205 120 -298 215q-91 92 -91 245q0 172 121 274t300 102q173 0 369 -84l41 -330h-15q-68 143 -174 254t-231 111q-94 0 -163 -63t-69 -178q0 -101 65 -163q62 -59 254 -172q80 -46 111 -66q39 -24 93 -61q63 -43 86 -72q36 -45 59 -76q35 -47 45 -97q11 -53 11 -112
q0 -196 -129 -300q-128 -103 -307 -103z" />
    <glyph glyph-name="scaron" unicode="&#x161;" horiz-adv-x="831" 
d="M166 1481l235 -172l236 172l12 -13q-114 -159 -243 -358h-9q-142 218 -243 358zM438 -25l-5 -3q-161 0 -346 88l-24 248l12 2q205 -297 372 -297q71 0 111 45q41 46 41 113q0 79 -60 132q-61 53 -181 111q-57 28 -83 42q-30 16 -75 48q-45 31 -70 61q-26 30 -45 76
q-19 45 -19 99q0 131 97 198q98 68 225 68q132 0 297 -68l19 -229l-13 -4q-67 103 -151 180q-86 78 -165 78q-61 0 -102 -41q-40 -40 -40 -108q0 -37 15 -70q14 -31 32 -52q16 -20 57 -45q39 -24 62 -36q2 -1 76 -37q143 -68 219 -141q77 -74 77 -186q0 -125 -93 -198
q-94 -74 -240 -74z" />
    <glyph glyph-name="uni0162" unicode="&#x162;" horiz-adv-x="1323" 
d="M1235 1464l38 -341h-12q-41 118 -132 203q-92 86 -232 86h-117v-1153q0 -129 29 -167t150 -81v-12h-264l-28 -61q119 -8 189 -54q71 -47 71 -126q0 -172 -367 -172l10 35q104 7 162 39q59 32 59 83q0 43 -60 78t-154 36l79 143h-284v12q123 44 153 81t30 167v1153h-123
q-140 0 -232 -86q-91 -85 -132 -203h-13l37 340h1143z" />
    <glyph glyph-name="uni0163" unicode="&#x163;" horiz-adv-x="647" 
d="M381 -16h-3q-16 0 -30 2l-35 -60q224 -13 226 -156q0 -102 -103 -156t-298 -52l17 32q123 11 184.5 45.5t60.5 92.5q0 47 -51 77q-50 29 -139 34l104 150q-79 19 -129 86t-50 176v676h-104v24q212 154 274 279h21v-252h286l-6 -51h-278l-4 -647q0 -110 45 -159t114 -49
q80 0 150 76l10 -11q-106 -157 -262 -157z" />
    <glyph glyph-name="Tcaron" unicode="&#x164;" horiz-adv-x="1323" 
d="M678 1536l-10 1q-124 194 -248 362l12 13l240 -174l237 174l15 -13q-144 -203 -246 -363zM1235 1465l36 -340h-12q-41 118 -132 203q-92 86 -232 86h-117v-1153q0 -129 29 -167t150 -81v-12h-585v12q123 43 153 81q30 37 30 167v1153h-123q-140 0 -232 -86
q-91 -85 -132 -203h-13l37 340h1143z" />
    <glyph glyph-name="tcaron" unicode="&#x165;" horiz-adv-x="647" 
d="M432 1065h-14l31 422h196zM387 -16h1q-109 0 -181 69t-72 202v676h-104v24q212 154 274 279h21v-252h286l-6 -51h-278l-4 -647q0 -110 45 -159t114 -49q80 0 150 76l10 -11q-106 -157 -256 -157z" />
    <glyph glyph-name="Tbar" unicode="&#x166;" horiz-adv-x="1323" 
d="M1235 1464l36 -340h-12q-41 118 -132 203q-92 86 -232 86h-117v-516h242v-49h-242v-588q0 -129 29 -167q29 -37 150 -81v-12h-585v12q123 44 153 81t30 167v588h-238v49h238v516h-123q-140 0 -232 -86q-91 -85 -132 -203h-13l37 340h1143z" />
    <glyph glyph-name="tbar" unicode="&#x167;" horiz-adv-x="647" 
d="M633 152l10 -13q-106 -157 -256 -156q-109 0 -181 69t-72 202v428h-100v49h100v199h-104v24q212 154 274 279h21v-252h286l-6 -51h-278l-2 -199h229v-49h-229l-2 -399q0 -207 163 -207q77 0 147 76z" />
    <glyph glyph-name="Utilde" unicode="&#x168;" horiz-adv-x="1478" 
d="M1065 1774l14 -6q-32 -182 -192 -182q-45 0 -148 31q-114 35 -131 35q-52 0 -79 -12t-64 -49l-14 4q18 97 67 140q50 44 139 44q31 0 136 -33t140 -33q48 0 76 14q27 14 56 47zM1456 1463l1 -14q-95 -28 -133 -57q-37 -28 -55 -97t-18 -220v-616q0 -231 -136 -358
t-363 -127q-96 0 -186 26q-88 25 -169 81q-81 55 -129 165t-48 261v694q0 90 -14 132q-14 41 -47 62q-35 23 -121 53v12h588v-12q-89 -32 -121 -52q-33 -21 -48 -62q-15 -40 -15 -132v-684q0 -226 101 -350q101 -123 270 -123q158 0 269 105t111 308v618q0 152 -18 221
t-55 97q-38 29 -133 57v12h469z" />
    <glyph glyph-name="utilde" unicode="&#x169;" horiz-adv-x="1171" 
d="M444 1266h-1q-47 0 -71 -12q-25 -12 -57 -49l-14 4q32 179 178 180q62 0 139 -31q85 -35 134 -35q61 0 112 59l19 -4q-31 -178 -181 -178q-47 0 -137 31q-107 35 -121 35zM1005 227l1 -1q0 -99 26 -127q25 -26 122 -52v-12l-334 -64v217q-166 -213 -369 -213
q-119 0 -198 72t-79 211v416q0 136 -27 179t-123 81v12q193 17 345 64q0 -111 -3 -348t-3 -348q0 -118 51 -173q51 -56 131 -56q135 0 268 145v443q0 137 -27 180t-123 81v12q172 12 342 62v-781z" />
    <glyph glyph-name="Umacron" unicode="&#x16a;" horiz-adv-x="1478" 
d="M1063 1714v-123h-586v123h586zM1458 1464l1 -14q-95 -28 -133 -57q-37 -28 -55 -97t-18 -220v-616q0 -231 -136 -358t-363 -127q-96 0 -186 26q-88 25 -169 81t-129 165t-48 261v694q0 90 -14 132q-14 41 -47 62q-35 23 -121 53v12h588v-12q-89 -32 -121 -52
q-33 -21 -48 -62t-15 -132v-684q0 -226 101 -350q101 -123 270 -123q158 0 269 105t111 308v618q0 152 -18 221t-55 97q-38 29 -133 57v12h469z" />
    <glyph glyph-name="umacron" unicode="&#x16b;" horiz-adv-x="1171" 
d="M846 1333v-119h-502v119h502zM1006 227l1 -1q0 -99 26 -127q25 -26 122 -52v-12l-334 -64v217q-167 -213 -369 -213q-118 0 -198 72q-79 72 -79 211v416q0 136 -27 179t-123 81v12q193 17 345 64q0 -111 -3 -348t-3 -348q0 -118 51 -173q51 -56 131 -56q135 0 268 145
v443q0 137 -27 180t-123 81v12q172 12 342 62v-781z" />
    <glyph glyph-name="Ubreve" unicode="&#x16c;" horiz-adv-x="1478" 
d="M991 1876h19q-32 -326 -243 -326q-212 0 -244 326h19q26 -86 90 -135q65 -50 136 -50t135 50q62 49 88 135zM1458 1464l1 -14q-95 -28 -133 -57q-37 -28 -55 -97t-18 -220v-616q0 -231 -136 -358t-363 -127q-96 0 -186 26q-88 25 -169 81t-129 165t-48 261v694
q0 90 -14 132q-14 41 -47 62q-35 23 -121 53v12h588v-12q-89 -32 -121 -52q-33 -21 -48 -62t-15 -132v-684q0 -226 101 -350q101 -123 270 -123q158 0 269 105t111 308v618q0 152 -18 221t-55 97q-38 29 -133 57v12h469z" />
    <glyph glyph-name="ubreve" unicode="&#x16d;" horiz-adv-x="1171" 
d="M590 1126h-1q-212 0 -244 326h19q22 -86 87 -135q65 -50 138 -50q72 0 137 50q64 49 87 135h18q-30 -326 -241 -326zM1005 227l1 -1q0 -99 26 -127q25 -26 122 -52v-12l-334 -64v217q-166 -213 -369 -213q-119 0 -198 72t-79 211v416q0 136 -27 179t-123 81v12
q193 17 345 64q0 -111 -3 -348t-3 -348q0 -118 51 -173q51 -56 131 -56q135 0 268 145v443q0 137 -27 180t-123 81v12q172 12 342 62v-781z" />
    <glyph glyph-name="Uring" unicode="&#x16e;" horiz-adv-x="1478" 
d="M770 1534v-3q-76 0 -130 56q-54 55 -54 135q0 76 54 132t130 56t129 -54q53 -55 53 -132q0 -79 -53 -135q-52 -55 -129 -55zM772 1578v2q53 0 89 43t36 99q0 59 -39 101t-92 42t-87 -40q-35 -41 -35 -96q0 -60 38 -106q38 -45 90 -45zM1458 1463l1 -14q-95 -28 -133 -57
q-37 -28 -55 -97t-18 -220v-616q0 -231 -136 -358t-363 -127q-96 0 -186 26q-88 25 -169 81q-81 55 -129 165t-48 261v694q0 90 -14 132q-14 41 -47 62q-35 23 -121 53v12h588v-12q-89 -32 -121 -52q-33 -21 -48 -62q-15 -40 -15 -132v-684q0 -226 101 -350
q101 -123 270 -123q158 0 269 105t111 308v618q0 152 -18 221t-55 97q-38 29 -133 57v12h469z" />
    <glyph glyph-name="uring" unicode="&#x16f;" horiz-adv-x="1171" 
d="M592 1081v-2q-76 0 -130 56q-54 55 -54 135q0 76 54 132q54 55 130 55t129 -54q53 -55 53 -132q0 -79 -53 -135q-52 -55 -129 -55zM588 1411q-52 0 -87 -41t-35 -98t39 -102t92 -45t87 45q35 46 35 102q0 58 -39 98q-39 41 -92 41zM1006 225l1 -1q0 -99 26 -127
q25 -26 122 -52v-12l-334 -64v217q-167 -213 -369 -213q-118 0 -198 72q-79 72 -79 211v416q0 136 -27 179t-123 81v12q193 17 345 64q0 -111 -3 -348t-3 -348q0 -118 51 -173q51 -56 131 -56q135 0 268 145v443q0 137 -27 180t-123 81v12q172 12 342 62v-781z" />
    <glyph glyph-name="Uhungarumlaut" unicode="&#x170;" horiz-adv-x="1478" 
d="M868 1571h-18q20 107 54 327h219q-121 -166 -255 -327zM518 1569h-19q29 133 54 327h221q-183 -241 -256 -327zM1461 1464l1 -14q-95 -28 -133 -57q-37 -28 -55 -97t-18 -220v-616q0 -231 -136 -358t-363 -127q-96 0 -186 26q-88 25 -169 81t-129 165t-48 261v694
q0 90 -14 132q-14 41 -47 62q-35 23 -121 53v12h588v-12q-89 -32 -121 -52q-33 -21 -48 -62t-15 -132v-684q0 -226 101 -350q100 -123 270 -123q158 0 269 105t111 308v618q0 152 -18 221t-55 97q-38 29 -133 57v12h469z" />
    <glyph glyph-name="uhungarumlaut" unicode="&#x171;" horiz-adv-x="1171" 
d="M594 1462q-183 -241 -256 -327h-21q30 140 56 327h221zM944 1462h1q-121 -166 -255 -327h-20q14 74 55 327h219zM1007 227l1 -1q0 -99 26 -127q25 -26 122 -52v-12l-334 -64v217q-166 -213 -369 -213q-119 0 -198 72t-79 211v416q0 136 -27 179t-123 81v12q193 17 345 64
q0 -111 -3 -348t-3 -348q0 -118 51 -173q51 -56 131 -56q135 0 268 145v443q0 137 -27 180t-123 81v12q172 12 342 62v-781z" />
    <glyph glyph-name="Uogonek" unicode="&#x172;" horiz-adv-x="1478" 
d="M1458 1464l-1 -17q-95 -28 -133 -57q-37 -28 -55 -97t-18 -220v-616q0 -317 -247 -434q-60 -44 -105 -100q-46 -56 -46 -108q0 -39 26 -60q25 -21 65 -21q81 0 152 61l12 -12q-39 -59 -108 -96q-70 -38 -141 -38q-68 0 -113 33t-45 87q0 109 183 219q-59 -11 -132 -13
q-96 0 -185 26q-87 25 -168 81t-129 165t-48 261v694q0 90 -14 132q-14 41 -47 62q-35 23 -121 53v12h588v-12q-89 -32 -121 -52q-33 -21 -48 -62t-15 -132v-684q0 -226 101 -350q101 -123 270 -123q158 0 269 105t111 308v618q0 152 -18 221t-55 97q-38 29 -133 57v12h469z
" />
    <glyph glyph-name="uogonek" unicode="&#x173;" horiz-adv-x="1171" 
d="M831 -27v-4q-111 -98 -110 -186q0 -41 26 -62q25 -21 65 -21q82 0 153 66l12 -13q-39 -63 -108 -102t-142 -39q-71 0 -114 34q-44 35 -44 90q0 70 71 141q70 71 180 126v184q-166 -213 -369 -213q-119 0 -198 72t-79 211v416q0 135 -27 179t-123 81v12q193 17 345 64
q0 -111 -3 -348t-3 -348q0 -117 51 -173t131 -56q135 0 268 145v443q0 136 -27 180t-123 81v12q172 12 342 62v-781q0 -99 26 -127q25 -26 122 -52v-12z" />
    <glyph glyph-name="Wcircumflex" unicode="&#x174;" horiz-adv-x="2179" 
d="M1130 1704l-240 -174l-12 12q128 178 246 363h11q145 -223 247 -363l-14 -12zM1728 1464l441 -3v-12q-115 -52 -151 -99q-36 -46 -81 -171l-424 -1186h-49l-374 1048l-371 -1048h-49l-475 1309q-14 38 -25 55q-12 19 -49 42q-37 24 -108 51v12h586v-12q-101 -31 -139 -57
q-37 -25 -37 -58q0 -20 12 -53l338 -960l281 815l-60 168q-11 36 -23 54q-11 17 -48 41t-111 51v12h582v-12q-93 -34 -129 -59q-34 -24 -34 -63q0 -33 29 -117l311 -890l293 860q33 99 32 132q0 45 -36 75t-132 63v12z" />
    <glyph glyph-name="wcircumflex" unicode="&#x175;" horiz-adv-x="1646" 
d="M831 1282l-237 -172l-12 12q86 118 243 357h11q122 -185 243 -357l-14 -12zM1294 981l347 -3v-12q-67 -39 -90 -54t-47 -44q-23 -27 -43 -78l-321 -797h-43l-273 655l-266 -655h-41l-350 835q-31 74 -165 138v12h498v-12q-77 -27 -106 -49q-30 -23 -30 -54q0 -24 16 -65
q11 -31 233 -557l185 469l-51 125q-18 48 -55 74q-36 26 -108 58v12h499v-12q-76 -22 -109 -44q-31 -21 -31 -56q0 -24 14 -60q6 -14 76 -182q36 -86 162 -382q201 521 213 552q14 36 14 59q0 35 -28 59q-30 25 -100 56v12z" />
    <glyph glyph-name="Ycircumflex" unicode="&#x176;" horiz-adv-x="1411" 
d="M768 1704l-240 -174l-12 12q128 178 246 363h10q137 -212 248 -363l-14 -12zM997 1464h403v-12q-58 -22 -106 -63q-47 -39 -70 -72q-22 -31 -60 -93l-340 -561v-404q0 -129 30 -167t153 -81v-12h-586v12q123 43 153 81t30 167v389l-405 662q-33 51 -64 77q-35 28 -121 65
v12h586v-12q-91 -42 -120 -61q-31 -21 -31 -49t45 -102l309 -510l295 496q35 59 35 99q0 76 -136 127v12z" />
    <glyph glyph-name="ycircumflex" unicode="&#x177;" horiz-adv-x="1079" 
d="M569 1282l-236 -172l-13 12q86 118 243 357h10q128 -194 244 -357l-14 -12zM720 981l355 -4v-12q-87 -40 -121 -80t-62 -115q-210 -552 -254 -660q-34 -86 -84 -180q-52 -106 -81 -153q-30 -48 -78 -104q-50 -57 -122 -104l-118 156l4 12q101 0 199 46q99 47 150 150l2 9
q3 5 12 23q4 8 18 38l-367 821q-44 102 -166 144v12h512v-12q-71 -28 -102 -53q-30 -24 -30 -57q0 -26 19 -67l235 -545q116 276 204 538q10 33 10 56q0 76 -135 129v12z" />
    <glyph glyph-name="Ydieresis" unicode="&#x178;" horiz-adv-x="1411" 
d="M569 1561l-1 -1q-49 0 -82 33t-33 83q0 46 33 81t83 35q46 0 81 -35t35 -81q0 -49 -35 -82q-34 -33 -81 -33zM951 1560l-1 -1q-46 0 -81 33q-34 33 -34 83q0 46 35 81t81 35q49 0 84 -35t35 -81q0 -49 -35 -82t-84 -33zM995 1462h403v-12q-58 -22 -106 -63
q-47 -39 -70 -72q-22 -31 -60 -93l-340 -561v-404q0 -129 30 -167t153 -81v-12h-586v12q123 43 153 81t30 167v389l-405 662q-33 51 -64 77q-35 28 -121 65v12h586v-12q-91 -42 -120 -61q-31 -21 -31 -49t45 -102l309 -510l295 496q35 59 35 99q0 76 -136 127v12z" />
    <glyph glyph-name="Zacute" unicode="&#x179;" horiz-adv-x="1202" 
d="M825 1898q-138 -187 -260 -327h-20q23 109 57 327h223zM1130 356h13l-49 -356h-1031v31l805 1382h-366q-141 0 -234 -87t-132 -202h-14l37 340h970v-30l-806 -1381h462q113 0 201 90t144 213z" />
    <glyph glyph-name="zacute" unicode="&#x17a;" horiz-adv-x="913" 
d="M688 1462h1q-145 -194 -261 -327h-20q20 96 57 327h223zM855 981v-23l-571 -915h315q53 0 95 48q41 47 138 218h13l-33 -309h-752v23l572 915h-287q-43 0 -85 -46q-43 -48 -150 -208h-13l33 297h725z" />
    <glyph glyph-name="Zdotaccent" unicode="&#x17b;" horiz-adv-x="1202" 
d="M633 1561v-1q-46 0 -81 35t-35 81t35 81t81 35q49 0 84 -35q34 -34 34 -81t-34 -81t-84 -34zM1130 355h13l-49 -356h-1031v31l805 1382h-366q-141 0 -234 -87t-132 -202h-14l37 340h970v-30l-806 -1381h462q113 0 201 90t144 213z" />
    <glyph glyph-name="zdotaccent" unicode="&#x17c;" horiz-adv-x="913" 
d="M469 1167h2q-49 0 -87 36t-38 85q0 47 38 83t87 36q47 0 84 -37q38 -38 38 -82q0 -49 -37 -85q-38 -36 -87 -36zM856 981v-23l-571 -915h315q53 0 95 48q41 47 138 218h13l-33 -309h-752v23l572 915h-287q-43 0 -85 -46q-43 -48 -150 -208h-13l33 297h725z" />
    <glyph glyph-name="Zcaron" unicode="&#x17d;" horiz-adv-x="1202" 
d="M645 1536l-10 1q-124 194 -248 362l12 13l240 -174l238 174l14 -13q-144 -203 -246 -363zM1130 357h13l-49 -356h-1031v31l805 1382h-366q-141 0 -234 -87t-132 -202h-14l37 340h970v-30l-806 -1381h462q113 0 201 90t144 213z" />
    <glyph glyph-name="zcaron" unicode="&#x17e;" horiz-adv-x="913" 
d="M469 1110h-8q-147 225 -244 358l12 13l236 -172l235 172l13 -13q-109 -151 -244 -358zM854 981v-23l-571 -915h315q53 0 95 48q41 47 138 218h13l-33 -309h-752v23l572 915h-287q-43 0 -85 -46q-43 -48 -150 -208h-13l33 297h725z" />
    <glyph glyph-name="Aringacute" unicode="&#x1fa;" horiz-adv-x="1474" 
d="M930 2216h1q-148 -175 -260 -288h-21q22 88 57 288h223zM740 1534v-3q-75 0 -129 56q-54 55 -54 135q0 76 54 132t129 56t129 -54t54 -132q0 -80 -54 -135t-129 -55zM738 1863h-2q-54 0 -90 -40q-36 -41 -36 -97q0 -57 38 -103q38 -45 92 -45t90 43t36 99q0 60 -37 101
q-38 42 -91 42zM1260 185l-1 -2q31 -79 62 -111q29 -31 128 -64v-12h-586v12q97 34 134 59q36 24 36 62q0 30 -26 105l-99 270h-514l-26 -72q-78 -207 -78 -272q0 -55 38 -87q39 -32 132 -65v-12h-436v12q106 66 159 140t123 273l314 854l-60 119q120 50 198 110zM423 583
h455l-228 624z" />
    <glyph glyph-name="aringacute" unicode="&#x1fb;" horiz-adv-x="1048" 
d="M502 1511h-19q20 98 57 328h223q-142 -189 -261 -328zM547 1081l-1 -2q-76 0 -130 56q-54 55 -54 135q0 76 54 132q54 55 131 55t129 -54q53 -55 53 -132q0 -79 -53 -135q-52 -55 -129 -55zM550 1126h1q53 0 87 45q35 46 35 102q0 57 -39 98t-93 41q-53 0 -88 -41
q-34 -40 -34 -98q0 -57 39 -102t92 -45zM838 -22h-1q-83 0 -117 60t-30 144l-2 2q-46 -80 -141 -141q-94 -61 -217 -61t-195 63t-72 161q0 137 156 242q157 106 477 200l4 135q2 73 -31 128q-33 56 -119 56q-106 0 -166 -88q-59 -88 -76 -210l-10 -2l-156 112q56 89 163 156
q109 68 259 68q157 0 242 -80q84 -80 80 -198l-15 -573q-1 -27 17 -49q18 -21 41 -21q51 0 96 92l14 -8q-26 -78 -76 -133q-51 -55 -125 -55zM425 92l1 -1q131 0 261 142l10 376q-236 -77 -332 -165t-96 -192q0 -74 42 -117t114 -43z" />
    <glyph glyph-name="AEacute" unicode="&#x1fc;" horiz-adv-x="1966" 
d="M1548 1898q-138 -187 -260 -327h-20q22 109 57 327h223zM1855 356l9 -2l-49 -356h-1074v12q123 44 153 81t30 167v246h-479l-134 -227q-49 -85 -49 -132q0 -80 166 -135v-12h-422v12q83 55 135 110q50 53 108 152l610 1033q8 18 8 24q0 25 -36 51q-39 28 -130 71v12h1044
l37 -340h-12q-41 118 -132 203q-92 86 -232 86h-258v-602h250q145 0 229 137h10v-342h-10q-35 64 -93 110q-58 47 -135 45l-250 -4v-615q0 -37 72 -63q71 -25 201 -25h88q112 0 201 90t144 213zM490 580h434v729h-4z" />
    <glyph glyph-name="aeacute" unicode="&#x1fd;" horiz-adv-x="1611" 
d="M788 1135h-20q20 96 57 327h224q-145 -192 -261 -327zM356 -20h-1q-124 0 -209 56q-84 56 -84 167q0 151 163 254q165 104 471 194l2 140q2 85 -39 132q-40 46 -116 46q-109 0 -168 -89q-58 -88 -70 -207l-10 -2l-154 112q55 89 162 157q106 67 247 67q206 0 280 -162
q135 162 332 162q176 0 281 -116q105 -115 105 -257v-23h-678q0 -6 -1 -14t-1 -18q0 -120 35 -211t93 -140t124 -73t135 -24q195 0 289 199l14 -6q-26 -154 -129 -249q-103 -94 -264 -94q-127 0 -231 56q-104 55 -162 153q-45 -90 -164 -150q-118 -60 -252 -60zM873 651
l482 1q-6 118 -75 209q-69 92 -165 92q-89 0 -160 -86q-70 -85 -82 -216zM460 69l-2 -1q81 0 161 40q82 41 131 117q-58 123 -60 258q0 79 6 126q-226 -78 -328 -162t-102 -205q0 -92 57 -132q58 -41 137 -41z" />
    <glyph glyph-name="Oslashacute" unicode="&#x1fe;" horiz-adv-x="1533" 
d="M956 1898q-138 -187 -260 -327h-20q22 109 57 327h223zM1221 1327q247 -211 246 -594q0 -336 -196 -547t-505 -211q-239 0 -418 134l-123 -172h-55l143 198q-250 217 -250 598q0 335 197 546q197 210 506 210q242 0 420 -133l112 157h56zM299 821l-2 -1q0 -298 125 -528
l659 921q-137 221 -351 222q-194 0 -313 -171q-118 -170 -118 -443zM803 28v-1q184 0 306 167t122 446q0 298 -125 530l-657 -921q140 -221 354 -221z" />
    <glyph glyph-name="oslashacute" unicode="&#x1ff;" 
d="M756 1462h1q-145 -194 -261 -327h-21q19 96 57 327h224zM845 897v-1q168 -142 168 -396q0 -213 -128 -367q-127 -153 -348 -153q-167 0 -283 86l-107 -150h-43l121 170q-168 146 -168 396q0 214 129 369t351 155q163 0 279 -84l90 127h47zM257 583q0 -196 70 -355
l399 566q-84 168 -221 168q-104 0 -176 -97t-72 -282zM566 22h1q107 0 177 96q71 97 71 280q0 201 -70 357l-401 -563q86 -170 222 -170z" />
    <glyph glyph-name="uni0218" unicode="&#x218;" horiz-adv-x="1124" 
d="M594 -25l-2 -8q-215 0 -462 136l-25 344h15q44 -105 105 -196q60 -90 156 -159t201 -69q112 0 186 72t74 187q0 52 -21 102t-45 81q-25 32 -79 72q-58 42 -82 57q-27 16 -99 57q-205 120 -298 215q-91 92 -91 245q0 172 121 274q122 102 300 102q172 0 369 -84l41 -330
h-15q-68 143 -174 254q-107 111 -231 111q-94 0 -163 -63t-69 -178q0 -101 65 -163q62 -59 254 -172q79 -46 111 -66q39 -24 93 -61q63 -43 86 -72q36 -45 59 -76q35 -47 45 -97q11 -53 11 -112q0 -196 -129 -300q-128 -103 -307 -103zM576 -78l-1 -4q50 0 84 -31
q35 -32 35 -91q0 -73 -53 -152q-53 -78 -162 -123l-8 14q102 90 129 191q-8 -2 -22 -2q-48 0 -85 29q-36 29 -36 68q0 41 36 71t83 30z" />
    <glyph glyph-name="uni0219" unicode="&#x219;" horiz-adv-x="831" 
d="M438 -25l-5 -3q-161 0 -346 88l-24 248l12 2q205 -297 372 -297q71 0 111 45q41 46 41 113q0 79 -60 132q-61 53 -181 111q-57 28 -83 42q-30 16 -75 48q-45 31 -70 61q-26 30 -45 76q-19 45 -19 99q0 131 97 198q98 68 225 68q132 0 297 -68l19 -229l-13 -4
q-67 103 -151 180q-86 78 -165 78q-61 0 -102 -41q-40 -40 -40 -108q0 -37 15 -70q14 -31 32 -52q16 -20 57 -45q39 -24 62 -36q2 -1 76 -37q143 -68 219 -141q77 -74 77 -186q0 -125 -93 -198q-94 -74 -240 -74zM421 -73l1 -2q50 0 84 -31q35 -32 35 -91q0 -74 -54 -152
t-162 -123l-8 14q102 90 129 191q-10 -2 -17 -2q-55 0 -91 27t-36 68t36 71t83 30z" />
    <glyph glyph-name="uni021A" unicode="&#x21a;" horiz-adv-x="1323" 
d="M1235 1464l36 -340h-12q-41 118 -132 203q-92 86 -232 86h-117v-1153q0 -129 29 -167q29 -37 150 -81v-12h-585v12q123 44 153 81t30 167v1153h-123q-140 0 -232 -86q-91 -85 -132 -203h-13l37 340h1143zM667 -63l-1 -2q49 0 84 -32t35 -90q0 -73 -53 -153
q-52 -79 -162 -124l-8 14q102 90 129 191q-8 -2 -22 -2q-48 0 -85 29q-36 28 -36 68q0 41 36 71t83 30z" />
    <glyph glyph-name="uni021B" unicode="&#x21b;" horiz-adv-x="647" 
d="M387 -16h1q-109 0 -181 69t-72 202v676h-104v24q212 154 274 279h21v-252h286l-6 -51h-278l-4 -647q0 -110 45 -159t114 -49q80 0 150 76l10 -11q-106 -157 -256 -157zM331 -70v-2q50 0 84 -31q35 -32 35 -91q0 -74 -54 -152t-163 -123l-8 14q102 90 129 191
q-10 -2 -15 -2q-55 0 -91 27t-36 68t36 71t83 30z" />
    <glyph glyph-name="uni0237" unicode="&#x237;" horiz-adv-x="503" 
d="M-27 -426l-7 12q107 56 150 139q44 85 44 241v707q0 97 -18 147t-42 68t-90 45v12q196 18 342 64v-940q0 -392 -379 -495z" />
    <glyph glyph-name="circumflex" unicode="&#x2c6;" horiz-adv-x="653" 
d="M92 1112l-11 12q85 118 243 357h10q119 -186 244 -357l-15 -12l-235 172z" />
    <glyph glyph-name="caron" unicode="&#x2c7;" horiz-adv-x="653" 
d="M92 1483l236 -173l235 172l15 -13q-118 -159 -244 -357h-10q-147 225 -244 358z" />
    <glyph glyph-name="breve" unicode="&#x2d8;" horiz-adv-x="643" 
d="M549 1454h17q-32 -326 -241 -326q-214 0 -246 326h18q22 -85 89 -135t140 -50q71 0 136 50q64 49 87 135z" />
    <glyph glyph-name="dotaccent" unicode="&#x2d9;" horiz-adv-x="405" 
d="M205 1169q-49 0 -87 36t-38 85q0 47 38 83t87 36t87 -36t38 -83q0 -49 -38 -85t-87 -36z" />
    <glyph glyph-name="ring" unicode="&#x2da;" horiz-adv-x="524" 
d="M264 1083l-1 -1q-76 0 -130 56t-54 135q0 77 54 132t130 55q77 0 131 -55t54 -132q0 -79 -54 -135q-54 -55 -130 -55zM269 1129l-1 1q54 0 87 45t33 100q0 59 -39 99q-39 41 -92 41q-52 0 -87 -41t-35 -98q0 -58 40 -102q40 -45 94 -45z" />
    <glyph glyph-name="ogonek" unicode="&#x2db;" horiz-adv-x="563" 
d="M238 -385l-1 -2q-71 0 -114 34q-44 35 -44 90q0 82 98 166q96 83 240 139v-14q-64 -39 -124 -110q-58 -68 -58 -132q0 -41 26 -62q25 -21 63 -21q86 0 150 66l12 -13q-39 -63 -107 -102q-67 -39 -141 -39z" />
    <glyph glyph-name="tilde" unicode="&#x2dc;" horiz-adv-x="739" 
d="M643 1384l22 -5q-33 -178 -181 -178q-47 0 -137 31q-103 35 -133 35q-68 0 -117 -60l-16 4q31 179 180 180q60 0 137 -31q87 -35 132 -35q66 0 113 59z" />
    <glyph glyph-name="hungarumlaut" unicode="&#x2dd;" horiz-adv-x="782" 
d="M100 1137h-20q14 74 55 327h219q-137 -187 -254 -327zM451 1137h-21q22 103 57 327h220q-134 -179 -256 -327z" />
    <glyph glyph-name="Wgrave" unicode="&#x1e80;" horiz-adv-x="2179" 
d="M1208 1571h-20q-112 127 -262 327h225q37 -231 57 -327zM1729 1464l441 -3v-12q-115 -52 -151 -99q-36 -46 -81 -171l-424 -1186h-49l-374 1048l-371 -1048h-49l-475 1309q-14 38 -25 55q-12 19 -49 42q-38 24 -108 51v12h586v-12q-101 -31 -139 -57q-37 -25 -37 -58
q0 -20 12 -53l338 -960l281 815l-60 168q-11 36 -23 54q-11 17 -48 41q-38 24 -111 51v12h582v-12q-93 -34 -129 -59q-34 -24 -34 -63q0 -33 29 -117l311 -890l293 860q33 99 32 132q0 45 -36 75t-132 63v12z" />
    <glyph glyph-name="wgrave" unicode="&#x1e81;" horiz-adv-x="1646" 
d="M893 1135h-21q-101 117 -260 327h224q38 -231 57 -327zM1294 981l347 -3v-12q-67 -39 -90 -54t-47 -44q-23 -27 -43 -78l-321 -797h-43l-273 655l-266 -655h-41l-350 835q-31 74 -165 138v12h498v-12q-77 -27 -106 -49q-30 -23 -30 -54q0 -24 16 -65q11 -31 233 -557
l185 469l-51 125q-18 48 -55 74q-36 26 -108 58v12h499v-12q-76 -22 -109 -44q-31 -21 -31 -56q0 -24 14 -60q6 -14 76 -182q36 -86 162 -382q201 521 213 552q14 36 14 59q0 35 -28 59q-30 25 -100 56v12z" />
    <glyph glyph-name="Wacute" unicode="&#x1e82;" horiz-adv-x="2179" 
d="M1315 1898h1q-138 -187 -260 -327h-21q23 109 57 327h223zM1730 1464l441 -3v-12q-115 -52 -151 -99q-36 -46 -81 -171l-424 -1186h-49l-374 1048l-371 -1048h-49l-475 1309q-14 38 -25 55q-12 19 -49 42q-37 24 -108 51v12h586v-12q-101 -31 -139 -57q-37 -25 -37 -58
q0 -20 12 -53l338 -960l281 815l-60 168q-11 36 -23 54q-11 17 -48 41t-111 51v12h582v-12q-93 -34 -129 -59q-34 -24 -34 -63q0 -33 29 -117l311 -890l293 860q33 99 32 132q0 45 -36 75t-132 63v12z" />
    <glyph glyph-name="wacute" unicode="&#x1e83;" horiz-adv-x="1646" 
d="M1051 1462h1q-146 -194 -261 -327h-21q20 96 57 327h224zM1295 981l347 -3v-12q-68 -39 -90 -54q-23 -15 -47 -44q-23 -27 -43 -78l-321 -797h-43l-273 655l-266 -655h-41l-350 835q-32 74 -165 138v12h498v-12q-77 -27 -106 -49q-30 -23 -30 -54q0 -24 16 -65
q11 -31 233 -557l185 469l-51 125q-18 48 -55 74q-36 26 -108 58v12h499v-12q-76 -22 -109 -44q-31 -21 -31 -56q0 -24 14 -60q6 -14 76 -182q36 -86 162 -382q201 521 213 552q14 36 14 59q0 35 -28 59q-30 25 -100 56v12z" />
    <glyph glyph-name="Wdieresis" unicode="&#x1e84;" horiz-adv-x="2179" 
d="M932 1561v-1q-50 0 -84 33t-34 83q0 47 34 81q35 35 84 35q46 0 81 -35t35 -81q0 -49 -35 -82t-81 -33zM1315 1560v-1q-47 0 -81 33q-35 33 -35 83q0 46 35 81t81 35q49 0 84 -35t35 -81q0 -49 -35 -82t-84 -33zM1729 1462l441 -3v-12q-115 -52 -151 -99
q-36 -46 -81 -171l-424 -1186h-49l-374 1048l-371 -1048h-49l-475 1309q-14 38 -25 55q-12 19 -49 42q-38 24 -108 51v12h586v-12q-101 -31 -139 -57q-37 -25 -37 -58q0 -20 12 -53l338 -960l281 815l-60 168q-11 36 -23 54q-11 17 -48 41q-38 24 -111 51v12h582v-12
q-93 -34 -129 -59q-34 -24 -34 -63q0 -33 29 -117l311 -890l293 860q33 99 32 132q0 45 -36 75t-132 63v12z" />
    <glyph glyph-name="wdieresis" unicode="&#x1e85;" horiz-adv-x="1646" 
d="M662 1174l-1 1q-46 0 -78 32t-32 78q0 47 33 80t78 33t78 -34t33 -79t-33 -78t-78 -33zM996 1175h-2q-44 0 -76 33q-31 32 -31 78t32 80q31 33 77 33q47 0 80 -33t33 -80q0 -45 -33 -78t-80 -33zM1291 982l347 -3v-12q-68 -39 -90 -54q-23 -15 -47 -44q-23 -27 -43 -78
l-321 -797h-43l-273 655l-266 -655h-41l-350 835q-32 73 -165 138v12h498v-12q-77 -27 -106 -49q-30 -22 -30 -54q0 -24 16 -65q11 -31 233 -557l185 469l-51 125q-18 48 -55 74q-36 26 -108 58v12h499v-12q-76 -22 -109 -44q-31 -21 -31 -56q0 -24 14 -60q6 -14 76 -182
q36 -86 162 -382q201 520 213 552q14 36 14 59q0 35 -28 59q-30 25 -100 56v12z" />
    <glyph glyph-name="uni1E8A" unicode="&#x1e8a;" horiz-adv-x="1462" 
d="M754 1561l-1 -1q-46 0 -81 35t-35 81t35 81t81 35q50 0 83 -35t33 -81t-33 -81q-33 -34 -82 -34zM1211 192l-2 -1q28 -42 50 -72q16 -21 63 -55q45 -32 117 -55v-12h-617v12q78 26 114 52q37 27 37 64q0 33 -31 82l-285 448l-284 -411q-49 -70 -49 -121q0 -76 131 -114
v-12h-428v12q142 56 272 234l330 459l-365 567q-33 49 -54 75q-23 27 -64 56q-44 31 -107 50v12h612v-12q-82 -27 -118 -51t-36 -59q0 -32 32 -84l258 -405l261 377q38 52 36 93q0 80 -124 129v12h421v-12q-146 -58 -268 -228l-297 -416z" />
    <glyph glyph-name="uni1E8B" unicode="&#x1e8b;" horiz-adv-x="1075" 
d="M545 1167h2q-49 0 -87 36t-38 85q0 47 38 83t87 36q47 0 84 -37q38 -38 38 -82q0 -49 -37 -85q-38 -36 -87 -36zM913 125v1q45 -67 150 -113v-12h-520v12q145 39 145 84q0 11 -20 45l-193 287l-201 -266q-20 -28 -20 -51q0 -56 123 -99v-12h-357v12q122 53 195 150
l236 305l-271 389q-62 91 -151 113v12h518v-12q-146 -34 -148 -80q0 -19 37 -74l164 -242l180 248q23 35 23 51q0 47 -123 96v12h352v-12q-121 -51 -196 -154l-209 -280z" />
    <glyph glyph-name="Ygrave" unicode="&#x1ef2;" horiz-adv-x="1411" 
d="M846 1571h-20q-112 127 -262 327h225q37 -231 57 -327zM998 1464h403v-12q-58 -22 -106 -63q-47 -39 -70 -72q-23 -31 -60 -93l-340 -561v-404q0 -129 30 -167t153 -81v-12h-586v12q123 43 153 81t30 167v389l-405 662q-33 51 -64 77q-35 28 -121 65v12h586v-12
q-91 -42 -120 -61q-31 -21 -31 -49t45 -102l309 -510l295 496q35 59 35 99q0 76 -136 127v12z" />
    <glyph glyph-name="ygrave" unicode="&#x1ef3;" horiz-adv-x="1079" 
d="M631 1135h-20q-101 117 -260 327h223q38 -231 57 -327zM720 981l355 -4v-12q-87 -40 -121 -80t-62 -115q-210 -552 -254 -660q-34 -86 -84 -180q-52 -106 -81 -153q-30 -48 -78 -104q-50 -57 -122 -104l-118 156l4 12q101 0 199 46q99 47 150 150l2 9q3 5 12 23
q4 8 18 38l-367 821q-44 102 -166 144v12h512v-12q-71 -28 -102 -53q-30 -24 -30 -57q0 -26 19 -67l235 -545q116 276 204 538q10 33 10 56q0 76 -135 129v12z" />
    <glyph glyph-name="endash" unicode="&#x2013;" horiz-adv-x="978" 
d="M903 557v-51h-823v51h823z" />
    <glyph glyph-name="emdash" unicode="&#x2014;" horiz-adv-x="1802" 
d="M1726 557v-51h-1646v51h1646z" />
    <glyph glyph-name="quoteleft" unicode="&#x2018;" horiz-adv-x="344" 
d="M172 1245h1q47 0 81 -33q35 -33 35 -78q0 -47 -34 -80q-35 -33 -81 -33q-47 0 -81 37t-34 106q0 84 51 177t158 146l6 -14q-96 -112 -120 -230q8 2 18 2z" />
    <glyph glyph-name="quoteright" unicode="&#x2019;" horiz-adv-x="344" 
d="M174 1489v-1q46 0 81 -36q34 -35 34 -105q0 -85 -51 -177t-157 -147l-6 14q94 106 121 231h-19q-49 0 -84 32q-34 31 -34 78q0 45 34 78q35 33 81 33z" />
    <glyph glyph-name="quotesinglbase" unicode="&#x201a;" horiz-adv-x="462" 
d="M233 242l-3 2q51 0 88 -40t37 -118q0 -93 -56 -196q-55 -102 -173 -165l-8 16q110 118 139 261q-10 -2 -15 -2q-58 0 -96 35t-38 86q0 49 38 85t87 36z" />
    <glyph glyph-name="quotedblleft" unicode="&#x201c;" horiz-adv-x="653" 
d="M172 1245h1q47 0 81 -33q35 -33 35 -78q0 -47 -34 -80q-35 -33 -81 -33q-47 0 -81 37t-34 106q0 84 51 177t158 146l6 -14q-96 -112 -120 -230q8 2 18 2zM482 1245l-2 1q50 0 84 -31t34 -79t-34 -81t-81 -33t-80 37t-33 106q0 84 51 177t158 146l8 -14
q-101 -116 -123 -231q8 2 18 2z" />
    <glyph glyph-name="quotedblright" unicode="&#x201d;" horiz-adv-x="653" 
d="M174 1489v-1q46 0 81 -36q34 -35 34 -105q0 -85 -51 -177t-157 -147l-6 14q94 106 121 231h-19q-49 0 -84 32q-34 31 -34 78q0 45 34 78q35 33 81 33zM483 1488v-1q47 0 81 -36q34 -35 34 -105q0 -86 -51 -177t-158 -147l-6 14q94 106 121 231h-19q-48 0 -82 32
q-33 31 -33 78q0 45 33 78t80 33z" />
    <glyph glyph-name="quotedblbase" unicode="&#x201e;" horiz-adv-x="790" 
d="M233 242l-3 2q51 0 88 -40t37 -118q0 -93 -56 -196q-55 -102 -173 -165l-8 16q110 118 139 261q-10 -2 -15 -2q-58 0 -96 35t-38 86q0 49 38 85t87 36zM558 244l-2 1q51 0 88 -40t37 -118q0 -94 -57 -196t-172 -165l-6 16q110 122 138 262q-8 -2 -23 -2q-52 0 -90 35
t-38 86q0 49 38 85q37 36 87 36z" />
    <glyph glyph-name="dagger" unicode="&#x2020;" horiz-adv-x="802" 
d="M670 1204v-43h-246v-575h-41v575h-246v43h246v260h41v-260h246z" />
    <glyph glyph-name="daggerdbl" unicode="&#x2021;" horiz-adv-x="802" 
d="M670 1161h-246v-237h246v-43h-246v-295h-41v295h-246v43h246v237h-246v43h246v260h41v-260h246v-43z" />
    <glyph glyph-name="bullet" unicode="&#x2022;" horiz-adv-x="741" 
d="M372 315q-113 0 -199 86q-85 85 -85 198q0 112 86 198q85 85 198 85t198 -85q86 -86 86 -198q0 -113 -85 -198q-86 -86 -199 -86z" />
    <glyph glyph-name="ellipsis" unicode="&#x2026;" horiz-adv-x="1339" 
d="M238 -12l-1 -1q-52 0 -90 38t-38 89q0 52 39 89q40 38 90 38q51 0 89 -38t38 -89t-38 -89q-37 -37 -89 -37zM671 -13q-53 0 -90 36t-37 90q0 51 38 89t89 38t89 -38t38 -89t-38 -89q-37 -37 -89 -37zM1105 -13q-51 0 -89 38t-38 89t38 89t89 38t89 -38t38 -89
q0 -53 -37 -90t-90 -37z" />
    <glyph glyph-name="perthousand" unicode="&#x2030;" horiz-adv-x="2703" 
d="M438 -27l-39 23l998 1503l37 -29zM438 545l-1 -2q-172 0 -276 134q-103 133 -103 318t104 327q104 141 279 141q173 0 275 -135t102 -319q0 -186 -103 -325t-277 -139zM460 578h-3q88 0 148 93t60 269q0 188 -66 338t-183 150q-91 0 -148 -99t-57 -265q0 -117 27 -225
q27 -110 85 -185q58 -76 137 -76zM1395 909l-2 1q174 0 276 -133t102 -319q0 -187 -102 -328t-276 -141q-176 0 -278 134q-102 133 -102 320q0 186 104 326t278 140zM2263 910l-2 1q174 0 276 -133q102 -134 102 -319q0 -187 -102 -328t-276 -141q-176 0 -278 134t-102 320
t104 326t278 140zM1368 874l-2 -2q-88 0 -147 -93q-58 -92 -58 -265q0 -119 27 -227q27 -110 85 -185q58 -76 136 -76q88 0 148 93t60 267q0 188 -66 338t-183 150zM2235 872q-85 0 -145 -93t-60 -265q0 -190 66 -340t182 -150q88 0 147 93q59 94 59 267q0 188 -66 338
t-183 150z" />
    <glyph glyph-name="guilsinglleft" unicode="&#x2039;" horiz-adv-x="663" 
d="M580 922h1q-125 -202 -289 -410q165 -207 288 -412h-33q-199 194 -459 402v20q260 208 459 400h33z" />
    <glyph glyph-name="guilsinglright" unicode="&#x203a;" horiz-adv-x="663" 
d="M88 922h33q220 -208 459 -400v-20q-244 -195 -459 -402h-33q128 209 291 412q-165 205 -291 410z" />
    <glyph glyph-name="fraction" unicode="&#x2044;" horiz-adv-x="391" 
d="M-291 0l1010 1464h49l-1008 -1464h-51z" />
    <glyph glyph-name="Euro" unicode="&#x20ac;" horiz-adv-x="1460" 
d="M897 27l1 -2q112 0 224 103q112 104 198 246h12l-37 -324q-200 -76 -407 -76q-263 0 -436 179q-172 179 -192 495h-197v45h195v21q0 92 14 168h-209v45h218q53 245 219 390q167 146 387 146q176 0 407 -75l37 -324h-12q-86 146 -199 249q-115 104 -235 104
q-131 0 -237 -130q-106 -131 -138 -360h596l-6 -45h-596q-8 -70 -8 -160v-29h548l-8 -45h-538q13 -290 134 -456q120 -165 265 -165z" />
    <glyph glyph-name="trademark" unicode="&#x2122;" horiz-adv-x="1648" 
d="M651 1464l17 -192h-6q-58 160 -180 160h-53v-572q0 -62 12 -82q12 -19 71 -42v-6h-301v6q57 22 72 44q15 21 15 82v572h-55q-67 0 -113 -49t-69 -111h-6l19 190h577zM1595 1454l-1 -2q-59 -23 -71 -42q-12 -20 -12 -78v-473q0 -63 12 -81q11 -17 71 -43v-6h-299v6
q58 25 72 47t14 78v488h-2q-219 -418 -256 -494h-16q-144 282 -270 485v-405q0 -105 16 -138q16 -34 87 -61v-6h-233v6q72 27 87 62t15 137v444q-28 44 -99 76v8h213q123 -210 240 -446l242 446h190v-8z" />
    <glyph glyph-name="oneeighth" unicode="&#x215b;" horiz-adv-x="1597" 
d="M63 610v8q67 27 84 51q17 25 17 98v516q0 45 -24 66q-25 22 -94 44v6l270 96v-729q0 -73 15 -97t87 -51v-8h-355zM203 0l1009 1464h50l-1008 -1464h-51zM1231 -14h-2q-121 0 -205 63t-84 167q0 84 54 141t138 81q-158 86 -158 224q0 97 77 156t183 59q104 0 177 -54
t73 -134q0 -71 -57 -123q-57 -53 -118 -72q39 -20 66 -36q29 -18 65 -48q39 -33 59 -76q21 -45 21 -101q0 -111 -83 -179t-206 -68zM1288 508l-1 2q90 74 90 177q0 74 -40 117q-41 44 -103 44q-59 0 -96 -40q-38 -41 -38 -99q0 -61 45 -105q44 -43 143 -96zM1230 18h-2
q70 0 114 45q43 44 43 115q0 74 -57 131q-56 56 -176 120q-100 -63 -100 -205q0 -96 49 -151t129 -55z" />
    <glyph glyph-name="threeeighths" unicode="&#x215c;" horiz-adv-x="1716" 
d="M47 1311h1q130 178 297 178q85 0 141 -47t56 -120q0 -136 -209 -216v-2q12 4 33 4q107 0 170 -63t63 -168q0 -129 -92 -204q-91 -75 -215 -75q-116 0 -252 53l65 152l9 -2q80 -170 189 -170q63 0 108 60t45 150q0 92 -46 147q-47 56 -124 56q-49 0 -109 -24l-8 22
q236 111 236 244q0 117 -132 117q-119 0 -210 -105zM323 0l1009 1464h49l-1007 -1464h-51zM1351 -14h-2q-121 0 -205 63t-84 167q0 83 53 141q52 57 137 81q-158 86 -156 224q0 97 77 156t183 59q104 0 177 -54t73 -134q0 -71 -57 -123q-57 -53 -118 -72q39 -20 66 -36
q25 -15 64 -48q37 -31 58 -76t21 -101q0 -112 -82 -179q-83 -68 -205 -68zM1408 508l-1 2q90 74 90 177q0 74 -40 117q-41 44 -103 44q-59 0 -96 -40q-38 -41 -38 -99q0 -61 45 -105q44 -43 143 -96zM1350 18q71 0 113 45t42 115q0 74 -57 131q-56 56 -176 120
q-100 -63 -100 -205q0 -96 49 -151t129 -55z" />
    <glyph glyph-name="fiveeighths" unicode="&#x215d;" horiz-adv-x="1732" 
d="M301 1145h-3q124 0 207 -72q82 -72 82 -194q0 -133 -94 -208q-95 -75 -214 -75q-110 0 -244 55l59 174h8q38 -101 84 -151t99 -49q61 0 112 60t51 167t-54 161t-138 54q-94 0 -183 -51l110 459h267q62 0 90 15t66 62l6 -2l-73 -209h-353l-51 -225q72 29 166 29zM335 0
l1010 1464h49l-1008 -1464h-51zM1363 -14h-2q-121 0 -205 63t-84 167q0 84 54 141t138 81q-158 86 -158 224q0 97 77 156t183 59q104 0 177 -54t73 -134q0 -71 -57 -123q-57 -53 -118 -72q39 -20 66 -36q29 -18 65 -48q39 -33 59 -76q21 -45 21 -101q0 -111 -83 -179
t-206 -68zM1420 508v2q89 73 91 177q0 74 -40 117q-41 44 -105 44q-59 0 -96 -40q-38 -41 -38 -99q0 -61 45 -105q44 -43 143 -96zM1363 18h-2q71 0 114 45q43 44 43 115q0 74 -57 131q-56 56 -176 120q-100 -63 -100 -205q0 -96 49 -151t129 -55z" />
    <glyph glyph-name="seveneighths" unicode="&#x215e;" horiz-adv-x="1583" 
d="M137 610l-1 -1q74 375 348 717h-286q-73 0 -104 -19q-32 -19 -69 -78l-9 2l68 244h526v-25q-160 -186 -229 -378q-68 -188 -100 -462h-144zM189 -1l1010 1464h49l-1007 -1464h-52zM1216 -15h-3q-121 0 -205 63t-84 167q0 83 53 141q52 57 137 81q-158 86 -156 224
q0 97 77 156t183 59q104 0 176 -54t72 -134q0 -70 -56 -123t-117 -72q39 -19 66 -36q29 -18 65 -48q37 -31 58 -76t21 -101q0 -112 -82 -179q-83 -68 -205 -68zM1272 507l1 2q90 73 90 177q0 74 -40 117q-41 44 -103 44q-58 0 -97 -40q-39 -41 -39 -99q0 -62 45 -105
q44 -43 143 -96zM1216 17h1q71 0 113 45t42 115q0 74 -57 131q-56 56 -176 120q-101 -63 -102 -205q0 -95 50 -151q49 -55 129 -55z" />
    <glyph glyph-name="arrowleft" unicode="&#x2190;" horiz-adv-x="1185" 
d="M1122 559v-52h-913q144 -65 270 -167q125 -101 170 -186l-209 -52q-88 226 -372 432q285 202 372 432l209 -52q-45 -89 -169 -189t-271 -166h913z" />
    <glyph glyph-name="arrowup" unicode="&#x2191;" horiz-adv-x="995" 
d="M500 1059l1 -3q203 -280 432 -372l-51 -209q-89 45 -189 169q-99 123 -166 273v-914h-53v914q-66 -147 -166 -271t-189 -169l-51 209q233 95 432 373z" />
    <glyph glyph-name="arrowright" unicode="&#x2192;" horiz-adv-x="1185" 
d="M750 965v-1q92 -232 372 -432q-280 -202 -372 -432l-209 52q45 85 170 186q126 102 270 167h-913v53h913q-147 66 -271 166t-169 189z" />
    <glyph glyph-name="arrowdown" unicode="&#x2193;" horiz-adv-x="995" 
d="M881 586l50 -209q-230 -90 -432 -373q-199 283 -432 373l51 209q89 -45 189 -169q101 -125 165 -273v914h53v-914q66 147 167 272t189 170z" />
    <glyph glyph-name="uni2196" unicode="&#x2196;" horiz-adv-x="937" 
d="M874 180l-37 -38l-646 645q80 -208 80 -409q0 -92 -18 -152l-184 111q63 143 63 330q0 104 -22 240q126 -20 233 -20q191 0 336 63l113 -184q-62 -18 -153 -18q-206 0 -412 79z" />
    <glyph glyph-name="uni2197" unicode="&#x2197;" horiz-adv-x="937" 
d="M834 911l1 -1q-23 -143 -23 -240q0 -186 63 -330l-184 -113q-18 61 -18 153q0 204 80 411l-646 -646l-38 39l645 645q-206 -79 -411 -78q-89 0 -151 18l112 184q142 -63 330 -63q100 -2 240 21z" />
    <glyph glyph-name="uni2198" unicode="&#x2198;" horiz-adv-x="937" 
d="M874 723h-1q-63 -145 -63 -334q0 -110 20 -233q-126 20 -233 20q-187 0 -333 -63l-112 184q58 18 150 18q207 0 411 -79l-645 645l36 39l648 -648q-80 208 -80 412q0 90 18 152z" />
    <glyph glyph-name="uni2199" unicode="&#x2199;" horiz-adv-x="937" 
d="M227 250l1 -1q208 80 412 80q92 0 152 -19l-113 -184q-145 63 -336 63q-108 0 -233 -20q22 139 21 240q0 185 -63 330l184 111q18 -58 18 -152q0 -204 -80 -409l646 645l38 -37z" />
    <glyph glyph-name="minus" unicode="&#x2212;" horiz-adv-x="800" 
d="M766 709v-50h-727v50h727z" />
    <glyph glyph-name="glyph1" horiz-adv-x="0" 
 />
    <glyph glyph-name="glyph2" horiz-adv-x="681" 
 />
    <glyph glyph-name="J.aalt" horiz-adv-x="647" 
d="M252 1571h-20q22 109 57 327h223q-138 -187 -260 -327zM46 -270l-5 21q174 101 174 303v1149q0 129 -30 167t-153 81v12h585v-12q-122 -43 -151 -81q-28 -37 -28 -167v-1014q0 -107 -33 -189q-33 -83 -96 -134t-123 -81q-56 -28 -140 -55z" />
    <glyph glyph-name="R.aalt" horiz-adv-x="1380" 
d="M1190 176l-3 1q62 -87 168 -164v-12h-309q-259 372 -477 721l-129 -4v-457q0 -91 15 -132t48 -62q32 -20 121 -52v-12h-588v12q86 30 121 53q33 21 47 62q14 42 14 132v944q0 90 -14 132q-14 41 -47 62q-35 23 -121 53v12h600q254 0 393 -99t139 -255q0 -160 -137 -270
q-136 -109 -339 -109h-59v-6q73 -49 168 -49q21 0 54 4q78 -130 181 -283q109 -163 154 -222zM441 1414v-643h187q138 0 227 82q90 83 90 249q0 162 -89 237t-245 75h-170z" />
    <glyph glyph-name="i.aalt" horiz-adv-x="534" 
d="M244 1169h2q-50 0 -87 36q-38 36 -38 85q0 47 38 83q37 36 87 36q47 0 84 -37q38 -38 38 -82q0 -49 -37 -85t-87 -36zM27 0l-3 11q96 37 123 75q27 37 27 155v432q0 77 -6 120q-6 44 -30 71q-25 28 -43 38q-19 10 -72 33v12q193 17 345 64v-768q0 -119 27 -156t123 -75
v-12h-491z" />
    <glyph glyph-name="j.aalt" horiz-adv-x="503" 
d="M190 1137h-20q20 96 57 327h224q-145 -192 -261 -327zM-27 -426l-7 12q107 56 150 139q44 85 44 241v707q0 97 -18 147t-42 68t-90 45v12q196 18 342 64v-940q0 -392 -379 -495z" />
    <glyph glyph-name="glyph372" horiz-adv-x="1439" 
d="M922 -25v1q-162 0 -342 72l55 268h10q56 -118 133 -204q78 -87 166 -87q89 0 159 85q71 86 71 214q0 180 -141 291q-142 112 -330 152l-45 72l367 473q-123 127 -297 127q-133 0 -208 -86q-75 -85 -75 -213v-1139h-405v12q86 30 121 53q33 21 47 62q14 42 14 132v791
q0 221 128 329t356 108q169 0 294 -52q127 -53 198 -121v-21l-321 -395q200 -50 343 -178q144 -129 144 -336q0 -191 -124 -300q-125 -110 -318 -110z" />
    <glyph glyph-name="a.salt" horiz-adv-x="1126" 
d="M446 -20l-1 1q-163 0 -277 139q-114 140 -114 360q0 224 119 376q118 151 294 151q83 0 153 -37q72 -38 119 -75t75 -37q53 0 117 148h26v-820q0 -63 27 -87q26 -23 121 -52v-12l-336 -60v193h-2q-55 -84 -139 -136q-83 -52 -182 -52zM517 56l2 2q127 0 249 158v422
q-45 132 -121 225q-76 94 -177 94q-110 0 -162 -117q-52 -116 -52 -289q0 -213 72 -354t189 -141z" />
    <glyph glyph-name="glyph374" horiz-adv-x="1126" 
d="M535 1135h-20q19 96 57 327h224q-146 -192 -261 -327zM447 -20l-1 1q-163 0 -277 139q-114 140 -114 360q0 224 119 376q118 151 294 151q83 0 153 -37q72 -38 119 -75t75 -37q53 0 117 148h26v-820q0 -63 27 -87q26 -23 121 -52v-12l-336 -60v193h-2q-55 -84 -139 -136
q-83 -52 -182 -52zM518 56l2 2q127 0 249 158v422q-45 132 -121 225q-76 94 -177 94q-109 0 -162 -117q-52 -116 -52 -289q0 -213 72 -354t189 -141z" />
    <glyph glyph-name="glyph375" horiz-adv-x="1126" 
d="M799 1452h19q-32 -326 -243 -326q-213 0 -243 326h18q22 -86 87 -135q65 -50 138 -50q72 0 137 50q64 49 87 135zM447 -20l-1 1q-163 0 -277 139q-114 140 -114 360q0 224 119 376q118 151 294 151q83 0 153 -37q72 -38 119 -75t75 -37q53 0 117 148h26v-820
q0 -63 27 -87q26 -23 121 -52v-12l-336 -60v193h-2q-55 -84 -139 -136q-83 -52 -182 -52zM518 56l2 2q127 0 249 158v422q-45 132 -121 225q-76 94 -177 94q-109 0 -162 -117q-52 -116 -52 -289q0 -213 72 -354t189 -141z" />
    <glyph glyph-name="glyph376" horiz-adv-x="1126" 
d="M338 1110l-12 12q86 118 243 357h11q122 -185 243 -357l-14 -12l-234 172zM446 -20l-1 1q-163 0 -277 139q-114 140 -114 360q0 224 119 376q118 151 294 151q83 0 153 -37q72 -38 119 -75t75 -37q53 0 117 148h26v-820q0 -63 27 -87q26 -23 121 -52v-12l-336 -60v193h-2
q-55 -84 -139 -136q-83 -52 -182 -52zM517 56l2 2q127 0 249 158v422q-45 132 -121 225q-76 94 -177 94q-110 0 -162 -117q-52 -116 -52 -289q0 -213 72 -354t189 -141z" />
    <glyph glyph-name="glyph377" horiz-adv-x="1126" 
d="M405 1174v1q-44 0 -78 32q-33 31 -33 78t33 80t78 33t78 -34t33 -79t-33 -78t-78 -33zM740 1175h-2q-44 0 -76 33q-31 32 -31 78t32 80q31 33 77 33q44 0 79 -33q34 -33 34 -80q0 -45 -33 -78t-80 -33zM443 -19l-1 1q-163 0 -277 139t-114 360q0 224 119 376
q118 151 294 151q83 0 153 -37q72 -38 119 -75t75 -37q53 0 117 148h26v-820q0 -63 27 -87q26 -23 121 -52v-12l-336 -60v193h-2q-55 -84 -139 -136q-83 -52 -182 -52zM514 57l2 2q127 0 249 158v422q-45 132 -121 225q-76 94 -177 94q-109 0 -162 -117q-52 -116 -52 -289
q0 -213 72 -354t189 -141z" />
    <glyph glyph-name="glyph378" horiz-adv-x="1126" 
d="M616 1135q-101 117 -260 327h224q38 -231 57 -327h-21zM446 -20l-1 1q-163 0 -277 139q-114 140 -114 360q0 224 119 376q118 151 294 151q83 0 153 -37q72 -38 119 -75t75 -37q53 0 117 148h26v-820q0 -63 27 -87q26 -23 121 -52v-12l-336 -60v193h-2q-55 -84 -139 -136
q-83 -52 -182 -52zM517 56l2 2q127 0 249 158v422q-45 132 -121 225q-76 94 -177 94q-110 0 -162 -117q-52 -116 -52 -289q0 -213 72 -354t189 -141z" />
    <glyph glyph-name="glyph379" horiz-adv-x="1126" 
d="M831 1333v-119h-501v119h501zM446 -20l-1 1q-163 0 -277 139q-114 140 -114 360q0 224 119 376q118 151 294 151q83 0 153 -37q72 -38 119 -75t75 -37q53 0 117 148h26v-820q0 -63 27 -87q26 -23 121 -52v-12l-336 -60v193h-2q-55 -84 -139 -136q-83 -52 -182 -52z
M517 56l2 2q127 0 249 158v422q-45 132 -121 225q-76 94 -177 94q-110 0 -162 -117q-52 -116 -52 -289q0 -213 72 -354t189 -141z" />
    <glyph glyph-name="glyph380" horiz-adv-x="1126" 
d="M899 -2l-2 -1q-131 -111 -131 -205q0 -41 26 -62t65 -21q83 0 153 66l12 -13q-39 -63 -108 -102t-142 -39q-71 0 -114 34q-44 35 -44 90q0 123 203 240l-47 -9v193h-2q-55 -84 -139 -136q-83 -52 -183 -52q-163 0 -277 139q-114 140 -114 360q0 224 119 376
q118 151 294 151q83 0 153 -37q72 -38 119 -75t75 -37q53 0 117 148h26v-820q0 -63 27 -87q26 -23 121 -52v-12zM764 212l2 424q-45 132 -121 225q-76 94 -177 94q-110 0 -162 -117q-52 -116 -52 -289q0 -213 72 -354t189 -141q127 0 249 158z" />
    <glyph glyph-name="glyph381" horiz-adv-x="1126" 
d="M577 1081v-2q-75 0 -129 56q-54 55 -54 135q0 76 54 132q54 55 129 55t129 -54t54 -132q0 -79 -54 -135q-54 -55 -129 -55zM581 1126h-2q55 0 89 45q35 46 35 102q0 57 -39 98t-93 41q-53 0 -88 -41q-34 -40 -34 -98q0 -57 39 -102t93 -45zM443 -22l-1 1q-163 0 -277 139
q-114 140 -114 360q0 224 119 376q118 151 294 151q83 0 153 -37q72 -38 119 -75t75 -37q53 0 117 148h26v-820q0 -63 27 -87q26 -23 121 -52v-12l-336 -60v193h-2q-55 -84 -139 -136q-83 -52 -182 -52zM514 54l2 2q127 0 249 158v422q-45 132 -121 225q-76 94 -177 94
q-109 0 -162 -117q-52 -116 -52 -289q0 -213 72 -354t189 -141z" />
    <glyph glyph-name="glyph382" horiz-adv-x="1126" 
d="M535 1511h-20q20 98 57 328h224q-142 -189 -261 -328zM578 1081v-2q-75 0 -129 56q-54 55 -54 135q0 76 54 132q54 55 129 55t129 -54t54 -132q0 -79 -54 -135q-54 -55 -129 -55zM582 1126h-2q54 0 89 45q35 46 35 102q0 57 -39 98t-93 41q-53 0 -88 -41q-34 -40 -34 -98
q0 -57 39 -102t93 -45zM444 -22l-1 1q-163 0 -277 139q-114 140 -114 360q0 224 119 376q118 151 294 151q83 0 153 -37q72 -38 119 -75t75 -37q53 0 117 148h26v-820q0 -63 27 -87q26 -23 121 -52v-12l-336 -60v193h-2q-55 -84 -139 -136q-83 -52 -182 -52zM515 54l2 2
q127 0 249 158v422q-45 132 -121 225q-76 94 -177 94q-110 0 -162 -117q-52 -116 -52 -289q0 -213 72 -354t189 -141z" />
    <glyph glyph-name="glyph383" horiz-adv-x="1126" 
d="M850 1382l16 -4q-31 -178 -178 -178q-54 0 -138 31q-103 35 -121 35q-36 0 -57 -7q-22 -7 -34 -18q-8 -7 -37 -36l-14 4q32 179 178 180q64 0 139 -31q85 -35 133 -35q62 0 113 59zM444 -20l-1 1q-163 0 -277 139q-114 140 -114 360q0 224 119 376q118 151 294 151
q83 0 153 -37q72 -38 119 -75t75 -37q53 0 117 148h26v-820q0 -63 27 -87q26 -23 121 -52v-12l-336 -60v193h-2q-55 -84 -139 -136q-83 -52 -182 -52zM515 56l2 2q127 0 249 158v422q-45 132 -121 225q-76 94 -177 94q-110 0 -162 -117q-52 -116 -52 -289q0 -213 72 -354
t189 -141z" />
    <glyph glyph-name="zero.zero" horiz-adv-x="1116" 
d="M559 1464l-3 -1q206 0 350 -210t144 -545q0 -330 -142 -532t-351 -202q-213 0 -354 208t-141 534q0 333 146 541q146 207 351 207zM550 1418l2 -1q-122 0 -207 -180q-85 -179 -85 -520q0 -151 21 -287q66 102 266 309q199 207 272 333q-38 170 -109 258q-72 88 -160 88z
M558 18h-1q125 0 210 180q85 179 85 520q0 164 -23 297q-73 -108 -271 -312q-200 -205 -267 -327q34 -175 107 -267q72 -91 160 -91z" />
    <glyph glyph-name="zero.superior" horiz-adv-x="757" 
d="M381 887l-3 -1q-128 0 -223 120q-94 119 -94 323t95 328q94 123 222 123t222 -124t94 -327q0 -201 -92 -322q-92 -120 -221 -120zM378 917q68 0 111 103q44 105 44 310q0 207 -45 312t-112 105q-70 0 -114 -105q-44 -106 -44 -310q0 -208 45 -312q45 -103 115 -103z" />
    <glyph glyph-name="one.superior" horiz-adv-x="440" 
d="M63 901v8q67 25 84 50t17 98v516q0 45 -24 66q-25 22 -94 44v7l270 96v-729q0 -73 15 -97t87 -51v-8h-355z" />
    <glyph glyph-name="two.superior" horiz-adv-x="608" 
d="M401 1034h-2q67 0 101 20q31 19 76 80l8 -3l-72 -229h-506v27q379 380 379 585q0 78 -41 122t-99 44q-103 0 -203 -114l-18 6q50 86 126 147q77 62 165 62q86 0 149 -60t63 -157q0 -108 -89 -226q-87 -115 -288 -304h251z" />
    <glyph glyph-name="three.superior" horiz-adv-x="661" 
d="M47 1602l1 -4q130 178 297 178q85 0 141 -47t56 -120q0 -140 -209 -217v-2q12 4 35 4q103 0 167 -61q65 -62 65 -168q0 -129 -93 -204t-218 -75q-105 0 -249 53l65 152l9 -2q80 -170 189 -170q63 0 108 60t45 150q0 93 -46 149q-47 57 -124 57q-49 0 -109 -24l-8 22
q236 111 236 244q0 117 -132 117q-119 0 -210 -105z" />
    <glyph glyph-name="four.superior" horiz-adv-x="702" 
d="M664 1157l-122 -1v-100q0 -74 16 -97q16 -24 87 -51v-8h-344v8q70 27 85 51t15 98v100h-372v21l483 600h31v-555h133zM105 1222h295v376z" />
    <glyph glyph-name="five.superior" horiz-adv-x="677" 
d="M301 1436v2q125 0 207 -72t82 -195q0 -133 -94 -208t-214 -75q-110 0 -244 55l59 174h8q77 -203 183 -203q59 0 110 62t51 168q0 107 -54 161t-138 54q-95 0 -183 -51l110 458h267q61 0 90 15t66 60l6 -2l-73 -207h-353l-51 -227q66 31 165 31z" />
    <glyph glyph-name="six.superior" horiz-adv-x="735" 
d="M414 1391l-1 4q103 0 180 -63t77 -172q0 -115 -86 -193t-216 -78q-127 0 -217 78t-90 245q0 214 150 366t366 198l4 -17q-147 -66 -244 -184t-124 -270q86 86 201 86zM370 917v-1q66 0 111 57t45 153q0 93 -43 152q-43 60 -126 60t-151 -71q0 -9 -0.5 -17t-1.5 -12v-4
q0 -152 45 -234q45 -83 121 -83z" />
    <glyph glyph-name="seven.superior" horiz-adv-x="624" 
d="M137 901v-1q73 375 348 717h-286q-71 0 -103 -19q-34 -20 -71 -78l-9 2l68 243h526v-24q-160 -190 -229 -382q-68 -190 -100 -458h-144z" />
    <glyph glyph-name="eight.superior" horiz-adv-x="706" 
d="M354 887l-1 -1q-121 0 -207 63q-85 63 -85 170q0 83 54 140t138 81q-160 85 -160 224q0 97 77 156t185 59q103 0 177 -54q73 -54 73 -134q0 -70 -56 -123q-55 -52 -117 -72q39 -20 66 -36q29 -18 65 -48q39 -33 59 -76q21 -45 21 -100q0 -111 -83 -180q-82 -69 -206 -69z
M413 1408l1 -1q90 77 90 183q0 71 -40 114q-41 44 -105 44q-59 0 -98 -40t-39 -99q0 -61 45 -105q44 -43 146 -96zM354 916h-1q71 0 114 45q44 46 44 114q0 74 -57 131q-58 58 -178 120q-100 -67 -100 -204q0 -94 50 -150t128 -56z" />
    <glyph glyph-name="nine.superior" horiz-adv-x="679" 
d="M340 1780l1 2q127 0 216 -80t89 -246q0 -213 -148 -364q-149 -152 -367 -201l-2 16q146 67 243 185q96 117 123 267q-85 -82 -201 -82q-104 0 -180 63t-76 171q0 115 86 192t216 77zM347 1333h1q88 0 154 70q2 26 2 59q0 130 -46 210q-46 81 -123 81q-63 0 -109 -57
q-46 -56 -46 -151q0 -91 44 -152q44 -60 123 -60z" />
    <glyph glyph-name="zero.superior.zero" horiz-adv-x="702" 
d="M352 1780l1 -1q128 0 221 -124q93 -125 93 -327t-93 -322t-222 -120t-222 120t-93 325q0 203 93 326t222 123zM349 1746h-2q-67 0 -111 -105q-43 -104 -43 -310q0 -77 6 -139q33 44 143 159q109 114 152 183q-18 104 -57 158t-88 54zM351 917l-1 1q70 0 114 104
q44 105 44 317q0 82 -8 146q-37 -49 -147 -163q-109 -114 -149 -180q38 -225 147 -225z" />
    <glyph glyph-name="zero.oldstyle" horiz-adv-x="1122" 
d="M563 -25l1 -2q-224 0 -366 147q-142 146 -142 362q0 214 144 369q144 154 367 154q219 0 360 -154q141 -155 141 -369q0 -213 -141 -360t-364 -147zM564 16l-1 -2q179 0 315 123q137 123 137 342q0 223 -135 352t-315 129q-181 0 -318 -128t-137 -351q0 -219 137 -342
t317 -123z" />
    <glyph glyph-name="one.oldstyle" horiz-adv-x="561" 
d="M393 242h-3q0 -118 27 -155q27 -38 124 -75v-12h-477v12q96 38 123 75t27 155v479q0 83 -31 108q-32 26 -142 39l-2 15l354 127v-768z" />
    <glyph glyph-name="two.oldstyle" horiz-adv-x="919" 
d="M602 162l-2 -3q80 0 128 18q49 18 71 42q25 26 68 87l13 -2l-50 -186l-30 -119h-754v43q286 219 420 372q133 152 133 282q0 90 -58 141q-59 51 -148 51q-67 0 -129 -36q-60 -35 -141 -116l-31 8q160 260 384 261q128 0 213 -73q86 -74 86 -183q0 -117 -120 -256
t-403 -331h350z" />
    <glyph glyph-name="three.oldstyle" horiz-adv-x="935" 
d="M55 743v-7q201 262 443 264q130 0 218 -74q87 -74 87 -191q0 -209 -309 -330v-2q27 6 61 6q130 0 234 -94q105 -95 105 -264q0 -197 -142 -315t-327 -118q-90 0 -204 27q-117 28 -185 58l92 184l10 -2q139 -223 312 -223q112 0 189 98t77 243q0 142 -76 230
q-77 89 -204 89q-85 0 -176 -39l-10 28q381 181 381 396q0 184 -217 184q-184 0 -340 -162z" />
    <glyph glyph-name="four.oldstyle" horiz-adv-x="1077" 
d="M1016 43l-203 1v-156q0 -115 26 -153q25 -37 149 -78v-12h-518v12q118 41 146 75q29 35 29 155v156h-598v37l717 921h51v-858h219zM148 144h495v639z" />
    <glyph glyph-name="five.oldstyle" horiz-adv-x="960" 
d="M446 471v-2q185 0 310 -112q126 -113 126 -297q0 -196 -141 -319t-331 -123q-175 0 -375 88l92 209h10q117 -258 279 -258q109 0 198 98t89 273q0 168 -87 253q-86 85 -220 85q-155 0 -303 -82l166 696h395q104 0 149 27q44 27 102 107l13 -4l-113 -301h-535l-90 -389
q110 51 266 51z" />
    <glyph glyph-name="six.oldstyle" horiz-adv-x="1079" 
d="M600 815l-3 -3q173 0 298 -108q124 -108 124 -283q0 -181 -135 -315q-134 -133 -342 -133q-84 0 -165 26q-79 25 -156 81q-76 55 -123 167q-46 110 -46 263q0 178 66 337q66 158 179 276q113 117 257 203q145 86 310 135l6 -28q-248 -119 -414 -321t-207 -453
q145 156 351 156zM550 11v1q118 0 200 96q83 97 83 266q0 156 -75 257t-222 101q-173 0 -297 -139q-4 -51 -4 -92q0 -211 87 -351q87 -139 228 -139z" />
    <glyph glyph-name="seven.oldstyle" horiz-adv-x="940" 
d="M219 -358v-1q118 604 555 1153h-457q-113 0 -165 -30t-117 -138l-12 4l100 350h811v-31q-248 -305 -363 -603t-165 -704h-187z" />
    <glyph glyph-name="eight.oldstyle" horiz-adv-x="1015" 
d="M510 -25l-2 -2q-186 0 -321 105t-135 279q0 141 88 236q89 97 231 143q-265 129 -267 350q0 160 123 255q124 95 283 95t275 -88q117 -88 117 -219q0 -116 -91 -207q-91 -92 -195 -129q66 -33 110 -60q47 -29 106 -79q60 -51 93 -121q33 -71 33 -156q0 -168 -124 -285
t-324 -117zM586 807v-1q170 128 170 312q0 122 -70 198t-178 76q-104 0 -171 -70t-67 -175t73 -175t243 -165zM510 15h1q125 0 203 82q78 83 78 205q0 129 -99 225q-98 95 -292 190q-84 -45 -138 -136t-54 -222q0 -155 85 -249q86 -95 216 -95z" />
    <glyph glyph-name="nine.oldstyle" horiz-adv-x="1028" 
d="M508 1006l-2 -2q80 0 155 -24t149 -77q73 -52 117 -155t44 -243q0 -167 -63 -316t-171 -258q-107 -108 -243 -187q-133 -77 -288 -121l-6 27q236 110 393 297t195 422q-134 -143 -333 -144q-169 0 -285 104q-115 103 -115 261q0 168 129 292q128 124 324 124zM514 297h-1
q164 0 281 127q4 47 4 81q0 200 -83 331q-82 130 -216 130q-111 0 -191 -89t-80 -246q0 -146 73 -240t213 -94z" />
    <glyph glyph-name="zero.tnum" 
d="M536 -25l2 -1q-201 0 -342 204t-141 536q0 334 141 543t338 209q199 0 340 -211q141 -212 141 -544t-139 -534t-340 -202zM538 19l-1 -2q119 0 200 179q81 178 81 519q0 340 -83 523q-82 181 -201 181q-118 0 -199 -180t-81 -520q0 -339 83 -520q83 -180 201 -180z" />
    <glyph glyph-name="one.tnum" 
d="M287 0l-1 12q129 45 156 85t27 163v893q0 73 -42 108t-169 66v10l401 140v-1217q0 -122 27 -163q27 -40 156 -85v-12h-555z" />
    <glyph glyph-name="two.tnum" 
d="M678 182l-5 -3q121 0 177 35q55 34 129 143l10 -4l-110 -356h-830v41q655 650 657 1002q0 130 -70 206q-71 77 -172 77q-88 0 -184 -57q-94 -56 -169 -149l-27 12q78 142 204 239q127 98 263 98q140 0 240 -97q101 -98 101 -258q0 -175 -147 -386q-146 -210 -491 -543
h424z" />
    <glyph glyph-name="three.tnum" 
d="M104 1186l-3 -2q217 280 469 279q137 0 228 -79q92 -80 92 -204q0 -220 -324 -357v-2q32 6 64 6q136 0 245 -102q110 -102 110 -285q0 -212 -148 -339q-149 -128 -340 -128q-92 0 -211 28q-122 29 -201 63l96 196l13 -4q143 -236 323 -234q121 0 202 105t81 259t-81 249
q-81 94 -212 94q-87 0 -183 -43l-13 33q401 197 402 426q0 199 -228 198q-193 0 -358 -174z" />
    <glyph glyph-name="four.tnum" 
d="M1036 428h-212v-168q0 -122 27 -163q27 -40 156 -85v-12h-547v12q129 45 156 85t27 163v168h-627v41l756 993h53v-927h232zM122 535h520v692z" />
    <glyph glyph-name="five.tnum" 
d="M506 893l-3 1q195 0 325 -123t130 -319q0 -211 -147 -343t-348 -132q-186 0 -396 97l96 221h12q121 -276 295 -277q113 0 206 105t93 294q0 182 -91 273q-92 92 -232 92q-86 0 -176 -30q-92 -31 -141 -61l176 750h414q115 0 162 29q47 28 108 114l10 -4l-118 -324h-564
l-94 -419q41 21 124 38q85 18 159 18z" />
    <glyph glyph-name="six.tnum" 
d="M598 817l-1 -4q180 0 300 -111t120 -281q0 -182 -136 -315t-340 -133q-83 0 -164 26q-78 25 -156 83q-77 57 -123 168q-46 110 -46 263q0 348 231 598q230 250 579 352l6 -28q-248 -119 -414 -321t-207 -455q143 158 351 158zM548 10h2q117 0 200 98t83 266
q0 156 -75 258t-222 102q-168 0 -297 -139q-4 -56 -6 -92q0 -211 87 -352t228 -141z" />
    <glyph glyph-name="seven.tnum" 
d="M262 0l-2 1q129 660 586 1241h-479q-119 0 -174 -31t-124 -147l-13 4l107 375h852v-33q-259 -330 -381 -651q-122 -323 -173 -759h-199z" />
    <glyph glyph-name="eight.tnum" 
d="M537 -25h3q-189 0 -328 107q-138 106 -138 285q0 145 92 243t231 144q-268 135 -268 358q0 162 125 258q124 96 288 96q163 0 279 -91q117 -91 117 -220q0 -115 -92 -210q-91 -94 -197 -135q67 -33 114 -62q45 -28 107 -81q63 -54 94 -124q32 -72 32 -156
q0 -175 -129 -293q-130 -119 -330 -119zM617 827l-2 -1q174 129 174 318q0 124 -70 201q-71 78 -180 78q-106 0 -175 -72t-69 -178t74 -178q73 -71 248 -168zM542 17l-1 1q125 0 203 84t78 209q0 131 -99 228q-99 98 -298 195q-84 -46 -138 -138t-54 -221q0 -160 87 -259
t222 -99z" />
    <glyph glyph-name="nine.tnum" 
d="M528 1466q86 0 164 -25t156 -83q76 -57 123 -168q46 -110 46 -262q0 -237 -116 -436t-294 -323q-180 -125 -399 -191l-8 29q249 116 413 319q166 205 209 454q-142 -154 -348 -153q-176 0 -300 108t-124 282q0 182 136 315q137 134 342 134zM537 705q170 0 294 139
q4 56 6 92q0 212 -87 351q-87 140 -227 140q-117 0 -201 -97q-84 -98 -84 -267q0 -157 76 -257q77 -101 223 -101z" />
    <glyph glyph-name="zero.tnum.zero" 
d="M911 1192l1 -2q103 -196 105 -479q0 -337 -139 -537q-140 -201 -342 -201q-205 0 -343 208q-138 209 -138 534q0 335 141 542t335 207q114 0 212 -70q99 -70 166 -199h4q0 -1 -2 -3zM533 1419l-1 -2q-117 0 -198 -180t-81 -516q0 -157 20 -297q67 104 258 300
q192 198 263 309q-35 188 -105 287q-71 99 -156 99zM537 16l-2 -2q119 0 200 180t81 516q0 146 -16 267q-68 -92 -259 -288q-194 -199 -258 -319q35 -174 102 -264t152 -90z" />
    <glyph glyph-name="zero.tnum.oldstyle" 
d="M538 -25l-1 -1q-221 0 -364 149t-143 360q0 214 143 369t365 155q219 0 360 -155q141 -154 141 -369q0 -211 -140 -360q-139 -148 -361 -148zM535 17q180 0 316 124t136 342q0 224 -135 353t-315 129q-181 0 -319 -129t-138 -353q0 -217 138 -342q137 -124 317 -124z" />
    <glyph glyph-name="one.tnum.oldstyle" 
d="M647 242h-2q0 -118 27 -155q27 -38 124 -75v-12h-478v12q96 38 123 75t27 155v481q0 83 -31 108q-32 26 -142 39l-2 15l354 127v-770z" />
    <glyph glyph-name="two.tnum.oldstyle" 
d="M678 162l3 -4q80 0 128 18t69 42q24 28 68 87l12 -2l-49 -186l-30 -119h-754v43q285 218 419 374q134 157 134 284q0 89 -60 140t-148 51q-66 0 -127 -36q-60 -35 -144 -116l-31 9q161 260 381 260q128 0 214 -73q87 -74 87 -183q0 -118 -121 -258q-121 -141 -403 -331
h352z" />
    <glyph glyph-name="three.tnum.oldstyle" 
d="M127 745l-3 -4q206 263 444 264q130 0 216 -74t86 -191q0 -212 -307 -333v-2q27 6 62 6q130 0 233 -94q104 -95 104 -264q0 -197 -141 -315q-140 -118 -325 -118q-90 0 -204 27q-117 28 -185 58l92 184l10 -2q52 -88 134 -156q80 -67 175 -67q113 0 191 96t78 243
q0 141 -75 230t-202 89q-84 0 -176 -39l-10 28q381 182 381 398q0 184 -218 184q-185 0 -340 -162z" />
    <glyph glyph-name="four.tnum.oldstyle" 
d="M1010 43h-201v-156q0 -115 24 -153q24 -37 149 -78v-12h-518v12q124 41 149 78q26 38 26 153v156h-596v37l717 924h49v-861h219zM143 143h496v641z" />
    <glyph glyph-name="five.tnum.oldstyle" 
d="M502 471h-3q187 0 312 -114q124 -114 124 -298q0 -197 -139 -318t-331 -121q-175 0 -373 88l90 209h13q115 -258 279 -258q110 0 198 96q89 97 89 273q0 170 -87 255q-86 85 -222 85q-150 0 -301 -82l165 698h394q100 0 147 24t108 108l10 -4l-113 -301h-532l-92 -391
q114 51 264 51z" />
    <glyph glyph-name="six.tnum.oldstyle" 
d="M598 817l-1 -4q180 0 300 -111t120 -281q0 -182 -136 -315t-340 -133q-83 0 -164 26q-78 25 -156 83q-77 57 -123 168q-46 110 -46 263q0 348 231 598q230 250 579 352l6 -28q-248 -119 -414 -321t-207 -455q143 158 351 158zM548 10h2q117 0 200 98t83 266
q0 156 -75 258t-222 102q-168 0 -297 -139q-4 -56 -6 -92q0 -211 87 -352t228 -141z" />
    <glyph glyph-name="seven.tnum.oldstyle" 
d="M276 -358l2 -1q123 612 558 1155h-457q-109 0 -162 -29t-123 -138l-12 4l100 350h809v-31q-245 -307 -361 -607t-165 -703h-189z" />
    <glyph glyph-name="eight.tnum.oldstyle" 
d="M539 -25l1 -3q-186 0 -321 105t-135 281q0 142 88 237q89 97 228 143q-264 130 -264 351q0 150 118 249q119 99 286 99q157 0 273 -88q117 -89 117 -217q0 -116 -90 -207q-91 -93 -193 -131q70 -35 111 -61q43 -27 105 -80q60 -51 92 -122q32 -72 32 -156
q0 -166 -126 -283t-322 -117zM615 808v-3q170 128 170 312q0 121 -69 198q-69 76 -177 76q-102 0 -170 -71t-68 -173q0 -103 72 -174q71 -70 242 -165zM542 12h-1q123 0 201 83t78 204q0 129 -97 225q-98 96 -292 192q-85 -47 -137 -138q-53 -92 -53 -222q0 -154 84 -249
t217 -95z" />
    <glyph glyph-name="nine.tnum.oldstyle" 
d="M528 1008l-3 1q79 0 156 -24t149 -78q73 -55 116 -157q44 -105 44 -244q0 -170 -64 -319q-64 -150 -174 -258q-111 -109 -243 -185q-133 -76 -285 -120l-8 27q238 109 397 298q158 188 196 423q-135 -146 -336 -147q-169 0 -284 104q-114 103 -114 261q0 170 129 294
q128 124 324 124zM534 300l-2 -1q160 0 282 129q4 47 4 84q0 200 -84 330t-217 130q-111 0 -190 -90q-79 -89 -79 -248q0 -143 73 -238q73 -96 213 -96z" />
    <glyph glyph-name="zero.inferior" horiz-adv-x="702" 
d="M352 -301h1q-129 0 -222 120t-93 324q0 203 93 326t222 123q128 0 221 -124t93 -327q0 -202 -93 -322t-222 -120zM353 -270h-1q74 0 116 110t42 303q0 208 -46 312q-46 105 -114 105q-70 0 -114 -105q-43 -104 -43 -312q0 -206 45 -310q45 -103 115 -103z" />
    <glyph glyph-name="one.inferior" horiz-adv-x="440" 
d="M63 -287v9q67 25 84 50t17 98v516q0 45 -24 66q-25 22 -94 44v6l270 96v-729q0 -73 15 -97t87 -51v-8h-355z" />
    <glyph glyph-name="two.inferior" horiz-adv-x="608" 
d="M401 -154h-2q67 0 101 20q31 19 76 80l8 -2l-72 -230h-506v27q379 379 379 586q0 78 -41 122t-99 44q-103 0 -203 -115l-18 6q50 86 126 147q77 62 165 62q86 0 149 -60t63 -157q0 -108 -89 -226q-87 -115 -288 -304h251z" />
    <glyph glyph-name="three.inferior" horiz-adv-x="632" 
d="M47 414v1q130 178 297 178q85 0 141 -47t56 -120q0 -140 -209 -217v-2q20 4 33 4q103 0 168 -61q66 -62 66 -168q0 -128 -92 -205q-91 -76 -216 -76q-114 0 -250 53l65 152l9 -2q80 -170 189 -170q63 0 108 60t45 150q0 92 -46 147q-47 56 -124 56q-49 0 -109 -24l-8 22
q236 111 236 244q0 117 -132 117q-115 0 -211 -105z" />
    <glyph glyph-name="four.inferior" horiz-adv-x="702" 
d="M664 -31l-122 -1v-100q0 -77 16 -99t87 -49v-8h-344v8q70 27 85 51t15 98v100h-372v21l483 600h31v-555h133zM105 34h295v377z" />
    <glyph glyph-name="five.inferior" horiz-adv-x="649" 
d="M301 248v-1q125 0 207 -72t82 -194q0 -133 -94 -208t-214 -75q-110 0 -244 55l59 174h8q77 -203 183 -201q59 0 110 61t51 168t-54 161t-138 54q-95 0 -183 -51l110 459h267q61 0 90 15t66 60l6 -2l-73 -207h-353l-51 -227q66 31 165 31z" />
    <glyph glyph-name="six.inferior" horiz-adv-x="735" 
d="M414 203v-1q104 0 180 -63q77 -63 77 -172q0 -115 -86 -192q-85 -76 -216 -76q-128 0 -217 79q-90 80 -90 246q0 214 149 366t366 198l4 -17q-147 -66 -244 -184t-124 -270q86 86 201 86zM371 -275q66 0 111 56q45 55 45 152q0 93 -43 152q-44 60 -126 60q-83 0 -151 -71
q0 -9 -0.5 -17t-0.5 -12l-1 -4q0 -151 45 -234q45 -82 121 -82z" />
    <glyph glyph-name="seven.inferior" horiz-adv-x="624" 
d="M137 -287q73 375 348 717h-286q-71 0 -103 -19q-34 -20 -71 -78l-9 2l68 244h526v-25q-160 -190 -229 -382q-68 -190 -100 -459h-144z" />
    <glyph glyph-name="eight.inferior" horiz-adv-x="651" 
d="M326 -301l-2 2q-121 0 -205 63t-84 167q0 83 53 141q53 57 137 83q-157 85 -156 222q0 97 77 156t183 59q103 0 177 -54q73 -54 73 -134q0 -70 -57 -123t-118 -72q39 -19 66 -36q25 -15 64 -48q36 -30 58 -77q21 -45 21 -100q0 -111 -82 -180q-83 -69 -205 -69zM383 223
l-1 2q90 73 90 177q0 74 -40 117q-41 44 -103 44q-59 0 -96 -40q-38 -41 -38 -99q0 -62 45 -105q44 -43 143 -96zM325 -266q71 0 113 45t42 114q0 74 -57 131q-56 56 -176 120q-100 -63 -100 -204q0 -96 49 -151t129 -55z" />
    <glyph glyph-name="nine.inferior" horiz-adv-x="679" 
d="M340 592h1q127 0 216 -80t89 -246q0 -213 -148 -364q-149 -152 -367 -201l-2 16q146 67 243 185q96 117 123 267q-85 -82 -201 -82q-104 0 -180 63t-76 173q0 115 86 192t216 77zM347 143l1 -2q88 0 154 70q2 26 2 59q0 130 -46 210q-46 81 -123 81q-62 0 -109 -56
q-46 -55 -46 -150q0 -91 44 -152q44 -60 123 -60z" />
    <glyph glyph-name="zero.dnom" horiz-adv-x="784" 
d="M393 -14l1 -1q-129 0 -222 120t-93 325q0 203 93 326t222 123q128 0 221 -124q93 -125 93 -327t-93 -322t-222 -120zM394 15q74 0 116 110q42 109 42 303q0 208 -46 312q-46 105 -114 105q-70 0 -114 -105q-44 -106 -44 -312t45 -310q45 -103 115 -103z" />
    <glyph glyph-name="one.dnom" horiz-adv-x="522" 
d="M104 0v8q67 25 84 50t17 98v516q0 45 -24 66q-25 22 -94 44v6l270 97v-729q0 -73 15 -97t87 -51v-8h-355z" />
    <glyph glyph-name="two.dnom" horiz-adv-x="690" 
d="M442 133h-2q67 0 101 20q32 19 76 78l9 -2l-72 -229h-506v27q379 379 379 585q0 78 -41 122t-99 44q-103 0 -203 -114l-18 6q50 86 126 147q77 62 165 62q86 0 149 -60t63 -157q0 -108 -89 -226q-87 -115 -290 -303h252z" />
    <glyph glyph-name="three.dnom" horiz-adv-x="714" 
d="M88 700h3q131 178 297 180q86 0 141 -48q56 -48 56 -121q0 -140 -209 -217v-2q12 4 33 4q107 0 170 -63t63 -168q0 -129 -92 -204t-215 -75q-116 0 -252 53l65 151l9 -2q80 -170 189 -170q63 0 108 60t45 150q0 93 -46 149q-47 57 -124 57q-49 0 -109 -24l-8 22
q235 111 234 244q0 117 -131 117q-115 0 -211 -105z" />
    <glyph glyph-name="four.dnom" horiz-adv-x="784" 
d="M705 256l-122 -1v-100q0 -74 16 -97q17 -24 87 -51v-8h-344v8q70 27 85 51t15 98v100h-372v20l483 601h31v-555h133zM146 321h295v376z" />
    <glyph glyph-name="five.dnom" horiz-adv-x="731" 
d="M342 535v2q124 0 207 -72q82 -72 82 -195q0 -133 -94 -208q-95 -75 -214 -75q-110 0 -244 55l59 174h8q77 -203 183 -203q59 0 110 62q51 61 51 168t-54 161t-138 54q-94 0 -183 -51l110 458h267q62 0 90 15t66 60l6 -2l-73 -207h-353l-51 -227q66 31 165 31z" />
    <glyph glyph-name="six.dnom" horiz-adv-x="755" 
d="M420 489l-1 -2q103 0 180 -63q76 -63 76 -169q0 -113 -85 -191q-86 -78 -213 -78q-123 0 -211 78t-88 246q0 215 147 365q148 151 358 203l2 -19q-146 -66 -244 -186q-97 -119 -124 -270q86 86 203 86zM382 10l2 -2q68 0 114 57q47 58 47 153q0 91 -44 153t-128 62
q-90 0 -162 -76l-2 -30q0 -151 47 -234t126 -83z" />
    <glyph glyph-name="seven.dnom" horiz-adv-x="706" 
d="M178 0l-1 -1q73 375 348 717h-286q-73 0 -104 -19q-32 -20 -69 -79l-9 3l68 243h526v-24q-160 -190 -229 -382q-68 -190 -100 -458h-144z" />
    <glyph glyph-name="eight.dnom" horiz-adv-x="733" 
d="M367 -14h-3q-121 0 -205 63t-84 167q0 83 53 141q52 57 137 81q-158 86 -156 224q0 97 77 156t183 59q103 0 177 -54q73 -54 73 -134q0 -71 -57 -123q-57 -53 -118 -72q39 -20 66 -36q29 -18 65 -48q37 -31 58 -76t21 -101q0 -112 -82 -179q-83 -68 -205 -68zM423 508
l-1 2q90 74 90 177q0 74 -40 117q-41 44 -103 44q-59 0 -96 -40q-38 -41 -38 -99q0 -61 45 -105q44 -43 143 -96zM365 18h1q71 0 113 45t42 115q0 74 -57 131q-56 56 -176 120q-101 -63 -102 -205q0 -95 50 -151q49 -55 129 -55z" />
    <glyph glyph-name="nine.dnom" horiz-adv-x="761" 
d="M381 879l1 2q127 0 216 -80t89 -246q0 -213 -148 -364q-149 -152 -367 -201l-2 16q146 67 243 185q96 117 123 267q-85 -82 -201 -82q-103 0 -180 63q-76 63 -76 171q0 115 86 192t216 77zM388 432h1q88 0 154 70q2 26 2 59q0 130 -46 210q-47 81 -123 81q-62 0 -109 -57
q-46 -56 -46 -151q0 -91 44 -152q43 -60 123 -60z" />
    <glyph glyph-name="zero.numr" horiz-adv-x="702" 
d="M352 596l1 -1q-129 0 -222 121q-93 122 -93 324q0 203 93 326t222 123q128 0 221 -124q93 -125 93 -327t-93 -322t-222 -120zM353 626l-1 -2q68 0 113 104t45 312q0 207 -46 311q-46 105 -117 105q-67 0 -111 -105q-43 -104 -43 -310q0 -209 45 -312t115 -103z" />
    <glyph glyph-name="one.numr" horiz-adv-x="440" 
d="M63 610v8q67 27 84 51q17 25 17 98v516q0 45 -24 66q-25 22 -94 44v6l270 96v-729q0 -73 15 -97t87 -51v-8h-355z" />
    <glyph glyph-name="two.numr" horiz-adv-x="608" 
d="M401 745l-1 -2q67 0 102 20q34 19 75 78l8 -2l-72 -230h-506v29q379 379 379 585q0 78 -41 122t-99 44q-107 0 -204 -115l-18 6q50 86 126 147q77 62 165 62q86 0 149 -60t63 -157q0 -108 -89 -226q-87 -115 -288 -301h251z" />
    <glyph glyph-name="three.numr" horiz-adv-x="632" 
d="M47 1311h1q130 178 297 178q85 0 141 -47t56 -120q0 -136 -209 -216v-2q12 4 33 4q107 0 170 -63t63 -168q0 -129 -92 -204q-91 -75 -215 -75q-116 0 -252 53l65 152l9 -2q80 -170 189 -170q63 0 108 60t45 150q0 92 -46 147q-47 56 -124 56q-49 0 -109 -24l-8 22
q236 111 236 244q0 117 -132 117q-119 0 -210 -105z" />
    <glyph glyph-name="four.numr" horiz-adv-x="702" 
d="M664 866l-122 -1v-100q0 -73 18 -97t85 -51v-8h-344v8q70 27 85 51t15 98v100h-372v21l483 600h31v-555h133zM105 931h295v379z" />
    <glyph glyph-name="five.numr" horiz-adv-x="649" 
d="M301 1145h-3q124 0 207 -72q82 -72 82 -194q0 -133 -94 -208q-95 -75 -214 -75q-110 0 -244 55l59 174h8q38 -101 84 -151t99 -49q61 0 112 60t51 167t-54 161t-138 54q-94 0 -183 -51l110 459h267q62 0 90 15t66 62l6 -2l-73 -209h-353l-51 -225q72 29 166 29z" />
    <glyph glyph-name="six.numr" horiz-adv-x="735" 
d="M414 1100v3q104 0 180 -63q77 -63 77 -172q0 -115 -86 -193q-85 -78 -216 -78q-128 0 -217 79q-90 80 -90 246q0 214 149 366t366 198l4 -15q-146 -66 -244 -186q-97 -119 -124 -271q86 86 201 86zM371 626v-1q66 0 111 56q45 55 45 152q0 93 -43 152q-44 60 -126 60
q-83 0 -151 -71q0 -6 -1 -15t-1 -19q0 -150 45 -232t121 -82z" />
    <glyph glyph-name="seven.numr" horiz-adv-x="624" 
d="M137 610l-1 -1q74 375 348 717h-286q-73 0 -104 -19q-32 -19 -69 -78l-9 2l68 244h526v-25q-160 -186 -229 -378q-68 -188 -100 -462h-144z" />
    <glyph glyph-name="eight.numr" horiz-adv-x="651" 
d="M326 596l-2 1q-121 0 -205 63t-84 167q0 83 53 141q52 57 137 84q-157 82 -156 222q0 98 75 156q76 59 185 59q103 0 177 -54q73 -54 73 -134q0 -67 -57 -120t-118 -75q39 -20 66 -36q25 -15 64 -48q36 -30 58 -77q21 -45 21 -100q0 -111 -82 -180q-83 -69 -205 -69z
M383 1119l-1 1q90 76 90 178q0 75 -40 119q-40 45 -103 45q-59 0 -96 -40q-38 -41 -38 -102q0 -62 45 -105q44 -43 143 -96zM325 629v1q71 0 113 45t42 114q0 73 -57 132q-56 58 -176 120q-100 -63 -100 -202q0 -97 49 -153q50 -57 129 -57z" />
    <glyph glyph-name="nine.numr" horiz-adv-x="679" 
d="M340 1489h1q127 0 216 -80t89 -246q0 -213 -148 -364q-149 -152 -367 -201l-2 18q146 66 243 185q96 119 123 267q-84 -84 -201 -84q-104 0 -180 63t-76 173q0 115 86 192t216 77zM347 1042l1 -1q88 0 154 70q0 9 0.5 17.5t1 13t0.5 5.5q0 152 -45 233t-123 81
q-66 0 -111 -56q-45 -55 -45 -153q0 -89 44 -150q44 -60 123 -60z" />
    <glyph glyph-name="zero.inferior.zero" horiz-adv-x="702" 
d="M352 592h1q128 0 221 -124t93 -327q0 -202 -93 -322t-222 -120t-222 120t-93 324q0 203 93 326t222 123zM349 559l-2 1q-67 0 -111 -105q-43 -104 -43 -310q0 -77 6 -139q33 44 143 159q109 113 152 182q-18 104 -57 158t-88 54zM351 -269h-1q70 0 114 105q44 106 44 318
q0 82 -8 144q-39 -52 -147 -165q-109 -114 -149 -177q38 -225 147 -225z" />
    <glyph glyph-name="zero.dnom.zero" horiz-adv-x="757" 
d="M379 879l-3 -1q128 0 222 -124t94 -327q0 -202 -93 -322t-222 -120t-222 120t-93 323q0 204 95 328q95 123 222 123zM374 845l-1 1q-67 0 -111 -105q-44 -106 -44 -310q0 -49 4 -110q6 8 129 139q120 128 160 207q-40 178 -137 178zM377 16h1q67 0 111 104q44 105 44 312
q0 106 -13 180q-45 -68 -150 -176q-104 -107 -145 -162q33 -258 152 -258z" />
    <glyph glyph-name="zero.numr.zero" horiz-adv-x="757" 
d="M379 1489h-3q127 0 222 -125q94 -124 94 -327q0 -200 -92 -321q-91 -120 -221 -120q-129 0 -223 121t-94 325q0 200 95 324q95 123 222 123zM374 1458v-1q-72 0 -114 -111t-42 -298q0 -56 4 -115q37 44 97 104t115 125q49 58 78 116q-44 180 -138 180zM378 626l1 -2
q67 0 111 104q44 105 44 312q0 106 -13 183q-43 -66 -150 -177q-104 -108 -145 -162q33 -258 152 -258z" />
    <glyph glyph-name="colon.aalt" horiz-adv-x="428" 
d="M217 870h-1q-52 0 -90 38t-38 90t39 89q40 38 90 38q52 0 89 -37q38 -38 38 -89q0 -50 -38 -90q-38 -39 -89 -39zM216 145h1q-50 0 -90 38q-39 37 -39 89q0 50 38 90q38 39 90 39t89 -39q38 -40 38 -90q0 -51 -38 -89t-89 -38z" />
    <glyph glyph-name="exclamdown.aalt" horiz-adv-x="337" 
d="M172 1479q51 0 89 -38t38 -89q0 -49 -38 -87t-89 -38q-50 0 -90 38q-39 37 -39 87q0 52 39 89q40 38 90 38zM147 1057l44 -1q7 -92 21 -309q12 -194 29 -394q15 -175 33 -337v-16h-210v16q20 177 32 328q14 168 30 414q17 248 21 299z" />
    <glyph glyph-name="questiondown.aalt" horiz-adv-x="921" 
d="M557 1493q51 0 89 -38t38 -89q0 -49 -38 -87t-89 -38q-50 0 -90 38q-39 37 -39 87q0 52 39 89q40 38 90 38zM598 1069l-2 2q-7 -127 -63 -241q-56 -115 -115 -183t-109 -162q-49 -92 -49 -187q0 -106 51 -187t140 -81q66 0 125 53t92 113q32 58 58 130l4 2l119 -193
q-194 -145 -401 -145q-166 0 -270 89q-103 88 -103 236q0 89 43 168q45 82 106 143q84 84 127 126q67 65 116 145q50 82 61 172h70z" />
    <glyph glyph-name="slash.case" horiz-adv-x="686" 
d="M8 -199l592 1821h49l-592 -1821h-49z" />
    <glyph glyph-name="backslash.aalt" horiz-adv-x="675" 
d="M680 -199h-47l-594 1821h49z" />
    <glyph glyph-name="parenleft.aalt" horiz-adv-x="690" 
d="M260 709v1q0 -354 108 -585t288 -399l-14 -19q-537 341 -537 1002q0 664 537 1003l14 -18q-180 -168 -288 -399t-108 -586z" />
    <glyph glyph-name="parenright.aalt" horiz-adv-x="653" 
d="M53 1712v-1q537 -341 537 -1003t-537 -1002l-14 19q180 168 288 398q108 229 108 585t-108 587t-288 399z" />
    <glyph glyph-name="braceleft.aalt" horiz-adv-x="708" 
d="M397 229l2 3q-20 -105 -20 -184q0 -290 256 -336l-8 -18q-179 26 -291 124q-112 99 -112 285q0 68 15 140l14 71q12 62 12 117q0 125 -54 189t-114 75v25q59 11 113 75t54 188q0 57 -12 119l-14 71q-13 72 -15 140q0 186 111 285t292 123l8 -18q-256 -49 -256 -336
q0 -79 20 -184l19 -95q8 -46 8 -87q0 -139 -72 -217t-136 -78q63 0 135 -78t72 -217q0 -41 -8 -87z" />
    <glyph glyph-name="braceright.aalt" horiz-adv-x="667" 
d="M420 1096l-2 -1q-12 -61 -12 -117q0 -124 54 -189q54 -64 113 -75v-25q-59 -11 -113 -75t-54 -187q0 -58 12 -119l14 -71q13 -72 15 -140q0 -186 -111 -285t-291 -123l-8 18q256 46 256 339q0 80 -21 182l-18 93q-10 49 -10 96q0 125 66 200t131 83q-67 12 -132 89
q-64 76 -64 200q0 52 10 93l20 95q23 109 23 183q0 293 -260 338l8 18q179 -26 291 -124q112 -99 112 -285q0 -68 -15 -140z" />
    <glyph glyph-name="bracketleft.aalt" horiz-adv-x="620" 
d="M545 1649h-230v-1885h230v-40h-367v1968h367v-43z" />
    <glyph glyph-name="bracketright.aalt" horiz-adv-x="604" 
d="M63 1649v43h367v-1968h-367v40h230v1885h-230z" />
    <glyph glyph-name="hyphen.aalt" horiz-adv-x="737" 
d="M662 674v-64h-582v64h582z" />
    <glyph glyph-name="endash.aalt" horiz-adv-x="978" 
d="M903 662v-52h-823v52h823z" />
    <glyph glyph-name="emdash.aalt" horiz-adv-x="1802" 
d="M1726 662v-52h-1646v52h1646z" />
    <glyph glyph-name="guillemotleft.aalt" horiz-adv-x="1040" 
d="M580 1114l1 -2q-123 -199 -289 -408q165 -207 288 -412h-33q-199 194 -459 402v21q256 205 459 399h33zM957 1112v-1q-123 -200 -290 -408q165 -205 290 -412h-32q-217 210 -459 401v21q236 187 459 399h32z" />
    <glyph glyph-name="guillemotright.aalt" horiz-adv-x="1040" 
d="M88 1114l33 1q223 -211 459 -399v-21q-241 -193 -459 -401h-33q128 209 291 412q-167 206 -291 408zM465 1115l34 1q216 -206 458 -399v-21q-246 -195 -458 -401h-33q123 205 288 412q-166 209 -289 408z" />
    <glyph glyph-name="guilsinglleft.aalt" horiz-adv-x="663" 
d="M580 1114l1 -2q-123 -199 -289 -408q165 -207 288 -412h-33q-199 194 -459 402v21q256 205 459 399h33z" />
    <glyph glyph-name="guilsinglright.aalt" horiz-adv-x="663" 
d="M88 1114l33 1q223 -211 459 -399v-21q-241 -193 -459 -401h-33q128 209 291 412q-167 206 -291 408z" />
    <glyph glyph-name="cent.oldstyle" horiz-adv-x="933" 
d="M899 326l-1 -3q-28 -141 -123 -243t-258 -102v-168h-47v170q-178 16 -297 158q-118 140 -118 354q0 215 121 357q122 143 294 153v137h47v-135q112 -6 201 -67q90 -61 145 -139l-166 -131l-8 4q-12 98 -54 179t-118 103v-813q44 -10 87 -10q106 0 177 60t102 142z
M230 570l-1 -1q0 -157 66 -264q66 -106 173 -150v803q-86 0 -162 -105q-76 -104 -76 -283z" />
    <glyph glyph-name="dollar.oldstyle" horiz-adv-x="1132" 
d="M1034 369h1q0 -190 -129 -292t-305 -102v-161h-65v166q-199 19 -400 126l-24 336h14q67 -154 172 -269q106 -117 238 -139v592l-13 6q-50 25 -100 51q-33 17 -100 65q-62 44 -97 87t-62 107t-27 135q0 162 115 261q116 99 285 105v141h65v-143q159 -7 324 -80l41 -322
h-15q-59 126 -150 224q-92 99 -201 123v-532l29 -16q107 -60 165 -98q56 -37 119 -94q66 -60 93 -126t27 -151zM312 1161v2q0 -85 50 -141t174 -129v502q-92 -5 -158 -66t-66 -168zM601 31h1q111 5 179 73q69 69 69 175q0 103 -63 171t-186 138v-557z" />
    <glyph glyph-name="Euro.oldstyle" horiz-adv-x="1318" 
d="M811 27l2 -2q98 0 200 103q103 104 180 241h12l-33 -322q-195 -74 -369 -74q-250 0 -403 180q-152 179 -169 483h-176v45h174v18q0 88 13 165h-187v45h195q51 242 201 386t351 144q152 0 368 -76l33 -319h-12q-78 140 -181 244q-104 105 -207 105q-111 0 -204 -124
q-94 -125 -122 -358h529l-7 -45h-528q-6 -74 -6 -156v-27h485l-8 -45h-475q12 -286 116 -449q103 -162 228 -162z" />
    <glyph glyph-name="sterling.oldstyle" horiz-adv-x="1091" 
d="M975 377l12 -5l-55 -377h-873v70q74 47 128 104t78 105q25 50 38 109q13 61 15 92q1 20 1 77q0 79 -55 213h-209v47h189q-53 140 -54 232q0 174 120 294t319 120q143 0 305 -57l41 -266h-14q-74 113 -172 195q-100 83 -195 83q-94 0 -165 -72q-71 -73 -71 -187
q0 -76 54 -192q56 -120 65 -148h309v-47h-299q11 -44 13 -138q0 -47 -3 -78t-18 -81q-15 -51 -43 -93q-29 -44 -85 -103q-59 -62 -136 -123h528q63 0 126 68q61 66 106 158z" />
    <glyph glyph-name="yen.oldstyle" horiz-adv-x="1357" 
d="M961 1419l385 -3v-14q-80 -33 -126 -84q-46 -50 -99 -137l-297 -496h265v-45h-291v-174h293v-45h-293v-164q0 -129 30 -167t153 -81v-12h-586v12q123 43 153 81t30 167v164h-293v45h293v160l-9 14h-286v45h258l-353 578q-32 52 -61 78q-31 28 -112 62v14h568v-14
q-85 -39 -114 -58q-31 -21 -31 -48q0 -29 43 -99l295 -491l281 477q35 58 35 98q0 72 -131 123v14z" />
    <glyph glyph-name="cent.tnum" 
d="M967 326l-3 1q-32 -143 -127 -244q-96 -102 -255 -102v-168h-47v170q-178 16 -297 158q-118 140 -118 354q0 215 120 357q120 143 295 156v135h47v-135q107 -5 196 -64q90 -60 148 -142l-164 -133l-10 4q-14 102 -57 183q-44 82 -112 101v-815q44 -10 86 -10
q109 0 180 60t101 140zM294 574q0 -158 66 -264q66 -107 175 -150v805q-89 0 -165 -106t-76 -285z" />
    <glyph glyph-name="dollar.tnum" 
d="M600 850v-2q86 -50 132 -78q49 -30 107 -75q59 -46 90 -89q30 -42 51 -102t21 -131q0 -193 -130 -295q-131 -102 -306 -102v-163h-63v168q-199 19 -400 129l-24 340h12q66 -150 173 -273q107 -121 240 -144v604q-5 5 -12 9q-77 43 -125 74q-42 26 -102 74q-58 46 -87 85
q-30 41 -51 97q-21 57 -21 123q0 162 115 262t285 106v146h63v-148q157 -7 326 -80l41 -325h-14q-62 126 -153 227q-92 102 -201 126v-545zM281 1180q0 -89 49 -145t174 -130v512q-91 -4 -157 -66q-66 -61 -66 -171zM567 27l-1 -1q109 4 180 74q71 69 71 180q0 106 -63 175
q-65 71 -187 143v-571z" />
    <glyph glyph-name="Euro.tnum" 
d="M676 27l-2 1q88 0 186 105q97 104 171 242h10l-30 -324q-177 -76 -345 -76q-224 0 -370 182q-146 181 -162 492h-164v45h162v21q0 91 12 170h-174v45h181q46 245 188 391q141 145 330 145q141 0 344 -75l30 -324h-12q-77 142 -172 246q-96 105 -186 105q-103 0 -185 -126
t-111 -363h487l-6 -45h-485q-6 -78 -6 -162v-29h442l-4 -45h-436q12 -290 104 -456q92 -165 203 -165z" />
    <glyph glyph-name="sterling.tnum" 
d="M967 381l10 2l-53 -381h-875v70q92 59 149 128t78 143q22 76 26 119q4 45 3 106q0 83 -55 217h-209v50h191q-53 129 -54 235q0 175 119 297t317 122q140 0 306 -59l41 -269h-15q-73 114 -171 199q-97 84 -195 84q-92 0 -162 -76q-71 -77 -71 -192q0 -75 53 -192
q52 -116 63 -150h311v-50h-299q12 -50 12 -141q0 -63 -6 -105q-6 -44 -31 -105q-26 -63 -87 -132q-60 -67 -159 -148h528q66 0 129 69q62 68 106 159z" />
    <glyph glyph-name="yen.tnum" 
d="M780 1444l331 -2v-12q-53 -28 -89 -67q-40 -43 -56 -70q-18 -30 -48 -90l-254 -508h233v-45h-250v-178h252v-45h-252v-170q0 -91 15 -132t48 -62q31 -19 122 -52v-12h-584v12q86 30 121 53q33 21 48 62q15 40 15 132v170h-250v45h250v164l-8 14h-244v45h221l-299 590
q-26 50 -51 78q-25 27 -93 67v12h506v-12q-74 -41 -96 -61q-24 -21 -24 -48t37 -102l248 -496l233 481q31 61 31 102q0 74 -113 125v12z" />
    <glyph glyph-name="cent.tnum.oldstyle" 
d="M967 326l-3 1q-32 -143 -127 -244q-96 -102 -255 -102v-168h-47v170q-178 16 -297 158q-118 140 -118 354q0 215 120 357q120 143 295 156v135h47v-135q107 -5 196 -64q90 -60 148 -142l-164 -133l-10 4q-14 102 -57 183q-44 82 -112 101v-815q44 -10 86 -10
q109 0 180 60t101 140zM294 574q0 -158 66 -264q66 -107 175 -150v805q-89 0 -165 -106t-76 -285z" />
    <glyph glyph-name="dollar.tnum.oldstyle" 
d="M602 850l-2 1q65 -37 132 -77q38 -23 106 -75q67 -52 93 -91q28 -42 50 -102q23 -63 23 -132q0 -193 -132 -295t-306 -102v-163h-63v168q-199 19 -400 129l-24 340h12q66 -150 173 -273q106 -122 240 -144v606l-15 8q-96 56 -147 90q-51 35 -115 91q-65 57 -93 123
q-29 67 -29 148q0 164 115 264q116 101 285 107v146h63v-148q157 -11 326 -81l41 -325h-14q-62 126 -153 227q-92 102 -201 126v-545q11 -10 35 -21zM279 1185h-1q0 -90 49 -145q49 -56 174 -132v514q-90 -4 -156 -66t-66 -171zM564 30l-1 -2q109 4 180 75t71 180
q0 107 -61 175t-189 145v-573z" />
    <glyph glyph-name="Euro.tnum.oldstyle" 
d="M670 27v-2q83 0 174 103q92 104 165 241h10l-29 -322q-175 -74 -329 -74q-214 0 -354 179q-139 178 -156 486h-156v45h154v18q0 89 12 168h-166v45h172q45 242 180 386t316 144q132 0 327 -76l29 -319h-10q-77 144 -168 245q-91 102 -174 102q-94 0 -172 -124
q-77 -124 -103 -358h457l-6 -45h-455q-6 -73 -6 -159v-27h416l-6 -45h-408q11 -288 97 -449q87 -162 189 -162z" />
    <glyph glyph-name="sterling.tnum.oldstyle" 
d="M967 377l9 -8l-53 -377h-875v70q93 58 149 126q57 69 78 142q22 76 26 117q5 43 3 105q0 81 -55 215h-209v47h191q-53 129 -54 232q0 173 119 294q118 120 317 120q143 0 306 -57l41 -266h-15q-73 113 -171 195q-98 83 -194 83q-92 0 -162 -73q-71 -74 -71 -189
q0 -74 54 -191q51 -110 64 -146h309v-47h-299q12 -49 12 -139q0 -61 -6 -103q-6 -43 -31 -103q-26 -62 -87 -129t-159 -144h528q66 0 129 69q62 68 106 157z" />
    <glyph glyph-name="yen.tnum.oldstyle" 
d="M780 1421l331 -2v-14q-72 -37 -111 -87q-38 -48 -82 -135l-254 -498h233v-45h-250v-174h252v-45h-252v-164q0 -91 15 -132t48 -62q31 -19 122 -52v-12h-584v12q86 30 121 53q33 21 48 62q15 40 15 132v164h-250v45h250v160l-8 14h-244v45h221l-301 580q-27 51 -51 78
t-92 62v14h506v-14q-51 -28 -70 -40q-21 -14 -36 -30t-15 -34q0 -28 39 -102l248 -485l233 471q31 61 31 100q0 71 -113 121v14z" />
    <glyph glyph-name="at.aalt" horiz-adv-x="1490" 
d="M1329 168l93 -118q-84 -51 -226 -93t-291 -42q-221 0 -414 99t-313 288t-120 424q0 332 222 566t527 234q239 0 396 -145t153 -370l-17 -717h-18q-86 92 -138 92q-29 0 -68 -30q-36 -27 -98 -61q-58 -31 -132 -31q-168 0 -267 141t-99 327q0 199 108 346t287 147
q163 0 287 -119v14q0 128 -111 246t-312 118q-74 0 -141 -16q-69 -16 -144 -63t-131 -122q-55 -74 -91 -201q-36 -126 -36 -289q0 -191 50 -346q49 -151 125 -241q75 -88 171 -147q95 -58 180 -79q84 -21 164 -21q139 0 244 63q104 62 160 146zM1173 468l18 450
q-35 97 -114 179q-80 83 -180 83q-211 0 -211 -383q0 -245 80 -358q79 -112 177 -112q61 0 124 42q62 41 106 99z" />
    <glyph glyph-name="bar.aalt" horiz-adv-x="374" 
d="M215 -199h-53v1821h53v-1821z" />
    </font>
</defs>
</svg>
