<?xml version="1.0" standalone="no"?>
<!DOCTYPE svg PUBLIC "-//W3C//DTD SVG 1.1//EN" "http://www.w3.org/Graphics/SVG/1.1/DTD/svg11.dtd" >
<svg xmlns="http://www.w3.org/2000/svg" xmlns:xlink="http://www.w3.org/1999/xlink" version="1.1">
<metadata>
Created by FontForge 20201107 at Thu Feb  1 08:44:56 2024
 By 
Copyright (C) 2002, 2007 Hoefler &#38; Frere-Jones. http://www.typography.com
</metadata>
<defs>
<font id="ChronicleDisplay-Semi" horiz-adv-x="1142" >
  <font-face 
    font-family="Chronicle Display Semi"
    font-weight="375"
    font-stretch="normal"
    units-per-em="2048"
    panose-1="0 0 0 0 0 0 0 0 0 0"
    ascent="1638"
    descent="-410"
    x-height="944"
    cap-height="1427"
    bbox="-172 -598 2353 2320"
    underline-thickness="102"
    underline-position="-204"
    unicode-range="U+0020-FB04"
  />
<missing-glyph horiz-adv-x="1024" 
d="M0 -410v2048h1024v-2048h-1024zM145 1536l367 -799l367 799h-734zM102 -156l353 770l-353 770v-1540zM922 1384l-353 -770l353 -770v1540zM512 492l-367 -799h734z" />
    <glyph glyph-name="f_f" unicode="ff" horiz-adv-x="1261" 
d="M633 1477q199 0 274 -101l2 2q103 103 262 103q127 0 196 -48t69 -118q0 -56 -31.5 -89.5t-85.5 -33.5t-89.5 31t-35.5 94q0 51 33 98q-29 29 -76 29q-49 0 -84 -35q-29 -29 -43 -90t-14 -176v-207h262v-64h-262v-770q0 -45 39 -59.5t155 -17.5v-25h-538v25
q74 2 101.5 17t27.5 60v770h-371v-770q0 -45 29 -60t108 -17v-25h-498v25q88 2 117 17t29 60v768h-176v27l176 45v80q0 229 115 344q108 111 309 111zM795 1020q0 84 10 135q-43 6 -71.5 37.5t-28.5 83.5q0 55 43 104q-39 60 -119 60q-83 0 -137 -51q-68 -68 -68 -240v-213
h371v84z" />
    <glyph glyph-name="fi" unicode="fi" horiz-adv-x="1196" 
d="M63 0v25q88 2 117 17t29 60v768h-176v27l176 45v70q0 241 110 354q115 115 326 115q76 0 139.5 -14t105 -37t70.5 -53t41.5 -62t12.5 -64q0 -57 -33.5 -93t-87.5 -36q-55 0 -92 30.5t-37 92.5q0 31 16.5 60.5t42.5 48.5q-20 38 -67.5 64t-108.5 26q-99 0 -155 -53
q-35 -35 -51.5 -94t-16.5 -171v-190h309l279 12v-846q0 -46 28 -61t121 -16v-25h-491v25q71 2 99 17.5t28 59.5v770h-373v-770q0 -45 29 -60t108 -17v-25h-498z" />
    <glyph glyph-name="fl" unicode="fl" horiz-adv-x="1204" 
d="M803 872h-379v-770q0 -45 29 -60t108 -17v-25h-498v25q88 2 117 17t29 60v768h-176v27l176 45v78q0 233 110 346q113 113 312 113q116 0 194 -33l193 27v-1371q0 -46 27.5 -61t117.5 -16v-25h-489v25q72 2 100.5 17.5t28.5 59.5v770zM803 1157q-101 15 -101 117
q0 28 15 57.5t35 48.5q-40 62 -121 62q-89 0 -142 -53q-65 -65 -65 -242v-211h379v221z" />
    <glyph glyph-name="f_f_i" unicode="ffi" horiz-adv-x="1781" 
d="M633 1477q207 0 278 -107q117 111 320 111q95 0 168.5 -21t115.5 -55.5t63 -73.5t21 -80q0 -58 -33 -93.5t-91 -35.5q-50 0 -86.5 30.5t-36.5 90.5q0 70 57 111q-20 38 -67.5 64t-108.5 26q-100 0 -156 -53q-34 -34 -50.5 -93t-16.5 -172v-190h309l278 12v-844
q0 -47 28.5 -62.5t123.5 -16.5v-25h-494v25q72 2 99.5 17.5t27.5 61.5v768h-372v-768q0 -46 29 -61.5t108 -17.5v-25h-481v25q74 2 101.5 17.5t27.5 61.5v768h-371v-768q0 -46 29 -61.5t108 -17.5v-25h-498v25q88 2 117 17t29 62v766h-176v27l176 45v80q0 229 115 344
q108 111 309 111zM795 936v76q0 75 10 143q-49 4 -77 36t-28 85q0 30 14.5 58.5t33.5 45.5q-39 60 -119 60q-83 0 -137 -51q-68 -68 -68 -240v-213h371z" />
    <glyph glyph-name="f_f_l" unicode="ffl" horiz-adv-x="1789" 
d="M666 0v25q74 2 101.5 17.5t27.5 61.5v768h-371v-768q0 -46 29 -61.5t108 -17.5v-25h-498v25q88 2 117 17t29 62v766h-176v27l176 45v80q0 229 115 344q108 111 309 111q207 0 278 -107q112 109 306 109q127 0 194 -33l193 27v-1369q0 -47 27.5 -62.5t117.5 -16.5v-25
h-487v25q71 2 99 17.5t28 61.5v768h-379v-768q0 -46 29 -61.5t108 -17.5v-25h-481zM1389 936v221q-45 7 -73 36t-28 81q0 28 15 58t36 48q-46 62 -122 62q-90 0 -140 -53q-67 -67 -67 -242v-211h379zM795 1020q0 67 10 135q-43 6 -71.5 37.5t-28.5 83.5q0 55 43 104
q-39 60 -119 60q-83 0 -137 -51q-68 -68 -68 -240v-213h371v84z" />
    <glyph glyph-name="f_b" unicode="fb" horiz-adv-x="1773" 
d="M803 1157q-45 7 -73 36t-28 81q0 28 15 57.5t35 48.5q-40 62 -121 62q-89 0 -142 -53q-65 -65 -65 -242v-211h379v221zM1233 23q119 0 178 125.5t59 343.5q0 171 -66.5 279t-182.5 108q-61 0 -109 -23.5t-94 -75.5v-596q31 -79 89 -120t126 -41zM618 0h-555v25
q88 2 117 17t29 62v766h-176v27l176 45v78q0 236 110 346q113 113 312 113q127 0 194 -33l193 27v-652q133 140 309 140q175 0 276 -129.5t101 -329.5q0 -143 -53 -260t-154.5 -187.5t-232.5 -70.5q-183 0 -328 96l-109 -111h-30l6 187v716h-379v-768q0 -46 39 -61t155 -18
v-25z" />
    <glyph glyph-name="f_h" unicode="fh" horiz-adv-x="1777" 
d="M803 1157q-101 15 -101 117q0 28 15 57.5t35 48.5q-40 62 -121 62q-89 0 -142 -53q-65 -65 -65 -242v-211h379v221zM1163 0h-489v25q72 2 100.5 17.5t28.5 59.5v770h-379v-770q0 -45 29 -60t108 -17v-25h-498v25q88 2 117 17t29 60v768h-176v27l176 45v78q0 233 110 346
q113 113 312 113q116 0 194 -33l193 27v-746q68 109 158 168t192 59q122 0 187 -73t65 -213v-566q0 -46 28 -61t119 -16v-25h-485v25q73 2 98 17t25 60v523q0 114 -39 169.5t-127 55.5q-130 0 -221 -172v-576q0 -46 27.5 -61t117.5 -16v-25z" />
    <glyph glyph-name="f_j" unicode="fj" horiz-adv-x="1175" 
d="M618 0h-555v25q88 2 117 17t29 62v766h-176v27l176 45v70q0 241 110 354q115 115 326 115q76 0 139.5 -14t105 -37t70.5 -53t41.5 -62t12.5 -64q0 -57 -33.5 -93t-87.5 -36q-55 0 -92 30.5t-37 92.5q0 31 16.5 60.5t42.5 48.5q-20 38 -67.5 64t-108.5 26q-99 0 -155 -53
q-35 -35 -51.5 -94t-16.5 -171v-190h309l279 12v-928q0 -138 -21.5 -214.5t-79.5 -133.5q-81 -84 -239 -84q-115 0 -182.5 43t-67.5 113q0 54 35 88.5t86 34.5q53 0 86 -34t33 -87q0 -62 -48 -98q26 -23 70 -23q59 0 86 51.5t27 157.5v1038h-373v-768q0 -46 39 -61t155 -18
v-25z" />
    <glyph glyph-name="f_k" unicode="fk" horiz-adv-x="1716" 
d="M803 1157q-101 15 -101 117q0 28 15 57.5t35 48.5q-40 62 -121 62q-89 0 -142 -53q-65 -65 -65 -242v-211h379v221zM1163 0h-489v25q72 2 100.5 17.5t28.5 59.5v770h-379v-770q0 -45 29 -60t108 -17v-25h-498v25q88 2 117 17t29 60v768h-176v27l176 45v78q0 233 110 346
q113 113 312 113q116 0 194 -33l193 27v-1041l299 309q68 69 52 114t-122 65v24h434v-24q-88 -19 -156 -61t-167 -138l-111 -111l307 -434q66 -93 100 -118t105 -33v-25h-487v25q77 7 89.5 35.5t-26.5 82.5l-227 330l-90 -92v-279q0 -46 27.5 -61t117.5 -16v-25z" />
    <glyph glyph-name="f_f_b" unicode="ffb" horiz-adv-x="2359" 
d="M1204 0h-538v25q74 2 101.5 17.5t27.5 61.5v768h-371v-768q0 -46 29 -61.5t108 -17.5v-25h-498v25q88 2 117 17t29 62v766h-176v27l176 45v80q0 229 115 344q108 111 309 111q207 0 278 -107q112 109 306 109q127 0 194 -33l193 27v-652q133 140 309 140
q175 0 276 -129.5t101 -329.5q0 -143 -53 -260.5t-155 -187.5t-233 -70q-182 0 -327 96l-109 -111h-31l7 187v716h-379v-768q0 -46 39 -61t155 -18v-25zM1821 23q79 0 132.5 60t78 163t24.5 246q0 171 -67 279t-183 108q-61 0 -108.5 -23.5t-93.5 -75.5v-596
q31 -79 89.5 -120t127.5 -41zM1389 936v221q-45 7 -73 36t-28 81q0 28 15 58t36 48q-46 62 -122 62q-90 0 -140 -53q-67 -67 -67 -242v-211h379zM795 1020q0 67 10 135q-43 6 -71.5 37.5t-28.5 83.5q0 55 43 104q-39 60 -119 60q-83 0 -137 -51q-68 -68 -68 -240v-213h371
v84z" />
    <glyph glyph-name="f_f_h" unicode="ffh" horiz-adv-x="2363" 
d="M666 0v25q74 2 101.5 17.5t27.5 61.5v768h-371v-768q0 -46 29 -61.5t108 -17.5v-25h-498v25q88 2 117 17t29 62v766h-176v27l176 45v80q0 229 115 344q108 111 309 111q207 0 278 -107q112 109 306 109q127 0 194 -33l193 27v-746q68 109 158 168t192 59q122 0 187 -73
t65 -213v-564q0 -47 28 -62.5t119 -16.5v-25h-483v25q72 2 96.5 17t24.5 62v521q0 114 -39 169.5t-127 55.5q-130 0 -221 -172v-574q0 -47 27.5 -62.5t117.5 -16.5v-25h-487v25q71 2 99 17.5t28 61.5v768h-379v-768q0 -46 29 -61.5t108 -17.5v-25h-481zM1389 936v221
q-45 7 -73 36t-28 81q0 28 15 58t36 48q-46 62 -122 62q-90 0 -140 -53q-67 -67 -67 -242v-211h379zM795 1020q0 67 10 135q-43 6 -71.5 37.5t-28.5 83.5q0 55 43 104q-39 60 -119 60q-83 0 -137 -51q-68 -68 -68 -240v-213h371v84z" />
    <glyph glyph-name="f_f_j" unicode="ffj" horiz-adv-x="1761" 
d="M1204 0h-538v25q74 2 101.5 17.5t27.5 61.5v768h-371v-768q0 -46 29 -61.5t108 -17.5v-25h-498v25q88 2 117 17t29 62v766h-176v27l176 45v80q0 229 115 344q108 111 309 111q207 0 278 -107q117 111 320 111q95 0 168.5 -21t115.5 -55.5t63 -73.5t21 -80
q0 -58 -33 -93.5t-91 -35.5q-50 0 -86.5 30.5t-36.5 90.5q0 70 57 111q-20 38 -67.5 64t-108.5 26q-100 0 -156 -53q-34 -34 -50.5 -93t-16.5 -172v-190h309l278 12v-928q0 -138 -21 -214.5t-79 -133.5q-41 -42 -105 -63t-135 -21q-115 0 -182 43t-67 113q0 54 34.5 88.5
t85.5 34.5q53 0 86 -34t33 -87q0 -63 -47 -98q26 -23 70 -23q59 0 85.5 51.5t26.5 157.5v1038h-372v-768q0 -46 39 -61t155 -18v-25zM795 1012q0 75 10 143q-49 4 -77 36t-28 85q0 30 14.5 58.5t33.5 45.5q-39 60 -119 60q-83 0 -137 -51q-68 -68 -68 -240v-213h371v76z" />
    <glyph glyph-name="f_f_k" unicode="ffk" horiz-adv-x="2301" 
d="M666 0v25q74 2 101.5 17.5t27.5 61.5v768h-371v-768q0 -46 29 -61.5t108 -17.5v-25h-498v25q88 2 117 17t29 62v766h-176v27l176 45v80q0 229 115 344q108 111 309 111q207 0 278 -107q112 109 306 109q127 0 194 -33l193 27v-1041l299 309q68 69 52 114t-122 65v24h434
v-24q-87 -17 -153.5 -59t-167.5 -140l-113 -111l307 -434q66 -93 100 -118t105 -33v-25h-487v25q77 7 89.5 35.5t-26.5 82.5l-227 330l-90 -92v-277q0 -47 27.5 -62.5t117.5 -16.5v-25h-487v25q71 2 99 17.5t28 61.5v768h-379v-768q0 -46 29 -61.5t108 -17.5v-25h-481z
M1389 936v221q-45 7 -73 36t-28 81q0 28 15 58t36 48q-46 62 -122 62q-90 0 -140 -53q-67 -67 -67 -242v-211h379zM795 1020q0 67 10 135q-43 6 -71.5 37.5t-28.5 83.5q0 55 43 104q-39 60 -119 60q-83 0 -137 -51q-68 -68 -68 -240v-213h371v84z" />
    <glyph glyph-name=".notdef" horiz-adv-x="1024" 
d="M0 -410v2048h1024v-2048h-1024zM145 1536l367 -799l367 799h-734zM102 -156l353 770l-353 770v-1540zM922 1384l-353 -770l353 -770v1540zM512 492l-367 -799h734z" />
    <glyph glyph-name=".null" horiz-adv-x="0" 
 />
    <glyph glyph-name="nonmarkingreturn" horiz-adv-x="682" 
 />
    <glyph glyph-name="space" unicode=" " horiz-adv-x="382" 
 />
    <glyph glyph-name="exclam" unicode="!" horiz-adv-x="573" 
d="M270 397q-14 207 -63 522.5t-49 399.5q0 166 129 166q62 0 96.5 -42.5t34.5 -123.5q0 -85 -50 -401t-65 -521h-33zM287 -33q-59 0 -99.5 39.5t-40.5 95.5q0 57 41 97.5t99 40.5t98.5 -40t40.5 -96q0 -57 -40.5 -97t-98.5 -40z" />
    <glyph glyph-name="quotedbl" unicode="&#x22;" horiz-adv-x="888" 
d="M541 881l-29 10l41 233q44 215 57 248q34 70 101 70q49 0 78.5 -32.5t29.5 -76.5q0 -22 -10 -49q-19 -53 -133 -213zM166 881l-27 10l41 233q45 218 58 248q30 70 98 70q49 0 79.5 -33t30.5 -76q0 -22 -10 -49q-24 -57 -135 -213z" />
    <glyph glyph-name="numbersign" unicode="#" horiz-adv-x="1443" 
d="M657 1444l-90 -457h430l93 457h53l-90 -457h321v-43h-330l-102 -514h344v-43h-352l-94 -473h-54l95 473h-432l-95 -473h-53l94 473h-317v43h325l101 514h-336v43h344l92 457h53zM559 944l-102 -514h432l100 514h-430z" />
    <glyph glyph-name="dollar" unicode="$" horiz-adv-x="1157" 
d="M561 -131v170q-127 3 -231 39.5t-165 100.5t-61 143q0 53 37.5 96t104.5 43q58 0 93.5 -38t35.5 -91q0 -40 -24.5 -75t-69.5 -56q30 -44 109.5 -79.5t170.5 -41.5v504l-35 12q-51 17 -82 28t-76 30.5t-73 37.5t-60 45.5t-50 57t-30 69.5t-12 86q0 105 60.5 187.5t156 127
t207.5 50.5v149h54v-147q174 -4 291.5 -79t117.5 -181q0 -54 -32.5 -92.5t-88.5 -38.5q-64 0 -97.5 35.5t-33.5 89.5q0 35 23 68.5t55 47.5q-86 101 -235 109v-471l55 -19q156 -52 220 -90q150 -88 158 -250q1 -11 1 -22q0 -71 -26.5 -136.5t-78.5 -120t-139 -89.5t-197 -39
v-170h-53zM868 305q0 97 -55.5 150t-198.5 108v-483q126 6 190 66t64 159zM342 1053q0 -83 52.5 -133t172.5 -95v449q-103 -6 -164 -63t-61 -158z" />
    <glyph glyph-name="percent" unicode="%" horiz-adv-x="1667" 
d="M1210 20q66 0 126.5 48.5t100 121t63.5 154t24 150.5q0 97 -36.5 147.5t-103.5 50.5t-126 -48.5t-97 -123t-60 -160.5t-22 -165q0 -87 36 -131t95 -44zM1188 -29q-135 0 -210 82t-75 221q0 115 60.5 229t163 187.5t214.5 73.5q108 0 171 -71t63 -197q0 -52 -15.5 -119
t-48.5 -138.5t-77.5 -131t-109 -98t-136.5 -38.5zM723 1114q0 38 -6 68q-113 36 -203 112q-70 -28 -125.5 -110.5t-82.5 -180t-27 -188.5q0 -87 36 -130.5t95 -43.5q66 0 126 48t100 120.5t63.5 154t23.5 150.5zM543 1384q70 0 123.5 -33.5t81.5 -95.5q80 -36 184 -36
q189 0 377 196h55l-983 -1468h-92l932 1331l-7 6q-135 -125 -337 -125q-50 0 -105 10q2 -16 2 -53q0 -53 -15.5 -120t-48 -138t-77 -130.5t-109 -97.5t-137.5 -38q-133 0 -209 82.5t-76 220.5q0 115 61 228.5t164.5 187t215.5 73.5z" />
    <glyph glyph-name="ampersand" unicode="&#x26;" horiz-adv-x="1562" 
d="M684 793q93 72 128.5 143.5t35.5 179.5q0 104 -44.5 161.5t-129.5 57.5q-80 0 -130 -57.5t-50 -149.5q0 -80 46 -158t144 -177zM506 686q-93 -59 -136.5 -136t-43.5 -190q0 -126 80 -202t206 -76q83 0 149.5 36t129.5 111q-63 109 -169.5 235.5t-215.5 221.5zM1024 410
q71 161 157.5 250.5t172.5 89.5q75 0 116 -41t41 -109q0 -55 -35.5 -92t-91.5 -37q-49 0 -83.5 34t-34.5 81q0 29 12 47l-6 6q-116 -52 -221 -260q90 -158 158.5 -221.5t144.5 -63.5q59 0 137 60l16 -19q-162 -170 -301 -170q-67 0 -118 26t-90 73.5t-87 132.5
q-164 -232 -417 -232q-185 0 -288.5 101t-103.5 253q0 265 377 394q-85 91 -125.5 160t-40.5 153q0 151 102 245.5t279 94.5q152 0 243 -76.5t91 -189.5q0 -102 -73 -180.5t-236 -155.5q206 -180 305 -354z" />
    <glyph glyph-name="quotesingle" unicode="'" horiz-adv-x="516" 
d="M166 881l-27 10l41 233q45 218 58 248q30 70 98 70q49 0 79.5 -33t30.5 -76q0 -22 -10 -49q-24 -57 -135 -213z" />
    <glyph glyph-name="parenleft" unicode="(" horiz-adv-x="784" 
d="M831 -340q-100 41 -193.5 99.5t-183.5 145.5t-156.5 189t-107 236.5t-40.5 281.5t40.5 281.5t107 237t156.5 189.5t183.5 145.5t193.5 99.5l13 -25q-113 -66 -195 -143.5t-146.5 -186.5t-97 -258.5t-32.5 -339.5t32.5 -339.5t97 -258.5t146.5 -186t195 -143z" />
    <glyph glyph-name="parenright" unicode=")" horiz-adv-x="784" 
d="M-49 -340l-12 25q114 66 196 143t147 186t97.5 258.5t32.5 339.5q0 153 -22 280t-61 223t-100 176t-130.5 138.5t-159.5 110.5l12 25q100 -41 193.5 -99.5t184 -145.5t157 -189.5t107 -237t40.5 -281.5t-40.5 -281.5t-107 -236.5t-157 -189t-184 -145.5t-193.5 -99.5z
" />
    <glyph glyph-name="asterisk" unicode="*" horiz-adv-x="866" 
d="M545 791q-34 -11 -61 7t-40 60q-10 32 -10 250l-18 6q-3 -4 -30 -41.5t-46 -62.5t-43 -54t-37 -38q-74 -52 -117 6q-21 27 -13.5 57.5t42.5 56.5q23 16 103.5 43.5t132.5 42.5v21q-209 68 -234 86q-35 24 -43.5 56.5t12.5 58.5q45 60 117 4q13 -9 37 -38t43 -55t45.5 -62
t30.5 -42l18 6q0 218 10 252q13 41 40 58t61 8q32 -9 42.5 -39.5t-1.5 -73.5q-11 -45 -142 -209l13 -12q8 2 111 33.5t130 31.5q43 0 68 -19t25 -54q0 -36 -24.5 -55t-68.5 -19q-20 0 -68 13t-104.5 31t-68.5 21l-13 -12q131 -173 142 -213q12 -40 1.5 -69t-42.5 -41z" />
    <glyph glyph-name="plus" unicode="+" horiz-adv-x="1138" 
d="M111 645v45h434v432h53v-432h430v-45h-430v-438h-53v438h-434z" />
    <glyph glyph-name="comma" unicode="," horiz-adv-x="477" 
d="M59 -309l-14 24q104 52 168 130.5t72 146.5l-9 4q-26 -16 -59 -16q-50 0 -85.5 34.5t-35.5 87.5q0 57 37.5 97.5t93.5 40.5q73 0 115.5 -49t42.5 -128q0 -119 -83 -215t-243 -157z" />
    <glyph glyph-name="hyphen" unicode="-" horiz-adv-x="749" 
d="M113 489v84h524v-84h-524z" />
    <glyph glyph-name="period" unicode="." horiz-adv-x="477" 
d="M240 -33q-60 0 -101 39.5t-41 95.5q0 57 41 97.5t101 40.5q58 0 97.5 -40t39.5 -96q0 -57 -39.5 -97t-97.5 -40z" />
    <glyph glyph-name="slash" unicode="/" horiz-adv-x="935" 
d="M16 -440l435 983l426 985h61l-434 -985l-426 -983h-62z" />
    <glyph glyph-name="zero" unicode="0" horiz-adv-x="1255" 
d="M627 -29q-158 0 -283.5 92.5t-194.5 253t-69 357.5q0 195 72 358t198 257.5t279 94.5q158 0 283.5 -93t194.5 -253t69 -356q0 -195 -72 -358t-198 -258t-279 -95zM637 8q151 0 212.5 154t61.5 516q0 355 -69.5 512.5t-223.5 157.5q-151 0 -213.5 -154.5t-62.5 -515.5
q0 -356 70 -513t225 -157z" />
    <glyph glyph-name="one" unicode="1" horiz-adv-x="870" 
d="M76 0v27q145 1 201.5 29.5t56.5 99.5v985q0 65 -19 97.5t-74.5 49t-168.5 19.5v24l491 41v-1216q0 -71 55.5 -99.5t202.5 -29.5v-27h-745z" />
    <glyph glyph-name="two" unicode="2" horiz-adv-x="1146" 
d="M104 0v143l320 265q208 166 285 296.5t77 311.5q0 332 -249 332q-73 0 -145.5 -36t-102.5 -93q117 -50 117 -156q0 -63 -38.5 -108.5t-105.5 -45.5q-68 0 -109.5 45.5t-41.5 112.5q0 92 64.5 165.5t167.5 112.5t220 39q223 0 346 -104.5t123 -265.5q0 -133 -104.5 -256.5
t-372.5 -319.5l-309 -235v-10h530q112 0 158 40t92 177l27 -2l-6 -408h-943z" />
    <glyph glyph-name="three" unicode="3" horiz-adv-x="1140" 
d="M532 -29q-190 0 -324 77t-134 198q0 66 41.5 111.5t107.5 45.5q64 0 99.5 -42.5t35.5 -100.5q0 -48 -27.5 -84.5t-66.5 -58.5q29 -43 103.5 -76t167.5 -33q144 0 211 85t67 261q0 164 -85.5 241t-278.5 77h-60v45h37q198 0 275 80.5t77 257.5q0 151 -62.5 222t-191.5 71
q-68 0 -132.5 -30t-98.5 -75q40 -14 71 -52t31 -89q0 -58 -35.5 -101t-99.5 -43q-63 0 -103 41.5t-40 104.5q0 121 127 200.5t311 79.5q226 0 348.5 -90t122.5 -233q0 -122 -107 -219t-327 -142v-6q223 -8 346 -95t123 -239q0 -171 -140 -280t-389 -109z" />
    <glyph glyph-name="four" unicode="4" horiz-adv-x="1189" 
d="M1157 422h-289v-270q0 -66 45.5 -94.5t145.5 -30.5v-27h-619v27q99 2 149 31t50 94v270h-594v94l680 840h143v-797h289v-137zM631 1157l-477 -598h485v598h-8z" />
    <glyph glyph-name="five" unicode="5" horiz-adv-x="1124" 
d="M537 -29q-114 0 -213.5 31t-164.5 95t-65 147q0 66 41.5 111.5t108.5 45.5q62 0 97.5 -40t35.5 -95q0 -52 -33 -93.5t-72 -59.5q30 -42 98.5 -73.5t149.5 -31.5q149 0 213 100.5t64 305.5q0 358 -279 358q-150 0 -299 -102l-39 18l25 668h801l-29 -205h-731l-17 -430
q72 48 161 74t173 26q243 0 363.5 -111t120.5 -292q0 -86 -35.5 -166.5t-99.5 -143t-161.5 -100t-213.5 -37.5z" />
    <glyph glyph-name="six" unicode="6" horiz-adv-x="1171" 
d="M606 -29q-229 0 -373.5 158t-144.5 408q0 343 219 559q128 128 286.5 197.5t410.5 97.5v-25q-301 -73 -468 -236t-204 -452l8 -2q39 98 136.5 155.5t211.5 57.5q182 0 297 -114t115 -296q0 -140 -58.5 -255t-172.5 -184t-263 -69zM616 6q127 0 182.5 110t55.5 330
q0 201 -54.5 296.5t-168.5 95.5q-58 0 -110 -25t-94.5 -74t-67.5 -132.5t-25 -190.5q0 -196 78 -303t204 -107z" />
    <glyph glyph-name="seven" unicode="7" horiz-adv-x="1071" 
d="M209 -20v14l711 1171h-572q-94 0 -134 -45.5t-83 -197.5h-25l15 434h923v-23l-354 -778l-254 -575h-227z" />
    <glyph glyph-name="eight" unicode="8" 
d="M84 317q0 105 84.5 196t226.5 146q-133 63 -202.5 147t-69.5 200q0 107 62 194.5t165 135.5t223 48q190 0 320.5 -89.5t130.5 -225.5q0 -105 -75 -181t-220 -138q172 -69 255 -161t83 -222q0 -82 -42 -157t-109.5 -126.5t-154 -82t-175.5 -30.5q-230 0 -366 96t-136 250z
M502 616q-33 11 -53 21q-77 -50 -120.5 -130.5t-43.5 -176.5q0 -148 76 -235t210 -87q130 0 205.5 65.5t75.5 207.5q0 115 -84 191.5t-266 143.5zM330 1090q0 -110 81.5 -182t252.5 -134l24 -10q73 51 104 120.5t31 168.5q0 134 -68 213.5t-188 79.5q-110 0 -173.5 -63
t-63.5 -193z" />
    <glyph glyph-name="nine" unicode="9" horiz-adv-x="1171" 
d="M170 -37v25q293 69 463 235t207 455l-9 2q-37 -98 -129 -155.5t-198 -57.5q-185 0 -308.5 117.5t-123.5 308.5q0 131 62.5 242.5t180.5 180t267 68.5q231 0 366 -156.5t135 -414.5q0 -336 -217 -553q-128 -128 -286.5 -198.5t-409.5 -98.5zM563 518q50 0 98 27t88.5 77.5
t65.5 133t25 182.5q0 197 -72 304.5t-193 107.5q-128 0 -193 -113t-65 -322q0 -397 246 -397z" />
    <glyph glyph-name="colon" unicode=":" horiz-adv-x="489" 
d="M246 561q-60 0 -100 39t-40 96q0 58 40 98t100 40q58 0 97.5 -40t39.5 -96q0 -57 -39.5 -97t-97.5 -40zM246 -33q-59 0 -99.5 39.5t-40.5 95.5q0 58 40 98t100 40q58 0 97.5 -40t39.5 -96q0 -57 -39.5 -97t-97.5 -40z" />
    <glyph glyph-name="semicolon" unicode=";" horiz-adv-x="489" 
d="M246 561q-60 0 -100 39t-40 96q0 58 40 98t100 40q58 0 97.5 -40t39.5 -96q0 -57 -39.5 -97t-97.5 -40zM66 -309l-15 24q104 52 168 130.5t72 146.5l-8 4q-26 -16 -60 -16q-50 0 -84.5 34.5t-34.5 87.5q0 57 36.5 97.5t92.5 40.5q73 0 115.5 -49t42.5 -128
q0 -120 -82.5 -215.5t-242.5 -156.5z" />
    <glyph glyph-name="less" unicode="&#x3c;" horiz-adv-x="1136" 
d="M172 641v49l795 436v-61l-734 -399l734 -398v-61z" />
    <glyph glyph-name="equal" unicode="=" horiz-adv-x="1138" 
d="M121 440v45h897v-45h-897zM121 846v45h897v-45h-897z" />
    <glyph glyph-name="greater" unicode="&#x3e;" horiz-adv-x="1136" 
d="M967 643l-795 -436v61l731 400l-731 397v61l795 -434v-49z" />
    <glyph glyph-name="question" unicode="?" horiz-adv-x="985" 
d="M393 397v326q94 26 155.5 61t96.5 85t48.5 109t13.5 142q0 326 -267 326q-79 0 -142.5 -33.5t-94.5 -85.5q59 -17 90 -56t31 -93q0 -60 -37.5 -104t-104.5 -44t-110 45.5t-43 112.5q0 86 59.5 154t160 104.5t222.5 36.5q218 0 345.5 -105t127.5 -258q0 -158 -127.5 -264
t-367.5 -160v-299h-56zM424 -33q-59 0 -99 39.5t-40 95.5q0 57 40.5 97.5t100.5 40.5q58 0 97.5 -40t39.5 -96q0 -57 -40.5 -97t-98.5 -40z" />
    <glyph glyph-name="at" unicode="@" horiz-adv-x="1861" 
d="M961 -299q-240 0 -430 102.5t-298 293t-108 438.5q0 185 65 346t179.5 275t277.5 179.5t352 65.5q201 0 370 -88.5t268.5 -248t99.5 -355.5q0 -140 -41.5 -254.5t-109 -185t-149 -108.5t-167.5 -38q-129 0 -187.5 44t-68.5 126h-6q-60 -76 -120.5 -114t-135.5 -38
q-111 0 -176.5 76t-65.5 207q0 95 40 195t104.5 179.5t153 130t177.5 50.5q72 0 112.5 -28.5t65.5 -84.5h6l31 97l184 18l-98 -289l-84 -299q-32 -106 -3.5 -164.5t110.5 -58.5q66 0 133.5 38t123.5 104.5t91 170.5t35 224q0 181 -91 331t-252.5 237t-359.5 87
q-178 0 -332 -64.5t-260 -174.5t-166.5 -260t-60.5 -318q0 -171 56 -318.5t158 -254.5t253.5 -168.5t333.5 -61.5q156 0 275.5 42.5t234.5 125.5l22 -29q-119 -89 -247 -134.5t-295 -45.5zM834 223q96 0 180 142l129 434q-30 133 -131 133q-63 0 -123 -54.5t-100.5 -134
t-65.5 -167.5t-25 -156q0 -93 35.5 -145t100.5 -52z" />
    <glyph glyph-name="A" unicode="A" horiz-adv-x="1404" 
d="M965 195l-123 352h-484l-69 -178q-47 -123 -48 -190.5t40 -101.5t137 -50v-27h-479v27q102 28 166 101t128 237l437 1103h86l458 -1245q39 -107 81.5 -143t158.5 -53v-27h-672v27q143 7 179 43t4 125zM373 588h454l-213 604h-8z" />
    <glyph glyph-name="B" unicode="B" horiz-adv-x="1404" 
d="M68 0v27q128 4 175.5 36t47.5 99v1106q0 66 -48 98.5t-175 36.5v24h643q124 0 221 -19t159 -50.5t102 -76.5t56.5 -93t16.5 -103q0 -59 -23 -111.5t-70.5 -97.5t-129.5 -75.5t-191 -40.5v-8q232 -9 351.5 -100t119.5 -246q0 -63 -18 -119.5t-62 -110t-110.5 -92
t-170 -61.5t-233.5 -23h-661zM530 772h183q165 0 234 77t69 230q0 70 -13.5 122.5t-47 97t-96.5 67.5t-154 23h-175v-617zM530 39h207q97 0 161.5 21.5t101.5 68.5t52 111.5t15 160.5q0 151 -84 241.5t-264 90.5h-189v-694z" />
    <glyph glyph-name="C" unicode="C" horiz-adv-x="1458" 
d="M791 -35q-316 0 -508.5 198.5t-192.5 528.5q0 166 59 310.5t159.5 245t238 157.5t291.5 57q203 0 368 -84l90 97h21v-498h-27q-87 223 -203 334.5t-276 111.5q-94 0 -174 -43t-142.5 -127t-98.5 -222t-36 -316q0 -139 28.5 -253t77 -191t114 -129t136.5 -75.5t148 -23.5
q169 0 293.5 93.5t196.5 250.5l35 -18q-35 -81 -85 -149t-122 -127.5t-172 -93.5t-219 -34z" />
    <glyph glyph-name="D" unicode="D" horiz-adv-x="1570" 
d="M68 0v27q128 4 175.5 36t47.5 99v1106q0 66 -48 98.5t-175 36.5v24h641q186 0 334 -52t243 -145t145 -217.5t50 -273.5q0 -116 -27 -222.5t-86.5 -201.5t-145.5 -164.5t-211.5 -110t-277.5 -40.5h-665zM530 39h138q126 0 214.5 21t153 67.5t102 128t55 194t17.5 273.5
q0 159 -22 274t-63 190.5t-108 120.5t-149 63t-194 18h-144v-1350z" />
    <glyph glyph-name="E" unicode="E" horiz-adv-x="1425" 
d="M68 0v27q128 4 175.5 36t47.5 99v1106q0 66 -48 98.5t-175 36.5v24h1187l7 -460l-29 -4q-32 78 -58.5 133t-58.5 106t-65 83.5t-74.5 57t-90.5 35.5t-110 11h-246v-629h111q131 0 203 60.5t112 219.5h27v-600h-27q-40 159 -112 220t-203 61h-111v-682h242q107 0 184 25
t137.5 84t104.5 137t94 204l29 -2l-10 -487h-1243z" />
    <glyph glyph-name="F" unicode="F" horiz-adv-x="1347" 
d="M68 0v27q128 4 175.5 36t47.5 99v1106q0 65 -47.5 97t-175.5 36v26h1181l17 -471l-27 -2q-50 122 -93 198t-99.5 132.5t-126 80.5t-164.5 24h-226v-648h111q131 0 201 59t110 218h27v-596h-27q-40 159 -110 218.5t-201 59.5h-111v-538q0 -68 48 -99.5t180 -35.5v-27h-690
z" />
    <glyph glyph-name="G" unicode="G" horiz-adv-x="1538" 
d="M834 -35q-147 0 -280 49.5t-237 141t-165.5 235.5t-61.5 320q0 164 62 306t165.5 238.5t238.5 151.5t280 55q205 0 370 -84l92 97h23v-474h-29q-175 422 -475 422q-72 0 -136.5 -23.5t-123.5 -77.5t-101.5 -134.5t-68 -201.5t-25.5 -271q0 -149 27 -270.5t72 -202
t106.5 -135.5t128 -79t138.5 -24q175 0 278 86v387q0 68 -50.5 105t-176.5 41v26h620v-26q-95 -4 -127 -34.5t-32 -111.5v-377q-102 -64 -240 -99.5t-272 -35.5z" />
    <glyph glyph-name="H" unicode="H" horiz-adv-x="1699" 
d="M68 0v27q128 4 175.5 35.5t47.5 97.5v1108q0 67 -47.5 99t-175.5 36v24h671v-24q-86 -3 -132.5 -19t-61.5 -42.5t-15 -73.5v-506h637v506q0 47 -15 73.5t-59.5 42.5t-129.5 19v24h667v-24q-128 -4 -175.5 -36t-47.5 -99v-1108q0 -66 47.5 -97.5t175.5 -35.5v-27h-667v27
q123 4 163.5 33.5t40.5 99.5v559h-637v-559q0 -70 41.5 -99.5t167.5 -33.5v-27h-671z" />
    <glyph glyph-name="I" unicode="I" horiz-adv-x="860" 
d="M82 0v27q133 4 181 36t48 99v1106q0 66 -48.5 98.5t-180.5 36.5v24h696v-24q-132 -4 -180.5 -36.5t-48.5 -98.5v-1106q0 -67 48 -99t181 -36v-27h-696z" />
    <glyph glyph-name="J" unicode="J" horiz-adv-x="1157" 
d="M457 -35q-188 0 -291 75.5t-103 188.5q0 73 43.5 122.5t108.5 49.5q63 0 104 -41.5t41 -103.5q0 -65 -42 -112t-117 -54q83 -76 211 -76t184.5 84t56.5 269v901q0 66 -50.5 98.5t-184.5 36.5v24h694v-24q-127 -4 -174 -36.5t-47 -98.5v-846q0 -220 -109.5 -338.5
t-324.5 -118.5z" />
    <glyph glyph-name="K" unicode="K" horiz-adv-x="1548" 
d="M524 647l486 494q47 49 69.5 90.5t20 77.5t-42.5 60.5t-117 33.5v24h563v-24q-126 -24 -222.5 -89.5t-258.5 -228.5l-209 -204l436 -607q46 -63 72.5 -96t56 -64t55.5 -45t57.5 -24.5t76.5 -17.5v-27h-639v27q114 9 133.5 49.5t-45.5 134.5l-359 508l-133 -131v-428
q0 -70 39.5 -99.5t157.5 -33.5v-27h-660v27q128 4 176 35.5t48 97.5v1108q0 67 -48 99t-176 36v24h672v-24q-86 -3 -132.5 -19t-61.5 -42.5t-15 -73.5v-621z" />
    <glyph glyph-name="L" unicode="L" horiz-adv-x="1296" 
d="M61 0v27q128 4 176 36t48 99v1106q0 65 -48.5 98t-175.5 37v24h674v-24q-91 -3 -137.5 -19.5t-60 -42.5t-13.5 -73v-1229h160q145 0 237.5 39.5t162.5 132.5t141 270l28 -2l-20 -479h-1172z" />
    <glyph glyph-name="M" unicode="M" horiz-adv-x="1998" 
d="M68 0v27q142 23 194.5 92t52.5 223v832q0 100 -61 163t-186 66v24h514l446 -1103h8l422 1103h471v-24q-126 -4 -174.5 -37t-48.5 -98v-1106q0 -66 48 -98.5t175 -36.5v-27h-667v27q85 3 130.5 19t60.5 42.5t15 73.5v1128h-10l-495 -1292h-48l-538 1296h-10v-952
q0 -155 53.5 -224.5t204.5 -90.5v-27h-557z" />
    <glyph glyph-name="N" unicode="N" horiz-adv-x="1628" 
d="M1300 -31l-931 1227h-2v-854q0 -155 54.5 -224.5t207.5 -90.5v-27h-561v27q143 23 196 92.5t53 222.5v823q0 102 -61.5 167t-187.5 71v24h436l813 -1081h2v741q0 152 -61 223t-214 93v24h564v-24q-141 -24 -190.5 -92.5t-49.5 -223.5v-1118h-68z" />
    <glyph glyph-name="O" unicode="O" horiz-adv-x="1568" 
d="M784 -35q-142 0 -268.5 53.5t-221 148.5t-149.5 236t-55 308q0 165 56.5 307t152 238.5t221.5 151t264 54.5q141 0 267.5 -53t220.5 -148t149.5 -236.5t55.5 -307.5q0 -165 -57 -307t-152 -238.5t-221 -151.5t-263 -55zM793 4q99 0 172.5 36.5t128.5 118t83.5 220
t28.5 334.5q0 158 -20.5 279.5t-57.5 202.5t-91.5 132.5t-119 73.5t-143.5 22q-99 0 -172.5 -36.5t-128.5 -117.5t-83 -219.5t-28 -334.5q0 -158 20.5 -280t57 -202.5t91.5 -132.5t119 -74t143 -22z" />
    <glyph glyph-name="P" unicode="P" horiz-adv-x="1337" 
d="M68 0v27q128 4 175.5 36t47.5 99v1106q0 66 -48 98.5t-175 36.5v24h608q592 0 592 -393q0 -65 -18.5 -122.5t-63 -110t-112 -90t-172 -60t-236.5 -22.5h-136v-467q0 -70 49 -100.5t189 -34.5v-27h-700zM530 668h138q103 0 171 23.5t104.5 74t50.5 114t14 156.5
q0 82 -15 142.5t-51 110t-102.5 75t-163.5 25.5h-146v-721z" />
    <glyph glyph-name="Q" unicode="Q" horiz-adv-x="1568" 
d="M793 8q99 0 172.5 36.5t129 117t83.5 219t28 334.5q0 157 -20.5 278.5t-57.5 202t-91.5 132t-119 73.5t-143.5 22q-99 0 -172.5 -36t-128.5 -116.5t-83 -219t-28 -334.5q0 -197 30.5 -336.5t89.5 -220t135 -116.5t176 -36zM868 -27q56 -20 110 -62.5t94.5 -88t79.5 -88.5
t81 -71t84 -28q55 0 55 54q0 16 -11 30.5t-26.5 27t-31 26.5t-26.5 35t-11 45q0 47 31 80.5t83 33.5q55 0 91 -42t36 -101q0 -110 -90.5 -183t-230.5 -73q-78 0 -148.5 32.5t-121.5 79t-97 92.5t-94.5 78.5t-95.5 32.5q-65 0 -132.5 -37.5t-152.5 -117.5l-22 24
q173 185 335 228q-120 21 -223.5 82t-180 153.5t-120 221t-43.5 276.5q0 164 56.5 305.5t152 238t221.5 151t264 54.5q141 0 267.5 -53t220.5 -148t149.5 -235.5t55.5 -306.5q0 -202 -84 -367t-221.5 -261.5t-303.5 -117.5z" />
    <glyph glyph-name="R" unicode="R" horiz-adv-x="1462" 
d="M530 737h172q101 0 167 21t102 66t49.5 102.5t13.5 144.5q0 76 -17.5 132.5t-57.5 99.5t-111 64.5t-172 21.5h-146v-652zM530 698v-536q0 -69 45.5 -100t169.5 -35v-27h-677v27q128 4 175.5 36t47.5 99v1106q0 66 -48 98.5t-175 36.5v24h645q154 0 268 -26.5t181.5 -74.5
t99.5 -109t32 -136q0 -295 -434 -360v-6q89 -3 155.5 -21.5t109.5 -47t71.5 -74t43.5 -94.5t24 -116l14 -116q9 -58 19.5 -92t25.5 -59t42 -36.5t60.5 -16t90.5 -5.5v-25q-96 -22 -211 -22q-83 0 -134.5 14t-82.5 48t-44.5 78.5t-21.5 119.5l-21 188q-9 81 -25 128.5
t-52 78.5t-91 42t-147 11h-156z" />
    <glyph glyph-name="S" unicode="S" horiz-adv-x="1187" 
d="M113 -37v512h28q101 -223 217.5 -343t270.5 -120q73 0 131.5 23t95 61t55.5 84.5t19 95.5q0 128 -85.5 198.5t-291.5 141.5q-164 58 -225 91q-150 81 -182 217q-11 43 -11 94q0 199 136 318.5t347 119.5q160 0 308 -70l73 82h25v-456h-29q-86 205 -186 305t-223 100
q-110 0 -188.5 -68t-78.5 -184q0 -52 16.5 -93.5t44.5 -72t77.5 -58.5t101 -48.5t129.5 -46.5q43 -14 66 -22.5t63 -24.5t63 -28.5t56 -32.5t52.5 -40t41.5 -47.5t34 -58t20 -69t8 -81.5q0 -88 -27.5 -169t-83 -150t-153 -110.5t-224.5 -41.5q-85 0 -179.5 26t-164.5 66
l-123 -100h-24z" />
    <glyph glyph-name="T" unicode="T" horiz-adv-x="1433" 
d="M356 0v27q133 4 188.5 37t55.5 98v1227h-80q-112 0 -212 -101.5t-199 -306.5l-29 2l12 444h1256l12 -444l-29 -2q-99 202 -199.5 305t-213.5 103h-80v-1227q0 -65 55 -98t188 -37v-27h-725z" />
    <glyph glyph-name="U" unicode="U" horiz-adv-x="1617" 
d="M825 -35q-268 0 -412.5 115t-144.5 336v852q0 65 -48.5 98t-174.5 37v24h670v-24q-124 -4 -165.5 -35t-41.5 -100v-828q0 -405 416 -405q168 0 262 94q114 114 114 332v626q0 153 -60 223.5t-214 92.5v24h565v-24q-141 -24 -190 -92.5t-49 -223.5v-643
q0 -224 -131 -351.5t-396 -127.5z" />
    <glyph glyph-name="V" unicode="V" horiz-adv-x="1447" 
d="M698 -37l-473 1229q-30 78 -55 115.5t-67.5 60t-120.5 35.5v24h669v-24q-142 -7 -178 -45.5t-2 -128.5l360 -967h11l325 854q53 133 22 197t-167 90v24h477v-24q-107 -23 -166.5 -91t-130.5 -247l-432 -1102h-72z" />
    <glyph glyph-name="W" unicode="W" horiz-adv-x="2109" 
d="M1051 1061l-43 133q-39 120 -82.5 159t-147.5 50v24h625v-24q-126 -7 -158 -42.5t0 -129.5l299 -920h8l252 799q23 74 26.5 123.5t-15.5 83.5t-58 53.5t-106 32.5v24h485v-24q-114 -20 -175 -92t-116 -242l-352 -1106h-72l-346 1032l-373 -1032h-71l-398 1231
q-25 77 -50 115.5t-67.5 59.5t-121.5 34v24h635v-24q-82 -5 -120.5 -25t-43 -56.5t13.5 -90.5l281 -924h8z" />
    <glyph glyph-name="X" unicode="X" horiz-adv-x="1454" 
d="M795 831l219 310q79 110 53.5 179.5t-152.5 82.5v24h521v-24q-80 -13 -137 -43.5t-111 -87.5t-141 -174l-226 -307l389 -592q57 -85 108 -118t171 -54v-27h-674v27q70 4 110 16.5t51.5 35.5t3 51.5t-35.5 70.5l-272 440l-252 -356q-78 -110 -52 -178t150 -80v-27h-522v27
q120 17 192.5 72.5t198.5 228.5l256 352l-358 547q-40 62 -70 92t-78 49.5t-135 34.5v24h676v-24q-86 -4 -126 -27.5t-38 -61.5t37 -93z" />
    <glyph glyph-name="Y" unicode="Y" horiz-adv-x="1386" 
d="M791 682l266 467q74 123 55 175.5t-158 78.5v24h473v-24q-106 -19 -173.5 -75.5t-155.5 -209.5l-281 -481v-475q0 -67 48.5 -99t181.5 -36v-27h-697v27q92 3 143 19.5t69 43.5t18 72v434l-361 637q-46 80 -93.5 115t-139.5 55v24h659v-24q-99 -6 -143.5 -27.5t-42 -58.5
t32.5 -92z" />
    <glyph glyph-name="Z" unicode="Z" horiz-adv-x="1331" 
d="M72 0l-2 23l891 1363h-377q-110 0 -209.5 -93.5t-222.5 -311.5l-27 4l35 442h1091l2 -22l-891 -1364h437q60 0 110 22.5t102 79t99.5 128t118.5 194.5l28 -4l-28 -461h-1157z" />
    <glyph glyph-name="bracketleft" unicode="[" horiz-adv-x="751" 
d="M203 -338v1903h596v-43h-404v-1817h404v-43h-596z" />
    <glyph glyph-name="backslash" unicode="\" horiz-adv-x="935" 
d="M856 -440l-426 983l-434 985h61l426 -985l435 -983h-62z" />
    <glyph glyph-name="bracketright" unicode="]" horiz-adv-x="751" 
d="M-47 -338v43h403v1817h-403v43h596v-1903h-596z" />
    <glyph glyph-name="asciicircum" unicode="^" horiz-adv-x="727" 
d="M47 1096l305 465h35l295 -465h-49l-268 276l-269 -276h-49z" />
    <glyph glyph-name="underscore" unicode="_" horiz-adv-x="901" 
d="M-4 0v63h909v-63h-909z" />
    <glyph glyph-name="grave" unicode="`" horiz-adv-x="487" 
d="M340 1081l-190 183q-57 57 -81 91.5t-24 63.5q0 38 28 64t68 26q45 0 71.5 -37t57.5 -131l97 -260h-27z" />
    <glyph glyph-name="a" unicode="a" horiz-adv-x="1005" 
d="M344 -12q-128 0 -195 66.5t-67 160.5q0 63 30.5 118t92.5 89q67 37 165.5 61.5t177.5 37t95 20.5v147q0 118 -38.5 172.5t-127.5 54.5q-111 0 -170 -59q55 -52 55 -111q0 -55 -31.5 -87.5t-90.5 -32.5q-53 0 -86 34t-33 86q0 92 105 150.5t276 58.5q177 0 265.5 -72.5
t88.5 -228.5v-477q0 -79 33.5 -103t122.5 9l8 -21q-58 -36 -102 -52.5t-95 -16.5q-85 0 -123 36.5t-47 121.5h-8q-140 -162 -301 -162zM463 82q97 0 180 115v305q-136 -27 -207.5 -59.5t-98 -76t-26.5 -116.5q0 -77 38.5 -122.5t113.5 -45.5z" />
    <glyph glyph-name="b" unicode="b" horiz-adv-x="1107" 
d="M131 -31l6 187v1171q0 38 -11 58t-47 32.5t-106 14.5v24l379 12v-647q137 140 310 140q175 0 275.5 -129.5t100.5 -329.5q0 -143 -52.5 -260t-153.5 -187.5t-232 -70.5q-187 0 -328 96l-110 -111h-31zM569 23q119 0 177.5 125.5t58.5 343.5q0 172 -66.5 279.5
t-183.5 107.5q-59 0 -107 -23.5t-96 -75.5v-596q31 -79 89.5 -120t127.5 -41z" />
    <glyph glyph-name="c" unicode="c" horiz-adv-x="950" 
d="M514 -16q-202 0 -325 131t-123 340q0 223 140.5 364.5t352.5 141.5q85 0 154 -21t109 -55t61.5 -71.5t21.5 -74.5q0 -58 -31.5 -94.5t-85.5 -36.5q-61 0 -96 34t-35 87q0 41 20 74.5t46 46.5q-59 74 -158 74q-118 0 -192 -116.5t-74 -315.5q0 -120 33 -214t105.5 -153
t176.5 -59q86 0 153 39t134 122l23 -16q-48 -70 -100 -117t-132 -78.5t-178 -31.5z" />
    <glyph glyph-name="d" unicode="d" horiz-adv-x="1116" 
d="M471 -16q-186 0 -295.5 134.5t-109.5 340.5q0 140 58.5 254t166.5 181t246 67q113 0 208 -50v416q0 57 -30.5 79.5t-132.5 25.5v24l379 12v-1364q0 -41 32 -62t115 -22v-20l-358 -8v112q-117 -120 -279 -120zM571 70q104 0 174 77v670q-75 105 -196 105
q-116 0 -183 -123.5t-67 -329.5q0 -175 71.5 -287t200.5 -112z" />
    <glyph glyph-name="e" unicode="e" horiz-adv-x="991" 
d="M528 -16q-206 0 -334 132.5t-128 344.5q0 107 37 201t100 159t147.5 102.5t177.5 37.5q199 0 305.5 -124t94.5 -313h-629v-47v-4q0 -185 82.5 -296t239.5 -111q91 0 155 42t133 132l23 -17q-69 -112 -165 -175.5t-239 -63.5zM514 922q-93 0 -148 -92.5t-65 -268.5h397
q32 361 -184 361z" />
    <glyph glyph-name="f" unicode="f" horiz-adv-x="673" 
d="M63 0v25q88 2 117 17t29 60v768h-176v27l176 45v78q0 243 115 358q103 103 262 103q127 0 195.5 -47.5t68.5 -118.5q0 -56 -31 -89.5t-86 -33.5q-53 0 -89 32t-36 99q0 19 10.5 47.5t22.5 44.5q-33 29 -76 29q-49 0 -84 -35q-29 -29 -43 -90t-14 -176v-207h260v-64h-260
v-770q0 -45 39 -59.5t155 -17.5v-25h-555z" />
    <glyph glyph-name="g" unicode="g" horiz-adv-x="962" 
d="M508 -377q133 0 223 61.5t90 159.5q0 66 -61.5 101t-206.5 35h-209q-145 -46 -145 -158q0 -91 76.5 -145t232.5 -54zM489 358q85 0 122.5 67t37.5 214q0 131 -45 205t-133 74q-86 0 -123 -67t-37 -212q0 -144 44 -212.5t134 -68.5zM481 954q98 0 187 -39q84 168 206 168
q56 0 87.5 -29t31.5 -75q0 -37 -25 -62.5t-63 -25.5q-36 0 -64 28.5t-28 75.5q-33 -6 -63 -32.5t-50 -63.5q168 -87 168 -256q0 -96 -55 -170t-142.5 -111.5t-189.5 -37.5q-66 0 -135 16q-119 -40 -119 -98q0 -35 42.5 -54.5t154.5 -19.5h160q189 0 281.5 -60t92.5 -190
q0 -136 -134.5 -233t-368.5 -97q-188 0 -302 58t-114 149q0 71 65 123.5t181 69.5v4q-94 25 -136.5 69.5t-42.5 108.5q0 52 49.5 102.5t139.5 83.5q-93 37 -148 107.5t-55 171.5q0 142 115.5 230.5t273.5 88.5z" />
    <glyph glyph-name="h" unicode="h" 
d="M20 0v25q89 2 117.5 16.5t28.5 60.5v1225q0 38 -11 58t-47 32.5t-106 14.5v24l379 12v-741q70 110 160 168.5t192 58.5q122 0 187 -73t65 -213v-566q0 -46 28.5 -60.5t119.5 -16.5v-25h-486v25q73 2 98 17t25 60v523q0 114 -39 169.5t-129 55.5q-127 0 -221 -172v-576
q0 -45 25.5 -60t97.5 -17v-25h-484z" />
    <glyph glyph-name="i" unicode="i" horiz-adv-x="598" 
d="M299 1124q-60 0 -96.5 36t-36.5 97q0 63 36.5 102.5t96.5 39.5q61 0 98 -36.5t37 -98.5t-37 -101t-98 -39zM53 0v25q90 2 120 17t30 60v705q0 49 -33 75t-117 27v25l365 14v-846q0 -46 27.5 -61t121.5 -16v-25h-514z" />
    <glyph glyph-name="j" unicode="j" horiz-adv-x="579" 
d="M299 1124q-60 0 -96.5 36t-36.5 97q0 63 36.5 102.5t96.5 39.5q61 0 98 -36.5t37 -98.5t-37 -101t-98 -39zM78 -412q-115 0 -182.5 43t-67.5 113q0 54 35 88.5t86 34.5q54 0 86.5 -33t32.5 -86q0 -64 -48 -100q26 -23 70 -23q59 0 86 52t27 159v971q0 51 -35.5 76
t-130.5 26v25l381 14v-928q0 -138 -21.5 -214.5t-79.5 -133.5q-81 -84 -239 -84z" />
    <glyph glyph-name="k" unicode="k" horiz-adv-x="1081" 
d="M381 381v-279q0 -45 23 -60t85 -17v-25h-469v25q89 2 117.5 16.5t28.5 60.5v1225q0 38 -11 58t-47 32.5t-106 14.5v24l379 12v-1036l301 309q68 69 52 114t-122 65v24h435v-24q-88 -19 -156.5 -61t-167.5 -138l-111 -111l308 -434q66 -94 99 -119t103 -32v-25h-485v25
q77 7 89.5 35.5t-26.5 82.5l-227 330z" />
    <glyph glyph-name="l" unicode="l" horiz-adv-x="595" 
d="M47 0v25q90 2 119 16.5t29 60.5v1225q0 38 -11 58t-47 32.5t-106 14.5v24l379 12v-1366q0 -46 28 -61t117 -16v-25h-508z" />
    <glyph glyph-name="m" unicode="m" horiz-adv-x="1730" 
d="M655 0v25q71 2 95 17t24 60v523q0 113 -38 169t-124 56q-118 0 -209 -172v-576q0 -46 20.5 -61t88.5 -16v-25h-469v25q88 2 116.5 16.5t28.5 60.5v705q0 50 -31 75.5t-114 26.5v25l356 14v-221q139 227 342 227q102 0 165.5 -55t76.5 -158q67 99 157.5 156t186.5 57
q119 0 183.5 -73t64.5 -213v-566q0 -46 28 -61t117 -16v-25h-471v25q70 1 90.5 16t20.5 61v523q0 114 -37.5 169.5t-122.5 55.5q-52 0 -110 -41t-101 -113v-12v-582q0 -45 26 -60t105 -17v-25h-465z" />
    <glyph glyph-name="n" unicode="n" horiz-adv-x="1161" 
d="M43 0v25q88 2 116.5 16.5t28.5 60.5v705q0 50 -31 75.5t-114 26.5v25l356 14v-221q69 109 161 168t194 59q122 0 187 -73t65 -213v-566q0 -46 28 -61t117 -16v-25h-483v25q72 2 97.5 17t25.5 60v527q0 114 -38 167.5t-128 53.5q-64 0 -122 -46t-100 -126v-576
q0 -45 25 -60t96 -17v-25h-481z" />
    <glyph glyph-name="o" unicode="o" horiz-adv-x="1087" 
d="M545 -16q-208 0 -343.5 134t-135.5 351q0 214 139.5 353t339.5 139q206 0 341.5 -134.5t135.5 -349.5q0 -143 -65 -256.5t-173.5 -175t-238.5 -61.5zM553 23q116 0 172.5 107.5t56.5 342.5q0 449 -247 449q-118 0 -175 -107t-57 -342q0 -450 250 -450z" />
    <glyph glyph-name="p" unicode="p" horiz-adv-x="1118" 
d="M10 -391v24q90 2 118 16.5t28 61.5v1096q0 50 -31.5 75.5t-114.5 26.5v25l357 14v-135q148 148 311 148q174 0 273.5 -132.5t99.5 -343.5q0 -217 -119 -359t-316 -142q-133 0 -245 59v-332q0 -47 38 -61.5t156 -16.5v-24h-555zM582 23q237 0 237 450q0 113 -26.5 203
t-83 145.5t-134.5 55.5q-106 0 -204 -103v-596q59 -155 211 -155z" />
    <glyph glyph-name="q" unicode="q" horiz-adv-x="1112" 
d="M565 -391v22q109 5 149 20.5t40 53.5v406q-141 -127 -299 -127q-179 0 -283 130t-104 328q0 140 54.5 257.5t159.5 189.5t240 72q161 0 314 -101l108 109h31l-6 -187v-1077q0 -39 30 -55t117 -19v-22h-551zM559 70q54 0 98 20t97 64v600q-32 81 -84 124.5t-117 43.5
q-124 0 -188 -128t-64 -341q0 -167 68.5 -275t189.5 -108z" />
    <glyph glyph-name="r" unicode="r" horiz-adv-x="847" 
d="M43 0v25q88 2 116.5 16.5t28.5 60.5v705q0 50 -31 75.5t-114 26.5v25l356 14v-207q55 101 127.5 158t149.5 57q80 0 122 -42.5t42 -106.5q0 -59 -35 -96t-90 -37q-57 0 -93 35.5t-36 91.5q0 31 12 63q-57 -7 -102.5 -48.5t-92.5 -121.5v-592q0 -45 36 -59.5t143 -17.5
v-25h-539z" />
    <glyph glyph-name="s" unicode="s" horiz-adv-x="854" 
d="M78 -16v340h28q100 -173 174.5 -237t182.5 -64q82 0 129 46.5t47 110.5q0 72 -55.5 116.5t-204.5 86.5q-162 46 -229.5 105.5t-67.5 170.5q0 133 94.5 217.5t251.5 84.5q124 0 231 -64l52 64h22v-306h-28q-49 80 -81 124.5t-68 80t-72 49t-83 13.5q-71 0 -118 -44
t-47 -114q0 -63 57 -102.5t182 -71.5q163 -44 236 -109.5t73 -181.5q0 -135 -92.5 -225t-253.5 -90q-60 0 -143 21.5t-127 51.5l-68 -73h-22z" />
    <glyph glyph-name="t" unicode="t" horiz-adv-x="718" 
d="M442 -20q-245 0 -245 272v618h-191v27l191 45v260l215 78v-344h290v-64h-290v-639q0 -92 27.5 -131t90.5 -39q96 0 172 138l25 -17q-101 -204 -285 -204z" />
    <glyph glyph-name="u" unicode="u" 
d="M428 -14q-123 0 -191.5 72t-68.5 214v543q0 49 -32.5 74t-117.5 26v25l365 8v-631q0 -114 38.5 -170.5t127.5 -56.5q129 0 215 168v557q0 49 -32 73t-116 25v25l363 10v-848q0 -41 30.5 -57.5t116.5 -19.5v-23h-358v209q-133 -223 -340 -223z" />
    <glyph glyph-name="v" unicode="v" horiz-adv-x="1003" 
d="M465 -14l-315 780q-33 81 -69.5 113t-109.5 41v24h506v-24q-65 -6 -93 -23.5t-28 -48.5q0 -16 13 -57l219 -576h8l186 471q35 93 35 127q0 46 -35.5 71t-111.5 36v24h372v-24q-116 -16 -182 -177l-317 -757h-78z" />
    <glyph glyph-name="w" unicode="w" horiz-adv-x="1521" 
d="M770 670l-35 96q-29 80 -63.5 112.5t-100.5 41.5v24h490v-24q-67 -6 -97 -26t-30 -58q0 -18 10 -48l193 -565h8l149 457q33 101 33 133q0 49 -32.5 73.5t-104.5 33.5v24h373v-24q-62 -8 -113.5 -52t-79.5 -125l-268 -757h-84l-227 624l-256 -624h-80l-303 780
q-31 79 -68.5 112t-110.5 42v24h502v-24q-125 -11 -125 -82q0 -20 10 -50l213 -569h9z" />
    <glyph glyph-name="x" unicode="x" horiz-adv-x="1042" 
d="M575 561l117 152q47 60 57 102t-15.5 67.5t-86.5 37.5v24h395v-24q-87 -15 -144.5 -54.5t-137.5 -138.5l-160 -199l244 -335q69 -95 107 -125.5t104 -42.5v-25h-490v25q94 12 106 41.5t-36 95.5l-166 244l-141 -181q-71 -92 -55 -138.5t120 -61.5v-25h-399v25
q75 14 130.5 52.5t133.5 133.5l186 227l-229 316q-70 97 -109 126t-112 40v24h489v-24q-87 -13 -96 -43.5t37 -92.5z" />
    <glyph glyph-name="y" unicode="y" horiz-adv-x="1007" 
d="M508 -23l-358 789q-38 82 -75 113.5t-110 40.5v24h508v-24q-88 -7 -110.5 -39.5t6.5 -89.5l241 -572l183 467q46 123 22 171t-135 63v24h371v-24q-113 -16 -183 -177l-336 -819q-78 -188 -154 -262t-169 -74q-72 0 -116 42t-44 104q0 51 31 88t86 37q48 0 81.5 -35.5
t33.5 -87.5q0 -65 -45 -103q69 8 129.5 75.5t130.5 240.5z" />
    <glyph glyph-name="z" unicode="z" horiz-adv-x="962" 
d="M63 0l-4 27l609 876h-209q-87 0 -156 -62t-168 -231l-31 4l29 330h774l4 -29l-606 -874h232q90 0 160.5 66.5t172.5 240.5l29 -4l-29 -344h-807z" />
    <glyph glyph-name="braceleft" unicode="{" horiz-adv-x="835" 
d="M868 -326q-239 0 -373.5 102.5t-134.5 291.5q0 55 18.5 156t18.5 132q0 83 -29 135t-106 84.5t-209 40.5v33q134 9 209.5 39t105 80.5t29.5 132.5q0 31 -18.5 128t-18.5 151q0 186 132.5 281.5t375.5 103.5v-27q-74 -6 -126 -25.5t-83 -46.5t-48 -71.5t-22 -88.5t-5 -108
q0 -26 5 -105t5 -128q0 -107 -36.5 -170t-126.5 -101t-255 -57v-10q234 -21 326 -98t92 -236q0 -49 -5 -133.5t-5 -110.5q0 -64 5 -109t22.5 -90.5t47.5 -73.5t82.5 -48t126.5 -25v-29z" />
    <glyph glyph-name="bar" unicode="|" horiz-adv-x="626" 
d="M287 -440v1968h53v-1968h-53z" />
    <glyph glyph-name="braceright" unicode="}" horiz-adv-x="835" 
d="M-31 -326v29q92 7 150.5 33.5t87 75.5t38 102.5t9.5 134.5q0 26 -5 110.5t-5 133.5q0 159 92 236t326 98v10q-166 19 -256 57t-126 101t-36 170q0 49 5 128t5 105q0 64 -5.5 108.5t-22.5 88.5t-47.5 71t-83 46.5t-126.5 25.5v27q243 -8 375.5 -103.5t132.5 -281.5
q0 -54 -18.5 -151t-18.5 -128q0 -83 29 -133t104 -80t209 -39v-33q-132 -8 -208.5 -40.5t-105 -84.5t-28.5 -135q0 -31 18.5 -132t18.5 -156q0 -189 -134.5 -291.5t-373.5 -102.5z" />
    <glyph glyph-name="asciitilde" unicode="~" horiz-adv-x="813" 
d="M92 565q19 139 65 201.5t134 62.5q41 0 100.5 -26.5t114.5 -53t86 -26.5t54.5 28t41.5 95h39q-19 -137 -66.5 -200.5t-132.5 -63.5q-41 0 -100.5 26.5t-114.5 53t-86 26.5t-54.5 -27.5t-41.5 -95.5h-39z" />
    <glyph glyph-name="uni00A0" unicode="&#xa0;" horiz-adv-x="382" 
 />
    <glyph glyph-name="exclamdown" unicode="&#xa1;" horiz-adv-x="573" 
d="M283 1212q-58 0 -98 39.5t-40 96.5q0 56 41 96.5t99 40.5q59 0 99 -39.5t40 -95.5q0 -57 -40.5 -97.5t-100.5 -40.5zM283 -33q-62 0 -95.5 42.5t-33.5 123.5q0 84 49.5 400.5t64.5 521.5h31q15 -206 65 -522t50 -400q0 -81 -34 -123.5t-97 -42.5z" />
    <glyph glyph-name="cent" unicode="&#xa2;" horiz-adv-x="1089" 
d="M575 -176v160q-206 7 -325 138.5t-119 338.5q0 202 126.5 340t317.5 157v142h54v-139q112 -1 199 -40t128 -92.5t41 -107.5q0 -58 -31 -96.5t-85 -38.5q-61 0 -94 34t-33 87q0 41 18.5 72t46.5 48q-21 38 -72 67.5t-116 29.5h-2v-854q32 -4 51 -4q90 0 159.5 41.5
t137.5 125.5l22 -16q-69 -104 -156 -164t-214 -67v-162h-54zM365 498q0 -159 53 -269t157 -147v836q-96 -26 -153 -133t-57 -287z" />
    <glyph glyph-name="sterling" unicode="&#xa3;" horiz-adv-x="1243" 
d="M942 719v-43h-324q27 -76 27 -144q0 -161 -170 -286q18 -4 111.5 -28t165.5 -35t151 -11q107 0 165.5 51.5t74.5 184.5l35 -2q0 -196 -86 -316.5t-232 -120.5q-86 0 -196 61.5t-224 166.5q-36 -105 -93 -166.5t-132 -61.5q-56 0 -89.5 33.5t-33.5 81.5q0 73 73 124.5
t195 51.5q32 0 66 -6q23 50 23 125q0 50 -14.5 105.5t-27 83.5t-43.5 91q-5 11 -8 17h-235v43h215q-64 135 -64 239q0 197 137 311.5t347 114.5q155 0 260.5 -78t105.5 -194q0 -63 -35.5 -106t-93.5 -43q-66 0 -105.5 38t-39.5 107q0 88 96 141q-77 99 -209 99
q-106 0 -172.5 -67t-66.5 -204q0 -50 12 -103t23.5 -84t38 -91t34.5 -80h338z" />
    <glyph glyph-name="yen" unicode="&#xa5;" horiz-adv-x="1411" 
d="M166 633v43h366l-280 485q-45 75 -93.5 110.5t-138.5 57.5v27h650v-27q-74 -4 -115.5 -17.5t-52.5 -38.5t-5 -52t27 -68l269 -491l213 380q77 136 57 196t-152 91v27h465v-27q-89 -18 -160.5 -80t-142.5 -188l-217 -385h369v-43h-394l-18 -35v-119h412v-43h-412v-270
q0 -68 46.5 -101.5t182.5 -37.5v-27h-692v27q136 4 183 37.5t47 101.5v270h-414v43h414v117l-23 37h-391z" />
    <glyph glyph-name="brokenbar" unicode="&#xa6;" horiz-adv-x="626" 
d="M340 690h-53v838h53v-838zM287 397h53v-837h-53v837z" />
    <glyph glyph-name="section" unicode="&#xa7;" 
d="M145 494q0 99 69 176.5t196 113.5v2q-117 53 -175.5 116t-58.5 155q0 148 119 237.5t301 89.5q147 0 258 -64.5t111 -158.5q0 -59 -32.5 -95t-86.5 -36q-57 0 -91 35t-34 84q0 83 78 117q-22 31 -77 54t-138 23q-111 0 -182.5 -51t-71.5 -139q0 -69 75 -118.5t267 -121.5
q179 -65 254 -129t75 -178q0 -96 -58.5 -171t-178.5 -116v-2q117 -50 166 -110.5t49 -161.5q0 -155 -110.5 -246.5t-305.5 -91.5q-83 0 -159 15.5t-137 44.5t-97.5 76t-36.5 106q0 61 34 102t97 41q60 0 93.5 -36t33.5 -89q0 -86 -88 -131q30 -38 105 -63t170 -25
q119 0 189.5 56t70.5 137q0 75 -70 127t-270 120q-92 32 -150.5 59t-108 62.5t-72 80.5t-22.5 104zM707 342q78 26 118.5 65.5t40.5 86.5q0 70 -63.5 119.5t-222.5 107.5q-66 20 -117 43q-174 -50 -174 -166q0 -74 67.5 -117t266.5 -110z" />
    <glyph glyph-name="dieresis" unicode="&#xa8;" horiz-adv-x="718" 
d="M549 1092q-55 0 -91 37t-36 92q0 56 36 94.5t91 38.5t91 -38.5t36 -94.5q0 -55 -36 -92t-91 -37zM170 1092q-56 0 -91.5 37t-35.5 92q0 56 35.5 94.5t91.5 38.5q55 0 90 -38.5t35 -94.5q0 -55 -35 -92t-90 -37z" />
    <glyph glyph-name="copyright" unicode="&#xa9;" horiz-adv-x="1708" 
d="M854 -70q-163 0 -308.5 60.5t-249.5 164.5t-165 250t-61 310q0 162 61 307t165 249t249.5 165t308.5 61t308.5 -61t249.5 -165t165 -249t61 -307q0 -164 -61 -310t-165 -250t-249.5 -164.5t-308.5 -60.5zM854 -35q156 0 294.5 59.5t236.5 160t155 239t57 291.5
q0 205 -96.5 376t-267.5 271t-379 100t-379 -100t-267.5 -271t-96.5 -376q0 -153 57 -291.5t155 -239t236.5 -160t294.5 -59.5zM864 305q-182 0 -288.5 106t-106.5 296q0 195 121 312.5t299 117.5q120 0 205 -56l43 58h24v-299h-31q-54 136 -114 200t-144 64
q-101 0 -164 -98t-63 -275t74.5 -274t183.5 -97q178 0 258 189l31 -14q-41 -98 -122.5 -164t-205.5 -66z" />
    <glyph glyph-name="ordfeminine" unicode="&#xaa;" horiz-adv-x="901" 
d="M307 682q-99 0 -153 51.5t-54 124.5q0 112 95 162q50 28 124 45.5t135.5 27t75.5 15.5v119q0 85 -27 122t-93 37q-89 0 -125 -36q41 -41 41 -86q0 -44 -25.5 -71.5t-73.5 -27.5q-39 0 -65.5 29t-26.5 68q0 70 80 113.5t219 43.5q138 0 206.5 -55t68.5 -174v-359
q0 -58 25.5 -76t90.5 7l9 -21q-86 -55 -156 -55q-68 0 -98.5 27.5t-38.5 91.5h-6q-107 -123 -228 -123zM403 764q35 0 70.5 22.5t56.5 55.5v231q-143 -27 -191 -66t-48 -120q0 -57 28.5 -90t83.5 -33z" />
    <glyph glyph-name="guillemotleft" unicode="&#xab;" horiz-adv-x="1036" 
d="M915 57l-385 349q-26 25 -33.5 35t-7.5 20q0 17 41 53l385 348l25 -18l-264 -383l264 -387zM500 57l-383 349q-28 25 -35.5 34.5t-7.5 20.5q0 17 43 53l383 348l24 -18l-264 -383l264 -387z" />
    <glyph glyph-name="registered" unicode="&#xae;" horiz-adv-x="788" 
d="M391 866q-134 0 -223.5 91t-89.5 227q0 137 89 225t224 88q139 0 228.5 -88t89.5 -225t-90 -227.5t-228 -90.5zM391 891q127 0 207 83.5t80 209.5t-79.5 207.5t-207.5 81.5q-127 0 -204.5 -81.5t-77.5 -207.5q0 -127 77.5 -210t204.5 -83zM358 1202h33q42 0 58 17.5
t16 58.5q0 35 -18 50t-62 15h-27v-141zM358 1186v-121q0 -27 50 -27v-14h-164v14q49 0 49 27v256q0 12 -10 17t-39 5v17h149q144 0 144 -80q0 -34 -21.5 -54.5t-73.5 -27.5v-4q45 -4 63 -21t21 -51l4 -45q1 -22 13.5 -30.5t38.5 -8.5v-14q-24 -4 -43 -4q-45 0 -59.5 13.5
t-16.5 49.5l-2 37q-1 36 -18 51t-54 15h-31z" />
    <glyph glyph-name="macron" unicode="&#xaf;" horiz-adv-x="657" 
d="M37 1143v88h584v-88h-584z" />
    <glyph glyph-name="degree" unicode="&#xb0;" horiz-adv-x="782" 
d="M393 881q-136 0 -220.5 82t-84.5 208q0 125 86.5 210t216.5 85q135 0 218 -81t83 -207t-85 -211.5t-214 -85.5zM395 920q77 0 118.5 64t41.5 190q0 124 -45.5 188.5t-124.5 64.5q-76 0 -117 -63.5t-41 -187.5q0 -126 45.5 -191t122.5 -65z" />
    <glyph glyph-name="plusminus" unicode="&#xb1;" horiz-adv-x="1085" 
d="M121 643v45h397v395h53v-395h394v-45h-394v-401h-53v401h-397zM121 0v45h844v-45h-844z" />
    <glyph glyph-name="acute" unicode="&#xb4;" horiz-adv-x="487" 
d="M102 1081l97 260q31 94 57.5 131t71.5 37q40 0 68 -26t28 -64q0 -29 -24.5 -63t-82.5 -92l-188 -183h-27z" />
    <glyph glyph-name="paragraph" unicode="&#xb6;" horiz-adv-x="1378" 
d="M760 -205v576q-187 4 -332.5 62t-231 169.5t-85.5 261.5q0 219 171.5 355.5t473.5 136.5h542v-25q-103 -5 -152.5 -17t-68 -34t-18.5 -66v-1419h-53v1520h-191v-1520h-55z" />
    <glyph glyph-name="periodcentered" unicode="&#xb7;" horiz-adv-x="477" 
d="M240 528q-60 0 -101 40.5t-41 97.5q0 56 41.5 96.5t100.5 40.5q58 0 97.5 -40t39.5 -97q0 -56 -39.5 -97t-97.5 -41z" />
    <glyph glyph-name="cedilla" unicode="&#xb8;" horiz-adv-x="577" 
d="M229 -514q-125 0 -211 61l21 33q77 -49 160 -49q116 0 116 113q0 53 -42.5 83.5t-112.5 30.5q-40 0 -76 -10l-12 19l250 227h53l-148 -139l4 -7q117 -1 176.5 -53t59.5 -125q0 -79 -66.5 -131.5t-171.5 -52.5z" />
    <glyph glyph-name="ordmasculine" unicode="&#xba;" horiz-adv-x="921" 
d="M463 682q-167 0 -270 100t-103 265q0 164 106 268t267 104q164 0 266 -100.5t102 -265.5q0 -164 -104.5 -267.5t-263.5 -103.5zM469 715q88 0 128 80.5t40 255.5q0 173 -45 253t-137 80q-90 0 -129 -78.5t-39 -254.5q0 -174 44.5 -255t137.5 -81z" />
    <glyph glyph-name="guillemotright" unicode="&#xbb;" horiz-adv-x="1036" 
d="M535 57l-25 19l266 383l-266 387l25 16l385 -348q26 -25 33.5 -35t7.5 -20q0 -17 -41 -53zM121 57l-25 19l264 383l-264 387l25 16l383 -348q28 -25 35.5 -34.5t7.5 -20.5q0 -17 -43 -53z" />
    <glyph glyph-name="questiondown" unicode="&#xbf;" horiz-adv-x="985" 
d="M559 1210q-58 0 -98.5 40t-40.5 96q0 57 40.5 97t98.5 40q59 0 99 -39.5t40 -95.5q0 -57 -40.5 -97.5t-98.5 -40.5zM512 -33q-145 0 -254 50.5t-164 132t-55 180.5q0 158 128.5 264t369.5 160v299h55v-326q-94 -26 -155.5 -61t-96 -85t-48 -109t-13.5 -142
q0 -326 264 -326q80 0 144 33.5t95 85.5q-60 17 -91.5 56t-31.5 93q0 60 38.5 104t105.5 44q65 0 108 -45.5t43 -112.5q0 -130 -127 -212.5t-315 -82.5z" />
    <glyph glyph-name="Agrave" unicode="&#xc0;" horiz-adv-x="1404" 
d="M965 195l-123 352h-484l-69 -178q-47 -123 -48 -190.5t40 -101.5t137 -50v-27h-479v27q102 28 166 101t128 237l437 1103h86l458 -1245q39 -107 81.5 -143t158.5 -53v-27h-672v27q143 7 179 43t4 125zM373 588h454l-213 604h-8zM772 1573l-190 182q-57 57 -81 91.5
t-24 64.5q0 38 28 64t68 26q45 0 71.5 -37t57.5 -131l97 -260h-27z" />
    <glyph glyph-name="Aacute" unicode="&#xc1;" horiz-adv-x="1404" 
d="M965 195l-123 352h-484l-69 -178q-47 -123 -48 -190.5t40 -101.5t137 -50v-27h-479v27q102 28 166 101t128 237l437 1103h86l458 -1245q39 -107 81.5 -143t158.5 -53v-27h-672v27q143 7 179 43t4 125zM373 588h454l-213 604h-8zM637 1573l96 260q31 94 57.5 131t71.5 37
q40 0 68 -26t28 -64q0 -29 -24.5 -64t-81.5 -92l-188 -182h-27z" />
    <glyph glyph-name="Acircumflex" unicode="&#xc2;" horiz-adv-x="1404" 
d="M965 195l-123 352h-484l-69 -178q-47 -123 -48 -190.5t40 -101.5t137 -50v-27h-479v27q102 28 166 101t128 237l437 1103h86l458 -1245q39 -107 81.5 -143t158.5 -53v-27h-672v27q143 7 179 43t4 125zM373 588h454l-213 604h-8zM422 1567l278 393h27l260 -393h-33
l-247 190l-252 -190h-33z" />
    <glyph glyph-name="Atilde" unicode="&#xc3;" horiz-adv-x="1404" 
d="M965 195l-123 352h-484l-69 -178q-47 -123 -48 -190.5t40 -101.5t137 -50v-27h-479v27q102 28 166 101t128 237l437 1103h86l458 -1245q39 -107 81.5 -143t158.5 -53v-27h-672v27q143 7 179 43t4 125zM373 588h454l-213 604h-8zM379 1569q18 137 63.5 200.5t132.5 63.5
q52 0 166.5 -51t149.5 -51q69 0 102 122h33q-19 -136 -66 -200t-131 -64q-52 0 -166 51.5t-149 51.5q-69 0 -102 -123h-33z" />
    <glyph glyph-name="Adieresis" unicode="&#xc4;" horiz-adv-x="1404" 
d="M965 195l-123 352h-484l-69 -178q-47 -123 -48 -190.5t40 -101.5t137 -50v-27h-479v27q102 28 166 101t128 237l437 1103h86l458 -1245q39 -107 81.5 -143t158.5 -53v-27h-672v27q143 7 179 43t4 125zM373 588h454l-213 604h-8zM895 1583q-55 0 -91 37t-36 92
q0 56 36 94.5t91 38.5t91 -38.5t36 -94.5q0 -55 -36 -92t-91 -37zM516 1583q-56 0 -91.5 37t-35.5 92q0 56 35.5 94.5t91.5 38.5q55 0 90 -38.5t35 -94.5q0 -55 -35 -92t-90 -37z" />
    <glyph glyph-name="Aring" unicode="&#xc5;" horiz-adv-x="1404" 
d="M709 1460q55 0 83.5 48t28.5 134q0 181 -114 181q-113 0 -113 -181q0 -86 30 -134t85 -48zM358 547l-69 -178q-47 -123 -48 -190.5t40 -101.5t137 -50v-27h-479v27q102 28 166 101t128 237l422 1069q-82 13 -130 71t-48 137q0 91 64 152t168 61q103 0 166 -61t63 -152
q0 -76 -46.5 -133.5t-123.5 -72.5l446 -1213q39 -107 81.5 -143t158.5 -53v-27h-672v27q143 7 179 43t4 125l-123 352h-484zM827 588l-213 604h-8l-233 -604h454z" />
    <glyph glyph-name="AE" unicode="&#xc6;" horiz-adv-x="2125" 
d="M492 573l-158 -247q-80 -126 -80 -191q0 -83 135 -108v-27h-475v27q195 48 381 335l557 865q29 50 29 78q0 38 -53 61.5t-171 36.5v24h1299l6 -460l-29 -4q-39 94 -70.5 157t-71 118t-83.5 85.5t-101 48t-130 17.5h-246v-629h110q131 0 202.5 60.5t111.5 219.5h26v-600
h-26q-40 159 -111.5 220t-202.5 61h-110v-682h242q107 0 184 25t137.5 84t104.5 137t94 204l28 -2l-10 -487h-1243v27q128 4 175.5 36t47.5 99v411h-499zM991 614v738h-8l-467 -738h475z" />
    <glyph glyph-name="Ccedilla" unicode="&#xc7;" horiz-adv-x="1458" 
d="M791 -35q-316 0 -508.5 198.5t-192.5 528.5q0 166 59 310.5t159.5 245t238 157.5t291.5 57q203 0 368 -84l90 97h21v-498h-27q-87 223 -203 334.5t-276 111.5q-94 0 -174 -43t-142.5 -127t-98.5 -222t-36 -316q0 -139 28.5 -253t77 -191t114 -129t136.5 -75.5t148 -23.5
q169 0 293.5 93.5t196.5 250.5l35 -18q-34 -76 -80 -140t-111 -122t-155 -95t-195 -45l-119 -112l4 -7q117 -1 176.5 -53t59.5 -125q0 -79 -66.5 -131.5t-171.5 -52.5q-125 0 -211 61l21 33q77 -49 159 -49q59 0 88 29.5t29 83.5q0 53 -42.5 83.5t-112.5 30.5q-40 0 -76 -10
l-13 19z" />
    <glyph glyph-name="Egrave" unicode="&#xc8;" horiz-adv-x="1425" 
d="M68 0v27q128 4 175.5 36t47.5 99v1106q0 66 -48 98.5t-175 36.5v24h1187l7 -460l-29 -4q-32 78 -58.5 133t-58.5 106t-65 83.5t-74.5 57t-90.5 35.5t-110 11h-246v-629h111q131 0 203 60.5t112 219.5h27v-600h-27q-40 159 -112 220t-203 61h-111v-682h242q107 0 184 25
t137.5 84t104.5 137t94 204l29 -2l-10 -487h-1243zM805 1573l-191 182q-56 56 -80 91t-24 65q0 38 28 64t68 26q45 0 71.5 -37t57.5 -131l96 -260h-26z" />
    <glyph glyph-name="Eacute" unicode="&#xc9;" horiz-adv-x="1425" 
d="M672 1573l96 260q31 94 57.5 131t71.5 37q40 0 68 -26t28 -64q0 -29 -24.5 -64t-81.5 -92l-189 -182h-26zM68 0v27q128 4 175.5 36t47.5 99v1106q0 66 -48 98.5t-175 36.5v24h1187l7 -460l-29 -4q-32 78 -58.5 133t-58.5 106t-65 83.5t-74.5 57t-90.5 35.5t-110 11h-246
v-629h111q131 0 203 60.5t112 219.5h27v-600h-27q-40 159 -112 220t-203 61h-111v-682h242q107 0 184 25t137.5 84t104.5 137t94 204l29 -2l-10 -487h-1243z" />
    <glyph glyph-name="Ecircumflex" unicode="&#xca;" horiz-adv-x="1425" 
d="M418 1573l278 393h27l260 -393h-33l-248 190l-251 -190h-33zM68 0v27q128 4 175.5 36t47.5 99v1106q0 66 -48 98.5t-175 36.5v24h1187l7 -460l-29 -4q-32 78 -58.5 133t-58.5 106t-65 83.5t-74.5 57t-90.5 35.5t-110 11h-246v-629h111q131 0 203 60.5t112 219.5h27v-600
h-27q-40 159 -112 220t-203 61h-111v-682h242q107 0 184 25t137.5 84t104.5 137t94 204l29 -2l-10 -487h-1243z" />
    <glyph glyph-name="Edieresis" unicode="&#xcb;" horiz-adv-x="1425" 
d="M920 1583q-55 0 -91 37t-36 92q0 56 36 94.5t91 38.5t91 -38.5t36 -94.5q0 -55 -36 -92t-91 -37zM541 1583q-56 0 -91.5 37t-35.5 92q0 56 35.5 94.5t91.5 38.5q55 0 90 -38.5t35 -94.5q0 -55 -35 -92t-90 -37zM68 0v27q128 4 175.5 36t47.5 99v1106q0 66 -48 98.5
t-175 36.5v24h1187l7 -460l-29 -4q-32 78 -58.5 133t-58.5 106t-65 83.5t-74.5 57t-90.5 35.5t-110 11h-246v-629h111q131 0 203 60.5t112 219.5h27v-600h-27q-40 159 -112 220t-203 61h-111v-682h242q107 0 184 25t137.5 84t104.5 137t94 204l29 -2l-10 -487h-1243z" />
    <glyph glyph-name="Igrave" unicode="&#xcc;" horiz-adv-x="860" 
d="M82 0v27q133 4 181 36t48 99v1106q0 66 -48.5 98.5t-180.5 36.5v24h696v-24q-132 -4 -180.5 -36.5t-48.5 -98.5v-1106q0 -67 48 -99t181 -36v-27h-696zM514 1573l-190 182q-57 57 -81 91.5t-24 64.5q0 38 28 64t68 26q45 0 71.5 -37t57.5 -131l97 -260h-27z" />
    <glyph glyph-name="Iacute" unicode="&#xcd;" horiz-adv-x="860" 
d="M82 0v27q133 4 181 36t48 99v1106q0 66 -48.5 98.5t-180.5 36.5v24h696v-24q-132 -4 -180.5 -36.5t-48.5 -98.5v-1106q0 -67 48 -99t181 -36v-27h-696zM367 1573l96 260q31 94 57.5 131t71.5 37q40 0 68 -26t28 -64q0 -29 -24.5 -64t-81.5 -92l-189 -182h-26z" />
    <glyph glyph-name="Icircumflex" unicode="&#xce;" horiz-adv-x="860" 
d="M82 0v27q133 4 181 36t48 99v1106q0 66 -48.5 98.5t-180.5 36.5v24h696v-24q-132 -4 -180.5 -36.5t-48.5 -98.5v-1106q0 -67 48 -99t181 -36v-27h-696zM147 1573l279 393h27l260 -393h-33l-248 190l-252 -190h-33z" />
    <glyph glyph-name="Idieresis" unicode="&#xcf;" horiz-adv-x="860" 
d="M82 0v27q133 4 181 36t48 99v1106q0 66 -48.5 98.5t-180.5 36.5v24h696v-24q-132 -4 -180.5 -36.5t-48.5 -98.5v-1106q0 -67 48 -99t181 -36v-27h-696zM623 1583q-55 0 -91 37t-36 92q0 56 36 94.5t91 38.5t91 -38.5t36 -94.5q0 -55 -36 -92t-91 -37zM244 1583
q-56 0 -91.5 37t-35.5 92q0 56 35.5 94.5t91.5 38.5q55 0 90 -38.5t35 -94.5q0 -55 -35 -92t-90 -37z" />
    <glyph glyph-name="Eth" unicode="&#xd0;" horiz-adv-x="1570" 
d="M68 0v27q128 4 175.5 36t47.5 99v555h-211v53h211v498q0 66 -48 98.5t-175 36.5v24h641q186 0 334 -52t243 -145t145 -217.5t50 -273.5q0 -116 -27 -222.5t-86.5 -201.5t-145.5 -164.5t-211.5 -110t-277.5 -40.5h-665zM530 39h138q126 0 214.5 21t153 67.5t102 128
t55 194t17.5 273.5q0 159 -22 274t-63 190.5t-108 120.5t-149 63t-194 18h-144v-619h281v-53h-281v-678z" />
    <glyph glyph-name="Ntilde" unicode="&#xd1;" horiz-adv-x="1628" 
d="M1300 -31l-931 1227h-2v-854q0 -155 54.5 -224.5t207.5 -90.5v-27h-561v27q143 23 196 92.5t53 222.5v823q0 102 -61.5 167t-187.5 71v24h436l813 -1081h2v741q0 152 -61 223t-214 93v24h564v-24q-141 -24 -190.5 -92.5t-49.5 -223.5v-1118h-68zM547 1569
q18 137 63.5 200.5t132.5 63.5q52 0 166.5 -51t149.5 -51q69 0 102 122h33q-19 -136 -66 -200t-131 -64q-52 0 -166 51.5t-149 51.5q-69 0 -102 -123h-33z" />
    <glyph glyph-name="Ograve" unicode="&#xd2;" horiz-adv-x="1568" 
d="M784 -35q-142 0 -268.5 53.5t-221 148.5t-149.5 236t-55 308q0 165 56.5 307t152 238.5t221.5 151t264 54.5q141 0 267.5 -53t220.5 -148t149.5 -236.5t55.5 -307.5q0 -165 -57 -307t-152 -238.5t-221 -151.5t-263 -55zM793 4q99 0 172.5 36.5t128.5 118t83.5 220
t28.5 334.5q0 158 -20.5 279.5t-57.5 202.5t-91.5 132.5t-119 73.5t-143.5 22q-99 0 -172.5 -36.5t-128.5 -117.5t-83 -219.5t-28 -334.5q0 -158 20.5 -280t57 -202.5t91.5 -132.5t119 -74t143 -22zM846 1573l-191 182q-56 56 -80 91t-24 65q0 38 28 64t68 26q45 0 71.5 -37
t57.5 -131l96 -260h-26z" />
    <glyph glyph-name="Oacute" unicode="&#xd3;" horiz-adv-x="1568" 
d="M713 1573l96 260q31 94 57.5 131t71.5 37q40 0 68 -26t28 -64q0 -29 -24.5 -64t-81.5 -92l-189 -182h-26zM784 -35q-142 0 -268.5 53.5t-221 148.5t-149.5 236t-55 308q0 165 56.5 307t152 238.5t221.5 151t264 54.5q141 0 267.5 -53t220.5 -148t149.5 -236.5
t55.5 -307.5q0 -165 -57 -307t-152 -238.5t-221 -151.5t-263 -55zM793 4q99 0 172.5 36.5t128.5 118t83.5 220t28.5 334.5q0 158 -20.5 279.5t-57.5 202.5t-91.5 132.5t-119 73.5t-143.5 22q-99 0 -172.5 -36.5t-128.5 -117.5t-83 -219.5t-28 -334.5q0 -158 20.5 -280
t57 -202.5t91.5 -132.5t119 -74t143 -22z" />
    <glyph glyph-name="Ocircumflex" unicode="&#xd4;" horiz-adv-x="1568" 
d="M502 1573l278 393h27l260 -393h-33l-248 190l-251 -190h-33zM784 -35q-142 0 -268.5 53.5t-221 148.5t-149.5 236t-55 308q0 165 56.5 307t152 238.5t221.5 151t264 54.5q141 0 267.5 -53t220.5 -148t149.5 -236.5t55.5 -307.5q0 -165 -57 -307t-152 -238.5t-221 -151.5
t-263 -55zM793 4q99 0 172.5 36.5t128.5 118t83.5 220t28.5 334.5q0 158 -20.5 279.5t-57.5 202.5t-91.5 132.5t-119 73.5t-143.5 22q-99 0 -172.5 -36.5t-128.5 -117.5t-83 -219.5t-28 -334.5q0 -158 20.5 -280t57 -202.5t91.5 -132.5t119 -74t143 -22z" />
    <glyph glyph-name="Otilde" unicode="&#xd5;" horiz-adv-x="1568" 
d="M784 -35q-142 0 -268.5 53.5t-221 148.5t-149.5 236t-55 308q0 165 56.5 307t152 238.5t221.5 151t264 54.5q141 0 267.5 -53t220.5 -148t149.5 -236.5t55.5 -307.5q0 -165 -57 -307t-152 -238.5t-221 -151.5t-263 -55zM793 4q99 0 172.5 36.5t128.5 118t83.5 220
t28.5 334.5q0 158 -20.5 279.5t-57.5 202.5t-91.5 132.5t-119 73.5t-143.5 22q-99 0 -172.5 -36.5t-128.5 -117.5t-83 -219.5t-28 -334.5q0 -158 20.5 -280t57 -202.5t91.5 -132.5t119 -74t143 -22zM487 1569q17 137 63.5 200.5t133.5 63.5q52 0 166 -51t149 -51
q70 0 103 122h33q-19 -136 -66 -200t-131 -64q-52 0 -166 51.5t-149 51.5q-70 0 -103 -123h-33z" />
    <glyph glyph-name="Odieresis" unicode="&#xd6;" horiz-adv-x="1568" 
d="M973 1583q-55 0 -91 37t-36 92q0 56 36 94.5t91 38.5t91 -38.5t36 -94.5q0 -55 -36 -92t-91 -37zM594 1583q-56 0 -91.5 37t-35.5 92q0 56 35.5 94.5t91.5 38.5q55 0 90 -38.5t35 -94.5q0 -55 -35 -92t-90 -37zM784 -35q-142 0 -268.5 53.5t-221 148.5t-149.5 236
t-55 308q0 165 56.5 307t152 238.5t221.5 151t264 54.5q141 0 267.5 -53t220.5 -148t149.5 -236.5t55.5 -307.5q0 -165 -57 -307t-152 -238.5t-221 -151.5t-263 -55zM793 4q99 0 172.5 36.5t128.5 118t83.5 220t28.5 334.5q0 158 -20.5 279.5t-57.5 202.5t-91.5 132.5
t-119 73.5t-143.5 22q-99 0 -172.5 -36.5t-128.5 -117.5t-83 -219.5t-28 -334.5q0 -158 20.5 -280t57 -202.5t91.5 -132.5t119 -74t143 -22z" />
    <glyph glyph-name="multiply" unicode="&#xd7;" horiz-adv-x="1138" 
d="M934 1063l35 -35l-365 -364l365 -365l-35 -35l-365 365l-364 -365l-35 35l365 365l-365 364l35 35l364 -365z" />
    <glyph glyph-name="Oslash" unicode="&#xd8;" horiz-adv-x="1568" 
d="M784 -35q-258 0 -444 160l-160 -199h-69l190 236q-100 99 -155.5 239t-55.5 310q0 165 56.5 307t152 238.5t221.5 151t264 54.5q254 0 443 -159l162 198h69l-192 -237q100 -100 155.5 -239.5t55.5 -307.5q0 -165 -57 -307t-152 -238.5t-221 -151.5t-263 -55zM793 4
q99 0 172.5 36.5t128.5 118t83.5 220t28.5 334.5q0 258 -53 415l-717 -886q102 -238 357 -238zM774 1423q-99 0 -172.5 -36.5t-128.5 -117.5t-83 -219.5t-28 -334.5q0 -252 52 -416l716 885q-102 239 -356 239z" />
    <glyph glyph-name="Ugrave" unicode="&#xd9;" horiz-adv-x="1617" 
d="M825 -35q-268 0 -412.5 115t-144.5 336v852q0 65 -48.5 98t-174.5 37v24h670v-24q-124 -4 -165.5 -35t-41.5 -100v-828q0 -405 416 -405q168 0 262 94q114 114 114 332v626q0 153 -60 223.5t-214 92.5v24h565v-24q-141 -24 -190 -92.5t-49 -223.5v-643
q0 -224 -131 -351.5t-396 -127.5zM907 1573l-190 182q-57 57 -81 91.5t-24 64.5q0 38 28.5 64t68.5 26q45 0 71.5 -37t57.5 -131l96 -260h-27z" />
    <glyph glyph-name="Uacute" unicode="&#xda;" horiz-adv-x="1617" 
d="M799 1573l96 260q31 94 57.5 131t71.5 37q40 0 68 -26t28 -64q0 -29 -24.5 -64t-81.5 -92l-189 -182h-26zM825 -35q-268 0 -412.5 115t-144.5 336v852q0 65 -48.5 98t-174.5 37v24h670v-24q-124 -4 -165.5 -35t-41.5 -100v-828q0 -405 416 -405q168 0 262 94
q114 114 114 332v626q0 153 -60 223.5t-214 92.5v24h565v-24q-141 -24 -190 -92.5t-49 -223.5v-643q0 -224 -131 -351.5t-396 -127.5z" />
    <glyph glyph-name="Ucircumflex" unicode="&#xdb;" horiz-adv-x="1617" 
d="M600 1573l279 393h26l260 -393h-32l-248 190l-252 -190h-33zM825 -35q-268 0 -412.5 115t-144.5 336v852q0 65 -48.5 98t-174.5 37v24h670v-24q-124 -4 -165.5 -35t-41.5 -100v-828q0 -405 416 -405q168 0 262 94q114 114 114 332v626q0 153 -60 223.5t-214 92.5v24h565
v-24q-141 -24 -190 -92.5t-49 -223.5v-643q0 -224 -131 -351.5t-396 -127.5z" />
    <glyph glyph-name="Udieresis" unicode="&#xdc;" horiz-adv-x="1617" 
d="M1042 1583q-55 0 -91 37t-36 92q0 56 36 94.5t91 38.5t91 -38.5t36 -94.5q0 -55 -36 -92t-91 -37zM664 1583q-56 0 -91.5 37t-35.5 92q0 56 35.5 94.5t91.5 38.5q55 0 89.5 -38.5t34.5 -94.5q0 -55 -34.5 -92t-89.5 -37zM825 -35q-268 0 -412.5 115t-144.5 336v852
q0 65 -48.5 98t-174.5 37v24h670v-24q-124 -4 -165.5 -35t-41.5 -100v-828q0 -405 416 -405q168 0 262 94q114 114 114 332v626q0 153 -60 223.5t-214 92.5v24h565v-24q-141 -24 -190 -92.5t-49 -223.5v-643q0 -224 -131 -351.5t-396 -127.5z" />
    <glyph glyph-name="Yacute" unicode="&#xdd;" horiz-adv-x="1386" 
d="M791 682l266 467q74 123 55 175.5t-158 78.5v24h473v-24q-106 -19 -173.5 -75.5t-155.5 -209.5l-281 -481v-475q0 -67 48.5 -99t181.5 -36v-27h-697v27q92 3 143 19.5t69 43.5t18 72v434l-361 637q-46 80 -93.5 115t-139.5 55v24h659v-24q-99 -6 -143.5 -27.5t-42 -58.5
t32.5 -92zM729 1573l96 260q31 94 57.5 131t71.5 37q40 0 68.5 -26t28.5 -64q0 -29 -24.5 -63.5t-82.5 -92.5l-188 -182h-27z" />
    <glyph glyph-name="Thorn" unicode="&#xde;" horiz-adv-x="1343" 
d="M68 0v27q128 4 175.5 36t47.5 99v1106q0 67 -47.5 99t-175.5 36v24h700v-24q-141 -4 -189.5 -35t-48.5 -102v-136h146q592 0 592 -393q0 -65 -18.5 -122t-63 -110t-112 -90.5t-172 -60t-236.5 -22.5h-136v-170q0 -70 49 -100.5t189 -34.5v-27h-700zM530 371h138
q104 0 171.5 22.5t104 72t50.5 112.5t14 157q0 81 -15 142t-51 111.5t-102.5 77t-163.5 26.5h-146v-721z" />
    <glyph glyph-name="germandbls" unicode="&#xdf;" horiz-adv-x="1210" 
d="M844 -16q-121 0 -208 53.5t-87 140.5q0 47 28 80t78 33q47 0 74 -31t27 -74q0 -57 -70 -102q21 -29 65 -46.5t101 -17.5q80 0 124 45.5t44 122.5q0 72 -51 124.5t-152 105.5q-58 32 -95 57t-69.5 57t-47.5 70t-15 84q0 52 29.5 98t97.5 111q70 64 92 122.5t22 166.5
q0 129 -53.5 194.5t-154.5 65.5q-106 0 -152.5 -66.5t-46.5 -230.5v-1147h-361v25q88 2 117 17t29 60v768h-176v27l176 45v82q0 222 109.5 339.5t322.5 117.5q190 0 294.5 -76.5t104.5 -196.5q0 -74 -47.5 -133.5t-167.5 -146.5q-56 -39 -77 -69.5t-21 -72.5q0 -29 13.5 -54
t42 -49t54 -40.5t68.5 -41.5q13 -7 19 -11q47 -26 76 -44t65.5 -47.5t56.5 -57t34.5 -66.5t14.5 -84q0 -122 -89 -214.5t-238 -92.5z" />
    <glyph glyph-name="agrave" unicode="&#xe0;" horiz-adv-x="1005" 
d="M344 -12q-128 0 -195 66.5t-67 160.5q0 63 30.5 118t92.5 89q67 37 165.5 61.5t177.5 37t95 20.5v147q0 118 -38.5 172.5t-127.5 54.5q-111 0 -170 -59q55 -52 55 -111q0 -55 -31.5 -87.5t-90.5 -32.5q-53 0 -86 34t-33 86q0 92 105 150.5t276 58.5q177 0 265.5 -72.5
t88.5 -228.5v-477q0 -79 33.5 -103t122.5 9l8 -21q-58 -36 -102 -52.5t-95 -16.5q-85 0 -123 36.5t-47 121.5h-8q-140 -162 -301 -162zM463 82q97 0 180 115v305q-136 -27 -207.5 -59.5t-98 -76t-26.5 -116.5q0 -77 38.5 -122.5t113.5 -45.5zM535 1081l-191 183
q-56 56 -80 90.5t-24 64.5q0 38 28 64t68 26q45 0 71.5 -37t57.5 -131l96 -260h-26z" />
    <glyph glyph-name="aacute" unicode="&#xe1;" horiz-adv-x="1005" 
d="M344 -12q-128 0 -195 66.5t-67 160.5q0 63 30.5 118t92.5 89q67 37 165.5 61.5t177.5 37t95 20.5v147q0 118 -38.5 172.5t-127.5 54.5q-111 0 -170 -59q55 -52 55 -111q0 -55 -31.5 -87.5t-90.5 -32.5q-53 0 -86 34t-33 86q0 92 105 150.5t276 58.5q177 0 265.5 -72.5
t88.5 -228.5v-477q0 -79 33.5 -103t122.5 9l8 -21q-58 -36 -102 -52.5t-95 -16.5q-85 0 -123 36.5t-47 121.5h-8q-140 -162 -301 -162zM463 82q97 0 180 115v305q-136 -27 -207.5 -59.5t-98 -76t-26.5 -116.5q0 -77 38.5 -122.5t113.5 -45.5zM446 1081l97 260
q31 94 57.5 131t71.5 37q40 0 68 -26t28 -64q0 -29 -24 -63t-82 -92l-189 -183h-27z" />
    <glyph glyph-name="acircumflex" unicode="&#xe2;" horiz-adv-x="1005" 
d="M344 -12q-128 0 -195 66.5t-67 160.5q0 63 30.5 118t92.5 89q67 37 165.5 61.5t177.5 37t95 20.5v147q0 118 -38.5 172.5t-127.5 54.5q-111 0 -170 -59q55 -52 55 -111q0 -55 -31.5 -87.5t-90.5 -32.5q-53 0 -86 34t-33 86q0 92 105 150.5t276 58.5q177 0 265.5 -72.5
t88.5 -228.5v-477q0 -79 33.5 -103t122.5 9l8 -21q-58 -36 -102 -52.5t-95 -16.5q-85 0 -123 36.5t-47 121.5h-8q-140 -162 -301 -162zM463 82q97 0 180 115v305q-136 -27 -207.5 -59.5t-98 -76t-26.5 -116.5q0 -77 38.5 -122.5t113.5 -45.5zM229 1081l279 394h27l260 -394
h-33l-248 191l-252 -191h-33z" />
    <glyph glyph-name="atilde" unicode="&#xe3;" horiz-adv-x="1005" 
d="M344 -12q-128 0 -195 66.5t-67 160.5q0 63 30.5 118t92.5 89q67 37 165.5 61.5t177.5 37t95 20.5v147q0 118 -38.5 172.5t-127.5 54.5q-111 0 -170 -59q55 -52 55 -111q0 -55 -31.5 -87.5t-90.5 -32.5q-53 0 -86 34t-33 86q0 92 105 150.5t276 58.5q177 0 265.5 -72.5
t88.5 -228.5v-477q0 -79 33.5 -103t122.5 9l8 -21q-58 -36 -102 -52.5t-95 -16.5q-85 0 -123 36.5t-47 121.5h-8q-140 -162 -301 -162zM463 82q97 0 180 115v305q-136 -27 -207.5 -59.5t-98 -76t-26.5 -116.5q0 -77 38.5 -122.5t113.5 -45.5zM195 1077q18 137 63.5 200.5
t132.5 63.5q52 0 166.5 -51t149.5 -51q69 0 102 123h33q-19 -136 -66 -200t-131 -64q-52 0 -166 51t-149 51q-70 0 -103 -123h-32z" />
    <glyph glyph-name="adieresis" unicode="&#xe4;" horiz-adv-x="1005" 
d="M344 -12q-128 0 -195 66.5t-67 160.5q0 63 30.5 118t92.5 89q67 37 165.5 61.5t177.5 37t95 20.5v147q0 118 -38.5 172.5t-127.5 54.5q-111 0 -170 -59q55 -52 55 -111q0 -55 -31.5 -87.5t-90.5 -32.5q-53 0 -86 34t-33 86q0 92 105 150.5t276 58.5q177 0 265.5 -72.5
t88.5 -228.5v-477q0 -79 33.5 -103t122.5 9l8 -21q-58 -36 -102 -52.5t-95 -16.5q-85 0 -123 36.5t-47 121.5h-8q-140 -162 -301 -162zM463 82q97 0 180 115v305q-136 -27 -207.5 -59.5t-98 -76t-26.5 -116.5q0 -77 38.5 -122.5t113.5 -45.5zM705 1092q-55 0 -91 37t-36 92
q0 56 36 94.5t91 38.5t90.5 -38.5t35.5 -94.5q0 -55 -35.5 -92t-90.5 -37zM326 1092q-56 0 -91.5 37t-35.5 92q0 56 35.5 94.5t91.5 38.5q55 0 90 -38.5t35 -94.5q0 -55 -35 -92t-90 -37z" />
    <glyph glyph-name="aring" unicode="&#xe5;" horiz-adv-x="1005" 
d="M344 -12q-128 0 -195 66.5t-67 160.5q0 63 30.5 118t92.5 89q67 37 165.5 61.5t177.5 37t95 20.5v147q0 118 -38.5 172.5t-127.5 54.5q-111 0 -170 -59q55 -52 55 -111q0 -55 -31.5 -87.5t-90.5 -32.5q-53 0 -86 34t-33 86q0 92 105 150.5t276 58.5q177 0 265.5 -72.5
t88.5 -228.5v-477q0 -79 33.5 -103t122.5 9l8 -21q-58 -36 -102 -52.5t-95 -16.5q-85 0 -123 36.5t-47 121.5h-8q-140 -162 -301 -162zM463 82q97 0 180 115v305q-136 -27 -207.5 -59.5t-98 -76t-26.5 -116.5q0 -77 38.5 -122.5t113.5 -45.5zM512 1092q-105 0 -168 61.5
t-63 153.5q0 90 64 151.5t167 61.5t166 -61t63 -152q0 -92 -63 -153.5t-166 -61.5zM512 1126q55 0 84 47.5t29 133.5q0 92 -28.5 135t-86.5 43q-113 0 -113 -178q0 -85 30 -133t85 -48z" />
    <glyph glyph-name="ae" unicode="&#xe6;" horiz-adv-x="1568" 
d="M1106 961q199 0 305 -123.5t94 -313.5h-628v-47v-4q0 -185 82.5 -296t238.5 -111q91 0 155.5 42.5t133.5 131.5l22 -17q-69 -112 -164.5 -175.5t-238.5 -63.5q-134 0 -236 59.5t-151 167.5h-8q-55 -97 -154.5 -160t-214.5 -63q-127 0 -193.5 66.5t-66.5 160.5
q0 63 30.5 118t92.5 89q66 36 169.5 60.5t188.5 37.5t101 21v147q0 227 -187 227q-111 0 -170 -59q55 -52 55 -111q0 -55 -31.5 -87.5t-90.5 -32.5q-53 0 -86 34t-33 86q0 92 105 150.5t276 58.5q220 0 299 -125q61 62 140.5 97t164.5 35zM1092 922q-93 0 -148 -92.5
t-65 -268.5h397q32 361 -184 361zM463 82q56 0 114.5 36.5t86.5 90.5v291q-204 -40 -278.5 -93t-74.5 -157q0 -77 38.5 -122.5t113.5 -45.5z" />
    <glyph glyph-name="ccedilla" unicode="&#xe7;" horiz-adv-x="950" 
d="M481 -514q-125 0 -211 61l21 33q77 -49 160 -49q116 0 116 113q0 53 -42.5 83.5t-112.5 30.5q-40 0 -76 -10l-12 19l241 219q-8 0 -25.5 -1t-25.5 -1q-202 0 -325 131t-123 340q0 223 140.5 364.5t352.5 141.5q85 0 154 -21t109 -55t61.5 -71.5t21.5 -74.5
q0 -58 -31.5 -94.5t-85.5 -36.5q-61 0 -96 34t-35 87q0 41 20 74.5t46 46.5q-59 74 -158 74q-118 0 -192 -116.5t-74 -315.5q0 -120 33 -214t105.5 -153t176.5 -59q86 0 153 39t134 122l23 -16q-59 -86 -131 -141.5t-170 -75.5h4l-148 -139l4 -7q117 -1 176.5 -53t59.5 -125
q0 -79 -66.5 -131.5t-171.5 -52.5z" />
    <glyph glyph-name="egrave" unicode="&#xe8;" horiz-adv-x="991" 
d="M528 -16q-206 0 -334 132.5t-128 344.5q0 107 37 201t100 159t147.5 102.5t177.5 37.5q199 0 305.5 -124t94.5 -313h-629v-47v-4q0 -185 82.5 -296t239.5 -111q91 0 155 42t133 132l23 -17q-69 -112 -165 -175.5t-239 -63.5zM514 922q-93 0 -148 -92.5t-65 -268.5h397
q32 361 -184 361zM555 1081l-190 183q-57 57 -81 91.5t-24 63.5q0 38 28 64t68 26q45 0 71.5 -37t57.5 -131l97 -260h-27z" />
    <glyph glyph-name="eacute" unicode="&#xe9;" horiz-adv-x="991" 
d="M528 -16q-206 0 -334 132.5t-128 344.5q0 107 37 201t100 159t147.5 102.5t177.5 37.5q199 0 305.5 -124t94.5 -313h-629v-47v-4q0 -185 82.5 -296t239.5 -111q91 0 155 42t133 132l23 -17q-69 -112 -165 -175.5t-239 -63.5zM514 922q-93 0 -148 -92.5t-65 -268.5h397
q32 361 -184 361zM461 1081l96 260q31 94 57.5 131t71.5 37q40 0 68 -26t28 -64q0 -29 -24 -63t-82 -92l-189 -183h-26z" />
    <glyph glyph-name="ecircumflex" unicode="&#xea;" horiz-adv-x="991" 
d="M528 -16q-206 0 -334 132.5t-128 344.5q0 107 37 201t100 159t147.5 102.5t177.5 37.5q199 0 305.5 -124t94.5 -313h-629v-47v-4q0 -185 82.5 -296t239.5 -111q91 0 155 42t133 132l23 -17q-69 -112 -165 -175.5t-239 -63.5zM514 922q-93 0 -148 -92.5t-65 -268.5h397
q32 361 -184 361zM240 1081l278 394h27l260 -394h-33l-248 191l-252 -191h-32z" />
    <glyph glyph-name="edieresis" unicode="&#xeb;" horiz-adv-x="991" 
d="M528 -16q-206 0 -334 132.5t-128 344.5q0 107 37 201t100 159t147.5 102.5t177.5 37.5q199 0 305.5 -124t94.5 -313h-629v-47v-4q0 -185 82.5 -296t239.5 -111q91 0 155 42t133 132l23 -17q-69 -112 -165 -175.5t-239 -63.5zM514 922q-93 0 -148 -92.5t-65 -268.5h397
q32 361 -184 361zM713 1092q-55 0 -91 37t-36 92q0 56 36 94.5t91 38.5t91 -38.5t36 -94.5q0 -55 -36 -92t-91 -37zM334 1092q-56 0 -91.5 37t-35.5 92q0 56 35.5 94.5t91.5 38.5q55 0 90 -38.5t35 -94.5q0 -55 -35 -92t-90 -37z" />
    <glyph glyph-name="igrave" unicode="&#xec;" horiz-adv-x="598" 
d="M49 0v25q90 2 120 17t30 60v705q0 49 -33 75t-117 27v25l365 14v-846q0 -46 28 -61t121 -16v-25h-514zM315 1081l-190 183q-57 57 -81 91.5t-24 63.5q0 38 28.5 64t68.5 26q45 0 71.5 -37t57.5 -131l96 -260h-27z" />
    <glyph glyph-name="iacute" unicode="&#xed;" horiz-adv-x="598" 
d="M207 1081l96 260q31 94 57.5 131t71.5 37q40 0 68 -26t28 -64q0 -29 -24 -63t-82 -92l-189 -183h-26zM49 0v25q90 2 120 17t30 60v705q0 49 -33 75t-117 27v25l365 14v-846q0 -46 28 -61t121 -16v-25h-514z" />
    <glyph glyph-name="icircumflex" unicode="&#xee;" horiz-adv-x="598" 
d="M-8 1081l278 394h27l260 -394h-33l-248 191l-251 -191h-33zM49 0v25q90 2 120 17t30 60v705q0 49 -33 75t-117 27v25l365 14v-846q0 -46 28 -61t121 -16v-25h-514z" />
    <glyph glyph-name="idieresis" unicode="&#xef;" horiz-adv-x="598" 
d="M471 1092q-55 0 -91 37t-36 92q0 56 36 94.5t91 38.5t91 -38.5t36 -94.5q0 -55 -36 -92t-91 -37zM92 1092q-56 0 -91.5 37t-35.5 92q0 56 35.5 94.5t91.5 38.5q55 0 90 -38.5t35 -94.5q0 -55 -35 -92t-90 -37zM49 0v25q90 2 120 17t30 60v705q0 49 -33 75t-117 27v25
l365 14v-846q0 -46 28 -61t121 -16v-25h-514z" />
    <glyph glyph-name="eth" unicode="&#xf0;" horiz-adv-x="1093" 
d="M905 1350l-178 -86q293 -242 293 -629q0 -306 -130 -478.5t-364 -172.5q-89 0 -171 35.5t-144 97.5t-99.5 152t-37.5 192q0 104 39.5 198t103.5 158.5t146 102.5t165 38q161 0 234 -124l8 4q-27 212 -160 370l-250 -121l-16 37l240 115q-117 126 -295 205l12 29
q228 -61 389 -183l199 96zM561 23q219 0 219 487q0 204 -57.5 308t-165.5 104q-112 0 -178 -114.5t-66 -338.5q0 -208 63.5 -327t184.5 -119z" />
    <glyph glyph-name="ntilde" unicode="&#xf1;" horiz-adv-x="1161" 
d="M43 0v25q88 2 116.5 16.5t28.5 60.5v705q0 50 -31 75.5t-114 26.5v25l356 14v-221q69 109 161 168t194 59q122 0 187 -73t65 -213v-566q0 -46 28 -61t117 -16v-25h-483v25q72 2 97.5 17t25.5 60v527q0 114 -38 167.5t-128 53.5q-64 0 -122 -46t-100 -126v-576
q0 -45 25 -60t96 -17v-25h-481zM256 1077q17 137 63.5 200.5t133.5 63.5q52 0 166 -51t149 -51q69 0 102 123h33q-19 -136 -65.5 -200t-130.5 -64q-52 0 -166.5 51t-149.5 51q-69 0 -102 -123h-33z" />
    <glyph glyph-name="ograve" unicode="&#xf2;" horiz-adv-x="1087" 
d="M545 -16q-208 0 -343.5 134t-135.5 351q0 214 139.5 353t339.5 139q206 0 341.5 -134.5t135.5 -349.5q0 -143 -65 -256.5t-173.5 -175t-238.5 -61.5zM553 23q116 0 172.5 107.5t56.5 342.5q0 449 -247 449q-118 0 -175 -107t-57 -342q0 -450 250 -450zM569 1081l-190 183
q-57 57 -81 91.5t-24 63.5q0 38 28.5 64t68.5 26q45 0 71.5 -37t57.5 -131l96 -260h-27z" />
    <glyph glyph-name="oacute" unicode="&#xf3;" horiz-adv-x="1087" 
d="M485 1081l97 260q31 94 57.5 131t71.5 37q40 0 68 -26t28 -64q0 -29 -24.5 -63t-82.5 -92l-188 -183h-27zM545 -16q-208 0 -343.5 134t-135.5 351q0 214 139.5 353t339.5 139q206 0 341.5 -134.5t135.5 -349.5q0 -143 -65 -256.5t-173.5 -175t-238.5 -61.5zM553 23
q116 0 172.5 107.5t56.5 342.5q0 449 -247 449q-118 0 -175 -107t-57 -342q0 -450 250 -450z" />
    <glyph glyph-name="ocircumflex" unicode="&#xf4;" horiz-adv-x="1087" 
d="M264 1081l279 394h26l260 -394h-32l-248 191l-252 -191h-33zM545 -16q-208 0 -343.5 134t-135.5 351q0 214 139.5 353t339.5 139q206 0 341.5 -134.5t135.5 -349.5q0 -143 -65 -256.5t-173.5 -175t-238.5 -61.5zM553 23q116 0 172.5 107.5t56.5 342.5q0 449 -247 449
q-118 0 -175 -107t-57 -342q0 -450 250 -450z" />
    <glyph glyph-name="otilde" unicode="&#xf5;" horiz-adv-x="1087" 
d="M545 -16q-208 0 -343.5 134t-135.5 351q0 214 139.5 353t339.5 139q206 0 341.5 -134.5t135.5 -349.5q0 -143 -65 -256.5t-173.5 -175t-238.5 -61.5zM553 23q116 0 172.5 107.5t56.5 342.5q0 449 -247 449q-118 0 -175 -107t-57 -342q0 -450 250 -450zM219 1077
q17 137 63.5 200.5t133.5 63.5q52 0 166 -51t149 -51q70 0 103 123h32q-19 -136 -65.5 -200t-130.5 -64q-52 0 -166.5 51t-149.5 51q-69 0 -102 -123h-33z" />
    <glyph glyph-name="odieresis" unicode="&#xf6;" horiz-adv-x="1087" 
d="M731 1092q-55 0 -91 37t-36 92q0 56 36 94.5t91 38.5t91 -38.5t36 -94.5q0 -55 -36 -92t-91 -37zM352 1092q-56 0 -91.5 37t-35.5 92q0 56 35.5 94.5t91.5 38.5q55 0 90 -38.5t35 -94.5q0 -55 -35 -92t-90 -37zM545 -16q-208 0 -343.5 134t-135.5 351q0 214 139.5 353
t339.5 139q206 0 341.5 -134.5t135.5 -349.5q0 -143 -65 -256.5t-173.5 -175t-238.5 -61.5zM553 23q116 0 172.5 107.5t56.5 342.5q0 449 -247 449q-118 0 -175 -107t-57 -342q0 -450 250 -450z" />
    <glyph glyph-name="divide" unicode="&#xf7;" horiz-adv-x="1179" 
d="M111 645v45h958v-45h-958zM592 846q-51 0 -86 34.5t-35 84.5t35 84t86 34q50 0 84.5 -34.5t34.5 -83.5t-34.5 -84t-84.5 -35zM592 252q-51 0 -86 34.5t-35 84.5t35 84t86 34q50 0 84.5 -34.5t34.5 -83.5t-34.5 -84t-84.5 -35z" />
    <glyph glyph-name="oslash" unicode="&#xf8;" horiz-adv-x="1087" 
d="M150 -51h-60l125 153q-149 136 -149 367q0 214 139.5 353t339.5 139q165 0 291 -93l102 127h59l-127 -155q72 -64 112 -157.5t40 -205.5q0 -143 -65 -256.5t-173.5 -175t-238.5 -61.5q-171 0 -293 90zM303 473q0 -129 23 -233l417 518q-58 164 -208 164q-118 0 -175 -107
t-57 -342zM553 23q116 0 172.5 107.5t56.5 342.5q0 131 -22 227l-418 -514q58 -163 211 -163z" />
    <glyph glyph-name="ugrave" unicode="&#xf9;" 
d="M428 -14q-123 0 -191.5 72t-68.5 214v543q0 49 -32.5 74t-117.5 26v25l365 8v-631q0 -114 38.5 -170.5t127.5 -56.5q129 0 215 168v557q0 49 -32 73t-116 25v25l363 10v-848q0 -41 30.5 -57.5t116.5 -19.5v-23h-358v209q-133 -223 -340 -223zM604 1081l-190 183
q-57 57 -81 91.5t-24 63.5q0 38 28.5 64t68.5 26q45 0 71.5 -37t57.5 -131l96 -260h-27z" />
    <glyph glyph-name="uacute" unicode="&#xfa;" 
d="M455 1081l96 260q31 94 57.5 131t71.5 37q40 0 68 -26t28 -64q0 -29 -24 -63t-82 -92l-189 -183h-26zM428 -14q-123 0 -191.5 72t-68.5 214v543q0 49 -32.5 74t-117.5 26v25l365 8v-631q0 -114 38.5 -170.5t127.5 -56.5q129 0 215 168v557q0 49 -32 73t-116 25v25l363 10
v-848q0 -41 30.5 -57.5t116.5 -19.5v-23h-358v209q-133 -223 -340 -223z" />
    <glyph glyph-name="ucircumflex" unicode="&#xfb;" 
d="M260 1081l279 394h26l260 -394h-32l-248 191l-252 -191h-33zM428 -14q-123 0 -191.5 72t-68.5 214v543q0 49 -32.5 74t-117.5 26v25l365 8v-631q0 -114 38.5 -170.5t127.5 -56.5q129 0 215 168v557q0 49 -32 73t-116 25v25l363 10v-848q0 -41 30.5 -57.5t116.5 -19.5v-23
h-358v209q-133 -223 -340 -223z" />
    <glyph glyph-name="udieresis" unicode="&#xfc;" 
d="M731 1092q-55 0 -91 37t-36 92q0 56 36 94.5t91 38.5t91 -38.5t36 -94.5q0 -55 -36 -92t-91 -37zM352 1092q-56 0 -91.5 37t-35.5 92q0 56 35.5 94.5t91.5 38.5q55 0 90 -38.5t35 -94.5q0 -55 -35 -92t-90 -37zM428 -14q-123 0 -191.5 72t-68.5 214v543q0 49 -32.5 74
t-117.5 26v25l365 8v-631q0 -114 38.5 -170.5t127.5 -56.5q129 0 215 168v557q0 49 -32 73t-116 25v25l363 10v-848q0 -41 30.5 -57.5t116.5 -19.5v-23h-358v209q-133 -223 -340 -223z" />
    <glyph glyph-name="yacute" unicode="&#xfd;" horiz-adv-x="1007" 
d="M508 -23l-358 789q-38 82 -75 113.5t-110 40.5v24h508v-24q-88 -7 -110.5 -39.5t6.5 -89.5l241 -572l183 467q46 123 22 171t-135 63v24h371v-24q-113 -16 -183 -177l-336 -819q-78 -188 -154 -262t-169 -74q-72 0 -116 42t-44 104q0 51 31 88t86 37q48 0 81.5 -35.5
t33.5 -87.5q0 -65 -45 -103q69 8 129.5 75.5t130.5 240.5zM539 1081l96 260q31 94 57.5 131t71.5 37q40 0 68 -26t28 -64q0 -29 -24 -63t-82 -92l-189 -183h-26z" />
    <glyph glyph-name="thorn" unicode="&#xfe;" horiz-adv-x="1105" 
d="M352 1468v-653q143 146 307 146q174 0 273.5 -132.5t99.5 -343.5q0 -217 -118.5 -359t-315.5 -142q-134 0 -246 59v-332q0 -47 38.5 -61.5t156.5 -16.5v-24h-555v24q90 2 117.5 16.5t27.5 61.5v1616q0 38 -11 58t-47 32.5t-106 14.5v24zM563 23q238 0 238 450
q0 113 -26.5 203t-83 145.5t-134.5 55.5q-107 0 -205 -103v-596q59 -155 211 -155z" />
    <glyph glyph-name="ydieresis" unicode="&#xff;" horiz-adv-x="1007" 
d="M508 -23l-358 789q-38 82 -75 113.5t-110 40.5v24h508v-24q-88 -7 -110.5 -39.5t6.5 -89.5l241 -572l183 467q46 123 22 171t-135 63v24h371v-24q-113 -16 -183 -177l-336 -819q-78 -188 -154 -262t-169 -74q-72 0 -116 42t-44 104q0 51 31 88t86 37q48 0 81.5 -35.5
t33.5 -87.5q0 -65 -45 -103q69 8 129.5 75.5t130.5 240.5zM758 1092q-55 0 -91 37t-36 92q0 56 36 94.5t91 38.5t91 -38.5t36 -94.5q0 -55 -36 -92t-91 -37zM379 1092q-56 0 -91.5 37t-35.5 92q0 56 35.5 94.5t91.5 38.5q55 0 90 -38.5t35 -94.5q0 -55 -35 -92t-90 -37z" />
    <glyph glyph-name="Amacron" unicode="&#x100;" horiz-adv-x="1404" 
d="M965 195l-123 352h-484l-69 -178q-47 -123 -48 -190.5t40 -101.5t137 -50v-27h-479v27q102 28 166 101t128 237l437 1103h86l458 -1245q39 -107 81.5 -143t158.5 -53v-27h-672v27q143 7 179 43t4 125zM373 588h454l-213 604h-8zM414 1634v88h583v-88h-583z" />
    <glyph glyph-name="amacron" unicode="&#x101;" horiz-adv-x="1005" 
d="M344 -12q-128 0 -195 66.5t-67 160.5q0 63 30.5 118t92.5 89q67 37 165.5 61.5t177.5 37t95 20.5v147q0 118 -38.5 172.5t-127.5 54.5q-111 0 -170 -59q55 -52 55 -111q0 -55 -31.5 -87.5t-90.5 -32.5q-53 0 -86 34t-33 86q0 92 105 150.5t276 58.5q177 0 265.5 -72.5
t88.5 -228.5v-477q0 -79 33.5 -103t122.5 9l8 -21q-58 -36 -102 -52.5t-95 -16.5q-85 0 -123 36.5t-47 121.5h-8q-140 -162 -301 -162zM463 82q97 0 180 115v305q-136 -27 -207.5 -59.5t-98 -76t-26.5 -116.5q0 -77 38.5 -122.5t113.5 -45.5zM219 1143v88h584v-88h-584z" />
    <glyph glyph-name="Abreve" unicode="&#x102;" horiz-adv-x="1404" 
d="M965 195l-123 352h-484l-69 -178q-47 -123 -48 -190.5t40 -101.5t137 -50v-27h-479v27q102 28 166 101t128 237l437 1103h86l458 -1245q39 -107 81.5 -143t158.5 -53v-27h-672v27q143 7 179 43t4 125zM373 588h454l-213 604h-8zM707 1583q-115 0 -192 90t-89 236h31
q55 -180 248 -180q192 0 247 180h31q-11 -146 -86 -236t-190 -90z" />
    <glyph glyph-name="abreve" unicode="&#x103;" horiz-adv-x="1005" 
d="M344 -12q-128 0 -195 66.5t-67 160.5q0 63 30.5 118t92.5 89q67 37 165.5 61.5t177.5 37t95 20.5v147q0 118 -38.5 172.5t-127.5 54.5q-111 0 -170 -59q55 -52 55 -111q0 -55 -31.5 -87.5t-90.5 -32.5q-53 0 -86 34t-33 86q0 92 105 150.5t276 58.5q177 0 265.5 -72.5
t88.5 -228.5v-477q0 -79 33.5 -103t122.5 9l8 -21q-58 -36 -102 -52.5t-95 -16.5q-85 0 -123 36.5t-47 121.5h-8q-140 -162 -301 -162zM463 82q97 0 180 115v305q-136 -27 -207.5 -59.5t-98 -76t-26.5 -116.5q0 -77 38.5 -122.5t113.5 -45.5zM510 1092q-115 0 -192 90
t-89 235h31q55 -180 248 -180t248 180h30q-11 -146 -86 -235.5t-190 -89.5z" />
    <glyph glyph-name="Aogonek" unicode="&#x104;" horiz-adv-x="1404" 
d="M1106 -500q-88 0 -143.5 45.5t-55.5 122.5q0 74 46 134t155 147l70 51h-396v27q143 7 179 43t4 125l-123 352h-484l-69 -178q-47 -123 -48 -190.5t40 -101.5t137 -50v-27h-479v27q102 28 166 101t128 237l437 1103h86l458 -1245q39 -107 81.5 -143t158.5 -53v-27h-229
l-47 -51q-109 -124 -109 -248q0 -65 33 -99t88 -34q65 0 131 35l12 -27q-107 -76 -227 -76zM373 588h454l-213 604h-8z" />
    <glyph glyph-name="aogonek" unicode="&#x105;" horiz-adv-x="1005" 
d="M1020 61q-8 -7 -66 -59t-69 -63q-131 -125 -131 -242q0 -62 31.5 -95.5t86.5 -33.5q68 0 134 35l14 -27q-107 -76 -227 -76q-87 0 -143 45.5t-56 118.5q0 77 57 141.5t183 149.5l69 47q-42 -10 -80 -10q-85 0 -123 36.5t-47 121.5h-8q-140 -162 -301 -162
q-128 0 -195 66.5t-67 160.5q0 63 30.5 118t92.5 89q67 37 165.5 61.5t177.5 37t95 20.5v147q0 118 -38.5 172.5t-127.5 54.5q-111 0 -170 -59q55 -52 55 -111q0 -55 -31.5 -87.5t-90.5 -32.5q-53 0 -86 34t-33 86q0 92 105 150.5t276 58.5q177 0 265.5 -72.5t88.5 -228.5
v-477q0 -79 33.5 -103t122.5 9zM463 82q97 0 180 115v305q-136 -27 -207.5 -59.5t-98 -76t-26.5 -116.5q0 -77 38.5 -122.5t113.5 -45.5z" />
    <glyph glyph-name="Cacute" unicode="&#x106;" horiz-adv-x="1458" 
d="M717 1573l96 260q31 94 57.5 131t71.5 37q40 0 68 -26t28 -64q0 -29 -24.5 -64t-81.5 -92l-189 -182h-26zM791 -35q-316 0 -508.5 198.5t-192.5 528.5q0 166 59 310.5t159.5 245t238 157.5t291.5 57q203 0 368 -84l90 97h21v-498h-27q-87 223 -203 334.5t-276 111.5
q-94 0 -174 -43t-142.5 -127t-98.5 -222t-36 -316q0 -139 28.5 -253t77 -191t114 -129t136.5 -75.5t148 -23.5q169 0 293.5 93.5t196.5 250.5l35 -18q-35 -81 -85 -149t-122 -127.5t-172 -93.5t-219 -34z" />
    <glyph glyph-name="cacute" unicode="&#x107;" horiz-adv-x="950" 
d="M434 1081l96 260q31 94 57.5 131t71.5 37q40 0 68.5 -26t28.5 -64q0 -29 -24.5 -63t-82.5 -92l-188 -183h-27zM514 -16q-202 0 -325 131t-123 340q0 223 140.5 364.5t352.5 141.5q85 0 154 -21t109 -55t61.5 -71.5t21.5 -74.5q0 -58 -31.5 -94.5t-85.5 -36.5
q-61 0 -96 34t-35 87q0 41 20 74.5t46 46.5q-59 74 -158 74q-118 0 -192 -116.5t-74 -315.5q0 -120 33 -214t105.5 -153t176.5 -59q86 0 153 39t134 122l23 -16q-48 -70 -100 -117t-132 -78.5t-178 -31.5z" />
    <glyph glyph-name="Cdotaccent" unicode="&#x10a;" horiz-adv-x="1458" 
d="M791 -35q-316 0 -508.5 198.5t-192.5 528.5q0 166 59 310.5t159.5 245t238 157.5t291.5 57q203 0 368 -84l90 97h21v-498h-27q-87 223 -203 334.5t-276 111.5q-94 0 -174 -43t-142.5 -127t-98.5 -222t-36 -316q0 -139 28.5 -253t77 -191t114 -129t136.5 -75.5t148 -23.5
q169 0 293.5 93.5t196.5 250.5l35 -18q-35 -81 -85 -149t-122 -127.5t-172 -93.5t-219 -34zM797 1569q-61 0 -98 36.5t-37 98.5q0 60 37.5 99.5t97.5 39.5q61 0 97 -37.5t36 -99.5q0 -60 -37.5 -98.5t-95.5 -38.5z" />
    <glyph glyph-name="cdotaccent" unicode="&#x10b;" horiz-adv-x="950" 
d="M514 -16q-202 0 -325 131t-123 340q0 223 140.5 364.5t352.5 141.5q85 0 154 -21t109 -55t61.5 -71.5t21.5 -74.5q0 -58 -31.5 -94.5t-85.5 -36.5q-61 0 -96 34t-35 87q0 41 20 74.5t46 46.5q-59 74 -158 74q-118 0 -192 -116.5t-74 -315.5q0 -120 33 -214t105.5 -153
t176.5 -59q86 0 153 39t134 122l23 -16q-48 -70 -100 -117t-132 -78.5t-178 -31.5zM532 1092q-62 0 -98.5 37t-36.5 98q0 60 37.5 99.5t97.5 39.5q61 0 97.5 -37.5t36.5 -99.5q0 -60 -37.5 -98.5t-96.5 -38.5z" />
    <glyph glyph-name="Ccaron" unicode="&#x10c;" horiz-adv-x="1458" 
d="M778 1559l-260 393h33l248 -191l250 191h32l-276 -393h-27zM791 -35q-316 0 -508.5 198.5t-192.5 528.5q0 166 59 310.5t159.5 245t238 157.5t291.5 57q203 0 368 -84l90 97h21v-498h-27q-87 223 -203 334.5t-276 111.5q-94 0 -174 -43t-142.5 -127t-98.5 -222t-36 -316
q0 -139 28.5 -253t77 -191t114 -129t136.5 -75.5t148 -23.5q169 0 293.5 93.5t196.5 250.5l35 -18q-35 -81 -85 -149t-122 -127.5t-172 -93.5t-219 -34z" />
    <glyph glyph-name="ccaron" unicode="&#x10d;" horiz-adv-x="950" 
d="M512 1081l-260 394h33l247 -191l250 191h33l-276 -394h-27zM514 -16q-202 0 -325 131t-123 340q0 223 140.5 364.5t352.5 141.5q85 0 154 -21t109 -55t61.5 -71.5t21.5 -74.5q0 -58 -31.5 -94.5t-85.5 -36.5q-61 0 -96 34t-35 87q0 41 20 74.5t46 46.5q-59 74 -158 74
q-118 0 -192 -116.5t-74 -315.5q0 -120 33 -214t105.5 -153t176.5 -59q86 0 153 39t134 122l23 -16q-48 -70 -100 -117t-132 -78.5t-178 -31.5z" />
    <glyph glyph-name="Dcaron" unicode="&#x10e;" horiz-adv-x="1570" 
d="M756 1573l-260 393h32l248 -190l250 190h33l-277 -393h-26zM68 0v27q128 4 175.5 36t47.5 99v1106q0 66 -48 98.5t-175 36.5v24h641q186 0 334 -52t243 -145t145 -217.5t50 -273.5q0 -116 -27 -222.5t-86.5 -201.5t-145.5 -164.5t-211.5 -110t-277.5 -40.5h-665zM530 39
h138q126 0 214.5 21t153 67.5t102 128t55 194t17.5 273.5q0 159 -22 274t-63 190.5t-108 120.5t-149 63t-194 18h-144v-1350z" />
    <glyph glyph-name="dcaron" unicode="&#x10f;" horiz-adv-x="1116" 
d="M1155 1092l-12 243q-4 74 -4 115q0 61 28.5 88t65.5 27t61.5 -23t24.5 -63q0 -42 -31 -121l-108 -266h-25zM471 -16q-186 0 -295.5 134.5t-109.5 340.5q0 140 58.5 254t166.5 181t246 67q113 0 208 -50v416q0 57 -30.5 79.5t-132.5 25.5v24l379 12v-1364q0 -41 32 -62
t115 -22v-20l-358 -8v112q-117 -120 -279 -120zM571 70q104 0 174 77v670q-75 105 -196 105q-116 0 -183 -123.5t-67 -329.5q0 -175 71.5 -287t200.5 -112z" />
    <glyph glyph-name="Dcroat" unicode="&#x110;" horiz-adv-x="1570" 
d="M68 0v27q128 4 175.5 36t47.5 99v555h-211v53h211v498q0 66 -48 98.5t-175 36.5v24h641q186 0 334 -52t243 -145t145 -217.5t50 -273.5q0 -116 -27 -222.5t-86.5 -201.5t-145.5 -164.5t-211.5 -110t-277.5 -40.5h-665zM530 39h138q126 0 214.5 21t153 67.5t102 128
t55 194t17.5 273.5q0 159 -22 274t-63 190.5t-108 120.5t-149 63t-194 18h-144v-619h281v-53h-281v-678z" />
    <glyph glyph-name="dcroat" unicode="&#x111;" horiz-adv-x="1116" 
d="M471 -16q-186 0 -295.5 134.5t-109.5 340.5q0 140 58.5 254t166.5 181t246 67q113 0 208 -50v260h-270v46h270v110q0 57 -30.5 79.5t-132.5 25.5v24l379 12v-251h143v-46h-143v-1067q0 -41 32 -62t115 -22v-20l-358 -8v112q-117 -120 -279 -120zM571 70q104 0 174 77v670
q-75 105 -196 105q-116 0 -183 -123.5t-67 -329.5q0 -175 71.5 -287t200.5 -112z" />
    <glyph glyph-name="Emacron" unicode="&#x112;" horiz-adv-x="1425" 
d="M68 0v27q128 4 175.5 36t47.5 99v1106q0 66 -48 98.5t-175 36.5v24h1187l7 -460l-29 -4q-32 78 -58.5 133t-58.5 106t-65 83.5t-74.5 57t-90.5 35.5t-110 11h-246v-629h111q131 0 203 60.5t112 219.5h27v-600h-27q-40 159 -112 220t-203 61h-111v-682h242q107 0 184 25
t137.5 84t104.5 137t94 204l29 -2l-10 -487h-1243zM438 1634v88h584v-88h-584z" />
    <glyph glyph-name="emacron" unicode="&#x113;" horiz-adv-x="991" 
d="M528 -16q-206 0 -334 132.5t-128 344.5q0 107 37 201t100 159t147.5 102.5t177.5 37.5q199 0 305.5 -124t94.5 -313h-629v-47v-4q0 -185 82.5 -296t239.5 -111q91 0 155 42t133 132l23 -17q-69 -112 -165 -175.5t-239 -63.5zM514 922q-93 0 -148 -92.5t-65 -268.5h397
q32 361 -184 361zM236 1143v88h583v-88h-583z" />
    <glyph glyph-name="Ebreve" unicode="&#x114;" horiz-adv-x="1425" 
d="M68 0v27q128 4 175.5 36t47.5 99v1106q0 66 -48 98.5t-175 36.5v24h1187l7 -460l-29 -4q-32 78 -58.5 133t-58.5 106t-65 83.5t-74.5 57t-90.5 35.5t-110 11h-246v-629h111q131 0 203 60.5t112 219.5h27v-600h-27q-40 159 -112 220t-203 61h-111v-682h242q107 0 184 25
t137.5 84t104.5 137t94 204l29 -2l-10 -487h-1243zM731 1583q-115 0 -191.5 90t-88.5 236h30q55 -180 248 -180t248 180h31q-11 -146 -86.5 -236t-190.5 -90z" />
    <glyph glyph-name="ebreve" unicode="&#x115;" horiz-adv-x="991" 
d="M528 -16q-206 0 -334 132.5t-128 344.5q0 107 37 201t100 159t147.5 102.5t177.5 37.5q199 0 305.5 -124t94.5 -313h-629v-47v-4q0 -185 82.5 -296t239.5 -111q91 0 155 42t133 132l23 -17q-69 -112 -165 -175.5t-239 -63.5zM514 922q-93 0 -148 -92.5t-65 -268.5h397
q32 361 -184 361zM522 1092q-115 0 -191.5 89.5t-88.5 235.5h30q55 -180 248 -180t248 180h31q-11 -146 -86.5 -235.5t-190.5 -89.5z" />
    <glyph glyph-name="Edotaccent" unicode="&#x116;" horiz-adv-x="1425" 
d="M68 0v27q128 4 175.5 36t47.5 99v1106q0 66 -48 98.5t-175 36.5v24h1187l7 -460l-29 -4q-32 78 -58.5 133t-58.5 106t-65 83.5t-74.5 57t-90.5 35.5t-110 11h-246v-629h111q131 0 203 60.5t112 219.5h27v-600h-27q-40 159 -112 220t-203 61h-111v-682h242q107 0 184 25
t137.5 84t104.5 137t94 204l29 -2l-10 -487h-1243zM729 1583q-61 0 -98 36.5t-37 98.5q0 61 38 100.5t97 39.5q61 0 97 -38t36 -100q0 -60 -37.5 -98.5t-95.5 -38.5z" />
    <glyph glyph-name="edotaccent" unicode="&#x117;" horiz-adv-x="991" 
d="M528 -16q-206 0 -334 132.5t-128 344.5q0 107 37 201t100 159t147.5 102.5t177.5 37.5q199 0 305.5 -124t94.5 -313h-629v-47v-4q0 -185 82.5 -296t239.5 -111q91 0 155 42t133 132l23 -17q-69 -112 -165 -175.5t-239 -63.5zM514 922q-93 0 -148 -92.5t-65 -268.5h397
q32 361 -184 361zM522 1092q-62 0 -98.5 37t-36.5 98q0 60 37.5 99.5t97.5 39.5q61 0 97 -37.5t36 -99.5q0 -60 -37.5 -98.5t-95.5 -38.5z" />
    <glyph glyph-name="Eogonek" unicode="&#x118;" horiz-adv-x="1425" 
d="M68 0v27q128 4 175.5 36t47.5 99v1106q0 66 -48 98.5t-175 36.5v24h1187l7 -460l-29 -4q-32 78 -58.5 133t-58.5 106t-65 83.5t-74.5 57t-90.5 35.5t-110 11h-246v-629h111q131 0 203 60.5t112 219.5h27v-600h-27q-40 159 -112 220t-203 61h-111v-682h242q107 0 184 25
t137.5 84t104.5 137t94 204l29 -2l-10 -487h-133l-48 -51q-108 -123 -108 -248q0 -65 33 -99t88 -34q65 0 131 35l12 -27q-107 -76 -227 -76q-88 0 -143.5 45.5t-55.5 122.5q0 74 46 134t155 147l69 51h-1062z" />
    <glyph glyph-name="eogonek" unicode="&#x119;" horiz-adv-x="991" 
d="M909 240l23 -17q-43 -66 -98 -125q-11 -10 -73 -75t-69 -74q-110 -122 -110 -248q0 -65 32.5 -99t87.5 -34q66 0 132 35l14 -27q-107 -76 -227 -76q-88 0 -143.5 45.5t-55.5 122.5q0 74 46 134t155 147l94 74q-86 -39 -189 -39q-206 0 -334 132.5t-128 344.5
q0 107 37 201t100 159t147.5 102.5t177.5 37.5q199 0 305.5 -124t94.5 -313h-629v-47v-4q0 -185 82.5 -296t239.5 -111q91 0 155 42t133 132zM514 922q-93 0 -148 -92.5t-65 -268.5h397q32 361 -184 361z" />
    <glyph glyph-name="Ecaron" unicode="&#x11a;" horiz-adv-x="1425" 
d="M709 1573l-260 393h32l248 -190l250 190h33l-277 -393h-26zM68 0v27q128 4 175.5 36t47.5 99v1106q0 66 -48 98.5t-175 36.5v24h1187l7 -460l-29 -4q-32 78 -58.5 133t-58.5 106t-65 83.5t-74.5 57t-90.5 35.5t-110 11h-246v-629h111q131 0 203 60.5t112 219.5h27v-600
h-27q-40 159 -112 220t-203 61h-111v-682h242q107 0 184 25t137.5 84t104.5 137t94 204l29 -2l-10 -487h-1243z" />
    <glyph glyph-name="ecaron" unicode="&#x11b;" horiz-adv-x="991" 
d="M528 -16q-206 0 -334 132.5t-128 344.5q0 107 37 201t100 159t147.5 102.5t177.5 37.5q199 0 305.5 -124t94.5 -313h-629v-47v-4q0 -185 82.5 -296t239.5 -111q91 0 155 42t133 132l23 -17q-69 -112 -165 -175.5t-239 -63.5zM514 922q-93 0 -148 -92.5t-65 -268.5h397
q32 361 -184 361zM504 1081l-260 394h32l248 -191l250 191h33l-277 -394h-26z" />
    <glyph glyph-name="Gbreve" unicode="&#x11e;" horiz-adv-x="1538" 
d="M834 -35q-147 0 -280 49.5t-237 141t-165.5 235.5t-61.5 320q0 164 62 306t165.5 238.5t238.5 151.5t280 55q205 0 370 -84l92 97h23v-474h-29q-175 422 -475 422q-72 0 -136.5 -23.5t-123.5 -77.5t-101.5 -134.5t-68 -201.5t-25.5 -271q0 -149 27 -270.5t72 -202
t106.5 -135.5t128 -79t138.5 -24q175 0 278 86v387q0 68 -50.5 105t-176.5 41v26h620v-26q-95 -4 -127 -34.5t-32 -111.5v-377q-102 -64 -240 -99.5t-272 -35.5zM793 1583q-115 0 -192 90t-89 236h31q55 -180 248 -180q192 0 247 180h31q-11 -146 -86 -236t-190 -90z" />
    <glyph glyph-name="gbreve" unicode="&#x11f;" horiz-adv-x="962" 
d="M508 -377q133 0 223 61.5t90 159.5q0 66 -61.5 101t-206.5 35h-209q-145 -46 -145 -158q0 -91 76.5 -145t232.5 -54zM489 358q85 0 122.5 67t37.5 214q0 131 -45 205t-133 74q-86 0 -123 -67t-37 -212q0 -144 44 -212.5t134 -68.5zM481 954q98 0 187 -39q84 168 206 168
q56 0 87.5 -29t31.5 -75q0 -37 -25 -62.5t-63 -25.5q-36 0 -64 28.5t-28 75.5q-33 -6 -63 -32.5t-50 -63.5q168 -87 168 -256q0 -96 -55 -170t-142.5 -111.5t-189.5 -37.5q-66 0 -135 16q-119 -40 -119 -98q0 -35 42.5 -54.5t154.5 -19.5h160q189 0 281.5 -60t92.5 -190
q0 -136 -134.5 -233t-368.5 -97q-188 0 -302 58t-114 149q0 71 65 123.5t181 69.5v4q-94 25 -136.5 69.5t-42.5 108.5q0 52 49.5 102.5t139.5 83.5q-93 37 -148 107.5t-55 171.5q0 142 115.5 230.5t273.5 88.5zM494 1092q-115 0 -192 90t-89 235h31q55 -180 248 -180
q192 0 247 180h31q-11 -146 -86 -235.5t-190 -89.5z" />
    <glyph glyph-name="Gdotaccent" unicode="&#x120;" horiz-adv-x="1538" 
d="M834 -35q-147 0 -280 49.5t-237 141t-165.5 235.5t-61.5 320q0 164 62 306t165.5 238.5t238.5 151.5t280 55q205 0 370 -84l92 97h23v-474h-29q-175 422 -475 422q-72 0 -136.5 -23.5t-123.5 -77.5t-101.5 -134.5t-68 -201.5t-25.5 -271q0 -149 27 -270.5t72 -202
t106.5 -135.5t128 -79t138.5 -24q175 0 278 86v387q0 68 -50.5 105t-176.5 41v26h620v-26q-95 -4 -127 -34.5t-32 -111.5v-377q-102 -64 -240 -99.5t-272 -35.5zM799 1583q-61 0 -98 36.5t-37 98.5q0 61 38 100.5t97 39.5q61 0 97 -38t36 -100q0 -60 -37.5 -98.5
t-95.5 -38.5z" />
    <glyph glyph-name="gdotaccent" unicode="&#x121;" horiz-adv-x="962" 
d="M508 -377q133 0 223 61.5t90 159.5q0 66 -61.5 101t-206.5 35h-209q-145 -46 -145 -158q0 -91 76.5 -145t232.5 -54zM489 358q85 0 122.5 67t37.5 214q0 131 -45 205t-133 74q-86 0 -123 -67t-37 -212q0 -144 44 -212.5t134 -68.5zM481 954q98 0 187 -39q84 168 206 168
q56 0 87.5 -29t31.5 -75q0 -37 -25 -62.5t-63 -25.5q-36 0 -64 28.5t-28 75.5q-33 -6 -63 -32.5t-50 -63.5q168 -87 168 -256q0 -96 -55 -170t-142.5 -111.5t-189.5 -37.5q-66 0 -135 16q-119 -40 -119 -98q0 -35 42.5 -54.5t154.5 -19.5h160q189 0 281.5 -60t92.5 -190
q0 -136 -134.5 -233t-368.5 -97q-188 0 -302 58t-114 149q0 71 65 123.5t181 69.5v4q-94 25 -136.5 69.5t-42.5 108.5q0 52 49.5 102.5t139.5 83.5q-93 37 -148 107.5t-55 171.5q0 142 115.5 230.5t273.5 88.5zM494 1092q-62 0 -99 37t-37 98q0 60 38 99.5t98 39.5
q61 0 97 -37.5t36 -99.5q0 -60 -37.5 -98.5t-95.5 -38.5z" />
    <glyph glyph-name="Gcommaaccent" unicode="&#x122;" horiz-adv-x="1538" 
d="M668 -598l-15 25q165 103 176 229l-8 2q-25 -14 -53 -14q-45 0 -77 31.5t-32 78.5q0 51 34 87t85 36q65 0 103.5 -44.5t38.5 -119.5q0 -94 -66 -175.5t-186 -135.5zM834 -35q-147 0 -280 49.5t-237 141t-165.5 235.5t-61.5 320q0 164 62 306t165.5 238.5t238.5 151.5
t280 55q205 0 370 -84l92 97h23v-474h-29q-175 422 -475 422q-72 0 -136.5 -23.5t-123.5 -77.5t-101.5 -134.5t-68 -201.5t-25.5 -271q0 -149 27 -270.5t72 -202t106.5 -135.5t128 -79t138.5 -24q175 0 278 86v387q0 68 -50.5 105t-176.5 41v26h620v-26q-95 -4 -127 -34.5
t-32 -111.5v-377q-102 -64 -240 -99.5t-272 -35.5z" />
    <glyph glyph-name="gcommaaccent" unicode="&#x123;" horiz-adv-x="962" 
d="M608 1583l15 -24q-166 -104 -177 -230l9 -2q25 14 53 14q45 0 76.5 -31.5t31.5 -78.5q0 -51 -33.5 -87t-84.5 -36q-65 0 -103.5 44.5t-38.5 119.5q0 94 66 175.5t186 135.5zM508 -377q133 0 223 61.5t90 159.5q0 66 -61.5 101t-206.5 35h-209q-145 -46 -145 -158
q0 -91 76.5 -145t232.5 -54zM489 358q85 0 122.5 67t37.5 214q0 131 -45 205t-133 74q-86 0 -123 -67t-37 -212q0 -144 44 -212.5t134 -68.5zM481 954q98 0 187 -39q84 168 206 168q56 0 87.5 -29t31.5 -75q0 -37 -25 -62.5t-63 -25.5q-36 0 -64 28.5t-28 75.5
q-33 -6 -63 -32.5t-50 -63.5q168 -87 168 -256q0 -96 -55 -170t-142.5 -111.5t-189.5 -37.5q-66 0 -135 16q-119 -40 -119 -98q0 -35 42.5 -54.5t154.5 -19.5h160q189 0 281.5 -60t92.5 -190q0 -136 -134.5 -233t-368.5 -97q-188 0 -302 58t-114 149q0 71 65 123.5t181 69.5
v4q-94 25 -136.5 69.5t-42.5 108.5q0 52 49.5 102.5t139.5 83.5q-93 37 -148 107.5t-55 171.5q0 142 115.5 230.5t273.5 88.5z" />
    <glyph glyph-name="Hbar" unicode="&#x126;" horiz-adv-x="1699" 
d="M68 0v27q128 4 175.5 35.5t47.5 97.5v887h-209v49h209v172q0 67 -47.5 99t-175.5 36v24h671v-24q-86 -3 -132.5 -19t-61.5 -42.5t-15 -73.5v-172h637v172q0 47 -15 73.5t-59.5 42.5t-129.5 19v24h667v-24q-128 -4 -175.5 -36t-47.5 -99v-172h209v-49h-209v-887
q0 -66 47.5 -97.5t175.5 -35.5v-27h-667v27q123 4 163.5 33.5t40.5 99.5v559h-637v-559q0 -70 41.5 -99.5t167.5 -33.5v-27h-671zM530 762h637v285h-637v-285z" />
    <glyph glyph-name="hbar" unicode="&#x127;" 
d="M20 0v25q89 2 117.5 16.5t28.5 60.5v1069h-141v46h141v110q0 38 -11 58t-47 32.5t-106 14.5v24l379 12v-251h272v-46h-272v-444q70 110 160 168.5t192 58.5q122 0 187 -73t65 -213v-566q0 -46 28.5 -60.5t119.5 -16.5v-25h-486v25q73 2 98 17t25 60v523q0 114 -39 169.5
t-129 55.5q-127 0 -221 -172v-576q0 -45 25.5 -60t97.5 -17v-25h-484z" />
    <glyph glyph-name="Imacron" unicode="&#x12a;" horiz-adv-x="860" 
d="M82 0v27q133 4 181 36t48 99v1106q0 66 -48.5 98.5t-180.5 36.5v24h696v-24q-132 -4 -180.5 -36.5t-48.5 -98.5v-1106q0 -67 48 -99t181 -36v-27h-696zM137 1634v88h584v-88h-584z" />
    <glyph glyph-name="imacron" unicode="&#x12b;" horiz-adv-x="598" 
d="M37 1157v88h520v-88h-520zM49 0v25q90 2 120 17t30 60v705q0 49 -33 75t-117 27v25l365 14v-846q0 -46 28 -61t121 -16v-25h-514z" />
    <glyph glyph-name="Ibreve" unicode="&#x12c;" horiz-adv-x="860" 
d="M82 0v27q133 4 181 36t48 99v1106q0 66 -48.5 98.5t-180.5 36.5v24h696v-24q-132 -4 -180.5 -36.5t-48.5 -98.5v-1106q0 -67 48 -99t181 -36v-27h-696zM430 1583q-115 0 -191.5 90t-88.5 236h30q55 -180 248 -180t248 180h31q-11 -146 -86.5 -236t-190.5 -90z" />
    <glyph glyph-name="ibreve" unicode="&#x12d;" horiz-adv-x="598" 
d="M49 0v25q90 2 120 17t30 60v705q0 49 -33 75t-117 27v25l365 14v-846q0 -46 28 -61t121 -16v-25h-514zM301 1092q-115 0 -192 90t-89 235h31q55 -180 248 -180t248 180h31q-11 -146 -86.5 -235.5t-190.5 -89.5z" />
    <glyph glyph-name="Iogonek" unicode="&#x12e;" horiz-adv-x="860" 
d="M82 0v27q133 4 181 36t48 99v1106q0 66 -48.5 98.5t-180.5 36.5v24h696v-24q-132 -4 -180.5 -36.5t-48.5 -98.5v-1106q0 -67 48 -99t181 -36v-27h-280l-47 -51q-109 -124 -109 -248q0 -65 33 -99t88 -34q65 0 131 35l12 -27q-107 -76 -227 -76q-88 0 -143.5 45.5
t-55.5 122.5q0 74 46 134t155 147l70 51h-369z" />
    <glyph glyph-name="iogonek" unicode="&#x12f;" horiz-adv-x="598" 
d="M53 0v25q90 2 120 17t30 60v705q0 49 -33 75t-117 27v25l365 14v-846q0 -46 27.5 -61t121.5 -16v-25h-166l-47 -51q-108 -123 -108 -248q0 -65 33 -99t88 -34q65 0 131 35l12 -27q-107 -76 -227 -76q-88 0 -143.5 45.5t-55.5 122.5q0 74 46 134t155 147l69 51h-301z
M299 1124q-60 0 -96.5 36t-36.5 97q0 63 36.5 102.5t96.5 39.5q61 0 98 -36.5t37 -98.5t-37 -101t-98 -39z" />
    <glyph glyph-name="Idotaccent" unicode="&#x130;" horiz-adv-x="860" 
d="M82 0v27q133 4 181 36t48 99v1106q0 66 -48.5 98.5t-180.5 36.5v24h696v-24q-132 -4 -180.5 -36.5t-48.5 -98.5v-1106q0 -67 48 -99t181 -36v-27h-696zM430 1583q-62 0 -98.5 36.5t-36.5 98.5q0 61 37.5 100.5t97.5 39.5q61 0 97 -38t36 -100q0 -60 -37.5 -98.5
t-95.5 -38.5z" />
    <glyph glyph-name="dotlessi" unicode="&#x131;" horiz-adv-x="598" 
d="M49 0v25q90 2 120 17t30 60v705q0 49 -33 75t-117 27v25l365 14v-846q0 -46 28 -61t121 -16v-25h-514z" />
    <glyph glyph-name="Kcommaaccent" unicode="&#x136;" horiz-adv-x="1548" 
d="M659 -598l-14 25q165 103 176 229l-8 2q-25 -14 -53 -14q-45 0 -77 31.5t-32 78.5q0 51 34 87t85 36q64 0 102.5 -44.5t38.5 -119.5q0 -94 -66 -175.5t-186 -135.5zM524 647l486 494q47 49 69.5 90.5t20 77.5t-42.5 60.5t-117 33.5v24h563v-24q-126 -24 -222.5 -89.5
t-258.5 -228.5l-209 -204l436 -607q46 -63 72.5 -96t56 -64t55.5 -45t57.5 -24.5t76.5 -17.5v-27h-639v27q114 9 133.5 49.5t-45.5 134.5l-359 508l-133 -131v-428q0 -70 39.5 -99.5t157.5 -33.5v-27h-660v27q128 4 176 35.5t48 97.5v1108q0 67 -48 99t-176 36v24h672v-24
q-86 -3 -132.5 -19t-61.5 -42.5t-15 -73.5v-621z" />
    <glyph glyph-name="kcommaaccent" unicode="&#x137;" horiz-adv-x="1081" 
d="M420 -598l-14 25q165 103 176 229l-9 2q-25 -14 -53 -14q-45 0 -76.5 31.5t-31.5 78.5q0 51 33.5 87t84.5 36q65 0 103.5 -44.5t38.5 -119.5q0 -94 -66 -175.5t-186 -135.5zM381 381v-279q0 -45 23 -60t85 -17v-25h-469v25q89 2 117.5 16.5t28.5 60.5v1225q0 38 -11 58
t-47 32.5t-106 14.5v24l379 12v-1036l301 309q68 69 52 114t-122 65v24h435v-24q-88 -19 -156.5 -61t-167.5 -138l-111 -111l308 -434q66 -94 99 -119t103 -32v-25h-485v25q77 7 89.5 35.5t-26.5 82.5l-227 330z" />
    <glyph glyph-name="Lacute" unicode="&#x139;" horiz-adv-x="1296" 
d="M412 1573l96 260q31 94 57.5 131t71.5 37q40 0 68 -26t28 -64q0 -29 -24.5 -64t-81.5 -92l-189 -182h-26zM61 0v27q128 4 176 36t48 99v1106q0 65 -48.5 98t-175.5 37v24h674v-24q-91 -3 -137.5 -19.5t-60 -42.5t-13.5 -73v-1229h160q145 0 237.5 39.5t162.5 132.5
t141 270l28 -2l-20 -479h-1172z" />
    <glyph glyph-name="lacute" unicode="&#x13a;" horiz-adv-x="595" 
d="M227 1559l97 260q31 94 57.5 131t71.5 37q40 0 68 -26.5t28 -64.5q0 -29 -24.5 -63t-82.5 -92l-188 -182h-27zM47 0v25q90 2 119 16.5t29 60.5v1225q0 38 -11 58t-47 32.5t-106 14.5v24l379 12v-1366q0 -46 28 -61t117 -16v-25h-508z" />
    <glyph glyph-name="Lcommaaccent" unicode="&#x13b;" horiz-adv-x="1296" 
d="M563 -598l-14 25q165 103 176 229l-8 2q-25 -14 -53 -14q-45 0 -77 31.5t-32 78.5q0 51 34 87t85 36q64 0 102.5 -44.5t38.5 -119.5q0 -94 -66 -175.5t-186 -135.5zM61 0v27q128 4 176 36t48 99v1106q0 65 -48.5 98t-175.5 37v24h674v-24q-91 -3 -137.5 -19.5t-60 -42.5
t-13.5 -73v-1229h160q145 0 237.5 39.5t162.5 132.5t141 270l28 -2l-20 -479h-1172z" />
    <glyph glyph-name="lcommaaccent" unicode="&#x13c;" horiz-adv-x="595" 
d="M176 -598l-14 25q165 103 176 229l-8 2q-24 -14 -54 -14q-45 0 -76.5 31.5t-31.5 78.5q0 51 34 87t85 36q64 0 102.5 -44.5t38.5 -119.5q0 -94 -66 -175.5t-186 -135.5zM47 0v25q90 2 119 16.5t29 60.5v1225q0 38 -11 58t-47 32.5t-106 14.5v24l379 12v-1366
q0 -46 28 -61t117 -16v-25h-508z" />
    <glyph glyph-name="Lcaron" unicode="&#x13d;" horiz-adv-x="1296" 
d="M899 1051l-12 243q-4 74 -4 115q0 61 28.5 88t65.5 27t61.5 -23t24.5 -63q0 -42 -31 -121l-108 -266h-25zM61 0v27q128 4 176 36t48 99v1106q0 65 -48.5 98t-175.5 37v24h674v-24q-91 -3 -137.5 -19.5t-60 -42.5t-13.5 -73v-1229h160q145 0 237.5 39.5t162.5 132.5
t141 270l28 -2l-20 -479h-1172z" />
    <glyph glyph-name="lcaron" unicode="&#x13e;" horiz-adv-x="595" 
d="M602 1092l-12 243q-4 74 -4 115q0 61 28.5 88t65.5 27t61.5 -23t24.5 -63q0 -42 -31 -121l-108 -266h-25zM47 0v25q90 2 119 16.5t29 60.5v1225q0 38 -11 58t-47 32.5t-106 14.5v24l379 12v-1366q0 -46 28 -61t117 -16v-25h-508z" />
    <glyph glyph-name="Ldot" unicode="&#x13f;" horiz-adv-x="1296" 
d="M61 0v27q128 4 176 36t48 99v1106q0 65 -48.5 98t-175.5 37v24h674v-24q-91 -3 -137.5 -19.5t-60 -42.5t-13.5 -73v-1229h160q145 0 237.5 38.5t162.5 129t141 262.5l28 -2l-20 -467h-1172zM1030 637q-62 0 -98.5 36.5t-36.5 98.5q0 60 37.5 99.5t97.5 39.5
q61 0 97 -37.5t36 -99.5q0 -60 -37.5 -98.5t-95.5 -38.5z" />
    <glyph glyph-name="ldot" unicode="&#x140;" horiz-adv-x="768" 
d="M686 555q-61 0 -96 35.5t-35 97.5q0 59 36.5 98t94.5 39q60 0 95.5 -37.5t35.5 -97.5t-36.5 -97.5t-94.5 -37.5zM47 0v25q90 2 119 16.5t29 60.5v1225q0 38 -11 58t-47 32.5t-106 14.5v24l379 12v-1366q0 -46 28 -61t117 -16v-25h-508z" />
    <glyph glyph-name="Lslash" unicode="&#x141;" horiz-adv-x="1296" 
d="M61 0v27q128 4 176 36t48 99v485l-183 -47l-14 51l197 51v566q0 65 -48.5 98t-175.5 37v24h674v-24q-91 -3 -137.5 -19.5t-60 -42.5t-13.5 -73v-504l279 74l12 -50l-291 -77v-672h160q145 0 237.5 39.5t162.5 132.5t141 270l28 -2l-20 -479h-1172z" />
    <glyph glyph-name="lslash" unicode="&#x142;" horiz-adv-x="657" 
d="M94 0v25q90 2 119 16.5t29 60.5v564l-172 -48l-13 46l185 49v614q0 38 -11 58t-47 32.5t-106 14.5v24l379 12v-696l182 49l12 -45l-194 -53v-621q0 -46 28 -61t117 -16v-25h-508z" />
    <glyph glyph-name="Nacute" unicode="&#x143;" horiz-adv-x="1628" 
d="M795 1552l96 260q31 94 57.5 131t71.5 37q40 0 68 -26t28 -64q0 -29 -24 -63t-82 -92l-189 -183h-26zM1300 -31l-931 1227h-2v-854q0 -155 54.5 -224.5t207.5 -90.5v-27h-561v27q143 23 196 92.5t53 222.5v823q0 102 -61.5 167t-187.5 71v24h436l813 -1081h2v741
q0 152 -61 223t-214 93v24h564v-24q-141 -24 -190.5 -92.5t-49.5 -223.5v-1118h-68z" />
    <glyph glyph-name="nacute" unicode="&#x144;" horiz-adv-x="1161" 
d="M522 1081l96 260q31 93 58 130.5t72 37.5q40 0 68 -26t28 -64q0 -29 -24.5 -63t-82.5 -92l-188 -183h-27zM43 0v25q88 2 116.5 16.5t28.5 60.5v705q0 50 -31 75.5t-114 26.5v25l356 14v-221q69 109 161 168t194 59q122 0 187 -73t65 -213v-566q0 -46 28 -61t117 -16v-25
h-483v25q72 2 97.5 17t25.5 60v527q0 114 -38 167.5t-128 53.5q-64 0 -122 -46t-100 -126v-576q0 -45 25 -60t96 -17v-25h-481z" />
    <glyph glyph-name="Ncommaaccent" unicode="&#x145;" horiz-adv-x="1628" 
d="M698 -598l-14 25q165 103 176 229l-8 2q-24 -14 -53 -14q-45 0 -77 31.5t-32 78.5q0 51 34 87t85 36q64 0 102.5 -44.5t38.5 -119.5q0 -94 -66 -175.5t-186 -135.5zM1300 -31l-931 1227h-2v-854q0 -155 54.5 -224.5t207.5 -90.5v-27h-561v27q143 23 196 92.5t53 222.5
v823q0 102 -61.5 167t-187.5 71v24h436l813 -1081h2v741q0 152 -61 223t-214 93v24h564v-24q-141 -24 -190.5 -92.5t-49.5 -223.5v-1118h-68z" />
    <glyph glyph-name="ncommaaccent" unicode="&#x146;" horiz-adv-x="1161" 
d="M463 -598l-14 25q165 103 176 229l-9 2q-24 -14 -53 -14q-45 0 -76.5 31.5t-31.5 78.5q0 51 33.5 87t84.5 36q65 0 103.5 -44.5t38.5 -119.5q0 -94 -66 -175.5t-186 -135.5zM43 0v25q88 2 116.5 16.5t28.5 60.5v705q0 50 -31 75.5t-114 26.5v25l356 14v-221
q69 109 161 168t194 59q122 0 187 -73t65 -213v-566q0 -46 28 -61t117 -16v-25h-483v25q72 2 97.5 17t25.5 60v527q0 114 -38 167.5t-128 53.5q-64 0 -122 -46t-100 -126v-576q0 -45 25 -60t96 -17v-25h-481z" />
    <glyph glyph-name="Ncaron" unicode="&#x147;" horiz-adv-x="1628" 
d="M815 1552l-260 394h33l248 -191l249 191h33l-276 -394h-27zM1300 -31l-931 1227h-2v-854q0 -155 54.5 -224.5t207.5 -90.5v-27h-561v27q143 23 196 92.5t53 222.5v823q0 102 -61.5 167t-187.5 71v24h436l813 -1081h2v741q0 152 -61 223t-214 93v24h564v-24
q-141 -24 -190.5 -92.5t-49.5 -223.5v-1118h-68z" />
    <glyph glyph-name="ncaron" unicode="&#x148;" horiz-adv-x="1161" 
d="M567 1081l-260 394h33l248 -191l250 191h32l-276 -394h-27zM43 0v25q88 2 116.5 16.5t28.5 60.5v705q0 50 -31 75.5t-114 26.5v25l356 14v-221q69 109 161 168t194 59q122 0 187 -73t65 -213v-566q0 -46 28 -61t117 -16v-25h-483v25q72 2 97.5 17t25.5 60v527
q0 114 -38 167.5t-128 53.5q-64 0 -122 -46t-100 -126v-576q0 -45 25 -60t96 -17v-25h-481z" />
    <glyph glyph-name="Omacron" unicode="&#x14c;" horiz-adv-x="1568" 
d="M489 1634v88h584v-88h-584zM784 -35q-142 0 -268.5 53.5t-221 148.5t-149.5 236t-55 308q0 165 56.5 307t152 238.5t221.5 151t264 54.5q141 0 267.5 -53t220.5 -148t149.5 -236.5t55.5 -307.5q0 -165 -57 -307t-152 -238.5t-221 -151.5t-263 -55zM793 4q99 0 172.5 36.5
t128.5 118t83.5 220t28.5 334.5q0 158 -20.5 279.5t-57.5 202.5t-91.5 132.5t-119 73.5t-143.5 22q-99 0 -172.5 -36.5t-128.5 -117.5t-83 -219.5t-28 -334.5q0 -158 20.5 -280t57 -202.5t91.5 -132.5t119 -74t143 -22z" />
    <glyph glyph-name="omacron" unicode="&#x14d;" horiz-adv-x="1087" 
d="M250 1143v88h584v-88h-584zM545 -16q-208 0 -343.5 134t-135.5 351q0 214 139.5 353t339.5 139q206 0 341.5 -134.5t135.5 -349.5q0 -143 -65 -256.5t-173.5 -175t-238.5 -61.5zM553 23q116 0 172.5 107.5t56.5 342.5q0 449 -247 449q-118 0 -175 -107t-57 -342
q0 -450 250 -450z" />
    <glyph glyph-name="Obreve" unicode="&#x14e;" horiz-adv-x="1568" 
d="M784 -35q-142 0 -268.5 53.5t-221 148.5t-149.5 236t-55 308q0 165 56.5 307t152 238.5t221.5 151t264 54.5q141 0 267.5 -53t220.5 -148t149.5 -236.5t55.5 -307.5q0 -165 -57 -307t-152 -238.5t-221 -151.5t-263 -55zM793 4q99 0 172.5 36.5t128.5 118t83.5 220
t28.5 334.5q0 158 -20.5 279.5t-57.5 202.5t-91.5 132.5t-119 73.5t-143.5 22q-99 0 -172.5 -36.5t-128.5 -117.5t-83 -219.5t-28 -334.5q0 -158 20.5 -280t57 -202.5t91.5 -132.5t119 -74t143 -22zM784 1583q-115 0 -191.5 90t-88.5 236h31q55 -180 247 -180q193 0 248 180
h31q-11 -146 -86.5 -236t-190.5 -90z" />
    <glyph glyph-name="obreve" unicode="&#x14f;" horiz-adv-x="1087" 
d="M545 -16q-208 0 -343.5 134t-135.5 351q0 214 139.5 353t339.5 139q206 0 341.5 -134.5t135.5 -349.5q0 -143 -65 -256.5t-173.5 -175t-238.5 -61.5zM553 23q116 0 172.5 107.5t56.5 342.5q0 449 -247 449q-118 0 -175 -107t-57 -342q0 -450 250 -450zM543 1092
q-115 0 -192 90t-89 235h31q55 -180 248 -180q192 0 247 180h31q-11 -146 -86 -235.5t-190 -89.5z" />
    <glyph glyph-name="Ohungarumlaut" unicode="&#x150;" horiz-adv-x="1568" 
d="M897 1573l115 262q39 93 68.5 129.5t72.5 36.5q37 0 59.5 -23.5t22.5 -60.5q0 -31 -24.5 -66t-90.5 -96l-200 -182h-23zM580 1573l112 262q39 92 68.5 129t73.5 37q38 0 61 -23.5t23 -60.5q0 -31 -26 -67t-89 -95l-201 -182h-22zM784 -35q-142 0 -268.5 53.5t-221 148.5
t-149.5 236t-55 308q0 165 56.5 307t152 238.5t221.5 151t264 54.5q141 0 267.5 -53t220.5 -148t149.5 -236.5t55.5 -307.5q0 -165 -57 -307t-152 -238.5t-221 -151.5t-263 -55zM793 4q99 0 172.5 36.5t128.5 118t83.5 220t28.5 334.5q0 158 -20.5 279.5t-57.5 202.5
t-91.5 132.5t-119 73.5t-143.5 22q-99 0 -172.5 -36.5t-128.5 -117.5t-83 -219.5t-28 -334.5q0 -158 20.5 -280t57 -202.5t91.5 -132.5t119 -74t143 -22z" />
    <glyph glyph-name="ohungarumlaut" unicode="&#x151;" horiz-adv-x="1087" 
d="M647 1081l115 262q39 93 68.5 129.5t72.5 36.5q37 0 59.5 -23.5t22.5 -60.5q0 -31 -24.5 -65.5t-90.5 -95.5l-200 -183h-23zM330 1081l112 262q39 92 68.5 129t73.5 37q38 0 61 -23.5t23 -60.5q0 -30 -25.5 -66t-89.5 -95l-201 -183h-22zM545 -16q-208 0 -343.5 134
t-135.5 351q0 214 139.5 353t339.5 139q206 0 341.5 -134.5t135.5 -349.5q0 -143 -65 -256.5t-173.5 -175t-238.5 -61.5zM553 23q116 0 172.5 107.5t56.5 342.5q0 449 -247 449q-118 0 -175 -107t-57 -342q0 -450 250 -450z" />
    <glyph glyph-name="OE" unicode="&#x152;" horiz-adv-x="2181" 
d="M870 0q-186 0 -334 52t-243 145t-145 217.5t-50 273.5q0 116 27 222.5t87 201.5t147.5 164.5t216 110t284.5 40.5h1151l6 -460l-28 -4q-49 119 -88 191t-92 129.5t-118.5 81.5t-156.5 24h-246v-629h111q130 0 201.5 61t111.5 219h27v-600h-27q-40 159 -111.5 220
t-201.5 61h-111v-682h240q107 0 184 25t137.5 84t105 137t95.5 204l29 -2l-11 -487h-1198zM858 41q191 0 191 127v1094q0 127 -185 127q-130 0 -219.5 -32t-153.5 -109t-94 -210t-30 -331q0 -160 24.5 -278.5t66 -192t105.5 -118t134 -61t161 -16.5z" />
    <glyph glyph-name="oe" unicode="&#x153;" horiz-adv-x="1705" 
d="M1245 -16q-219 0 -346 163q-65 -77 -157.5 -120t-196.5 -43q-208 0 -343.5 134t-135.5 351q0 214 139.5 353t339.5 139q109 0 202.5 -45t157.5 -125q63 80 151 125t187 45q134 0 229.5 -59t138 -157t34.5 -221h-629v-47v-4q0 -185 82 -296t237 -111q92 0 157 42.5
t132 131.5l23 -17q-69 -112 -164 -175.5t-238 -63.5zM782 473q0 449 -247 449q-118 0 -175 -107t-57 -342q0 -450 250 -450q116 0 172.5 107.5t56.5 342.5zM1231 922q-94 0 -149 -92.5t-64 -268.5h397q32 361 -184 361z" />
    <glyph glyph-name="Racute" unicode="&#x154;" horiz-adv-x="1462" 
d="M674 1573l96 260q31 94 57.5 131t71.5 37q40 0 68 -26t28 -64q0 -29 -24.5 -64t-81.5 -92l-189 -182h-26zM530 737h172q101 0 167 21t102 66t49.5 102.5t13.5 144.5q0 76 -17.5 132.5t-57.5 99.5t-111 64.5t-172 21.5h-146v-652zM530 698v-536q0 -69 45.5 -100t169.5 -35
v-27h-677v27q128 4 175.5 36t47.5 99v1106q0 66 -48 98.5t-175 36.5v24h645q154 0 268 -26.5t181.5 -74.5t99.5 -109t32 -136q0 -295 -434 -360v-6q89 -3 155.5 -21.5t109.5 -47t71.5 -74t43.5 -94.5t24 -116l14 -116q9 -58 19.5 -92t25.5 -59t42 -36.5t60.5 -16t90.5 -5.5
v-25q-96 -22 -211 -22q-83 0 -134.5 14t-82.5 48t-44.5 78.5t-21.5 119.5l-21 188q-9 81 -25 128.5t-52 78.5t-91 42t-147 11h-156z" />
    <glyph glyph-name="racute" unicode="&#x155;" horiz-adv-x="847" 
d="M350 1081l96 260q31 94 57.5 131t71.5 37q40 0 68.5 -26t28.5 -64q0 -29 -24.5 -63t-82.5 -92l-188 -183h-27zM43 0v25q88 2 116.5 16.5t28.5 60.5v705q0 50 -31 75.5t-114 26.5v25l356 14v-207q55 101 127.5 158t149.5 57q80 0 122 -42.5t42 -106.5q0 -59 -35 -96
t-90 -37q-57 0 -93 35.5t-36 91.5q0 31 12 63q-57 -7 -102.5 -48.5t-92.5 -121.5v-592q0 -45 36 -59.5t143 -17.5v-25h-539z" />
    <glyph glyph-name="Rcommaaccent" unicode="&#x156;" horiz-adv-x="1462" 
d="M635 -598l-14 25q165 103 176 229l-9 2q-25 -14 -53 -14q-45 0 -76.5 31.5t-31.5 78.5q0 51 33.5 87t84.5 36q65 0 103.5 -44.5t38.5 -119.5q0 -94 -66 -175.5t-186 -135.5zM530 737h172q101 0 167 21t102 66t49.5 102.5t13.5 144.5q0 76 -17.5 132.5t-57.5 99.5
t-111 64.5t-172 21.5h-146v-652zM530 698v-536q0 -69 45.5 -100t169.5 -35v-27h-677v27q128 4 175.5 36t47.5 99v1106q0 66 -48 98.5t-175 36.5v24h645q154 0 268 -26.5t181.5 -74.5t99.5 -109t32 -136q0 -295 -434 -360v-6q89 -3 155.5 -21.5t109.5 -47t71.5 -74
t43.5 -94.5t24 -116l14 -116q9 -58 19.5 -92t25.5 -59t42 -36.5t60.5 -16t90.5 -5.5v-25q-96 -22 -211 -22q-83 0 -134.5 14t-82.5 48t-44.5 78.5t-21.5 119.5l-21 188q-9 81 -25 128.5t-52 78.5t-91 42t-147 11h-156z" />
    <glyph glyph-name="rcommaaccent" unicode="&#x157;" horiz-adv-x="847" 
d="M178 -598l-14 25q165 103 176 229l-8 2q-25 -14 -53 -14q-45 0 -77 31.5t-32 78.5q0 51 34 87t85 36q64 0 102.5 -44.5t38.5 -119.5q0 -94 -66 -175.5t-186 -135.5zM43 0v25q88 2 116.5 16.5t28.5 60.5v705q0 50 -31 75.5t-114 26.5v25l356 14v-207q55 101 127.5 158
t149.5 57q80 0 122 -42.5t42 -106.5q0 -59 -35 -96t-90 -37q-57 0 -93 35.5t-36 91.5q0 31 12 63q-57 -7 -102.5 -48.5t-92.5 -121.5v-592q0 -45 36 -59.5t143 -17.5v-25h-539z" />
    <glyph glyph-name="Rcaron" unicode="&#x158;" horiz-adv-x="1462" 
d="M713 1573l-260 393h32l248 -190l250 190h33l-277 -393h-26zM530 737h172q101 0 167 21t102 66t49.5 102.5t13.5 144.5q0 76 -17.5 132.5t-57.5 99.5t-111 64.5t-172 21.5h-146v-652zM530 698v-536q0 -69 45.5 -100t169.5 -35v-27h-677v27q128 4 175.5 36t47.5 99v1106
q0 66 -48 98.5t-175 36.5v24h645q154 0 268 -26.5t181.5 -74.5t99.5 -109t32 -136q0 -295 -434 -360v-6q89 -3 155.5 -21.5t109.5 -47t71.5 -74t43.5 -94.5t24 -116l14 -116q9 -58 19.5 -92t25.5 -59t42 -36.5t60.5 -16t90.5 -5.5v-25q-96 -22 -211 -22q-83 0 -134.5 14
t-82.5 48t-44.5 78.5t-21.5 119.5l-21 188q-9 81 -25 128.5t-52 78.5t-91 42t-147 11h-156z" />
    <glyph glyph-name="rcaron" unicode="&#x159;" horiz-adv-x="847" 
d="M432 1081l-260 394h33l248 -191l249 191h33l-276 -394h-27zM43 0v25q88 2 116.5 16.5t28.5 60.5v705q0 50 -31 75.5t-114 26.5v25l356 14v-207q55 101 127.5 158t149.5 57q80 0 122 -42.5t42 -106.5q0 -59 -35 -96t-90 -37q-57 0 -93 35.5t-36 91.5q0 31 12 63
q-57 -7 -102.5 -48.5t-92.5 -121.5v-592q0 -45 36 -59.5t143 -17.5v-25h-539z" />
    <glyph glyph-name="Sacute" unicode="&#x15a;" horiz-adv-x="1187" 
d="M543 1573l96 260q31 94 57.5 131t71.5 37q40 0 68 -26t28 -64q0 -29 -24.5 -64t-81.5 -92l-189 -182h-26zM113 -37v512h28q101 -223 217.5 -343t270.5 -120q73 0 131.5 23t95 61t55.5 84.5t19 95.5q0 128 -85.5 198.5t-291.5 141.5q-164 58 -225 91q-150 81 -182 217
q-11 43 -11 94q0 199 136 318.5t347 119.5q160 0 308 -70l73 82h25v-456h-29q-86 205 -186 305t-223 100q-110 0 -188.5 -68t-78.5 -184q0 -52 16.5 -93.5t44.5 -72t77.5 -58.5t101 -48.5t129.5 -46.5q43 -14 66 -22.5t63 -24.5t63 -28.5t56 -32.5t52.5 -40t41.5 -47.5
t34 -58t20 -69t8 -81.5q0 -88 -27.5 -169t-83 -150t-153 -110.5t-224.5 -41.5q-85 0 -179.5 26t-164.5 66l-123 -100h-24z" />
    <glyph glyph-name="sacute" unicode="&#x15b;" horiz-adv-x="854" 
d="M352 1081l97 260q31 94 57.5 131t71.5 37q40 0 68 -26t28 -64q0 -29 -24.5 -63t-82.5 -92l-188 -183h-27zM78 -16v340h28q100 -173 174.5 -237t182.5 -64q82 0 129 46.5t47 110.5q0 72 -55.5 116.5t-204.5 86.5q-162 46 -229.5 105.5t-67.5 170.5q0 133 94.5 217.5
t251.5 84.5q124 0 231 -64l52 64h22v-306h-28q-49 80 -81 124.5t-68 80t-72 49t-83 13.5q-71 0 -118 -44t-47 -114q0 -63 57 -102.5t182 -71.5q163 -44 236 -109.5t73 -181.5q0 -135 -92.5 -225t-253.5 -90q-60 0 -143 21.5t-127 51.5l-68 -73h-22z" />
    <glyph glyph-name="Scedilla" unicode="&#x15e;" horiz-adv-x="1187" 
d="M532 -514q-124 0 -210 61l20 33q77 -49 160 -49q116 0 116 113q0 53 -42.5 83.5t-112.5 30.5q-40 0 -76 -10l-12 19l225 204q-86 1 -179.5 27t-160.5 65l-123 -100h-24v512h28q101 -223 217.5 -343t270.5 -120q73 0 131.5 23t95 61t55.5 84.5t19 95.5q0 128 -85.5 198.5
t-291.5 141.5q-164 58 -225 91q-150 81 -182 217q-11 43 -11 94q0 199 136 318.5t347 119.5q160 0 308 -70l73 82h25v-456h-29q-86 205 -186 305t-223 100q-110 0 -188.5 -68t-78.5 -184q0 -52 16.5 -93.5t44.5 -72t77.5 -58.5t101 -48.5t129.5 -46.5q43 -14 66 -22.5
t63 -24.5t63 -28.5t56 -32.5t52.5 -40t41.5 -47.5t34 -58t20 -69t8 -81.5q0 -84 -25 -161t-75 -144t-137 -111t-200 -53l-125 -118l5 -7q116 -1 175.5 -53t59.5 -125q0 -79 -66.5 -131.5t-171.5 -52.5z" />
    <glyph glyph-name="scedilla" unicode="&#x15f;" horiz-adv-x="854" 
d="M369 -514q-125 0 -211 61l20 33q77 -49 160 -49q59 0 88 29.5t29 83.5q0 53 -43 83.5t-113 30.5q-40 0 -76 -10l-12 19l238 217h-11q-60 0 -143 21.5t-127 51.5l-68 -73h-22v340h28q100 -173 174.5 -237t182.5 -64q82 0 129 46.5t47 110.5q0 72 -55.5 116.5t-204.5 86.5
q-162 46 -229.5 105.5t-67.5 170.5q0 133 94.5 217.5t251.5 84.5q124 0 231 -64l52 64h22v-306h-28q-49 80 -81 124.5t-68 80t-72 49t-83 13.5q-71 0 -118 -44t-47 -114q0 -63 57 -102.5t182 -71.5q163 -44 236 -109.5t73 -181.5q0 -119 -73 -204t-203 -105l-141 -135l4 -7
q116 -1 175.5 -53t59.5 -125q0 -79 -66 -131.5t-171 -52.5z" />
    <glyph glyph-name="Scaron" unicode="&#x160;" horiz-adv-x="1187" 
d="M606 1573l-260 393h33l248 -190l250 190h32l-276 -393h-27zM113 -37v512h28q101 -223 217.5 -343t270.5 -120q73 0 131.5 23t95 61t55.5 84.5t19 95.5q0 128 -85.5 198.5t-291.5 141.5q-164 58 -225 91q-150 81 -182 217q-11 43 -11 94q0 199 136 318.5t347 119.5
q160 0 308 -70l73 82h25v-456h-29q-86 205 -186 305t-223 100q-110 0 -188.5 -68t-78.5 -184q0 -52 16.5 -93.5t44.5 -72t77.5 -58.5t101 -48.5t129.5 -46.5q43 -14 66 -22.5t63 -24.5t63 -28.5t56 -32.5t52.5 -40t41.5 -47.5t34 -58t20 -69t8 -81.5q0 -88 -27.5 -169
t-83 -150t-153 -110.5t-224.5 -41.5q-85 0 -179.5 26t-164.5 66l-123 -100h-24z" />
    <glyph glyph-name="scaron" unicode="&#x161;" horiz-adv-x="854" 
d="M436 1081l-260 394h33l248 -191l250 191h32l-276 -394h-27zM78 -16v340h28q100 -173 174.5 -237t182.5 -64q82 0 129 46.5t47 110.5q0 72 -55.5 116.5t-204.5 86.5q-162 46 -229.5 105.5t-67.5 170.5q0 133 94.5 217.5t251.5 84.5q124 0 231 -64l52 64h22v-306h-28
q-49 80 -81 124.5t-68 80t-72 49t-83 13.5q-71 0 -118 -44t-47 -114q0 -63 57 -102.5t182 -71.5q163 -44 236 -109.5t73 -181.5q0 -135 -92.5 -225t-253.5 -90q-60 0 -143 21.5t-127 51.5l-68 -73h-22z" />
    <glyph glyph-name="Tcommaaccent" unicode="&#x162;" horiz-adv-x="1433" 
d="M598 -598l-14 25q165 103 176 229l-8 2q-24 -14 -54 -14q-45 0 -76.5 31.5t-31.5 78.5q0 51 34 87t85 36q64 0 102.5 -44.5t38.5 -119.5q0 -94 -66 -175.5t-186 -135.5zM356 0v27q133 4 188.5 37t55.5 98v1227h-80q-112 0 -212 -101.5t-199 -306.5l-29 2l12 444h1256
l12 -444l-29 -2q-99 202 -199.5 305t-213.5 103h-80v-1227q0 -65 55 -98t188 -37v-27h-725z" />
    <glyph glyph-name="tcommaaccent" unicode="&#x163;" horiz-adv-x="718" 
d="M272 -598l-14 25q165 103 176 229l-8 2q-24 -14 -53 -14q-45 0 -77 31.5t-32 78.5q0 51 34 87t85 36q64 0 102.5 -44.5t38.5 -119.5q0 -94 -66 -175.5t-186 -135.5zM442 -20q-245 0 -245 272v618h-191v27l191 45v260l215 78v-344h290v-64h-290v-639q0 -92 27.5 -131
t90.5 -39q96 0 172 138l25 -17q-101 -204 -285 -204z" />
    <glyph glyph-name="Tcaron" unicode="&#x164;" horiz-adv-x="1433" 
d="M696 1573l-260 393h33l248 -190l250 190h32l-276 -393h-27zM356 0v27q133 4 188.5 37t55.5 98v1227h-80q-112 0 -212 -101.5t-199 -306.5l-29 2l12 444h1256l12 -444l-29 -2q-99 202 -199.5 305t-213.5 103h-80v-1227q0 -65 55 -98t188 -37v-27h-725z" />
    <glyph glyph-name="tcaron" unicode="&#x165;" horiz-adv-x="718" 
d="M592 1092l-12 243q-5 93 -5 115q0 61 28.5 88t66.5 27q37 0 61.5 -23t24.5 -63q0 -42 -31 -121l-109 -266h-24zM442 -20q-245 0 -245 272v618h-191v27l191 45v260l215 78v-344h290v-64h-290v-639q0 -92 27.5 -131t90.5 -39q96 0 172 138l25 -17q-101 -204 -285 -204z" />
    <glyph glyph-name="Umacron" unicode="&#x16a;" horiz-adv-x="1617" 
d="M825 -35q-268 0 -412.5 115t-144.5 336v852q0 65 -48.5 98t-174.5 37v24h670v-24q-124 -4 -165.5 -35t-41.5 -100v-828q0 -405 416 -405q168 0 262 94q114 114 114 332v626q0 153 -60 223.5t-214 92.5v24h565v-24q-141 -24 -190 -92.5t-49 -223.5v-643
q0 -224 -131 -351.5t-396 -127.5zM551 1634v88h584v-88h-584z" />
    <glyph glyph-name="umacron" unicode="&#x16b;" 
d="M428 -14q-123 0 -191.5 72t-68.5 214v543q0 49 -32.5 74t-117.5 26v25l365 8v-631q0 -114 38.5 -170.5t127.5 -56.5q129 0 215 168v557q0 49 -32 73t-116 25v25l363 10v-848q0 -41 30.5 -57.5t116.5 -19.5v-23h-358v209q-133 -223 -340 -223zM283 1143v88h583v-88h-583z
" />
    <glyph glyph-name="Ubreve" unicode="&#x16c;" horiz-adv-x="1617" 
d="M825 -35q-268 0 -412.5 115t-144.5 336v852q0 65 -48.5 98t-174.5 37v24h670v-24q-124 -4 -165.5 -35t-41.5 -100v-828q0 -405 416 -405q168 0 262 94q114 114 114 332v626q0 153 -60 223.5t-214 92.5v24h565v-24q-141 -24 -190 -92.5t-49 -223.5v-643
q0 -224 -131 -351.5t-396 -127.5zM850 1583q-115 0 -192 90t-89 236h31q55 -180 248 -180t248 180h30q-11 -146 -86 -236t-190 -90z" />
    <glyph glyph-name="ubreve" unicode="&#x16d;" 
d="M428 -14q-123 0 -191.5 72t-68.5 214v543q0 49 -32.5 74t-117.5 26v25l365 8v-631q0 -114 38.5 -170.5t127.5 -56.5q129 0 215 168v557q0 49 -32 73t-116 25v25l363 10v-848q0 -41 30.5 -57.5t116.5 -19.5v-23h-358v209q-133 -223 -340 -223zM571 1092
q-115 0 -191.5 89.5t-88.5 235.5h31q55 -180 247 -180q193 0 248 180h31q-11 -146 -86.5 -235.5t-190.5 -89.5z" />
    <glyph glyph-name="Uring" unicode="&#x16e;" horiz-adv-x="1617" 
d="M852 1583q-105 0 -168 61.5t-63 153.5q0 90 64 151.5t167 61.5t166 -61t63 -152q0 -92 -63 -153.5t-166 -61.5zM852 1618q55 0 84 47t29 133q0 92 -28.5 135t-86.5 43q-113 0 -113 -178q0 -85 30 -132.5t85 -47.5zM825 -35q-268 0 -412.5 115t-144.5 336v852
q0 65 -48.5 98t-174.5 37v24h670v-24q-124 -4 -165.5 -35t-41.5 -100v-828q0 -405 416 -405q168 0 262 94q114 114 114 332v626q0 153 -60 223.5t-214 92.5v24h565v-24q-141 -24 -190 -92.5t-49 -223.5v-643q0 -224 -131 -351.5t-396 -127.5z" />
    <glyph glyph-name="uring" unicode="&#x16f;" 
d="M571 1092q-105 0 -168 61.5t-63 153.5q0 90 64 151.5t167 61.5q104 0 167 -61t63 -152q0 -92 -63.5 -153.5t-166.5 -61.5zM571 1126q55 0 84 47.5t29 133.5q0 92 -28.5 135t-86.5 43q-56 0 -84 -43t-28 -135q0 -86 29.5 -133.5t84.5 -47.5zM428 -14q-123 0 -191.5 72
t-68.5 214v543q0 49 -32.5 74t-117.5 26v25l365 8v-631q0 -114 38.5 -170.5t127.5 -56.5q129 0 215 168v557q0 49 -32 73t-116 25v25l363 10v-848q0 -41 30.5 -57.5t116.5 -19.5v-23h-358v209q-133 -223 -340 -223z" />
    <glyph glyph-name="Uhungarumlaut" unicode="&#x170;" horiz-adv-x="1617" 
d="M825 -35q-268 0 -412.5 115t-144.5 336v852q0 65 -48.5 98t-174.5 37v24h670v-24q-124 -4 -165.5 -35t-41.5 -100v-828q0 -405 416 -405q168 0 262 94q114 114 114 332v626q0 153 -60 223.5t-214 92.5v24h565v-24q-141 -24 -190 -92.5t-49 -223.5v-643
q0 -224 -131 -351.5t-396 -127.5zM942 1573l115 262q39 93 68.5 129.5t72.5 36.5q37 0 59.5 -23.5t22.5 -60.5q0 -31 -24.5 -66t-90.5 -96l-200 -182h-23zM625 1573l112 262q39 92 68.5 129t73.5 37q38 0 61 -23.5t23 -60.5q0 -31 -26 -67t-89 -95l-201 -182h-22z" />
    <glyph glyph-name="uhungarumlaut" unicode="&#x171;" 
d="M428 -14q-123 0 -191.5 72t-68.5 214v543q0 49 -32.5 74t-117.5 26v25l365 8v-631q0 -114 38.5 -170.5t127.5 -56.5q129 0 215 168v557q0 49 -32 73t-116 25v25l363 10v-848q0 -41 30.5 -57.5t116.5 -19.5v-23h-358v209q-133 -223 -340 -223zM666 1081l114 262
q39 92 68.5 129t73.5 37q37 0 59.5 -23.5t22.5 -60.5q0 -31 -24.5 -65.5t-90.5 -95.5l-201 -183h-22zM348 1081l113 262q39 93 68.5 129.5t72.5 36.5q38 0 61 -23.5t23 -60.5q0 -30 -25.5 -66t-89.5 -95l-200 -183h-23z" />
    <glyph glyph-name="Uogonek" unicode="&#x172;" horiz-adv-x="1617" 
d="M825 -35q-268 0 -412.5 115t-144.5 336v852q0 65 -48.5 98t-174.5 37v24h670v-24q-124 -4 -165.5 -35t-41.5 -100v-828q0 -405 416 -405q168 0 262 94q114 114 114 332v626q0 153 -60 223.5t-214 92.5v24h565v-24q-141 -24 -190 -92.5t-49 -223.5v-643
q0 -203 -108 -327.5t-326 -145.5l-19 -22q-108 -123 -108 -248q0 -65 32.5 -99t87.5 -34q65 0 131 35l13 -27q-107 -76 -228 -76q-88 0 -143 45.5t-55 122.5q0 74 46 134.5t154 146.5l23 16h-27z" />
    <glyph glyph-name="uogonek" unicode="&#x173;" 
d="M428 -14q-123 0 -191.5 72t-68.5 214v543q0 49 -32.5 74t-117.5 26v25l365 8v-631q0 -114 38.5 -170.5t127.5 -56.5q129 0 215 168v557q0 49 -32 73t-116 25v25l363 10v-848q0 -41 30.5 -57.5t116.5 -19.5v-23h-110l-47 -51q-109 -124 -109 -248q0 -65 33 -99t88 -34
q65 0 131 35l14 -27q-110 -76 -229 -76q-88 0 -143.5 45.5t-55.5 122.5q0 74 46 134t155 147l68 51h-199v209q-133 -223 -340 -223z" />
    <glyph glyph-name="Wcircumflex" unicode="&#x174;" horiz-adv-x="2109" 
d="M809 1573l278 393h27l260 -393h-33l-247 190l-252 -190h-33zM1051 1061l-43 133q-39 120 -82.5 159t-147.5 50v24h625v-24q-126 -7 -158 -42.5t0 -129.5l299 -920h8l252 799q23 74 26.5 123.5t-15.5 83.5t-58 53.5t-106 32.5v24h485v-24q-114 -20 -175 -92t-116 -242
l-352 -1106h-72l-346 1032l-373 -1032h-71l-398 1231q-25 77 -50 115.5t-67.5 59.5t-121.5 34v24h635v-24q-82 -5 -120.5 -25t-43 -56.5t13.5 -90.5l281 -924h8z" />
    <glyph glyph-name="wcircumflex" unicode="&#x175;" horiz-adv-x="1521" 
d="M530 1081l279 394h27l260 -394h-33l-248 191l-252 -191h-33zM770 670l-35 96q-29 80 -63.5 112.5t-100.5 41.5v24h490v-24q-67 -6 -97 -26t-30 -58q0 -18 10 -48l193 -565h8l149 457q33 101 33 133q0 49 -32.5 73.5t-104.5 33.5v24h373v-24q-62 -8 -113.5 -52t-79.5 -125
l-268 -757h-84l-227 624l-256 -624h-80l-303 780q-31 79 -68.5 112t-110.5 42v24h502v-24q-125 -11 -125 -82q0 -20 10 -50l213 -569h9z" />
    <glyph glyph-name="Ycircumflex" unicode="&#x176;" horiz-adv-x="1386" 
d="M791 682l266 467q74 123 55 175.5t-158 78.5v24h473v-24q-106 -19 -173.5 -75.5t-155.5 -209.5l-281 -481v-475q0 -67 48.5 -99t181.5 -36v-27h-697v27q92 3 143 19.5t69 43.5t18 72v434l-361 637q-46 80 -93.5 115t-139.5 55v24h659v-24q-99 -6 -143.5 -27.5t-42 -58.5
t32.5 -92zM444 1573l279 393h27l260 -393h-33l-248 190l-252 -190h-33z" />
    <glyph glyph-name="ycircumflex" unicode="&#x177;" horiz-adv-x="1007" 
d="M508 -23l-358 789q-38 82 -75 113.5t-110 40.5v24h508v-24q-88 -7 -110.5 -39.5t6.5 -89.5l241 -572l183 467q46 123 22 171t-135 63v24h371v-24q-113 -16 -183 -177l-336 -819q-78 -188 -154 -262t-169 -74q-72 0 -116 42t-44 104q0 51 31 88t86 37q48 0 81.5 -35.5
t33.5 -87.5q0 -65 -45 -103q69 8 129.5 75.5t130.5 240.5zM260 1081l279 394h26l260 -394h-32l-248 191l-252 -191h-33z" />
    <glyph glyph-name="Ydieresis" unicode="&#x178;" horiz-adv-x="1386" 
d="M791 682l266 467q74 123 55 175.5t-158 78.5v24h473v-24q-106 -19 -173.5 -75.5t-155.5 -209.5l-281 -481v-475q0 -67 48.5 -99t181.5 -36v-27h-697v27q92 3 143 19.5t69 43.5t18 72v434l-361 637q-46 80 -93.5 115t-139.5 55v24h659v-24q-99 -6 -143.5 -27.5t-42 -58.5
t32.5 -92zM987 1583q-55 0 -91 37t-36 92q0 56 36 94.5t91 38.5t91 -38.5t36 -94.5q0 -55 -36 -92t-91 -37zM608 1583q-56 0 -91.5 37t-35.5 92q0 56 35.5 94.5t91.5 38.5q55 0 90 -38.5t35 -94.5q0 -55 -35 -92t-90 -37z" />
    <glyph glyph-name="Zacute" unicode="&#x179;" horiz-adv-x="1331" 
d="M596 1573l96 260q31 94 57.5 131t71.5 37q40 0 68.5 -26t28.5 -64q0 -29 -24.5 -63.5t-82.5 -92.5l-188 -182h-27zM72 0l-2 23l891 1363h-377q-110 0 -209.5 -93.5t-222.5 -311.5l-27 4l35 442h1091l2 -22l-891 -1364h437q60 0 110 22.5t102 79t99.5 128t118.5 194.5
l28 -4l-28 -461h-1157z" />
    <glyph glyph-name="zacute" unicode="&#x17a;" horiz-adv-x="962" 
d="M432 1081l96 260q31 94 57.5 131t71.5 37q40 0 68.5 -26t28.5 -64q0 -29 -24.5 -63t-82.5 -92l-188 -183h-27zM63 0l-4 27l609 876h-209q-87 0 -156 -62t-168 -231l-31 4l29 330h774l4 -29l-606 -874h232q90 0 160.5 66.5t172.5 240.5l29 -4l-29 -344h-807z" />
    <glyph glyph-name="Zdotaccent" unicode="&#x17b;" horiz-adv-x="1331" 
d="M72 0l-2 23l891 1363h-377q-110 0 -209.5 -93.5t-222.5 -311.5l-27 4l35 442h1091l2 -22l-891 -1364h437q60 0 110 22.5t102 79t99.5 128t118.5 194.5l28 -4l-28 -461h-1157zM680 1583q-62 0 -98.5 36.5t-36.5 98.5q0 61 37.5 100.5t97.5 39.5q61 0 97 -38t36 -100
q0 -60 -37.5 -98.5t-95.5 -38.5z" />
    <glyph glyph-name="zdotaccent" unicode="&#x17c;" horiz-adv-x="962" 
d="M63 0l-4 27l609 876h-209q-87 0 -156 -62t-168 -231l-31 4l29 330h774l4 -29l-606 -874h232q90 0 160.5 66.5t172.5 240.5l29 -4l-29 -344h-807zM508 1092q-62 0 -98.5 37t-36.5 98q0 60 37.5 99.5t97.5 39.5q61 0 97 -37.5t36 -99.5q0 -60 -37.5 -98.5t-95.5 -38.5z" />
    <glyph glyph-name="Zcaron" unicode="&#x17d;" horiz-adv-x="1331" 
d="M672 1573l-260 393h32l248 -190l250 190h33l-277 -393h-26zM72 0l-2 23l891 1363h-377q-110 0 -209.5 -93.5t-222.5 -311.5l-27 4l35 442h1091l2 -22l-891 -1364h437q60 0 110 22.5t102 79t99.5 128t118.5 194.5l28 -4l-28 -461h-1157z" />
    <glyph glyph-name="zcaron" unicode="&#x17e;" horiz-adv-x="962" 
d="M489 1081l-260 394h33l248 -191l250 191h33l-277 -394h-27zM63 0l-4 27l609 876h-209q-87 0 -156 -62t-168 -231l-31 4l29 330h774l4 -29l-606 -874h232q90 0 160.5 66.5t172.5 240.5l29 -4l-29 -344h-807z" />
    <glyph glyph-name="Aringacute" unicode="&#x1fa;" horiz-adv-x="1404" 
d="M623 1892l96 260q31 94 57.5 131t71.5 37q40 0 68 -26t28 -64q0 -29 -24 -63t-82 -92l-189 -183h-26zM709 1460q55 0 83.5 48t28.5 134q0 181 -114 181q-113 0 -113 -181q0 -86 30 -134t85 -48zM358 547l-69 -178q-47 -123 -48 -190.5t40 -101.5t137 -50v-27h-479v27
q102 28 166 101t128 237l422 1069q-82 13 -130 71t-48 137q0 91 64 152t168 61q103 0 166 -61t63 -152q0 -76 -46.5 -133.5t-123.5 -72.5l446 -1213q39 -107 81.5 -143t158.5 -53v-27h-672v27q143 7 179 43t4 125l-123 352h-484zM827 588l-213 604h-8l-233 -604h454z" />
    <glyph glyph-name="aringacute" unicode="&#x1fb;" horiz-adv-x="1005" 
d="M344 -12q-128 0 -195 66.5t-67 160.5q0 63 30.5 118t92.5 89q67 37 165.5 61.5t177.5 37t95 20.5v147q0 118 -38.5 172.5t-127.5 54.5q-111 0 -170 -59q55 -52 55 -111q0 -55 -31.5 -87.5t-90.5 -32.5q-53 0 -86 34t-33 86q0 92 105 150.5t276 58.5q177 0 265.5 -72.5
t88.5 -228.5v-477q0 -79 33.5 -103t122.5 9l8 -21q-58 -36 -102 -52.5t-95 -16.5q-85 0 -123 36.5t-47 121.5h-8q-140 -162 -301 -162zM463 82q97 0 180 115v305q-136 -27 -207.5 -59.5t-98 -76t-26.5 -116.5q0 -77 38.5 -122.5t113.5 -45.5zM442 1589l97 260
q31 94 57.5 131t71.5 37q40 0 68 -26t28 -64q0 -29 -24.5 -63t-82.5 -92l-188 -183h-27zM512 1092q-105 0 -168 61.5t-63 153.5q0 90 64 151.5t167 61.5t166 -61t63 -152q0 -92 -63 -153.5t-166 -61.5zM512 1126q55 0 84 47.5t29 133.5q0 92 -28.5 135t-86.5 43
q-113 0 -113 -178q0 -85 30 -133t85 -48z" />
    <glyph glyph-name="AEacute" unicode="&#x1fc;" horiz-adv-x="2125" 
d="M1135 1573l96 260q31 94 57.5 131t71.5 37q40 0 68 -26t28 -64q0 -29 -24.5 -64t-81.5 -92l-189 -182h-26zM492 573l-158 -247q-80 -126 -80 -191q0 -83 135 -108v-27h-475v27q195 48 381 335l557 865q29 50 29 78q0 38 -53 61.5t-171 36.5v24h1299l6 -460l-29 -4
q-39 94 -70.5 157t-71 118t-83.5 85.5t-101 48t-130 17.5h-246v-629h110q131 0 202.5 60.5t111.5 219.5h26v-600h-26q-40 159 -111.5 220t-202.5 61h-110v-682h242q107 0 184 25t137.5 84t104.5 137t94 204l28 -2l-10 -487h-1243v27q128 4 175.5 36t47.5 99v411h-499z
M991 614v738h-8l-467 -738h475z" />
    <glyph glyph-name="aeacute" unicode="&#x1fd;" horiz-adv-x="1568" 
d="M1106 961q199 0 305 -123.5t94 -313.5h-628v-47v-4q0 -185 82.5 -296t238.5 -111q91 0 155.5 42.5t133.5 131.5l22 -17q-69 -112 -164.5 -175.5t-238.5 -63.5q-134 0 -236 59.5t-151 167.5h-8q-55 -97 -154.5 -160t-214.5 -63q-127 0 -193.5 66.5t-66.5 160.5
q0 63 30.5 118t92.5 89q66 36 169.5 60.5t188.5 37.5t101 21v147q0 227 -187 227q-111 0 -170 -59q55 -52 55 -111q0 -55 -31.5 -87.5t-90.5 -32.5q-53 0 -86 34t-33 86q0 92 105 150.5t276 58.5q220 0 299 -125q61 62 140.5 97t164.5 35zM1092 922q-93 0 -148 -92.5
t-65 -268.5h397q32 361 -184 361zM463 82q56 0 114.5 36.5t86.5 90.5v291q-204 -40 -278.5 -93t-74.5 -157q0 -77 38.5 -122.5t113.5 -45.5zM762 1081l96 260q31 94 57.5 131t71.5 37q40 0 68 -26t28 -64q0 -29 -24 -63t-82 -92l-189 -183h-26z" />
    <glyph glyph-name="Oslashacute" unicode="&#x1fe;" horiz-adv-x="1568" 
d="M784 -35q137 0 263 55t221 151.5t152 238.5t57 307q0 168 -55.5 307.5t-155.5 239.5l192 237h-69l-162 -198q-189 159 -443 159q-138 0 -264 -54.5t-221.5 -151t-152 -238.5t-56.5 -307q0 -170 55.5 -310t155.5 -239l-190 -236h69l160 199q186 -160 444 -160zM793 4
q-255 0 -357 238l717 886q53 -157 53 -415q0 -196 -28.5 -334.5t-83.5 -220t-128.5 -118t-172.5 -36.5zM774 1423q254 0 356 -239l-716 -885q-52 164 -52 416q0 196 28 334.5t83 219.5t128.5 117.5t172.5 36.5zM713 1573l96 260q31 94 57.5 131t71.5 37q40 0 68 -26t28 -64
q0 -29 -24.5 -64t-81.5 -92l-189 -182h-26z" />
    <glyph glyph-name="oslashacute" unicode="&#x1ff;" horiz-adv-x="1087" 
d="M150 -51h-60l125 153q-149 136 -149 367q0 214 139.5 353t339.5 139q165 0 291 -93l102 127h59l-127 -155q72 -64 112 -157.5t40 -205.5q0 -143 -65 -256.5t-173.5 -175t-238.5 -61.5q-171 0 -293 90zM303 473q0 -129 23 -233l417 518q-58 164 -208 164q-118 0 -175 -107
t-57 -342zM553 23q116 0 172.5 107.5t56.5 342.5q0 131 -22 227l-418 -514q58 -163 211 -163zM485 1081l97 260q31 94 57.5 131t71.5 37q40 0 68 -26t28 -64q0 -29 -24.5 -63t-82.5 -92l-188 -183h-27z" />
    <glyph glyph-name="Scommaaccent" unicode="&#x218;" horiz-adv-x="1187" 
d="M475 -598l-14 25q165 103 176 229l-8 2q-25 -14 -54 -14q-45 0 -76.5 31.5t-31.5 78.5q0 51 34 87t85 36q64 0 102.5 -44.5t38.5 -119.5q0 -94 -66 -175.5t-186 -135.5zM113 -37v512h28q101 -223 217.5 -343t270.5 -120q73 0 131.5 23t95 61t55.5 84.5t19 95.5
q0 128 -85.5 198.5t-291.5 141.5q-164 58 -225 91q-150 81 -182 217q-11 43 -11 94q0 199 136 318.5t347 119.5q160 0 308 -70l73 82h25v-456h-29q-86 205 -186 305t-223 100q-110 0 -188.5 -68t-78.5 -184q0 -52 16.5 -93.5t44.5 -72t77.5 -58.5t101 -48.5t129.5 -46.5
q43 -14 66 -22.5t63 -24.5t63 -28.5t56 -32.5t52.5 -40t41.5 -47.5t34 -58t20 -69t8 -81.5q0 -88 -27.5 -169t-83 -150t-153 -110.5t-224.5 -41.5q-85 0 -179.5 26t-164.5 66l-123 -100h-24z" />
    <glyph glyph-name="scommaaccent" unicode="&#x219;" horiz-adv-x="854" 
d="M305 -598l-14 25q165 103 176 229l-8 2q-25 -14 -53 -14q-45 0 -77 31.5t-32 78.5q0 51 34 87t85 36q64 0 102.5 -44.5t38.5 -119.5q0 -94 -66 -175.5t-186 -135.5zM78 -16v340h28q100 -173 174.5 -237t182.5 -64q82 0 129 46.5t47 110.5q0 72 -55.5 116.5t-204.5 86.5
q-162 46 -229.5 105.5t-67.5 170.5q0 133 94.5 217.5t251.5 84.5q124 0 231 -64l52 64h22v-306h-28q-49 80 -81 124.5t-68 80t-72 49t-83 13.5q-71 0 -118 -44t-47 -114q0 -63 57 -102.5t182 -71.5q163 -44 236 -109.5t73 -181.5q0 -135 -92.5 -225t-253.5 -90
q-60 0 -143 21.5t-127 51.5l-68 -73h-22z" />
    <glyph glyph-name="schwa" unicode="&#x259;" horiz-adv-x="991" 
d="M461 958q206 0 334.5 -132.5t128.5 -344.5q0 -143 -63.5 -258t-169 -178t-230.5 -63q-200 0 -306 123.5t-94 312.5h627q0 7 1 23t1 24v4q0 185 -82.5 296.5t-238.5 111.5q-91 0 -155.5 -42.5t-133.5 -132.5l-23 17q69 112 165 175.5t239 63.5zM475 20q93 0 148 92t65 269
h-397q-32 -361 184 -361z" />
    <glyph glyph-name="circumflex" unicode="&#x2c6;" horiz-adv-x="630" 
d="M33 1081l278 394h27l260 -394h-33l-248 191l-251 -191h-33z" />
    <glyph glyph-name="caron" unicode="&#x2c7;" horiz-adv-x="630" 
d="M295 1081l-260 394h33l247 -191l250 191h33l-276 -394h-27z" />
    <glyph glyph-name="breve" unicode="&#x2d8;" horiz-adv-x="688" 
d="M346 1092q-115 0 -191.5 89.5t-88.5 235.5h30q55 -180 248 -180t248 180h31q-11 -146 -86.5 -235.5t-190.5 -89.5z" />
    <glyph glyph-name="dotaccent" unicode="&#x2d9;" horiz-adv-x="428" 
d="M215 1092q-61 0 -98 37t-37 98q0 60 37.5 99.5t97.5 39.5q61 0 97 -37.5t36 -99.5q0 -60 -37.5 -98.5t-95.5 -38.5z" />
    <glyph glyph-name="ring" unicode="&#x2da;" horiz-adv-x="542" 
d="M272 1092q-105 0 -168 61.5t-63 153.5q0 90 64 151.5t167 61.5q104 0 167 -61t63 -152q0 -92 -63.5 -153.5t-166.5 -61.5zM272 1126q55 0 84 47.5t29 133.5q0 92 -28.5 135t-86.5 43q-56 0 -84 -43t-28 -135q0 -86 29.5 -133.5t84.5 -47.5z" />
    <glyph glyph-name="ogonek" unicode="&#x2db;" horiz-adv-x="550" 
d="M244 -500q-88 0 -143.5 45.5t-55.5 122.5q0 74 46 134t155 147l100 74h37l-68 -74q-108 -123 -108 -248q0 -65 33 -99t88 -34q65 0 131 35l12 -27q-107 -76 -227 -76z" />
    <glyph glyph-name="tilde" unicode="&#x2dc;" horiz-adv-x="700" 
d="M27 1077q18 137 63.5 200.5t132.5 63.5q52 0 166.5 -51t149.5 -51q69 0 102 123h33q-19 -136 -66 -200t-131 -64q-52 0 -166 51t-149 51q-70 0 -103 -123h-32z" />
    <glyph glyph-name="hungarumlaut" unicode="&#x2dd;" horiz-adv-x="614" 
d="M293 1081l115 262q39 93 68.5 129.5t72.5 36.5q37 0 59.5 -23.5t22.5 -60.5q0 -31 -24.5 -65.5t-90.5 -95.5l-201 -183h-22zM-25 1081l113 262q39 93 68.5 129.5t72.5 36.5q38 0 61 -23.5t23 -60.5q0 -31 -25.5 -66.5t-88.5 -94.5l-201 -183h-23z" />
    <glyph glyph-name="commaaccent" unicode="&#x326;" horiz-adv-x="477" 
d="M119 -598l-15 25q167 104 177 229l-9 2q-24 -14 -53 -14q-45 0 -76.5 31.5t-31.5 78.5q0 51 33.5 87t84.5 36q65 0 103.5 -44.5t38.5 -119.5q0 -94 -66 -175.5t-186 -135.5z" />
    <glyph glyph-name="Wgrave" unicode="&#x1e80;" horiz-adv-x="2109" 
d="M1051 1061l-43 133q-39 120 -82.5 159t-147.5 50v24h625v-24q-126 -7 -158 -42.5t0 -129.5l299 -920h8l252 799q23 74 26.5 123.5t-15.5 83.5t-58 53.5t-106 32.5v24h485v-24q-114 -20 -175 -92t-116 -242l-352 -1106h-72l-346 1032l-373 -1032h-71l-398 1231
q-25 77 -50 115.5t-67.5 59.5t-121.5 34v24h635v-24q-82 -5 -120.5 -25t-43 -56.5t13.5 -90.5l281 -924h8zM1106 1573l-191 182q-56 56 -80 91t-24 65q0 38 28 64t68 26q45 0 71.5 -37t57.5 -131l97 -260h-27z" />
    <glyph glyph-name="wgrave" unicode="&#x1e81;" horiz-adv-x="1521" 
d="M770 670l-35 96q-29 80 -63.5 112.5t-100.5 41.5v24h490v-24q-67 -6 -97 -26t-30 -58q0 -18 10 -48l193 -565h8l149 457q33 101 33 133q0 49 -32.5 73.5t-104.5 33.5v24h373v-24q-62 -8 -113.5 -52t-79.5 -125l-268 -757h-84l-227 624l-256 -624h-80l-303 780
q-31 79 -68.5 112t-110.5 42v24h502v-24q-125 -11 -125 -82q0 -20 10 -50l213 -569h9zM801 1081l-191 183q-56 56 -80 90.5t-24 64.5q0 38 28 64t68 26q45 0 71.5 -37t57.5 -131l96 -260h-26z" />
    <glyph glyph-name="Wacute" unicode="&#x1e82;" horiz-adv-x="2109" 
d="M1047 1573l96 260q31 94 57.5 131t71.5 37q40 0 68 -26t28 -64q0 -29 -24.5 -64t-81.5 -92l-189 -182h-26zM1051 1061l-43 133q-39 120 -82.5 159t-147.5 50v24h625v-24q-126 -7 -158 -42.5t0 -129.5l299 -920h8l252 799q23 74 26.5 123.5t-15.5 83.5t-58 53.5t-106 32.5
v24h485v-24q-114 -20 -175 -92t-116 -242l-352 -1106h-72l-346 1032l-373 -1032h-71l-398 1231q-25 77 -50 115.5t-67.5 59.5t-121.5 34v24h635v-24q-82 -5 -120.5 -25t-43 -56.5t13.5 -90.5l281 -924h8z" />
    <glyph glyph-name="wacute" unicode="&#x1e83;" horiz-adv-x="1521" 
d="M784 1081l97 260q31 94 57.5 131t71.5 37q40 0 68 -26t28 -64q0 -29 -24.5 -63t-82.5 -92l-188 -183h-27zM770 670l-35 96q-29 80 -63.5 112.5t-100.5 41.5v24h490v-24q-67 -6 -97 -26t-30 -58q0 -18 10 -48l193 -565h8l149 457q33 101 33 133q0 49 -32.5 73.5
t-104.5 33.5v24h373v-24q-62 -8 -113.5 -52t-79.5 -125l-268 -757h-84l-227 624l-256 -624h-80l-303 780q-31 79 -68.5 112t-110.5 42v24h502v-24q-125 -11 -125 -82q0 -20 10 -50l213 -569h9z" />
    <glyph glyph-name="Wdieresis" unicode="&#x1e84;" horiz-adv-x="2109" 
d="M1280 1583q-55 0 -91 37t-36 92q0 56 36 94.5t91 38.5t91 -38.5t36 -94.5q0 -55 -36 -92t-91 -37zM901 1583q-56 0 -91.5 37t-35.5 92q0 56 35.5 94.5t91.5 38.5q55 0 90 -38.5t35 -94.5q0 -55 -35 -92t-90 -37zM1051 1061l-43 133q-39 120 -82.5 159t-147.5 50v24h625
v-24q-126 -7 -158 -42.5t0 -129.5l299 -920h8l252 799q23 74 26.5 123.5t-15.5 83.5t-58 53.5t-106 32.5v24h485v-24q-114 -20 -175 -92t-116 -242l-352 -1106h-72l-346 1032l-373 -1032h-71l-398 1231q-25 77 -50 115.5t-67.5 59.5t-121.5 34v24h635v-24q-82 -5 -120.5 -25
t-43 -56.5t13.5 -90.5l281 -924h8z" />
    <glyph glyph-name="wdieresis" unicode="&#x1e85;" horiz-adv-x="1521" 
d="M1004 1092q-55 0 -91 37t-36 92q0 56 36 94.5t91 38.5t90.5 -38.5t35.5 -94.5q0 -55 -35.5 -92t-90.5 -37zM625 1092q-56 0 -91.5 37t-35.5 92q0 56 35.5 94.5t91.5 38.5q55 0 90 -38.5t35 -94.5q0 -55 -35 -92t-90 -37zM770 670l-35 96q-29 80 -63.5 112.5t-100.5 41.5
v24h490v-24q-67 -6 -97 -26t-30 -58q0 -18 10 -48l193 -565h8l149 457q33 101 33 133q0 49 -32.5 73.5t-104.5 33.5v24h373v-24q-62 -8 -113.5 -52t-79.5 -125l-268 -757h-84l-227 624l-256 -624h-80l-303 780q-31 79 -68.5 112t-110.5 42v24h502v-24q-125 -11 -125 -82
q0 -20 10 -50l213 -569h9z" />
    <glyph glyph-name="Ygrave" unicode="&#x1ef2;" horiz-adv-x="1386" 
d="M791 682l266 467q74 123 55 175.5t-158 78.5v24h473v-24q-106 -19 -173.5 -75.5t-155.5 -209.5l-281 -481v-475q0 -67 48.5 -99t181.5 -36v-27h-697v27q92 3 143 19.5t69 43.5t18 72v434l-361 637q-46 80 -93.5 115t-139.5 55v24h659v-24q-99 -6 -143.5 -27.5t-42 -58.5
t32.5 -92zM748 1573l-191 182q-56 56 -80 91t-24 65q0 38 28 64t68 26q45 0 71.5 -37t57.5 -131l96 -260h-26z" />
    <glyph glyph-name="ygrave" unicode="&#x1ef3;" horiz-adv-x="1007" 
d="M508 -23l-358 789q-38 82 -75 113.5t-110 40.5v24h508v-24q-88 -7 -110.5 -39.5t6.5 -89.5l241 -572l183 467q46 123 22 171t-135 63v24h371v-24q-113 -16 -183 -177l-336 -819q-78 -188 -154 -262t-169 -74q-72 0 -116 42t-44 104q0 51 31 88t86 37q48 0 81.5 -35.5
t33.5 -87.5q0 -65 -45 -103q69 8 129.5 75.5t130.5 240.5zM537 1081l-191 183q-56 56 -80 90.5t-24 64.5q0 38 28 64t68 26q45 0 71.5 -37t57.5 -131l96 -260h-26z" />
    <glyph glyph-name="enspace" unicode="&#x2002;" horiz-adv-x="1024" 
 />
    <glyph glyph-name="emspace" unicode="&#x2003;" horiz-adv-x="2048" 
 />
    <glyph glyph-name="threeperemspace" unicode="&#x2004;" horiz-adv-x="681" 
 />
    <glyph glyph-name="fourperemspace" unicode="&#x2005;" horiz-adv-x="512" 
 />
    <glyph glyph-name="thinspace" unicode="&#x2009;" horiz-adv-x="272" 
 />
    <glyph glyph-name="hairspace" unicode="&#x200a;" horiz-adv-x="153" 
 />
    <glyph glyph-name="endash" unicode="&#x2013;" horiz-adv-x="1105" 
d="M113 516v45h880v-45h-880z" />
    <glyph glyph-name="emdash" unicode="&#x2014;" horiz-adv-x="1617" 
d="M113 516v45h1392v-45h-1392z" />
    <glyph glyph-name="quoteleft" unicode="&#x2018;" horiz-adv-x="477" 
d="M246 909q-72 0 -115 48.5t-43 127.5q0 120 84 217t244 158l14 -24q-106 -52 -169 -131t-71 -148l9 -4q26 16 57 16q52 0 86.5 -34.5t34.5 -87.5q0 -57 -37 -97.5t-94 -40.5z" />
    <glyph glyph-name="quoteright" unicode="&#x2019;" horiz-adv-x="477" 
d="M59 905l-14 25q105 53 168.5 131t71.5 147l-9 4q-24 -18 -59 -18q-50 0 -85.5 35t-35.5 88q0 56 37.5 96.5t93.5 40.5q73 0 115.5 -48.5t42.5 -127.5q0 -120 -83 -216t-243 -157z" />
    <glyph glyph-name="quotesinglbase" unicode="&#x201a;" horiz-adv-x="477" 
d="M59 -309l-14 24q105 53 168.5 131.5t71.5 147.5l-9 4q-24 -18 -59 -18q-50 0 -85.5 34.5t-35.5 87.5q0 57 37.5 97.5t93.5 40.5q73 0 115.5 -49t42.5 -128q0 -119 -83 -215t-243 -157z" />
    <glyph glyph-name="quotedblleft" unicode="&#x201c;" horiz-adv-x="860" 
d="M631 909q-73 0 -115.5 48.5t-42.5 127.5q0 120 83 217t243 158l14 -24q-106 -52 -169 -131t-71 -148l9 -4q26 16 57 16q52 0 86.5 -34.5t34.5 -87.5q0 -57 -36.5 -97.5t-92.5 -40.5zM246 909q-72 0 -115 48.5t-43 127.5q0 120 84 217t244 158l14 -24q-106 -52 -169 -131
t-71 -148l9 -4q26 16 57 16q52 0 86.5 -34.5t34.5 -87.5q0 -57 -37 -97.5t-94 -40.5z" />
    <glyph glyph-name="quotedblright" unicode="&#x201d;" horiz-adv-x="860" 
d="M442 905l-14 25q106 52 169 130t71 148l-9 4q-24 -18 -57 -18q-52 0 -86.5 35t-34.5 88q0 57 37 97t94 40q72 0 115 -48.5t43 -127.5q0 -119 -84 -215.5t-244 -157.5zM59 905l-14 25q105 53 168.5 131t71.5 147l-9 4q-24 -18 -59 -18q-50 0 -85.5 35t-35.5 88
q0 56 37.5 96.5t93.5 40.5q73 0 115.5 -48.5t42.5 -127.5q0 -120 -83 -216t-243 -157z" />
    <glyph glyph-name="quotedblbase" unicode="&#x201e;" horiz-adv-x="860" 
d="M442 -309l-14 24q106 52 169 130.5t71 148.5l-9 4q-24 -18 -57 -18q-52 0 -86.5 34.5t-34.5 87.5q0 57 37 97.5t94 40.5q71 0 114.5 -49t43.5 -128q0 -119 -84 -215t-244 -157zM59 -309l-14 24q105 53 168.5 131.5t71.5 147.5l-9 4q-24 -18 -59 -18q-50 0 -85.5 34.5
t-35.5 87.5q0 57 37.5 97.5t93.5 40.5q73 0 115.5 -49t42.5 -128q0 -119 -83 -215t-243 -157z" />
    <glyph glyph-name="dagger" unicode="&#x2020;" horiz-adv-x="1146" 
d="M559 -219q-13 254 -49.5 515t-65.5 341l84 129q25 36 25 74q0 51 -29.5 80.5t-83.5 29.5q-56 0 -146 -42t-126 -42q-44 0 -76.5 22.5t-32.5 65.5q0 46 48 76.5t122 30.5q107 0 324 -117l6 6l-45 211q-41 171 -41 238q0 60 27 97.5t73 37.5t73.5 -37.5t27.5 -97.5
q0 -16 -2 -35.5t-7 -46.5t-8.5 -45.5t-11.5 -56t-12 -54.5l-45 -211l6 -6q217 117 324 117q74 0 121.5 -30.5t47.5 -76.5q0 -43 -32 -65.5t-76 -22.5q-32 0 -78 21t-97.5 42t-96.5 21q-54 0 -83.5 -29.5t-29.5 -80.5q0 -40 24 -74l84 -129q-28 -78 -64 -338t-50 -518h-29z
" />
    <glyph glyph-name="daggerdbl" unicode="&#x2021;" horiz-adv-x="1159" 
d="M580 -223q-47 0 -74 34t-27 93q0 19 4 45.5t8.5 48t14 61t14.5 64.5l45 209l-6 6q-213 -119 -323 -119q-76 0 -123 30t-47 79q0 41 32 63.5t76 22.5q36 0 126 -42t146 -42q111 0 111 94q0 49 -25 94l-63 137l63 136q25 45 25 90q0 46 -29 72t-82 26q-56 0 -146 -42
t-126 -42q-44 0 -76 22.5t-32 65.5q0 46 48 76.5t122 30.5q106 0 323 -117l6 6l-45 207q-5 25 -14.5 64.5t-14 61t-8.5 48.5t-4 47q0 59 27 93t74 34t73.5 -34t26.5 -93q0 -20 -4 -47t-8.5 -48.5t-14 -61t-14.5 -64.5l-45 -207l6 -6q217 117 324 117q74 0 122 -30.5
t48 -76.5q0 -43 -32.5 -65.5t-76.5 -22.5q-32 0 -78 21t-97.5 42t-96.5 21q-54 0 -82.5 -24t-28.5 -68q0 -51 25 -96l63 -136l-63 -137q-25 -45 -25 -94q0 -94 111 -94q45 0 96.5 21t97.5 42t78 21q44 0 76.5 -22.5t32.5 -63.5q0 -46 -48 -77.5t-122 -31.5q-111 0 -324 119
l-6 -6l45 -209q5 -25 14.5 -64.5t14 -61t8.5 -48t4 -45.5q0 -59 -26.5 -93t-73.5 -34z" />
    <glyph glyph-name="bullet" unicode="&#x2022;" horiz-adv-x="968" 
d="M485 406q-113 0 -191.5 78.5t-78.5 189.5t78.5 190.5t191.5 79.5q112 0 190.5 -79.5t78.5 -190.5t-78.5 -189.5t-190.5 -78.5z" />
    <glyph glyph-name="ellipsis" unicode="&#x2026;" horiz-adv-x="1402" 
d="M1163 -33q-59 0 -99 39.5t-40 95.5q0 57 40.5 97.5t100.5 40.5q58 0 98 -40t40 -96q0 -57 -41 -97t-99 -40zM700 -33q-58 0 -98.5 39.5t-40.5 95.5q0 57 40.5 97.5t100.5 40.5q58 0 98 -40t40 -96q0 -57 -41 -97t-99 -40zM240 -33q-60 0 -101 39.5t-41 95.5q0 57 41 97.5
t101 40.5q58 0 97.5 -40t39.5 -96q0 -57 -39.5 -97t-97.5 -40z" />
    <glyph glyph-name="guilsinglleft" unicode="&#x2039;" horiz-adv-x="620" 
d="M500 57l-383 349q-28 25 -35.5 34.5t-7.5 20.5q0 17 43 53l383 348l24 -18l-264 -383l264 -387z" />
    <glyph glyph-name="guilsinglright" unicode="&#x203a;" horiz-adv-x="620" 
d="M121 57l-25 19l264 383l-264 387l25 16l383 -348q28 -25 35.5 -34.5t7.5 -20.5q0 -17 -43 -53z" />
    <glyph glyph-name="fraction" unicode="&#x2044;" horiz-adv-x="1243" 
d="M88 -63l504 727l498 727h65l-502 -727l-499 -727h-66z" />
    <glyph glyph-name="Euro" unicode="&#x20ac;" horiz-adv-x="1398" 
d="M915 541h-434q34 -210 150.5 -327.5t288.5 -117.5q119 0 216.5 62.5t159.5 171.5l33 -19q-37 -73 -79 -129.5t-101.5 -108.5t-140 -80t-177.5 -28q-130 0 -237.5 45.5t-181 125t-119.5 182.5t-62 223h-172v43h166q-2 25 -2 75q0 73 10 127h-174v43h183q25 116 82.5 218
t140.5 178.5t195 121t237 44.5q179 0 295.5 -83.5t116.5 -197.5q0 -65 -39.5 -109.5t-98.5 -44.5q-66 0 -107.5 39t-41.5 109q0 53 29 91t71 58q-22 37 -88.5 69t-142.5 32q-175 0 -284 -130.5t-132 -394.5h440v-43h-442q-2 -27 -2 -84q0 -63 6 -118h438v-43z" />
    <glyph glyph-name="published" unicode="&#x2117;" horiz-adv-x="1708" 
d="M854 -70q-163 0 -308.5 60.5t-249.5 164.5t-165 250t-61 310q0 162 61 307t165 249t249.5 165t308.5 61t308.5 -61t249.5 -165t165 -249t61 -307q0 -164 -61 -310t-165 -250t-249.5 -164.5t-308.5 -60.5zM854 -35q156 0 294.5 59.5t236.5 160t155 239t57 291.5
q0 205 -96.5 376t-267.5 271t-379 100t-379 -100t-267.5 -271t-96.5 -376q0 -153 57 -291.5t155 -239t236.5 -160t294.5 -59.5zM514 322v24q72 3 95.5 15t23.5 42v637q0 31 -24 44t-95 16v22h354q179 0 261.5 -61.5t82.5 -167.5q0 -103 -86 -168.5t-264 -65.5h-71v-256
q0 -32 24 -44t100 -15v-22h-401zM791 688h71q102 0 144.5 47.5t42.5 157.5q0 201 -183 201h-75v-406z" />
    <glyph glyph-name="servicemark" unicode="&#x2120;" horiz-adv-x="1171" 
d="M104 1124h23q69 -135 160 -135q46 0 71 24.5t25 55.5q0 32 -28 51.5t-97 42.5q-37 12 -54.5 19t-43 22.5t-36.5 38.5t-11 55q0 65 48 104.5t120 39.5q47 0 104 -21l21 23h18v-146h-23q-54 117 -131 117q-36 0 -61 -20.5t-25 -53.5q0 -31 26.5 -48t94.5 -40
q28 -9 41.5 -14.5t36.5 -17.5t34 -24.5t20 -33.5t9 -47q0 -61 -43 -106t-127 -45q-66 0 -118 22l-33 -24h-21v161zM496 973v18q44 4 57.5 23.5t13.5 68.5v267q0 59 -71 61v21h192l119 -322h8l115 322h186v-21q-42 -3 -57 -9.5t-15 -23.5v-352q0 -17 15 -23t57 -8v-22h-231
v22q37 2 49 8t12 23v340h-10l-137 -393h-39l-150 393h-10v-283q0 -49 14 -67.5t60 -24.5v-18h-178z" />
    <glyph glyph-name="trademark" unicode="&#x2122;" horiz-adv-x="1247" 
d="M571 973v18q44 4 58 23.5t14 68.5v267q0 58 -72 61v21h193l119 -322h8l115 322h186v-21q-42 -3 -57 -9.5t-15 -23.5v-352q0 -17 15 -23t57 -8v-22h-231v22q37 2 49 8t12 23v340h-10l-138 -393h-38l-150 393h-10v-283q0 -49 14 -67.5t60 -24.5v-18h-179zM180 973v22
q45 0 61.5 6.5t16.5 24.5v381h-16q-39 0 -68 -34t-57 -103h-23l6 162h416l6 -162h-22q-26 70 -55.5 103.5t-73.5 33.5h-13v-381q0 -18 16.5 -24.5t61.5 -6.5v-22h-256z" />
    <glyph glyph-name="minus" unicode="&#x2212;" horiz-adv-x="1097" 
d="M111 645v45h876v-45h-876z" />
    <glyph glyph-name="registered.alt" horiz-adv-x="1708" 
d="M854 -70q-163 0 -308.5 60.5t-249.5 164.5t-165 250t-61 310q0 162 61 307t165 249t249.5 165t308.5 61t308.5 -61t249.5 -165t165 -249t61 -307q0 -164 -61 -310t-165 -250t-249.5 -164.5t-308.5 -60.5zM854 -35q156 0 294.5 59.5t236.5 160t155 239t57 291.5
q0 205 -96.5 376t-267.5 271t-379 100t-379 -100t-267.5 -271t-96.5 -376q0 -153 57 -291.5t155 -239t236.5 -160t294.5 -59.5zM762 739h78q109 0 145.5 36.5t36.5 137.5q0 91 -40 136t-138 45h-82v-355zM762 713v-310q0 -30 24 -42t91 -15v-24h-392v24q71 3 95 15t24 42
v637q0 31 -24 44t-95 16v22h385q168 0 244 -54.5t76 -141.5q0 -158 -225 -195v-6q57 -1 95.5 -13t61 -36t33 -52t16.5 -69l13 -106q9 -64 30 -84t84 -21v-22q-34 -5 -77 -5q-61 0 -100 8.5t-60.5 28.5t-30.5 44.5t-12 64.5l-8 96q-8 89 -43.5 121.5t-132.5 32.5h-72z" />
    <glyph glyph-name="percent.alt" horiz-adv-x="1753" 
d="M788 1028q0 -156 -102.5 -259t-249.5 -103q-156 0 -256 99t-100 257q0 156 103 259t251 103q155 0 254.5 -99.5t99.5 -256.5zM315 -20l547 720l502 676h76l-545 -714l-504 -682h-76zM428 1348q-85 0 -125.5 -75.5t-40.5 -246.5t45 -247.5t133 -76.5q85 0 125.5 75.5
t40.5 246.5t-45 247.5t-133 76.5zM967 330q0 155 102.5 257.5t249.5 102.5q155 0 255.5 -99.5t100.5 -256.5q0 -156 -102.5 -259.5t-249.5 -103.5q-156 0 -256 100t-100 259zM1327 8q85 0 125.5 76t40.5 246q0 171 -45 247t-133 76q-85 0 -125.5 -74.5t-40.5 -244.5
q0 -172 45 -249t133 -77z" />
    <glyph glyph-name="NUL" horiz-adv-x="0" 
 />
    <glyph glyph-name="hfjslug" horiz-adv-x="1421" 
d="M1319 -410h-426l-16 29h-334l-17 -29h-424v621q28 0 47 18.5t19 46.5q0 27 -19.5 46.5t-46.5 19.5v1135h205l62 161h684l59 -161h207v-1887zM819 1153v-352h31v160h78v28h-78v135h88v29h-119zM377 1153v-352h31v162h96v-162h31v352h-31v-162h-96v162h-31zM942 807
q20 -8 43 -8q64 0 64 73v281h-33v-281q0 -45 -33 -45q-13 0 -41 11v-31zM760 952l-27 6q-9 -39 -16 -61h-2l-33 64q47 44 47 86q0 25 -14.5 44t-40.5 19q-25 0 -41.5 -19t-16.5 -44q0 -9 1 -16.5t4.5 -16.5t6 -13.5t9 -16.5t8.5 -17q-47 -38 -47 -97q0 -34 16.5 -54.5
t42.5 -20.5q41 0 60 49h2l24 -49l25 12l-35 65q16 40 27 80zM1071 662v-95h16v25l17 16l31 -41h20l-41 54l37 41h-21l-40 -50h-3v50h-16zM999 598l21 -31h18l-24 35q20 8 20 29q0 13 -10 22t-25 9h-41v-95h17v31h24zM872 565q22 0 36 14.5t14 34.5q0 19 -14.5 34.5
t-35.5 15.5t-35 -15t-14 -35q0 -21 14 -35t35 -14zM758 616l-27 46h-18l37 -60v-35h16v35l37 60h-19zM395 662v-95h70v15h-53v26h47v15h-47v24h53v15h-70zM270 662v-95h17v66l51 -66h14v95h-16v-66l-51 66h-15zM494 662l28 -97h17l22 70h2l23 -70h16l29 97h-17l-20 -72h-2
l-23 72h-14l-23 -72h-2l-20 72h-16zM670 981q-25 48 -25 66q0 15 8.5 26.5t20.5 11.5t19 -11t7 -27q0 -31 -30 -66zM700 866q-16 -43 -41 -43q-14 0 -23 14t-9 37q0 40 32 72zM997 612h-22v35h22q21 0 21 -16q0 -8 -6 -13.5t-15 -5.5zM872 580q-14 0 -23 10t-9 24q0 13 9 24
t23 11t23.5 -11t9.5 -24q0 -14 -9 -24t-24 -10z" />
    <glyph glyph-name="i.dot" horiz-adv-x="598" 
d="M299 1124q-60 0 -96.5 36t-36.5 97q0 63 36.5 102.5t96.5 39.5q61 0 98 -36.5t37 -98.5t-37 -101t-98 -39zM53 0v25q90 2 120 17t30 60v705q0 49 -33 75t-117 27v25l365 14v-846q0 -46 27.5 -61t121.5 -16v-25h-514z" />
    <glyph glyph-name="caron.alt" horiz-adv-x="282" 
d="M82 1092l-12 243q-4 74 -4 115q0 61 28.5 88t65.5 27t61.5 -23t24.5 -63q0 -42 -31 -121l-109 -266h-24z" />
    </font>
</defs>
</svg>
