<?xml version="1.0" standalone="no"?>
<!DOCTYPE svg PUBLIC "-//W3C//DTD SVG 1.1//EN" "http://www.w3.org/Graphics/SVG/1.1/DTD/svg11.dtd" >
<svg xmlns="http://www.w3.org/2000/svg" xmlns:xlink="http://www.w3.org/1999/xlink" version="1.1">
<metadata>
Created by FontForge 20201107 at Fri Feb 20 10:37:25 2015
 By 
Filia MyCandyThemes 2015 studiofily@gmail.com
</metadata>
<defs>
<font id="SignatureScriptBold" horiz-adv-x="233" >
  <font-face 
    font-family="SignatureScriptBold"
    font-weight="400"
    font-stretch="normal"
    units-per-em="1000"
    panose-1="2 0 0 0 0 0 0 0 0 0"
    ascent="800"
    descent="-200"
    x-height="228"
    cap-height="681"
    bbox="-1100.92 -843 2638.53 1059.33"
    underline-thickness="50"
    underline-position="-150"
    unicode-range="U+0020-E0A2"
  />
<missing-glyph horiz-adv-x="204" 
 />
    <glyph glyph-name=".notdef" horiz-adv-x="204" 
 />
    <glyph glyph-name=".null" horiz-adv-x="0" 
 />
    <glyph glyph-name="nonmarkingreturn" horiz-adv-x="333" 
 />
    <glyph glyph-name="space" unicode=" " horiz-adv-x="183" 
 />
    <glyph glyph-name="exclam" unicode="!" horiz-adv-x="274" 
d="M56 -25l147 783q1 9 -8 16q-10 0 -12.5 -2t-5.5 -9l-144 -781q0 -4 2 -5t7 -6q14 3 14 4zM33 -115q8 4 11.5 5t5.5 8q1 6 -2 11.5t-12 6.5q-12 -1 -15.5 -6.5t-4.5 -10.5q4 -10 5.5 -9.5t11.5 -4.5z" />
    <glyph glyph-name="quotedbl" unicode="&#x22;" horiz-adv-x="283" 
d="M151 655l2 10q3 9 -6 13q-1 3 -7 3l-22 2q-3 1 -11 -1q-3 -2 -5 -11l-3 -23q2 -6 4 -11q7 -3 9 -3l8 -1q-7 -11 -18 -22q-15 -11 -32 -18q-5 -7 5 -13q23 6 38 20q17 16 28 34q7 11 10 21zM213 652l2 10q3 10 -6 13q-1 3 -7 3l-22 2q-3 1 -11 -1q-3 -3 -5 -11l-3 -23
q2 -5 4 -11q7 -3 9 -3l8 -1q-7 -12 -18 -22q-15 -11 -32 -18q-5 -7 5 -13q23 5 38 20q17 15 28 34q7 11 10 21z" />
    <glyph glyph-name="numbersign" unicode="#" horiz-adv-x="557" 
d="M510 431l-155 -26q8 49 17 94q0 10 -4.5 12t-7.5 2q-6 -1 -12 -7q-10 -52 -19 -105l-132 -22q9 59 17 116q3 3 0 9t-10 9q-5 0 -9.5 -4t-4.5 -8q-9 -63 -19 -126l-149 -25q-8 -1 -10 -17q6 -7 13 -8l143 24l-16 -126l-130 -22q-10 2 -10 -16q6 -7 13 -8l125 20
q-12 -105 -20 -211q2 -8 12 -17q11 9 13 17q9 110 21 215l130 22q-14 -128 -17 -257q1 -10 12 -12q6 0 9.5 4.5t3.5 7.5q4 130 18 261l184 31q6 6 7 12q0 3 -3.5 7.5t-9.5 4.5l-176 -29q8 66 18 126l164 27q6 6 7 13q0 3 -3.5 7.5t-9.5 4.5zM309 250l-131 -23q8 63 16 125
l132 23q-8 -63 -17 -125z" />
    <glyph glyph-name="dollar" unicode="$" horiz-adv-x="315" 
d="M253 386q11 24 13.5 52t-5.5 54q13 37 28 74q1 10 -9 15q-8 -1 -15 -7q-5 -12 -10 -25t-8 -21q-3 6 -11.5 14.5t-16.5 15.5q-34 26 -63 17q-15 -5 -26 -18.5t-13 -31.5q-3 -29 5 -57q2 -6 3 -17q5 -24 14.5 -65.5t19.5 -92.5q-51 -133 -99 -266q-11 25 -15.5 52.5
t-6.5 42.5q0 14 -17 12q-7 -7 -8 -14q3 -19 11 -53.5t21 -66.5q1 -4 4 -7q-16 -43 -31 -85q-3 -3 1 -9t7 -9q3 0 8.5 1.5t8.5 4.5q11 32 22 63q13 -27 32 -37t37 -10q28 1 47 24q44 56 18 263q-7 47 -15 91q7 21 16.5 45.5t18.5 48.5t16 43.5t11 28.5q0 -6 -4.5 -24
t-10.5 -30q-3 -3 -1.5 -9t4.5 -9t9.5 -2t9.5 4zM173 194q27 -190 -12 -243q-11 -13 -27 -13q-19 0 -33 17t-25 40q11 32 25.5 72.5t28 78.5t24.5 67.5t15 40.5q1 -4 1 -24.5t3 -35.5zM175 330q-2 6 -5.5 22.5t-7 36.5t-7 39t-5.5 29q-2 11 -3 17q-7 23 -5 46q5 22 22 30
q11 3 21.5 -3.5t15.5 -9.5q22 -17 32 -44q-9 -21 -18 -47t-17.5 -50t-14.5 -42.5t-8 -23.5z" />
    <glyph glyph-name="percent" unicode="%" horiz-adv-x="372" 
d="M375 338q28 31 14 51q-9 21 -47 17l-22 -2q-60 -2 -119 -16q-5 2 -10 -1q-64 -34 -87 -104q-3 -9 -2.5 -19.5t6.5 -17.5q2 -6 7.5 -8.5t11.5 -2.5q6 -1 12.5 3t10.5 10q22 22 38 53.5t20 64.5q28 7 56 10t58 6l22 2q22 3 27 -6q3 -10 -12 -25l-259 -292l-16 -18
q-19 -21 -38 -43.5t-31 -47.5q-12 -28 0 -40q8 -5 9 -5q12 -5 32.5 3t29.5 14l52 36q16 12 38.5 30.5t24.5 19.5q-1 -1 -19 -19.5t-28 -33.5q-8 -9 -8 -24q4 -14 12 -15q12 -4 36.5 12.5t27.5 19.5l5 2q10 10 23 22.5t22 25.5q5 8 9.5 19t1.5 23q-2 7 -8.5 13t-14.5 7
q-16 3 -24 -10q-6 -8 4 -16q7 -4 14 2q2 2 3 1q4 0 5 -3q2 -7 -2 -13t-7 -11q-9 -13 -20 -22.5t-21 -19.5l-4 -4q-11 -9 -24 -16t-12 -6q16 24 27.5 41.5t32.5 38.5q7 6 2 13q-3 9 -13 5q-29 -15 -48.5 -30t-45.5 -33q-27 -19 -53 -37q-10 -6 -25 -12t-19 -2q-3 3 -0.5 7
t5.5 7q27 48 65 86l16 18zM133 262q-3 -4 -6 -4q-1 0 -2 1q-5 7 0 18q7 23 22 45t36 34q-3 -26 -17.5 -51t-32.5 -43z" />
    <glyph glyph-name="ampersand" unicode="&#x26;" horiz-adv-x="683" 
d="M605 669q-11 31 -31 48q-18 16 -42.5 19t-45.5 -7t-33.5 -30.5t-11.5 -43.5q0 -15 8.5 -31t23.5 -22q19 -4 37 7q16 13 14 29q1 5 -4 10t-10 4q-6 1 -10 -5t-2 -11q0 -3 -4 -5q-6 -4 -13 -2q-8 2 -11 9.5t-3 16.5q-1 16 8 30t24 21q14 6 29.5 3t27.5 -12q15 -13 23 -37
q21 -56 7 -137q-20 -121 -100 -260q-25 -44 -60.5 -93t-86.5 -86q-41 -30 -92 -47q-39 -13 -69 -10q-9 3 -15 -8q-2 -5 1 -11t8 -7q3 0 5 -2q15 -1 35 -7.5t35 -22.5q11 -12 16.5 -30.5t-3.5 -39.5q0 -1 -1 -2q-1 -3 -3 -5q-16 -19 -40.5 -22.5t-49.5 7.5q-46 24 -80.5 70.5
t-49.5 110.5q-6 25 -6.5 52t11.5 51q16 31 53 37.5t69 -5.5q45 -19 83 -47q12 -6 21 3q7 11 -2 17q-9 8 -16 15q-51 52 -60 137q-9 70 12 156q1 4 2 9q9 36 21 73.5t45 58.5q30 18 62 4q13 -6 24 -19.5t17 -28.5q14 -39 1.5 -78.5t-27.5 -72.5q-4 -11 6 -16q10 -4 17 6
q16 36 30 80t-2 89q-16 42 -55 64q-44 19 -87 -7q-39 -24 -54.5 -65t-24.5 -80v-8q-22 -93 -14 -168q1 -18 7.5 -38t14.5 -37.5t14.5 -29.5t8.5 -12q-1 0 -13.5 9t-21.5 12q-21 7 -43 8.5t-42 -2.5q-49 -11 -70 -53q-15 -28 -14 -59t7 -61q16 -70 54 -122t90 -78
q40 -16 76 -8q28 10 49 35q0 2 3 4q0 3 1 5q11 24 6.5 51t-24.5 48q-6 6 -27 21q2 0 6 1t11 3q53 18 100 50q53 39 90.5 89.5t63.5 95.5q42 75 67.5 141.5t35.5 130.5q14 87 -7 150z" />
    <glyph glyph-name="quotesingle" unicode="'" horiz-adv-x="227" 
d="M90 601q-18 -15 -38 -23q-3 -3 -4.5 -5.5t-1.5 -8.5q6 -5 11 -6q53 22 79 67q6 11 11 27l1 11q0 9 -3 12q-3 7 -12 7l-27 2q-14 2 -17 -14l-3 -26q-2 -16 14 -19l10 -1q-4 -6 -10 -13t-10 -10z" />
    <glyph glyph-name="parenleft" unicode="(" horiz-adv-x="292" 
d="M43 277q29 205 102 399q14 36 38 72t63 36q5 0 9.5 4t4.5 10q-2 11 -14 12q-47 1 -82 -42q-26 -30 -44 -82q-74 -198 -104 -406q-19 -133 2 -225.5t81 -149.5q2 0 6.5 2t7.5 4q3 3 3 9t-3 9q-107 102 -70 348z" />
    <glyph glyph-name="parenright" unicode=")" horiz-adv-x="357" 
d="M243 222q52 208 59 421q2 56 -10 95q-15 54 -58 71q-8 4 -12.5 0.5t-7.5 -7.5q-3 -10 -2.5 -12.5t10.5 -5.5q37 -15 45.5 -58t7.5 -82q-7 -211 -59 -416q-61 -242 -200 -298q-6 -3 -10 -7t2 -10q1 -5 8 -9q3 0 5.5 -1t5.5 2q75 30 128.5 108.5t87.5 208.5z" />
    <glyph glyph-name="asterisk" unicode="*" horiz-adv-x="375" 
d="M192 204q50 60 94 115q15 11 4 19.5t-22 -2.5q-22 -28 -51 -64t-38 -45l22 153q0 15 -13 14t-14 -8l-19 -162q-49 56 -102 111q0 9 -15.5 4t-9.5 -18q57 -56 108 -117l-120 -1q-17 -14 -2 -26l121 2q-29 -33 -52 -57.5t-56 -57.5q-2 -15 1 -18t18 4q26 27 59.5 62.5
t42.5 45.5l-22 -159q11 -11 18.5 -8t7.5 11l19 160q49 -52 91 -105q14 3 15.5 6.5t1.5 15.5q-41 53 -85 100l115 2q9 1 7 16.5t-8 9.5z" />
    <glyph glyph-name="plus" unicode="+" horiz-adv-x="313" 
d="M231 222q-23 0 -45 1t-47 1l9 110q-5 8 -5.5 10t-9.5 5q-13 -5 -14 -12l-10 -111q-24 1 -53 0.5t-41 0.5q-9 -7 -9.5 -12t5.5 -12q6 -5 36 -3.5t60 -1.5l-10 -126q9 -11 18 -8t11 10l11 123q11 -1 18 -1q23 0 39 -0.5t37 -0.5q9 15 0 27z" />
    <glyph glyph-name="comma" unicode="," horiz-adv-x="77" 
d="M58 7q0 11 -3 15q-1 8 -9 9q-3 5 -12 5q-5 4 -18 -5q-3 -3 -6.5 -8t-3.5 -11q2 -3 1.5 -7t5.5 -8q9 -6 19 -6q4 -1 7 -1q-2 9 -3 6q-3 -4 -7 -8l-12 -9q-1 -5 5 -13l6 3l2 1l11 6q9 8 13 16q0 4 1.5 6t2.5 9z" />
    <glyph glyph-name="hyphen" unicode="-" horiz-adv-x="211" 
d="M169 232l-139 -2q-8 -2 -9 -11q1 -9 3 -11t6 -5l139 3q8 1 10 14q-1 11 -10 12z" />
    <glyph glyph-name="period" unicode="." horiz-adv-x="106" 
d="M43 -19q9 1 17 3q9 10 9 21q-1 18 -10 20q-7 6 -15 4q-6 0 -9.5 -0.5t-9.5 -6.5q-3 -4 -7 -17q0 -6 0.5 -8t6.5 -8q5 -8 18 -8z" />
    <glyph glyph-name="slash" unicode="/" horiz-adv-x="371" 
d="M7 -76l418 836q3 9 2 12.5t-6 7.5q-6 1 -7 2t-10 -8q-73 -145 -131.5 -262.5t-133 -268t-152.5 -306.5v-5.5t4 -6.5q6 -4 8.5 -3t7.5 2z" />
    <glyph glyph-name="zero" unicode="0" horiz-adv-x="354" 
d="M387 594q-4 12 -13 22q-8 11 -21 18q-20 8 -46 -5q-23 -9 -43 -35q-20 -23 -32 -37q-2 -3 -4 -7q-21 -28 -39 -57q-15 -29 -31 -59q-90 -185 -141 -390q-7 -29 -9 -60q-4 -31 6 -62q4 -14 14.5 -26t22.5 -21q27 -17 55 -14q15 2 24 7.5t20 15.5q40 40 69 93q29 51 53 103
q12 22 22 44q25 52 49 108q27 58 42 118q19 71 19 130q2 63 -17 114zM268 135q-8 -21 -20 -43q-24 -50 -51 -101q-27 -49 -65 -87q-12 -12 -29 -16q-19 -2 -38 10q-17 12 -25 33q-10 24 -6 51q4 28 11 55q48 201 138 386q13 28 29 56q18 27 37 54q1 3 3 6q12 15 31 36t37 29
q6 4 13 5q6 1 10 -2q7 -2 10 -7q5 -8 8 -17q19 -48 17 -104q0 -55 -16 -112q-12 -56 -38 -115q-26 -58 -56 -117z" />
    <glyph glyph-name="one" unicode="1" horiz-adv-x="276" 
d="M169 250q37 99 70 200.5t60 200.5q5 12 -9 16q-6 5 -16 -2l-146 -145q-4 -2 -1 -16q13 -6 18 -1q24 23 44 42t45 43.5t49 49.5v20l-9 1q-2 -9 -6 -28.5t-15 -54.5q-15 -42 -32 -97t-38 -113q-20 -56 -38 -106q-73 -188 -170 -373q3 -3 2.5 -9.5t1.5 -9.5q5 0 7 1
q6 -1 11 5q48 94 91 186.5t81 189.5z" />
    <glyph glyph-name="two" unicode="2" horiz-adv-x="521" 
d="M431 481q12 16 24 36q15 23 19 44q4 27 -7 47q-9 27 -35 37q-21 9 -61 -6q-29 -11 -56 -32q-23 -21 -42 -48q-5 -7 2 -17q13 -2 19 3q18 22 39 40q23 21 47 31q28 12 43 5q15 -5 21 -23q8 -14 3 -34q-2 -15 -15 -34q-10 -18 -21 -31l-387 -491q-18 8 -36 8q-22 3 -43 -6
q-19 -8 -31 -26q-14 -22 -4 -49q9 -21 30 -29q22 -4 43 10q21 18 30 31l22 28q5 0 15 -7q34 -15 65 -29t65 -29q17 -8 39.5 -14.5t45 -11t41.5 -7.5t28 -3q38 0 68 12q18 6 33 17.5t27 21.5q20 16 45.5 58.5t35.5 70.5q15 36 26 70q1 6 0 10t-10 7q-8 0 -9 -3.5t-3 -7.5
q-6 -17 -12.5 -32.5t-13.5 -34.5q-4 -9 -12.5 -26t-19 -34.5t-21.5 -34t-20 -25.5q-23 -21 -54 -32q-47 -19 -99 -8t-98 29q-69 29 -138 60q-4 6 -5 6zM-8 -39q-26 -33 -44 -29q-10 4 -14 14q-4 15 2 26q8 9 17 12q15 6 26 6h7q14 -2 24 -5z" />
    <glyph glyph-name="three" unicode="3" horiz-adv-x="453" 
d="M398 301q-7 20 -28 28q-10 5 -24 2q-16 -2 -39.5 -6.5t-24.5 -4.5q1 0 13 8.5t28.5 20.5t33.5 26.5t29 27.5q54 59 91 128q4 7 6.5 13.5l7.5 19.5q0 11 -0.5 23.5t-6.5 21.5q-10 21 -33 24q-21 6 -44 -3q-21 -8 -35 -17q-46 -33 -80 -79q-4 -7 4 -14q6 -5 8.5 -5t7.5 5
q33 42 74 72q12 10 29 13q15 7 30 4q14 -3 18 -12q13 -19 -8 -54q-35 -69 -89 -127q-56 -56 -125 -95q-9 -9 -6 -18q11 -12 16 -10q49 11 97 14q8 1 12 -1q10 -2 13 -10q2 -5 3.5 -12t-2.5 -17q-4 -16 -13 -32q-63 -111 -160 -204q-93 -87 -211 -150q-10 -7 -25 -8
q-13 -1 -22 3q-5 3 -7 8q-9 44 48 71q14 9 5 17q-7 15 -17 6q-72 -40 -60 -101q6 -15 19 -26q11 -3 24 -4q27 3 48 13q119 61 215 155q98 93 165 207q11 18 15 38q5 22 0 41z" />
    <glyph glyph-name="four" unicode="4" horiz-adv-x="339" 
d="M275 362q69 152 147 298q4 10 -5 18q-3 2 -3 6t-2 2q0 3 -9.5 -4.5t-14.5 -12.5q-13 -15 -54.5 -55t-96 -89t-115.5 -101t-112 -91q-3 -3 -6 -12t0 -12q0 -3 4 -6.5t7 -3.5q57 0 110 7t106 25q-50 -113 -92.5 -225.5t-81.5 -231.5q0 -4 1.5 -7t6.5 -12q18 5 18 13
q81 246 187 482q1 4 2 5.5t3 6.5zM249 368q-24 -9 -54 -16t-57.5 -13t-50.5 -8.5t-33 -2.5q18 13 69 59.5t106 97.5t99.5 92t47.5 44q-2 -3 -17 -30.5t-35 -66.5t-41 -82t-34 -74z" />
    <glyph glyph-name="five" unicode="5" horiz-adv-x="405" 
d="M335 389q-1 11 -3 16.5t-8 10.5q-12 18 -53 14q-7 0 -15 -1q-21 -1 -35 16q-12 19 -4 38l31 70q6 9 9 17q7 10 12 14q14 8 27 7l154 22q20 5 13 17q-2 12 -16 11l-151 -22q-22 1 -43 -14q-11 -6 -20 -21q-5 -10 -9 -20l-33 -71q-11 -33 7 -66q27 -29 64 -26q20 4 28 0
q8 1 11 -6q5 -3 4 -12q0 -9 -4 -18q-27 -113 -114 -239l-4 -4q-33 -50 -73 -104q-40 -52 -87 -87q-33 -25 -69 -34q-16 -3 -31 6q-13 13 -16 30v3q1 15 -14 14q-3 0 -8 -3t-5 -12v-3q0 -32 25 -51q20 -13 39 -13q9 0 16 2q44 14 80 39q52 37 91 90q41 55 75 107l4 4
q90 129 119 248q3 12 6 31z" />
    <glyph glyph-name="six" unicode="6" horiz-adv-x="416" 
d="M172 344q31 56 64 111q34 57 78 102q63 61 122 58q16 1 31 -11q19 -8 30 -23q18 -21 9 -47q0 -4 1.5 -7t8.5 -9q8 0 11 0.5t6 9.5q11 36 -14 70q-13 23 -38 32q-23 15 -45 14q-35 1 -67.5 -12.5t-69.5 -50.5q-24 -23 -46.5 -52t-39.5 -58q-35 -55 -66 -111
q-57 -99 -111 -207q-53 -106 -86 -221q-2 -14 -6 -32q-2 -21 11 -40q21 -17 40 -16q15 2 27 6t24 10q40 22 71 57q34 35 61 77q28 44 49 89q21 51 29 97q4 11 2 20q2 16 -5 26q-9 20 -29 25q-19 7 -38 3q-28 -2 -60 -22q-10 -7 -15.5 -13t-10.5 -5q17 34 35.5 65.5
t36.5 64.5zM191 227q11 4 23 -1q12 -2 14 -12q6 -13 0 -28q-7 -44 -27 -90q-19 -45 -46 -86q-26 -40 -59 -74q-31 -31 -65 -52q-13 -7 -31 -10q-14 -3 -23 6q-7 9 -5 18q3 16 6 27q32 101 75 195q10 12 16 21q67 77 122 86z" />
    <glyph glyph-name="seven" unicode="7" horiz-adv-x="501" 
d="M271 283q136 159 278 312q14 15 8 31q-11 20 -32 17l-213 -7q-18 0 -34 -17q-14 -15 -13 -36q3 -33 17 -64q10 -8 20 -4q9 3 8.5 9.5t-3.5 10.5q-11 25 -14 49q-3 10 3 16q8 8 17 7l214 10q3 0 1 1.5t-1 -1.5q0 -2 3 -3q-143 -152 -282 -312q-90 -105 -182 -217
q-89 -109 -177 -218q-4 -4 -4 -11t9 -10q10 -3 13.5 -1.5t5.5 5.5q44 54 84 105t85 104q45 54 94.5 112t94.5 112z" />
    <glyph glyph-name="eight" unicode="8" horiz-adv-x="377" 
d="M254 360q42 46 80 95q40 49 66 111q12 23 13 45q-2 65 -63 64q-34 1 -75 -17q-39 -18 -62 -31q-58 -37 -78 -107q-17 -68 13 -132q12 -23 26 -47q6 -6 11 -15q-51 -58 -108 -130q-56 -72 -101 -156q-28 -52 -25 -99q3 -35 23 -62q27 -29 63 -29h7q41 3 70 35q26 33 45 61
q39 74 62 147q21 68 23 118q3 53 -17 95q-1 10 -6 17q19 20 33 37zM201 296q19 -34 16 -85q-1 -45 -22 -110q-23 -73 -61 -139q-14 -28 -40 -57q-20 -23 -51 -28q-3 1 -6 1q-27 3 -41 19q-14 23 -17 46q-3 37 22 82q43 83 98 152q54 69 104 126q1 -2 -0.5 -4t-1.5 -3z
M375 577q-27 -55 -66 -105q-37 -48 -77 -93q-13 -16 -27 -33q-3 6 -6 11q-13 22 -26 42q-27 56 -11 112q18 60 67 92q19 13 55 28q35 18 66 16q34 3 35 -36q-1 -17 -10 -34z" />
    <glyph glyph-name="nine" unicode="9" horiz-adv-x="389" 
d="M330 318q24 51 53 97q21 27 39 56q2 7 2 9.5t-7 8.5q-9 11 -18 -4q-19 -24 -39 -56q-44 -60 -100 -111q-9 -7 -25 -18q-13 -10 -28 -16q-10 -4 -26 -2q-12 4 -22 15q-17 25 7 75q55 110 134 200q6 8 15 19q13 11 25 17q16 10 27 11q14 5 28 -2q25 -11 26 -40
q5 -35 -10 -70q-1 -4 5 -12q6 -3 9 -2.5t9 6.5q18 44 13 80q-4 48 -42 63q-20 8 -40 4q-19 0 -38 -14q-14 -8 -29 -22q-12 -11 -19 -20q-79 -94 -136 -203q-33 -70 -6 -108q15 -17 37 -21q22 -2 40 2q21 4 36 15q16 13 28 22q15 13 32 35t18 23q-1 -1 -9 -15t-19 -33
t-22 -40.5t-18 -36.5q-33 -74 -72 -148q-38 -73 -93 -135q-14 -15 -34 -34q-17 -14 -41 -19q-11 -3 -24 0q-10 3 -22 10l-12 10q-3 7 -5 17q-3 20 5 47q10 28 43 50q8 6 8 9.5t-6 9.5t-8.5 6.5t-8.5 -5.5q-30 -20 -47 -51q-14 -32 -11 -69q2 -26 26 -46q24 -16 52 -16h15
q31 6 53 25q22 20 38 38q55 63 94 138q40 77 73 153q22 49 47 98z" />
    <glyph glyph-name="colon" unicode=":" horiz-adv-x="209" 
d="M76 233l-20 4q-4 1 -10 -4q-4 -3 -6 -8l-3 -17q1 -4 4 -12q5 -4 8 -4l19 -3q6 0 10 3q5 4 6 7l4 19q2 6 -3 9q-3 6 -9 6zM57 142l-16 4q-3 4 -12 -3q-5 -4 -6 -9l-3 -17q0 -5 1 -12q7 -4 10 -5l20 -4q5 0 10 3q6 7 6 10l3 17q0 6 -3 11q-3 7 -10 5z" />
    <glyph glyph-name="semicolon" unicode=";" horiz-adv-x="141" 
d="M83 247l-19 3q-2 1 -10 -2q-4 -2 -6 -11l-2 -18q0 -5 3 -12q7 -3 9 -4l19 -2q9 0 12 3q5 5 5 9l3 18q1 9 -3 11q-3 4 -11 5zM76 150q-4 4 -9 5l-19 3q-4 0 -11 -3q-1 -1 -3 -6l-4 -24q2 -3 3 -8q5 -3 10 -4l6 -1q-7 -14 -22 -24v-5q3 -3 7 -3l2 1q9 6 18 14.5t15 17.5
q6 11 9 19l1 9q0 6 -3 9z" />
    <glyph glyph-name="less" unicode="&#x3c;" horiz-adv-x="322" 
d="M60 324q2 16 12 31l211 396q5 9 -5 18q-14 4 -18 -6l-212 -396q-12 -19 -15 -42q-1 -15 4.5 -29t11.5 -25l172 -374q5 -9 16 -7q4 3 7.5 9t0.5 10l-173 374q-5 9 -9 19t-3 22z" />
    <glyph glyph-name="equal" unicode="=" horiz-adv-x="251" 
d="M176 211l-139 -2q-7 -3 -9 -11q1 -9 3 -11t6 -5l139 3q8 1 10 14q-1 11 -10 12zM177 264l-139 -2q-8 -2 -9 -11q1 -9 3 -11t6 -5l139 3q8 1 10 14q-1 11 -10 12z" />
    <glyph glyph-name="greater" unicode="&#x3e;" horiz-adv-x="340" 
d="M277 347q0 15 -5.5 28.5t-10.5 25.5l-172 374q-5 9 -16 7q-5 -3 -8 -9t0 -10l173 -374q4 -9 8 -19.5t4 -21.5q-2 -16 -12 -31l-211 -396q-5 -9 5 -18q14 -4 18 6l212 396q12 19 15 42z" />
    <glyph glyph-name="question" unicode="?" horiz-adv-x="389" 
d="M66 6q22 87 58 170.5t76 161.5q23 48 47.5 96.5t45.5 99.5q20 44 24 97q0 30 -10 55t-29 39q-33 23 -71 12t-61 -25q-30 -19 -53 -50.5t-12 -68.5q1 -14 14 -10q4 0 7 5.5t2 10.5q-6 27 13 52t42 40q17 11 47 21t57 -8q12 -10 20.5 -30.5t8.5 -42.5q0 -23 -8 -46.5
t-15 -41.5q-43 -98 -90 -193q-40 -81 -78.5 -165t-60.5 -173q0 -7 4.5 -11t7.5 -4t8.5 3t5.5 6zM32 -131q8 2 13 4q6 7 6 13q-1 9 -5 11q-4 6 -12 6q-6 1 -8 0.5t-8 -6.5q-2 -3 -5 -11q1 -4 1 -6t5 -5q3 -5 13 -6z" />
    <glyph glyph-name="at" unicode="@" horiz-adv-x="313" 
d="M196 134q8 8 -1 16t-17 -1q-26 -34 -55.5 -62t-65.5 -37q-9 -4 -17 -1q-9 3 -12 10.5t-1 16.5q5 22 17 40l61 96q20 32 43 64t52 57q6 5 23 15.5t34 0.5q14 -9 14 -25.5t-1 -22.5q-8 -51 -45 -87q-3 -4 -6 -3q-1 0 0 -1.5t1 -0.5q-2 5 1 10q1 3 3 6q3 6 3.5 16t-2.5 17
q-5 11 -16.5 16t-22.5 4q-18 -4 -32 -19q-38 -35 -59 -83q-3 -6 -5 -13t2 -13q6 -10 15 -12t19 2.5t17 10.5l45 39q10 8 1 17t-17 0l-44 -38q-3 -3 -7 -5.5t-7 -1.5q-1 2 2 4q20 42 54 76q8 7 21 11q7 1 11 -5q2 -6 -2 -14q-2 -4 -3 -7q-3 -8 -2.5 -17t5.5 -14q6 -9 16 -11
q7 -3 14 1.5t13 10.5q43 41 51 100q3 25 -3.5 44.5t-20.5 29.5q-25 15 -51.5 1.5t-35.5 -21.5q-32 -27 -54.5 -59t-43.5 -66l-62 -97q-16 -21 -22 -48q-2 -16 5.5 -32t23.5 -22q8 -3 16 -3q10 0 18 3q41 9 71.5 39t60.5 68z" />
    <glyph glyph-name="A" unicode="A" horiz-adv-x="914" 
d="M970 460q0 12 -9 22.5t-19 18.5q-21 11 -39 12q-17 2 -39 -2l-16 -4q41 67 88 130q13 15 1 24q-9 15 -24 10q-91 -20 -167 -76q-74 -51 -134 -123q-24 -1 -51 -8q-21 -4 -48 -5q-19 3 -32 16q-5 14 -3 28q2 7 7 12t8 7q5 3 6 4.5t4 8.5q-5 19 -18 11q-22 -10 -32 -37
q-9 -25 6 -50q21 -22 51 -26q30 3 52 4q6 0 13.5 2t9.5 3q-9 -11 -31.5 -39.5t-37.5 -50.5q-16 -24 -34 -47q-67 -97 -146 -189q-72 -89 -176 -144q-5 -3 -36 -17t-47 -21q-29 -9 -46 9q-14 20 -4 40q16 29 56 55q43 30 79 29q5 1 8 2.5t5 10.5q0 14 -15 12q-46 -1 -91 -32
q-47 -30 -66 -68q-16 -38 10 -67q27 -29 67 -17q20 6 52.5 22t37.5 17q110 57 187 151t146 189q20 27 36 51q40 60 86 111q87 17 174 27q-151 -254 -239 -542q-8 -25 -5 -52q3 -30 29 -43q10 -1 15 -1q27 0 54 24q71 61 108 140q3 8 2 11.5t-8 8.5h-8.5t-7.5 -6
q-37 -72 -105 -133q-23 -21 -40 -16q-16 7 -15 26q6 29 6 35q89 291 247 550q22 3 36 5q20 3 35 4q14 0 25 -9q16 -8 16 -21q2 -9 -12 -20q-1 -1 -10 -8.5t-11 -8.5q-2 0 -4.5 -3.5t-2.5 -13.5q6 -7 6 -8q9 -1 13 2q1 0 12.5 9.5t13.5 10.5q25 22 21 43zM816 502
q-21 -3 -46.5 -6.5t-49.5 -7t-43.5 -6.5t-25.5 -4l16.5 16.5t29.5 27.5t35.5 30.5t34.5 26.5q17 12 42 25t48.5 23.5t56.5 23.5q-49 -75 -98 -149z" />
    <glyph glyph-name="B" unicode="B" horiz-adv-x="466" 
d="M276 -10q36 62 70 135q40 75 36 157q0 14 -3 26q-1 22 -15 34q-4 3 -17 12q1 0 15.5 7t23.5 15q30 31 43 72q14 46 2 85q-3 17 -17 27q-22 17 -57 -12q-33 -26 -61 -66q-11 -13 -23.5 -34.5t-12.5 -22.5q0 1 6.5 17.5t15.5 40.5t19.5 49.5t18.5 44.5q28 13 51 28
q27 22 42 50q7 13 7 26q6 19 -5 28q-7 13 -23 15q-24 4 -46 -33q-22 -45 -46 -98q-30 -11 -65 -19l-4 -3q-138 -43 -156 -129q-1 -6 9 -14q20 0 18 11q16 70 138 108l4 1q11 4 23.5 8t20.5 7q-12 -33 -32 -89t-36 -104q-3 -4 -7 -13q-56 -93 -113 -196q-58 -99 -97 -211
q-1 -8 -4 -24q0 -15 6 -27q11 -9 25 -12q16 1 25 10q9 10 11 15q60 98 98 202q39 108 69 210q3 8 5 13q9 -3 22 -5h31q17 4 32 0q13 0 21 -10q9 -8 11 -19q3 -12 2 -21q3 -77 -32 -148q-33 -72 -71 -131q-6 -15 -21 -32q-9 -13 -24 -27q-9 -7 -28 -15q-14 -3 -32 2
q-14 7 -22 23q-3 12 7 21q8 15 -6 19q-10 6 -17 -6q-6 -8 -9.5 -19t0.5 -25q6 -10 16 -23q12 -9 21 -15q24 -8 48 -3q24 9 39 22q18 15 28 30q14 19 22 35zM368 680q6 9 9.5 13.5t9.5 4.5q3 0 4 -1q5 -6 3 -14q0 -9 -4 -16q-12 -19 -30 -37q-6 -5 -15.5 -11t-11.5 -7
q2 5 14 28t21 40zM44 -73q-8 -15 -15 -15q-2 0 -3 2q-2 4 -2 11q2 11 4 18q38 99 86 191q12 21 27 49t28.5 54t23.5 44.5t11 20.5q-1 -2 -8.5 -22.5t-18 -48.5t-21.5 -59t-19 -54q-35 -99 -93 -191zM367 394q-24 -20 -60 -30q-32 -8 -60 2q27 44 55 82q32 44 71 80l15 10
q8 4 11 1q7 -3 8 -12q12 -34 -3 -72q-12 -35 -37 -61z" />
    <glyph glyph-name="C" unicode="C" horiz-adv-x="447" 
d="M190 -69q80 73 144 155q12 17 -4 21q-4 7 -18 -4q-63 -81 -141 -152q-63 -53 -105 -39q-16 10 -29 28q-7 20 -9 40q0 22 7 42q9 24 15 45l88 229q32 76 60 153q33 79 75 148q9 15 20 27q14 16 27 25t28 6q18 -1 25 -15q12 -12 4 -29q-6 -18 -15 -42q-4 -11 -11 -26
q1 -10 8 -16q16 2 19 8q5 15 10 25q12 24 17 46q9 28 -9 52q-16 20 -43 23q-23 5 -46 -9q-20 -10 -35 -26q-13 -17 -23 -36q-45 -71 -78 -150q-29 -76 -61 -154l-87 -231q-6 -21 -15 -45q-6 -24 -7 -52q3 -30 15 -55q15 -25 38 -35q16 -6 32 -8q50 1 104 51z" />
    <glyph glyph-name="D" unicode="D" horiz-adv-x="476" 
d="M336 75q30 76 54 145l74 216l7 21q5 16 2 30q0 6 -7.5 20t-19.5 20q-22 16 -44 16q-38 3 -82 -29q-11 -8 -24 -20t-25 -24t-29 -30q14 29 23.5 49t20.5 42t20 39q3 -1 12 2q15 0 29 1q17 3 31 12q18 15 22 38t-11 32q-13 12 -30 9q-15 -2 -31 -15q-12 -13 -21 -28
q-7 -13 -15 -26q-88 -7 -152 -46q-40 -27 -68 -66t-32 -85q0 -4 9 -14q17 8 16 12q5 38 28 72q27 34 61 60q52 33 123 41q-19 -39 -37 -81q-18 -44 -36 -94q-42 -68 -74 -138q-46 -100 -80 -186q-31 -85 -54 -166q2 -2 3 -8.5t13 -10.5q9 2 15 3.5t13 7.5q15 14 21 29
q43 78 70 159q29 84 53 165q22 67 43 133q23 32 47 59q28 33 61 53q38 26 66 24q15 2 29 -10q14 -8 17 -26q3 -8 -1 -18l-6 -20l-75 -217q-23 -68 -53 -143q-26 -71 -67 -136q-7 -8 -16 -20q-9 -8 -18 -14q-10 -4 -22 -1q-12 5 -22 13q-9 10 -23 21q-8 12 -17 24
q-7 11 -19 3q-6 -6 -4 -17q50 -69 95 -70q13 1 21 3q17 8 28 19q12 15 18 27q42 68 70 139zM329 609q7 10 15 19q8 10 17 11h4q3 0 5 -2q8 -5 6 -11q-3 -12 -12 -20q-10 -4 -22 -7q-10 -2 -25 -2q7 -1 6 -1q3 6 6 13zM160 255q-24 -81 -53 -162q-25 -81 -67 -157
q-2 -3 -7.5 -11.5t-6.5 -8.5q20 75 49 149q33 84 77 183q9 19 22 48.5t14 31.5q0 -2 -11 -28.5t-17 -44.5z" />
    <glyph glyph-name="E" unicode="E" horiz-adv-x="476" 
d="M206 -104q42 27 71 60q17 14 -2 20q-7 12 -19 -1q-27 -31 -65 -55q-36 -22 -78 -30q-22 -4 -48 -1q-22 5 -32 22q-3 9 -6 22v24q10 102 58 190q21 35 50 68t58 35q21 3 39 -6q24 -8 38 -18q19 -8 30 -20q12 -8 12 -9q16 -7 19 -2q10 13 4 18q-10 44 -19 70q-6 29 -14 61
q-6 30 -8 51q12 9 24 15q54 34 94 80q42 48 68 102q9 14 12 29q6 18 -4 36q-8 26 -35 28q-16 4 -42 -5q-25 -8 -41 -24q-44 -44 -73 -111q-27 -63 -32 -128v-5q-50 -25 -95 -15q-44 10 -71 52q-27 43 -22 94q7 45 31 86q28 45 72 77q8 9 3 18q1 12 -19 6q-48 -36 -79 -85
q-29 -48 -36 -99q-5 -60 27 -111q36 -51 88 -65q24 -6 50.5 -4t54.5 16q5 -32 15 -79q4 -21 9 -40.5t7 -22.5q-2 1 -15 8t-25 13q-35 19 -70 16q-24 -3 -46 -18q-18 -15 -37 -34q-15 -18 -29 -36q-9 -19 -17 -28q-23 -46 -40 -98q-15 -49 -21 -103q0 -15 -1 -31q3 -13 9 -29
q10 -20 33 -30q23 -8 45 -9q20 0 31 2q49 9 89 33zM455 606q-25 -52 -64 -97q-38 -43 -87 -75q-5 -3 -12 -6q4 56 28 107q28 61 69 100q15 9 26 17q17 8 26 7q3 1 6 0q13 -2 17 -13q7 -8 2 -20q-2 -11 -11 -20z" />
    <glyph glyph-name="F" unicode="F" horiz-adv-x="480" 
d="M236 64q24 67 43 130l118 22q7 3 12 -1v0q3 -4 1 -8q-2 -10 -15 -18q-7 -3 -2 -20q3 -2 5 -3t6 -1q6 1 10 4q16 12 22 30q6 15 0 24q-5 19 -20 19q-14 4 -25 1l-101 -20q6 18 8 34q22 68 40 129q22 64 44 122q28 -6 49 3q25 9 41 25q20 18 33 32q12 14 20 26q11 16 17 31
q8 20 -3 40q-6 23 -26 30q-27 16 -55 -6q-22 -17 -39 -44q-26 -49 -49 -102q-6 6 -11 9q-7 18 -10 33q2 27 -14 48q-21 30 -64 27q-38 0 -76 -21q-51 -27 -97 -69q-46 -38 -81 -86q-5 -11 -13 -27q-9 -13 -6 -31q6 -24 29 -34q21 -8 40 -5q21 4 36 14q17 15 28 22q8 15 2 19
q-6 15 -20 2q-10 -8 -25 -19q-10 -7 -25 -13q-10 -1 -24 4q-10 7 -15 15q-2 7 4 15l12 21q38 47 76 83q44 38 92 65q29 17 62 19q28 6 42 -17q8 -14 10 -34q4 -23 13 -45q10 -12 22 -21q-25 -59 -46 -123q-18 -62 -39 -130q-7 -21 -15 -46l-42 -9q-9 0 -20 -2q-6 0 -12 2
q-7 5 -12 13q-5 10 -2 17q3 13 10 19q9 9 16 15q10 9 4 18q-7 10 -18 4q-30 -19 -38 -49q-3 -18 4 -37q10 -15 24 -24q13 -5 26 -5q13 2 20 3l31 6q-18 -57 -39 -119t-53 -125q-6 -19 -26 -41q-16 -20 -37 -24q-13 0 -32 9q-13 12 -18 24q-2 16 5 30q8 17 21 22q19 11 9 19
q-4 18 -18 7q-20 -9 -35 -33q-11 -23 -9 -50q9 -20 27 -39q22 -15 44 -17q9 0 10 2q35 4 53 29q21 29 30 51q34 64 56 130zM515 633q-3 -11 -12 -25q-8 -11 -18 -22q-8 -14 -28 -28q-15 -13 -35 -21q-14 -7 -29 -4q22 51 50 97q14 20 28 35q15 14 31 6q12 -3 11 -15
q6 -10 2 -23z" />
    <glyph glyph-name="G" unicode="G" horiz-adv-x="425" 
d="M289 45q40 31 61 77q7 16 -6 19q-7 7 -17 -5q-19 -34 -51 -62q-12 -10 -30 -24.5t-22 -17.5q2 6 13 32t17 45q24 69 50 135q48 112 119 210q21 24 35 46q10 14 -3 19q-1 7 -20 -3q-17 -22 -35 -44q-86 -106 -197 -181q-8 -3 -18 -10q-8 -5 -17 -3q-8 2 -15 10
q-6 14 -8 22q1 14 5 26q5 14 10 26q33 62 77 117q15 4 25 7q58 16 122 34q64 22 116 66q10 10 14 16q10 12 11 25q3 20 -11 36q-14 22 -44 22q-19 3 -38 -7l-32 -16q-102 -63 -180 -157q-18 -3 -41 -1q-20 4 -36 18q-17 18 -17 43q4 29 13 49q15 25 35 38q26 20 48 32
q9 10 4 19q-6 14 -20 4q-22 -13 -49 -34q-25 -17 -42 -46q-13 -25 -16 -63q1 -36 25 -62q19 -16 42 -24q17 -3 32 -2q-34 -46 -61 -102q-5 -12 -13 -31q-6 -13 -6 -35q3 -15 11 -34q15 -19 36 -23q17 -3 29 4q16 6 24 14q18 11 39.5 28.5t40.5 35t32.5 30t14.5 13.5
q-1 -1 -9 -14.5t-19 -32.5t-22 -40t-17 -37q-26 -66 -51 -135q-19 -49 -40 -106q-5 -1 -14 -9q-45 -27 -95 -65q-46 -36 -69 -92q-15 -31 -1 -55q12 -14 34 -18q18 2 36 11q22 13 30 26q33 44 57 89q26 44 44 94q43 26 80 53zM86 -174q-7 -10 -20 -19q-12 -7 -25 -7
q-4 0 -10 5q-5 11 3 31q22 49 63 78q18 15 44 34t32 22q-3 -6 -12.5 -23t-21.5 -38t-26.5 -43.5t-26.5 -39.5zM497 631q-3 -12 -16 -22q-44 -40 -105 -62q-62 -19 -118 -34q-1 0 4 0q4 5 20.5 20t38.5 33.5t47.5 38t46.5 33.5q11 8 23 14q16 8 30 5q2 2 -2 3t-4 -3
q22 2 31 -11q7 -4 4 -15z" />
    <glyph glyph-name="H" unicode="H" horiz-adv-x="795" 
d="M602 32q29 116 70 226q50 20 91 50q53 41 74 94q27 54 19 106q2 10 -4 17q-2 10 -9 17q-11 16 -31 12q-17 2 -32 -9q-9 -5 -18 -20q-6 -13 -11 -23q-57 -110 -102 -225q-49 -17 -97 -29q-64 -16 -131 -25q33 79 56 158q4 11 7 22q57 32 102 82q50 53 76 115q8 19 10 36
q6 22 -4 40q-8 19 -25 26q-23 12 -50 -7q-20 -15 -36 -39q-31 -52 -54 -111q-20 -57 -38 -115q-1 -6 -2 -10q-69 -40 -154 -50q-39 -4 -54 13q-3 10 -5 18q0 11 1 23q11 62 38 117q27 57 71 101q2 6 2.5 11t-3.5 8q-5 13 -19 1q-44 -48 -75 -111q-27 -59 -41 -123
q-2 -14 -2 -31q4 -15 10 -29q22 -30 81 -25q36 3 79 18t56 22q-1 -1 2 3t2 3q-27 -85 -63 -170q-41 -4 -83 -7q-14 4 -15 -15q4 -12 14 -12q38 3 74 6q-59 -145 -135 -281q-2 -5 -7 -10q-1 -2 -5 -2q-6 2 -12 15q-10 27 -17 53q19 16 39 39q24 31 21 53q0 6 -4 13
q-3 11 -16 15q-15 8 -32 -3q-15 -9 -27 -39q-8 -26 -11 -44v-20q-65 -44 -134 -89q-5 -5 -12 -5q-2 0 -2 1q-2 4 -2 10q3 10 5 16q6 7 8 10q9 9 13 17q10 13 7 26q0 18 -14 13q-10 1 -12 -13q0 -13 -15 -26q-4 -7 -10 -14q-5 -8 -8 -26q1 -10 4 -23q7 -15 27 -17q16 2 26 8
q66 41 125 82q7 -25 17 -52q4 0 10 -12q10 -11 27 -15q19 1 24 12q9 9 12 17q80 144 142 295q77 9 147 27q19 5 42 11t38 11q-12 -34 -30.5 -93.5t-32.5 -110.5l-6 -30q-3 -16 -2 -38q3 -19 11 -38q11 -18 32 -29q10 -5 24 -5q16 2 33 10q29 21 31 49q1 20 -13 13
q-9 1 -13 -10q0 -17 -19 -30q-15 -10 -32 -3q-14 8 -20 18q-5 13 -7 27q0 18 2 33q3 17 6 25zM580 642q9 14 21 26q11 12 23 10q4 2 8 0q8 -2 11 -13q6 -11 2 -27q-1 -16 -7 -29q-26 -53 -67 -100q-18 -20 -39.5 -40t-36.5 -29q6 16 15.5 44t18.5 52q23 56 51 106zM200 -2
q2 18 8 37q10 20 18 25q2 2 5 1q1 1 -0.5 1t0.5 -1q5 -1 5 -2l1 -1q3 -12 -14 -32q-11 -14 -26 -28q0 1 3 0zM745 330q-15 -11 -32 -22.5t-28 -15.5q14 34 39 92.5t49 106.5q11 19 25 31q8 4 15 5q7 3 10 -3q6 -6 6 -17q7 -45 -16 -95q-23 -44 -68 -82z" />
    <glyph glyph-name="I" unicode="I" horiz-adv-x="395" 
d="M220 93q50 140 108 279q30 71 57.5 139.5t59.5 136.5q3 8 7 13q6 19 -7 20q-9 3 -18 -7q-1 -6 -6 -14q-24 -49 -63 -92q-36 -40 -77 -81q-43 -41 -87 -89q-16 -17 -32 -46q-16 -22 -26 -55q-6 -32 -1 -64q11 -33 29 -52q10 -3 19 1q3 14 -1 19q-13 15 -20 37q-2 26 1 52
q8 28 22 48q17 24 29 40q44 48 85 90q11 11 25 26t26 29t20.5 24t10.5 12q-3 -6 -24.5 -56.5t-51.5 -120.5t-61 -147t-52 -136q-14 -47 -42 -101q-26 -50 -72 -80q-12 -5 -29 -7q-11 -2 -20 7q-8 13 0 27q10 21 18 30q9 15 -3 19q-6 8 -16 -2q-46 -52 -23 -90q18 -18 42 -18
q25 4 42 12q56 32 82 83q14 28 25.5 55.5t23.5 58.5z" />
    <glyph glyph-name="J" unicode="J" horiz-adv-x="535" 
d="M99 -234q19 8 29 14q102 55 155 158q57 104 96 221l169 485q44 22 65 61q11 19 4 33q-6 12 -21 16q-16 5 -31 -6q-9 -8 -14 -21q-3 -8 -7 -15l-18 -49q-20 -8 -46 -15q-25 -6 -50 -13l-14 -3q-9 -3 -18 -4.5t-22 -6.5q-28 -9 -53 -24q-23 -11 -40 -35q-17 -25 -23 -58
q6 -6 9 -11q11 1 16 7t2 9q4 22 19 37q9 12 17.5 18t19.5 14q10 7 22.5 11.5t22.5 8.5q12 4 20 6t15 3l13 4q20 3 42.5 8.5t35.5 10.5l-161 -461q-39 -113 -92 -215q-49 -100 -146 -152q-31 -18 -58 -15q-10 2 -26 9q-8 12 -11 21q1 15 12 21q2 2 6 0q8 2 9 1q13 -3 18 2
q11 15 -5 21q-16 10 -41 -3q-21 -13 -25 -43q4 -21 21 -38q21 -14 38 -18h10q21 0 36 6zM588 715q-6 -11 -13.5 -22t-14.5 -14l8 24q6 16 13 24q7 5 11 -1q1 -2 -4 -11z" />
    <glyph glyph-name="K" unicode="K" horiz-adv-x="523" 
d="M314 -47q10 93 34 178l4 14q17 45 18 90q0 23 -10 44q-6 21 -20 35q16 14 29 27q36 39 63 80q28 39 55 71q30 34 70 53q11 13 4 17q-5 11 -17 4q-41 -16 -75 -57q-30 -34 -58 -73q-27 -42 -60 -77q-14 -14 -30 -27q-2 1 -4 0q-5 4 -15 7q50 127 105 246q41 20 73 42
q10 9 19 16q11 10 16 24q5 15 -1 30q-3 18 -21 26q-18 9 -36 -6q-15 -9 -28 -37q-19 -36 -40 -76q-41 -18 -89 -30q-10 3 -20 -3q-18 -3 -39 -8q-19 -7 -39 -17q-28 -20 -38 -53q-7 -23 8 -47q12 -10 17 -3q13 6 4 18q-5 8 -5 12v14q4 11 10 19q8 14 18 17q14 12 31 15
q23 6 39 8q8 2 17 4q36 9 70 21q-51 -113 -98 -231q-11 0 -23 -6q-26 -10 -36 -39v-8q7 -8 14 -13.5t16 -4.5q-38 -107 -73 -218q-6 -25 -16 -52q-9 -23 -26 -42q-12 -16 -38 -25q-21 -8 -43 1q-8 6 -16 16q-6 13 -6 25q2 20 16 24q12 6 7 18q-7 13 -17 6q-28 -10 -31 -47
q1 -19 9 -37q10 -16 23 -26q17 -10 37 -10q22 2 44 12q23 11 34 27q20 21 29 48q11 27 19 54q36 116 78 230q16 3 24 11q12 8 21 15q11 -11 15 -30q10 -15 7 -34q1 -20 -5 -41q-6 -20 -11 -43q-1 -5 -4 -12q-23 -87 -33 -182q-2 -19 -2 -39q3 -16 7 -37q6 -17 22 -37
q21 -14 43 -17q30 3 42 22q16 21 8 39q-4 20 -16 10q-11 -3 -7 -15q1 -3 0.5 -4t-1.5 -8q-1 -5 -2 -6q-10 -10 -25 -13q-13 2 -26 11q-10 15 -16 26q-5 15 -5 30q0 21 2 34zM452 671q2 5 10 17q8 14 18 11q2 2 3 0q5 -3 7 -10q3 -7 0 -13q-5 -16 -24 -29q-11 -7 -24.5 -16
t-16.5 -10q2 3 11.5 20.5t15.5 29.5zM256 294q-6 -2 -12 2q6 12 19 17v1q-3 -8 -7 -20zM303 312q-4 -3 -9 -5.5t-8 -2.5q0 -1 3 4t4 8q5 0 10 -4z" />
    <glyph glyph-name="L" unicode="L" horiz-adv-x="531" 
d="M206 126q34 76 59 151q81 47 128 127q52 84 62 173q4 15 1 30q2 17 -9 32q-7 17 -24 23q-16 10 -34 5q-15 -3 -26 -20q-7 -11 -13 -28q-14 -46 -33 -97q-15 -48 -32 -96q-19 -66 -43 -133q-8 -5 -20 -10q-10 -2 -25 -4q-21 1 -40 17q-16 18 -25 36q-6 26 -9 51q2 27 1 51
q4 15 6 30l8 28q6 12 16 14q10 8 21 5q13 1 16 11q5 20 -12 16q-19 4 -39 -8q-15 -10 -24 -26q-8 -14 -12 -34q-2 -16 -5 -34q-1 -18 -1.5 -30t-0.5 -25q0 -28 9 -56q10 -24 32 -50q26 -21 60 -23q9 0 18 2t14 5q-8 -22 -21.5 -60.5t-28.5 -70.5q-28 -68 -73 -131
q-15 3 -36 5q-17 4 -37 -8q-18 -4 -29 -20q-9 -14 -6 -37q5 -13 22 -23q22 -10 43 -3q19 6 30 20q6 7 8 10q6 9 10 14q8 7 9 9q24 -8 45 -21q27 -15 51 -29q33 -18 72 -42q45 -20 91 -21q26 1 52 10q29 11 46 31q32 32 29 71q1 13 -14 13q-7 1 -14 -13q3 -16 -5 -31
q-6 -12 -14 -21q-14 -16 -36 -25q-18 -9 -44 -9q-38 -1 -75 17q-33 20 -74 42q-23 14 -50 29q-21 15 -47 24q44 67 72 137zM311 417q31 99 65 194q3 13 8 19q9 10 15 12q1 1 -1.5 0.5t-1.5 -1.5q10 4 19 -4q7 -2 9 -9q6 -12 5 -23q3 -10 0 -24q-9 -82 -54 -157
q-18 -32 -51.5 -65.5t-46.5 -42.5q3 10 14 43t20 58zM90 -29q-7 -13 -15 -22q-5 -6 -18 -12q-12 -1 -26 2q-4 2 -7 6q-2 8 4 13q7 9 15 12q15 6 24 5h3q10 -1 19 -3z" />
    <glyph glyph-name="M" unicode="M" horiz-adv-x="561" 
d="M387 369q31 73 76 133l4 7q24 33 57 71q34 40 69 50q5 2 11 -1q0 1 -2 -2q11 -27 3 -55l-18 -54l-249 -629q-6 -18 -7 -46q7 -27 35 -37q12 -2 21 -4q32 4 50 21q23 21 26 48q7 29 9 57q8 16 -11 13q-11 7 -14 -11q1 -24 -8 -50q-3 -10 -8 -21q-3 -9 -12 -19
q-9 -6 -22 -11q-11 -3 -23 1q-4 2 -7 2l-4 2q-5 8 -7 15q-2 6 0 12q6 9 7 19l248 628q9 26 18 58q12 36 -2 68q0 12 -12 17q-10 13 -31 2q-39 -11 -77 -55q-35 -42 -61 -73l-4 -7q-13 -17 -28.5 -43.5t-18.5 -33.5q0 3 -5 10.5t-11 13.5q-7 8 -13 11t-21 6q-13 0 -21 -1.5
t-16 -5.5q-30 -13 -53 -43q-21 -23 -44.5 -56.5t-29.5 -41.5q3 9 12.5 35.5t21.5 60.5t25.5 70.5t24.5 65.5q33 16 56 41q29 31 39 68q3 9 3 16q4 13 -7 24q-6 11 -20 13q-16 3 -33 -9q-8 -7 -18 -20q-1 -5 -4 -13q1 -2 -2 -7q-17 -46 -37 -97q-2 -1 -9 -2q-23 -8 -50 -11
q-15 -1 -36 -7q-19 -2 -38 -11q-31 -15 -55 -50q-21 -32 -21 -74q5 -7 12 -9h1q20 2 13 12q1 32 17 57q20 30 45 42q29 14 64 15q31 6 58 16l-4 4q-47 -138 -97 -278q-84 -125 -142 -274q-2 -8 -2 -25q0 -13 7 -24q11 -8 23 -7h1q13 2 21 10q24 30 35 58q13 30 21 59
q30 99 59 191q55 74 112 143q19 25 43 36q4 3 8.5 5t13.5 1q9 -3 11.5 -6t6.5 -7q22 -17 2 -69q-3 -6 -18.5 -47t-33.5 -87t-47 -120q-3 -7 8 -17q13 2 16 8q29 75 47 121.5t34 87t19 46.5zM301 670q5 20 15 31q8 3 13 2h5h-1q3 0 6 -3q4 -3 -4 -18q-9 -26 -29 -52
q-6 -9 -15 -18.5t-15 -12.5q5 12 12 33.5t13 37.5zM81 92q-7 -28 -19 -58q-11 -27 -33 -53q-1 -3 -6 6q1 9 3 18q10 28 25.5 62.5t30.5 66t27.5 55.5t16.5 31q-3 -9 -19 -52t-26 -76z" />
    <glyph glyph-name="N" unicode="N" horiz-adv-x="455" 
d="M427 395q27 73 46 143q6 27 2 49q-3 31 -28 37q-5 2 -9.5 1.5t-13.5 1.5q-8 -1 -10.5 -1.5t-7.5 -2.5q-59 -16 -102 -59q-42 -42 -75 -84q-3 -4 -12 -21l40 115v0q30 10 57 32q30 27 39 53q11 29 -11 50q-14 19 -32 12q-18 -3 -37 -33q-15 -22 -24 -43l-13 -52
q-28 -3 -61 -6q-35 -2 -74 -11q-41 -12 -75 -46q-28 -33 -23 -79q7 -12 16 -9q18 6 9 18q-6 32 17 55q27 29 60 37q35 8 71 10q26 4 51 7l-48 -164q-57 -91 -103 -196q-22 -52 -38.5 -100.5t-29.5 -102.5q-2 -10 -3 -12q-2 -13 -5 -32q-1 -21 16 -29q14 -3 28 -1
q16 10 26 30q10 23 15 42l118 390q23 38 47 71q31 42 69 81q43 40 95 55q14 4 25 1q15 -6 12 -26q-1 -24 -4 -32q-17 -70 -44 -142q-27 -68 -55 -135q-38 -87 -72 -182q-30 -93 -44 -192q-6 -69 15 -96q6 -6 11 -8t17 -2q9 0 13 2t9 5q11 10 13 23q2 15 2 23q-1 20 -12 14
q-10 4 -13 -14q1 -5 -2 -16q-2 -6 -6 -12q-1 0 -5 -2q-4 0 -7 3q-2 3 -5 7t-4 14q-3 20 0 57q12 98 42 185q36 94 73 181zM276 636q6 20 17 38q12 20 22 22q5 -2 6.5 -3.5t6.5 -3.5q4 -9 4 -12t-3 -10q-3 -21 -29 -42q-16 -13 -36 -21zM61 11q-7 -24 -14 -35.5t-15 -16.5
q-9 6 -8.5 12t1.5 14q3 9 8 27q11 44 31 98.5t40.5 103t37 83t19.5 39.5z" />
    <glyph glyph-name="O" unicode="O" horiz-adv-x="421" 
d="M359 319q13 57 16 109q8 57 -1 113q-1 9 -2 17q0 10 -4 20q-4 18 -20 33q-10 15 -29 21q-17 9 -39 7q-13 0 -27 -4q-27 -5 -55 -26q-23 -20 -46 -54q-12 -27 -26 -57q-11 -27 -21 -59l-46 -154q-23 -83 -45 -177q-20 -94 -3 -189q3 -9 7 -22q6 -14 20 -21q10 -4 18 -4
q14 2 21 4q49 15 83 43q36 30 61 68q31 37 48 76q19 42 33 75q15 38 30 83q15 48 27 98zM278 146q-12 -31 -33 -69q-17 -39 -44 -75q-21 -33 -56 -61q-31 -26 -75 -40q-6 -3 -15 -3q-3 0 -5 1q-4 3 -7 8q-3 12 -6 18q-15 91 2 179q23 93 45 174l45 153q9 29 19 56
q14 31 25 56q18 28 39 44q22 17 48 23q12 2 21 2q31 2 48 -18q11 -10 11 -25q6 -15 8 -31q9 -53 1 -108q-3 -54 -16 -105q-11 -49 -26 -97q-13 -46 -29 -82z" />
    <glyph glyph-name="P" unicode="P" horiz-adv-x="493" 
d="M500 460q22 38 23 82q6 50 -33 71q-21 13 -44 9q-18 0 -39 -11q-16 -9 -32 -24q-12 -11 -20 -17q-17 -18 -35 -42t-33.5 -47t-26.5 -40.5t-14 -22.5q2 9 11 37.5t22.5 65.5t29 77t30.5 71h5q18 3 37 4q23 5 37 21q10 10 13 26q4 20 -3 33q-10 25 -34 25q-16 4 -31 -14
q-6 -12 -15 -26q-12 -20 -24 -46q-63 -6 -127 -50q-65 -44 -75 -118q4 -6 12 -11q18 -1 17 11q10 60 58 94q46 36 100 45q-33 -70 -59 -148q-26 -80 -47 -162q-8 -16 -17.5 -36t-15.5 -32q-2 -4 -2 -3q-14 26 -43 41q-29 21 -64 12q-15 0 -33 -14q-13 -10 -23 -26
q-8 -21 -6.5 -34t8.5 -28q7 -11 16 -5q11 10 4 21q-9 16 1 31q8 12 18 17q10 10 19 12q27 6 46 -8q21 -15 34 -35q7 -6 9 -12q-36 -88 -68 -179q-28 -91 -60 -179q0 -9 -6 -39q-8 -30 7 -48q10 -9 24 -9v0q43 2 58 40q16 42 22 77q3 16 6 28q23 95 43 185q8 37 15 69h-2
q41 -27 85 -5q47 22 75 55q90 99 147 211zM372 726q6 9 10 17q7 11 14 10v0q5 0 6 -4t2 -9q4 -2 2 -12q-2 -8 -8 -16l-10 -8q-4 -2 -12 -4q-9 -2 -19 -3q9 15 15 29zM152 136q-20 -93 -41 -187q-3 -11 -6 -25q-4 -34 -19 -70q-8 -28 -33 -29q-3 3 -7 3q-4 8 -1 23q3 21 9 38
q28 86 55 170q30 87 64 167q1 -2 -1 -4q-8 -38 -20 -86zM182 260q0 1 1 -3t1 -3q2 5 3.5 10.5t1.5 7.5q0 -1 -3.5 -5.5t-3.5 -6.5zM477 471q-57 -111 -145 -204q-28 -27 -62 -48q-33 -17 -60 3q-4 4 -9 7l28 114q63 114 144 207q24 26 52 40q14 9 27.5 6.5t22.5 -5.5
q27 -18 22 -54q-5 -39 -20 -66z" />
    <glyph glyph-name="Q" unicode="Q" horiz-adv-x="531" 
d="M396 241q57 144 72 294q3 27 0 57q-3 32 -25 53q-26 31 -74 22q-41 -6 -78 -33q-100 -70 -162 -202q-51 -112 -69 -255q-1 -23 -2 -49q0 -26 8 -53q9 -23 27 -45q23 -20 51 -23q36 -3 62 18q28 21 43 39q67 82 109 175q46 97 67 196q3 15 -10 15q-9 6 -15 -10
q-18 -96 -62 -189q-44 -91 -110 -169q-12 -16 -35 -35q-19 -19 -45 -16q-18 3 -35 17q-15 19 -24 36q-7 22 -5 43q1 13 0 24.5t0 22.5l18 99q15 59 39 121q25 62 63 119q42 57 101 100q30 23 66 28q35 9 56 -11q15 -17 17 -42q3 -25 0 -50q-16 -148 -73 -289
q-54 -139 -146 -258q-11 -16 -26 -32q0 3 -2.5 0t-5.5 -5q-19 20 -46 35q-35 22 -79 25q-30 4 -49 -12q-15 -10 -18 -32q-3 -16 3 -33q16 -37 56 -53q41 -14 76 -1q38 15 60 37q20 -16 42 -29q35 -15 70 -16q32 -1 55 7q32 12 57 31q28 21 40 49q10 21 9 35q1 21 -9 32
q-6 6 -15 11.5t-24 8.5q-5 4 -11.5 1t-9.5 -12q4 -8 12 -13q21 -3 27 -11q9 -8 5 -22l-6 -18q-11 -21 -35 -41q-21 -17 -48 -26t-55 -9q-26 2 -48 14q-20 13 -38 26q19 19 32 38q96 124 152 265zM127 -91q-27 -9 -59 0q-32 11 -43 35q-1 8 -1 21q2 13 8 19q10 7 24 6
q6 0 9 -1q35 -3 69 -22q28 -16 48 -37q22 15 17 24t-20 -14q-22 -20 -52 -31z" />
    <glyph glyph-name="R" unicode="R" horiz-adv-x="425" 
d="M295 328q-4 13 -9 24t-14 19q41 15 70 38q32 25 47 55q21 32 26 65q3 9 0 23q-1 14 -6 25q-4 13 -14 21q-9 10 -24 12q-26 10 -50 -1q-19 -9 -40 -28q-15 -17 -30 -33q-3 -5 -13 -19l8 12q22 58 42 112q30 3 56 16q16 8 16 14q16 18 1 34q-5 13 -21 15q-12 3 -25 0
q-13 -2 -27 -20q-10 -14 -14 -29q-2 -2 -4 -8q-12 -1 -25 -4q-32 -2 -65 -11q-35 -8 -72 -37q-34 -29 -32 -75l12 -12q14 10 11 17q2 33 26 51q31 26 63 34t59 10q7 2 13 2q-19 -50 -36 -102l-21 -64q-79 -115 -133 -245q-51 -130 -75 -269q-2 -16 16 -28q18 -4 30 9
q11 15 16 29l166 493q23 31 44 59q15 16 29 33q16 13 32 20q18 9 35 2q18 -5 26 -20q7 -12 1 -33q-7 -52 -50 -96q-40 -37 -96 -50q-16 12 -36 8q-10 1 -14 -18q5 -15 15 -16q15 -2 30 2q13 -4 19 -17q13 -11 14 -25q10 -25 1 -56q-5 -30 -17 -60l-1 -5q-39 -126 -60 -264
q-3 -15 -3 -31t7 -32q17 -16 34 -25q5 -1 9 -1q14 6 21 10q9 14 1 16q-5 6 -13 0q-5 -3 -13 -1q-9 3 -17 13q-4 10 -6 20q4 14 5 28q20 134 58 260l1 6q12 33 16 61q10 35 0 67zM298 677q5 11 10 19q8 11 16 13q1 1 -1.5 0t-2.5 -2q6 2 12 2.5t9 -5.5q3 -3 0 -9q-2 -1 -7 -4
q-16 -9 -29 -13q-7 -2 -7 -1zM33 -12q-1 -11 -11 -24q0 -1 -2 0q0 2 -1 4q21 124 65 242q10 28 26.5 64t32.5 68.5t28 55t14 25.5z" />
    <glyph glyph-name="S" unicode="S" horiz-adv-x="484" 
d="M369 678q-21 14 -48 10q-35 -7 -74.5 -42.5t-73 -75.5t-56.5 -73.5t-24 -36.5q-71 -114 -41 -196q15 -41 50.5 -69t71.5 -51l7 -5q20 -13 39.5 -27t34.5 -34q-50 -40 -97 -81q-12 -10 -29 -24.5t-32 -27.5t-36 -33q-16 -12 -30 -24t-20 -32q-5 -8 -8 -28.5t13 -33.5
q10 -8 27 -7q20 0 48 11.5t53.5 24.5t43.5 24t19 11q15 12 34.5 28.5t35.5 37.5t26.5 46.5t7.5 53.5q-3 26 -14 46q12 9 37.5 26t55.5 35.5t57 35.5t42 26q3 6 4 10t1 11q0 8 -2.5 9.5t-7.5 3.5q-15 -9 -44.5 -26.5t-60.5 -37.5t-59 -38t-40 -27q-17 22 -39 37.5t-44 30.5
l-7 4q-34 21 -64.5 45t-43.5 60q-25 68 38 169q15 25 40 59.5t53 67t57.5 56.5t54.5 30q14 3 25 -6q17 -13 20.5 -33.5t3.5 -35.5q0 -18 -2 -36q-2 -30 -1 -59q0 -9 3 -11.5t12 -2.5q16 0 15 14q0 29 3 57q0 18 1 38q0 20 -5 47.5t-31 48.5zM280 21q5 -48 -29 -83.5
t-61 -54.5q-15 -9 -38 -22t-47 -24t-43.5 -17t-26.5 0q-4 6 6 25q6 14 16.5 24t22.5 21q21 19 36.5 31.5t33 26.5t29.5 24q46 42 94 79q6 -14 7 -30z" />
    <glyph glyph-name="T" unicode="T" horiz-adv-x="469" 
d="M236 67q14 41 20 79q6 18 8 31q44 177 119 340q14 27 26 48q14 22 30 40q39 -3 75 -7q40 -3 79 5q41 9 42 31q5 16 -5 27q-7 13 -27 17q-9 5 -16 3.5t-15 1.5q-84 -3 -133 -42q-7 -2 -10 -7q-13 2 -26 3q-63 10 -127 13q-65 3 -124 -27q-16 -7 -40 -28q-22 -19 -32 -54
q-5 -27 8 -57q16 -28 46 -41q17 1 16 11q6 14 -11 17q-14 3 -27 23q-8 22 -4 41q5 19 18 33q18 20 38 29q53 28 112 25q62 -2 124 -11q4 1 9 0q-13 -15 -26 -35q-13 -23 -23 -48q-78 -164 -122 -343q-4 -15 -9 -34q-7 -37 -19 -76q-10 -37 -26 -73q-12 -24 -45 -65
q-30 -37 -82 -55q-13 -4 -26 -1q-4 3 -7 10q-2 9 3 11q2 6 3 11t-4 11q-10 6 -20 -3q-10 -17 -8 -36q5 -19 22 -29q10 -4 22 -6q8 2 12.5 2.5t10.5 0.5q20 8 49 25t46 38q34 47 47 76q19 39 29 75zM609 640q-3 -7 -22 -10q-59 -8 -120 -1q19 15 46.5 20t60.5 7q12 2 20 -4
q10 0 13 -6q3 -2 2 -6z" />
    <glyph glyph-name="U" unicode="U" horiz-adv-x="608" 
d="M407 53q12 51 22 94q4 22 8 37t10 33l12 38q29 65 47 127q22 66 42 128q2 10 4 21q0 8 1 18.5t1 16.5q-1 14 -14 12q-9 -2 -11.5 -4t-2.5 -10v-12v-16q-2 -12 -4 -17q-24 -78 -53 -163q-15 -42 -33 -86.5t-39 -86.5q-36 -77 -91 -152q-52 -71 -128 -133q-12 -10 -31 -22
q-15 -6 -29 0q-18 12 -14 30q3 28 6 36q11 46 28 87q22 43 38 82l140 309q21 38 35 82q21 46 23 91q2 13 -2 22q-2 18 -13 27q-27 26 -74 -11q-128 -93 -252 -202l-11 -11q-10 -8 -22 -29q-4 -10 -2 -34q8 -15 19 -25q19 -10 33 -4q16 6 21 10l99 46q18 9 9 18q1 18 -18 8
l-102 -48q-7 -2 -17 -6q-4 -2 -11 2q-3 2 -5 6q-2 12 0 17q6 8 11 14q8 9 15 14q124 108 252 201q8 8 20 14q12 7 16 -1q8 -5 5 -26q-3 -43 -19 -84q-12 -40 -33 -80l-142 -309q-16 -39 -37 -84q-16 -40 -32 -88q0 -8 -3 -22q-3 -11 -2 -29q1 -15 7 -26q10 -15 19 -24
q15 -5 27 -6q34 3 67 33q73 58 125 130q14 18 29.5 44.5t29 51t23 43t10.5 20.5q-1 -3 -12 -37.5t-17 -58.5q-9 -48 -19 -98q-2 -32 0 -44q4 -13 11 -25q8 -10 22 -17q13 -3 16 -1q25 1 50 27q35 41 45 87q6 14 -10 17q-11 7 -18 -11q-10 -43 -38 -74q-8 -8 -16 -14t-20 -5
q-4 1 -5 2.5t-5 4.5q-4 8 -6 17q-1 5 -1 15t2 18q5 36 14 85z" />
    <glyph glyph-name="V" unicode="V" horiz-adv-x="540" 
d="M405 297q52 93 100 187q51 98 71 206q4 16 -11 14q-10 5 -14 -11q-19 -101 -67 -198q-46 -94 -100 -186l-207 -361q-5 -10 -16 -23q-6 -9 -18 -21q-5 -2 -8 2q-3 3 -2.5 5t0.5 5q18 126 43 238t61 235l9 33q20 60 29 121q17 66 5 124q-2 13 -8.5 19t-7.5 8q-4 3 -17.5 4
t-18.5 -1h1q-51 -5 -90 -32q-39 -26 -78 -62q-13 -8 -28 -26q-13 -14 -22 -34q-7 -18 -9 -44q2 -21 15 -43q37 -36 124 -1q10 5 11 10.5t-4 7.5q-4 14 -18 5q-66 -30 -95 -4q-8 12 -7 27q-1 19 4 31q10 18 20 27q15 15 27 24q38 33 73 60q18 12 34 20t38 11l10 1q4 0 14 -2
q7 -9 10 -16q4 -30 2 -55.5t-8 -54.5q-10 -59 -30 -117l-4 -19q-37 -123 -64.5 -245.5t-45.5 -251.5q-1 -15 16 -31l20 -5q12 6 15 8q14 12 21 22q10 14 15 25z" />
    <glyph glyph-name="W" unicode="W" horiz-adv-x="641" 
d="M581 381q27 73 46 143q22 76 34 156q-1 16 -11 16q-5 2 -10.5 -4t-6.5 -12q-9 -51 -16.5 -82.5t-16.5 -67.5q-18 -72 -46 -141q-26 -66 -60 -135q-15 -33 -34.5 -70.5t-36.5 -68.5q-29 -56 -70 -122q-39 -63 -94 -114q-27 -23 -44 -19q-9 2 -13 9q-2 13 -6 23q-1 12 0 21
q1 11 0 14q41 211 150 389q5 16 -2 17q0 9 -19 -2q-25 -29 -46 -70q-18 -35 -36 -77q-13 -34 -33 -71q-23 -45 -57 -79q-29 -30 -67 -42q-14 -3 -27 5q-9 9 -10 24q9 67 35 129q26 66 52 125q11 19 18 34q74 165 125 334q7 15 1 25q-4 13 -16 20q-11 10 -43 1
q-111 -27 -198 -110q-15 -15 -23 -37q-2 -16 9 -33q16 -16 42 -25q20 0 38 5q20 9 31 16q14 7 5 16q-3 15 -17 7q-8 -6 -27 -13q-13 -5 -28 -5q-14 4 -24 14q-4 7 -4 15q6 13 15 21q40 39 87 65q52 28 101 40q18 7 22 1q5 -2 4 -4q4 -4 1 -12q-53 -170 -125 -331
q-8 -16 -17 -35q-26 -60 -53 -127q-27 -63 -36 -132q-2 -27 18 -47q22 -18 51 -11q39 13 71 41q14 14 28 36t17 26q-2 -5 -7 -20t-11 -34.5t-11.5 -42t-8.5 -41.5q-5 -26 1 -56q10 -31 35 -40q9 -2 16 -2q25 2 52 27q57 53 97 118q44 67 72 123q40 74 73 140q37 70 64 139z
" />
    <glyph glyph-name="X" unicode="X" horiz-adv-x="602" 
d="M495 405q36 63 75 116q21 25 45 49q25 24 57 30q20 8 10 18q0 16 -15 9q-39 -8 -70 -36q-27 -26 -49 -53q-36 -52 -70 -111q-14 -24 -30 -57.5t-19 -38.5q0 2 -0.5 17t-0.5 25q0 82 -8 162q-2 39 -20 74q-17 33 -52 46q-34 15 -69 6q-34 -9 -57 -37q-22 -30 -25 -70
q2 -3 6.5 -5.5t8.5 -2.5h6q5 4 6 11q4 29 19 50q19 21 43 28q25 8 50 -4q28 -13 41 -35q16 -28 16 -63q7 -81 9 -162q2 -39 4 -82q-15 -28 -30 -61q-34 -74 -77 -151q-39 -75 -90 -144q-13 -21 -34 -44q-19 -19 -43 -31q-20 -12 -50 -9q-24 3 -41 23q-15 19 -17 44
q0 28 5 53q3 19 6 31q5 14 10 23q9 9 18 14q12 8 21 4q16 -3 18 8q10 17 -11 17q-19 8 -38 -4q-18 -8 -30 -23q-14 -26 -20 -66q-4 -28 -4 -62q4 -33 22 -57q15 -14 34 -23q21 -7 38 -8q26 3 48 11q31 14 51 36q23 23 39 46q52 71 91 148q39 78 77 153q3 6 5.5 14.5
t3.5 11.5q0 -8 2.5 -27t5.5 -43t7.5 -49.5t9.5 -46.5q5 -22 14 -45q12 -23 32 -45q14 -9 26 -17q19 -8 35 -8q24 0 40 14q13 12 4 17q-2 15 -19 4q-15 -11 -35 -7q-20 6 -33 17q-7 6 -12.5 13t-11.5 22l-14 40q-10 50 -18 100q-6 52 -9 102q32 62 63 121z" />
    <glyph glyph-name="Y" unicode="Y" horiz-adv-x="388" 
d="M431 631q-3 3 -9.5 3t-9.5 -9q-15 -21 -31 -48q-20 -31 -53 -81q-32 -46 -59 -76q-34 -34 -73 -63q-38 -26 -97 -39v0q-3 2 -6 3q-1 3 1 8q4 11 7 16l161 281q34 64 5 89q-9 12 -30.5 14.5t-50.5 -12.5q-76 -32 -142 -86q-38 -33 -32 -71q8 -20 28 -28q21 -6 39 -2
q18 6 30 16q15 14 23 25q6 10 -1 16q-5 7 -17 2q-9 -9 -21 -20q-9 -10 -23 -14q-8 -1 -20 2q-10 3 -14 12q-4 19 24 40q64 52 136 85q14 7 29 8q15 4 22 -5q15 -17 -9 -57l-160 -283q-4 -10 -8 -23q-2 -14 0 -27q6 -10 16 -14q9 -4 11.5 -3t9.5 2q63 15 103 41q44 31 79 70
q9 10 20.5 30.5t12.5 21.5q-12 -23 -20 -38.5t-16 -33t-14 -30.5q-26 -63 -51 -124q-33 -89 -74 -178q-50 -25 -92 -64q-29 -30 -42 -53t-17 -39q-3 -10 -2.5 -22.5t6.5 -16.5q10 -15 24 -19q21 -1 32 6q16 11 35 40q44 75 76 151q25 12 37 21q36 19 59.5 33.5t48.5 33.5
q58 44 81 71q6 5 6 21q-1 8 -12 13q-21 -24 -42 -44.5t-48 -39.5q-26 -18 -50 -33.5t-55 -33.5l-9 -6q2 6 9.5 23t17 39t19.5 46t18 43q34 87 70 174q39 87 86 168q17 28 18 31q11 12 14 18q7 12 -4 19zM68 -104q-10 -16 -24 -30q-5 -2 -14 -2q-9 3 -10.5 11.5t-0.5 11.5
q0 9 18 37t31 38q15 14 35 30t29 21q-6 -13 -26 -50t-38 -67z" />
    <glyph glyph-name="Z" unicode="Z" horiz-adv-x="409" 
d="M351 430q56 77 84 165q3 9 6 25q2 18 0 25t-3 10q-8 14 -16 17q-11 4 -27 -6q-26 -15 -44.5 -38.5t-36.5 -48.5q-32 -51 -46 -114q4 -5 5 -10q25 -1 21 11q15 54 42 100q29 48 72 80q0 1 4 2q2 -1 4 -6q6 -14 -4 -39q-27 -83 -84 -160q-52 -74 -129 -125q-7 2 -8 -17
q3 -5 3 -8.5t14 -3.5q7 3 18 2t14 -1q8 -2 12 -8q2 -8 4.5 -14.5t1.5 -15.5q-2 -16 -6 -38q-34 -130 -112 -243q-5 -1 -17 -2.5t-16 -2.5q-15 -1 -34 -6q-16 -3 -34 -17q-11 -5 -18 -23q-3 -16 -2 -30q7 -24 27 -31h12q25 1 50 29q26 34 48 62q26 9 75.5 46.5t96.5 85.5
q33 33 55 65.5t31 45.5q1 1 4 9t3 11q-1 13 -16 14q-16 -30 -42.5 -67.5t-50.5 -60.5q-15 -14 -34.5 -32t-39 -35t-36 -29.5t-25.5 -17.5q9 15 22.5 40t28 55.5t27.5 64.5t21 65q4 22 7 41q3 25 -9 44q-4 5 -10.5 12.5t-15.5 8.5q-3 0 -10 4q3 2 16 13t31 27t36 34.5
t30 35.5zM89 -95q-18 -25 -36 -22q-9 4 -9.5 9t0.5 16q5 12 11 16q9 10 22 11q18 3 34 7q7 2 11 3q-14 -20 -33 -40z" />
    <glyph glyph-name="bracketleft" unicode="[" horiz-adv-x="310" 
d="M72 235q12 86 23 176q14 89 26 176q14 111 35 225q0 3 24 -1t40 -8t31 -8q15 -3 19 8q3 7 0 11t-10 8q-15 4 -30 10q-34 10 -69 15q-18 3 -25.5 -10.5t-7.5 -19.5q-20 -115 -34 -226q-11 -88 -26 -176q-11 -90 -24 -176q-16 -109 -29 -225q-1 -7 2 -21.5t19 -17.5h2
q36 -5 71 -4h32q11 -1 14 15q-2 6 -4 9.5t-10 4.5h-17.5t-16.5 -1q-32 -1 -63 4q-2 2 -1.5 2.5t0.5 5.5q13 115 29 224z" />
    <glyph glyph-name="backslash" unicode="\" horiz-adv-x="371" 
d="M381 -114l-416 839q-5 9 -8 9t-10 -1q-4 -5 -5.5 -5t-0.5 -12q71 -145 129.5 -263t134 -268t153.5 -307l4 -4t8 0q7 2 8 5t3 7z" />
    <glyph glyph-name="bracketright" unicode="]" horiz-adv-x="321" 
d="M194 207q3 21 7.5 51.5t9 58t11.5 67.5q12 92 26 179q18 112 32 230q0 5 -1 17q-1 17 -22 21q-33 7 -70 3h-33q-6 0 -9 -2.5t-6 -11.5q11 -11 15 -12q7 0 16.5 -0.5t17.5 0.5q17 0 66 -5q2 -1 0 -8q-12 -116 -33 -227q-13 -86 -25 -180q-14 -90 -28 -177
q-16 -111 -36 -228q-1 -6 -3 -9h-4q-30 5 -62 16q-15 5 -31 10q-9 2 -18 -9q0 -8 9 -16q19 -5 33 -11q32 -10 68 -16q2 -1 5 -2q16 2 22 14q5 13 7 18q22 118 36 229z" />
    <glyph glyph-name="asciicircum" unicode="^" horiz-adv-x="221" 
d="M102 673q4 -13 8 -25l4 -12q2 -4 6 -6q9 -2 10 0q12 6 7 15q-1 2 -3 9q-3 11 -17 42q-3 4 -7 7q-8 2 -12 -2l-45 -32q-9 -7 -2 -17l4 -4q3 -3 6 -2q4 0 8 3z" />
    <glyph glyph-name="underscore" unicode="_" horiz-adv-x="191" 
d="M158 22l-139 -2q-7 -2 -9 -11q1 -9 3 -11t6 -5l139 3q8 1 10 14q-1 11 -10 12z" />
    <glyph glyph-name="grave" unicode="`" horiz-adv-x="229" 
d="M141 628q0 6 -3.5 10.5t-5.5 6.5q-28 7 -53 23q-6 5 -11 1.5t-6 -4.5q-7 -8 2 -18q28 -20 61 -28q12 0 16 9z" />
    <glyph glyph-name="a" unicode="a" 
d="M146 89q14 15 24 25t20 21t15 17q3 3 10 11.5t10 12.5q3 3 7 9l6 9q4 6 5 17q0 6 -2.5 9t-8.5 9q-20 -27 -25 -33q-9 -11 -19 -23q-3 -4 -13.5 -15t-21 -23t-26.5 -30q-9 -9 -16 -7l-7 7q-2 7 0 16q2 22 8 48q8 27 21 45q5 14 -3 18q-3 1 -4 4t-4 1q-2 11 -8 16
q-15 23 -43 21q-15 0 -31 -8q-12 -6 -25 -16q-9 -10 -30 -43q-7 -9 -11 -25q-5 -17 -3 -32q3 -14 10 -25q10 -9 16 -9q6 -1 9 0q22 -1 48 19q28 22 38 37q-6 -12 -5 -12q-1 -3 -4 -14t-3 -20q-2 -15 2 -31q10 -15 18 -20q7 -3 14 -3q16 3 32 17zM47 163q-27 -23 -44 -22
q-1 0 -4 3q-1 1 -0.5 1t-2.5 4q-4 9 1 24t10 24q10 21 25 35q18 16 38 15q14 1 22 -11q8 -8 5 -22q-18 -22 -50 -51z" />
    <glyph glyph-name="b" unicode="b" horiz-adv-x="258" 
d="M217 163q-31 -39 -68 -73t-58 -41q-12 -11 -9 -8q11 24 21 54q1 6 3 25t-12 31q-25 18 -62 -12q-22 -17 -41 -40q-7 -9 -14.5 -24t-8.5 -15q2 3 14.5 40.5t28.5 91.5q2 8 3 9t4 10q0 1 1 3q76 82 133 194q12 27 23 52.5t20 54.5l3 9q10 26 14 53q1 9 0.5 24t-9.5 26
q-13 14 -27 12q-15 -3 -29 -24t-25 -48q-2 -3 -3 -8q-27 -57 -52 -121q-21 -57 -40 -113t-40 -127q-9 -33 -14.5 -52.5t-10.5 -34.5t-10 -33t-14 -48l-8 -31q-1 -9 7 -13l10 -10q17 -11 35 -10q15 0 20 1q20 5 38.5 17.5t30.5 34.5q4 1 7 2q56 18 88 47.5t65 73.5
q4 6 10.5 14t21.5 38q8 12 8 20q-1 13 -17 12q-24 -46 -37 -63zM91 429q24 63 50 121q1 3 3 7q4 11 12.5 31.5t20.5 23.5q3 2 6 -1q5 -6 5.5 -16t-0.5 -14q-4 -25 -14 -49l-2 -7q-16 -55 -41 -105q-12 -24 -28.5 -51.5t-32.5 -51.5t-28 -41t-14 -20q1 3 8 23t16.5 46.5
t20 54.5t18.5 49zM34 9q-4 -5 -15 -10t-22 -8q-8 -1 -22 -0.5t-14 1.5q1 3 8 4.5t10 2.5l20 4q9 1 19 2.5t16 3.5zM55 41q-29 -9 -61 -15q-10 -2 -31 -5v0q2 2 18 24t29 37q18 22 39 38q15 13 24 12q3 0 5 -1q9 -7 1 -29q-9 -26 -18 -49q-3 -5 -6 -12z" />
    <glyph glyph-name="c" unicode="c" horiz-adv-x="261" 
d="M54 -24q32 20 67 55q34 33 70 74q18 21 28 33t16 18q6 7 17 20t14 17q6 10 6 20q0 4 -5.5 8.5t-9.5 3.5q-15 -19 -20 -25q-10 -12 -20.5 -23.5t-27.5 -31.5q-31 -37 -65 -73q-36 -36 -71 -62q-33 -26 -58 -27q-11 -1 -18 6q-7 14 -9 35q-2 23 3 50t14 54q9 29 18 50
q2 4 4 9q7 14 16 33q9 18 22 19v0q6 -1 10 -9q7 -8 8 -17q3 -9 4 -20q3 -11 2 -19q3 -9 13 -10h2q11 2 12 11q1 41 -12 63q-16 22 -39 21v0q-25 2 -41 -20q-13 -21 -21 -41q-3 -5 -4 -10q-1 -4 -12 -28q-11 -25 -20 -58q-7 -35 -8 -70q0 -38 18 -60q15 -18 37 -17h1
q27 1 59 21z" />
    <glyph glyph-name="d" unicode="d" horiz-adv-x="498" 
d="M293 -139q93 139 178 280q9 17 16 27.5t16 25.5q6 8 6 17q1 9 -13 17q-22 -36 -45 -75q-89 -137 -183 -279q-7 -11 -18 -26q-30 -50 -65 -95q-23 -21 -48 -41q-5 -4 -10.5 -6t-14.5 -7q-13 -4 -26 -1q-16 8 -21 30q-2 28 0 41q7 58 20 116q7 22 10 41q15 74 28.5 145.5
t30.5 145.5l1 7q23 28 45.5 54t44.5 56q43 60 86 131q49 77 83 141q40 69 63 129q33 81 42 148q7 41 5 81q0 14 -3 30q-1 20 -16 34q-19 22 -42 20q-23 0 -45 -23q-17 -19 -30 -36q-38 -59 -72 -135q-54 -112 -103 -284q-45 -162 -78 -317q0 -1 0.5 1.5t0.5 1.5
q-11 15 -28 19.5t-35 1.5q-20 1 -44 -19q-11 -8 -19 -17q-8 -7 -15 -18q-6 -13 -14 -29q-7 -14 -9 -27q-4 -17 2 -37q16 -26 47 -28q9 0 17 2q32 14 51 36q11 12 19.5 23t11.5 14q-3 -15 -9.5 -43.5t-14.5 -63.5t-15.5 -71.5t-12.5 -68.5q-6 -18 -9 -40q-12 -56 -18 -118
q-3 -19 -1 -53q5 -32 36 -47q11 -4 20 -4q16 2 32 7.5t28 14.5q26 19 49 48q39 44 69 95q12 15 19 28zM67 152q-5 -4 -16 -12q-14 -10 -22 -13q-6 -2 -8 -2t-5 1q-10 4 -18 14q-3 4 -2.5 10t0.5 11q11 50 49 77q17 14 32 17v0q31 -1 51 -33q0 1 -14 -18q-6 -8 -19 -22
q-13 -15 -28 -30zM163 269q3 15 11.5 48.5t20 75t23.5 85.5t22 82q46 168 99 284q35 74 71 132q13 17 27 31q17 17 30 18v0q12 1 19 -14q8 -9 9 -22q3 -13 2 -26q5 -33 -2 -75q-9 -68 -42 -145q-24 -59 -60 -123q-33 -64 -82 -141q-18 -29 -40 -61.5t-43 -62.5t-38.5 -53
t-26.5 -33z" />
    <glyph glyph-name="e" unicode="e" 
d="M182 135q8 7 24.5 22.5t31.5 35.5q8 12 5 22q-3 9 -12 12q-19 -33 -57 -67q-20 -17 -32.5 -25.5t-28.5 -17.5q-9 -6 -29.5 -12t-38.5 -6q-19 0 -26 5t-13 10q-6 6 -6.5 10t-2.5 9q-4 13 0 28q3 6 4.5 18t8.5 20q3 -8 6 -10t8 -5q10 -8 24 -6q17 1 31 12q17 10 25 29
q8 15 6 31q0 9 -6 17q-8 11 -32 11q-21 1 -39 -12q-20 -16 -34 -36q-7 -12 -12.5 -20.5t-10.5 -20.5q-4 -13 -6.5 -24t-2.5 -24q1 -25 16 -42q16 -16 23.5 -19.5t21.5 -5.5q44 -8 99 23q39 22 55 38zM46 245q28 13 39 2q1 -2 0 -7t-3 -8q-16 -28 -36 -27q-6 0 -11 4.5
t-7 14.5q13 18 18 21z" />
    <glyph glyph-name="f" unicode="f" horiz-adv-x="271" 
d="M189 56q28 38 50 74q9 16 37 64q4 7 5 17q-2 15 -13 17q-26 -44 -49 -82q-12 -18 -29 -43t-21 -31q-27 -36 -56 -82q-33 -48 -76 -95l-7 -9q-15 -13 -30.5 -31.5t-21.5 -24.5q-2 -2 -10.5 -6.5t-14.5 -10.5q-3 10 -9.5 13.5t-14.5 4.5q-7 2 -16.5 1.5t-11.5 -0.5
q37 131 71 256q5 11 11.5 28t6.5 19q24 29 42 55q30 35 53 67q27 34 52 72q6 7 16 21.5t16 22.5q7 9 24.5 35t19.5 33q9 16 9 36q1 21 -7 42v-1q0 20 -18 23q-15 5 -30 -6q-16 -12 -26 -28q-5 -8 -29 -43q-24 -40 -44 -81q-18 -39 -40 -82q-3 -15 -11 -30v-1
q-17 -38 -36 -80q-13 -42 -32 -95v0q-55 -193 -106 -400v-1q-5 -27 -12 -60q-3 -32 -3 -67v-1q2 -10 5 -22q10 -12 27 -16h7q13 0 22 4q11 8 15 14q46 54 58 117q17 64 0 124q22 22 40 37q24 23 45 47v0l10 9q22 24 40 45q23 25 38 51q27 42 54 80zM116 344q-25 -37 -51 -70
t-53 -69q-2 -3 7.5 18.5t17.5 37.5q9 15 14 28q21 41 38 80q23 43 45 83q3 4 13 18.5t14 20.5q11 13 23 23q6 3 8 3q1 -1 2 -5q8 -32 -4 -59q-3 -7 -20 -31.5t-24 -33.5q-5 -8 -15 -21.5t-15 -22.5zM-67 -203q-5 -2 -13 -4t-13 2q-8 6 -9 16h15q7 -3 12.5 -4t7.5 -10z
M-116 -437q-2 -3 -8 -7q-7 -4 -14 -6h2q-6 3 -8 8q-3 8 -5 11q3 64 14 122q13 42 23 84q4 -3 8 -5q12 -3 26 -3q10 3 18 5q13 -50 -2 -106q-15 -57 -54 -103z" />
    <glyph glyph-name="g" unicode="g" horiz-adv-x="196" 
d="M60 -73q12 57 25 123q13 68 16 135q15 31 26 62q8 12 -8 18q-9 2 -15 -8q-1 3 -1.5 3t-1.5 4q-3 5 -5.5 7.5l-6.5 6.5q-4 3 -8 3.5t-8 1.5q-13 3 -30 -6t-23 -18q-12 -15 -20.5 -28.5t-20.5 -34.5q-11 -22 -18 -47.5t-7 -52.5q2 -10 6 -22q8 -10 20 -13q12 -2 18 0
q9 3 17 10q5 5 13 12q13 13 27.5 31.5t19.5 27.5q-1 -12 -7 -44t-11 -57q-11 -57 -21 -107q-9 -40 -22 -81q-86 -58 -163 -132q-81 -78 -147 -166q-66 -93 -114 -193q-8 -24 -17 -53q-7 -31 12 -58q14 -17 40 -17q9 0 17 2q18 5 34 14q18 9 31 16q28 20 59 48q20 18 41 41
q32 43 57 89l2 3q68 105 115 233q31 74 53 153q1 4 2 6q92 63 193 113q22 10 48 20q12 8 6 16q-6 16 -18 7q-25 -11 -47 -22q-45 -22 -96.5 -51.5t-76.5 -47.5q3 9 7.5 25t7.5 28zM10 99q-3 -3 -9 -8q-3 -3 -7 -4q-3 -3 -7 -1l-5 5q-2 5 -3 11q0 43 18 78q20 39 41 63
q14 15 24 14h3q9 -2 12 -11q2 -6 3.5 -13t1.5 -12q0 -6 -4.5 -17t-5.5 -18q-16 -37 -28.5 -51t-33.5 -36zM-42 -311q-48 -125 -111 -229l-3 -1q-26 -45 -58 -89q-18 -20 -38 -39q-28 -25 -55 -44q-12 -6 -27 -15q-12 -8 -28 -11q-7 -2 -18 -2q-10 3 -16 8q-12 16 -7 38
q7 27 15 46q47 99 112 190q64 86 144 161q33 30 72 63t63 50q-6 -21 -19.5 -58t-25.5 -68z" />
    <glyph glyph-name="h" unicode="h" horiz-adv-x="295" 
d="M89 26q8 20 14 38t8 45q3 18 -13 34q-10 17 -31 16q-23 1 -43 -15q-9 -6 -16.5 -14t-11.5 -11q6 22 10 43q3 9 4 22t6 27q66 45 113 104q50 69 72 144q10 24 7 50q-2 19 -13 29q-9 14 -21 18q-9 4 -18.5 1.5t-18.5 -6.5q-17 -4 -34 -25t-29 -48q-10 -24 -20 -44
q-28 -84 -49 -169l-12 -48q-11 -49 -25 -102q-16 -52 -39 -117q1 -4 10 -12l3 -1q8 3 9 5q2 6 3 8q0 6 1 7q12 30 27 51.5t29 40.5q13 16 25 27q16 12 32 11q8 3 13 -6t5 -20q-2 -37 -18 -73q-15 -36 -32 -72q-8 -14 -13.5 -30.5t-12.5 -32.5v0q-10 -25 -19 -51
q-3 -12 -4.5 -29t-1.5 -32q2 -6 2 -11t3 -13q10 -15 27 -21q9 0 15 -2q26 2 41 20q16 16 26 32q7 8 13 16q20 26 35 54q5 8 8 14q13 24 24 45q7 12 11 24.5t10 21.5v1q36 68 61 128q14 30 24 56t16 41q2 4 3 7.5t1 10.5q0 9 -4.5 11t-9.5 2q-7 -13 -22.5 -51t-29.5 -68
q-23 -57 -57 -126q-11 -21 -24 -45q-11 -20 -24 -45q-2 -5 -7 -11q-16 -30 -37 -56q-5 -6 -12 -17q-12 -16 -26 -31q-13 -14 -32 -8v0q-6 3 -7 12l-6 12v0q-1 28 7 52q8 26 16 49q7 15 12 30t13 29q18 38 34 74zM30 259q20 85 48 167q7 18 16 43q10 22 28 40q2 5 13 13
q9 10 24 9q3 1 5 -1q7 -2 12 -9q6 -6 8 -15q2 -20 -6 -41q-20 -68 -64 -128q-20 -26 -48 -54.5t-42 -39.5q2 5 6 16z" />
    <glyph glyph-name="i" unicode="i" horiz-adv-x="216" 
d="M140 102q30 27 56 60q10 13 13 17q1 1 5 6t7 8q7 8 6 19q-2 10 -5.5 11.5t-6.5 5.5q-21 -27 -25 -33q-4 -4 -14 -16q-15 -16 -27 -30q-11 -14 -26 -27q-27 -27 -64 -47q-14 -4 -31 -7q-12 1 -23 10q-15 23 -12 45q8 28 17 55q6 20 11 35t-12 19q-6 0 -14 -11v0
q-3 -16 -11 -32q-3 -8 -9 -28q-5 -20 -11 -36q-2 -30 18 -62v-1q20 -22 46 -21q24 4 43 15h-1q41 18 70 45zM20 244q9 0 12 5q4 5 4 11q0 10 -4 12q-3 7 -12 6q-12 0 -19 -18q7 -16 19 -16z" />
    <glyph glyph-name="j" unicode="j" horiz-adv-x="183" 
d="M199 86q-5 12 -18 6q-21 -9 -45 -21q-42 -21 -88 -47t-73 -45q3 9 5.5 23t5.5 26q14 52 20 97q8 48 11 93q1 14 -12 13q-6 -2 -7.5 -3.5t-3.5 -7.5q-2 -46 -11 -91q-6 -45 -20 -95l-18 -76q-83 -56 -153 -123q-75 -71 -137 -155q-62 -86 -107 -181q-10 -23 -17 -51
q-7 -27 12 -53q16 -15 39 -17q7 0 16 2q19 4 33 13q15 9 26 17q28 20 56 45q19 17 37 36q9 10 19 25t19 29.5t21 33.5q61 101 106 219q29 70 49 146q4 2 6 4q84 57 177 102l44 20q11 8 8 16zM-65 -76q-5 -18 -17.5 -53t-24.5 -65q-11 -28 -28.5 -65.5t-35 -71t-43.5 -81.5
q-23 -42 -54 -80q-16 -20 -35 -38q-25 -23 -53 -40q-21 -18 -51 -26q-8 -2 -17 -1q-8 1 -14 7q-12 16 -8 36q6 24 15 43q45 93 106 177q59 82 133 153q30 28 68 59t59 46zM7 243q5 2 8 4q8 7 5 9q2 5 -4 9q-3 8 -11 3q-9 -2 -11 -13q3 -9 13 -12z" />
    <glyph glyph-name="k" unicode="k" horiz-adv-x="242" 
d="M176 116q-30 -48 -61 -83q-9 -11 -18 -13q-6 0 -9 6q-3 10 -6 24v0q-2 20 -7 36q-3 12 -10 20q-5 5 -11 8q9 4 21.5 16t22.5 24q26 30 36 52t4 32q-4 14 -18 14q-18 2 -57 -42q-8 -9 -19 -25t-22.5 -32t-20 -29.5t-13.5 -19.5q2 5 7.5 24t9.5 34q6 20 12 41v0
q11 11 22 21q97 102 151 224q26 60 47 128q2 8 4 23q3 15 4 31q1 18 -4 35q-3 17 -17 29q-12 12 -31 8q-16 -2 -34 -19q-15 -15 -22 -26q-19 -29 -34 -63q-13 -30 -21 -56q-18 -63 -38 -130q-18 -65 -39 -141q-12 -51 -24 -101q-21 -92 -47 -184q-1 -11 10 -13h3q9 -1 12 6
q11 37 19 73q1 0 3.5 7t5.5 10q9 9 17 23q2 0 4 3q26 9 32 -1q8 -8 10 -13q2 -7 7 -32q1 -2 1 -4q1 -13 9 -28q10 -17 26 -19h6q10 0 21 10t12 12q18 19 34.5 43t30.5 45q17 24 27.5 49t22.5 42q4 7 5 20q-3 7 -4.5 8t-8.5 4q-21 -32 -33 -59t-30 -52zM31 253
q9 38 18.5 76.5t18.5 71.5q20 66 39 128q7 27 19 55q14 32 31 59q3 7 16 19q11 15 25 19h-1q5 0 11 -6q18 -13 13 -39q-2 -26 -10 -53q-19 -66 -44 -126q-14 -30 -37.5 -66.5t-45.5 -68t-38 -52t-15 -17.5zM28 124q4 6 16 21t21 26q27 37 38 44l5 5t6 5q0 -3 -2 -7
q-10 -22 -40 -53q-12 -13 -25 -25.5t-19 -15.5z" />
    <glyph glyph-name="l" unicode="l" horiz-adv-x="178" 
d="M41 44q61 34 88 64q19 22 34 51q11 21 20 35q2 3 5 8.5t1 12.5q-3 11 -13 12q-11 -17 -31 -52q-17 -29 -33 -50q-32 -34 -55 -46q-21 -10 -33 -12q-12 0 -22 9q-3 2 -4 9q0 6 -1 10q2 10 2.5 17.5t2.5 17.5q2 20 6 41q3 13 5 21q3 10 5 25q48 43 84 82q38 41 67 94l16 34
q9 21 15 43q3 8 3 18q3 12 -2 25q-1 12 -12 22q-8 9 -20 11q-27 10 -58 -28q-31 -36 -46 -77q-15 -40 -30 -81l-2 -5q-15 -49 -30 -99q-8 -24 -11 -45q-4 -17 -7 -36q-5 -20 -7 -41q-2 -18 -5 -43q0 -8 2 -18q1 -7 5 -13q20 -21 61 -16zM56 346l2 9q15 40 30 76q14 39 41 70
q16 23 30 22h5q4 -1 7 -7q7 -4 7 -10q4 -6 2 -15q0 -7 -3 -14q-4 -21 -12 -39q-7 -17 -15 -33q-26 -44 -61 -84q-15 -15 -34.5 -35.5t-28.5 -29.5q3 12 12.5 39t17.5 51z" />
    <glyph glyph-name="m" unicode="m" horiz-adv-x="448" 
d="M311 153q0 19 -4 39.5t-22 35.5q-1 0 1.5 -2t2.5 -1q-36 23 -70 2q-43 -27 -73 -88q-2 -2 -1 -2q-6 -2 -8 5.5t-7 16.5q-2 5 -4 9q-10 18 -30.5 28t-36.5 5q-2 -1 -4 -1q-16 -4 -25.5 -14t-16.5 -19q-3 -5 -6 -7q-3 0 1 10q1 3 4 15q3 6 4.5 17t3.5 17q0 5 -1 7.5t-9 4.5
q-8 1 -10 -2.5t-5 -5.5q-1 -9 -3.5 -19t-4.5 -15q-1 -4 -4 -12q-11 -21 3 -39q10 -10 27 -8q3 0 3.5 0.5l3.5 3.5q8 8 14 17q10 16 26 23q28 2 42 -21q2 -3 5 -7q6 -12 16 -24.5t28 -9.5q11 0 15 8l3 6q27 55 63 80q20 13 40 0q10 -10 11 -24t1 -29q0 -21 4 -41t23 -32
q14 -11 29 -10q28 0 57 35q21 26 31 48t25 40q5 5 8 17q0 10 -4 13t-11 3q-14 -13 -32 -45t-39 -59q-7 -10 -20.5 -21t-28.5 1q-12 8 -13.5 21.5t-1.5 29.5z" />
    <glyph glyph-name="n" unicode="n" horiz-adv-x="369" 
d="M258 106q-8 -10 -23 -19q-6 -3 -16.5 -11.5t-18.5 -8.5q-6 -1 -9 0t-11 8q-5 9 -6 20q0 11 1 23v9q3 19 -1 36q-2 19 -15 33q-13 16 -32 21q-6 2 -17 2t-21 -2q-16 -3 -27.5 -10.5t-23.5 -19.5q-11 -11 -14.5 -17t-6.5 -11q-7 -11 -13 -20q-2 -3 -2 -6t-2 -2q-2 2 -1 8
q2 6 5.5 25.5t6.5 26.5q1 5 2 8.5t7 18.5q2 11 -13 13q-10 -1 -12 -9l-5 -15l-5 -14q-3 -9 -7.5 -27.5t-6.5 -25.5q-1 -8 1 -17t6 -15q5 -6 7.5 -7t9.5 -1q9 0 17 4q6 3 6.5 5t4.5 8q6 9 14 24q10 15 20 27q9 11 16.5 15.5t19.5 7.5q28 5 44 -14q8 -7 10 -21t0 -27v-10
q2 -12 0 -27q2 -18 10 -34q19 -22 46 -19q9 0 22.5 8t22.5 15q14 11 27 22q11 12 25 26q8 9 14 15l60 68q7 11 6 20q-1 13 -14 13l-72 -82l-13 -13q-9 -9 -23 -25z" />
    <glyph glyph-name="o" unicode="o" horiz-adv-x="195" 
d="M139 155q19 1 38 15q20 17 23 24q6 11 5 19q0 3 -5 8t-8 5q-27 -46 -65 -44q-10 4 -17 10q-9 8 -14 18q-2 4 -3 7q-3 7 -11 15q-4 2 -6.5 4t-8.5 4q-13 4 -24 -1q-13 -4 -10 -18q1 -12 14 -18q14 -5 28 -4q3 -3 0 -9q0 -22 -10 -45q-9 -21 -25 -39q-7 -8 -20 -16
q-9 -5 -20 -1q-7 3 -11 12q-2 7 -3.5 11.5t-1.5 12.5q2 23 10 44q6 10 10 19q4 10 11 21q6 13 -4 18q-9 5 -16 -4q-15 -22 -25 -47t-10 -51q0 -9 2 -19t4 -17q9 -18 25 -24q9 -3 18 -4q16 1 28 10q15 10 22 19q19 21 28 47q9 19 10 28q2 -3 8.5 -4.5t12.5 -3.5q3 -1 10 -2
t11 0zM57 224v0q-3 -5 -1 -5q2 1 5 -1q3 2 4 1q-1 1 -2 3q-2 0 -4 2h-2z" />
    <glyph glyph-name="p" unicode="p" horiz-adv-x="325" 
d="M225 49q9 11 24.5 26t30.5 35q15 19 29.5 45t20.5 39l4.5 10.5t1.5 7.5q0 14 -15 14q-6 -11 -14.5 -27t-17.5 -30q-9 -17 -14.5 -24.5t-12.5 -18.5q-16 -20 -30 -35q-6 -9 -12.5 -14t-7.5 -8l-33 -30q-6 -6 -14 -12.5t-10 -7.5q4 5 8 14q5 15 8 35q7 20 -4 37
q-9 19 -34 21q-21 4 -42 -3q-40 -15 -74 -46q-27 -22 -47 -44l-10 -12l18 57l40 137q4 15 -9 16q-9 5 -14 -7l-42 -138l-100 -323q-6 -21 -16 -41q-9 -28 -29 -58q-16 -27 -33 -57q-30 -55 -60 -117q-32 -60 -40 -129q0 -8 2 -21q3 -12 10 -22q11 -8 22 -6v0q17 2 25 11
q9 12 9 15q27 56 42 114l93 302q12 34 24 66q21 58 42 115q14 29 31 53q29 -12 57 -20q37 -6 66 4q33 8 55 21q25 13 72 56zM-241 -542q-8 -24 -18 -56q-7 -27 -20 -54q-5 -14 -12 -12v0q-3 0 -3.5 3.5t-2.5 6.5q-3 8 -2 13q7 64 36 120q31 61 61 115q9 13 16.5 31.5
t7.5 19.5zM38 -6q-26 8 -48 17q20 29 44 50q32 25 67 37q13 8 26 5q12 -1 18 -10q3 -9 0 -20q-1 -21 -9 -39q-8 -15 -22 -27q-12 -9 -33 -14q-21 -2 -43 1z" />
    <glyph glyph-name="q" unicode="q" horiz-adv-x="285" 
d="M163 31q55 68 78 96q23 30 29 39q12 16 20 27q7 11 6 21q0 16 -15 11q-5 -7 -12 -17q-5 -7 -9 -12q-6 -9 -113 -147q-24 -20 -48 -43q-22 -21 -48 -41h-2q-2 -3 -5 -6q2 5 4 13q4 14 9 32q9 18 17 42q18 46 33 92q4 11 11 27t13 31t9.5 26t2.5 11q9 11 11 21q0 2 0.5 8
t-2.5 11q-8 12 -17 7q-8 -1 -16 -15q-1 0 -1.5 -5t-0.5 -6q-17 15 -39 17q-20 3 -42 -8q-18 -5 -34 -25q-4 -6 -8 -16q-6 -13 -6 -32q3 -18 17 -31q9 -4 20 -5q15 -1 25 4q12 4 27 13.5t24 16.5q-2 -9 -8.5 -24t-12.5 -31q-14 -40 -29 -79q-9 -22 -15 -44q-6 -18 -11 -32
q-3 -6 -6 -15q-21 11 -34 9q-11 0 -20 -8q-7 -10 -1 -21l4 -6q5 -5 14 -9q6 -2 12 -4.5t11 -2.5q-3 -12 -5 -16l-9 -30q-19 -58 -40 -120q-11 -39 -20 -81v-2q0 -13 -3 -30q-2 -20 16 -37q8 -4 16 -5q8 1 15 5l10 5q9 8 14 16q6 8 10 14q19 38 25 67q3 8 3 14q1 6 4 10
q7 33 15 65q6 34 7 66q3 24 -3 43q-5 19 -12 29q6 5 12 9h3q54 40 100 88zM45 242q6 3 15.5 5t12.5 1q13 -2 22 -7q9 -6 13 -14q-14 -15 -26.5 -24.5t-39.5 -21.5q-17 -5 -25 0q-5 4 -5 12q0 11 3 19q4 5 7 10q10 14 23 20zM16 -61q-11 5 -15 6q-9 4 -9 6q19 -3 24 -12z
M39 -138q-1 -31 -7 -63q-8 -29 -15 -62q-1 -9 -7 -24q-5 -26 -22 -58q-6 -13 -18 -24q-8 -7 -13 -5q-6 6 -6 16q1 14 3 26v2q6 40 20 76q22 66 40 124l9 26q5 14 9 28q2 -12 2.5 -15.5t1.5 -16.5q4 -22 3 -30z" />
    <glyph glyph-name="r" unicode="r" horiz-adv-x="435" 
d="M440 194q4 10 6 19q-1 15 -14 13l-239 -370q-11 -14 -25 -28q-12 -12 -27 -11q-21 4 -28 26q-8 29 -6 48q9 53 25 104q19 51 38 101q14 34 24 65q12 35 22 68q12 39 7 79q-4 46 -43 64q-9 3 -18 4t-16 2h-11.5h-17.5h-5.5h-4.5q4 21 -1 32q-4 10 -9 18t-16 14q-6 5 -16 5
t-18 -5q-17 -5 -22 -28q-3 -11 3 -26q8 -10 15 -19q4 -3 11 -5.5t9 -2.5q8 -6 6 -9q-3 -8 -10 -19q-4 -6 -9 -16t-11 -19q-4 -6 -16.5 -28t-15.5 -26q-3 -5 -7 -12.5t-5 -8.5q-5 -7 -6 -17q4 -10 11 -17q4 4 14 18q8 11 16 24q8 15 16.5 29.5t14.5 23.5q25 38 34 60q5 4 6 8
h17q15 1 26 0q16 0 26 -5q26 -10 27 -43q3 -34 -7 -69q-10 -32 -21 -65q-11 -32 -25 -66q-21 -48 -38 -101q-16 -52 -25 -110q-1 -34 10 -68q15 -30 48 -36l1 1q28 1 44 18q8 8 16 17.5t14 16.5zM81 380q-11 2 -21 8q-6 5 -8 9q0 3 -2 7.5t3 9.5q5 9 8 7q7 2 10 -1
q9 -6 11 -15q4 -9 -1 -25z" />
    <glyph glyph-name="s" unicode="s" horiz-adv-x="216" 
d="M143 129q-15 -17 -41 -33q-21 -12 -49 -23q1 4 1 10q2 13 0 21q-2 20 -7 41q-6 21 -14 38l-6 12q-1 5 -3 9q-3 11 -4 16q0 6 6 9q4 3 12.5 6.5t11.5 4.5q15 6 27 13q9 6 4 18q-9 9 -17 4l-12 -6q-3 -1 -10.5 -4.5t-10.5 -4.5q-16 -4 -25 -13q-7 -7 -12 -22q0 -3 -1 -12
q2 -8 2 -11q3 -6 7 -19q3 -7 5 -11q7 -15 14 -36q7 -16 7 -35q3 -17 -6 -36q-12 -5 -30 -9q-8 0 -18 -5q-7 -3 -14 -12q-4 -9 -1 -21q4 -4 12 -11q11 -3 15 -4h11q17 4 29 18q14 11 17 23q73 22 110 60q21 20 36 41q14 17 32 49q5 10 5 19t-4.5 11t-7.5 6q-34 -61 -71 -101z
M10 35q-3 1 -8.5 0t-9.5 -2q-3 1 -8 -5q0 -2 9 -3q12 4 17 10z" />
    <glyph glyph-name="t" unicode="t" horiz-adv-x="131" 
d="M0 143q8 39 18 74q5 18 11 43.5t14 50.5q18 47 28 90l60 -4h5q22 -3 41 2q16 4 26 13q5 5 10.5 11.5t6.5 12.5q1 8 0 10t-9 4q-11 2 -16 -9q-2 -7 -10 -11q-7 -5 -14 -7q-19 -4 -39 -1l-54 3q15 45 24 74q4 13 -8 16q-9 5 -15 -8q-11 -31 -27 -80l-103 7q-12 -1 -14 -12
q1 -12 13 -12l97 -6q-11 -40 -25 -85q-8 -25 -11.5 -41.5t-8.5 -33.5q-10 -34 -21 -79q-9 -43 -12 -84q-1 -43 15 -64q6 -8 15 -12t17 -4q18 -1 28 9.5t23 26.5q12 18 16.5 29.5t9.5 21.5q15 32 23 52q5 16 12.5 32.5t10.5 22.5q3 12 4 18q0 7 -2 9.5t-11 4.5
q-10 -17 -19.5 -37.5t-15.5 -37.5q-6 -13 -9.5 -24.5t-12.5 -27.5q-7 -17 -23 -44q-10 -12 -16.5 -19.5t-16.5 -9.5q-9 -1 -13 6q-10 11 -10 41q0 32 8 69z" />
    <glyph glyph-name="u" unicode="u" horiz-adv-x="255" 
d="M177 157q-9 -4 -20 -4h-4q-9 3 -10 12q-5 13 -2 27t7 27q0 9 -1.5 12t-8.5 5q-10 5 -23 -8q-6 -9 -6 -8t-5 -9q-6 -9 -10 -17.5t-10 -18.5q-5 -11 -15 -24q-3 -5 -8.5 -12.5t-8.5 -11.5q-2 -3 -8.5 -9.5l-9.5 -9.5q-4 -4 -13 -10q-5 -2 -7 -2.5t-6 -0.5q-6 1 -12 5
q-3 2 -4.5 4t-4.5 9q-5 13 2 28q3 6 6 17t7 20q8 18 17 33q10 14 -4 20q-14 3 -20 -6q-9 -17 -18 -35q-7 -16 -15 -38q-6 -15 -5 -30.5t5 -23.5q8 -16 16 -20q16 -10 31 -11q18 3 26 8q14 7 18 13q6 4 11 10t8 9q4 4 10 12t9 13q13 16 16 25q4 9 7 17v-9t2 -8
q1 -14 11.5 -21.5t19.5 -10.5q5 -1 10 -1q15 0 28 5q8 3 15.5 8t10.5 8q15 13 23 21l8.5 8.5l5.5 5.5t6.5 7t5.5 7q4 8 7 18q-3 12 -14 15q-2 -2 -8 -10t-9 -11t-9.5 -10t-12.5 -13t-18.5 -15t-18.5 -11z" />
    <glyph glyph-name="v" unicode="v" horiz-adv-x="231" 
d="M173 148q22 10 43 28q10 9 19 17q6 8 6 20q-1 9 -12 15q-9 -11 -16.5 -19.5t-10.5 -11.5q-5 -5 -12 -10t-11 -8q-11 -7 -21 -10q-4 -3 -11 -4.5t-10 -1.5q1 7 0 19q1 8 -7 16q-6 8 -14 11q-13 5 -24 -5q-8 -10 -8 -20q2 -16 10 -26q4 -4 6 -5q-20 -27 -46 -51
q-12 -10 -30 -18q-14 -6 -23 3q-3 5 -4 15q-1 12 1 20q5 24 10 45q3 12 6.5 27t5.5 24q3 13 -13 14q-4 -2 -7 -2t-6 -8q-4 -24 -10 -49q-6 -21 -12 -47q-2 -11 -2 -28q1 -11 5.5 -17.5t8.5 -12.5q14 -12 29 -14q16 3 31 10q16 10 27 18q28 26 49 53q4 -3 12.5 -0.5t15.5 4.5
q12 3 25 9zM114 184q-4 3 -7 0q-1 -4 1 -5q2 -5 6 -4q3 6 0 9z" />
    <glyph glyph-name="w" unicode="w" horiz-adv-x="292" 
d="M256 193q-15 -15 -34 -26q-13 -8 -32 -11q-16 -3 -34 1q-13 2 -14 -8q-16 -64 -36 -115q-18 -49 -38 -94q-6 -13 -21 -30q-3 -4 -6 -6q-2 0 -4 2t-4 9t-2 12q-3 22 6 66q9 45 22 96q5 14 8 27q5 14 -8 19q-4 1 -10 -2t-7 -8q-10 -19 -25 -38l-30 -44q-9 -11 -19 -26
q-4 -7 -8 -9q-3 -2 -10 -3q-3 4 -2.5 4t-1.5 6q0 7 2 15l5 15q23 64 46 122q8 15 11 26q4 9 8 17q4 16 -7 18q-8 6 -16 -4q-4 -6 -9 -19q-4 -11 -10 -27q-24 -59 -47 -124q-3 -8 -6 -17q-1 -6 -1 -13v-12q2 -6 4 -17q6 -13 22 -19q14 -2 27 12q10 8 15 15q10 13 19 25
t17 29.5t10 20.5q-21 -64 -24 -83q-10 -46 -6 -71q0 -8 4 -19.5t5 -13.5q3 -3 5 -7q8 -6 21 -6q12 2 24 15q17 19 24 34q23 45 41 94q9 24 17 49.5t17 56.5q16 -5 34.5 0.5t38.5 17.5q17 9 35 24l15 15l3.5 3.5l5.5 5.5q7 9 8 17q0 3 -3.5 9.5t-11.5 6.5q-13 -16 -33 -33z
" />
    <glyph glyph-name="x" unicode="x" horiz-adv-x="322" 
d="M272 152q-9 -16 -19 -32q-5 -6 -15 -24q-11 -17 -21 -27q-9 -11 -14.5 -16.5l-12.5 -12.5q-3 -3 -11 -9.5t-19 0.5q-4 2 -5.5 7t-2.5 11q-2 5 -6 20q-4 14 -4 17q-1 9 -1.5 14t-1.5 14q-2 4 -4 32q33 42 72 79q11 11 23 17q4 2 9 0q9 -2 11.5 10t-6.5 15q-11 4 -24 -1
q-14 -6 -31 -20q-16 -16 -38 -39q-15 -15 -18 -19q-1 10 -1 12q-2 21 -12 39q-16 27 -45 28q-29 2 -58 -20q-14 -10 -15.5 -15t-5.5 -8q-3 -3 -4.5 -10t-1.5 -11q2 -8 4 -9t7 -6q6 9 13.5 18.5t20.5 18.5q20 18 39 16q6 0 13 -6q7 -5 10 -11q2 -4 3 -7t4 -10q2 -9 3 -22
t1 -19q1 -6 0 -11q-20 -24 -43 -58.5t-32 -47.5q-16 -20 -25 -28q-10 -9 -13.5 -8.5t-12.5 0.5q-9 -3 -7.5 -14.5t10.5 -11.5q16 1 23 3.5t16 7.5q18 13 34 41q14 21 34 50q14 19 18 25q2 -7 6 -30q2 -16 10 -46q4 -16 7 -18q3 -9 12 -13t12 -4q15 -4 27 1.5t18 10.5
q9 8 15 14.5t18 18.5q4 6 11.5 14.5t12.5 17.5q10 17 16 24q3 8 9 17q6 11 9 15q9 12 14 23q3 3 10 18q9 15 10 17q5 10 6 18q1 9 -12 15q-5 -7 -17 -22q-9 -13 -12 -19q-6 -14 -20 -34z" />
    <glyph glyph-name="y" unicode="y" horiz-adv-x="225" 
d="M255 -42q-4 15 -19 5q-24 -10 -47 -22q-45 -19 -97 -51q-22 -12 -40 -23t-23 -16q0 1 3.5 11.5l5.5 16.5q20 57 38 113q21 56 36 106q43 50 54 113q4 17 -13 21q-1 4 -15 -1q-4 -3 -9 -10q-16 -39 -44 -113q-8 -11 -17.5 -17.5t-21.5 -14.5q-9 -5 -12.5 -5t-12.5 -2
q-7 3 -9.5 3t-8.5 8q-11 21 -10 39q0 23 8 47q8 25 16 44q9 12 -3 18q-10 5 -19 -4q-11 -24 -21 -52q-7 -27 -8 -55q2 -26 16 -52q10 -15 17 -17.5t18 -3.5q10 -2 16 -1t15 6q18 7 26 14v1q-3 -4 -10 -24q-9 -28 -18 -54q-15 -50 -32 -101q-10 -27 -19 -58
q-84 -59 -160 -130q-74 -73 -140 -157q-64 -88 -110 -187q-10 -23 -19 -53q-6 -29 14 -56q16 -13 41 -18q8 2 15 4q22 6 34 13q18 7 27 14q31 19 54 42q23 21 44 44q17 22 31 44q16 25 26 43l2 3q64 106 110 225q7 22 20 60q14 40 32 93h1q87 61 184 107q27 12 48 23
q18 9 6 17zM146 209q-4 2 -7 -10q-3 -9 -8 -20q-3 -10 -7 -17q-4 -10 -1 -10t6 10q2 5 3 7l4 8t3.5 8.5t2.5 7.5q1 3 3.5 9t0.5 7zM-61 -330q-44 -118 -107 -223l-2 -3q-22 -44 -55 -84q-19 -20 -40 -39q-27 -22 -54 -43q-9 -4 -23 -12q-10 -8 -26 -11q-8 -1 -18 -1l-14 8
q-13 15 -8 35q8 24 15 44q46 99 110 180q63 85 136 159q33 32 76 65q18 15 32.5 27t18.5 15q-2 -6 -8 -23q-8 -24 -14 -43q-11 -33 -19 -51z" />
    <glyph glyph-name="z" unicode="z" horiz-adv-x="247" 
d="M105 81q-6 27 -25 47q-4 3 -9.5 7.5t-11.5 4.5l9 9q26 26 45 55q28 34 39 68q5 14 2 26q-4 14 -17 21q-11 9 -29 5q-5 -2 -19 -9q-16 -10 -27.5 -19t-20.5 -19q-6 -6 -20.5 -22t-15.5 -18q-3 -3 -10 -14q-5 -5 -5 -16q4 -14 12 -17q16 25 35 46q10 14 19 22q27 26 48 39
q6 3 16 1q4 -2 8 -6q2 -6 -1 -12q-11 -34 -33 -61q-20 -29 -47 -57q-5 -5 -23 -24q-4 -2 -10 -9q-5 -5 -6 -15q4 -5 12 -10q2 -1 12 4q7 6 14 7q10 3 15 -4q17 -15 21 -41q8 -24 3 -58q-3 -31 -11 -66q-5 -33 -18 -63q-72 -51 -135 -108q-87 -78 -164 -170
q-73 -92 -127 -196q-8 -20 -21 -44q-11 -25 -15 -53q-2 -12 1 -30t16 -31q17 -14 38 -14q23 1 50 13q85 40 138 112q57 76 93 146q84 158 130 299q4 15 7 25q5 18 10 35q117 80 249 138q6 4 7.5 7t-1.5 9q-2 15 -16 6q-60 -26 -125 -61t-101 -61q2 9 5 23t6 27q8 35 8 67
q4 32 -4 59zM-19 -329q-29 -74 -73 -152q-36 -67 -90 -139q-51 -67 -128 -108q-11 -2 -33 -9q-15 -4 -27 5q-6 9 -10 21q-2 14 0 19q4 26 13 47q13 23 21 43q75 134 175 249q97 113 218 199q-7 -16 -12 -32q-21 -70 -54 -143z" />
    <glyph glyph-name="braceleft" unicode="{" horiz-adv-x="250" 
d="M251 824q-38 15 -62 -11q-17 -23 -19 -46l-50 -218q-2 -7 -5 -19.5t-9 -24.5t-15.5 -20.5t-22.5 -6.5q-9 0 -15 -10q0 -3 -0.5 -4.5t2.5 -4.5q0 -4 -1.5 -17.5t-4 -29.5t-5 -32.5t-3.5 -25.5q-3 -20 -3 -23l-14 -141q-1 -8 -5 -26q-3 -24 -7.5 -55t-4.5 -62.5t4.5 -58.5
t19.5 -45q9 -13 23 -18q8 -5 21 -5q21 0 35 17q12 17 7 34q0 15 -15 10q-11 -1 -10 -15q2 -6 -4 -12q-3 -2 -5.5 -4.5t-5.5 -2.5q-15 3 -24 13q-12 15 -16 39.5t-3.5 53t5 57t7.5 49.5q2 18 4 27l16 143q0 5 2 21q7 48 10.5 69.5t3.5 30.5q12 0 22 9t19 23q10 15 15.5 31.5
t8.5 29.5l49 219q4 18 14 33q6 7 15.5 6.5t17.5 -2.5q7 -3 13 -9.5t5 -16.5q-1 -13 14 -15q10 -2 14 12q0 16 -10 31t-28 23z" />
    <glyph glyph-name="bar" unicode="|" horiz-adv-x="204" 
d="M25 -31q5 0 10.5 3t5.5 8l142 832q2 7 -2 11.5t-9 4.5q-8 3 -10.5 0t-5.5 -10l-143 -835q-1 -10 12 -14z" />
    <glyph glyph-name="braceright" unicode="}" horiz-adv-x="337" 
d="M57 -68q13 0 27 7q18 10 34 33.5t29 51.5t23.5 58t17.5 53q4 17 8 26l47 136q2 5 6 21q3 9 7.5 25.5t10.5 32t10.5 28.5t7.5 16q3 2 3 8q4 9 -7 14q-13 3 -18.5 14.5t-6.5 25.5t1 27t4 20l48 221q7 22 3 49q-11 34 -53 37q-20 0 -35 -9t-20 -24q-6 -11 6 -16q14 -4 18 6
t13 13.5t18 3.5q7 -1 15.5 -5.5t11.5 -13.5t1 -18.5t-4 -17.5l-48 -220q-3 -14 -5 -31t1 -35q5 -33 25 -44q-4 -8 -11.5 -29.5t-21.5 -69.5q-4 -16 -6 -20l-47 -136q-4 -10 -8 -27q-7 -21 -15.5 -48.5t-20 -54t-25 -47.5t-30.5 -30q-13 -5 -27 0q-8 3 -9 11t4 13q6 6 3.5 10
t-5.5 7q-9 8 -19 0q-14 -15 -10 -36q6 -22 27 -30q12 -5 22 -6z" />
    <glyph glyph-name="asciitilde" unicode="~" 
d="M178 689q0 10 -9 18q-5 3 -13 3l-3 -3h-1q-3 -2 -6.5 -3.5t-1.5 -6.5q2 -9 13 -7q-1 1 0 0v-1q-1 -4 -5 -6q-3 -1 -7 -1q-10 0 -20 6q-4 0 -8 2v0q-8 10 -17 15q-8 3 -16 3q-12 0 -22 -5t-15 -17q-1 -6 1 -13q4 -7 12 -9l-1 1q1 -5 4 -5q5 1 7 8v1q0 1 2 2.5t1 3.5
q0 1 -4 2.5t-5 1.5h1h1q2 3 5 4q7 4 13 5q5 0 9 -3q3 -2 14 -8q3 -2 5 -4q16 -9 33 -9v0q9 0 16 3v0q15 8 17 22z" />
    <glyph glyph-name="cent" unicode="&#xa2;" horiz-adv-x="245" 
d="M219 217q-13 33 -46 51q-6 3 -7.5 5t-6.5 4q5 19 7 28.5t3 15.5t2.5 13t6.5 22q0 16 -11 18q-6 0 -9.5 -1.5t-4.5 -9.5q-5 -15 -7 -22.5t-3.5 -14t-4 -16.5l-7.5 -30q-14 4 -28 0q-17 -3 -33.5 -13t-27.5 -24q-12 -14 -17.5 -32t-5.5 -34q0 -18 5.5 -36.5t17.5 -29.5
q9 -12 18 -20.5t23 -9.5q-15 -60 -19.5 -79.5t-4.5 -23.5q9 -21 23 -6q0 1 3 8t15 57q4 17 5.5 16.5t7.5 23.5q21 -2 39.5 6.5t35.5 18.5q11 10 2 21q-6 6 -8.5 7t-8.5 -5q-12 -7 -25.5 -15.5t-29.5 -5.5q2 10 5 20q7 30 14 63t16 63q16 -5 26 -18t16 -28q6 -6 10 -8t10 4
t8 8.5t-4 8.5zM97 128l-8 -22q-23 3 -33.5 24.5t-10.5 45.5q0 27 17.5 48.5t44.5 27.5q11 4 21 2q-16 -64 -31 -126z" />
    <glyph glyph-name="sterling" unicode="&#xa3;" horiz-adv-x="495" 
d="M232 107q2 21 -1 42q20 3 40 5q17 0 13 15q0 17 -16 12l-42 -4q-7 26 -28 77q24 3 36.5 5t36.5 3q14 0 14 14t-14 14q-46 -1 -91 -6q-8 14 -12 29q-30 73 -23 145.5t49 120.5q23 27 60 41t76 11q66 -7 95 -56q22 -39 17 -82.5t-14 -67.5q-14 -41 -33 -77q-17 -38 -33 -77
q-3 -12 8 -18q3 -3 9 0t9 7q14 38 33 74q19 38 35 81q9 29 15 79t-21 96q-18 29 -49 47t-69 21q-46 4 -90 -12.5t-71 -47.5q-48 -53 -56 -133t25 -161q5 -12 10 -23q-61 -10 -120 -29q-4 -3 -7.5 -9t-0.5 -12q2 -3 7 -5t9 -2q15 4 36 9t41 8.5t49 9.5l18 -38t14 -38
q-83 -9 -165 -27q-4 -3 -8.5 -8t-1.5 -11q5 -9 15 -9q82 18 166 27q4 -19 2 -38q-6 -62 -56.5 -105t-110.5 -80q-6 -3 -7 -9.5t2 -12.5q8 -5 15 -4q36 14 76.5 13t81.5 -4q53 -3 105 -1t96 33q3 3 4 10.5t-2 10.5q-3 4 -9.5 5t-9.5 -2q-39 -28 -85.5 -29.5t-97.5 1.5
q-27 3 -64 1.5t-40 -2.5q3 3 22.5 20.5t42.5 41.5t42.5 53.5t22.5 57.5z" />
    <glyph glyph-name="yen" unicode="&#xa5;" horiz-adv-x="283" 
d="M210 228l-76 13q2 9 4 17l77 -13q12 -1 16 11q1 19 -13 17l-62 5q2 0 8 5q6 4 7.5 5.5l7.5 7.5q13 14 27 29q15 17 30 31q6 8 27 33q7 13 -1 20q-3 2 -5.5 3.5t-11.5 -4.5q-3 -2 -16 -15q-7 -11 -19 -24q-14 -13 -27 -28q-7 -7 -12 -13.5t-11 -12.5q-5 -5 -9 -7t-8 -5
q-9 -7 -16 -6q-9 4 -14 15q-5 12 -7 20q-16 52 -12 105q0 5 -5 9t-10 4q-7 0 -8.5 -2.5t-4.5 -8.5q-1 -59 14 -115q2 -10 12 -27q4 -5 6 -6l-66 13q-12 2 -15 -9q-5 -13 9 -18l84 -15l-4 -16l-87 15q-11 1 -15 -9q-6 -13 9 -18l87 -14q-3 -16 -7 -32q-8 -52 -20 -103
q-5 -13 11 -18q6 0 9.5 1t6.5 8q10 52 19 105q3 17 7 34l78 -12q6 0 9.5 1t6.5 8q0 7 -1.5 10t-8.5 6z" />
    <glyph glyph-name="dieresis" unicode="&#xa8;" horiz-adv-x="194" 
d="M60 624q8 0 15 6.5t7 15.5t-7 15t-15 6q-9 0 -16 -6t-7 -15q0 -10 7 -16t16 -6zM122 624q8 0 15 6.5t7 15.5t-7 15t-15 6q-9 0 -15.5 -6t-6.5 -15t6.5 -15.5t15.5 -6.5z" />
    <glyph glyph-name="degree" unicode="&#xb0;" horiz-adv-x="171" 
d="M116 672q0 16 -12.5 28t-28.5 12q-17 0 -29.5 -12t-12.5 -28q0 -17 12.5 -31t29.5 -14q16 0 28.5 14t12.5 31zM75 656q-15 0 -16 16q1 16 16 16t16 -16q-1 -16 -16 -16z" />
    <glyph glyph-name="acute" unicode="&#xb4;" horiz-adv-x="224" 
d="M132 682q-24 -15 -54 -24q-4 -2 -8 -6q-3 -4 -3 -13q1 -2 2 -5t6 -4q10 -1 11 0q37 8 62 27q5 5 5.5 6.5t-0.5 10.5q-9 13 -13 9q-4 1 -8 -1z" />
    <glyph glyph-name="cedilla" unicode="&#xb8;" horiz-adv-x="187" 
d="M140 -90q-2 9 -8 24q-8 18 -24 26q-8 4 -18 5q-4 -1 -9 4v10q1 9 2 17q0 5 -4 11t-10 6t-10.5 -5.5t-4.5 -9.5l-2 -20q-2 -20 -3 -41v-6q3 -3 4 -5t7 -4q8 -2 12 4l3 3q5 7 14 7q3 0 6 -2q9 -3 11 -13.5t4 -14.5q2 -20 -6 -34q-10 -12 -24 -14q-8 0 -12 8l-1 3
q-5 11 -17 11q-6 -3 -10 -7t-2 -10q1 -4 1 -4.5t2 -3.5q3 -13 17 -19q10 -5 23 -6q14 1 27 8t22 20q14 22 10 52z" />
    <glyph glyph-name="questiondown" unicode="&#xbf;" horiz-adv-x="374" 
d="M217.652 590.877q-18.7832 -74.2764 -49.5186 -145.565t-64.8857 -137.882q-19.6367 -40.9805 -40.5537 -82.3887q-20.917 -41.4072 -38.8457 -84.9492q-17.0752 -37.5645 -20.4902 -82.8145q0 -25.6123 8.53711 -46.957q8.53809 -21.3438 24.7588 -33.2959
q28.1748 -19.6367 60.6172 -10.2451q32.4434 9.39062 52.0801 21.3438q25.6123 16.2217 45.249 43.1152q19.6357 26.8926 10.2451 58.4824q-0.853516 11.9521 -11.9531 8.53711q-3.41504 0 -5.97656 -4.69531q-2.56055 -4.69531 -1.70703 -8.96484
q5.12305 -23.0508 -11.0986 -44.3955q-16.2217 -21.3438 -35.8584 -34.1504q-14.5137 -9.3916 -40.127 -17.9287q-25.6123 -8.53711 -48.6641 6.83008q-10.2451 8.53711 -17.502 26.04q-7.25684 17.502 -7.25684 36.2842q0 19.6367 6.83008 39.7002t12.8066 35.4307
q36.7119 83.6689 76.8379 164.775q34.1504 69.1553 67.0205 140.871q32.8691 71.7158 51.6523 147.7q0 5.97656 -3.8418 9.3916t-6.40332 3.41504t-7.25684 -2.56152t-4.69531 -5.12305zM246.68 707.843q-6.83008 -1.70801 -11.0986 -3.41504
q-5.12305 -5.97656 -5.12305 -11.0996q0.854492 -7.68359 4.26855 -9.39062q3.41602 -5.12305 10.2461 -5.12305q5.12207 -0.853516 6.83008 -0.426758q1.70703 0.426758 6.83008 5.5498q1.70703 2.56055 4.26855 9.39062q-0.854492 3.41602 -0.854492 5.12305
t-4.26855 4.26855q-2.56152 4.26855 -11.0986 5.12305z" />
    <glyph glyph-name="Agrave" unicode="&#xc0;" horiz-adv-x="921" 
d="M970 460q0 12 -9 22.5t-19 18.5q-21 11 -39 12q-17 2 -39 -2l-16 -4q41 67 88 130q13 15 1 24q-9 15 -24 10q-91 -20 -167 -76q-74 -51 -134 -123q-24 -1 -51 -8q-21 -4 -48 -5q-19 3 -32 16q-5 14 -3 28q2 7 7 12t8 7q5 3 6 4.5t4 8.5q-5 19 -18 11q-22 -10 -32 -37
q-9 -25 6 -50q21 -22 51 -26q30 3 52 4q6 0 13.5 2t9.5 3q-9 -11 -31.5 -39.5t-37.5 -50.5q-16 -24 -34 -47q-67 -97 -146 -189q-72 -89 -175 -142q-9 -2 -20 -9q-29 -15 -62 -29q-30 -10 -48 7q-14 20 -4 40q16 29 56 55q44 30 80 29q15 5 16.5 11t-5.5 8q2 9 -1.5 8.5
t-12.5 -2.5q-46 -1 -91 -32q-47 -30 -66 -68q-16 -38 10 -67t67 -15q38 16 72 30q10 8 18 11q110 56 187 147q77 94 146 189q20 27 36 51q40 60 86 111q87 17 174 27q-151 -254 -239 -542q-8 -25 -5 -52q3 -30 29 -43q10 -1 15 -1q27 0 54 24q71 61 108 140q5 9 6 13.5
t-10 6.5q-5 8 -18 -6q-37 -72 -105 -133q-23 -21 -40 -16q-16 7 -15 26q6 29 6 35q89 291 247 550q22 3 36 5q20 3 35 4q14 0 25 -9q16 -8 16 -21q2 -9 -12 -20q-1 -1 -10 -8.5t-11 -8.5q-2 0 -4.5 -3.5t-2.5 -13.5q6 -7 6 -8q9 -1 13 2q1 0 12.5 9.5t13.5 10.5q25 22 21 43
zM651 478l16.5 16.5t29.5 27.5t35.5 30.5t34.5 26.5q17 12 42 24.5t49 23t58 23.5q-25 -33 -50.5 -72t-49.5 -76q-21 -3 -46.5 -6.5t-49.5 -7t-43.5 -6.5t-25.5 -4zM949 726q-3 5 -9 6v0q-25 13 -45 35q-5 5 -10 5q-5 2 -9 -6v0q-8 -6 -1 -18v0q23 -24 54 -40h1v-3
q4 -2 6 -1q8 4 12 8q6 7 1 14z" />
    <glyph glyph-name="Aacute" unicode="&#xc1;" horiz-adv-x="914" 
d="M985 460q0 12 -9 22.5t-19 18.5q-21 11 -39 12q-17 2 -39 -2l-16 -4q41 67 88 130q13 15 1 24q-9 15 -24 10q-91 -20 -167 -76q-74 -51 -134 -123q-24 -1 -51 -8q-21 -4 -48 -5q-19 3 -32 16q-5 14 -3 28q2 7 7 12t8 7q5 3 6 4.5t4 8.5q-5 19 -18 11q-22 -10 -32 -37
q-9 -25 6 -50q21 -22 51 -26q30 3 52 4q6 0 13.5 2t9.5 3q-9 -11 -31.5 -39.5t-37.5 -50.5q-16 -24 -34 -47q-67 -97 -146 -189q-72 -89 -176 -144q-5 -3 -36 -17t-47 -21q-29 -9 -46 9q-14 20 -4 40q16 29 56 55q43 30 79 29q5 1 8 2.5t5 10.5q0 14 -15 12q-46 -1 -91 -32
q-47 -30 -66 -68q-16 -38 10 -67q27 -29 67 -17q20 6 52.5 22t37.5 17q110 57 187 151t146 189q20 27 36 51q40 60 86 111q87 17 174 27q-151 -254 -239 -542q-8 -25 -5 -52q3 -30 29 -43q10 -1 15 -1q27 0 54 24q71 61 108 140q3 8 2 11.5t-8 8.5h-8.5t-7.5 -6
q-37 -72 -105 -133q-23 -21 -40 -16q-16 7 -15 26q6 29 6 35q89 291 247 550q22 3 36 5q20 3 35 4q14 0 25 -9q16 -8 16 -21q2 -9 -12 -20q-1 -1 -10 -8.5t-11 -8.5q-2 0 -4.5 -3.5t-2.5 -13.5q6 -7 6 -8q9 -1 13 2q1 0 12.5 9.5t13.5 10.5q25 22 21 43zM831 502
q-21 -3 -46.5 -6.5t-49.5 -7t-43.5 -6.5t-25.5 -4l16.5 16.5t29.5 27.5t35.5 30.5t34.5 26.5q17 12 42 25t48.5 23.5t56.5 23.5q-49 -75 -98 -149zM917 770q-24 -15 -54 -24q-4 -2 -8 -6q-3 -4 -3 -13q1 -2 2 -5t6 -4q10 -1 11 0q37 8 62 27q5 5 5.5 6.5t-0.5 10.5
q-9 13 -13 9q-4 1 -8 -1z" />
    <glyph glyph-name="Acircumflex" unicode="&#xc2;" horiz-adv-x="925" 
d="M982.797 455.007q0 11.9482 -8.96094 22.4023t-18.918 18.4199q-20.9092 10.9521 -38.8311 11.9482q-16.9268 1.99121 -38.8311 -1.99219q-7.96484 -1.99121 -15.9307 -3.98242q40.8223 66.71 87.6182 129.437q12.9443 14.9355 0.996094 23.8965
q-8.96094 14.9346 -23.8955 9.95605q-90.6064 -19.9131 -166.276 -75.6699q-73.6797 -50.7793 -133.42 -122.467q-23.8955 -0.996094 -50.7783 -7.96582q-20.9092 -3.98242 -47.792 -4.97852q-18.918 2.9873 -31.8613 15.9307q-4.97852 13.9395 -2.9873 27.8789
q1.99121 6.96973 6.96973 11.9482q4.97852 4.97754 7.96484 6.96973q4.97852 2.98633 5.97461 4.48047q0.995117 1.49316 3.98242 8.46289q-4.97852 18.918 -17.9219 10.9521q-21.9053 -9.95605 -31.8613 -36.8398q-8.96094 -24.8916 5.97363 -49.7832
q20.9092 -21.9043 50.7793 -25.8867q29.8701 2.98633 51.7744 3.98242q5.97461 0 13.4414 1.99121q7.46777 1.99121 9.45898 2.9873q-8.96094 -10.9531 -31.3633 -39.3291q-22.4023 -28.377 -37.3379 -50.2812q-15.9307 -23.8965 -33.8525 -46.7959
q-66.71 -96.5801 -145.367 -188.182q-71.6885 -88.6143 -175.237 -143.376q-4.97852 -2.98633 -35.8438 -16.9258q-30.8662 -13.9395 -46.7969 -20.9092q-28.874 -8.96094 -45.8008 8.96094q-13.9385 19.9131 -3.98242 39.8262q15.9307 28.875 55.7578 54.7617
q42.8135 29.8701 78.6572 28.875q4.97852 0.995117 7.96582 2.48926q2.98633 1.49316 4.97754 10.4541q0 13.9395 -14.9346 11.9482q-45.8008 -0.996094 -90.6055 -31.8613q-46.7969 -29.8701 -65.7139 -67.7051q-15.9307 -37.8359 9.95605 -66.71
q26.8828 -28.874 66.71 -16.9268q19.9131 5.97461 52.2725 21.9053t37.3379 16.9258q109.523 56.7529 186.189 150.346t145.367 188.181q19.9131 26.8838 35.8438 50.7793q39.8271 59.7402 85.6279 110.52q86.6221 16.9258 173.245 26.8828
q-150.346 -252.899 -237.964 -539.651q-7.96582 -24.8916 -4.97852 -51.7744q2.9873 -29.8701 28.874 -42.8145q9.95703 -0.995117 14.9355 -0.995117q26.8828 0 53.7656 23.8955q70.6924 60.7363 107.532 139.394q2.9873 7.96582 1.99121 11.4502
q-0.995117 3.48535 -7.96484 8.46289h-8.46387t-7.4668 -5.97363q-36.8398 -71.6885 -104.545 -132.424q-22.9004 -20.9092 -39.8271 -15.9307q-15.9307 6.96973 -14.9346 25.8877q5.97363 28.874 5.97363 34.8486q88.6143 289.738 245.93 547.616
q21.9043 2.9873 35.8438 4.97852q19.9141 2.98633 34.8486 3.98242q13.9395 0 24.8916 -8.96094q15.9307 -7.96582 15.9307 -20.9092q1.99121 -8.96094 -11.9482 -19.9131q-0.995117 -0.996094 -9.95605 -8.46289q-8.96094 -7.46777 -10.9531 -8.46387
q-1.99121 0 -4.48047 -3.48438q-2.48926 -3.48535 -2.48926 -13.4414q5.97461 -6.96973 5.97461 -7.96582q8.96094 -0.995117 12.9434 1.99121q0.996094 0 12.4463 9.45898t13.4414 10.4551q24.8916 21.9043 20.9092 42.8135zM829.464 496.824
q-20.9092 -2.98633 -46.2988 -6.47168q-25.3896 -3.48438 -49.2852 -6.96973q-23.8955 -3.48438 -43.3115 -6.47168q-19.415 -2.9873 -25.3896 -3.98242l16.4287 16.4287q12.4453 12.4453 29.3721 27.3809q16.9268 14.9346 35.3467 30.3672q18.4189 15.4336 34.3496 26.3857
q16.9268 11.9473 41.8184 24.8916q24.8916 12.9434 48.29 23.3975q23.3984 10.4551 56.2549 23.3984q-48.7871 -74.6748 -97.5752 -148.354zM960.419 720.166q-2.98633 10.9521 -16.9258 41.8184q-2.9873 3.98242 -6.96973 6.96875q-7.96582 1.99219 -11.9482 -1.99121
l-44.8047 -31.8613q-8.96094 -6.96973 -1.99121 -16.9258q1.99121 -1.99121 3.98242 -3.9834q2.9873 -2.98633 5.97363 -1.99121q3.9834 0 7.96582 2.9873l32.8564 23.8965q3.9834 -12.9443 7.96582 -24.8926q2.9873 -8.96094 3.98242 -11.9473
q1.99121 -3.98242 5.97461 -5.97461q8.96094 -1.99121 9.95605 0q11.9482 5.97461 6.96973 14.9355q-0.996094 1.99121 -2.9873 8.96094z" />
    <glyph glyph-name="Atilde" unicode="&#xc3;" horiz-adv-x="911" 
d="M985 460q0 12 -9 22.5t-19 18.5q-21 11 -39 12q-17 2 -39 -2l-16 -4q41 67 88 130q13 15 1 24q-9 15 -24 10q-91 -20 -167 -76q-74 -51 -134 -123q-24 -1 -51 -8q-21 -4 -48 -5q-19 3 -32 16q-5 14 -3 28q2 7 7 12t8 7q5 3 6 4.5t4 8.5q-5 19 -18 11q-22 -10 -32 -37
q-9 -25 6 -50q21 -22 51 -26q30 3 52 4q6 0 13.5 2t9.5 3q-9 -11 -31.5 -39.5t-37.5 -50.5q-16 -24 -34 -47q-67 -97 -146 -189q-72 -89 -176 -144q-5 -3 -36 -17t-47 -21q-29 -9 -46 9q-14 20 -4 40q16 29 56 55q43 30 79 29q5 1 8 2.5t5 10.5q0 14 -15 12q-46 -1 -91 -32
q-47 -30 -66 -68q-16 -38 10 -67q27 -29 67 -17q20 6 52.5 22t37.5 17q110 57 187 151t146 189q20 27 36 51q40 60 86 111q87 17 174 27q-151 -254 -239 -542q-8 -25 -5 -52q3 -30 29 -43q10 -1 15 -1q27 0 54 24q71 61 108 140q3 8 2 11.5t-8 8.5h-8.5t-7.5 -6
q-37 -72 -105 -133q-23 -21 -40 -16q-16 7 -15 26q6 29 6 35q89 291 247 550q22 3 36 5q20 3 35 4q14 0 25 -9q16 -8 16 -21q2 -9 -12 -20q-1 -1 -10 -8.5t-11 -8.5q-2 0 -4.5 -3.5t-2.5 -13.5q6 -7 6 -8q9 -1 13 2q1 0 12.5 9.5t13.5 10.5q25 22 21 43zM831 502
q-21 -3 -46.5 -6.5t-49.5 -7t-43.5 -6.5t-25.5 -4l16.5 16.5t29.5 27.5t35.5 30.5t34.5 26.5q17 12 42 25t48.5 23.5t56.5 23.5q-49 -75 -98 -149zM955 745q0 10 -9 18q-5 3 -13 3l-3 -3h-1q-3 -2 -6.5 -3.5t-1.5 -6.5q2 -9 13 -7q-1 1 0 0v-1q-1 -4 -5 -6q-3 -1 -7 -1
q-10 0 -20 6q-4 0 -8 2v0q-8 10 -17 15q-8 3 -16 3q-12 0 -22 -5t-15 -17q-1 -6 1 -13q4 -7 12 -9l-1 1q1 -5 4 -5q5 1 7 8v1q0 1 2 2.5t1 3.5q0 1 -4 2.5t-5 1.5h1h1q2 3 5 4q7 4 13 5q5 0 9 -3q3 -2 14 -8q3 -2 5 -4q16 -9 33 -9v0q9 0 16 3v0q15 8 17 22z" />
    <glyph glyph-name="Adieresis" unicode="&#xc4;" horiz-adv-x="935" 
d="M978.869 464.989q0 11.9736 -8.98047 22.4502q-8.98047 10.4775 -18.959 18.46q-20.9531 10.9756 -38.9141 11.9736q-16.9629 1.99512 -38.9141 -1.99609q-7.98242 -1.99512 -15.9648 -3.99121q40.9102 66.8525 87.8066 129.715q12.9717 14.9668 0.998047 23.9473
q-8.98047 14.9668 -23.9473 9.97754q-90.8008 -19.9561 -166.633 -75.833q-73.8379 -50.8877 -133.706 -122.729q-23.9473 -0.998047 -50.8877 -7.98242q-20.9541 -3.99121 -47.8945 -4.98926q-18.959 2.99316 -31.9297 15.9648q-4.98926 13.9697 -2.99414 27.9385
q1.99609 6.98438 6.98535 11.9736t7.98242 6.98535q4.98926 2.99316 5.98633 4.48926q0.998047 1.49707 3.99121 8.48145q-4.98828 18.959 -17.96 10.9766q-21.9521 -9.97852 -31.9297 -36.9189q-8.98047 -24.9453 5.98633 -49.8906q20.9541 -21.9512 50.8877 -25.9424
q29.9346 2.99316 51.8867 3.99121q5.98633 0 13.4697 1.99512q7.4834 1.99609 9.47949 2.99414q-8.98047 -10.9766 -31.4307 -39.4141q-22.4512 -28.4375 -37.418 -50.3887q-15.9648 -23.9473 -33.9248 -46.8965q-66.8535 -96.7871 -145.68 -188.585
q-71.8418 -88.8047 -175.613 -143.684q-4.98926 -2.99316 -35.9209 -16.9629q-30.9316 -13.9688 -46.8965 -20.9541q-28.9365 -8.97949 -45.8994 8.98047q-13.9688 19.9561 -3.99121 39.9121q15.9648 28.9365 55.877 54.8789q42.9053 29.9346 78.8271 28.9365
q4.98828 0.998047 7.98242 2.49512q2.99316 1.49609 4.98828 10.4766q0 13.9688 -14.9668 11.9736q-45.8984 -0.998047 -90.7998 -31.9297q-46.8975 -29.9346 -65.8555 -67.8506q-15.9648 -37.916 9.97852 -66.8525q26.9404 -28.9365 66.8525 -16.9629
q19.9561 5.9873 52.3848 21.9521t37.418 16.9619q109.758 56.875 186.589 150.669q76.8311 93.793 145.679 188.584q19.9561 26.9414 35.9209 50.8887q39.9121 59.8672 85.8115 110.756q86.8086 16.9629 173.617 26.9404q-150.668 -253.442 -238.475 -540.81
q-7.98242 -24.9443 -4.98926 -51.8848q2.99316 -29.9346 28.9365 -42.9062q9.97852 -0.998047 14.9668 -0.998047q26.9414 0 53.8818 23.9473q70.8438 60.8662 107.763 139.693q2.99316 7.98242 1.99512 11.4746q-0.99707 3.49219 -7.98242 8.48047h-8.48145
q-2.49414 0 -7.4834 -5.98633q-36.9189 -71.8418 -104.769 -132.708q-22.9502 -20.9541 -39.9121 -15.9648q-15.9648 6.98535 -14.9678 25.9434q5.9873 28.9365 5.9873 34.9229q88.8047 290.36 246.457 548.791q21.9512 2.99414 35.9209 4.98926
q19.9561 2.99316 34.9229 3.99121q13.9697 0 24.9453 -8.98047q15.9648 -7.98242 15.9648 -20.9531q1.99609 -8.98047 -11.9736 -19.9561q-0.998047 -0.998047 -9.97754 -8.48145q-8.98047 -7.4834 -10.9766 -8.48145q-1.99512 0 -4.49023 -3.49219
q-2.49414 -3.49219 -2.49414 -13.4707q5.98633 -6.98438 5.98633 -7.98242q8.98047 -0.99707 12.9717 1.99609q0.998047 0 12.4727 9.47852q11.4746 9.47949 13.4707 10.4775q24.9443 21.9512 20.9541 42.9053zM825.207 506.896q-20.9541 -2.99316 -46.3975 -6.48535
q-25.4443 -3.49219 -49.3916 -6.98438t-43.4043 -6.48535q-19.457 -2.99414 -25.4443 -3.99219q3.99121 3.99219 16.4639 16.4639q12.4727 12.4727 29.4355 27.4404q16.9629 14.9668 35.4219 30.4326t34.4238 26.4414q16.9629 11.9736 41.9082 24.9453t48.3936 23.4482
t56.376 23.4482q-48.8926 -74.835 -97.7852 -148.673zM875.868 705.629q7.98242 0 14.9668 6.48535q6.98535 6.48633 6.98535 15.4658q0 8.98047 -6.98535 14.9678q-6.98438 5.98633 -14.9668 5.98633q-8.98047 0 -15.9648 -5.98633q-6.98438 -5.9873 -6.98438 -14.9678
q0 -9.97754 6.98438 -15.9648q6.98438 -5.98633 15.9648 -5.98633zM937.732 705.629q7.98242 0 14.9668 6.48535q6.98438 6.48633 6.98438 15.4658q0 8.98047 -6.98438 14.9678q-6.98438 5.98633 -14.9668 5.98633q-8.98047 0 -15.4668 -5.98633
q-6.48535 -5.9873 -6.48535 -14.9678q0 -8.97949 6.48535 -15.4658q6.48633 -6.48535 15.4668 -6.48535z" />
    <glyph glyph-name="Aring" unicode="&#xc5;" horiz-adv-x="921" 
d="M985 460q0 12 -9 22.5t-19 18.5q-21 11 -39 12q-17 2 -39 -2l-16 -4q41 67 88 130q13 15 1 24q-9 15 -24 10q-91 -20 -167 -76q-74 -51 -134 -123q-24 -1 -51 -8q-21 -4 -48 -5q-19 3 -32 16q-5 14 -3 28q2 7 7 12t8 7q5 3 6 4.5t4 8.5q-5 19 -18 11q-22 -10 -32 -37
q-9 -25 6 -50q21 -22 51 -26q30 3 52 4q6 0 13.5 2t9.5 3q-9 -11 -31.5 -39.5t-37.5 -50.5q-16 -24 -34 -47q-67 -97 -146 -189q-72 -89 -176 -144q-5 -3 -36 -17t-47 -21q-29 -9 -46 9q-14 20 -4 40q16 29 56 55q43 30 79 29q5 1 8 2.5t5 10.5q0 14 -15 12q-46 -1 -91 -32
q-47 -30 -66 -68q-16 -38 10 -67q27 -29 67 -17q20 6 52.5 22t37.5 17q110 57 187 151t146 189q20 27 36 51q40 60 86 111q87 17 174 27q-151 -254 -239 -542q-8 -25 -5 -52q3 -30 29 -43q10 -1 15 -1q27 0 54 24q71 61 108 140q3 8 2 11.5t-8 8.5h-8.5t-7.5 -6
q-37 -72 -105 -133q-23 -21 -40 -16q-16 7 -15 26q6 29 6 35q89 291 247 550q22 3 36 5q20 3 35 4q14 0 25 -9q16 -8 16 -21q2 -9 -12 -20q-1 -1 -10 -8.5t-11 -8.5q-2 0 -4.5 -3.5t-2.5 -13.5q6 -7 6 -8q9 -1 13 2q1 0 12.5 9.5t13.5 10.5q25 22 21 43zM831 502
q-21 -3 -46.5 -6.5t-49.5 -7t-43.5 -6.5t-25.5 -4l16.5 16.5t29.5 27.5t35.5 30.5t34.5 26.5q17 12 42 25t48.5 23.5t56.5 23.5q-49 -75 -98 -149zM918 775q-14 0 -24 -10.5t-10 -23.5q0 -14 10 -23.5t24 -9.5t23.5 9t9.5 24q0 13 -10 23.5t-23 10.5zM918 731q-10 1 -11 10
q1 10 11 11q9 -1 10 -11q-1 -9 -10 -10z" />
    <glyph glyph-name="AE" unicode="&#xc6;" horiz-adv-x="1172" 
d="M887 519q-9 -1 -17 -2q42 69 88 135q10 10 1 21q-5 12 -21 9q-94 -20 -171 -77t-138 -125q-27 -6 -54 -8q-22 -5 -45 -5.5t-35 16.5q-9 11 -5 28t19 22q3 1 5 6.5t1 8.5q-3 10 -14 8q-23 -10 -34 -38q-8 -29 9 -49q17 -23 46.5 -25t57.5 4q14 2 24 5q-15 -17 -35.5 -44.5
t-35.5 -50.5q-18 -25 -36 -48q-70 -98 -147 -191t-182 -146q-10 -5 -19 -11q-30 -16 -63 -29.5t-50 7.5q-15 17 -4 44q13 30 56 57t82 29q12 0 12 12q0 6 -4.5 9t-7.5 3q-46 -2 -95.5 -34t-64.5 -68q-18 -38 9 -68q24 -29 64 -15t76 32q11 5 20 11q110 54 187.5 148.5
t149.5 194.5q18 25 37 49q39 58 90 115q89 15 179 26q-157 -262 -246 -553q-9 -27 -4.5 -55.5t29.5 -38.5q7 -3 15 -4q22 0 52 27q14 12 29.5 29t21.5 25q-1 -1 -1 -3q-4 -34 9 -63q11 -21 33 -30t46 -9q17 0 33 3q48 9 90.5 35t75.5 63q3 3 3.5 9t-5.5 9q-3 3 -9 2t-9 -4
q-30 -33 -68.5 -56t-82.5 -32q-24 -4 -49 -0.5t-36 23.5q-6 10 -6 23.5t1 25.5q5 51 19.5 101.5t40.5 95.5q18 36 49 69.5t65 37.5q19 2 41 -6.5t40 -19.5t43 -29q3 -2 9 -3t9 2q3 1 4.5 6t0.5 8q-13 43 -20.5 73.5t-14.5 64t-9 56.5q13 7 27 16q110 71 168 188
q6 14 10.5 32t-1.5 35q-10 24 -37 28q-19 3 -43.5 -5.5t-41.5 -25.5q-47 -47 -76.5 -113.5t-32.5 -132.5v-7q-54 -26 -100 -15q-27 5 -45.5 21.5t-28.5 40.5q6 17 31 61q19 2 38 5q17 1 34.5 1t29.5 -9q15 -9 16 -20t-13 -22q-3 -3 -11.5 -9.5t-12.5 -9.5q-3 -3 -4 -8.5
t2 -8.5q4 -4 9 -5q3 0 6 3q1 0 12.5 8.5t15.5 12.5q22 20 20 41q-3 21 -27 39q-18 11 -38.5 11.5t-40.5 -0.5zM838 512q-44 -6 -93 -13.5t-78 -11.5q39 47 85.5 80.5t88 55t97.5 41.5q-53 -73 -100 -152zM1031 202q-12 8 -48.5 25.5t-68.5 14.5q-25 -3 -47 -19t-40 -35.5
t-29.5 -38.5t-15.5 -28q-40 -78 -57 -162q-31 -44 -73 -80q-26 -25 -43 -19q-19 9 -15 34t7 31q77 249 201 476q14 -24 37 -39t49 -20q50 -14 107 12q1 -17 6 -40t11 -45t11 -40.5t8 -26.5zM1194 583q-57 -110 -160 -180q-6 -5 -12 -8q0 1 0 -4t0 -3q3 61 29 123t70 106
q11 11 26 18t29 7q5 -1 7 -2q13 -2 17 -13t1 -23t-7 -21z" />
    <glyph glyph-name="Ccedilla" unicode="&#xc7;" horiz-adv-x="420" 
d="M58 72l87 229q28 75 59 150.5t75 145.5q9 15 19 29.5t27 23.5q12 6 28 5.5t25 -12.5q10 -15 4 -33.5t-14 -38.5q-5 -13 -10 -25q-3 -13 9 -17q13 -4 18 8q3 12 8 24q9 23 16.5 49t-7.5 49q-15 21 -41.5 22.5t-47.5 -7.5q-21 -10 -34.5 -27t-22.5 -34q-44 -71 -76.5 -150
t-60.5 -155l-87 -227q-8 -23 -16 -47.5t-7 -49.5q0 -29 12.5 -54t34.5 -34q-2 -6 -5 -10q-6 -16 -10 -33v-7l4 -4t5 -3q6 -2 8 -1q3 0 6 4q4 4 8 2q2 0 3 -2q9 -12 6 -23q-3 -15 -12 -26q-8 -9 -17 -6q-4 1 -7 6v2q0 4 -5 9.5t-8 5.5q-6 0 -10 -4t-4 -10v-4q2 -12 10 -22
q8 -8 19 -10q10 -2 21.5 2t20.5 12q15 17 18 42q2 8 -1 20q-2 18 -12 27q-8 5 -17 7q-1 2 -1 3q0 3 1 6t1 4q2 3 3 6q7 -2 13 -1q46 0 103 50q79 69 142 153q9 11 -2 21q-6 2 -12 2t-8 -5q-63 -83 -139 -151q-64 -56 -106 -38q-19 8 -27 27.5t-8 37.5q-1 22 6 44t15 43z" />
    <glyph glyph-name="Egrave" unicode="&#xc8;" horiz-adv-x="457" 
d="M206 -104q42 27 71 60q17 14 -2 20q-7 12 -19 -1q-27 -31 -65 -55q-36 -22 -78 -30q-22 -4 -48 -1q-22 5 -32 22q-3 9 -6 22v24q10 102 58 190q21 35 50 68t58 35q21 3 39 -6q24 -8 38 -18q19 -8 30 -20q12 -8 12 -9q16 -7 19 -2q10 13 4 18q-10 44 -19 70q-6 29 -14 61
q-6 30 -8 51q12 9 24 15q54 34 94 80q42 48 68 102q9 14 12 29q6 18 -4 36q-8 26 -35 28q-16 4 -42 -5q-25 -8 -41 -24q-44 -44 -73 -111q-27 -63 -32 -128v-5q-50 -25 -95 -15q-44 10 -71 52q-27 43 -22 94q7 45 31 86q28 45 72 77q8 9 3 18q1 12 -19 6q-48 -36 -79 -85
q-29 -48 -36 -99q-5 -60 27 -111q36 -51 88 -65q24 -6 50.5 -4t54.5 16q5 -32 15 -79q4 -21 9 -40.5t7 -22.5q-2 1 -15 8t-25 13q-35 19 -70 16q-24 -3 -46 -18q-18 -15 -37 -34q-15 -18 -29 -36q-9 -19 -17 -28q-23 -46 -40 -98q-15 -49 -21 -103q0 -15 -1 -31q3 -13 9 -29
q10 -20 33 -30q23 -8 45 -9q20 0 31 2q49 9 89 33zM455 606q-25 -52 -64 -97q-38 -43 -87 -75q-5 -3 -12 -6q4 56 28 107q28 61 69 100q15 9 26 17q17 8 26 7q3 1 6 0q13 -2 17 -13q7 -8 2 -20q-2 -11 -11 -20zM489 713q0 6 -3.5 10.5t-5.5 6.5q-28 7 -53 23q-6 5 -11 1.5
t-6 -4.5q-7 -8 2 -18q28 -20 61 -28q12 0 16 9z" />
    <glyph glyph-name="Eacute" unicode="&#xc9;" horiz-adv-x="465" 
d="M206 -104q42 27 71 60q17 14 -2 20q-7 12 -19 -1q-27 -31 -65 -55q-36 -22 -78 -30q-22 -4 -48 -1q-22 5 -32 22q-3 9 -6 22v24q10 102 58 190q21 35 50 68t58 35q21 3 39 -6q24 -8 38 -18q19 -8 30 -20q12 -8 12 -9q16 -7 19 -2q10 13 4 18q-10 44 -19 70q-6 29 -14 61
q-6 30 -8 51q12 9 24 15q54 34 94 80q42 48 68 102q9 14 12 29q6 18 -4 36q-8 26 -35 28q-16 4 -42 -5q-25 -8 -41 -24q-44 -44 -73 -111q-27 -63 -32 -128v-5q-50 -25 -95 -15q-44 10 -71 52q-27 43 -22 94q7 45 31 86q28 45 72 77q8 9 3 18q1 12 -19 6q-48 -36 -79 -85
q-29 -48 -36 -99q-5 -60 27 -111q36 -51 88 -65q24 -6 50.5 -4t54.5 16q5 -32 15 -79q4 -21 9 -40.5t7 -22.5q-2 1 -15 8t-25 13q-35 19 -70 16q-24 -3 -46 -18q-18 -15 -37 -34q-15 -18 -29 -36q-9 -19 -17 -28q-23 -46 -40 -98q-15 -49 -21 -103q0 -15 -1 -31q3 -13 9 -29
q10 -20 33 -30q23 -8 45 -9q20 0 31 2q49 9 89 33zM455 606q-25 -52 -64 -97q-38 -43 -87 -75q-5 -3 -12 -6q4 56 28 107q28 61 69 100q15 9 26 17q17 8 26 7q3 1 6 0q13 -2 17 -13q7 -8 2 -20q-2 -11 -11 -20zM470 757q-24 -15 -54 -24q-4 -2 -8 -6q-3 -4 -3 -13q1 -2 2 -5
t6 -4q10 -1 11 0q37 8 62 27q5 5 5.5 6.5t-0.5 10.5q-9 13 -13 9q-4 1 -8 -1z" />
    <glyph glyph-name="Ecircumflex" unicode="&#xca;" horiz-adv-x="457" 
d="M206 -104q42 27 71 60q17 14 -2 20q-7 12 -19 -1q-27 -31 -65 -55q-36 -22 -78 -30q-22 -4 -48 -1q-22 5 -32 22q-3 9 -6 22v24q10 102 58 190q21 35 50 68t58 35q21 3 39 -6q24 -8 38 -18q19 -8 30 -20q12 -8 12 -9q16 -7 19 -2q10 13 4 18q-10 44 -19 70q-6 29 -14 61
q-6 30 -8 51q12 9 24 15q54 34 94 80q42 48 68 102q9 14 12 29q6 18 -4 36q-8 26 -35 28q-16 4 -42 -5q-25 -8 -41 -24q-44 -44 -73 -111q-27 -63 -32 -128v-5q-50 -25 -95 -15q-44 10 -71 52q-27 43 -22 94q7 45 31 86q28 45 72 77q8 9 3 18q1 12 -19 6q-48 -36 -79 -85
q-29 -48 -36 -99q-5 -60 27 -111q36 -51 88 -65q24 -6 50.5 -4t54.5 16q5 -32 15 -79q4 -21 9 -40.5t7 -22.5q-2 1 -15 8t-25 13q-35 19 -70 16q-24 -3 -46 -18q-18 -15 -37 -34q-15 -18 -29 -36q-9 -19 -17 -28q-23 -46 -40 -98q-15 -49 -21 -103q0 -15 -1 -31q3 -13 9 -29
q10 -20 33 -30q23 -8 45 -9q20 0 31 2q49 9 89 33zM455 606q-25 -52 -64 -97q-38 -43 -87 -75q-5 -3 -12 -6q4 56 28 107q28 61 69 100q15 9 26 17q17 8 26 7q3 1 6 0q13 -2 17 -13q7 -8 2 -20q-2 -11 -11 -20zM500 727q-3 11 -17 42q-3 4 -7 7q-8 2 -12 -2l-45 -32
q-9 -7 -2 -17l4 -4q3 -3 6 -2q4 0 8 3l33 24q4 -13 8 -25l4 -12q2 -4 6 -6q9 -2 10 0q12 6 7 15q-1 2 -3 9z" />
    <glyph glyph-name="Edieresis" unicode="&#xcb;" horiz-adv-x="461" 
d="M206 -104q42 27 71 60q17 14 -2 20q-7 12 -19 -1q-27 -31 -65 -55q-36 -22 -78 -30q-22 -4 -48 -1q-22 5 -32 22q-3 9 -6 22v24q10 102 58 190q21 35 50 68t58 35q21 3 39 -6q24 -8 38 -18q19 -8 30 -20q12 -8 12 -9q16 -7 19 -2q10 13 4 18q-10 44 -19 70q-6 29 -14 61
q-6 30 -8 51q12 9 24 15q54 34 94 80q42 48 68 102q9 14 12 29q6 18 -4 36q-8 26 -35 28q-16 4 -42 -5q-25 -8 -41 -24q-44 -44 -73 -111q-27 -63 -32 -128v-5q-50 -25 -95 -15q-44 10 -71 52q-27 43 -22 94q7 45 31 86q28 45 72 77q8 9 3 18q1 12 -19 6q-48 -36 -79 -85
q-29 -48 -36 -99q-5 -60 27 -111q36 -51 88 -65q24 -6 50.5 -4t54.5 16q5 -32 15 -79q4 -21 9 -40.5t7 -22.5q-2 1 -15 8t-25 13q-35 19 -70 16q-24 -3 -46 -18q-18 -15 -37 -34q-15 -18 -29 -36q-9 -19 -17 -28q-23 -46 -40 -98q-15 -49 -21 -103q0 -15 -1 -31q3 -13 9 -29
q10 -20 33 -30q23 -8 45 -9q20 0 31 2q49 9 89 33zM455 606q-25 -52 -64 -97q-38 -43 -87 -75q-5 -3 -12 -6q4 56 28 107q28 61 69 100q15 9 26 17q17 8 26 7q3 1 6 0q13 -2 17 -13q7 -8 2 -20q-2 -11 -11 -20zM403 711q8 0 15 6.5t7 15.5t-7 15t-15 6q-9 0 -16 -6t-7 -15
q0 -10 7 -16t16 -6zM465 711q8 0 15 6.5t7 15.5t-7 15t-15 6q-9 0 -15.5 -6t-6.5 -15t6.5 -15.5t15.5 -6.5z" />
    <glyph glyph-name="Igrave" unicode="&#xcc;" horiz-adv-x="296" 
d="M220 93q50 140 108 279q30 71 57.5 139.5t59.5 136.5q3 8 7 13q6 19 -7 20q-9 3 -18 -7q-1 -6 -6 -14q-24 -49 -63 -92q-36 -40 -77 -81q-43 -41 -87 -89q-16 -17 -32 -46q-16 -22 -26 -55q-6 -32 -1 -64q11 -33 29 -52q10 -3 19 1q3 14 -1 19q-13 15 -20 37q-2 26 1 52
q8 28 22 48q17 24 29 40q44 48 85 90q11 11 25 26t26 29t20.5 24t10.5 12q-3 -6 -24.5 -56.5t-51.5 -120.5t-61 -147t-52 -136q-14 -47 -42 -101q-26 -50 -72 -80q-12 -5 -29 -7q-11 -2 -20 7q-8 13 0 27q10 21 18 30q9 15 -3 19q-6 8 -16 -2q-46 -52 -23 -90q18 -18 42 -18
q25 4 42 12q56 32 82 83q14 28 25.5 55.5t23.5 58.5zM218 716q0 6 -3.5 10.5t-5.5 6.5q-28 7 -53 23q-6 5 -11 1.5t-6 -4.5q-7 -8 2 -18q28 -20 61 -28q12 0 16 9z" />
    <glyph glyph-name="Iacute" unicode="&#xcd;" horiz-adv-x="313" 
d="M220 93q50 140 108 279q30 71 57.5 139.5t59.5 136.5q3 8 7 13q6 19 -7 20q-9 3 -18 -7q-1 -6 -6 -14q-24 -49 -63 -92q-36 -40 -77 -81q-43 -41 -87 -89q-16 -17 -32 -46q-16 -22 -26 -55q-6 -32 -1 -64q11 -33 29 -52q10 -3 19 1q3 14 -1 19q-13 15 -20 37q-2 26 1 52
q8 28 22 48q17 24 29 40q44 48 85 90q11 11 25 26t26 29t20.5 24t10.5 12q-3 -6 -24.5 -56.5t-51.5 -120.5t-61 -147t-52 -136q-14 -47 -42 -101q-26 -50 -72 -80q-12 -5 -29 -7q-11 -2 -20 7q-8 13 0 27q10 21 18 30q9 15 -3 19q-6 8 -16 -2q-46 -52 -23 -90q18 -18 42 -18
q25 4 42 12q56 32 82 83q14 28 25.5 55.5t23.5 58.5zM212 760q-24 -15 -54 -24q-4 -2 -8 -6q-3 -4 -3 -13q1 -2 2 -5t6 -4q10 -1 11 0q37 8 62 27q5 5 5.5 6.5t-0.5 10.5q-9 13 -13 9q-4 1 -8 -1z" />
    <glyph glyph-name="Icircumflex" unicode="&#xce;" horiz-adv-x="309" 
d="M220 93q50 140 108 279q30 71 57.5 139.5t59.5 136.5q3 8 7 13q6 19 -7 20q-9 3 -18 -7q-1 -6 -6 -14q-24 -49 -63 -92q-36 -40 -77 -81q-43 -41 -87 -89q-16 -17 -32 -46q-16 -22 -26 -55q-6 -32 -1 -64q11 -33 29 -52q10 -3 19 1q3 14 -1 19q-13 15 -20 37q-2 26 1 52
q8 28 22 48q17 24 29 40q44 48 85 90q11 11 25 26t26 29t20.5 24t10.5 12q-3 -6 -24.5 -56.5t-51.5 -120.5t-61 -147t-52 -136q-14 -47 -42 -101q-26 -50 -72 -80q-12 -5 -29 -7q-11 -2 -20 7q-8 13 0 27q10 21 18 30q9 15 -3 19q-6 8 -16 -2q-46 -52 -23 -90q18 -18 42 -18
q25 4 42 12q56 32 82 83q14 28 25.5 55.5t23.5 58.5zM217 739q-3 11 -17 42q-3 4 -7 7q-8 2 -12 -2l-45 -32q-9 -7 -2 -17l4 -4q3 -3 6 -2q4 0 8 3l33 24q4 -13 8 -25l4 -12q2 -4 6 -6q9 -2 10 0q12 6 7 15q-1 2 -3 9z" />
    <glyph glyph-name="Idieresis" unicode="&#xcf;" horiz-adv-x="313" 
d="M220 93q50 140 108 279q30 71 57.5 139.5t59.5 136.5q3 8 7 13q6 19 -7 20q-9 3 -18 -7q-1 -6 -6 -14q-24 -49 -63 -92q-36 -40 -77 -81q-43 -41 -87 -89q-16 -17 -32 -46q-16 -22 -26 -55q-6 -32 -1 -64q11 -33 29 -52q10 -3 19 1q3 14 -1 19q-13 15 -20 37q-2 26 1 52
q8 28 22 48q17 24 29 40q44 48 85 90q11 11 25 26t26 29t20.5 24t10.5 12q-3 -6 -24.5 -56.5t-51.5 -120.5t-61 -147t-52 -136q-14 -47 -42 -101q-26 -50 -72 -80q-12 -5 -29 -7q-11 -2 -20 7q-8 13 0 27q10 21 18 30q9 15 -3 19q-6 8 -16 -2q-46 -52 -23 -90q18 -18 42 -18
q25 4 42 12q56 32 82 83q14 28 25.5 55.5t23.5 58.5zM151 719q8 0 15 6.5t7 15.5t-7 15t-15 6q-9 0 -16 -6t-7 -15q0 -10 7 -16t16 -6zM213 719q8 0 15 6.5t7 15.5t-7 15t-15 6q-9 0 -15.5 -6t-6.5 -15t6.5 -15.5t15.5 -6.5z" />
    <glyph glyph-name="Eth" unicode="&#xd0;" horiz-adv-x="544" 
d="M402 222l74 217q3 11 6.5 24.5t1.5 28.5q-5 25 -26.5 38.5t-43.5 14.5q-38 3 -81 -27q-24 -16 -50.5 -44t-28.5 -30q0 1 6.5 15.5t15.5 35.5t20.5 43t20.5 38h13q32 1 60 16q19 12 22 37q0 8 -2.5 16.5t-8.5 14.5q-13 10 -30 8q-15 -3 -29.5 -16t-21.5 -26l-16 -26
q-90 -7 -153 -47q-42 -27 -69 -67.5t-31 -82.5q-2 -11 9 -14q4 0 9 3t5 8q4 38 28 73.5t62 59.5q52 33 127 42q-43 -85 -75 -177q-44 -68 -74 -137q-3 -3 -2.5 -6t-1.5 -5h-78q-4 0 -8 -5.5t-4 -8.5q0 -4 4 -9t8 -5h63q-41 -91 -69.5 -168t-46.5 -149q-2 -7 8 -12
q16 -6 31 5.5t24 27.5q36 71 64 146t52 151l59 -1q4 0 10.5 4.5t6.5 9.5q0 3 -7 8.5t-10 5.5h-50l-1 1q22 67 45 135q21 32 47.5 61.5t59.5 51.5q38 25 67 23q15 -1 30 -10t18 -25q2 -11 -1.5 -21t-6.5 -19l-74 -217q-25 -72 -53.5 -144t-68.5 -137q-6 -10 -14 -20t-20 -15
q-27 -10 -50.5 13.5t-36.5 43.5q-6 9 -15 3q-9 -8 -4 -17q47 -69 94 -69q11 0 21 4q15 7 25.5 20t18.5 25q40 67 70 139.5t56 145.5zM339 614q5 10 14.5 19t20.5 12q2 -1 3 -1q4 0 8 -2q5 -6 5 -12q-3 -12 -13 -20q-11 -6 -27.5 -7t-18.5 -1zM50 -63q-4 -7 -6.5 -16t-7.5 -9
q18 70 45.5 146.5t67.5 164.5l12 -1q-23 -72 -49 -145t-62 -140zM174 260q-2 -5 -3 -10h-6h-2q9 19 23 49.5t15 32.5q0 -2 -11 -28t-16 -44z" />
    <glyph glyph-name="Ntilde" unicode="&#xd1;" horiz-adv-x="531" 
d="M454.2 380.487q29.2891 79.1885 49.8994 155.123q6.50879 29.2891 2.16992 53.1543q-3.25391 33.6279 -30.374 40.1367q-5.42383 2.16992 -10.3057 1.62695q-4.88086 -0.541992 -14.6445 1.62695q-8.67773 -1.08398 -11.3896 -1.62695
q-2.71191 -0.541992 -8.13574 -2.71191q-64.002 -17.3564 -110.647 -64.002q-45.5605 -45.5605 -81.3584 -91.1211q-3.25391 -4.33887 -13.0176 -22.7803l43.3916 124.749v0q32.543 10.8477 61.832 34.7129q32.5439 29.2891 42.3066 57.4932
q11.9326 31.459 -11.9326 54.2393q-15.1875 20.6113 -34.7129 13.0176q-19.5264 -3.25488 -40.1367 -35.7979q-16.2715 -23.8652 -26.0352 -46.6455l-14.1016 -56.4082q-30.374 -3.25488 -66.1719 -6.50879q-37.9668 -2.16992 -80.2734 -11.9326
q-44.4756 -13.0176 -81.3584 -49.8994q-30.374 -35.7979 -24.9502 -85.6982q7.59375 -13.0166 17.3564 -9.7627q19.5264 6.50879 9.76367 19.5264q-6.50879 34.7129 18.4414 59.6621q29.2881 31.459 65.0859 40.1367q37.9678 8.67871 77.0195 10.8486
q28.2041 4.33887 55.3232 7.59277l-52.0693 -177.903q-61.832 -98.7148 -111.731 -212.616q-23.8652 -56.4082 -41.7646 -109.021q-17.8984 -52.6113 -32.001 -111.189q-2.16895 -10.8477 -3.25391 -13.0176q-2.16992 -14.1016 -5.42383 -34.7129
q-1.08496 -22.7803 17.3564 -31.458q15.1865 -3.25488 30.374 -1.08496q17.3564 10.8477 28.2041 32.543q10.8477 24.9502 16.2715 45.5605l128.004 423.063q24.9502 41.2217 50.9844 77.0195q33.6279 45.5605 74.8496 87.8672q46.6455 43.3906 103.054 59.6621
q15.1875 4.33984 27.1201 1.08496q16.2715 -6.50879 13.0166 -28.2041q-1.08398 -26.0352 -4.33887 -34.7129q-18.4414 -75.9346 -47.7305 -154.038q-29.2881 -73.7656 -59.6621 -146.445q-41.2217 -94.376 -78.1045 -197.43q-32.543 -100.884 -47.7305 -208.277
q-6.50781 -74.8496 16.2725 -104.139q6.50879 -6.50879 11.9326 -8.67773q5.42383 -2.16992 18.4404 -2.16992q9.76367 0 14.1025 2.16992q4.33887 2.16895 9.7627 5.42383q11.9326 10.8477 14.1025 24.9492q2.16992 16.2725 2.16992 24.9502
q-1.08496 21.6953 -13.0176 15.1865q-10.8477 4.33984 -14.1025 -15.1865q1.08496 -5.42383 -2.16895 -17.3564q-2.16992 -6.50879 -6.50879 -13.0176q-1.08496 0 -5.42383 -2.16895q-4.33984 0 -7.59375 3.25391q-2.16992 3.25391 -5.42383 7.59375
q-3.25488 4.33887 -4.33887 15.1865q-3.25488 21.6953 0 61.832q13.0166 106.309 45.5605 200.685q39.0518 101.969 79.1885 196.345zM290.398 641.919q6.50879 21.6953 18.4414 41.2217q13.0176 21.6953 23.8652 23.8652q5.42383 -2.16992 7.05078 -3.79688
q1.62695 -1.62793 7.05078 -3.79688q4.33984 -9.76367 4.33984 -13.0176t-3.25488 -10.8477q-3.25391 -22.7803 -31.458 -45.5605q-17.3564 -14.1025 -39.0527 -22.7803zM57.1719 -36.0674q-7.59375 -26.0352 -15.1875 -38.5098t-16.2715 -17.8984
q-9.7627 6.50879 -9.2207 13.0166q0.542969 6.50879 1.62695 15.1875q3.25488 9.7627 8.67871 29.2891q11.9326 47.7305 33.6279 106.851t43.9336 111.731q22.2383 52.6123 40.1367 90.0371t21.1533 42.8486zM281.091 722.412q0 10.8477 -9.76367 19.5254
q-5.42383 3.25488 -14.1016 3.25488l-3.25488 -3.25488h-1.08398q-3.25488 -2.16895 -7.05176 -3.7959q-3.79688 -1.62793 -1.62695 -7.05176q2.16992 -9.7627 14.1025 -7.59277q-1.08496 1.08398 0 0v-1.08496q-1.08496 -4.33887 -5.42383 -6.50879
q-3.25488 -1.08496 -7.59375 -1.08496q-10.8477 0 -21.6953 6.50879q-4.33984 0 -8.67871 2.16992v0q-8.67773 10.8477 -18.4414 16.2715q-8.67773 3.25391 -17.3564 3.25391q-13.0176 0 -23.8652 -5.42383t-16.2715 -18.4414q-1.08496 -6.50879 1.08496 -14.1016
q4.33887 -7.59375 13.0176 -9.7627l-1.08496 1.08398q1.08496 -5.42383 4.33887 -5.42383q5.42383 1.08496 7.59375 8.67871v1.08496q0 1.08398 2.16895 2.71191q2.16992 1.62695 1.08496 3.7959q0 1.08496 -4.33887 2.71191q-4.33887 1.62793 -5.42383 1.62793h1.08496
h1.08496q2.16895 3.25391 5.42383 4.33887q7.59277 4.33887 14.1016 5.42383q5.42383 0 9.76367 -3.25391q3.25391 -2.16992 15.1865 -8.67871q3.25391 -2.16992 5.42383 -4.33887q17.3564 -9.7627 35.7979 -9.7627v0q9.7627 0 17.3564 3.25391v0
q16.2715 8.67773 18.4414 23.8652z" />
    <glyph glyph-name="Ograve" unicode="&#xd2;" horiz-adv-x="463" 
d="M359 319q13 57 16 109q8 57 -1 113q-1 9 -2 17q0 10 -4 20q-4 18 -20 33q-10 15 -29 21q-17 9 -39 7q-13 0 -27 -4q-27 -5 -55 -26q-23 -20 -46 -54q-12 -27 -26 -57q-11 -27 -21 -59l-46 -154q-23 -83 -45 -177q-20 -94 -3 -189q3 -9 7 -22q6 -14 20 -21q10 -4 18 -4
q14 2 21 4q49 15 83 43q36 30 61 68q31 37 48 76q19 42 33 75q15 38 30 83q15 48 27 98zM278 146q-12 -31 -33 -69q-17 -39 -44 -75q-21 -33 -56 -61q-31 -26 -75 -40q-6 -3 -15 -3q-3 0 -5 1q-4 3 -7 8q-3 12 -6 18q-15 91 2 179q23 93 45 174l45 153q9 29 19 56
q14 31 25 56q18 28 39 44q22 17 48 23q12 2 21 2q31 2 48 -18q11 -10 11 -25q6 -15 8 -31q9 -53 1 -108q-3 -54 -16 -105q-11 -49 -26 -97q-13 -46 -29 -82zM353 692q0 6 -3.5 10.5t-5.5 6.5q-28 7 -53 23q-6 5 -11 1.5t-6 -4.5q-7 -8 2 -18q28 -20 61 -28q12 0 16 9z" />
    <glyph glyph-name="Oacute" unicode="&#xd3;" horiz-adv-x="476" 
d="M359 319q13 57 16 109q8 57 -1 113q-1 9 -2 17q0 10 -4 20q-4 18 -20 33q-10 15 -29 21q-17 9 -39 7q-13 0 -27 -4q-27 -5 -55 -26q-23 -20 -46 -54q-12 -27 -26 -57q-11 -27 -21 -59l-46 -154q-23 -83 -45 -177q-20 -94 -3 -189q3 -9 7 -22q6 -14 20 -21q10 -4 18 -4
q14 2 21 4q49 15 83 43q36 30 61 68q31 37 48 76q19 42 33 75q15 38 30 83q15 48 27 98zM278 146q-12 -31 -33 -69q-17 -39 -44 -75q-21 -33 -56 -61q-31 -26 -75 -40q-6 -3 -15 -3q-3 0 -5 1q-4 3 -7 8q-3 12 -6 18q-15 91 2 179q23 93 45 174l45 153q9 29 19 56
q14 31 25 56q18 28 39 44q22 17 48 23q12 2 21 2q31 2 48 -18q11 -10 11 -25q6 -15 8 -31q9 -53 1 -108q-3 -54 -16 -105q-11 -49 -26 -97q-13 -46 -29 -82zM336 730q-24 -15 -54 -24q-4 -2 -8 -6q-3 -4 -3 -13q1 -2 2 -5t6 -4q10 -1 11 0q37 8 62 27q5 5 5.5 6.5t-0.5 10.5
q-9 13 -13 9q-4 1 -8 -1z" />
    <glyph glyph-name="Ocircumflex" unicode="&#xd4;" horiz-adv-x="476" 
d="M359 319q13 57 16 109q8 57 -1 113q-1 9 -2 17q0 10 -4 20q-4 18 -20 33q-10 15 -29 21q-17 9 -39 7q-13 0 -27 -4q-27 -5 -55 -26q-23 -20 -46 -54q-12 -27 -26 -57q-11 -27 -21 -59l-46 -154q-23 -83 -45 -177q-20 -94 -3 -189q3 -9 7 -22q6 -14 20 -21q10 -4 18 -4
q14 2 21 4q49 15 83 43q36 30 61 68q31 37 48 76q19 42 33 75q15 38 30 83q15 48 27 98zM278 146q-12 -31 -33 -69q-17 -39 -44 -75q-21 -33 -56 -61q-31 -26 -75 -40q-6 -3 -15 -3q-3 0 -5 1q-4 3 -7 8q-3 12 -6 18q-15 91 2 179q23 93 45 174l45 153q9 29 19 56
q14 31 25 56q18 28 39 44q22 17 48 23q12 2 21 2q31 2 48 -18q11 -10 11 -25q6 -15 8 -31q9 -53 1 -108q-3 -54 -16 -105q-11 -49 -26 -97q-13 -46 -29 -82zM106 699q-3 11 -17 42q-3 4 -7 7q-8 2 -12 -2l-45 -32q-9 -7 -2 -17l4 -4q3 -3 6 -2q4 0 8 3l33 24q4 -13 8 -25
l4 -12q2 -4 6 -6q9 -2 10 0q12 6 7 15q-1 2 -3 9z" />
    <glyph glyph-name="Otilde" unicode="&#xd5;" horiz-adv-x="476" 
d="M359 319q13 57 16 109q8 57 -1 113q-1 9 -2 17q0 10 -4 20q-4 18 -20 33q-10 15 -29 21q-17 9 -39 7q-13 0 -27 -4q-27 -5 -55 -26q-23 -20 -46 -54q-12 -27 -26 -57q-11 -27 -21 -59l-46 -154q-23 -83 -45 -177q-20 -94 -3 -189q3 -9 7 -22q6 -14 20 -21q10 -4 18 -4
q14 2 21 4q49 15 83 43q36 30 61 68q31 37 48 76q19 42 33 75q15 38 30 83q15 48 27 98zM278 146q-12 -31 -33 -69q-17 -39 -44 -75q-21 -33 -56 -61q-31 -26 -75 -40q-6 -3 -15 -3q-3 0 -5 1q-4 3 -7 8q-3 12 -6 18q-15 91 2 179q23 93 45 174l45 153q9 29 19 56
q14 31 25 56q18 28 39 44q22 17 48 23q12 2 21 2q31 2 48 -18q11 -10 11 -25q6 -15 8 -31q9 -53 1 -108q-3 -54 -16 -105q-11 -49 -26 -97q-13 -46 -29 -82zM372 704q0 10 -9 18q-5 3 -13 3l-3 -3h-1q-3 -2 -6.5 -3.5t-1.5 -6.5q2 -9 13 -7q-1 1 0 0v-1q-1 -4 -5 -6
q-3 -1 -7 -1q-10 0 -20 6q-4 0 -8 2v0q-8 10 -17 15q-8 3 -16 3q-12 0 -22 -5t-15 -17q-1 -6 1 -13q4 -7 12 -9l-1 1q1 -5 4 -5q5 1 7 8v1q0 1 2 2.5t1 3.5q0 1 -4 2.5t-5 1.5h1h1q2 3 5 4q7 4 13 5q5 0 9 -3q3 -2 14 -8q3 -2 5 -4q16 -9 33 -9v0q9 0 16 3v0q15 8 17 22z
" />
    <glyph glyph-name="Odieresis" unicode="&#xd6;" horiz-adv-x="480" 
d="M359 319q13 57 16 109q8 57 -1 113q-1 9 -2 17q0 10 -4 20q-4 18 -20 33q-10 15 -29 21q-17 9 -39 7q-13 0 -27 -4q-27 -5 -55 -26q-23 -20 -46 -54q-12 -27 -26 -57q-11 -27 -21 -59l-46 -154q-23 -83 -45 -177q-20 -94 -3 -189q3 -9 7 -22q6 -14 20 -21q10 -4 18 -4
q14 2 21 4q49 15 83 43q36 30 61 68q31 37 48 76q19 42 33 75q15 38 30 83q15 48 27 98zM278 146q-12 -31 -33 -69q-17 -39 -44 -75q-21 -33 -56 -61q-31 -26 -75 -40q-6 -3 -15 -3q-3 0 -5 1q-4 3 -7 8q-3 12 -6 18q-15 91 2 179q23 93 45 174l45 153q9 29 19 56
q14 31 25 56q18 28 39 44q22 17 48 23q12 2 21 2q31 2 48 -18q11 -10 11 -25q6 -15 8 -31q9 -53 1 -108q-3 -54 -16 -105q-11 -49 -26 -97q-13 -46 -29 -82zM265 678q8 0 15 6.5t7 15.5t-7 15t-15 6q-9 0 -16 -6t-7 -15q0 -10 7 -16t16 -6zM327 678q8 0 15 6.5t7 15.5t-7 15
t-15 6q-9 0 -15.5 -6t-6.5 -15t6.5 -15.5t15.5 -6.5z" />
    <glyph glyph-name="multiply" unicode="&#xd7;" horiz-adv-x="218" 
d="M177 319l-75 -94l-53 108q-5 6 -10 6q-3 0 -7.5 -2t-5.5 -4q-8 -6 0 -12l58 -121l-80 -102q-4 -6 -3 -11q1 -3 1.5 -3t3.5 -3q4 -5 8 -4q4 -1 8 5l76 93l51 -108q6 -5 12 -6q3 0 3 -0.5t3 2.5q3 1 5 4q6 7 0 14l-57 117l82 105q5 5 3 9t-6 8t-9 3q-4 1 -8 -4z" />
    <glyph glyph-name="Oslash" unicode="&#xd8;" horiz-adv-x="503" 
d="M332 124q37 77 75 188t34 234q-1 18 -5 38.5t-16 37.5q-7 12 -20 18l32 75q2 4 0 9.5t-6 8.5q-16 5 -19 -8l-33 -75q-10 4 -22 7q-14 1 -28 -2q-32 -5 -62 -24.5t-54 -50.5q-39 -58 -60 -121l-61 -160q-34 -88 -63 -186t-17 -198q1 -11 4.5 -22.5t12.5 -19.5l-23 -56
q-5 -11 8 -18q3 -2 6 -1q2 0 5.5 3t6.5 5l23 55l1 1q12 -1 23 2q48 12 87.5 40.5t71.5 65t56.5 77t42.5 77.5zM37 -100q-3 3 -3 9v10q-12 96 16.5 191t62.5 180l62 158q11 29 23.5 58.5t31.5 56.5q41 55 97 65q11 2 22 2q7 -2 14 -3zM308 136q-17 -35 -39.5 -74t-52 -74
t-66.5 -62.5t-82 -39.5q-8 -1 -9 0l329 731q6 -5 11 -13q9 -12 11.5 -27t3.5 -32q4 -118 -33 -226t-73 -183z" />
    <glyph glyph-name="Ugrave" unicode="&#xd9;" horiz-adv-x="598" 
d="M407 53q12 51 22 94q4 22 8 37t10 33l12 38q29 65 47 127q22 66 42 128q2 10 4 21q0 8 1 18.5t1 16.5q-1 14 -14 12q-9 -2 -11.5 -4t-2.5 -10v-12v-16q-2 -12 -4 -17q-24 -78 -53 -163q-15 -42 -33 -86.5t-39 -86.5q-36 -77 -91 -152q-52 -71 -128 -133q-12 -10 -31 -22
q-15 -6 -29 0q-18 12 -14 30q3 28 6 36q11 46 28 87q22 43 38 82l140 309q21 38 35 82q21 46 23 91q2 13 -2 22q-2 18 -13 27q-27 26 -74 -11q-128 -93 -252 -202l-11 -11q-10 -8 -22 -29q-4 -10 -2 -34q8 -15 19 -25q19 -10 33 -4q16 6 21 10l99 46q18 9 9 18q1 18 -18 8
l-102 -48q-7 -2 -17 -6q-4 -2 -11 2q-3 2 -5 6q-2 12 0 17q6 8 11 14q8 9 15 14q124 108 252 201q8 8 20 14q12 7 16 -1q8 -5 5 -26q-3 -43 -19 -84q-12 -40 -33 -80l-142 -309q-16 -39 -37 -84q-16 -40 -32 -88q0 -8 -3 -22q-3 -11 -2 -29q1 -15 7 -26q10 -15 19 -24
q15 -5 27 -6q34 3 67 33q73 58 125 130q14 18 29.5 44.5t29 51t23 43t10.5 20.5q-1 -3 -12 -37.5t-17 -58.5q-9 -48 -19 -98q-2 -32 0 -44q4 -13 11 -25q8 -10 22 -17q13 -3 16 -1q25 1 50 27q35 41 45 87q6 14 -10 17q-11 7 -18 -11q-10 -43 -38 -74q-8 -8 -16 -14t-20 -5
q-4 1 -5 2.5t-5 4.5q-4 8 -6 17q-1 5 -1 15t2 18q5 36 14 85zM519 645q0 6 -3.5 10.5t-5.5 6.5q-28 7 -53 23q-6 5 -11 1.5t-6 -4.5q-7 -8 2 -18q28 -20 61 -28q12 0 16 9z" />
    <glyph glyph-name="Uacute" unicode="&#xda;" horiz-adv-x="601" 
d="M407 53q12 51 22 94q4 22 8 37t10 33l12 38q29 65 47 127q22 66 42 128q2 10 4 21q0 8 1 18.5t1 16.5q-1 14 -14 12q-9 -2 -11.5 -4t-2.5 -10v-12v-16q-2 -12 -4 -17q-24 -78 -53 -163q-15 -42 -33 -86.5t-39 -86.5q-36 -77 -91 -152q-52 -71 -128 -133q-12 -10 -31 -22
q-15 -6 -29 0q-18 12 -14 30q3 28 6 36q11 46 28 87q22 43 38 82l140 309q21 38 35 82q21 46 23 91q2 13 -2 22q-2 18 -13 27q-27 26 -74 -11q-128 -93 -252 -202l-11 -11q-10 -8 -22 -29q-4 -10 -2 -34q8 -15 19 -25q19 -10 33 -4q16 6 21 10l99 46q18 9 9 18q1 18 -18 8
l-102 -48q-7 -2 -17 -6q-4 -2 -11 2q-3 2 -5 6q-2 12 0 17q6 8 11 14q8 9 15 14q124 108 252 201q8 8 20 14q12 7 16 -1q8 -5 5 -26q-3 -43 -19 -84q-12 -40 -33 -80l-142 -309q-16 -39 -37 -84q-16 -40 -32 -88q0 -8 -3 -22q-3 -11 -2 -29q1 -15 7 -26q10 -15 19 -24
q15 -5 27 -6q34 3 67 33q73 58 125 130q14 18 29.5 44.5t29 51t23 43t10.5 20.5q-1 -3 -12 -37.5t-17 -58.5q-9 -48 -19 -98q-2 -32 0 -44q4 -13 11 -25q8 -10 22 -17q13 -3 16 -1q25 1 50 27q35 41 45 87q6 14 -10 17q-11 7 -18 -11q-10 -43 -38 -74q-8 -8 -16 -14t-20 -5
q-4 1 -5 2.5t-5 4.5q-4 8 -6 17q-1 5 -1 15t2 18q5 36 14 85zM495 700q-24 -15 -54 -24q-4 -2 -8 -6q-3 -4 -3 -13q1 -2 2 -5t6 -4q10 -1 11 0q37 8 62 27q5 5 5.5 6.5t-0.5 10.5q-9 13 -13 9q-4 1 -8 -1z" />
    <glyph glyph-name="Ucircumflex" unicode="&#xdb;" horiz-adv-x="601" 
d="M407 53q12 51 22 94q4 22 8 37t10 33l12 38q29 65 47 127q22 66 42 128q2 10 4 21q0 8 1 18.5t1 16.5q-1 14 -14 12q-9 -2 -11.5 -4t-2.5 -10v-12v-16q-2 -12 -4 -17q-24 -78 -53 -163q-15 -42 -33 -86.5t-39 -86.5q-36 -77 -91 -152q-52 -71 -128 -133q-12 -10 -31 -22
q-15 -6 -29 0q-18 12 -14 30q3 28 6 36q11 46 28 87q22 43 38 82l140 309q21 38 35 82q21 46 23 91q2 13 -2 22q-2 18 -13 27q-27 26 -74 -11q-128 -93 -252 -202l-11 -11q-10 -8 -22 -29q-4 -10 -2 -34q8 -15 19 -25q19 -10 33 -4q16 6 21 10l99 46q18 9 9 18q1 18 -18 8
l-102 -48q-7 -2 -17 -6q-4 -2 -11 2q-3 2 -5 6q-2 12 0 17q6 8 11 14q8 9 15 14q124 108 252 201q8 8 20 14q12 7 16 -1q8 -5 5 -26q-3 -43 -19 -84q-12 -40 -33 -80l-142 -309q-16 -39 -37 -84q-16 -40 -32 -88q0 -8 -3 -22q-3 -11 -2 -29q1 -15 7 -26q10 -15 19 -24
q15 -5 27 -6q34 3 67 33q73 58 125 130q14 18 29.5 44.5t29 51t23 43t10.5 20.5q-1 -3 -12 -37.5t-17 -58.5q-9 -48 -19 -98q-2 -32 0 -44q4 -13 11 -25q8 -10 22 -17q13 -3 16 -1q25 1 50 27q35 41 45 87q6 14 -10 17q-11 7 -18 -11q-10 -43 -38 -74q-8 -8 -16 -14t-20 -5
q-4 1 -5 2.5t-5 4.5q-4 8 -6 17q-1 5 -1 15t2 18q5 36 14 85zM251 664q-3 11 -17 42q-3 4 -7 7q-8 2 -12 -2l-45 -32q-9 -7 -2 -17l4 -4q3 -3 6 -2q4 0 8 3l33 24q4 -13 8 -25l4 -12q2 -4 6 -6q9 -2 10 0q12 6 7 15q-1 2 -3 9z" />
    <glyph glyph-name="Udieresis" unicode="&#xdc;" horiz-adv-x="598" 
d="M407 53q12 51 22 94q4 22 8 37t10 33l12 38q29 65 47 127q22 66 42 128q2 10 4 21q0 8 1 18.5t1 16.5q-1 14 -14 12q-9 -2 -11.5 -4t-2.5 -10v-12v-16q-2 -12 -4 -17q-24 -78 -53 -163q-15 -42 -33 -86.5t-39 -86.5q-36 -77 -91 -152q-52 -71 -128 -133q-12 -10 -31 -22
q-15 -6 -29 0q-18 12 -14 30q3 28 6 36q11 46 28 87q22 43 38 82l140 309q21 38 35 82q21 46 23 91q2 13 -2 22q-2 18 -13 27q-27 26 -74 -11q-128 -93 -252 -202l-11 -11q-10 -8 -22 -29q-4 -10 -2 -34q8 -15 19 -25q19 -10 33 -4q16 6 21 10l99 46q18 9 9 18q1 18 -18 8
l-102 -48q-7 -2 -17 -6q-4 -2 -11 2q-3 2 -5 6q-2 12 0 17q6 8 11 14q8 9 15 14q124 108 252 201q8 8 20 14q12 7 16 -1q8 -5 5 -26q-3 -43 -19 -84q-12 -40 -33 -80l-142 -309q-16 -39 -37 -84q-16 -40 -32 -88q0 -8 -3 -22q-3 -11 -2 -29q1 -15 7 -26q10 -15 19 -24
q15 -5 27 -6q34 3 67 33q73 58 125 130q14 18 29.5 44.5t29 51t23 43t10.5 20.5q-1 -3 -12 -37.5t-17 -58.5q-9 -48 -19 -98q-2 -32 0 -44q4 -13 11 -25q8 -10 22 -17q13 -3 16 -1q25 1 50 27q35 41 45 87q6 14 -10 17q-11 7 -18 -11q-10 -43 -38 -74q-8 -8 -16 -14t-20 -5
q-4 1 -5 2.5t-5 4.5q-4 8 -6 17q-1 5 -1 15t2 18q5 36 14 85zM427 647q8 0 15 6.5t7 15.5t-7 15t-15 6q-9 0 -16 -6t-7 -15q0 -10 7 -16t16 -6zM489 647q8 0 15 6.5t7 15.5t-7 15t-15 6q-9 0 -15.5 -6t-6.5 -15t6.5 -15.5t15.5 -6.5z" />
    <glyph glyph-name="Yacute" unicode="&#xdd;" horiz-adv-x="388" 
d="M431 631q-3 3 -9.5 3t-9.5 -9q-15 -21 -31 -48q-20 -31 -53 -81q-32 -46 -59 -76q-34 -34 -73 -63q-38 -26 -97 -39v0q-3 2 -6 3q-1 3 1 8q4 11 7 16l161 281q34 64 5 89q-9 12 -30.5 14.5t-50.5 -12.5q-76 -32 -142 -86q-38 -33 -32 -71q8 -20 28 -28q21 -6 39 -2
q18 6 30 16q15 14 23 25q6 10 -1 16q-5 7 -17 2q-9 -9 -21 -20q-9 -10 -23 -14q-8 -1 -20 2q-10 3 -14 12q-4 19 24 40q64 52 136 85q14 7 29 8q15 4 22 -5q15 -17 -9 -57l-160 -283q-4 -10 -8 -23q-2 -14 0 -27q6 -10 16 -14q9 -4 11.5 -3t9.5 2q63 15 103 41q44 31 79 70
q9 10 20.5 30.5t12.5 21.5q-12 -23 -20 -38.5t-16 -33t-14 -30.5q-26 -63 -51 -124q-33 -89 -74 -178q-50 -25 -92 -64q-29 -30 -42 -53t-17 -39q-3 -10 -2.5 -22.5t6.5 -16.5q10 -15 24 -19q21 -1 32 6q16 11 35 40q44 75 76 151q25 12 37 21q36 19 59.5 33.5t48.5 33.5
q58 44 81 71q6 5 6 21q-1 8 -12 13q-21 -24 -42 -44.5t-48 -39.5q-26 -18 -50 -33.5t-55 -33.5l-9 -6q2 6 9.5 23t17 39t19.5 46t18 43q34 87 70 174q39 87 86 168q17 28 18 31q11 12 14 18q7 12 -4 19zM68 -104q-10 -16 -24 -30q-5 -2 -14 -2q-9 3 -10.5 11.5t-0.5 11.5
q0 9 18 37t31 38q15 14 35 30t29 21q-6 -13 -26 -50t-38 -67zM394 778q-24 -15 -54 -24q-4 -2 -8 -6q-3 -4 -3 -13q1 -2 2 -5t6 -4q10 -1 11 0q37 8 62 27q5 5 5.5 6.5t-0.5 10.5q-9 13 -13 9q-4 1 -8 -1z" />
    <glyph glyph-name="agrave" unicode="&#xe0;" 
d="M143.733 91.0967q14.2939 14.7197 24.4902 24.5205q10.1953 9.80078 20.4111 20.6006q10.2158 10.8008 15.334 16.7002q3.05859 2.94043 10.2256 11.3008q7.16602 8.35938 10.2451 12.2998q3.05859 2.93945 7.17676 8.85938t6.17676 8.87988
q4.11816 5.91992 5.33496 16.8984q0.119141 5.99902 -2.32129 9.04785t-8.32031 9.16602q-20.5303 -26.5996 -25.6484 -32.499q-9.21582 -10.8203 -19.4512 -22.6201q-3.07812 -3.94043 -13.7939 -14.7305q-10.7158 -10.791 -21.4512 -22.5811t-27.0889 -29.4697
q-9.17578 -8.82129 -16.1348 -6.68262q-1.95996 2.03906 -6.86035 7.13672q-1.86133 7.03906 0.316406 15.9971q2.43457 21.957 8.94727 47.833q8.53223 26.8369 21.8867 44.5771q5.27539 13.8984 -2.64355 18.0557q-2.98047 1.05957 -3.9209 4.07812
q-0.94043 3.01953 -3.97949 1.0791q-1.78125 11.0381 -7.68164 16.1553q-14.543 23.293 -42.5771 21.8467q-14.9971 0.296875 -31.1523 -7.38574q-12.1162 -5.76172 -25.3115 -15.5029q-9.19629 -9.81934 -30.8447 -42.3984q-7.17676 -8.86035 -11.4932 -24.7783
q-5.33496 -16.8975 -3.63184 -31.9346q2.72266 -14.0566 9.50391 -25.1934q9.82031 -9.19629 15.8193 -9.31445q5.97852 -1.11816 8.99805 -0.177734q21.9766 -1.43555 48.3672 18.0469q28.4297 21.4424 38.7246 36.2422q-6.23633 -11.8799 -5.23633 -11.8994
q-1.05957 -2.97949 -4.27637 -13.918t-3.39551 -19.9375q-2.2959 -14.957 1.38672 -31.0332q9.70215 -15.1953 17.6016 -20.3525q6.93945 -3.1377 13.9385 -3.27637q16.0557 2.68262 32.3301 16.3643zM46.2148 167.041q-27.4502 -22.4619 -44.4268 -21.126
q-1 0.0195312 -3.94043 3.07812q-0.979492 1.01953 -0.479492 1.00977q0.499023 -0.00976562 -2.4209 4.04883q-3.82129 9.07715 1.47461 23.9756t10.4727 23.7979q10.4131 20.7988 25.6875 34.499q18.3135 15.6416 38.29 14.2461q14.0166 0.722656 21.7783 -11.4326
q7.83984 -8.15723 4.56348 -22.0947q-18.4316 -21.6406 -50.999 -50.002zM384.12 545.793q1.70898 5.75098 -0.363281 11.0615q-2.07227 5.31152 -3.41992 7.79883q-24.8447 14.6885 -44.249 37.1504q-4.32617 6.50195 -10.1162 4.57227
q-5.79004 -1.93066 -7.03418 -2.60352q-8.98926 -5.67383 -3.21191 -17.8242q21.1396 -27.1504 50.4922 -44.2227q11.5029 -3.41992 17.9023 4.06738z" />
    <glyph glyph-name="aacute" unicode="&#xe1;" 
d="M146 89q14 15 24 25t20 21t15 17q3 3 10 11.5t10 12.5q3 3 7 9l6 9q4 6 5 17q0 6 -2.5 9t-8.5 9q-20 -27 -25 -33q-9 -11 -19 -23q-3 -4 -13.5 -15t-21 -23t-26.5 -30q-9 -9 -16 -7l-7 7q-2 7 0 16q2 22 8 48q8 27 21 45q5 14 -3 18q-3 1 -4 4t-4 1q-2 11 -8 16
q-15 23 -43 21q-15 0 -31 -8q-12 -6 -25 -16q-9 -10 -30 -43q-7 -9 -11 -25q-5 -17 -3 -32q3 -14 10 -25q10 -9 16 -9q6 -1 9 0q22 -1 48 19q28 22 38 37q-6 -12 -5 -12q-1 -3 -4 -14t-3 -20q-2 -15 2 -31q10 -15 18 -20q7 -3 14 -3q16 3 32 17zM47 163q-27 -23 -44 -22
q-1 0 -4 3q-1 1 -0.5 1t-2.5 4q-4 9 1 24t10 24q10 21 25 35q18 16 38 15q14 1 22 -11q8 -8 5 -22q-18 -22 -50 -51zM112 594q-24 -15 -54 -24q-4 -2 -8 -6q-3 -4 -3 -13q1 -2 2 -5t6 -4q10 -1 11 0q37 8 62 27q5 5 5.5 6.5t-0.5 10.5q-9 13 -13 9q-4 1 -8 -1z" />
    <glyph glyph-name="acircumflex" unicode="&#xe2;" 
d="M146 89q14 15 24 25t20 21t15 17q3 3 10 11.5t10 12.5q3 3 7 9l6 9q4 6 5 17q0 6 -2.5 9t-8.5 9q-20 -27 -25 -33q-9 -11 -19 -23q-3 -4 -13.5 -15t-21 -23t-26.5 -30q-9 -9 -16 -7l-7 7q-2 7 0 16q2 22 8 48q8 27 21 45q5 14 -3 18q-3 1 -4 4t-4 1q-2 11 -8 16
q-15 23 -43 21q-15 0 -31 -8q-12 -6 -25 -16q-9 -10 -30 -43q-7 -9 -11 -25q-5 -17 -3 -32q3 -14 10 -25q10 -9 16 -9q6 -1 9 0q22 -1 48 19q28 22 38 37q-6 -12 -5 -12q-1 -3 -4 -14t-3 -20q-2 -15 2 -31q10 -15 18 -20q7 -3 14 -3q16 3 32 17zM47 163q-27 -23 -44 -22
q-1 0 -4 3q-1 1 -0.5 1t-2.5 4q-4 9 1 24t10 24q10 21 25 35q18 16 38 15q14 1 22 -11q8 -8 5 -22q-18 -22 -50 -51zM138 554q-3 11 -17 42q-3 4 -7 7q-8 2 -12 -2l-45 -32q-9 -7 -2 -17l4 -4q3 -3 6 -2q4 0 8 3l33 24q4 -13 8 -25l4 -12q2 -4 6 -6q9 -2 10 0q12 6 7 15
q-1 2 -3 9z" />
    <glyph glyph-name="atilde" unicode="&#xe3;" 
d="M146 89q14 15 24 25t20 21t15 17q3 3 10 11.5t10 12.5q3 3 7 9l6 9q4 6 5 17q0 6 -2.5 9t-8.5 9q-20 -27 -25 -33q-9 -11 -19 -23q-3 -4 -13.5 -15t-21 -23t-26.5 -30q-9 -9 -16 -7l-7 7q-2 7 0 16q2 22 8 48q8 27 21 45q5 14 -3 18q-3 1 -4 4t-4 1q-2 11 -8 16
q-15 23 -43 21q-15 0 -31 -8q-12 -6 -25 -16q-9 -10 -30 -43q-7 -9 -11 -25q-5 -17 -3 -32q3 -14 10 -25q10 -9 16 -9q6 -1 9 0q22 -1 48 19q28 22 38 37q-6 -12 -5 -12q-1 -3 -4 -14t-3 -20q-2 -15 2 -31q10 -15 18 -20q7 -3 14 -3q16 3 32 17zM47 163q-27 -23 -44 -22
q-1 0 -4 3q-1 1 -0.5 1t-2.5 4q-4 9 1 24t10 24q10 21 25 35q18 16 38 15q14 1 22 -11q8 -8 5 -22q-18 -22 -50 -51zM158 567q0 10 -9 18q-5 3 -13 3l-3 -3h-1q-3 -2 -6.5 -3.5t-1.5 -6.5q2 -9 13 -7q-1 1 0 0v-1q-1 -4 -5 -6q-3 -1 -7 -1q-10 0 -20 6q-4 0 -8 2v0
q-8 10 -17 15q-8 3 -16 3q-12 0 -22 -5t-15 -17q-1 -6 1 -13q4 -7 12 -9l-1 1q1 -5 4 -5q5 1 7 8v1q0 1 2 2.5t1 3.5q0 1 -4 2.5t-5 1.5h1h1q2 3 5 4q7 4 13 5q5 0 9 -3q3 -2 14 -8q3 -2 5 -4q16 -9 33 -9v0q9 0 16 3v0q15 8 17 22z" />
    <glyph glyph-name="adieresis" unicode="&#xe4;" 
d="M146 89q14 15 24 25t20 21t15 17q3 3 10 11.5t10 12.5q3 3 7 9l6 9q4 6 5 17q0 6 -2.5 9t-8.5 9q-20 -27 -25 -33q-9 -11 -19 -23q-3 -4 -13.5 -15t-21 -23t-26.5 -30q-9 -9 -16 -7l-7 7q-2 7 0 16q2 22 8 48q8 27 21 45q5 14 -3 18q-3 1 -4 4t-4 1q-2 11 -8 16
q-15 23 -43 21q-15 0 -31 -8q-12 -6 -25 -16q-9 -10 -30 -43q-7 -9 -11 -25q-5 -17 -3 -32q3 -14 10 -25q10 -9 16 -9q6 -1 9 0q22 -1 48 19q28 22 38 37q-6 -12 -5 -12q-1 -3 -4 -14t-3 -20q-2 -15 2 -31q10 -15 18 -20q7 -3 14 -3q16 3 32 17zM47 163q-27 -23 -44 -22
q-1 0 -4 3q-1 1 -0.5 1t-2.5 4q-4 9 1 24t10 24q10 21 25 35q18 16 38 15q14 1 22 -11q8 -8 5 -22q-18 -22 -50 -51zM46 541q8 0 15 6.5t7 15.5t-7 15t-15 6q-9 0 -16 -6t-7 -15q0 -10 7 -16t16 -6zM108 541q8 0 15 6.5t7 15.5t-7 15t-15 6q-9 0 -15.5 -6t-6.5 -15
t6.5 -15.5t15.5 -6.5z" />
    <glyph glyph-name="aring" unicode="&#xe5;" 
d="M146 89q14 15 24 25t20 21t15 17q3 3 10 11.5t10 12.5q3 3 7 9l6 9q4 6 5 17q0 6 -2.5 9t-8.5 9q-20 -27 -25 -33q-9 -11 -19 -23q-3 -4 -13.5 -15t-21 -23t-26.5 -30q-9 -9 -16 -7l-7 7q-2 7 0 16q2 22 8 48q8 27 21 45q5 14 -3 18q-3 1 -4 4t-4 1q-2 11 -8 16
q-15 23 -43 21q-15 0 -31 -8q-12 -6 -25 -16q-9 -10 -30 -43q-7 -9 -11 -25q-5 -17 -3 -32q3 -14 10 -25q10 -9 16 -9q6 -1 9 0q22 -1 48 19q28 22 38 37q-6 -12 -5 -12q-1 -3 -4 -14t-3 -20q-2 -15 2 -31q10 -15 18 -20q7 -3 14 -3q16 3 32 17zM47 163q-27 -23 -44 -22
q-1 0 -4 3q-1 1 -0.5 1t-2.5 4q-4 9 1 24t10 24q10 21 25 35q18 16 38 15q14 1 22 -11q8 -8 5 -22q-18 -22 -50 -51zM107 858q-14 0 -24 -10.5t-10 -23.5q0 -14 10 -23.5t24 -9.5t23.5 9t9.5 24q0 13 -10 23.5t-23 10.5zM107 814q-10 1 -11 10q1 10 11 11q9 -1 10 -11
q-1 -9 -10 -10z" />
    <glyph glyph-name="ae" unicode="&#xe6;" horiz-adv-x="398" 
d="M389 157q3 6 7 19.5t7 17.5q5 11 5 20q0 7 -2.5 8.5t-8.5 5.5q-5 -5 -18 -31q-6 -15 -8.5 -21t-3.5 -10q-6 -15 -15.5 -30t-21.5 -26q-41 -31 -73 6q-16 16 -21 39q21 -12 42 -3.5t33 21.5t10.5 30.5t-16.5 33.5q-15 15 -40 13q-15 -3 -29 -13t-20 -22q-10 -19 -9 -40
q-5 -5 -11 -8q-12 -9 -29 -12t-30 6q-8 5 -12 13q3 8 7 17q6 10 -4 17q-8 4 -11 -1q-1 5 -5.5 9t-7.5 9q-16 21 -44 23q-16 0 -33.5 -6t-30.5 -18q-12 -12 -35 -51q-6 -15 -12.5 -31t-4.5 -31q4 -22 15.5 -30.5t18.5 -9.5q12 -3 28.5 5.5t34.5 21t33.5 27t24.5 24.5
q0 -4 1.5 -0.5t5.5 7.5q8 -9 17 -16q16 -10 35 -10q14 0 32.5 9t19.5 9q3 -15 10.5 -28t16.5 -22q20 -24 46 -27.5t53 13.5q6 3 11 7q15 14 25 31.5t17 34.5zM91 178q-21 -25 -55.5 -55.5t-54.5 -25.5q-1 0 -5 3t-6 15q-2 11 3 23l10 24q19 33 29 43q20 17 44 18h2
q16 -2 26 -14q8 -9 9 -22q-3 -9 -2 -9zM239 204q9 18 29 22q9 2 18 -6q16 -16 6 -30q-9 -10 -23.5 -14.5t-34.5 12.5v0q2 8 5 16z" />
    <glyph glyph-name="ccedilla" unicode="&#xe7;" horiz-adv-x="190" 
d="M195 194q4 6 5 19q-3 13 -13 15q-11 -20 -26 -44.5t-34.5 -44t-43.5 -29.5t-52 -1q-15 7 -23 22q-7 17 -3.5 40.5t11.5 41.5q4 9 15.5 22.5t28.5 15.5q9 1 19 -7t12 -17q2 -13 13 -11q5 1 9 5t3 10q-2 21 -21 33.5t-37 11.5q-26 -2 -41 -21t-22 -33q-10 -21 -15 -50.5
t5 -52.5q6 -14 13 -21t21 -12q3 -2 4 -2q-3 -10 -3 -12t-0.5 -6.5t4.5 -5.5q9 -1 11 4q2 2 2 1q4 -4 2 -12q-1 -9 -5 -12t-8 -2q-1 1 0 2q-3 6 -15 8q-5 -3 -5.5 -4.5l-1.5 -4.5q2 -12 8 -15q4 -3 11 -5v0q3 -1 6 0v0q11 -2 19 6q10 10 12 24q0 1 -0.5 7t-0.5 10q-1 6 -3 8
l-5 5q-2 1 1 0.5t6 -0.5q27 0 49 14t40 32t30 37t18 31z" />
    <glyph glyph-name="egrave" unicode="&#xe8;" 
d="M112 310q-2 3 -2.5 5t-6.5 6q-20 12 -36 27q-4 6 -10 5.5t-11 -5.5q-5 -6 -3.5 -12.5t3.5 -8.5q22 -19 45 -31l6 -2q11 4 15 9v7zM182 135q8 7 24.5 22.5t31.5 35.5q8 12 5 22q-3 9 -12 12q-19 -33 -57 -67q-20 -17 -32.5 -25.5t-28.5 -17.5q-9 -6 -29.5 -12t-38.5 -6
q-19 0 -26 5t-13 10q-6 6 -6.5 10t-2.5 9q-4 13 0 28q3 6 4.5 18t8.5 20q3 -8 6 -10t8 -5q10 -8 24 -6q17 1 31 12q17 10 25 29q8 15 6 31q0 9 -6 17q-8 11 -32 11q-21 1 -39 -12q-20 -16 -34 -36q-7 -12 -12.5 -20.5t-10.5 -20.5q-4 -13 -6.5 -24t-2.5 -24q1 -25 16 -42
q16 -16 23.5 -19.5t21.5 -5.5q44 -8 99 23q39 22 55 38zM46 245q28 13 39 2q1 -2 0 -7t-3 -8q-16 -28 -36 -27q-6 0 -11 4.5t-7 14.5q13 18 18 21z" />
    <glyph glyph-name="eacute" unicode="&#xe9;" 
d="M51 292q29 4 53 16l2 3q6 11 3 19q-4 4 -7 4q-10 4 -14 -3q-21 -8 -42 -11q-13 -2 -12 -16q2 -9 8 -10.5t9 -1.5zM182 135q8 7 24.5 22.5t31.5 35.5q8 12 5 22q-3 9 -12 12q-19 -33 -57 -67q-20 -17 -32.5 -25.5t-28.5 -17.5q-9 -6 -29.5 -12t-38.5 -6q-19 0 -26 5
t-13 10q-6 6 -6.5 10t-2.5 9q-4 13 0 28q3 6 4.5 18t8.5 20q3 -8 6 -10t8 -5q10 -8 24 -6q17 1 31 12q17 10 25 29q8 15 6 31q0 9 -6 17q-8 11 -32 11q-21 1 -39 -12q-20 -16 -34 -36q-7 -12 -12.5 -20.5t-10.5 -20.5q-4 -13 -6.5 -24t-2.5 -24q1 -25 16 -42
q16 -16 23.5 -19.5t21.5 -5.5q44 -8 99 23q39 22 55 38zM46 245q28 13 39 2q1 -2 0 -7t-3 -8q-16 -28 -36 -27q-6 0 -11 4.5t-7 14.5q13 18 18 21z" />
    <glyph glyph-name="ecircumflex" unicode="&#xea;" horiz-adv-x="235" 
d="M182 135q8 7 24.5 22.5t31.5 35.5q8 12 5 22q-3 9 -12 12q-19 -33 -57 -67q-20 -17 -32.5 -25.5t-28.5 -17.5q-9 -6 -29.5 -12t-38.5 -6q-19 0 -26 5t-13 10q-6 6 -6.5 10t-2.5 9q-4 13 0 28q3 6 4.5 18t8.5 20q3 -8 6 -10t8 -5q10 -8 24 -6q17 1 31 12q17 10 25 29
q8 15 6 31q0 9 -6 17q-8 11 -32 11q-21 1 -39 -12q-20 -16 -34 -36q-7 -12 -12.5 -20.5t-10.5 -20.5q-4 -13 -6.5 -24t-2.5 -24q1 -25 16 -42q16 -16 23.5 -19.5t21.5 -5.5q44 -8 99 23q39 22 55 38zM46 245q28 13 39 2q1 -2 0 -7t-3 -8q-16 -28 -36 -27q-6 0 -11 4.5
t-7 14.5q13 18 18 21zM114 553q-3 11 -17 42q-3 4 -7 7q-8 2 -12 -2l-45 -32q-9 -7 -2 -17l4 -4q3 -3 6 -2q4 0 8 3l33 24q4 -13 8 -25l4 -12q2 -4 6 -6q9 -2 10 0q12 6 7 15q-1 2 -3 9z" />
    <glyph glyph-name="edieresis" unicode="&#xeb;" horiz-adv-x="235" 
d="M182 135q8 7 24.5 22.5t31.5 35.5q8 12 5 22q-3 9 -12 12q-19 -33 -57 -67q-20 -17 -32.5 -25.5t-28.5 -17.5q-9 -6 -29.5 -12t-38.5 -6q-19 0 -26 5t-13 10q-6 6 -6.5 10t-2.5 9q-4 13 0 28q3 6 4.5 18t8.5 20q3 -8 6 -10t8 -5q10 -8 24 -6q17 1 31 12q17 10 25 29
q8 15 6 31q0 9 -6 17q-8 11 -32 11q-21 1 -39 -12q-20 -16 -34 -36q-7 -12 -12.5 -20.5t-10.5 -20.5q-4 -13 -6.5 -24t-2.5 -24q1 -25 16 -42q16 -16 23.5 -19.5t21.5 -5.5q44 -8 99 23q39 22 55 38zM46 245q28 13 39 2q1 -2 0 -7t-3 -8q-16 -28 -36 -27q-6 0 -11 4.5
t-7 14.5q13 18 18 21zM27 529q8 0 15 6.5t7 15.5t-7 15t-15 6q-9 0 -16 -6t-7 -15q0 -10 7 -16t16 -6zM89 529q8 0 15 6.5t7 15.5t-7 15t-15 6q-9 0 -15.5 -6t-6.5 -15t6.5 -15.5t15.5 -6.5z" />
    <glyph glyph-name="igrave" unicode="&#xec;" horiz-adv-x="216" 
d="M140 102q30 27 56 60q10 13 13 17q1 1 5 6t7 8q7 8 6 19q-2 10 -5.5 11.5t-6.5 5.5q-21 -27 -25 -33q-4 -4 -14 -16q-15 -16 -27 -30q-11 -14 -26 -27q-27 -27 -64 -47q-14 -4 -31 -7q-12 1 -23 10q-15 23 -12 45q8 28 17 55q6 20 11 35t-12 19q-6 0 -14 -11v0
q-3 -16 -11 -32q-3 -8 -9 -28q-5 -20 -11 -36q-2 -30 18 -62v-1q20 -22 46 -21q24 4 43 15h-1q41 18 70 45zM20 244q9 0 12 5q4 5 4 11q0 10 -4 12q-3 7 -12 6q-12 0 -19 -18q7 -16 19 -16zM67 315q-27 7 -53 23q-6 5 -10.5 1.5t-6.5 -4.5q-7 -8 2 -18q27 -20 61 -28
q12 0 16 9q0 6 -3.5 10.5t-5.5 6.5z" />
    <glyph glyph-name="iacute" unicode="&#xed;" horiz-adv-x="216" 
d="M207 177q1 1 6 7t8 9q7 8 6 19q-2 10 -5.5 11.5t-6.5 5.5q-21 -27 -25 -33q-4 -4 -14 -16q-15 -16 -27 -30q-11 -14 -26 -27q-27 -27 -64 -47q-14 -4 -31 -7q-12 1 -23 10q-15 23 -12 45q8 28 17 55q6 20 11 35t-12 19q-6 0 -14 -11v0q-3 -16 -11 -32q-3 -8 -9 -28
q-5 -20 -11 -36q-2 -30 18 -62v-1q20 -22 46 -21q24 4 43 15h-1q41 18 70 45q30 27 56 60q8 12 11 15zM20 244q9 0 12 5q4 5 4 11q0 10 -4 12q-3 7 -12 6q-12 0 -19 -18q7 -16 19 -16zM72 332q5 5 5.5 6.5t-0.5 10.5q-9 13 -13 9q-4 0 -8 -1q-24 -15 -54 -24l-8 -6
q-3 -4 -3 -13q2 -2 3 -5t5 -4q10 -1 11 0q37 7 62 27z" />
    <glyph glyph-name="icircumflex" unicode="&#xee;" horiz-adv-x="216" 
d="M209 179q1 1 5 6t7 8q7 8 6 19q-2 10 -5.5 11.5t-6.5 5.5q-21 -27 -25 -33q-4 -4 -14 -16q-15 -16 -27 -30q-11 -14 -26 -27q-27 -27 -64 -47q-14 -4 -31 -7q-12 1 -23 10q-15 23 -12 45q8 28 17 55q6 20 11 35t-12 19q-6 0 -14 -11v0q-3 -16 -11 -32q-3 -8 -9 -28
q-5 -20 -11 -36q-2 -30 18 -62v-1q20 -22 46 -21q24 4 43 15h-1q41 18 70 45q30 27 56 60q10 13 13 17zM20 244q9 0 12 5q4 5 4 11q0 10 -4 12q-3 7 -12 6q-12 0 -19 -18q7 -16 19 -16zM46 323q4 -11 7 -22q3 -8 4 -11l1 -4l4 -1q9 -1 10 0q7 3 7.5 6t-0.5 8q-3 6 -3 8
q-3 10 -16 38q-2 4 -6 7q-8 2 -12 -2l-41 -29q-9 -7 -2 -16l4 -4q3 -3 6 -2q3 -1 7 3z" />
    <glyph glyph-name="idieresis" unicode="&#xef;" horiz-adv-x="216" 
d="M221 193q7 8 6 19q-2 10 -5.5 11.5t-6.5 5.5q-21 -27 -25 -33q-4 -4 -14 -16q-15 -16 -27 -30q-11 -14 -26 -27q-27 -27 -64 -47q-14 -4 -31 -7q-12 1 -23 10q-15 23 -12 45q8 28 17 55q6 20 11 35t-12 19q-6 0 -14 -11v0q-3 -16 -11 -32q-3 -8 -9 -28q-5 -20 -11 -36
q-2 -30 18 -62v-1q20 -22 46 -21q24 4 43 15h-1q41 18 70 45q30 27 56 60q10 13 13 17q1 1 5 6t7 8zM20 244q9 0 12 5q4 5 4 11q0 10 -4 12q-3 7 -12 6q-12 0 -19 -18q7 -16 19 -16zM25 310q11 -3 16 11q1 13 -11 17q-6 1 -12 -2t-7 -9q-2 -6 3 -11t11 -6zM55 304
q11 -3 16 11q1 13 -11 17q-12 2 -16 -12q-1 -14 11 -16z" />
    <glyph glyph-name="ntilde" unicode="&#xf1;" horiz-adv-x="393" 
d="M258 106q-8 -10 -23 -19q-6 -3 -16.5 -11.5t-18.5 -8.5q-6 -1 -9 0t-11 8q-5 9 -6 20q0 11 1 23v9q3 19 -1 36q-2 19 -15 33q-13 16 -32 21q-6 2 -17 2t-21 -2q-16 -3 -27.5 -10.5t-23.5 -19.5q-11 -11 -14.5 -17t-6.5 -11q-7 -11 -13 -20q-2 -3 -2 -6t-2 -2q-2 2 -1 8
q2 6 5.5 25.5t6.5 26.5q1 5 2 8.5t7 18.5q2 11 -13 13q-10 -1 -12 -9l-5 -15l-5 -14q-3 -9 -7.5 -27.5t-6.5 -25.5q-1 -8 1 -17t6 -15q5 -6 7.5 -7t9.5 -1q9 0 17 4q6 3 6.5 5t4.5 8q6 9 14 24q10 15 20 27q9 11 16.5 15.5t19.5 7.5q28 5 44 -14q8 -7 10 -21t0 -27v-10
q2 -12 0 -27q2 -18 10 -34q19 -22 46 -19q9 0 22.5 8t22.5 15q14 11 27 22q11 12 25 26q8 9 14 15l60 68q7 11 6 20q-1 13 -14 13l-72 -82l-13 -13q-9 -9 -23 -25zM195 776q0 10 -9 18q-5 3 -13 3l-3 -3h-1q-3 -2 -6.5 -3.5t-1.5 -6.5q2 -9 13 -7q-1 1 0 0v-1q-1 -4 -5 -6
q-3 -1 -7 -1q-10 0 -20 6q-4 0 -8 2v0q-8 10 -17 15q-8 3 -16 3q-12 0 -22 -5t-15 -17q-1 -6 1 -13q4 -7 12 -9l-1 1q1 -5 4 -5q5 1 7 8v1q0 1 2 2.5t1 3.5q0 1 -4 2.5t-5 1.5h1h1q2 3 5 4q7 4 13 5q5 0 9 -3q3 -2 14 -8q3 -2 5 -4q16 -9 33 -9v0q9 0 16 3v0q15 8 17 22z
" />
    <glyph glyph-name="ograve" unicode="&#xf2;" horiz-adv-x="195" 
d="M139 155q19 1 38 15q20 17 23 24q6 11 5 19q0 3 -5 8t-8 5q-27 -46 -65 -44q-10 4 -17 10q-9 8 -14 18q-2 4 -3 7q-3 7 -11 15q-4 2 -6.5 4t-8.5 4q-13 4 -24 -1q-13 -4 -10 -18q1 -12 14 -18q14 -5 28 -4q3 -3 0 -9q0 -22 -10 -45q-9 -21 -25 -39q-7 -8 -20 -16
q-9 -5 -20 -1q-7 3 -11 12q-2 7 -3.5 11.5t-1.5 12.5q2 23 10 44q6 10 10 19q4 10 11 21q6 13 -4 18q-9 5 -16 -4q-15 -22 -25 -47t-10 -51q0 -9 2 -19t4 -17q9 -18 25 -24q9 -3 18 -4q16 1 28 10q15 10 22 19q19 21 28 47q9 19 10 28q2 -3 8.5 -4.5t12.5 -3.5q3 -1 10 -2
t11 0zM57 224v0q-3 -5 -1 -5q2 1 5 -1q3 2 4 1q-1 1 -2 3q-2 0 -4 2h-2zM86 528q0 6 -3.5 10.5t-5.5 6.5q-28 7 -53 23q-6 5 -11 1.5t-6 -4.5q-7 -8 2 -18q28 -20 61 -28q12 0 16 9z" />
    <glyph glyph-name="oacute" unicode="&#xf3;" horiz-adv-x="195" 
d="M139 155q19 1 38 15q20 17 23 24q6 11 5 19q0 3 -5 8t-8 5q-27 -46 -65 -44q-10 4 -17 10q-9 8 -14 18q-2 4 -3 7q-3 7 -11 15q-4 2 -6.5 4t-8.5 4q-13 4 -24 -1q-13 -4 -10 -18q1 -12 14 -18q14 -5 28 -4q3 -3 0 -9q0 -22 -10 -45q-9 -21 -25 -39q-7 -8 -20 -16
q-9 -5 -20 -1q-7 3 -11 12q-2 7 -3.5 11.5t-1.5 12.5q2 23 10 44q6 10 10 19q4 10 11 21q6 13 -4 18q-9 5 -16 -4q-15 -22 -25 -47t-10 -51q0 -9 2 -19t4 -17q9 -18 25 -24q9 -3 18 -4q16 1 28 10q15 10 22 19q19 21 28 47q9 19 10 28q2 -3 8.5 -4.5t12.5 -3.5q3 -1 10 -2
t11 0zM57 224v0q-3 -5 -1 -5q2 1 5 -1q3 2 4 1q-1 1 -2 3q-2 0 -4 2h-2zM64 564q-24 -15 -54 -24q-4 -2 -8 -6q-3 -4 -3 -13q1 -2 2 -5t6 -4q10 -1 11 0q37 8 62 27q5 5 5.5 6.5t-0.5 10.5q-9 13 -13 9q-4 1 -8 -1z" />
    <glyph glyph-name="ocircumflex" unicode="&#xf4;" horiz-adv-x="195" 
d="M139 155q19 1 38 15q20 17 23 24q6 11 5 19q0 3 -5 8t-8 5q-27 -46 -65 -44q-10 4 -17 10q-9 8 -14 18q-2 4 -3 7q-3 7 -11 15q-4 2 -6.5 4t-8.5 4q-13 4 -24 -1q-13 -4 -10 -18q1 -12 14 -18q14 -5 28 -4q3 -3 0 -9q0 -22 -10 -45q-9 -21 -25 -39q-7 -8 -20 -16
q-9 -5 -20 -1q-7 3 -11 12q-2 7 -3.5 11.5t-1.5 12.5q2 23 10 44q6 10 10 19q4 10 11 21q6 13 -4 18q-9 5 -16 -4q-15 -22 -25 -47t-10 -51q0 -9 2 -19t4 -17q9 -18 25 -24q9 -3 18 -4q16 1 28 10q15 10 22 19q19 21 28 47q9 19 10 28q2 -3 8.5 -4.5t12.5 -3.5q3 -1 10 -2
t11 0zM57 224v0q-3 -5 -1 -5q2 1 5 -1q3 2 4 1q-1 1 -2 3q-2 0 -4 2h-2zM83 543q-3 11 -17 42q-3 4 -7 7q-8 2 -12 -2l-45 -32q-9 -7 -2 -17l4 -4q3 -3 6 -2q4 0 8 3l33 24q4 -13 8 -25l4 -12q2 -4 6 -6q9 -2 10 0q12 6 7 15q-1 2 -3 9z" />
    <glyph glyph-name="otilde" unicode="&#xf5;" horiz-adv-x="195" 
d="M139 155q19 1 38 15q20 17 23 24q6 11 5 19q0 3 -5 8t-8 5q-27 -46 -65 -44q-10 4 -17 10q-9 8 -14 18q-2 4 -3 7q-3 7 -11 15q-4 2 -6.5 4t-8.5 4q-13 4 -24 -1q-13 -4 -10 -18q1 -12 14 -18q14 -5 28 -4q3 -3 0 -9q0 -22 -10 -45q-9 -21 -25 -39q-7 -8 -20 -16
q-9 -5 -20 -1q-7 3 -11 12q-2 7 -3.5 11.5t-1.5 12.5q2 23 10 44q6 10 10 19q4 10 11 21q6 13 -4 18q-9 5 -16 -4q-15 -22 -25 -47t-10 -51q0 -9 2 -19t4 -17q9 -18 25 -24q9 -3 18 -4q16 1 28 10q15 10 22 19q19 21 28 47q9 19 10 28q2 -3 8.5 -4.5t12.5 -3.5q3 -1 10 -2
t11 0zM57 224v0q-3 -5 -1 -5q2 1 5 -1q3 2 4 1q-1 1 -2 3q-2 0 -4 2h-2zM106 810q0 10 -9 18q-5 3 -13 3l-3 -3h-1q-3 -2 -6.5 -3.5t-1.5 -6.5q2 -9 13 -7q-1 1 0 0v-1q-1 -4 -5 -6q-3 -1 -7 -1q-10 0 -20 6q-4 0 -8 2v0q-8 10 -17 15q-8 3 -16 3q-12 0 -22 -5t-15 -17
q-1 -6 1 -13q4 -7 12 -9l-1 1q1 -5 4 -5q5 1 7 8v1q0 1 2 2.5t1 3.5q0 1 -4 2.5t-5 1.5h1h1q2 3 5 4q7 4 13 5q5 0 9 -3q3 -2 14 -8q3 -2 5 -4q16 -9 33 -9v0q9 0 16 3v0q15 8 17 22z" />
    <glyph glyph-name="odieresis" unicode="&#xf6;" horiz-adv-x="195" 
d="M139 155q19 1 38 15q20 17 23 24q6 11 5 19q0 3 -5 8t-8 5q-27 -46 -65 -44q-10 4 -17 10q-9 8 -14 18q-2 4 -3 7q-3 7 -11 15q-4 2 -6.5 4t-8.5 4q-13 4 -24 -1q-13 -4 -10 -18q1 -12 14 -18q14 -5 28 -4q3 -3 0 -9q0 -22 -10 -45q-9 -21 -25 -39q-7 -8 -20 -16
q-9 -5 -20 -1q-7 3 -11 12q-2 7 -3.5 11.5t-1.5 12.5q2 23 10 44q6 10 10 19q4 10 11 21q6 13 -4 18q-9 5 -16 -4q-15 -22 -25 -47t-10 -51q0 -9 2 -19t4 -17q9 -18 25 -24q9 -3 18 -4q16 1 28 10q15 10 22 19q19 21 28 47q9 19 10 28q2 -3 8.5 -4.5t12.5 -3.5q3 -1 10 -2
t11 0zM57 224v0q-3 -5 -1 -5q2 1 5 -1q3 2 4 1q-1 1 -2 3q-2 0 -4 2h-2zM10 513q8 0 15 6.5t7 15.5t-7 15t-15 6q-9 0 -16 -6t-7 -15q0 -10 7 -16t16 -6zM72 513q8 0 15 6.5t7 15.5t-7 15t-15 6q-9 0 -15.5 -6t-6.5 -15t6.5 -15.5t15.5 -6.5z" />
    <glyph glyph-name="divide" unicode="&#xf7;" horiz-adv-x="239" 
d="M95 210q9 -1 16 4q8 8 9 16q2 8 -3 15q-5 8 -16 10q-9 1 -15 -5q-9 -4 -11 -14q-1 -8 4 -16t16 -10zM75 73q6 -2 8 -1t7 4q10 8 11 16q3 9 -5 16q-4 10 -15 10q-7 1 -15 -3q-8 -5 -10 -16q-1 -7 3 -15q5 -9 16 -11zM170 176l-152 23q-10 2 -14 -2q-4 -3 -7 -13
q-1 -6 1 -9t4 -5q6 -2 9 -5l155 -24q8 -1 11 3q5 3 9 13q2 9 -4 13q-2 4 -12 6z" />
    <glyph glyph-name="oslash" unicode="&#xf8;" horiz-adv-x="141" 
d="M117 185q3 31 -12 50q0 1 -2 2l16 23q4 4 2 9.5t-6 8.5q-11 4 -15 -3l-15 -23q-7 3 -14 5q-5 1 -13 0q-11 -1 -22 -5q-18 -8 -34 -24q-14 -14 -24 -30q-4 -8 -9 -20t-8 -23q-2 -9 -3.5 -15.5t-3.5 -16.5q2 -11 2 -16.5v-9.5q2 -9 4 -15q4 -6 7 -11l4 -2l-21 -32
q-4 -8 2 -16q4 -3 9 -3q5 1 28 39v0q11 -3 21 -2q6 0 12 2q26 7 50 33q18 20 32 49q4 11 8 21q3 14 5 25zM46 230q5 3 12 3q8 1 13 -1l-84 -142q-11 12 -7 34q5 18 8.5 32.5t10.5 28.5q8 15 19 27q13 12 28 18zM85 220q19 -26 -4 -72q-8 -20 -22.5 -41t-38.5 -27
q-11 -2 -15 0q24 43 39 69.5t27.5 48.5t13.5 22z" />
    <glyph glyph-name="ugrave" unicode="&#xf9;" horiz-adv-x="255" 
d="M177 157q-9 -4 -20 -4h-4q-9 3 -10 12q-5 13 -2 27t7 27q0 9 -1.5 12t-8.5 5q-10 5 -23 -8q-6 -9 -6 -8t-5 -9q-6 -9 -10 -17.5t-10 -18.5q-5 -11 -15 -24q-3 -5 -8.5 -12.5t-8.5 -11.5q-2 -3 -8.5 -9.5l-9.5 -9.5q-4 -4 -13 -10q-5 -2 -7 -2.5t-6 -0.5q-6 1 -12 5
q-3 2 -4.5 4t-4.5 9q-5 13 2 28q3 6 6 17t7 20q8 18 17 33q10 14 -4 20q-14 3 -20 -6q-9 -17 -18 -35q-7 -16 -15 -38q-6 -15 -5 -30.5t5 -23.5q8 -16 16 -20q16 -10 31 -11q18 3 26 8q14 7 18 13q6 4 11 10t8 9q4 4 10 12t9 13q13 16 16 25q4 9 7 17v-9t2 -8
q1 -14 11.5 -21.5t19.5 -10.5q5 -1 10 -1q15 0 28 5q8 3 15.5 8t10.5 8q15 13 23 21l8.5 8.5l5.5 5.5t6.5 7t5.5 7q4 8 7 18q-3 12 -14 15q-2 -2 -8 -10t-9 -11t-9.5 -10t-12.5 -13t-18.5 -15t-18.5 -11zM126 530q0 6 -3.5 10.5t-5.5 6.5q-28 7 -53 23q-6 5 -11 1.5t-6 -4.5
q-7 -8 2 -18q28 -20 61 -28q12 0 16 9z" />
    <glyph glyph-name="uacute" unicode="&#xfa;" horiz-adv-x="255" 
d="M177 157q-9 -4 -20 -4h-4q-9 3 -10 12q-5 13 -2 27t7 27q0 9 -1.5 12t-8.5 5q-10 5 -23 -8q-6 -9 -6 -8t-5 -9q-6 -9 -10 -17.5t-10 -18.5q-5 -11 -15 -24q-3 -5 -8.5 -12.5t-8.5 -11.5q-2 -3 -8.5 -9.5l-9.5 -9.5q-4 -4 -13 -10q-5 -2 -7 -2.5t-6 -0.5q-6 1 -12 5
q-3 2 -4.5 4t-4.5 9q-5 13 2 28q3 6 6 17t7 20q8 18 17 33q10 14 -4 20q-14 3 -20 -6q-9 -17 -18 -35q-7 -16 -15 -38q-6 -15 -5 -30.5t5 -23.5q8 -16 16 -20q16 -10 31 -11q18 3 26 8q14 7 18 13q6 4 11 10t8 9q4 4 10 12t9 13q13 16 16 25q4 9 7 17v-9t2 -8
q1 -14 11.5 -21.5t19.5 -10.5q5 -1 10 -1q15 0 28 5q8 3 15.5 8t10.5 8q15 13 23 21l8.5 8.5l5.5 5.5t6.5 7t5.5 7q4 8 7 18q-3 12 -14 15q-2 -2 -8 -10t-9 -11t-9.5 -10t-12.5 -13t-18.5 -15t-18.5 -11zM96 556q-24 -15 -54 -24q-4 -2 -8 -6q-3 -4 -3 -13q1 -2 2 -5t6 -4
q10 -1 11 0q37 8 62 27q5 5 5.5 6.5t-0.5 10.5q-9 13 -13 9q-4 1 -8 -1z" />
    <glyph glyph-name="ucircumflex" unicode="&#xfb;" horiz-adv-x="255" 
d="M177 157q-9 -4 -20 -4h-4q-9 3 -10 12q-5 13 -2 27t7 27q0 9 -1.5 12t-8.5 5q-10 5 -23 -8q-6 -9 -6 -8t-5 -9q-6 -9 -10 -17.5t-10 -18.5q-5 -11 -15 -24q-3 -5 -8.5 -12.5t-8.5 -11.5q-2 -3 -8.5 -9.5l-9.5 -9.5q-4 -4 -13 -10q-5 -2 -7 -2.5t-6 -0.5q-6 1 -12 5
q-3 2 -4.5 4t-4.5 9q-5 13 2 28q3 6 6 17t7 20q8 18 17 33q10 14 -4 20q-14 3 -20 -6q-9 -17 -18 -35q-7 -16 -15 -38q-6 -15 -5 -30.5t5 -23.5q8 -16 16 -20q16 -10 31 -11q18 3 26 8q14 7 18 13q6 4 11 10t8 9q4 4 10 12t9 13q13 16 16 25q4 9 7 17v-9t2 -8
q1 -14 11.5 -21.5t19.5 -10.5q5 -1 10 -1q15 0 28 5q8 3 15.5 8t10.5 8q15 13 23 21l8.5 8.5l5.5 5.5t6.5 7t5.5 7q4 8 7 18q-3 12 -14 15q-2 -2 -8 -10t-9 -11t-9.5 -10t-12.5 -13t-18.5 -15t-18.5 -11zM132 536q-3 11 -17 42q-3 4 -7 7q-8 2 -12 -2l-45 -32q-9 -7 -2 -17
l4 -4q3 -3 6 -2q4 0 8 3l33 24q4 -13 8 -25l4 -12q2 -4 6 -6q9 -2 10 0q12 6 7 15q-1 2 -3 9z" />
    <glyph glyph-name="udieresis" unicode="&#xfc;" horiz-adv-x="255" 
d="M177 157q-9 -4 -20 -4h-4q-9 3 -10 12q-5 13 -2 27t7 27q0 9 -1.5 12t-8.5 5q-10 5 -23 -8q-6 -9 -6 -8t-5 -9q-6 -9 -10 -17.5t-10 -18.5q-5 -11 -15 -24q-3 -5 -8.5 -12.5t-8.5 -11.5q-2 -3 -8.5 -9.5l-9.5 -9.5q-4 -4 -13 -10q-5 -2 -7 -2.5t-6 -0.5q-6 1 -12 5
q-3 2 -4.5 4t-4.5 9q-5 13 2 28q3 6 6 17t7 20q8 18 17 33q10 14 -4 20q-14 3 -20 -6q-9 -17 -18 -35q-7 -16 -15 -38q-6 -15 -5 -30.5t5 -23.5q8 -16 16 -20q16 -10 31 -11q18 3 26 8q14 7 18 13q6 4 11 10t8 9q4 4 10 12t9 13q13 16 16 25q4 9 7 17v-9t2 -8
q1 -14 11.5 -21.5t19.5 -10.5q5 -1 10 -1q15 0 28 5q8 3 15.5 8t10.5 8q15 13 23 21l8.5 8.5l5.5 5.5t6.5 7t5.5 7q4 8 7 18q-3 12 -14 15q-2 -2 -8 -10t-9 -11t-9.5 -10t-12.5 -13t-18.5 -15t-18.5 -11zM49 513q8 0 15 6.5t7 15.5t-7 15t-15 6q-9 0 -16 -6t-7 -15
q0 -10 7 -16t16 -6zM111 513q8 0 15 6.5t7 15.5t-7 15t-15 6q-9 0 -15.5 -6t-6.5 -15t6.5 -15.5t15.5 -6.5z" />
    <glyph glyph-name="yacute" unicode="&#xfd;" horiz-adv-x="246" 
d="M255 -42q-4 15 -19 5q-24 -10 -47 -22q-45 -19 -97 -51q-22 -12 -40 -23t-23 -16q0 1 3.5 11.5l5.5 16.5q20 57 38 113q21 56 36 106q43 50 54 113q4 17 -13 21q-1 4 -15 -1q-4 -3 -9 -10q-16 -39 -44 -113q-8 -11 -17.5 -17.5t-21.5 -14.5q-9 -5 -12.5 -5t-12.5 -2
q-7 3 -9.5 3t-8.5 8q-11 21 -10 39q0 23 8 47q8 25 16 44q9 12 -3 18q-10 5 -19 -4q-11 -24 -21 -52q-7 -27 -8 -55q2 -26 16 -52q10 -15 17 -17.5t18 -3.5q10 -2 16 -1t15 6q18 7 26 14v1q-3 -4 -10 -24q-9 -28 -18 -54q-15 -50 -32 -101q-10 -27 -19 -58
q-84 -59 -160 -130q-74 -73 -140 -157q-64 -88 -110 -187q-10 -23 -19 -53q-6 -29 14 -56q16 -13 41 -18q8 2 15 4q22 6 34 13q18 7 27 14q31 19 54 42q23 21 44 44q17 22 31 44q16 25 26 43l2 3q64 106 110 225q7 22 20 60q14 40 32 93h1q87 61 184 107q27 12 48 23
q18 9 6 17zM146 209q-4 2 -7 -10q-3 -9 -8 -20q-3 -10 -7 -17q-4 -10 -1 -10t6 10q2 5 3 7l4 8t3.5 8.5t2.5 7.5q1 3 3.5 9t0.5 7zM-61 -330q-44 -118 -107 -223l-2 -3q-22 -44 -55 -84q-19 -20 -40 -39q-27 -22 -54 -43q-9 -4 -23 -12q-10 -8 -26 -11q-8 -1 -18 -1l-14 8
q-13 15 -8 35q8 24 15 44q46 99 110 180q63 85 136 159q33 32 76 65q18 15 32.5 27t18.5 15q-2 -6 -8 -23q-8 -24 -14 -43q-11 -33 -19 -51zM110 571q-24 -15 -54 -24q-4 -2 -8 -6q-3 -4 -3 -13q1 -2 2 -5t6 -4q10 -1 11 0q37 8 62 27q5 5 5.5 6.5t-0.5 10.5q-9 13 -13 9
q-4 1 -8 -1z" />
    <glyph glyph-name="ydieresis" unicode="&#xff;" horiz-adv-x="239" 
d="M255 -42q-4 15 -19 5q-24 -10 -47 -22q-45 -19 -97 -51q-22 -12 -40 -23t-23 -16q0 1 3.5 11.5l5.5 16.5q20 57 38 113q21 56 36 106q43 50 54 113q4 17 -13 21q-1 4 -15 -1q-4 -3 -9 -10q-16 -39 -44 -113q-8 -11 -17.5 -17.5t-21.5 -14.5q-9 -5 -12.5 -5t-12.5 -2
q-7 3 -9.5 3t-8.5 8q-11 21 -10 39q0 23 8 47q8 25 16 44q9 12 -3 18q-10 5 -19 -4q-11 -24 -21 -52q-7 -27 -8 -55q2 -26 16 -52q10 -15 17 -17.5t18 -3.5q10 -2 16 -1t15 6q18 7 26 14v1q-3 -4 -10 -24q-9 -28 -18 -54q-15 -50 -32 -101q-10 -27 -19 -58
q-84 -59 -160 -130q-74 -73 -140 -157q-64 -88 -110 -187q-10 -23 -19 -53q-6 -29 14 -56q16 -13 41 -18q8 2 15 4q22 6 34 13q18 7 27 14q31 19 54 42q23 21 44 44q17 22 31 44q16 25 26 43l2 3q64 106 110 225q7 22 20 60q14 40 32 93h1q87 61 184 107q27 12 48 23
q18 9 6 17zM146 209q-4 2 -7 -10q-3 -9 -8 -20q-3 -10 -7 -17q-4 -10 -1 -10t6 10q2 5 3 7l4 8t3.5 8.5t2.5 7.5q1 3 3.5 9t0.5 7zM-61 -330q-44 -118 -107 -223l-2 -3q-22 -44 -55 -84q-19 -20 -40 -39q-27 -22 -54 -43q-9 -4 -23 -12q-10 -8 -26 -11q-8 -1 -18 -1l-14 8
q-13 15 -8 35q8 24 15 44q46 99 110 180q63 85 136 159q33 32 76 65q18 15 32.5 27t18.5 15q-2 -6 -8 -23q-8 -24 -14 -43q-11 -33 -19 -51zM55 542q8 0 15 6.5t7 15.5t-7 15t-15 6q-9 0 -16 -6t-7 -15q0 -10 7 -16t16 -6zM117 542q8 0 15 6.5t7 15.5t-7 15t-15 6
q-9 0 -15.5 -6t-6.5 -15t6.5 -15.5t15.5 -6.5z" />
    <glyph glyph-name="OE" unicode="&#x152;" horiz-adv-x="699" 
d="M586 191q-12 38 -19 65t-13.5 55.5t-7.5 49.5q10 6 23 14q98 64 150 169q6 12 10.5 28.5t-1.5 32.5q-10 23 -35 27q-18 3 -41 -5t-38 -23q-43 -42 -69 -102t-28 -120q-1 -2 -1 -3q-46 -22 -85 -13q-5 0 -9 1q16 83 9 171q-2 18 -6.5 37t-16.5 36q-24 27 -71 31
q-13 0 -27 -2q-64 -12 -108 -79q-18 -27 -30.5 -57.5t-21.5 -60.5l-52 -153q-29 -85 -52.5 -180t-7.5 -191q1 -12 6.5 -25.5t20.5 -20.5q8 -4 19 -5q15 -1 24 3q31 9 62.5 36t57 55.5t42 50.5t17.5 23q0 -1 -8 -29t-10 -48q-2 -13 -0.5 -31t8.5 -31q10 -20 31 -25.5t44 -5.5
q16 0 30 2q42 9 81 31t68 55q3 4 3 11.5t-5 10.5q-4 4 -11 3.5t-10 -6.5q-27 -29 -60.5 -48.5t-71.5 -28.5q-21 -3 -42.5 -0.5t-30.5 19.5q-8 19 -4 41q9 93 54 176q17 32 43 61.5t56 32.5q18 1 37.5 -7t36 -18t27.5 -18.5t12 -8.5q8 -7 16 2q7 8 5 15zM316 142
q-15 -34 -39 -72t-53.5 -71.5t-62 -60t-63.5 -37.5q-6 -3 -13 -3l-6 2q-6 3 -8 10t-3 13q-15 92 8.5 183t51.5 173l51 154q10 29 21 57.5t29 54.5q37 52 88 65q10 2 20 2q29 -2 46 -22q9 -12 12.5 -26.5t5.5 -28.5q9 -113 -22 -217t-63 -176zM548 224q-11 7 -42.5 20
t-57.5 10q-14 -2 -29 -12t-27 -22t-28 -30q12 31 20.5 53t16.5 48t13 47h9q21 -6 45.5 -4t51.5 15q3 -27 14 -69.5t14 -55.5zM694 558q-24 -48 -60 -89t-81 -70q-3 -3 1 18t15 51t28 62.5t38 53.5q22 20 46 20q3 1 5 0q10 -2 15 -10q3 -9 0 -19t-7 -17z" />
    <glyph glyph-name="oe" unicode="&#x153;" horiz-adv-x="317" 
d="M246 245q-5 23 -28 33q-15 6 -31.5 4.5t-28.5 -8.5q-29 -20 -31 -40q-2 -4 -4 -15q-1 5 -2 7l-4 8q-3 7 -6 8q-17 21 -44 21q-11 0 -22 -3q-21 -8 -38 -24q-15 -14 -26 -31q-18 -32 -26 -77q-2 -12 -1 -27t10 -27q14 -16 43 -17q7 -1 14 1q32 6 53.5 30.5t33.5 48.5
q6 13 5.5 22.5t0.5 4.5q4 -31 27 -49.5t54 -18.5q5 0 13 1q21 3 39 13t30 23q9 11 25 33t20 28q5 5 6 22q-4 5 -6 7t-9 4q-8 -15 -25.5 -41.5t-26.5 -35.5q-8 -9 -24.5 -17.5t-32.5 -10.5q-24 -3 -42.5 9t-21.5 36q-2 10 -2 22.5t5 23.5q12 -21 34.5 -26.5t39.5 0.5
q37 13 29 58zM172 252q6 4 16.5 5t19.5 -2t12 -15q4 -22 -10 -27q-12 -4 -28 2t-23 23q0 1 2.5 4.5t1.5 3.5q4 4 9 6zM85 150q-9 -20 -26.5 -40.5t-42.5 -25.5q-4 -2 -9 -1q-11 -1 -21 8q-9 16 -5 33q7 40 22 67q10 15 22 25q13 12 29 18q6 3 13 3q15 0 25 -12q2 -3 3 -1
q2 -10 5 -20q2 -22 -15 -54z" />
    <glyph glyph-name="Scaron" unicode="&#x160;" horiz-adv-x="484" 
d="M365 775q-2 6 -7 18t-5 15q-3 6 -9 9q-3 0 -9 -2q-11 -2 -10 -16q0 -1 3.5 -9.5t7.5 -18t12 -24.5q4 -6 7 -8q8 -2 12 3l45 32q6 9 3 18q1 4 -7 8q-7 0 -14 -5zM369 678q-21 14 -48 10q-35 -7 -74.5 -42.5t-73 -75.5t-56.5 -73.5t-24 -36.5q-71 -114 -41 -196
q15 -41 50.5 -69t71.5 -51l7 -5q20 -13 39.5 -27t34.5 -34q-50 -40 -97 -81q-12 -10 -29 -24.5t-32 -27.5t-36 -33q-16 -12 -30 -24t-20 -32q-5 -8 -8 -28.5t13 -33.5q10 -8 27 -7q20 0 48 11.5t53.5 24.5t43.5 24t19 11q15 12 34.5 28.5t35.5 37.5t26.5 46.5t7.5 53.5
q-3 26 -14 46q12 9 37.5 26t55.5 35.5t57 35.5t42 26q3 6 4 10t1 11q0 8 -2.5 9.5t-7.5 3.5q-15 -9 -44.5 -26.5t-60.5 -37.5t-59 -38t-40 -27q-17 22 -39 37.5t-44 30.5l-7 4q-34 21 -64.5 45t-43.5 60q-25 68 38 169q15 25 40 59.5t53 67t57.5 56.5t54.5 30q14 3 25 -6
q17 -13 20.5 -33.5t3.5 -35.5q0 -18 -2 -36q-2 -30 -1 -59q0 -9 3 -11.5t12 -2.5q16 0 15 14q0 29 3 57q0 18 1 38q0 20 -5 47.5t-31 48.5zM280 21q5 -48 -29 -83.5t-61 -54.5q-15 -9 -38 -22t-47 -24t-43.5 -17t-26.5 0q-4 6 6 25q6 14 16.5 24t22.5 21q21 19 36.5 31.5
t33 26.5t29.5 24q46 42 94 79q6 -14 7 -30z" />
    <glyph glyph-name="scaron" unicode="&#x161;" horiz-adv-x="216" 
d="M107 336q5 12 -2 19q-8 9 -18 -1l-28 -25q-3 6 -9.5 18t-7.5 15q-2 6 -16 3q-12 -3 -10 -16q0 -1 4 -9t10 -17t16 -23q4 -6 9 -7q7 0 11 4zM143 129q-15 -17 -41 -33q-21 -12 -49 -23q1 4 1 10q2 13 0 21q-2 20 -7 41q-6 21 -14 38l-6 12q-1 5 -3 9q-3 11 -4 16q0 6 6 9
q4 3 12.5 6.5t11.5 4.5q15 6 27 13q9 6 4 18q-9 9 -17 4l-12 -6q-3 -1 -10.5 -4t-11.5 -5q-16 -4 -24 -13q-7 -7 -12 -22q0 -3 -1 -12q2 -8 2 -11q3 -6 7 -19q3 -7 5 -11q7 -15 14 -36q7 -16 7 -35q3 -17 -6 -36q-12 -5 -30 -9q-8 0 -18 -5q-7 -3 -14 -12q-4 -9 -1 -21
q4 -4 12 -11q11 -3 15 -4h11q17 4 29 18q14 11 17 23q73 22 110 60q21 20 36 41q14 17 32 49q5 10 5 19t-4.5 11t-7.5 6q-34 -61 -71 -101zM10 35q-3 1 -8.5 0t-9.5 -2q-3 1 -8 -5q0 -2 9 -3q12 4 17 10z" />
    <glyph glyph-name="Ydieresis" unicode="&#x178;" horiz-adv-x="388" 
d="M320 745q8 0 15 6.5t7 15.5t-7 15t-15 6q-9 0 -16 -6t-7 -15q0 -10 7 -16t16 -6zM382 745q8 0 15 6.5t7 15.5t-7 15t-15 6q-9 0 -15.5 -6t-6.5 -15t6.5 -15.5t15.5 -6.5zM431 631q-3 3 -9.5 3t-9.5 -9q-15 -21 -31 -48q-20 -31 -53 -81q-32 -46 -59 -76q-34 -34 -73 -63
q-38 -26 -97 -39v0q-3 2 -6 3q-1 3 1 8q4 11 7 16l161 281q34 64 5 89q-9 12 -30.5 14.5t-50.5 -12.5q-76 -32 -142 -86q-38 -33 -32 -71q8 -20 28 -28q21 -6 39 -2q18 6 30 16q15 14 23 25q6 10 -1 16q-5 7 -17 2q-9 -9 -21 -20q-9 -10 -23 -14q-8 -1 -20 2q-10 3 -14 12
q-4 19 24 40q64 52 136 85q14 7 29 8q15 4 22 -5q15 -17 -9 -57l-160 -283q-4 -10 -8 -23q-2 -14 0 -27q6 -10 16 -14q9 -4 11.5 -3t9.5 2q63 15 103 41q44 31 79 70q9 10 20.5 30.5t12.5 21.5q-12 -23 -20 -38.5t-16 -33t-14 -30.5q-26 -63 -51 -124q-33 -89 -74 -178
q-50 -25 -92 -64q-29 -30 -42 -53t-17 -39q-3 -10 -2.5 -22.5t6.5 -16.5q10 -15 24 -19q21 -1 32 6q16 11 35 40q44 75 76 151q25 12 37 21q36 19 59.5 33.5t48.5 33.5q58 44 81 71q6 5 6 21q-1 8 -12 13q-21 -24 -42 -44.5t-48 -39.5q-26 -18 -50 -33.5t-55 -33.5l-9 -6
q2 6 9.5 23t17 39t19.5 46t18 43q34 87 70 174q39 87 86 168q17 28 18 31q11 12 14 18q7 12 -4 19zM68 -104q-10 -16 -24 -30q-5 -2 -14 -2q-9 3 -10.5 11.5t-0.5 11.5q0 9 18 37t31 38q15 14 35 30t29 21q-6 -13 -26 -50t-38 -67z" />
    <glyph glyph-name="Zcaron" unicode="&#x17d;" horiz-adv-x="409" 
d="M470 736q6 9 3 18q-1 4 -6 8q-3 0 -7.5 -1t-7.5 -4l-29 -20q-2 6 -7 18t-5 15q-3 6 -9 9q-8 -1 -9 -3q-4 -3 -8 -5.5t-2 -9.5q0 -1 3.5 -9.5t7.5 -18t12 -24.5q4 -6 7 -8q8 -2 12 3zM351 430q56 77 84 165q4 9 7 26q3 11 0.5 19.5t-4.5 14.5q-2 4 -7.5 11t-9.5 7
q-3 2 -11.5 0t-14.5 -7q-26 -15 -44.5 -38.5t-36.5 -48.5q-32 -51 -46 -114q4 -5 5 -10q25 -1 21 11q15 54 42 100q30 48 73 81l3 1q2 -2 4 -6q6 -14 -4 -39q-27 -83 -84 -160q-52 -74 -129 -125q-7 2 -8 -17q3 -5 3 -8.5t14 -3.5q7 3 18 2t14 -1q8 -2 12 -8q2 -8 4.5 -14.5
t1.5 -15.5q-2 -16 -6 -38q-34 -130 -112 -243q-5 -1 -17 -2.5t-16 -2.5q-15 -1 -34 -6q-16 -3 -34 -17q-11 -5 -18 -23q-3 -16 -2 -30q7 -24 27 -31h12q25 1 50 29q26 34 48 62q26 9 75.5 46.5t96.5 85.5q33 33 55 65.5t31 45.5q1 1 4 9t3 11q-1 13 -16 14
q-16 -30 -42.5 -67.5t-50.5 -60.5q-15 -14 -34.5 -32t-39 -35t-36 -29.5t-25.5 -17.5q9 15 22.5 40t28 55.5t27.5 64.5t21 65q4 22 7 41q3 25 -9 44q-4 5 -10.5 12.5t-15.5 8.5q-3 0 -10 4q3 2 16 13t31 27t36 34.5t30 35.5zM89 -95q-18 -25 -36 -22q-9 4 -9.5 9t0.5 16
q5 12 11 16q9 10 22 11q18 3 34 7q7 2 11 3q-14 -20 -33 -40z" />
    <glyph glyph-name="zcaron" unicode="&#x17e;" horiz-adv-x="247" 
d="M182 387q6 9 3 18q0 1 -9 7q-6 1 -12 -4l-29 -20q-2 6 -7 18t-5 15q-3 5 -8 8q-2 0 -9 -2q-13 -1 -11 -15q0 -2 8.5 -20.5t13.5 -28.5q5 -11 8 -11q8 -2 12 3zM105 81q-6 27 -25 47q-4 3 -9.5 7.5t-11.5 4.5l9 9q26 26 45 55q28 34 39 68q5 14 2 26q-4 14 -17 21
q-11 9 -29 5q-5 -2 -19 -9q-16 -10 -27.5 -19t-20.5 -19q-6 -6 -20.5 -22t-15.5 -18q-3 -3 -10 -14q-5 -5 -5 -16q4 -14 12 -17q16 25 35 46q10 14 19 22q27 26 48 39q6 3 16 1q4 -2 8 -6q2 -6 -1 -12q-11 -34 -33 -61q-20 -29 -47 -57q-5 -5 -23 -24q-4 -2 -10 -9
q-5 -5 -6 -15q4 -5 12 -10q2 -1 12 4q7 6 14 7q10 3 15 -4q17 -15 21 -41q8 -24 3 -58q-3 -31 -11 -66q-5 -33 -18 -63q-72 -51 -135 -108q-87 -78 -164 -170q-73 -92 -127 -196q-8 -20 -21 -44q-11 -25 -15 -53q-2 -12 1 -30t16 -31q17 -14 38 -14q23 1 50 13
q85 40 138 112q57 76 93 146q84 158 130 299q4 15 7 25q5 18 10 35q117 80 249 138q6 4 7.5 7t-1.5 9q-2 15 -16 6q-60 -26 -125 -61t-101 -61q2 9 5 23t6 27q8 35 8 67q4 32 -4 59zM-19 -329q-29 -74 -73 -152q-36 -67 -90 -139q-51 -67 -128 -108q-11 -2 -33 -9
q-15 -4 -27 5q-6 9 -10 21q-2 14 0 19q4 26 13 47q13 23 21 43q75 134 175 249q97 113 218 199q-7 -16 -12 -32q-21 -70 -54 -143z" />
    <glyph glyph-name="circumflex" unicode="&#x2c6;" horiz-adv-x="221" 
d="M134 654q-3 11 -17 42q-3 4 -7 7q-8 2 -12 -2l-45 -32q-9 -7 -2 -17l4 -4q3 -3 6 -2q4 0 8 3l33 24q4 -13 8 -25l4 -12q2 -4 6 -6q9 -2 10 0q12 6 7 15q-1 2 -3 9z" />
    <glyph glyph-name="ring" unicode="&#x2da;" horiz-adv-x="216" 
d="M99 761q-14 0 -24 -10.5t-10 -23.5q0 -14 10 -23.5t24 -9.5t23.5 9t9.5 24q0 13 -10 23.5t-23 10.5zM99 717q-10 1 -11 10q1 10 11 11q9 -1 10 -11q-1 -9 -10 -10z" />
    <glyph glyph-name="tilde" unicode="&#x2dc;" 
d="M178 689q0 10 -9 18q-5 3 -13 3l-3 -3h-1q-3 -2 -6.5 -3.5t-1.5 -6.5q2 -9 13 -7q-1 1 0 0v-1q-1 -4 -5 -6q-3 -1 -7 -1q-10 0 -20 6q-4 0 -8 2v0q-8 10 -17 15q-8 3 -16 3q-12 0 -22 -5t-15 -17q-1 -6 1 -13q4 -7 12 -9l-1 1q1 -5 4 -5q5 1 7 8v1q0 1 2 2.5t1 3.5
q0 1 -4 2.5t-5 1.5h1h1q2 3 5 4q7 4 13 5q5 0 9 -3q3 -2 14 -8q3 -2 5 -4q16 -9 33 -9v0q9 0 16 3v0q15 8 17 22z" />
    <glyph glyph-name="quoteleft" unicode="&#x2018;" horiz-adv-x="152" 
d="M75 592l3 26q2 16 -13 19l-11 1q8 14 22 24q17 15 40 21q4 3 4 12q-3 2 -11 5q-53 -22 -79 -64q-6 -10 -11 -24l-1 -13q-2 -7 3 -9q1 -6 9 -7l27 -3q15 -3 18 12z" />
    <glyph glyph-name="quoteright" unicode="&#x2019;" horiz-adv-x="152" 
d="M60 601q-18 -15 -38 -23q-3 -3 -4.5 -5.5t-1.5 -8.5q6 -5 11 -6q53 22 79 67q6 11 11 27l1 11q0 9 -3 12q-3 7 -12 7l-27 2q-14 2 -17 -14l-3 -26q-2 -16 14 -19l10 -1q-4 -6 -10 -13t-10 -10z" />
    <glyph glyph-name="quotedblleft" unicode="&#x201c;" horiz-adv-x="283" 
d="M121 607l-2 -10q-3 -9 5 -13q1 -3 7 -3l22 -3q3 -1 11 1q3 3 6 11l3 23q-1 5 -3 11q-7 3 -9 3l-8 1q7 12 19 22q15 10 32 17q4 6 -4 13q-23 -5 -39 -19q-18 -15 -29 -33q-8 -11 -11 -21zM59 612l-2 -10q-3 -10 6 -13q1 -3 7 -3l21 -3q3 -1 11 1q3 2 6 11l4 23q-2 6 -4 11
q-7 3 -9 3l-8 1q7 11 19 22q15 11 32 17q4 6 -4 13q-23 -5 -39 -19q-18 -15 -29 -33q-8 -11 -11 -21z" />
    <glyph glyph-name="quotedblright" unicode="&#x201d;" horiz-adv-x="283" 
d="M151 655l2 10q3 9 -6 13q-1 3 -7 3l-22 2q-3 1 -11 -1q-3 -2 -5 -11l-3 -23q2 -6 4 -11q7 -3 9 -3l8 -1q-7 -11 -18 -22q-15 -11 -32 -18q-5 -7 5 -13q23 6 38 20q17 16 28 34q7 11 10 21zM213 652l2 10q3 10 -6 13q-1 3 -7 3l-22 2q-3 1 -11 -1q-3 -3 -5 -11l-3 -23
q2 -5 4 -11q7 -3 9 -3l8 -1q-7 -12 -18 -22q-15 -11 -32 -18q-5 -7 5 -13q23 5 38 20q17 15 28 34q7 11 10 21z" />
    <glyph glyph-name="Euro" unicode="&#x20ac;" horiz-adv-x="476" 
d="M282 120q-19 3 -31.5 9t-27.5 15q-28 20 -50 49q-15 29 -22 59v-3l162 -7q17 6 14 16q3 10 -2.5 13.5t-12.5 0.5l-165 7q1 35 13 65l156 -21q21 4 15 15q3 18 -13 13l-144 22q14 27 39 48q32 27 66 43q33 11 58 8q16 0 28.5 -4.5t24.5 -6.5q9 -3 11.5 -1.5t7.5 8.5
q6 8 2.5 11.5t-9.5 8.5q-28 12 -64 15q-32 2 -70 -12q-40 -15 -77 -49q-32 -25 -50 -66l-105 14q-9 -1 -18 -12q6 -12 12 -16l99 -14q-13 -33 -11 -70l-99 4q-3 0 -8.5 -3.5t-8.5 -9.5q3 -12 7 -12t7 -2l103 -4q1 -1 1 -2q4 -18 10 -36t20 -36q25 -37 58 -58q22 -13 44 -23
q53 -17 96 -4q9 5 10 8.5t-1 9.5q-2 12 -16 12q-26 -8 -59 -2z" />
    <glyph glyph-name="uniE000" unicode="&#xe000;" horiz-adv-x="407" 
d="M171 89q-27 23 -25 47q4 28 19 57q4 4 4 8q11 13 -6 18q-6 4 -10 1.5t-5 -5.5q-4 13 -14 22q-16 26 -52 26q-16 3 -38 -6q-18 -7 -37 -22q-7 -5 -11 -12.5t-12 -17.5q-6 -11 -17.5 -31.5t-14.5 -32.5q-6 -17 -3 -38q3 -17 15 -32q14 -12 37 -12q21 3 33 10q18 10 28 18
l5 3q16 11 32.5 27t22.5 23q-1 -6 -1.5 -18t2.5 -18q5 -16 31 -38q16 -10 34 -11q16 0 35 4q21 7 31 13q34 20 49 31q17 12 35 26q10 9 11 9q3 2 14 10q9 8 22 20q15 12 26 25q7 9 7 20q0 6 -7 9t-8 2q-16 -20 -38 -38q-21 -16 -40 -32q-11 -10 -38 -28q-21 -14 -45 -29
q-9 -4 -15 -6.5t-18 -5.5q-6 -2 -13 -2.5t-10 1.5q-8 1 -15 5zM54 116l-8 -6q-11 -8 -24 -16q-10 -4 -23 -8q-8 0 -16 4q-4 8 -7 18q-1 13 4 27q2 8 13 30.5t13 25.5q9 15 20 23q12 12 25 17q14 9 28 8h1q24 -3 33 -19q13 -14 10 -32q-1 -4 0 -7q-15 -20 -31.5 -35
t-37.5 -30z" />
    <glyph glyph-name="uniE001" unicode="&#xe001;" horiz-adv-x="2104" 
d="M64 -2q40 0 55 37q5 15 -9 22q-8 0 -17 -10q-8 -23 -34 -21q-18 4 -28 22q-5 20 -5 38q2 20 6 37q14 39 34 61q25 28 50 47q12 11 20 15q10 6 28 17q8 3 36 14q30 12 51 15q47 8 92 4q116 -4 232 -60q2 1 16 -6q17 -7 38 -17q21 -8 43 -17q25 -10 39 -17q100 -42 199 -88
q106 -40 217 -62q37 -7 73 -7t74 3q79 6 146 27q27 9 57.5 24.5t57.5 32t47 31t27 20.5q-2 -3 -5.5 -18t-3.5 -29q0 -11 6 -21q6 -6 10 -14q18 -16 39 -14q17 4 31 11q9 7 33 22q17 11 35 28t25 26q-1 -7 -0.5 -23.5t3.5 -28.5q10 -30 35 -52q16 -11 37 -15q19 0 32 3
q20 9 38 16q40 24 79 50q9 5 25 17q15 12 30 26q16 15 30 27q15 14 21 23q8 9 8 19q-2 11 -16 14q-11 -21 -41 -47q-27 -24 -72 -58q-39 -24 -78 -47q-12 -8 -25 -11q-13 -2 -22 -5q-7 -1 -13 0q-6 3 -16 7q-24 22 -29 64q-3 42 17 73q4 7 4 9q6 10 -4 19q-6 7 -18 -2l-2 -2
q-4 13 -12 22q-22 27 -52 28q-18 3 -41 -9q-16 -4 -35 -20q-2 -3 -17 -17q-83 -99 -225 -148q-138 -45 -289 -26q-105 21 -210 61q-99 42 -199 86q-57 28 -120 55q-3 3 -11 3q-5 2 -7 1q-116 57 -240 64q-104 5 -186 -33q-15 -6 -18 -10q-34 -20 -61 -46q-15 -12 -27 -26
q-12 -15 -21 -29q-45 -65 -21 -143v0q7 -16 15 -29q11 -8 20.5 -10.5t11.5 -2.5h7zM1766 231q10 -13 13 -33v-5q-27 -41 -76 -72l-3 -3q-22 -17 -50 -24q-9 -2 -14 3q-4 10 -8 19q-2 17 1 28q7 17 12 28l4 10q9 17 16 25q7 9 18 20q27 20 58 20v0q21 2 29 -16z" />
    <glyph glyph-name="uniE002" unicode="&#xe002;" horiz-adv-x="1784" 
d="M157 122q-5 12 -7 22.5t0 23.5v-2q4 6 11.5 18.5t7.5 15.5q3 14 -5 17q-11 5 -16 1q-2 -2 -4 -5q-2 14 -12 23q-14 27 -49 30q-17 3 -43 -7q-11 -7 -19 -11.5t-16 -13.5q-15 -16 -24.5 -28.5t-15.5 -27.5q-10 -26 -15 -36q-6 -14 -5 -39q5 -15 17 -33q16 -12 39 -12
q9 1 17 2t14 6q11 4 32 24q16 12 34 27.5t25 25.5v2q2 -12 3.5 -18t6.5 -16q30 -55 124 -87q33 -9 65.5 -12.5t69.5 -3.5q109 -2 224 27q28 7 63 16.5t65.5 18.5t73.5 21q67 21 126 47q65 28 122 52q42 19 82.5 37.5t83.5 34.5q92 34 162 43q72 12 134 -2q68 -9 130 -57
q65 -38 82 -120q1 -6 4 -13.5t3 -20.5q-1 -14 -4.5 -23t-12.5 -19q-12 -10 -35 -6q-1 2 -8 4q-3 4 -6 11q3 17 -17 12q-14 -2 -12 -15q2 -21 34 -36q41 -8 62 13q18 17 24 42t-3 58q-17 84 -92 135q-69 53 -143 64q-68 15 -142 1q-73 -9 -166 -45q-86 -34 -172 -74
q-114 -56 -244 -98v0q-52 -14 -128 -35q-64 -19 -141 -33q-72 -10 -144 -14q-68 -2 -133 17q-80 26 -107 71zM121 191v-9q-29 -38 -73 -70q-19 -14 -25 -18q-5 -4 -13 -6t-13 -3q-8 -1 -14 6q-7 9 -9 18q-2 13 3 23q5 7 15 35q11 27 32 48q10 11 23 16q15 7 27 5h7
q21 0 29 -16q13 -10 11 -29z" />
    <glyph glyph-name="uniE003" unicode="&#xe003;" horiz-adv-x="358" 
d="M224 97q-38 -21 -78 -37q-15 -6 -30.5 -12.5t-21.5 -7.5q3 3 8.5 12t9.5 16q8 14 10 30q2 18 -5 32q-7 21 -27 26q-15 6 -31 -1q-13 -5 -23 -11q-20 -12 -41 -33t-26 -27q2 3 9.5 18.5t10.5 25.5q9 26 8 25q11 27 26 63q15 16 29 31t30 31q32 33 61 71q59 81 119 175
q62 94 94 200q8 32 -13 58q-19 22 -45 18q-49 1 -72 -42q-23 -48 -51 -102q-25 -53 -41 -90q-16 -38 -37 -89t-44 -104q-21 -54 -43 -108q-9 -24 -17.5 -52.5t-11.5 -35.5q-1 2 -14 -29q-5 -14 -12 -35q-8 -21 -18 -49q-7 -25 -18 -54q-13 -30 -21 -65q0 -4 7 -8
q4 -3 10.5 -2t7.5 3q4 12 10 26q3 0 2 -1.5t-1 -0.5q22 -8 43 -4q26 6 45 16q22 14 43 34q15 3 32 7t38 11q45 15 89 40q24 12 44.5 28t43.5 36q22 19 35 38.5t16 24.5q7 9 6 18q-1 13 -13 18q-16 -27 -26 -41.5t-30 -32.5q-37 -35 -76 -58zM158 556q18 37 39 89
q25 53 51 99q18 32 53 31q10 -2 13 -4q6 -3 8 -6q12 -15 8 -33q-32 -102 -91 -194t-120 -173q-19 -27 -46 -59t-36 -41q6 16 26 63t36 86q35 85 59 142zM-13 -7q12 3 23 6.5t20 3.5q-6 -3 -9 -4l-6 -2q-2 0 -16.5 -5t-23.5 -7q-5 0 -8 -1t-11 -1q6 3 14.5 5.5t16.5 4.5z
M51 31q-11 -5 -24 -9q-9 -3 -22.5 -6.5t-26.5 -6.5q-8 -3 -22 -7t-13 -4q19 39 45 71q28 33 61 53q7 4 16 6q10 4 16 2q9 0 13 -9q4 -8 1 -20q-1 -10 -5 -20q-8 -11 -18 -26q-8 -12 -21 -24z" />
    <glyph glyph-name="uniE004" unicode="&#xe004;" horiz-adv-x="1857" 
d="M226 256q59 13 122 2q68 -9 148 -40q88 -32 170 -74q60 -27 120 -51t123 -46q129 -41 269 -28q89 11 168 45q37 18 75.5 46.5t50.5 40.5q-1 -3 -9 -23l-18 -45t-19.5 -49.5t-12.5 -36.5q-11 -29 -19 -63q0 -5 2 -5.5t8 -3.5q11 -2 16 2l4 8t4 7h15.5t26.5 3q30 7 46 17
q23 13 42 34q15 4 31.5 7t36.5 9q41 13 84 40q45 26 87 62q22 19 41 46t24 33q6 6 5 16q-1 17 -13 17q-15 -24 -32 -47t-35 -40q-35 -33 -75 -58q-38 -21 -76 -36q-15 -5 -29.5 -10t-21.5 -7q3 4 9 11.5t10 13.5q8 15 7 29q6 18 -3 33q-4 7 -10 14.5t-17 10.5q-8 4 -16 2.5
t-15 -3.5q-12 -3 -21 -10q-20 -12 -41 -33.5t-24 -26.5q0 3 7.5 18.5t11.5 24.5q9 26 8 27q13 28 23 53q2 6 4 10q62 56 112 121q26 36 44.5 63t39.5 57t36 54q60 91 90 195q8 16 2 32q-4 17 -15 28q-5 5 -18.5 10.5t-24.5 5.5q-45 0 -72 -43q-24 -46 -48 -99
q-26 -51 -39 -86q-27 -62 -66 -157q-37 -91 -70 -177q-49 -64 -136 -109q-81 -41 -179 -53q-135 -12 -254 27q-118 43 -242 97q-84 40 -172 75q-84 33 -155 40q-69 10 -131 0q-64 -11 -131 -58q-63 -46 -83 -126q-6 -25 -4 -51q6 -24 21 -40q15 -14 40 -15q11 -1 18 2
q29 11 31 33q7 18 -12 16q-14 1 -14 -12q-1 -6 -4 -9q-4 -3 -9 -5q-19 -5 -32 8q-13 14 -14 34q3 22 6 34q16 70 72 109q61 43 121 53zM1648 528q13 35 38 86q14 25 25.5 51t23.5 49q17 28 49 27q5 0 2.5 0t2.5 0q13 -3 19 -9q13 -10 6 -30q-30 -99 -87 -190
q-15 -23 -35 -52.5t-38 -56t-43 -61.5q-20 -26 -46.5 -57t-35.5 -40q6 15 26 60.5t36 83.5q33 83 57 139zM1496 -21q-7 -2 -12.5 -3t-14.5 -3q-8 -3 -16 -2q4 3 13 5.5t16 4.5q26 9 44 13q-7 -6 -16 -10q-4 -2 -14 -5zM1543 18q-5 -2 -13.5 -3t-15.5 -3q-22 -6 -43 -13
q-9 0 -20 -6t-10 -5q33 78 103 118q6 5 14 6q8 5 14 2q8 -2 11 -11q10 -16 -2 -36q-11 -21 -38 -49z" />
    <glyph glyph-name="uniE005" unicode="&#xe005;" horiz-adv-x="1586" 
d="M246 106q-25 -1 -50.5 4.5t-46.5 12.5t-46 20q-8 9 -16 9q-13 3 -27 0t-25 -11q-20 -12 -39 -31t-24 -25q2 3 7.5 15.5t8.5 21.5q9 22 13 36q4 12 20 53l27 27q26 23 49.5 51.5t46.5 57.5v0q40 55 74 106q34 55 66 106q11 19 22 38.5t18 37.5q18 39 26 80q8 36 -15 58
q-6 6 -17.5 12t-23.5 6q-50 -1 -75 -45q-12 -24 -27.5 -56.5t-29.5 -62.5t-24 -51t-10 -20q1 -1 -9 -24.5t-15 -34.5q-13 -32 -32 -76q-16 -44 -35 -91q-17 -46 -35 -92q-13 -46 -45 -130v0q-8 -24 -20 -48.5t-21 -51.5q-12 -31 -19 -64q1 -5 8 -10q7 0 13.5 1.5t6.5 3.5
q3 11 7 24q22 -9 44 -5q29 4 43 15q30 11 51 39q29 32 42 54q10 20 7 41q35 -15 71 -21q44 -8 85 -7q63 1 115 8q177 28 366 100q88 35 165 71q66 32 138 59q69 23 146 37q81 16 160 -6q101 -29 148 -110q14 -18 20 -49q5 -15 3.5 -29.5t-4.5 -23.5q-3 -5 -6.5 -11t-9.5 -10
q-7 -5 -21 -5q-9 0 -16 6q-5 4 -5 11q0 15 -15 14q-11 -6 -9 -18q3 -25 37 -34q18 -3 36 2q23 11 32 34q4 11 6 30.5t-2 38.5q-9 36 -24 58q-53 86 -162 121q-85 25 -170 9q-81 -18 -154 -42q-69 -26 -136 -59q-77 -35 -165 -68q-187 -67 -360 -100q-62 -7 -142 -7zM130 489
q20 57 23 60q42 93 90 186q8 15 22 21.5t30 6.5q8 -2 11 -3q8 -3 9 -6q13 -10 10 -35q-16 -75 -61 -146q-32 -51 -66 -106q-34 -51 -72 -107q-10 -15 -23.5 -30t-23.5 -26q-11 -12 -17.5 -17t-22.5 -21q4 12 16.5 44t24.5 63q12 30 26.5 61.5t23.5 54.5zM88 79
q-6 -10 -15 -23t-19 -24q-10 -13 -22.5 -21.5t-23.5 -15.5q-8 -5 -19 -8t-20 -5q-17 0 -30 5q1 7 3 11q36 75 105 118q7 6 16 10q11 4 16 2q9 -2 11 -12t2 -20q-2 -7 -4 -17z" />
    <glyph glyph-name="uniE006" unicode="&#xe006;" horiz-adv-x="317" 
d="M88 71q60 17 120 51q30 15 55.5 33t57.5 42q7 5 7 17q-3 11 -12 13q-62 -51 -122 -80q-57 -33 -114 -49q-22 -7 -48 -2q-20 6 -29 26q-6 22 0 47q5 13 8.5 23t12.5 22q8 8 15 12q8 3 17 3q6 -1 13 -4q5 -3 9 -7q8 -12 20 -4q11 10 4 21q-14 21 -41 22q-14 3 -34 -6
q-8 -3 -16 -8.5t-12 -11.5q-14 -19 -26 -52q-9 -33 1 -65q10 -26 30 -38q22 -10 46 -10q21 0 38 5z" />
    <glyph glyph-name="uniE007" unicode="&#xe007;" horiz-adv-x="1478" 
d="M70 55q24 9 27 29q7 27 -15 20q-8 -1 -9.5 -4l-4.5 -9q-1 -5 -8 -8q-4 -3 -11 -1q-5 2 -9 4q-9 10 -9 24q-2 7 1 14t4 11q6 26 19 45.5t35 35.5q47 33 90 41q43 9 93 0q53 -5 115 -30q68 -24 132 -57q92 -40 186 -76q100 -34 210 -22q68 8 126 34q24 11 52.5 31.5
t32.5 23.5q0 -1 -1 -5t-1 -6q-3 -20 3 -38q12 -30 33 -39q9 -8 21 -8.5t23 -0.5q17 0 39 3q30 9 60 20t63 29q5 3 22 13t36.5 22t36 24t21.5 19q6 10 6 18q-2 14 -14 14q-21 -28 -57 -49t-65 -37q-26 -14 -58 -26t-59 -19q-22 -5 -49 -2q-22 6 -32 28q-5 21 1 42
q10 26 21 42q3 7 5 10q8 5 15 8q9 7 18 5q9 2 21 -15q8 -4 13.5 -2.5t7.5 3.5q13 10 3 20q-14 20 -45 22q-23 0 -46 -13q-4 -4 -9.5 -10.5t-6.5 -8.5q-41 -48 -104 -81q-60 -32 -136 -43q-105 -12 -194 19q-93 35 -188 77q-65 32 -134 58q-63 27 -119 33q-54 9 -103 -2
q-51 -9 -102 -46q-52 -36 -69 -97q-6 -49 17 -76q7 -5 11.5 -9.5t16.5 -4.5q13 -1 21 3z" />
    <glyph glyph-name="uniE008" unicode="&#xe008;" horiz-adv-x="1803" 
d="M183 140q-51 -24 -66 -32q-31 -12 -62 -15q-20 0 -37 9q-16 10 -19 30q-3 31 5 54q10 26 29 37q9 8 19 8h13q10 -3 14 -12q8 -7 16 -4q9 8 8 16q-9 19 -33 25q-22 6 -48 -13v1q-29 -18 -43 -49q-11 -29 -7 -66q4 -28 27 -47q25 -17 51 -16h7q33 4 63 15q15 6 37 17.5
t24 11.5q85 45 141 36q59 -9 124 -54q56 -36 126 -66q72 -28 163 -31h1q116 3 224 39q109 40 212 86q76 32 150 62q148 58 249 36q56 -10 110 -49q57 -36 73 -102q4 -9 1 -30q3 -18 -12 -33q-9 -9 -28 -6q-3 2 -10 5q-3 3 -4 7q-1 14 -13 12q-9 -2 -10 -5t-1 -10
q4 -25 28 -33q9 -3 19 -3q21 3 36 15q32 32 18 86q-17 76 -80 117q-61 45 -123 52q-55 13 -121 3q-63 -7 -142 -38q-74 -30 -148 -63q-99 -45 -210 -85q-106 -39 -218 -39h-1q-85 1 -154 30q-65 32 -120 66q-29 21 -61 34q-32 17 -70 22q-34 4 -69 -3t-78 -28z" />
    <glyph glyph-name="uniE009" unicode="&#xe009;" horiz-adv-x="341" 
d="M143 142q4 19 6.5 37t7.5 37q179 238 281 518q10 24 15 53q4 15 2 34.5t-6 26.5q-6 18 -21 23q-20 13 -39 -5q-15 -14 -26 -28q-54 -94 -96 -196q-40 -101 -70 -190q-15 -44 -31 -100q-14 -50 -28 -104q-27 32 -65 27q-20 -2 -44 -18q-21 -14 -37 -39q-12 -22 -20 -50
q-3 -10 -1 -18q1 -12 4 -21q6 -9 9.5 -12t9.5 -8q14 -5 27 -6q9 -1 16 1q15 4 29 15q14 9 23 22q15 16 23.5 29t11.5 16q-1 -5 -3 -17.5t-4 -21.5q-2 -21 -7 -44q0 -1 -3 -15q-3 -16 -3 -33q0 -8 1.5 -18.5t4.5 -17.5q6 -17 19 -28q7 -5 18 -4q7 0 39 14q16 13 33 25
q18 14 38 35q21 23 46 58q12 18 20 32.5t23 41.5q8 9 7 18q0 14 -15 16q-32 -55 -56 -92q-22 -35 -43 -56q-19 -21 -36 -34q-7 -6 -30 -21q-9 -6 -19 -11q-5 -3 -10 0q-10 9 -12 31q-1 30 4 55q4 21 7 43zM223 443q28 90 68 189q39 98 94 191q6 9 13 18q8 9 16 6
q6 -2 10 -11q10 -20 3 -44q-5 -25 -14 -48q-24 -64 -60.5 -139.5t-73.5 -144.5t-68.5 -122t-45.5 -71q2 7 12 36.5t16 50.5q15 50 30 89zM69 158q-15 -18 -39 -29q-8 -1 -20 2q-10 3 -13 12q-3 7 0 19q4 22 16 41q14 19 32 34q6 5 17 9.5t12 3.5q28 0 49 -27q-3 -6 -12 -18
q-13 -15 -42 -47z" />
    <glyph glyph-name="uniE00A" unicode="&#xe00a;" horiz-adv-x="2022" 
d="M222 301q-65 -13 -132 -59q-66 -46 -86 -127q-7 -29 -3 -53q4 -23 20 -45q21 -11 42 -13q12 3 18 5q27 9 31 30q8 14 -9 17q-5 3 -9 1.5t-7 -12.5q1 -3 -5 -8q-4 -5 -9 -5q-5 -3 -18 -1q-9 4 -16 8q-16 17 -14 35q3 24 6 32q17 72 74 113q62 46 122 54q115 21 275 -40
q92 -33 174 -75q122 -52 245 -100q130 -44 272 -27q89 9 167 45q18 8 39.5 22t40 28.5t31.5 25.5t14 11v-1v-16q1 -11 2 -14t3 -8q4 -8 7.5 -13t11.5 -9q14 -8 29 -5q10 0 18 3q30 15 48 35q11 13 21 25t13 16q-3 -15 -10 -44.5t-15.5 -65.5t-16 -73t-12.5 -70
q-2 -20 -6 -41q-12 -58 -26 -121q2 -18 4 -54q4 -33 38 -48q11 -3 20 -3q15 1 29 8q17 10 26 11q31 23 55 52q38 45 70 100q5 8 7.5 13t7.5 11q93 143 187 285q22 36 42 70q7 15 -4 18q-3 3 -5.5 2t-10.5 -4q-21 -33 -44 -71q-87 -141 -182 -283q-9 -11 -18 -30
q-30 -47 -69 -94q-23 -24 -49 -44q-10 -4 -27 -14q-12 -4 -27 -1q-16 8 -21 32q-2 27 1 42q9 60 20 117q4 22 9 43q31 149 61 296q3 3 3 6q93 107 179 244q50 81 83 147q39 70 65 129q36 85 43 152q6 45 6 82q0 19 -4 34q-2 9 -5.5 15.5t-9.5 13.5q-20 24 -43 21
q-23 0 -47 -22q-22 -21 -31 -36q-36 -62 -72 -134q-57 -123 -107 -294q-42 -163 -79 -319q2 -1 2 -2q-12 18 -29.5 23.5t-36.5 2.5q-10 -2 -24 -7.5t-23 -14.5q-19 -16 -33 -40q-55 -63 -139 -107q-83 -39 -180 -53q-134 -14 -258 27q-122 42 -245 100q-83 40 -176 77
q-165 62 -289 41zM1759 563q23 88 48 158q31 72 55 134q36 74 71 131q11 20 26 34q9 8 15 10t15 3q13 4 22 -9q9 -8 8 -22q4 -14 4 -28q1 -36 -6 -78q-4 -62 -42 -142q-25 -60 -62 -130q-33 -66 -83 -143q-39 -61 -78 -119q-16 -24 -37.5 -53t-30.5 -39q3 17 11.5 50.5
t19.5 75.5t22.5 86t21.5 81zM1586 154q-18 -18 -43 -29q-5 -3 -17 1q-8 2 -11 10t0 24q3 22 12 41q7 14 17.5 21.5t16.5 13.5q7 5 16.5 10.5t18.5 5.5v0q30 3 52 -31v2q-3 -7 -62 -69z" />
    <glyph glyph-name="uniE00B" unicode="&#xe00b;" horiz-adv-x="1583" 
d="M162 143q-6 15 -10 30t0 36l2 14q86 103 167 233q49 74 82 136q37 64 58 123q35 81 43 147q4 42 3 76q1 17 -3 30q0 19 -12 32q-20 23 -44 19q-22 -1 -44 -23q-11 -11 -18 -19t-12 -17q-36 -55 -68 -128q-26 -58 -53 -124q-23 -64 -45 -151q-20 -79 -41 -155
q-19 -74 -37 -148q-1 2 -6 7q-12 15 -27 17t-24 2q-6 -1 -19.5 -5.5t-25.5 -15.5q-11 -8 -18.5 -18t-17.5 -23q-14 -22 -20 -48q-2 -15 4 -37q6 -11 17 -19q15 -9 29 -7q8 0 16 3t13.5 5.5t11.5 7.5l22 22q11 13 21 23.5t15 15.5q-1 -11 5.5 -28t15.5 -31q22 -35 93 -59
q55 -17 121 -16q98 2 197 26q101 30 177 52v0l110 38q58 24 108 47q76 35 148 64q154 61 259 36q60 -10 114 -51q59 -36 75 -104q4 -20 4 -33q-1 -14 -4.5 -21t-11.5 -13q-7 -5 -13.5 -6.5t-16.5 1.5q-10 5 -12 13q-2 13 -13 9q-13 1 -13 -15q6 -22 31 -31q14 -6 28 -3
q19 3 29 15q28 32 13 88q-10 40 -29.5 69.5t-52.5 50.5q-61 46 -122 57q-62 10 -128 0q-64 -11 -146 -40q-76 -29 -149 -63q-50 -22 -105 -46q-52 -22 -108 -42h-1q-25 -7 -53 -13.5t-60 -16.5q-61 -20 -125 -30q-33 -4 -62 -7t-61 -5q-65 0 -120 15q-63 20 -81 52zM232 550
q22 82 46 146q24 69 52 128q34 68 68 125q9 17 24 30q17 13 27 15q15 -1 21 -11q7 -5 10 -20q2 -11 1 -25q1 -33 -5 -72q-9 -66 -40 -143q-24 -57 -55 -119q-30 -60 -80 -136q-18 -28 -39 -58.5t-41 -58l-36 -49.5t-25 -33q3 17 10.5 49.5t18 71.5t22 81.5t21.5 78.5z
M69 162q-17 -20 -39 -28q-7 -3 -18 0q-9 2 -13 11q-3 5 0 21q12 47 46 73q17 13 33 13v0q13 1 23.5 -4.5t21.5 -20.5q-6 -8 -7 -9t-7 -12q-11 -18 -40 -44z" />
    <glyph glyph-name="uniE00C" unicode="&#xe00c;" horiz-adv-x="270" 
d="M216 115q20 27 59 78q7 8 6 22q-3 10 -14 11q-32 -38 -74 -92q-55 -70 -119 -150q-63 -79 -130 -134q-7 -6 -16 -9t-17 -3q-2 0 -4 2q-3 6 -2 20q12 86 39 170q28 86 67 163q15 5 31 4q14 -1 28 2q13 3 26 10q15 9 21 19q9 16 6 33q-3 19 -22 28q-23 13 -49 3
q-18 -10 -31 -25q-9 -13 -18 -28q-47 -87 -80 -183q-32 -94 -45 -194q-4 -18 5 -36q9 -12 24 -18h6q13 0 27 7q14 6 22 12q68 56 133 136q65 81 121 152zM94 242q-10 -11 -26 -13q-12 -3 -26 -3q-7 0 -14 1q4 6 7 10t8 10q11 12 21 18q3 3 10 2q8 0 14 -3q0 -1 3.5 -4
t4.5 -5q2 -7 -2 -13z" />
    <glyph glyph-name="uniE00D" unicode="&#xe00d;" horiz-adv-x="379" 
d="M130 81q42 4 70 12.5t39 13.5q42 17 81 38.5t63 47.5q8 6 10 21q-3 8 -6.5 10t-10.5 2q-27 -31 -47.5 -43.5t-51.5 -30.5q-33 -19 -76 -31.5t-73 -14.5q-37 -4 -60 3t-37 22q-9 15 -16 28q-5 16 -2 26q9 -3 24 -7q39 -8 64 7q23 17 25 40q3 23 -17 39q-19 14 -43 12
q-21 -2 -37 -14q-18 -12 -30 -32q-1 -3 -1.5 -3.5t-2.5 -3.5q-6 -14 -9 -30q-2 -21 4 -42q8 -21 21 -38q29 -33 85 -33q16 -2 34 1zM92 243q9 -7 7 -16q-1 -12 -13 -19q-17 -10 -44 -4q-20 6 -21 10q9 18 24 27q9 6 22 8q15 3 25 -6z" />
    <glyph glyph-name="uniE00E" unicode="&#xe00e;" horiz-adv-x="1440" 
d="M163 275q-44 -8 -93 -43q-50 -34 -64 -92q-7 -44 12 -69q16 -15 35 -14q3 0 8.5 0.5t7.5 2.5q10 2 16 10t8 17q5 15 -11 17q-6 3 -12 0.5t-6 -13.5q-2 -3 -6 -5q-8 -2 -16 5q-8 9 -9 18q2 17 1 25q14 48 53 74q41 32 81 37q80 14 191 -30q63 -19 120 -50q87 -39 173 -71
q92 -31 192 -20q72 10 130 40q24 11 51.5 29t35.5 27q0 -10 8 -23t17 -25q13 -14 28.5 -20.5t45.5 -9.5q19 -2 36 1q37 5 73.5 12.5t68.5 22.5q36 16 57.5 27t48.5 38q6 11 10 21l-5 9l-11 5q-33 -36 -63.5 -51.5t-47.5 -23.5q-30 -13 -64 -19.5t-70 -12.5q-31 -3 -52 5
t-33 19q-7 5 -14 19t-6 19q3 -3 8.5 -3t12.5 -1q41 -5 61 7q10 8 18 18t8 21t-5 22t-14 17q-6 6 -18 8t-21 4q-20 -3 -38 -12q-18 -10 -33 -37q-33 -49 -94 -82q-61 -32 -131 -39q-95 -12 -178 16q-86 32 -171 69q-59 33 -124 55q-119 46 -206 29zM1118 239q9 7 18 5
q14 2 22 -6q6 -2 5 -9q1 -9 -9 -17q-14 -6 -38 -4q-16 4 -19 8q11 14 21 23z" />
    <glyph glyph-name="uniE00F" unicode="&#xe00f;" horiz-adv-x="1150" 
d="M315 119q-57 -17 -113 -26q-38 -6 -60 -4.5t-48 5.5q-46 8 -73 44q-16 23 -13 49q12 -7 34 -9q32 -2 40 1q38 15 40 47q4 18 -10 31q-8 13 -29 19q-25 9 -52 -8q-23 -14 -38 -38q-3 -8 -4 -10q-9 -24 -6 -50q3 -24 17 -47q42 -56 141 -58q15 1 29.5 0t30.5 4q61 9 118 25
q59 20 98 33q13 4 22 7q75 24 138 47q68 25 136 52l26 10q121 47 207 31q46 -8 90 -42q47 -28 60 -81q4 -7 5 -27q-1 -9 -4.5 -13.5t-9.5 -11.5q-7 -6 -21 -4q-5 3 -9 9q1 10 -15 9q-4 1 -10 -10q6 -24 27 -32q27 -7 48 11q27 24 13 73q-16 63 -67 98q-51 37 -102 45
q-45 9 -101 0q-54 -8 -119 -32l-27 -8q-68 -26 -135 -51q-67 -23 -137 -48q-9 -3 -22 -8q-39 -13 -95 -32zM14 217q10 17 28 28q18 13 35 5q9 -2 15 -8q6 -4 5 -13q0 -9 -8 -16q-6 -5 -15 -9q-8 -2 -29 -1q-19 3 -28 10q-3 2 -3 4z" />
    <glyph glyph-name="uniE010" unicode="&#xe010;" horiz-adv-x="303" 
d="M182 124q-39 -27 -86 -53q-45 -24 -93 -48l-55 -28q13 35 33 96t36 113q27 22 46 47q21 27 41 54q2 4 2.5 4.5t3.5 5.5q18 21 21 44q2 21 -13 32q-10 13 -27 9q-17 -2 -28 -17q-21 -29 -37 -64q-12 -33 -23 -66q-5 -16 -11 -37q-36 -116 -80 -240l-26 -12q-10 -6 -25 -11
q-12 -3 -27 -8h-6q-16 20 -33 18q-9 0 -14.5 -8.5t-3.5 -17.5q4 -3 6 -6.5t8 -7.5q6 -3 12 -3.5t12 -1.5q9 -10 18 -28q6 -8 10 -18t6 -19q6 -11 9 -24q-24 -63 -50 -125q-14 -34 -19 -47q-7 -21 -10 -49q-3 -14 5 -29q10 -12 26 -12q18 1 32 11q30 22 45 59q17 40 16 79
q1 58 -16 112q13 33 25 67t23 66l78 38q48 22 93 48q50 25 94 56q15 12 31 24t24 19q11 9 25.5 22t26.5 25q3 3 4.5 10t2.5 12q-1 11 -14 11q-11 -12 -28 -29t-32 -29t-28.5 -22t-29.5 -22zM89 332q-1 -4 -5 -9q-18 -24 -35 -46q-6 -7 -13 -15t-9 -10q2 7 10 25.5t14 33.5
q15 31 33 54q6 6 12 8q2 1 3 -1q6 -4 6 -11q-2 -15 -16 -29zM-123 -283q1 -38 -14 -70q-13 -30 -39 -48q-3 -3 -11 -6q-3 0 -5 3q-1 4 -1.5 5t-0.5 4q4 23 10 43q8 25 16 47q6 15 13 33.5t13 35.5t13 39q3 -10 4.5 -37.5t1.5 -48.5zM-104 -60l3 1q-3 -9 -11.5 -36.5
t-14.5 -40.5q0 1 -4 12.5t-10 20.5q-5 15 -12 24q11 2 20 5q17 8 29 14z" />
    <glyph glyph-name="uniE011" unicode="&#xe011;" horiz-adv-x="1306" 
d="M340 234q-54 23 -101 28q-45 9 -90 0q-43 -8 -87 -39q-42 -29 -59 -84q-9 -41 11 -67q15 -12 30 -13q11 0 18 4q20 9 22 24q0 7 -2 10t-9 6q-5 0 -17 -6q-2 -7 -8 -10q-6 0 -8 1t-5 4q-4 3 -5 6.5t-2 10.5q0 15 2 23q13 44 48 67q40 28 77 36q71 15 175 -26
q59 -21 112 -48q80 -35 162 -67q87 -26 180 -17q66 9 120 35q23 11 49 32t27 23q-1 -2 -9 -23.5t-19 -51.5t-22.5 -62.5t-20.5 -57.5l-29 -15q-24 -13 -50 -18q-2 -1 -7 -1q-9 12 -17.5 16.5t-16.5 5.5q-6 0 -13.5 -1.5t-9.5 -7.5q-4 -13 1 -21t19 -13q11 -4 22 -5
q10 -12 20 -31q12 -19 16 -37q6 -9 10 -24q-23 -61 -52 -128q-18 -44 -29 -96q-3 -16 6 -33q11 -11 25 -11q18 3 32 11q30 23 45 59q21 38 20 83q3 59 -18 113q27 68 49 135l81 40q98 46 188 108q30 20 54.5 39.5t54.5 52.5q5 8 6 14q-1 13 -10 21q-12 -12 -27 -28t-26 -25
q-15 -12 -32 -26.5t-35 -25.5q-90 -59 -187 -106l-53 -28q38 107 70 214q27 24 46 48q22 26 43 54q3 4 8 12q15 21 18 45q3 18 -13 31q-9 9 -27 9q-13 -3 -26 -18q-25 -27 -40 -63q-11 -33 -23 -67q-4 -11 -5 -19t-5 -15q-33 -48 -91 -78q-57 -30 -121 -39q-88 -10 -165 16
q-79 31 -161 67q-54 28 -114 48zM1090 334q-2 -6 -9 -13q-13 -20 -32 -46t-22 -29q11 34 24 64q12 34 33 57q4 5 12 8q2 1 5 -1q5 -4 3 -12q-2 -14 -14 -28zM789 -55q-3 0 -2 -3.5t5 -4.5q3 -3 10 -2q-6 10 -13 10zM872 -295q1 -37 -13 -70q-12 -29 -38 -50q-3 -1 -6.5 -3.5
t-8.5 -2.5q-6 3 -6 6.5v6.5q8 49 28 89q9 24 22 58t16 40q1 -4 3.5 -29.5t2.5 -44.5zM870 -145q0 -2 1 -2q-4 15 -17 36q-6 15 -16 24v0q30 9 55 21l4 2q-7 -19 -14 -43.5t-13 -37.5z" />
    <glyph glyph-name="uniE012" unicode="&#xe012;" horiz-adv-x="1396" 
d="M265 202q-39 -36 -84 -70q-86 -60 -179 -103l-57 -28q15 36 35 99t35 115q29 26 48 48q21 25 38 52q3 5 7 10q14 19 17 41q1 9 -0.5 15.5t-7.5 14.5q-7 6 -12 8t-14 0q-13 -2 -27 -18q-22 -25 -36 -61q-12 -32 -22 -66q-4 -15 -12 -37q-38 -117 -78 -238l-30 -14
q-12 -7 -24 -11t-27 -7h-9q-16 20 -32 22q-10 0 -18 -7q-4 -14 -1 -21q9 -7 19 -12q14 -4 22 -6q12 -10 19 -29q13 -19 16 -35q5 -12 9 -27q-11 -30 -22.5 -58.5t-25.5 -59.5l-2 -5q-18 -44 -30 -96q1 -16 8 -26q10 -14 25 -12q15 0 28 11q31 21 45 56q16 38 16 80
q0 60 -17 110q25 64 49 133l78 40q93 42 183 104q47 38 87 70q70 58 174 -13q40 -25 86 -47q52 -20 117 -22q83 2 154 26q75 28 148 62q52 24 103 43q99 38 171 24q37 -7 73 -34q40 -23 51 -69q5 -12 5 -23q-2 -13 -10 -20q-9 -5 -20 -1q-4 2 -7 8q-5 12 -13 7q-9 -4 -7 -12
q5 -15 21 -23q10 -6 15 -4q19 0 29 13q7 6 10.5 23t-2.5 39q-12 49 -55 81q-39 30 -87 37q-80 14 -181 -26q-52 -19 -105 -44q-67 -29 -144 -56q-72 -25 -149 -28q-59 -1 -106 19q-45 25 -85 46q-120 81 -203 12zM91 337q-1 -2 -4 -5.5t-4 -5.5q-17 -28 -57 -72q9 31 23 62
q6 15 12.5 29t18.5 26q5 4 6.5 6t7.5 3q3 1 6 -2q6 -8 4 -12q0 -6 -5 -15.5t-8 -13.5zM-198 -44l-7 -4q2 0 0.5 4t-1.5 2q-1 0 8 -2zM-120 -273q-4 -75 -52 -118q-3 -3 -5 -4t-8 -2q-5 0 -7 3q-1 3 -3 5.5t-2 5.5q1 7 9.5 37t17.5 49l1 4q12 24 24 54t15 41q3 -8 6.5 -32
t3.5 -43zM-106 -51l8 5l-6.5 -19.5t-9 -27.5t-12.5 -36q-3 14 -11.5 31t-16.5 29q9 2 22.5 7t25.5 11z" />
    <glyph glyph-name="uniE013" unicode="&#xe013;" horiz-adv-x="483" 
d="M394 134q-32 -36 -54 -70q-21 -30 -37 -58q-15 -28 -31 -61q-8 -13 -18 -31q-8 -20 -34 -59q-24 -38 -58 -82q-32 -41 -76 -86q-22 -21 -36 -32.5t-38 -26.5q-5 -3 -7 -3.5t-5 -3.5q4 14 20.5 59.5t27.5 83.5q30 98 53 194l4 10q16 58 30 115t28 117l2 6q27 36 50 73
q3 3 12 25q13 24 2 44q-2 15 -24 18q-12 4 -24 -5q-11 -7 -15 -21q-13 10 -29 12q-27 4 -56 -12q-27 -14 -41 -33q-27 -31 -45 -82q-15 -55 1 -85q13 -21 33 -25q29 -7 61 13q12 8 24 19t15 15q-3 -10 -9 -31.5t-13.5 -48.5t-15 -55t-13.5 -52l-3 -9q-25 -96 -53 -193
q-27 -93 -57 -169q-9 -4 -18 -10q-68 -34 -138 -76q-69 -44 -125 -108v0q-22 -30 -38 -58.5t-21 -56.5q-3 -33 18 -70q23 -31 59 -36h5q27 1 49 13q26 12 41 35q35 48 62 93q15 24 30 44v0q55 92 99 209q10 7 19 10q51 29 96 73q46 45 81 89q36 47 59 86q25 39 35 58
q9 19 17 33q18 32 32 59q15 28 36 58q21 29 53 67q16 19 41.5 46t29.5 31q7 9 7 20q0 8 -4.5 10t-8.5 4q-33 -35 -51.5 -54t-35.5 -39zM203 318q-2 -7 -3 -9t-5 -9q-4 -8 -5.5 -10.5t-6.5 -5.5q0 3 4 26q1 8 4 16q3 12 13 11q3 -5 2 -9t-3 -10zM75 152q-21 -12 -39 -10
q-10 4 -16 13q-8 13 -5 28q3 19 7 33q18 46 39 74q13 15 29 24q21 10 38 11q20 1 30 -14v-16q-10 -38 -19 -79q-11 -14 -28 -33q-15 -17 -36 -31zM-135 -612q-15 -22 -28 -44q-27 -44 -63 -89q-12 -16 -32 -28q-19 -7 -38 -9q-24 2 -38 22q-16 27 -13 51q9 50 49 102
q57 62 122 101q18 11 40.5 23.5t42.5 22.5l46 23q-3 -10 -13 -31t-22 -46t-26.5 -51t-26.5 -47z" />
    <glyph glyph-name="uniE014" unicode="&#xe014;" horiz-adv-x="1877" 
d="M526 191q-152 62 -266 38q-58 -9 -120 -53q-62 -41 -83 -118q-13 -56 19 -87q16 -11 36 -15q9 0 18 4q25 8 29 30q2 6 1.5 10.5t-7.5 8.5q-10 0 -13 -1t-6 -13q-6 -9 -12 -9q-18 -6 -29 3q-9 13 -13 30q4 25 3 34q17 68 71 101q57 38 111 50q105 22 252 -37
q83 -29 161 -68q115 -48 229 -92q120 -41 250 -27q93 12 173 52q37 20 72.5 46.5t49.5 44.5q0 -3 3 -5.5t5 -4.5q14 -18 42 -16q12 0 24.5 5.5t21.5 9.5q8 5 25 19q-2 -3 -31 -64.5t-68.5 -148.5t-81 -181.5t-68.5 -162.5q-13 -10 -26 -16q-33 -17 -75.5 -49t-83.5 -65
q-79 -68 -99 -171q-4 -43 12 -76q24 -37 61 -39q7 0 8 -1q21 3 35 18q11 8 15.5 15t10.5 14q45 58 73 121q28 67 52 130l4 13q17 52 34 91q37 27 69 47q54 42 99 86t86.5 92.5t81 104t84.5 119.5q13 24 23 38.5t17 27.5q19 37 42.5 71t34.5 48q3 4 5 8.5t2 13.5
q-1 11 -15 11q-48 -64 -89 -139q-13 -22 -20 -32t-20 -33q-87 -126 -162.5 -219t-181.5 -175q-9 -6 -22 -15t-19 -13q18 43 50 117.5t71.5 163.5t84.5 184t88 182q8 12 9 16q12 25 21 43q6 14 -4 18q-3 3 -8.5 0.5t-8.5 -6.5q-1 -4 -3 -7q-4 9 -27 9q-18 0 -32 -7
q-39 -15 -71 -52q-28 -27 -55 -63q-8 -10 -16 -24q-47 -70 -130 -114q-79 -42 -177 -53q-126 -16 -237 23q-57 21 -113.5 42t-113.5 48q-76 44 -162 71zM1576 167q-11 -14 -40 -34q-10 -7 -34 -12q-14 1 -20 9t-2 22q12 20 16 30q26 31 50 59q32 34 66 50q12 5 21 3
q7 1 9 -2q5 -4 -2 -20q-3 -4 -7 -16l-25 -43q-15 -27 -32 -46zM1287 -524l-4 -11q-19 -63 -51 -129q-28 -62 -73 -119q-4 -9 -17 -21q-8 -8 -24 -11q-22 -1 -44 25q-14 26 -9 60q8 50 33.5 87.5t57.5 67.5q18 18 42.5 38t48.5 37t42.5 28t24.5 12q-15 -32 -27 -64z" />
    <glyph glyph-name="uniE015" unicode="&#xe015;" horiz-adv-x="2001" 
d="M431 254q-15 -7 -25 -15t-22 -20q-2 -4 -9 -16t-15.5 -26t-15.5 -26t-10 -16q-26 -47 -56 -91q-166 -252 -378 -409q-9 -6 -21.5 -15t-15.5 -12q9 24 40 94.5t71.5 162.5t87 191.5t87.5 183.5q3 8 8 17q8 12 14.5 22t9.5 21q3 8 -0.5 12.5t-6.5 4.5q-14 7 -19 -7
q-1 -4 -6 -3v0q-8 7 -22 6q-5 0 -14.5 -1.5t-15.5 -5.5q-19 -9 -38 -21t-34 -30q-29 -27 -54 -62q-33 -49 -12 -82q9 -9 18.5 -13t21.5 -5q12 2 25 7.5t22 9.5q8 6 22 19q-2 -3 -30 -64t-65.5 -145.5t-78 -177t-67.5 -158.5q-5 -4 -19 -10q-81 -51 -164 -119
q-81 -66 -97 -166q-5 -47 12 -73q25 -38 69 -41q38 16 60 44q22 30 39.5 61t29.5 59q30 70 52 129l4 14q16 44 32 86q40 21 70 44q219 164 383 418q31 44 54 86q24 38 43 72q18 30 44 43q17 7 39 10q65 12 154 -38q22 -6 33 -23q22 -16 46 -27q41 -24 84 -40q91 -25 182 -21
q92 9 190 40q97 36 179 71q18 7 29 10q71 37 148 63q115 47 194 38q89 0 152 -49q74 -48 77 -122q2 -9 -6 -31q-3 -10 -17 -19q-9 -1 -23 4q-4 3 -8 8q-2 14 -17 11q-7 -7 -8 -14q4 -11 8 -14.5t9 -8.5q6 -3 12 -7.5t16 -4.5q12 -1 19 3q13 3 19.5 11t13.5 22q8 25 7 41
q-5 86 -90 143q-63 53 -163 54q-89 3 -206 -42q-39 -13 -74.5 -29t-74.5 -34q-5 -3 -25 -11q-83 -34 -180 -70q-90 -35 -181 -39q-89 -8 -176 25q-35 11 -79 35q-22 12 -43 27q-13 13 -35 22q-92 52 -171 40q-20 -3 -42 -11zM101 206q-11 -23 -31 -44q-16 -18 -37 -29
q-6 -4 -16 -7.5t-19 -5.5q-12 4 -19 10q-5 9 -1 18q1 7 6.5 16.5t8.5 14.5q12 18 22.5 31t24.5 26q11 12 30 26.5t37 20.5q11 5 17 6q5 -1 8 -4t1.5 -7t-1.5 -11q-2 -7 -7 -19zM-210 -509l-6 -15q-20 -58 -49 -128q-27 -62 -70 -111q-15 -26 -41 -35q-23 0 -44 25
q-6 13 -7.5 33t1.5 35q9 39 30 75t58 67q19 16 42.5 34t45 33t38 27t22.5 15q-1 -4 -8 -22.5t-12 -32.5z" />
    <glyph glyph-name="uniE016" unicode="&#xe016;" horiz-adv-x="301" 
d="M230 115q-7 -11 -22 -27q-11 -10 -28 -22q-16 -12 -38 -19q-14 -3 -19 -1q-3 0 -1.5 6.5t1.5 9.5q4 10 5 20q3 8 10.5 33.5t7.5 35.5q3 31 -17 49q-13 12 -23 13q-10 3 -29 -6q-13 -6 -24 -15q-9 -7 -23 -23q-18 -19 -40 -52l4 16q3 7 11 34t13 41q76 72 127 165
q53 99 78 198q9 23 2 46q-3 13 -14 25q-9 10 -28 9q-10 1 -18 -6q-9 -3 -13 -8q-28 -28 -45 -63q-15 -38 -24 -70q-14 -45 -29 -96q-16 -50 -32 -98t-28 -87q-3 -12 -10 -33.5t-12 -37.5q-10 -32 -20 -65q-8 -31 -17 -64q-7 -7 10 -17q9 -1 20 9q13 31 34 67.5t50 66.5
q6 7 10 11l9 9q10 9 25 15q11 4 20 -4q5 -8 6 -13t0 -15q-2 -32 -15 -62q-2 -3 -4.5 -10.5t-2.5 -11.5q-7 -28 8 -42q5 -6 9.5 -7t13.5 -1t14.5 1t11.5 4q10 4 21 10q6 4 14 8.5t12 8.5q17 13 26 22q6 7 17 19t20 28q8 13 11.5 20.5t13.5 25.5q2 4 9 15.5t8 13.5q4 8 6 16
q0 9 -4.5 12t-10.5 5q-2 -3 -13.5 -23.5t-13.5 -23.5q-8 -15 -20 -35q-7 -12 -10.5 -17t-9.5 -13zM47 302q17 50 32 99q15 51 29 95q8 32 22 64q14 34 40 57q8 7 20 4q5 -3 7.5 -4t3.5 -7q3 -17 -4 -34q-20 -92 -70 -181q-24 -41 -60 -89q-15 -19 -24.5 -33.5t-7.5 -8.5
q6 22 12 38z" />
    <glyph glyph-name="uniE017" unicode="&#xe017;" horiz-adv-x="1346" 
d="M556 300l-20 6q-52 22 -103 45q-12 6 -63 29q-40 18 -90 29q-48 13 -105 6q-67 -11 -108 -50q-8 -7 -20 -21q-11 -12 -20 -31q-8 -17 -11 -39q-2 -22 8 -45q8 -9 16 -14q10 -3 20 -5q30 0 37 25q3 5 -3 11l-4 6q-13 1 -17 -10q-2 -6 -6 -8q-3 -2 -6 -1q-5 1 -10 3
q-3 2 -5 8q-4 9 -5 13.5t-1 13.5q2 17 9 31q9 16 18 26q9 12 17 21q35 33 96 41q51 8 96 -4q50 -12 88 -29q3 -1 24.5 -10t33.5 -15q54 -22 107 -46q5 -3 25.5 -11t31.5 -11q19 -5 38 -12q12 -5 42.5 -12.5t36.5 -9.5q89 -23 167 -24q14 0 28 1q29 3 54 8t37 14
q-3 -15 -10 -39t-13 -47q-16 -57 -41 -124q1 -6 2 -8.5t6 -2.5q5 -1 9.5 -0.5t7.5 7.5q2 5 4 11q20 59 53 94q11 10 21 20q11 8 22 15q10 7 18 9q11 3 18 -2q8 -8 8 -21q2 -14 -3 -32q-3 -19 -10 -37q-2 -6 -7 -19t-11 -28t-11 -27t-6 -15q-4 -7 -13.5 -29.5t-12.5 -32.5
q-2 -2 -7.5 -19.5t-8.5 -28.5q-3 -10 -4 -18t0 -19q3 -21 19 -41q17 -21 43 -21q21 0 42 15q23 16 34 32q66 85 109.5 176t103.5 197q6 10 6 20q0 3 -3 7.5t-11 4.5q-24 -39 -50 -88.5t-53 -101.5t-57 -104t-63 -95q-6 -6 -12 -12.5t-15 -14.5q-14 -13 -31 -12q-16 0 -24 12
q-10 14 -13 27q-2 15 2 29q3 10 7 27.5t6 19.5q3 9 12.5 32t13.5 29q6 13 19 47.5t17 45.5q8 21 12 41q4 22 3 39q-1 22 -14 32q-15 16 -37 9q-16 -5 -33 -15q-14 -9 -28 -21q-10 -10 -16 -17q7 24 12 42q9 35 17 71q68 50 115 123q49 75 69 158q8 27 5 54q-5 17 -16 30
q-9 15 -24 16q-16 4 -38 -6q-16 -7 -35 -29q-18 -24 -29 -53q-9 -25 -17 -46q-14 -47 -23 -95q-10 -46 -20 -91q-5 -22 -9 -46q-33 -27 -99 -35q-43 -2 -91 4q-46 7 -97 21q-6 2 -35.5 9.5t-41.5 12.5q-38 13 -76 25zM1030 306l18 90q10 46 25 91q7 21 15 46q10 24 25 45
q7 6 18 17t25 11q3 2 6 0q8 -2 13 -11q6 -7 8 -16q3 -10 0 -21q-2 -12 -5 -25q-19 -76 -62 -144q-20 -30 -51.5 -64t-40.5 -41q0 1 2 8.5t4 13.5z" />
    <glyph glyph-name="uniE018" unicode="&#xe018;" horiz-adv-x="1518" 
d="M104 165q-5 6 -19 9.5t-28 -4.5q-21 -9 -44.5 -33t-28.5 -30q2 4 7 19t9.5 31.5t13.5 42.5q69 53 118 126q51 77 69 158q2 9 4.5 28t1.5 28q-9 42 -43 47q-37 7 -72 -36q-8 -8 -14.5 -22.5t-12.5 -29.5q-8 -21 -16 -47q-8 -30 -22.5 -86.5t-23.5 -101.5q-5 -27 -12 -57
q-7 -25 -10.5 -36.5t-11.5 -38.5q-15 -56 -42 -126q-2 -4 9 -11q5 0 7.5 1t7.5 4q3 6 3.5 7.5l3.5 10.5q13 38 42 72q32 44 66 56q9 2 12.5 1t8.5 -4q7 -7 5 -29q-2 -26 -16 -65q-23 -71 5 -122q27 -49 89 -69q52 -14 115 -14q94 1 189 24q98 28 170 49h2q110 37 209 83
q75 32 141 60q148 58 250 37q54 -9 107 -49q57 -38 72 -101q1 -9 0 -31q4 -20 -9 -31q-12 -9 -29 -6q-7 3 -12 13q-1 10 -15 9q-8 -2 -9 -13q4 -25 28 -33q37 -9 55 12q30 35 16 86q-18 73 -80 114q-59 45 -120 55q-110 22 -262 -38q-73 -28 -144 -61q-99 -49 -204 -85v0
q-49 -12 -110 -30q-55 -14 -118 -28q-59 -8 -120 -10q-61 0 -116 15q-54 16 -73 54q-21 44 -2 101q9 28 14 66q9 45 -11 59zM27 257q22 95 46 186q1 5 6 20.5t8 24.5q7 22 25 47q4 6 16 16q6 6 15 9t15 2q20 -4 24 -26q1 -13 -1 -23.5t-4 -22.5q-17 -74 -61 -143
q-20 -31 -47.5 -61.5t-46.5 -45.5q2 8 5 17z" />
    <glyph glyph-name="uniE019" unicode="&#xe019;" horiz-adv-x="270" 
d="M87 82q-7 -3 -29 -11.5t-28 -10.5q-12 -3 -26 0q-12 2 -17 5q-7 9 -7 18q1 14 2 18l8 26q6 14 9 25t10 31q2 8 4.5 14t6.5 15q2 9 -0.5 11.5t-7.5 5.5q-10 2 -17 -7q-3 -10 -6.5 -17t-6.5 -14q-6 -20 -10.5 -31.5t-7.5 -22.5q-6 -15 -10 -31q-3 -18 0 -35q4 -17 15 -27
q13 -8 31 -11q10 -2 15 -2q15 1 26 4q6 2 25.5 9.5t27.5 13.5l12 6t12 7q28 16 63.5 40.5t92.5 81.5q3 3 5 9.5t3 10.5q0 13 -15 13q-20 -27 -60 -62t-102 -72q-11 -6 -18 -10zM13 269q-9 -5 -12 -18q3 -10 8.5 -11.5t8.5 -1.5q7 2 8.5 6.5l3.5 10.5q-2 6 -6.5 10.5
t-10.5 3.5z" />
    <glyph glyph-name="uniE01A" unicode="&#xe01a;" horiz-adv-x="2026" 
d="M234 277q-66 -10 -139 -62q-69 -51 -93 -135q-13 -64 20 -99q18 -17 41 -18q10 1 20 4q27 12 35 36q0 11 -14 16q-13 1 -14 -10q-4 -13 -14 -16q-16 -5 -33 7q-15 16 -16 38q1 29 3 37q18 75 81 118q65 46 129 58q123 21 291 -45q93 -30 185 -78q130 -56 263 -108
q140 -44 288 -29q99 16 178 49q19 9 40.5 22.5t40.5 27.5t33 25.5t18 15.5q-1 -2 -5.5 -9.5t-6.5 -12.5q-6 -15 -9 -31q-3 -18 -1 -36.5t18 -31.5q6 -6 10 -8t11 -4q14 -2 29 -1q31 4 61 14q8 5 20 8q45 15 93 35t92.5 43.5t81 47.5t59.5 48q8 7 8 21q-2 12 -15 13
q-22 -27 -61 -52.5t-84 -49.5t-92.5 -43.5t-87.5 -34.5q-9 -5 -24 -10q-25 -13 -57 -15q-10 0 -16.5 3.5t-12.5 10.5t-6 18.5t1 21.5q4 18 9 31q8 20 30 58q11 19 21 36q10 14 -2 19q-15 8 -18 -3q-3 -5 -6 -8q-58 -75 -152 -128q-89 -51 -200 -62q-142 -18 -274 27
q-126 46 -264 106q-89 48 -185 83q-178 66 -308 42zM1650 237q15 5 18 15q-3 16 -17 14q-10 2 -16 -14q5 -10 15 -15z" />
    <glyph glyph-name="uniE01B" unicode="&#xe01b;" horiz-adv-x="1426" 
d="M108 36q-6 0 -13 -2q-33 -4 -69 -9q-32 0 -58 20q-13 12 -11 30q1 12 3.5 20t7.5 22q16 33 36 66q9 15 15 28q7 13 -7 19q-6 4 -17 -7q-5 -13 -14 -27q-20 -34 -38 -70q-29 -70 7 -102q21 -12 30 -18t52 -7q37 5 66 8q9 1 13 3q223 32 439 106q92 38 182 76q54 24 109 47
q57 26 119 45q67 24 133.5 21.5t127.5 -22.5q2 -1 9.5 -4t8.5 -4q29 -15 55 -37q26 -15 47 -48q30 -42 34 -80q3 -8 -1 -32q-2 -20 -22 -33q-12 -2 -30 1q-8 7 -13 14q-7 16 -20 7l-6 -12q7 -21 29 -32q27 -13 50 -3q44 26 39 95q-2 41 -39 91q-46 60 -109 91q-4 2 -13 5
t-10 5q-129 45 -280 1q-116 -42 -226 -90q-87 -39 -181 -75q-216 -75 -435 -107zM25 238q13 0 15 15q-2 6 -4 9.5t-10 5.5q-9 0 -11.5 -3t-5.5 -12q5 -15 16 -15z" />
    <glyph glyph-name="uniE01C" unicode="&#xe01c;" horiz-adv-x="260" 
d="M1 277q5 -17 20 -20q15 2 19 18q0 12 -5.5 16t-11.5 6q-13 0 -16.5 -7t-5.5 -13zM170 92q-16 -31 -33 -56q-15 -25 -27 -50q-8 -14 -16 -31q-10 -17 -32 -54q-22 -33 -53 -75q-31 -41 -69 -81q-18 -19 -44 -37t-33 -22q6 16 22 64.5t26 84.5q25 83 45 164q26 93 51 183
q2 5 6 15.5t6 17.5q7 9 -1 17q-10 7 -21 -4q-3 -6 -8 -21.5t-7 -18.5q-26 -92 -54 -183q-20 -83 -45 -170q-23 -83 -55 -166q-7 -5 -15 -8q-65 -33 -130 -71q-63 -36 -115 -95h-1q-43 -57 -53 -111q-2 -30 16 -65q22 -27 55 -31q3 0 6 -1q23 -1 44 12q25 15 39 31
q32 43 58 86q12 22 23 41h1q56 95 93 193q11 6 19 10q48 26 88 66q42 42 73 82q33 42 55 79q22 38 32 54q8 17 16 32q16 32 29 54q15 25 35 59q20 32 43 68q9 15 15 24t11 15q6 7 6 20q0 4 -5 8.5t-9 4.5q-41 -63 -56 -85q-11 -17 -31 -49zM-264 -530q-12 -20 -26 -39
q-26 -41 -58 -83q-11 -16 -30 -26q-18 -8 -33 -8q-22 4 -36 22q-13 24 -13 45q9 45 47 94q51 57 110 93q63 38 123 69q3 3 -5.5 -14.5t-21.5 -44.5t-28.5 -56.5t-28.5 -51.5z" />
    <glyph glyph-name="uniE01D" unicode="&#xe01d;" horiz-adv-x="1602" 
d="M467 240q-153 60 -265 38q-54 -9 -118 -54q-59 -44 -82 -115q-10 -56 16 -86q16 -15 38 -16q16 0 18 4q26 10 28 30q8 11 -9 17q-5 0 -15 -10q-4 -10 -11 -13q-15 -2 -30 6q-13 13 -13 31q3 22 3 30q19 66 71 103q55 40 110 48q104 21 250 -37q84 -30 158 -68
q112 -50 226 -92q122 -38 250 -24q88 12 161 45q33 16 69.5 45t44.5 38q-8 -18 -25 -61.5t-40 -99.5t-49 -118t-50 -116q-15 -31 -30 -64q-18 -31 -34 -64q-33 -70 -72 -140q-51 -34 -101 -70q-12 -8 -26 -19.5t-27 -21.5q-45 -30 -83 -68q-20 -22 -18 -54q8 -20 23 -34
q15 -10 32 -11q41 3 82 50q78 103 135 211q90 62 169 141q23 25 41.5 49.5t41.5 59.5t54 85t79 125q3 6 13 24.5t22 39t22.5 39.5t14.5 26q23 43 29 56q0 2 6 12.5t12.5 22.5t12.5 22.5t7 13.5q3 9 3 19q-2 7 -5 9l-6 4q-4 -6 -12 -20t-16.5 -29t-15 -26.5t-6.5 -14.5
q-9 -20 -12.5 -26t-14.5 -26q-8 -14 -21.5 -40t-23.5 -42q-6 -7 -14 -23.5t-17 -30.5q-41 -63 -71 -110.5t-54 -84.5t-45 -65t-42 -52q-17 -15 -37 -32t-38 -33t-32.5 -28.5t-20.5 -18.5q6 11 24.5 43t30.5 56q7 18 21.5 43t14.5 26q13 28 25 60v0q57 123 97.5 228.5
t91.5 223.5q2 6 3 8q5 15 -9 18q-4 0 -7 -1t-6 -7q-2 -4 -4 -7q-47 -63 -127 -107q-79 -41 -174 -52q-122 -14 -234 22q-110 38 -226 92q-80 37 -161 68zM927 -715q-2 -4 -8.5 -9.5t-21.5 -17.5q-8 -6 -20 -10.5t-27 3.5q-9 6 -9 16q-4 19 7 32q36 38 81 68q27 21 51 38
q16 13 35.5 27.5t27.5 19.5q-6 -9 -19 -28t-29 -43t-34 -49t-34 -47zM1426 268q20 5 19 18q3 20 -19 19q-14 1 -18 -20q4 -13 18 -17z" />
    <glyph glyph-name="uniE01E" unicode="&#xe01e;" horiz-adv-x="1754" 
d="M737 14q-88 -7 -172 26q-39 15 -79 34q-10 8 -36 22t-41 27q-91 57 -171 42q-58 -5 -91 -59q-31 -45 -56 -93q-123 -256 -298 -407q-12 -10 -28.5 -24.5t-31.5 -27.5t-38 -33q2 3 12.5 21.5t25 44.5t29.5 54t26 49q134 273 233 530q-1 9 -13 10q-8 2 -13 -7
q-98 -252 -231 -522q-53 -107 -109 -206q-60 -43 -124 -89q-5 -2 -19.5 -12.5t-31 -23t-31 -24.5t-19.5 -17q-10 -8 -19 -22t-13 -25q0 -15 2 -22.5t7 -18.5q7 -11 29 -22q10 -2 19 -2q30 0 53 15t47 45q21 32 36.5 55t28.5 50q9 15 19 32t13 23q10 18 25 39q66 57 134 111
q87 78 160 176.5t137 227.5l6 13q22 45 51 85q31 47 74 50q75 15 158 -37q3 -3 14 -10.5t23 -15t23.5 -13.5t16.5 -8q20 -11 40.5 -19t39.5 -17q42 -14 89.5 -24t94.5 -2q88 9 188 37q92 35 177 72q15 6 27 13q72 33 145 59q54 24 106 34t94 6q45 -2 79.5 -15t64.5 -36
q71 -45 74 -122q3 -11 -3 -29q-2 -13 -19 -18q-9 -2 -23 5q-4 3 -5 6q-6 11 -16 12q-10 -9 -10 -17q11 -14 19 -25q26 -11 46 -4q13 4 18.5 11.5t10.5 19.5q9 24 8 43q-5 43 -25.5 77.5t-59.5 62.5q-68 49 -166 55q-84 3 -203 -45q-72 -27 -144 -59q-6 -3 -30 -13.5
t-55.5 -22.5t-64 -24.5t-54.5 -20.5q-48 -17 -92.5 -25t-87.5 -16zM-453 -614q47 32 90 65q0 -2 -12 -21.5t-28.5 -45t-34 -51.5t-29.5 -41q-35 -56 -89 -49q-6 9 -16 12q-8 13 -4 22q8 22 22 34q12 9 15.5 12.5t19.5 15.5q21 18 39 29.5t27 17.5zM28 261q20 5 19 18
q3 21 -19 19q-14 0 -18 -20q4 -14 18 -17z" />
    <glyph glyph-name="uniE01F" unicode="&#xe01f;" horiz-adv-x="500" 
d="M405 53q-23 -40 -45.5 -78t-49.5 -78q-52 -78 -111 -148q-56 -69 -112 -120q-25 -21 -52 -37q-12 -3 -15 -0.5t-3 10.5q-1 6 8 39q15 51 27 99q32 100 57 206q9 34 12 70q3 42 -21 73q-14 23 -35 28q21 16 45 42q8 8 14 18q10 13 14 22q3 6 6 14q5 11 -2 23q-4 11 -17 12
q-11 2 -23 -8q-5 -3 -23 -18q-29 -27 -56 -63q-12 -15 -22 -31.5t-17 -24.5q12 27 19 55q7 22 11 45l4 3q86 74 145 165q60 93 99 216q26 77 -5 112q-6 8 -28 17q-27 4 -49 -22q-20 -20 -23 -25q-25 -39 -46 -88l-34 -92q-5 -15 -9 -33q-49 -146 -90 -291q-15 -65 -37 -130
q-19 -65 -41 -131q0 -8 8 -15h4q14 3 13 9q6 19 14.5 45t15 48.5t15.5 55.5q13 18 23 28q9 9 10 9q8 3 15 6q8 4 14 6h10q12 -2 20 -9q10 -5 18 -15q18 -22 15 -56q-1 -32 -10 -65q-25 -103 -57 -205q-5 -22 -13 -49q-7 -23 -15 -50q-6 -30 -9 -41q0 -4 -1 -9t-1 -15
q9 -12 15.5 -14.5t10.5 -3.5q15 0 23.5 1.5t23.5 12.5q28 21 43 33q59 53 120 129q63 76 117 161q56 83 101 169q16 33 34 68t28 56q5 12 5 21q-3 7 -4 8t-8 5l-16 -29q-15 -27 -34.5 -66.5t-42.5 -79.5zM93 448l10 32q17 46 32 89q18 45 45 83q9 14 23 26t22 12
q10 -5 13 -8q22 -26 0 -88q-34 -118 -96 -211q-25 -38 -61 -80t-54 -59q8 27 28.5 90t37.5 114zM103 193q-5 -9 -12 -16q-16 -19 -29 -31.5t-30 -21.5q-4 0 -7 -1q8 12 30.5 36t43.5 43l2 3q19 17 19 15q-1 -4 -3 -7q-5 -9 -14 -20z" />
    <glyph glyph-name="uniE020" unicode="&#xe020;" horiz-adv-x="1776" 
d="M541 450q-2 0 -13 5t-26 11t-31 12.5t-26 9.5q-43 14 -91 24q-2 0 -13.5 1.5t-25 3.5t-25 4t-12.5 2q-18 3 -36.5 0.5t-38.5 -5.5v0q-11 -2 -21.5 -2t-18.5 -3q-17 -5 -35 -14q-27 -13 -55 -34q-25 -21 -45 -46q-9 -14 -17 -27.5t-12 -29.5q-7 -32 2 -67q4 -23 20 -33
q19 -12 42 -9q13 3 23 13t13 21q1 13 -11 14q-12 5 -14 -9q-2 -6 -8 -9q-8 -3 -11 -5q-9 -2 -19 4q-8 7 -13 17v0q-13 59 26 105q43 46 89 73q17 7 30 10q16 5 38 9q38 7 70 3q1 0 12.5 -2t24.5 -4.5t35 -4.5q48 -10 89 -25q10 -4 26 -10t31 -12t26 -10.5t12 -4.5
q150 -74 283 -118q138 -43 272 -59q34 -3 76 -4q47 0 90 8q19 3 41 14t30 18q-2 -9 -4 -16q-34 -123 -75 -246q-6 -10 8 -16h4q9 0 11 6q24 71 45 142q12 12 13 16t7 12q3 3 6 7q1 0 4 2q15 6 29 10q3 2 5 1q21 -3 39 -24q19 -23 15 -51q-2 -32 -9 -64q-26 -96 -53 -195
q-15 -45 -29 -92q-7 -31 -10 -40q-2 -19 -2 -37q2 -16 10 -32q10 -16 35 -25q7 -3 16 -3q27 -1 53 20q26 22 40 37q53 54 91 118t74 126q35 61 69 133t65 120q5 8 6 16q0 4 -4 9.5t-10 7.5q-7 -12 -19 -33.5t-24 -44t-22 -41t-13 -23.5q-7 -14 -30.5 -58.5t-50.5 -92.5
q-36 -62 -69 -115.5t-83 -104.5q-12 -9 -23.5 -20.5t-20.5 -17.5q-16 -15 -37 -9q-26 7 -29 33q1 28 11 62l2 6q15 46 28 93q27 100 54 199q8 32 8 68q4 40 -19 70q-12 22 -32 27q22 15 43 41q11 14 26 37q3 6 6 14q4 13 -2 22q-5 13 -17 10q-10 3 -22 -7q-10 -8 -22 -18v-2
q-28 -28 -53 -58q-14 -17 -20 -28.5t-16 -29.5q11 30 17 57q3 11 5.5 18.5t7.5 23.5q82 73 139 160q58 91 97 207q23 76 -5 109q-5 7 -14 10.5t-18 3.5v0q-24 -1 -43 -21q-17 -18 -21 -24q-28 -39 -45 -84q-17 -42 -32 -85q-3 -15 -10 -33q-37 -109 -69 -222
q-23 -24 -55 -36q-31 -10 -65 -17q-31 -3 -66 -4q-30 3 -59 7q-131 16 -267 58q-132 42 -283 116zM1429 540q8 17 11 32q14 42 31 85t43 79q7 10 18 24q7 8 20 12q10 2 18 -6q20 -25 -2 -84q-36 -116 -92 -202q-24 -36 -58 -77.5t-52 -58.5q7 28 26 87.5t37 108.5zM1455 322
q-5 -10 -13 -22t-15 -19q-15 -18 -24 -28t-25 -18q-9 -3 -11 -4q7 9 29 34t41 44v1q9 6 10.5 9t7.5 3z" />
    <glyph glyph-name="uniE021" unicode="&#xe021;" horiz-adv-x="1432" 
d="M248 567q24 71 -3 106q-8 10 -32 19q-21 -2 -42 -22q-19 -18 -22 -28q-25 -39 -44 -80q-5 -11 -11.5 -29.5t-12.5 -36.5l-11 -33l-6 -18q-46 -137 -85 -275q-17 -60 -35.5 -121.5t-38.5 -121.5q0 -6 1.5 -7.5t7.5 -4.5l3 -1q7 -2 11 4q24 70 46 139q2 1 31 40q6 3 8.5 3
t5.5 2q7 1 11 2q12 2 23 -5q6 -4 9.5 -7t8.5 -9q25 -30 18 -64q-5 -39 -17 -77q-2 -3 -3 -9t-4 -18q-7 -38 1 -68q7 -28 27 -50q16 -16 37 -25.5t47 -16.5q53 -13 100 -13q25 0 44 1q21 4 37 4q123 19 238 58q114 44 225 86q37 16 74 31q39 16 78 33q73 29 131 35
q60 10 112 0q56 -10 109 -47q29 -20 44 -43.5t24 -55.5q3 -8 4 -27q-1 -21 -15 -35q-2 -3 -12 -5q-7 -3 -14 0q-10 7 -14 12q-2 13 -14 11q-8 -4 -9 -17q5 -21 29 -31q14 -4 29 -2q14 6 23 16q14 15 18 37.5t-2 45.5q-8 37 -30 65q-21 26 -48 47q-26 21 -58 34
q-30 15 -60 19q-52 12 -118 1q-63 -9 -138 -38q-78 -27 -153 -62q-54 -20 -110 -42t-113 -43q-112 -40 -234 -58q-14 -2 -48 -3q-32 -2 -69 1q-18 3 -37 5.5t-35 8.5q-33 12 -54 31q-15 21 -22 44q-7 26 1 49q2 10 4 17t3 10q6 18 10 39.5t7 41.5q8 46 -21 83q-13 19 -32 25
q18 14 31 30q20 23 34 45v0q6 8 10 16q6 12 0 21q-3 6 -4.5 7.5t-7.5 5.5q-9 0 -12 0.5t-12 -5.5q-5 -3 -12.5 -10.5l-9.5 -9.5v0q-30 -26 -56 -58q-10 -14 -21 -32t-15 -22q2 4 7 21.5t8 31.5q3 10 5.5 18t5.5 20l1 3q40 36 75.5 74t64.5 83q59 90 95 204zM87 437l10 30
q14 42 30 84q9 19 18 39.5t23 37.5q6 6 11 12.5t12 13.5q10 12 20 11q9 -3 12 -6q21 -25 1 -83q-34 -112 -91 -200q-24 -36 -59 -76.5t-50 -55.5q3 11 13 38.5t17 49.5q14 54 33 105zM93 209q2 1 8 8.5t12 8.5l2 -2q0 -3 -5 -12q-17 -22 -40 -47q-11 -11 -20.5 -18.5
t-23.5 -14.5h-4q6 7 30 33t41 44z" />
    <glyph glyph-name="uniE022" unicode="&#xe022;" horiz-adv-x="369" 
d="M374 194q3 6 4 8.5t1 11.5q0 6 -3 8l-9 6q-24 -29 -42 -55.5t-49 -72.5q-40 -60 -67.5 -101t-52.5 -92q-48 -99 -105 -183q-53 -80 -115 -160q-12 -16 -31 -18q-17 3 -23 16q-8 22 -8 37q2 79 17 151q19 78 40 151q13 44 23 79t23 81t26 95q2 6 3 9.5t4 10.5
q72 154 137 308l5 15q32 76 60 152q31 81 39 165q5 30 -14 44q-6 7 -12 9t-15 0q-17 -4 -24 -15q-3 -7 -9 -17q-45 -113 -81 -233l-64 -232l-127 -461q-23 -73 -41 -153q-18 -78 -18 -158q-2 -27 11 -56q17 -25 50 -30h2q35 7 51 32q62 80 113 163q57 85 104 182
q27 51 62.5 105t60.5 93q18 28 29 43.5t18.5 25t13 17t13.5 19.5zM58 363q34 118 64 232q36 120 79 231l4 10q2 6 11 5q11 -7 9 -22q-8 -81 -38 -160q-27 -75 -60 -151l-9 -23q-12 -27 -26.5 -61.5t-28 -66t-23 -54.5t-10.5 -26z" />
    <glyph glyph-name="uniE023" unicode="&#xe023;" horiz-adv-x="1863" 
d="M518 191q-169 65 -292 41q-66 -9 -134 -58q-62 -48 -88 -128q-12 -59 17 -97q21 -14 42 -17q13 1 18 3q29 11 33 36q2 7 -1 12.5t-9 3.5q-6 8 -17 -11q-2 -12 -13 -14q-18 -4 -33 7q-15 15 -15 34q4 25 3 35q24 67 81 112q61 46 120 56q118 24 279 -40q91 -38 175 -76
q122 -54 250 -101q132 -45 277 -29q96 14 180 52q39 19 80 52t52 45l-123 -341l-48 -148q-10 -36 -15 -72t-5 -75q-1 -22 6 -49q6 -11 18 -25t35 -12q29 5 47 32q60 72 104.5 152.5t92.5 166.5q24 45 55 107t63.5 125.5t62.5 123.5t52 100q6 8 7 21q-1 9 -15 12
q-12 -22 -43 -81.5t-68 -131t-73.5 -142t-60.5 -115.5q-47 -86 -92 -166.5t-105 -152.5q-14 -15 -29 -18q-13 2 -22 16q-5 22 -5 36q-2 74 18 142q23 74 45 142l129 382v0q70 146 129 285l8 14q27 75 54 144q30 75 38 155q0 6 -2 18.5t-12 20.5q-2 1 -10 6.5t-17 2.5
q-12 -4 -20.5 -12t-10.5 -18q-43 -104 -75 -217q-30 -111 -60 -218l-42 -160q-52 -69 -139 -115q-83 -43 -189 -56q-136 -17 -260 25q-122 47 -251 101q-86 44 -177 77zM1604 311q30 107 57 218q36 111 76 216q2 9 14 12v0q9 -5 5 -17q-4 -79 -34 -152q-26 -71 -57 -142
l-6 -12q-10 -26 -23 -59.5t-25 -63.5t-21.5 -53t-11.5 -27z" />
    <glyph glyph-name="uniE024" unicode="&#xe024;" horiz-adv-x="1912" 
d="M159 507q38 89 59 192q9 27 -12 55q-14 16 -20 16q-12 4 -26 -13q-26 -38 -39 -88q-3 -12 -7 -27q-46 -156 -92 -316q-4 -22 -13 -44q-13 -56 -31 -120q-10 -46 -19 -97q-6 -50 -2 -90q3 -23 12 -34q9 -21 28 -29q8 -2 17 -5q14 1 25 7q31 14 47 38q18 22 28 41
q13 24 19 32q9 16 27.5 30.5t31.5 22.5q25 8 41 11q75 13 166 -45q10 -6 37.5 -23.5t42.5 -23.5q49 -25 87 -42q92 -29 197 -24q93 5 200 41q101 38 189 75q14 7 30 13q77 38 156 66q117 48 207 41q95 -3 160 -53q36 -24 57 -60q22 -32 25 -68q-1 -16 -5 -33q-4 -13 -19 -20
q-11 -2 -25 2q-4 5 -7 11q-3 14 -14 12q-5 4 -12 -15q4 -19 19 -30q14 -5 29 -8q9 -1 18 2q28 9 33 34q9 25 9 47q-1 40 -27 79q-26 41 -65 69q-74 52 -176 58q-89 2 -216 -43q-82 -29 -157 -66q-15 -6 -30 -14q-88 -39 -187 -73q-102 -33 -194 -41q-49 -4 -99 4t-86 17
q-25 13 -43.5 21.5t-41.5 20.5q-11 6 -42 24.5t-40 24.5q-49 31 -97.5 44.5t-85.5 4.5q-23 -4 -46 -14q-20 -9 -36.5 -26.5t-30.5 -37.5q-11 -16 -20 -34q-11 -18 -26 -37q-6 -10 -16 -16t-22 -12q-13 -3 -23 1q-8 5 -13.5 13t-9.5 24q-5 38 2 82q8 51 18 93l12 35
q39 81 72 153t72 165zM192 705q-20 -101 -57 -189q-17 -39 -33.5 -79.5t-30.5 -74.5t-24.5 -58t-14.5 -30q3 12 6.5 21t7.5 23q46 160 93 317q3 14 7 27q8 26 15 45q9 22 18 38q3 3 8 -2q13 -19 5 -38z" />
    <glyph glyph-name="uniE025" unicode="&#xe025;" horiz-adv-x="529" 
d="M337 -55q61 51 112 116q45 57 85 133q4 10 5 18q1 13 -13 15q-16 -21 -44 -71q-27 -44 -54 -77q-49 -63 -106 -114q-6 -3 -14 -10q-4 -3 -13 -3q-9 2 -11 15q-2 20 0 31q14 67 41 128q29 64 62 120q21 42 40 81q24 41 38 81q2 8 3 11q2 6 5 16q1 15 1 26q-2 13 -11 27
q-7 14 -25 19q-12 4 -26 -1q-8 -3 -17 -7q-15 -8 -30 -20.5t-27 -27.5q-12 -11 -24 -26q-12 -14 -22 -26q-24 -33 -50 -69q-8 -12 -23 -33q-7 -11 -9.5 -19.5t-1.5 -4.5q3 15 1.5 23t-11.5 14q-6 4 -21 5q-9 0 -23.5 -3.5t-26.5 -14.5q-21 -21 -33 -37q-7 -10 -15 -25.5
t-9 -18.5l9 21q5 18 2 32q-4 13 -16 17q-21 10 -37 -12l-12 -18q-4 -8 -11 -17q-3 -3 -5 -8.5t-4 -6.5q-8 -9 -7 -21q5 -11 13 -13q14 21 22 31q14 18 25 38q3 5 5 4q4 -3 3 -7q-1 -8 -3 -13l-23 -88q0 -6 1 -8t4 -5q6 -2 15 3q12 27 28 51q17 24 35 48q12 17 28 33
q8 8 16.5 13.5t19.5 5.5h2q6 -1 9 -6q2 -3 1.5 -9t-0.5 -9q-2 -10 -5 -24t-9 -28q-3 -10 -11 -30q-6 -10 6 -18q11 -2 17 7q20 57 53 106q34 50 70 97q22 30 44 53q24 28 52 43q9 3 13 4.5t9 1.5q5 -1 8 -2t7 -6q6 -8 5 -18q3 -6 0 -18t-7 -21q-15 -40 -36 -82
q-20 -39 -41 -78q-32 -60 -62 -124q-27 -63 -42 -133q-6 -21 0 -43q7 -23 27 -33h11q15 0 23 8q4 4 7 6t8 5z" />
    <glyph glyph-name="uniE026" unicode="&#xe026;" horiz-adv-x="1784" 
d="M596 172q-68 34 -143 60q-135 54 -235 35q-52 -9 -109 -49q-57 -38 -72 -103q-7 -51 13 -79q22 -14 35 -15t19 4q24 11 26 31q0 10 -10 14h-9t-7 -9q-2 -9 -11 -11q-13 -2 -24 6q-5 6 -6 12t-4 16q1 11 2.5 16t1.5 9q21 54 62 87q51 34 96 45q93 18 222 -34
q75 -25 142 -59q100 -46 202 -81q106 -35 222 -23q89 14 164 51q76 45 122 104q23 42 32 50q5 3 6 0q2 -5 -1 -9l-25 -89v-8t9 -8h7q7 1 8.5 4t1.5 6q27 54 59 94q12 18 27 30q17 17 36 16q5 -1 7 -2q6 -7 2 -17q-8 -24 -19 -52q-9 -25 -10 -29q-1 -16 8 -19q10 -1 14.5 3.5
t5.5 7.5q5 12 9 26q19 48 47 86q28 44 61 83q21 26 40 52q21 25 50 38q14 8 23 6q15 -4 17 -23q1 -19 -8 -39q-32 -77 -73 -152q-28 -57 -60 -121q-30 -59 -42 -130q-8 -21 0 -44q11 -19 28 -29q22 -5 29.5 1.5t16.5 11.5q30 24 53 52.5t48 58.5q12 22 41 66.5t46 73.5
q5 8 9 18q-2 7 -5 10t-12 5l-26 -39t-31 -48l-27.5 -44t-15.5 -25q-22 -29 -44 -55t-50 -48q-6 -6 -10.5 -9t-13.5 -3q-8 6 -10 14v28q13 68 38 123q27 62 59 120q44 75 75 156q15 25 12 51q-1 5 -2.5 12t-7.5 13q-11 17 -27 21q-24 4 -42 -8q-30 -15 -56 -45
q-24 -27 -44 -53q-11 -12 -23 -30t-22.5 -34t-23.5 -40q-2 17 -14 22q-5 4 -19 4q-27 2 -54 -19q-22 -21 -32 -37q-7 -9 -14 -23q12 41 -13 49q-21 10 -36 -13q-15 -20 -24 -38q-11 -17 -20 -27q-44 -52 -113 -90q-66 -32 -145 -42q-108 -13 -208 18q-99 40 -201 84z" />
    <glyph glyph-name="uniE027" unicode="&#xe027;" horiz-adv-x="2128" 
d="M435 343q21 40 32 68q5 19 8 39q3 22 -15 40q-13 16 -34 15v0q-20 5 -52 -19q-24 -23 -47 -46q-55 -62 -90 -119l-12 -18l-8 -12q-1 5 -2 11t-7 11q-10 6 -24 4q-23 -1 -50 -21q-20 -16 -37 -37q-7 -8 -14 -24q11 43 -13 51q-9 6 -19 2t-18 -15q-5 -6 -12 -15t-11 -14
q-7 -9 -7.5 -10t-7.5 -10q-3 -4 -4.5 -11.5t-1.5 -12.5q4 -8 6.5 -8.5t7.5 -0.5q7 9 13.5 17t14.5 18q11 14 21 30q4 5 6 4q3 -2 3 -5q1 -7 -2 -13l-26 -89q1 -11 9 -17l3 -1q11 -2 14 10q29 57 60 97q13 18 27 32q20 18 38 17q5 1 8 -1q4 -4 1 -17q-4 -25 -14 -48
q-2 -6 -12 -40v-1q0 -8 0.5 -10t4.5 -3q8 -3 10.5 -0.5l6.5 6.5q3 5 5 12q6 14 9 26q23 46 53 91q42 60 89 117q53 59 81 60v0q10 0 17 -8q11 -9 7 -24q-3 -19 -8 -32q-10 -25 -29 -63q-23 -48 -49 -98q-6 -10 -17 -32t-15 -31t-6.5 -14t-5.5 -14q-10 -37 5 -64
q10 -16 20 -19q27 -4 47 6q28 19 56 34q27 16 52 31q28 17 56 21q47 10 87 -8q43 -14 71 -33q18 -8 35 -21q22 -17 49 -28q42 -20 82 -40q92 -28 193 -24q91 8 196 39q99 35 186 76q13 5 26 11q75 34 153 63q116 45 201 41q95 0 157 -49q74 -55 82 -130q1 -6 -1 -15.5
t-4 -13.5q-3 -6 -7 -12t-12 -8q-11 -3 -24 3q-6 3 -8 9q2 14 -14 12q-4 -2 -8 -5t-4 -11q4 -20 22 -27q4 -3 7.5 -4.5t13.5 -3.5q18 0 22 3q29 11 36 32q9 26 8 45q-3 30 -28 74q-9 19 -26.5 37.5t-38.5 33.5q-70 55 -173 56q-87 3 -208 -42q-79 -30 -154 -64
q-13 -6 -30 -12q-87 -40 -182 -73q-105 -31 -192 -39q-95 -6 -181 22q-38 20 -81 38q-23 13 -42 26q-20 10 -38 23q-33 15 -77 34t-98 12q-30 -5 -61 -21q-29 -16 -57 -35q-26 -17 -55 -35q-14 -8 -23 -4q-6 4 -10 8q-8 21 -2 42q8 20 10 24t14 27.5t19 33.5q25 50 48 100z
" />
    </font>
</defs>
</svg>
